<svg width="40" height="44" viewBox="0 0 40 44" fill="none" xmlns="http://www.w3.org/2000/svg">
<g clip-path="url(#clip0)">
<path fill-rule="evenodd" clip-rule="evenodd" d="M10.5977 32.1133C8.86531 34.15 8.45696 35.6727 7.94355 37.4368C11.5232 39.767 18.4818 44.6636 22.5066 42.7323C22.2347 41.088 22.2391 41.2593 22.1756 39.4225C22.1756 29.3028 23.6959 23.3703 25.8164 14.2682C24.597 15.0846 22.2296 20.2845 21.518 21.8851L14.3023 38.8642C10.4994 41.2411 10.5977 33.4505 10.5977 32.1133V32.1133ZM7.62939e-06 15.5922V27.5075C7.62939e-06 30.5191 0.847459 32.9212 2.64808 34.1271C2.64808 28.5276 4.50883 16.4086 6.36383 10.8061C7.23628 7.38522 9.60198 7.93882 10.2684 11.0506C10.775 13.416 7.94389 25.6786 7.94389 29.8246C9.24327 28.8728 10.1009 25.4854 12.144 23.427C13.4805 22.0803 14.6492 21.9544 15.3203 23.4638C15.7655 24.4646 15.2254 26.5851 15.2254 28.8316L18.0897 22.7593C19.7687 19.2617 25.8512 6.32498 29.1265 6.32498C30.1431 6.32498 31.5827 7.66726 31.9046 8.53768C32.3193 9.65973 29.5352 19.8241 29.192 21.2846C27.9233 26.6851 26.8094 33.6167 26.8094 40.0845C28.2702 39.7441 36.965 34.4581 37.6456 33.7099C38.519 32.7497 39.3864 31.2213 39.3864 29.4933V13.2752C39.3864 8.88861 32.3825 6.2831 28.5242 3.94746C18.5463 -2.09279 19.769 -1.03254 7.59532 5.97641C3.61679 8.26713 7.62939e-06 9.26927 7.62939e-06 15.5919V15.5922Z" fill="white"/>
</g>
<defs>
<clipPath id="clip0">
<rect width="39.3864" height="43.1734" fill="white"/>
</clipPath>
</defs>
</svg>
