<?xml version="1.0" encoding="UTF-8"?>
<!DOCTYPE svg PUBLIC "-//W3C//DTD SVG 1.1//EN" "http://www.w3.org/Graphics/SVG/1.1/DTD/svg11.dtd">
<!-- Creator: CorelDRAW 2019 (64-Bit) -->
<svg xmlns="http://www.w3.org/2000/svg" xml:space="preserve" width="80.9739mm" height="80.9739mm" version="1.1" style="shape-rendering:geometricPrecision; text-rendering:geometricPrecision; image-rendering:optimizeQuality; fill-rule:evenodd; clip-rule:evenodd"
viewBox="0 0 8089.87 8089.87"
 xmlns:xlink="http://www.w3.org/1999/xlink">
 <defs>
  <style type="text/css">
   <![CDATA[
    .fil7 {fill:none}
    .fil1 {fill:#016964;fill-rule:nonzero}
    .fil6 {fill:#057872;fill-rule:nonzero}
    .fil5 {fill:#09A59D;fill-rule:nonzero}
    .fil4 {fill:#333333;fill-rule:nonzero}
    .fil3 {fill:#E6E8E8;fill-rule:nonzero}
    .fil2 {fill:white;fill-rule:nonzero}
    .fil0 {fill:#09A59D;fill-rule:nonzero;fill-opacity:0.200000}
   ]]>
  </style>
 </defs>
 <g id="Layer_x0020_1">
  <metadata id="CorelCorpID_0Corel-Layer"/>
  <g id="_3068694443568">
   <g>
    <g>
     <path class="fil0" d="M6868.59 4246.46c0,-1490.89 -1208.62,-2699.51 -2699.5,-2699.51 -1490.88,0 -2699.49,1208.62 -2699.49,2699.51 0,1490.9 1208.61,2699.49 2699.49,2699.49 1490.88,0 2699.5,-1208.59 2699.5,-2699.49z"/>
    </g>
    <g>
     <g>
      <path class="fil1" d="M6038.58 4895.4l-1959.05 1155.28 -1959.05 -1155.28c0,-0.96 0,-2.24 0.32,-3.19 1.6,-7.34 109.73,-97.6 274.62,-231.56 1.59,-1.28 2.87,-2.56 4.47,-3.84 540.96,-439.2 1679.64,-1338.67 1679.64,-1338.67 0,0 1138.68,899.46 1679.64,1338.67 167.44,135.88 277.49,227.74 279.09,235.4 0.32,0.95 0.32,2.23 0.32,3.19z"/>
      <g>
       <path class="fil2" d="M4885.21 2361.37l-2113.69 0c-181.3,0 -328.26,146.98 -328.26,328.28l0 3195.87c0,181.3 146.96,328.27 328.26,328.27l2648.53 0c181.3,0 328.26,-146.97 328.26,-328.27l0 -2661.04 -863.1 -863.12z"/>
       <path class="fil3" d="M4885.21 2896.23c0,181.3 146.96,328.26 328.26,328.26l534.83 0 -863.1 -863.12 0 534.85z"/>
       <path class="fil4" d="M3789.38 2901.6l-729.22 0c-64.58,0 -116.94,52.34 -116.94,116.93l0 729.23c0,64.58 52.36,116.94 116.94,116.94l729.22 0c64.59,0 116.94,-52.36 116.94,-116.94l0 -729.23c0,-64.59 -52.35,-116.93 -116.94,-116.93z"/>
       <path class="fil5" d="M4788.34 4132.34l-1749.74 0c-52.04,0 -94.22,42.18 -94.22,94.21 0,52.04 42.18,94.23 94.22,94.23l1749.74 0c52.03,0 94.21,-42.19 94.21,-94.23 0,-52.03 -42.18,-94.21 -94.21,-94.21z"/>
       <path class="fil5" d="M4788.34 4601.7l-1749.74 0c-52.04,0 -94.22,42.17 -94.22,94.21 0,52.03 42.18,94.21 94.22,94.21l1749.74 0c52.03,0 94.21,-42.18 94.21,-94.21 0,-52.04 -42.18,-94.21 -94.21,-94.21z"/>
       <path class="fil5" d="M3993.7 5057l-955.1 0c-52.04,0 -94.22,42.18 -94.22,94.21 0,52.04 42.18,94.22 94.22,94.22l955.1 0c52.03,0 94.21,-42.18 94.21,-94.22 0,-52.03 -42.18,-94.21 -94.21,-94.21z"/>
      </g>
      <g>
       <path class="fil5" d="M6038.78 4895.32l0 1879.47c0,131.34 -107.36,238.71 -238.72,238.71l-3441.27 0c-131.36,0 -238.09,-107.37 -238.09,-238.71l0 -1879.47 1959.04 1155.09 1959.04 -1155.09z"/>
       <path class="fil6" d="M5972.57 6938.71l-1260.91 -1260.9 -631.91 372.59 -632.18 -372.75 -1261 1260.98c43.4,45.85 104.33,74.87 172.23,74.87l3441.27 0c67.86,0 128.94,-28.98 172.5,-74.79z"/>
      </g>
     </g>
    </g>
    <g>
     <g>
      <polygon class="fil5" points="4514.32,2249.41 5306.5,4108.12 5885.49,3712.03 6221.01,4199.56 6281.58,3377.12 6982.29,2950.14 "/>
      <polygon class="fil6" points="6013.84,3624.05 5306.5,4108.12 5885.49,3712.03 6221.01,4199.56 6281.58,3377.12 5165.02,2712.15 "/>
      <polygon class="fil1" points="6266.73,3578.71 5165.02,2712.15 6281.58,3377.12 "/>
     </g>
     <path class="fil5" d="M4581.48 2800.59l256.95 589.61c13.07,30.07 -0.76,65.03 -30.86,78.02l-9.16 3.96c-30.22,13.05 -65.3,-1.06 -78.09,-31.39l-247.78 -593.59c-13.1,-31.11 2.4,-66.88 34.07,-78.58 29.49,-10.89 62.34,3.13 74.87,31.97z"/>
    </g>
    <path class="fil4" d="M1400.82 5483.66c-104.33,0 -188.92,84.57 -188.92,188.91 0,104.33 84.59,188.92 188.92,188.92 104.33,0 188.91,-84.59 188.91,-188.92 0,-104.34 -84.58,-188.91 -188.91,-188.91zm0 265.38l0 0c-42.24,0 -76.47,-34.24 -76.47,-76.47 0,-42.23 34.23,-76.48 76.47,-76.48 42.23,0 76.46,34.25 76.46,76.48 0,42.23 -34.23,76.47 -76.46,76.47z"/>
    <path class="fil4" d="M6463.1 6248.11c-104.33,0 -188.91,84.58 -188.91,188.9 0,104.34 84.58,188.92 188.91,188.92 104.34,0 188.92,-84.58 188.92,-188.92 0,-104.32 -84.58,-188.9 -188.92,-188.9zm0 265.38l0 0c-42.23,0 -76.47,-34.24 -76.47,-76.48 0,-42.22 34.24,-76.46 76.47,-76.46 42.23,0 76.47,34.24 76.47,76.46 0,42.24 -34.24,76.48 -76.47,76.48z"/>
    <path class="fil4" d="M7228.16 3854.03c-79.89,0 -144.64,64.76 -144.64,144.65 0,79.89 64.75,144.64 144.64,144.64 79.89,0 144.65,-64.75 144.65,-144.64 0,-79.89 -64.76,-144.65 -144.65,-144.65zm0 203.19l0 0c-32.33,0 -58.55,-26.22 -58.55,-58.55 0,-32.33 26.22,-58.56 58.55,-58.56 32.34,0 58.55,26.23 58.55,58.56 0,32.33 -26.21,58.55 -58.55,58.55z"/>
    <path class="fil4" d="M5461.72 1000.11c-84.47,0 -152.93,68.47 -152.93,152.94 0,84.46 68.46,152.93 152.93,152.93 84.45,0 152.93,-68.47 152.93,-152.93 0,-84.47 -68.48,-152.94 -152.93,-152.94zm0 214.83l0 0c-34.2,0 -61.91,-27.7 -61.91,-61.89 0,-34.19 27.71,-61.9 61.91,-61.9 34.18,0 61.9,27.71 61.9,61.9 0,34.19 -27.72,61.89 -61.9,61.89z"/>
    <path class="fil4" d="M877.85 4696.03c-88.79,0 -160.79,71.98 -160.79,160.8 0,88.8 72,160.8 160.79,160.8 88.82,0 160.81,-72 160.81,-160.8 0,-88.82 -71.99,-160.8 -160.81,-160.8z"/>
    <path class="fil4" d="M7020.86 5095.75c-64.58,0 -116.94,52.36 -116.94,116.95 0,64.58 52.36,116.94 116.94,116.94 64.59,0 116.95,-52.36 116.95,-116.94 0,-64.59 -52.36,-116.95 -116.95,-116.95z"/>
    <path class="fil4" d="M3148.02 1048.19c-94.4,0 -170.92,76.53 -170.92,170.92 0,94.4 76.52,170.93 170.92,170.93 94.4,0 170.91,-76.53 170.91,-170.93 0,-94.39 -76.51,-170.92 -170.91,-170.92z"/>
    <path class="fil4" d="M4063.07 7239.67c-68.79,0 -124.55,55.77 -124.55,124.55 0,68.79 55.77,124.54 124.55,124.54 68.77,0 124.53,-55.76 124.53,-124.54 0,-68.79 -55.77,-124.55 -124.53,-124.55z"/>
    <path class="fil4" d="M6474.02 1707.46c-80.73,0 -146.18,65.45 -146.18,146.19 0,80.72 65.45,146.16 146.18,146.16 80.73,0 146.19,-65.44 146.19,-146.16 0,-80.74 -65.46,-146.19 -146.19,-146.19z"/>
    <path class="fil4" d="M990.65 3516.63c-45.96,0 -83.21,37.25 -83.21,83.21 0,45.95 37.26,83.2 83.21,83.2 45.96,0 83.21,-37.26 83.21,-83.2 0,-45.97 -37.26,-83.21 -83.21,-83.21z"/>
    <path class="fil4" d="M7219.68 2584.94c-78.4,0 -141.95,63.56 -141.95,141.97 0,78.39 63.55,141.95 141.95,141.95 78.41,0 141.97,-63.56 141.97,-141.95 0,-78.41 -63.56,-141.97 -141.97,-141.97z"/>
    <path class="fil4" d="M1068.57 2134.58c-50.02,0 -90.59,40.56 -90.59,90.6 0,50.02 40.56,90.58 90.59,90.58 50.02,0 90.58,-40.55 90.58,-90.58 0,-50.03 -40.55,-90.6 -90.58,-90.6z"/>
    <path class="fil4" d="M4297.98 744.48l56.89 -56.89c19.72,-19.72 19.72,-51.99 0,-71.72 -19.72,-19.71 -51.99,-19.71 -71.71,0l-56.9 56.9 -56.89 -56.9c-19.72,-19.71 -51.99,-19.71 -71.7,0 -19.73,19.73 -19.73,52 0,71.72l56.88 56.89 -56.88 56.9c-19.73,19.71 -19.73,51.99 0,71.7 19.71,19.73 51.98,19.73 71.7,0l56.89 -56.88 56.9 56.88c19.72,19.73 51.99,19.73 71.71,0 19.72,-19.71 19.72,-51.99 0,-71.7l-56.89 -56.9z"/>
    <path class="fil4" d="M1964.85 1653.07l56.89 -56.89c19.71,-19.72 19.71,-52 0,-71.71 -19.73,-19.73 -51.99,-19.73 -71.72,0l-56.88 56.89 -56.9 -56.89c-19.72,-19.73 -52,-19.73 -71.71,0 -19.73,19.71 -19.73,51.99 0,71.71l56.89 56.89 -56.89 56.9c-19.73,19.72 -19.73,51.99 0,71.71 19.71,19.72 51.99,19.72 71.71,0l56.9 -56.89 56.88 56.89c19.73,19.72 51.99,19.72 71.72,0 19.71,-19.72 19.71,-51.99 0,-71.71l-56.89 -56.9z"/>
    <path class="fil4" d="M7135.32 5937.74l48.19 -48.19c16.7,-16.7 16.7,-44.04 0,-60.74 -16.7,-16.7 -44.04,-16.7 -60.74,0l-48.19 48.19 -48.17 -48.19c-16.71,-16.7 -44.04,-16.7 -60.74,0 -16.7,16.7 -16.7,44.04 0,60.74l48.19 48.19 -48.19 48.18c-16.7,16.7 -16.7,44.04 0,60.74 16.7,16.7 44.03,16.7 60.74,0l48.17 -48.19 48.19 48.19c16.7,16.7 44.04,16.7 60.74,0 16.7,-16.7 16.7,-44.04 0,-60.74l-48.19 -48.18z"/>
   </g>
   <rect class="fil7" x="-0" y="-0" width="8089.87" height="8089.87"/>
  </g>
 </g>
</svg>
