<?xml version="1.0" encoding="UTF-8"?>
<!DOCTYPE svg PUBLIC "-//W3C//DTD SVG 1.1//EN" "http://www.w3.org/Graphics/SVG/1.1/DTD/svg11.dtd">
<!-- Creator: CorelDRAW 2019 (64-Bit) -->
<svg xmlns="http://www.w3.org/2000/svg" xml:space="preserve" width="167.12mm" height="106.523mm" version="1.1" style="shape-rendering:geometricPrecision; text-rendering:geometricPrecision; image-rendering:optimizeQuality; fill-rule:evenodd; clip-rule:evenodd"
viewBox="0 0 17103 10901.49"
 xmlns:xlink="http://www.w3.org/1999/xlink">
 <defs>
  <style type="text/css">
   <![CDATA[
    .fil6 {fill:#FCE0BE;fill-rule:nonzero}
    .fil1 {fill:#09A59D;fill-opacity:0.200000}
    .fil0 {fill:#09A59D;fill-opacity:0.301961}
    .fil2 {fill:#332C2B;fill-rule:nonzero;fill-opacity:0.501961}
    .fil24 {fill:url(#id0)}
    .fil18 {fill:url(#id1)}
    .fil23 {fill:url(#id2)}
    .fil15 {fill:url(#id3)}
    .fil25 {fill:url(#id4)}
    .fil16 {fill:url(#id5)}
    .fil22 {fill:url(#id6)}
    .fil17 {fill:url(#id7)}
    .fil14 {fill:url(#id8)}
    .fil11 {fill:url(#id9)}
    .fil3 {fill:url(#id10)}
    .fil12 {fill:url(#id11)}
    .fil9 {fill:url(#id12)}
    .fil13 {fill:url(#id13)}
    .fil5 {fill:url(#id14)}
    .fil8 {fill:url(#id15)}
    .fil4 {fill:url(#id16)}
    .fil10 {fill:url(#id17)}
    .fil20 {fill:url(#id18)}
    .fil7 {fill:url(#id19)}
    .fil21 {fill:url(#id20)}
    .fil19 {fill:url(#id21)}
   ]]>
  </style>
  <linearGradient id="id0" gradientUnits="userSpaceOnUse" x1="10722.39" y1="2858.78" x2="10722.39" y2="4198.46">
   <stop offset="0" style="stop-opacity:1; stop-color:#5E5E5E"/>
   <stop offset="1" style="stop-opacity:1; stop-color:#4C4C4C"/>
  </linearGradient>
  <linearGradient id="id1" gradientUnits="userSpaceOnUse" x1="5941.23" y1="5226.01" x2="5515.57" y2="4669.12">
   <stop offset="0" style="stop-opacity:1; stop-color:#FAD8C9"/>
   <stop offset="1" style="stop-opacity:1; stop-color:#F29F81"/>
  </linearGradient>
  <linearGradient id="id2" gradientUnits="userSpaceOnUse" x1="3223.05" y1="7579.9" x2="6262.05" y2="7748.3">
   <stop offset="0" style="stop-opacity:1; stop-color:#09A59D"/>
   <stop offset="1" style="stop-opacity:1; stop-color:#057872"/>
  </linearGradient>
  <linearGradient id="id3" gradientUnits="userSpaceOnUse" xlink:href="#id1" x1="6277.74" y1="4606.63" x2="6433.35" y2="6370.44">
  </linearGradient>
  <linearGradient id="id4" gradientUnits="userSpaceOnUse" x1="10691.48" y1="6693.41" x2="10691.48" y2="10296.3">
   <stop offset="0" style="stop-opacity:1; stop-color:#5E5E5E"/>
   <stop offset="1" style="stop-opacity:1; stop-color:#2B2B2B"/>
  </linearGradient>
  <linearGradient id="id5" gradientUnits="userSpaceOnUse" x1="4852.34" y1="4603.01" x2="6048.4" y2="4512.63">
   <stop offset="0" style="stop-opacity:1; stop-color:#C7C7C7"/>
   <stop offset="1" style="stop-opacity:1; stop-color:#FCFCFC"/>
  </linearGradient>
  <linearGradient id="id6" gradientUnits="userSpaceOnUse" x1="2493.07" y1="6538.04" x2="2209.13" y2="8138.71">
   <stop offset="0" style="stop-opacity:1; stop-color:#4F4F4F"/>
   <stop offset="1" style="stop-opacity:1; stop-color:#262626"/>
  </linearGradient>
  <linearGradient id="id7" gradientUnits="userSpaceOnUse" x1="4931.6" y1="4554.98" x2="5880.92" y2="4483.2">
   <stop offset="0" style="stop-opacity:1; stop-color:#FAF8FB"/>
   <stop offset="0.0509804" style="stop-opacity:1; stop-color:#FAF8FB"/>
   <stop offset="1" style="stop-opacity:1; stop-color:#95C2E8"/>
  </linearGradient>
  <linearGradient id="id8" gradientUnits="userSpaceOnUse" xlink:href="#id5" x1="6808.28" y1="6552.73" x2="9034.05" y2="4262.3">
  </linearGradient>
  <linearGradient id="id9" gradientUnits="userSpaceOnUse" xlink:href="#id1" x1="7966.48" y1="3207.91" x2="6715.98" y2="2641.43">
  </linearGradient>
  <linearGradient id="id10" gradientUnits="userSpaceOnUse" x1="7514.63" y1="7297.35" x2="5336.66" y2="4680.69">
   <stop offset="0" style="stop-opacity:1; stop-color:#09A49C"/>
   <stop offset="1" style="stop-opacity:1; stop-color:#057973"/>
  </linearGradient>
  <linearGradient id="id11" gradientUnits="userSpaceOnUse" x1="8187.35" y1="2852.17" x2="6503.03" y2="2982.75">
   <stop offset="0" style="stop-opacity:1; stop-color:#4D4D4D"/>
   <stop offset="1" style="stop-opacity:1; stop-color:#1A1A1A"/>
  </linearGradient>
  <linearGradient id="id12" gradientUnits="userSpaceOnUse" x1="7008.76" y1="3317.74" x2="6808.3" y2="3221.37">
   <stop offset="0" style="stop-opacity:1; stop-color:#E5C094"/>
   <stop offset="1" style="stop-opacity:1; stop-color:#EE9962"/>
  </linearGradient>
  <linearGradient id="id13" gradientUnits="userSpaceOnUse" xlink:href="#id1" x1="7538.09" y1="3170.46" x2="7257.57" y2="3022.68">
  </linearGradient>
  <linearGradient id="id14" gradientUnits="userSpaceOnUse" xlink:href="#id1" x1="4491.57" y1="7881.53" x2="4663.77" y2="6455.29">
  </linearGradient>
  <linearGradient id="id15" gradientUnits="userSpaceOnUse" xlink:href="#id10" x1="5271.09" y1="6810.75" x2="5635.47" y2="3871.73">
  </linearGradient>
  <linearGradient id="id16" gradientUnits="userSpaceOnUse" x1="9044.37" y1="7058.94" x2="5790.34" y2="7889.49">
   <stop offset="0" style="stop-opacity:1; stop-color:#09A49C"/>
   <stop offset="1" style="stop-opacity:1; stop-color:#057A74"/>
  </linearGradient>
  <linearGradient id="id17" gradientUnits="userSpaceOnUse" xlink:href="#id1" x1="8084.02" y1="3686.27" x2="7406.17" y2="3366.86">
  </linearGradient>
  <linearGradient id="id18" gradientUnits="userSpaceOnUse" xlink:href="#id5" x1="7896.97" y1="5576.19" x2="6668.71" y2="4427.25">
  </linearGradient>
  <linearGradient id="id19" gradientUnits="userSpaceOnUse" x1="3602.98" y1="7450.48" x2="5436.12" y2="7682.49">
   <stop offset="0" style="stop-opacity:1; stop-color:#2C357E"/>
   <stop offset="1" style="stop-opacity:1; stop-color:#222A44"/>
  </linearGradient>
  <linearGradient id="id20" gradientUnits="userSpaceOnUse" xlink:href="#id1" x1="2060.58" y1="7394.85" x2="3518.31" y2="7475.75">
  </linearGradient>
  <linearGradient id="id21" gradientUnits="userSpaceOnUse" xlink:href="#id1" x1="7228.85" y1="4561.01" x2="7377.27" y2="6568.38">
  </linearGradient>
 </defs>
 <g id="Layer_x0020_1">
  <metadata id="CorelCorpID_0Corel-Layer"/>
  <g id="_2319576534704">
   <path class="fil0" d="M6535.23 8839.93c-4857.43,1301.54 -6975.14,-5716.76 -1776.07,-7640.05 2080.51,-769.63 3284.48,1497.17 5465.41,514.54 12875.18,-5801 5033.31,4788.29 -3689.34,7125.51z"/>
   <path class="fil1" d="M13068.77 733.02c-10043.69,1952.56 -9675.68,3693.87 -8776.26,5823.07 5242.82,12411.4 19823.12,-7970.66 8776.26,-5823.07z"/>
   <path class="fil1" d="M8913.21 2538.57c-5737.64,359.16 -10390.77,-2632.43 -8475.64,1487.92 7691.54,16548.3 17457.74,-2050.16 8475.64,-1487.92z"/>
   <g>
    <path class="fil2" d="M13543.11 8097.18c0,218.78 -2693.6,396.08 -6016.26,396.08 -3322.65,0 -6016.25,-177.3 -6016.25,-396.08 0,-218.78 2693.6,-396.16 6016.25,-396.16 3322.66,0 6016.26,177.37 6016.26,396.16z"/>
    <path class="fil3" d="M5865.66 4385.33c431.07,304.29 794.72,702.58 1139.86,1098.65 171.43,196.77 686.36,1011.43 843.3,1220.32 297.18,395.53 158.11,389.25 -373.31,672.97 -67.22,35.88 -140.78,58.11 -216.56,65.83 -892.22,90.75 -1304.25,-1078.5 -1572.36,-1707.23 -116.37,-273.01 -242.26,-610.43 -341.29,-890.29 77.23,-498.84 520.37,-460.26 520.37,-460.26z"/>
    <path class="fil4" d="M5619.28 7389.42c457.92,-262.25 972.49,-423.68 1477.34,-569.24 250.72,-72.32 1206.59,-194.97 1462.22,-249.05 484.08,-102.36 419.61,21.1 452.38,622.58 4.09,76.04 -6.74,152.16 -31.81,224.15 -294.54,847.01 -1528.41,726.72 -2211.52,704.22 -296.62,-9.79 -655.65,-38.16 -951.09,-66.59 -419.55,-280.61 -197.53,-666.07 -197.53,-666.07z"/>
    <path class="fil5" d="M5441.78 7580.25c0.6,-44.04 -12.01,-89.93 -21.33,-134.11 -2.7,-12.56 -20.77,-134.02 -19.4,-147.27 20.15,-192.21 130.09,-715.2 130.09,-715.2l-527 -82.97c0,0 9.53,467.99 -103.45,726.03l0.62 0.16c-252.11,95.91 -693.68,209.17 -693.68,209.17 0,0 -482.14,8.76 -508.43,15.94 -26.23,7.1 -89.99,15.04 -169.22,69.51 0,0 -72.54,113.8 502.64,291.43 0,0 246.3,92.9 663.57,87.66 89.44,5.02 178.96,10.07 268.41,15.11 91.93,5.11 365.7,35.69 405.04,14.57 15.19,-8.22 26.02,-17.19 33.75,-27.14 59.77,-76.17 36.85,-231.26 38.39,-322.91z"/>
    <path class="fil6" d="M5236.73 6980.58c6.48,30.16 11.52,60.52 15.59,91.1 14.37,-27.06 28.3,-54.46 41.84,-81.99l-57.42 -9.11z"/>
    <path class="fil7" d="M5420.45 7446.15c-1.61,-7.24 -8.3,-51 -13.41,-89.09 -21.73,8 -43.19,15.45 -64.04,22.41 -241.34,80.49 -483.1,33.83 -716.16,-51.88l-12.5 -5.32c-207.32,62.6 -406.71,113.74 -406.71,113.74 0,0 -482.14,8.82 -508.43,16.01 -26.23,7.1 -89.99,15.04 -169.22,69.51 0,0 -72.54,113.8 502.64,291.43 0,0 246.3,92.9 663.57,87.66 89.44,5.02 178.96,10.07 268.41,15.11 91.93,5.11 365.7,35.69 405.04,14.57 15.19,-8.22 26.02,-17.19 33.75,-27.14 59.77,-76.17 36.85,-231.26 38.39,-322.91 0.6,-44.04 -12.01,-89.93 -21.33,-134.11z"/>
    <path class="fil8" d="M5592.43 4381.53l-4.29 -0.14c-239.47,-7.24 -443.01,173.45 -465.84,411.97 -55.97,583.58 -135.07,1447.87 -179.86,1940.84l542.88 102.9c155.63,-486.7 281.79,-986.93 363.43,-1492.12 35.54,-219.46 72.19,-581.03 80.6,-803.14 1.52,-41.06 -65.83,-111.58 -63.7,-156.52 -110.69,-15.81 -153.56,-0.14 -273.23,-3.8z"/>
    <polygon class="fil9" points="6886.05,3059.7 6986.59,3363.9 6811.23,3421.89 "/>
    <path class="fil10" d="M7417.53 3351.21c5.6,99.24 30.04,683.46 30.04,683.46 64.92,63.29 357.01,65.91 471.63,-46.93 91.25,-89.79 95.93,-164.6 95.93,-164.6l-100.06 -848.33 -497.54 376.4z"/>
    <path class="fil11" d="M7823.34 2333.09l54.87 300.99 83.57 459.15 23.54 129.14c-257.22,524.23 -741.84,614.23 -913,458.6 -171.08,-155.57 -314.71,-1107.29 -314.71,-1107.29l1065.73 -240.59z"/>
    <path class="fil12" d="M7790.76 3672.34c0,0 -431.82,-757.86 -552.53,-814.52 -120.7,-56.66 -501.19,64.81 -730.87,-228.17 -226.71,-289.11 -115.54,-456.88 -36.1,-478.08 79.29,-21.18 252.53,266.27 506.15,68.07 258.06,-201.74 812.38,-243.7 913.9,-33.75 0,0 349.56,9.05 309.8,487.8 -39.75,478.75 -140.5,886.22 -253.56,930.17l-156.8 68.48z"/>
    <path class="fil13" d="M7500.02 2834.23c126.77,86.96 142.5,364.67 -76.69,535l-128.85 -447.98c6.97,-71.15 122.15,-144.24 205.54,-87.02z"/>
    <path class="fil14" d="M7978.09 3843.36c-329.56,38.71 -847.8,135.39 -943.3,515.47 -50.94,202.49 -43.82,419.05 -7.4,623.41 28.5,160.32 54.74,321.05 73.72,482.96 31.95,273.59 70.33,581.59 -4.7,851.51l-308.9 565.99c0,0 1499.9,661.79 2243.68,-214.69 0,0 -47.21,-2182.74 -395.81,-2694.01 -42.37,-62.19 -148.79,-89.94 -215.39,-106.42 -147.22,-36.45 -295.38,-41.48 -441.89,-24.22z"/>
    <path class="fil15" d="M5268.62 4672.02c0,0 35.52,282.26 200.95,471.44 165.43,189.32 354.33,264.27 509.41,464.2 121.88,157.15 1334.55,1320.39 1457.94,896.38 16.16,-55.56 -3.8,-114.72 -25.81,-168.27 -205.8,-501.39 -707.05,-713.55 -1145.18,-977.33l-166.25 -111.17c0,0 -72.13,-285.67 -247.55,-443.15l-583.52 -132.1z"/>
    <path class="fil16" d="M5213.75 3969.51l-364.47 412.38c-25.47,28.86 -22.99,72.68 5.44,98.48l740.47 670.41c28.73,26.02 73.02,23.9 99.03,-4.83l357.58 -393.94c25.74,-28.29 24,-72.05 -3.94,-98.27l-733.51 -688.91c-28.83,-27.13 -74.4,-24.98 -100.61,4.68z"/>
    <polygon class="fil17" points="4921.94,4427.23 5553.44,5000.94 5891.89,4628.13 5267.29,4036.53 "/>
    <path class="fil18" d="M5644.67 5149.12c0,0 55.37,-33.54 32.57,-138.65 -22.77,-105.11 -71.07,-353.15 -71.07,-353.15 0,0 0.76,-88.61 35.82,-69.16 35.11,19.55 110.91,74.34 140.24,228.25 0,0 30.52,132.37 64.54,166.33 34.08,33.94 123.11,126.36 139.19,272.59 0,0 -249.63,84.2 -341.28,-106.21z"/>
    <path class="fil19" d="M7488.97 6497.82c50.93,-68.05 58.46,-164.53 61.83,-266.34 8.36,-247.75 20.51,-495.04 31.48,-742.45 4.89,-110.22 9.72,-220.51 13.46,-330.79 7.46,-225.27 22.77,-556.18 -272.07,-610.11 -67.13,-12.28 -154.09,37.27 -195.92,83.16 -31.41,34.46 -50.73,82.34 -62.66,136.33 -25.42,114.56 -17.89,256.51 -23.48,355.97 -11.31,204.23 -19.06,409.05 -20.43,614.31 -0.9,131.87 -0.13,263.96 6.97,396.28 5.8,108.91 2.15,246.45 52.17,348.24 53.35,108.72 184.89,125.07 282.61,97.17 58.67,-16.68 98.63,-45.13 126.03,-81.77z"/>
    <path class="fil20" d="M7722.78 5602.56c-40.57,-305.68 2.29,-1404.03 -435.56,-1448.84 -484.33,-49.61 -390.49,1462.03 -390.49,1462.03l826.04 -13.19z"/>
    <path class="fil21" d="M2481.43 8132.51c43.55,-6.76 86.63,-27.05 128.51,-43.76 11.94,-4.75 128.58,-43.27 141.84,-44.15 192.89,-12.85 726.93,6.55 726.93,6.55l-7.88 -533.41c0,0 -459.56,89.01 -733.08,21.52l0 0.62c-137.47,-232.11 -435.97,-548.54 -435.97,-548.54 0,0 -101.16,-258.18 -112.69,-282.89 -11.54,-24.65 71.21,-84.88 4.06,-153.71 0,0 -13.05,-357.14 -90.2,239.85 0,0 -140.17,247.55 -64.05,657.78 10.3,89.04 20.56,178.05 30.86,267.07 10.49,91.39 26.92,366.41 54.44,401.54 10.7,13.66 21.4,22.78 32.51,28.71 85.3,45.89 234.09,-3.04 324.71,-17.18z"/>
    <path class="fil22" d="M2607.46 8089.78c-25.06,-134.58 -20.7,-280.68 -8.84,-401.46 8.48,-86.41 31.12,-183.5 71.91,-268.47 -124.01,-231.96 -256.87,-527.96 -256.87,-527.96 0,0 -94.19,-339.14 -105.74,-363.86 -11.44,-24.7 -30.15,-86.12 -97.3,-154.94 0,0 -120.99,-186.53 -198.14,410.44 0,0 -49.7,258.6 26.42,668.83 10.3,89.04 20.56,178.05 30.77,267.07 10.57,91.39 27,366.41 54.53,401.54 10.7,13.66 21.4,22.78 32.51,28.71 85.3,45.89 234.09,-3.04 324.71,-17.18 42.64,-6.63 84.83,-26.23 126.03,-42.73z"/>
    <path class="fil23" d="M3221.14 8049.13c628.65,87.58 2009.09,207.61 2788.84,-58.78 122.56,-41.91 254.05,-166.47 267.78,-301.26 10.54,-104.22 -32.72,-257 -122.37,-320.03 -74.05,-52.03 -319.83,-69.43 -405.4,-65.57 -242.25,10.97 -1788.95,134.3 -2519.74,193.1l-9.12 552.53z"/>
    <path class="fil24" d="M9828.59 4329.5c-373.66,-275.44 -618.93,-714.92 -618.93,-1214.67 0,-835.5 677.24,-1512.74 1512.81,-1512.74 835.42,0 1512.74,677.24 1512.74,1512.74 0,499.74 -245.35,939.23 -618.93,1214.67l659.77 0c263.44,-336.24 426.88,-754.32 426.88,-1214.67 0,-1093.75 -886.71,-1980.46 -1980.46,-1980.46 -1093.82,0 -1980.61,886.71 -1980.61,1980.46 0,460.34 163.51,878.43 426.88,1214.67l659.85 0z"/>
    <path class="fil25" d="M11013.16 5656.87l0 1129.29c0,83.85 -68.07,151.91 -151.91,151.91l-277.59 0c-83.93,0 -151.89,-68.07 -151.89,-151.91l0 -1129.29c-186.62,-104.27 -317.74,-296.75 -316.37,-526.1 1.87,-321.9 266.96,-593.95 588.64,-603.41 343.83,-10.13 625.48,265.29 625.48,606.85 0,227.82 -130.78,418.94 -316.35,522.66zm1744.97 -2074.24l-4133.24 0c-165.16,0 -299.05,133.89 -299.05,298.96l0 3916.41c0,165.29 133.89,299.18 299.05,299.18l4133.24 0c165.07,0 299.05,-133.89 299.05,-299.18l0 -3916.41c0,-165.07 -133.97,-298.96 -299.05,-298.96z"/>
   </g>
  </g>
 </g>
</svg>
