<?xml version="1.0" encoding="UTF-8"?>
<!DOCTYPE svg PUBLIC "-//W3C//DTD SVG 1.1//EN" "http://www.w3.org/Graphics/SVG/1.1/DTD/svg11.dtd">
<!-- Creator: CorelDRAW 2019 (64-Bit) -->
<svg xmlns="http://www.w3.org/2000/svg" xml:space="preserve" width="112.634mm" height="71.7932mm" version="1.1" style="shape-rendering:geometricPrecision; text-rendering:geometricPrecision; image-rendering:optimizeQuality; fill-rule:evenodd; clip-rule:evenodd"
viewBox="0 0 37603.65 23968.66"
 xmlns:xlink="http://www.w3.org/1999/xlink">
 <defs>
  <style type="text/css">
   <![CDATA[
    .fil6 {fill:#FCE0BE;fill-rule:nonzero}
    .fil1 {fill:#09A59D;fill-opacity:0.200000}
    .fil0 {fill:#09A59D;fill-opacity:0.301961}
    .fil2 {fill:#332C2B;fill-rule:nonzero;fill-opacity:0.501961}
    .fil17 {fill:url(#id0)}
    .fil25 {fill:url(#id1)}
    .fil24 {fill:url(#id2)}
    .fil5 {fill:url(#id3)}
    .fil13 {fill:url(#id4)}
    .fil22 {fill:url(#id5)}
    .fil10 {fill:url(#id6)}
    .fil16 {fill:url(#id7)}
    .fil8 {fill:url(#id8)}
    .fil19 {fill:url(#id9)}
    .fil15 {fill:url(#id10)}
    .fil23 {fill:url(#id11)}
    .fil18 {fill:url(#id12)}
    .fil9 {fill:url(#id13)}
    .fil20 {fill:url(#id14)}
    .fil14 {fill:url(#id15)}
    .fil3 {fill:url(#id16)}
    .fil11 {fill:url(#id17)}
    .fil4 {fill:url(#id18)}
    .fil7 {fill:url(#id19)}
    .fil12 {fill:url(#id20)}
    .fil21 {fill:url(#id21)}
   ]]>
  </style>
  <linearGradient id="id0" gradientUnits="userSpaceOnUse" x1="10842.91" y1="10014.84" x2="12930.11" y2="9857.03">
   <stop offset="0" style="stop-opacity:1; stop-color:#FAF8FB"/>
   <stop offset="0.0509804" style="stop-opacity:1; stop-color:#FAF8FB"/>
   <stop offset="1" style="stop-opacity:1; stop-color:#95C2E8"/>
  </linearGradient>
  <linearGradient id="id1" gradientUnits="userSpaceOnUse" x1="23506.9" y1="14716.52" x2="23506.9" y2="22638.01">
   <stop offset="0" style="stop-opacity:1; stop-color:#068079"/>
   <stop offset="1" style="stop-opacity:1; stop-color:#067C75"/>
  </linearGradient>
  <linearGradient id="id2" gradientUnits="userSpaceOnUse" x1="23574.88" y1="6285.49" x2="23574.88" y2="9230.95">
   <stop offset="0" style="stop-opacity:1; stop-color:#068079"/>
   <stop offset="1" style="stop-opacity:1; stop-color:#067F78"/>
  </linearGradient>
  <linearGradient id="id3" gradientUnits="userSpaceOnUse" x1="9875.42" y1="17328.85" x2="10254.02" y2="14192.96">
   <stop offset="0" style="stop-opacity:1; stop-color:#FAD8C9"/>
   <stop offset="1" style="stop-opacity:1; stop-color:#F29F81"/>
  </linearGradient>
  <linearGradient id="id4" gradientUnits="userSpaceOnUse" xlink:href="#id3" x1="16573.63" y1="6970.77" x2="15956.86" y2="6645.86">
  </linearGradient>
  <linearGradient id="id5" gradientUnits="userSpaceOnUse" x1="5481.43" y1="14374.91" x2="4857.12" y2="17894.27">
   <stop offset="0" style="stop-opacity:1; stop-color:#4F4F4F"/>
   <stop offset="1" style="stop-opacity:1; stop-color:#262626"/>
  </linearGradient>
  <linearGradient id="id6" gradientUnits="userSpaceOnUse" xlink:href="#id3" x1="17773.98" y1="8104.91" x2="16283.64" y2="7402.58">
  </linearGradient>
  <linearGradient id="id7" gradientUnits="userSpaceOnUse" x1="10668.63" y1="10120.44" x2="13298.33" y2="9921.73">
   <stop offset="0" style="stop-opacity:1; stop-color:#C7C7C7"/>
   <stop offset="1" style="stop-opacity:1; stop-color:#FCFCFC"/>
  </linearGradient>
  <linearGradient id="id8" gradientUnits="userSpaceOnUse" x1="11589.31" y1="14974.52" x2="12390.53" y2="8512.62">
   <stop offset="0" style="stop-opacity:1; stop-color:#09A49C"/>
   <stop offset="1" style="stop-opacity:1; stop-color:#057973"/>
  </linearGradient>
  <linearGradient id="id9" gradientUnits="userSpaceOnUse" xlink:href="#id3" x1="15893.76" y1="10028.1" x2="16220.07" y2="14441.62">
  </linearGradient>
  <linearGradient id="id10" gradientUnits="userSpaceOnUse" xlink:href="#id3" x1="13802.58" y1="10128.35" x2="14144.72" y2="14006.4">
  </linearGradient>
  <linearGradient id="id11" gradientUnits="userSpaceOnUse" x1="7086.42" y1="16665.61" x2="13768.1" y2="17035.82">
   <stop offset="0" style="stop-opacity:1; stop-color:#09A59D"/>
   <stop offset="1" style="stop-opacity:1; stop-color:#057872"/>
  </linearGradient>
  <linearGradient id="id12" gradientUnits="userSpaceOnUse" xlink:href="#id3" x1="13062.79" y1="11490.19" x2="12126.85" y2="10265.8">
  </linearGradient>
  <linearGradient id="id13" gradientUnits="userSpaceOnUse" x1="15409.87" y1="7294.57" x2="14969.15" y2="7082.71">
   <stop offset="0" style="stop-opacity:1; stop-color:#E5C094"/>
   <stop offset="1" style="stop-opacity:1; stop-color:#EE9962"/>
  </linearGradient>
  <linearGradient id="id14" gradientUnits="userSpaceOnUse" xlink:href="#id7" x1="17362.73" y1="12260.13" x2="14662.23" y2="9734.03">
  </linearGradient>
  <linearGradient id="id15" gradientUnits="userSpaceOnUse" xlink:href="#id7" x1="14969.08" y1="14407.23" x2="19862.79" y2="9371.33">
  </linearGradient>
  <linearGradient id="id16" gradientUnits="userSpaceOnUse" xlink:href="#id8" x1="16522.11" y1="16044.37" x2="11733.5" y2="10291.24">
  </linearGradient>
  <linearGradient id="id17" gradientUnits="userSpaceOnUse" xlink:href="#id3" x1="17515.57" y1="7053.1" x2="14766.13" y2="5807.61">
  </linearGradient>
  <linearGradient id="id18" gradientUnits="userSpaceOnUse" x1="19885.46" y1="15520.18" x2="12730.97" y2="17346.24">
   <stop offset="0" style="stop-opacity:1; stop-color:#09A49C"/>
   <stop offset="1" style="stop-opacity:1; stop-color:#057A74"/>
  </linearGradient>
  <linearGradient id="id19" gradientUnits="userSpaceOnUse" x1="7921.73" y1="16381.03" x2="11952.18" y2="16891.23">
   <stop offset="0" style="stop-opacity:1; stop-color:#2C357E"/>
   <stop offset="1" style="stop-opacity:1; stop-color:#222A44"/>
  </linearGradient>
  <linearGradient id="id20" gradientUnits="userSpaceOnUse" x1="18001.2" y1="6270.94" x2="14297.93" y2="6558.05">
   <stop offset="0" style="stop-opacity:1; stop-color:#4D4D4D"/>
   <stop offset="1" style="stop-opacity:1; stop-color:#1A1A1A"/>
  </linearGradient>
  <linearGradient id="id21" gradientUnits="userSpaceOnUse" xlink:href="#id3" x1="4530.57" y1="16258.77" x2="7735.57" y2="16436.61">
  </linearGradient>
 </defs>
 <g id="Layer_x0020_1">
  <metadata id="CorelCorpID_0Corel-Layer"/>
  <g id="_3032895324640">
   <path class="fil0" d="M14368.77 19435.99c-10679.85,2861.62 -15335.95,-12569.21 -3904.99,-16797.85 4574.31,-1692.15 7221.46,3291.76 12016.55,1131.27 28308.1,-12754.37 11066.56,10527.81 -8111.56,15666.57z"/>
   <path class="fil1" d="M28733.74 1611.66c-22082.6,4293.03 -21273.47,8121.54 -19295.97,12802.91 11527.18,27288.4 43584.23,-17524.72 19295.97,-12802.91z"/>
   <path class="fil1" d="M19597.1 5581.45c-12615.12,789.67 -22845.73,-5787.81 -18635.03,3271.4 16911.06,36384.04 38383.57,-4507.6 18635.03,-3271.4z"/>
   <g>
    <path class="fil2" d="M29776.67 17802.92c0,481.02 -5922.32,870.83 -13227.68,870.83 -7305.39,0 -13227.68,-389.81 -13227.68,-870.83 0,-481.02 5922.29,-871 13227.68,-871 7305.36,0 13227.68,389.98 13227.68,871z"/>
    <path class="fil3" d="M12896.56 9641.86c947.79,669.02 1747.34,1544.72 2506.16,2415.56 376.92,432.61 1509.07,2223.79 1854.11,2683.08 653.42,869.63 347.65,855.81 -820.75,1479.65 -147.8,78.86 -309.52,127.73 -476.15,144.73 -1961.71,199.55 -2867.6,-2371.25 -3457.09,-3753.62 -255.87,-600.24 -532.64,-1342.14 -750.38,-1957.44 169.77,-1096.79 1144.09,-1011.95 1144.09,-1011.95z"/>
    <path class="fil4" d="M12354.88 16246.78c1006.78,-576.57 2138.15,-931.53 3248.16,-1251.53 551.26,-159.02 2652.86,-428.67 3214.91,-547.59 1064.34,-225.05 922.61,46.41 994.66,1368.85 8.98,167.16 -14.86,334.56 -69.94,492.84 -647.62,1862.29 -3360.44,1597.81 -4862.36,1548.33 -652.19,-21.53 -1441.56,-83.93 -2091.15,-146.43 -922.45,-616.97 -434.28,-1464.46 -434.28,-1464.46z"/>
    <path class="fil5" d="M11964.6 16666.37c1.34,-96.82 -26.41,-197.71 -46.87,-294.83 -5.94,-27.61 -45.67,-294.7 -42.67,-323.81 44.3,-422.6 286.05,-1572.47 286.05,-1572.47l-1158.72 -182.42c0,0 20.97,1028.95 -227.42,1596.3l1.37 0.33c-554.3,210.9 -1525.16,459.89 -1525.16,459.89 0,0 -1060.06,19.26 -1117.89,35.05 -57.66,15.62 -197.84,33.09 -372.05,152.84 0,0 -159.48,250.19 1105.13,640.77 0,0 541.55,204.25 1458.96,192.74 196.68,11.05 393.48,22.13 590.16,33.19 202.12,11.25 804.03,78.46 890.53,32.05 33.39,-18.06 57.22,-37.79 74.18,-59.66 131.41,-167.5 81.06,-508.46 84.4,-709.98z"/>
    <path class="fil6" d="M11513.79 15347.91c14.22,66.34 25.34,133.08 34.29,200.31 31.55,-59.49 62.2,-119.75 91.94,-180.28l-126.23 -20.03z"/>
    <path class="fil7" d="M11917.73 16371.55c-3.54,-15.92 -18.23,-112.14 -29.48,-195.91 -47.77,17.59 -94.95,33.99 -140.82,49.31 -530.6,176.94 -1062.17,74.38 -1574.57,-114.08l-27.48 -11.68c-455.81,137.65 -894.2,250.06 -894.2,250.06 0,0 -1060.06,19.4 -1117.89,35.19 -57.66,15.62 -197.84,33.09 -372.05,152.84 0,0 -159.48,250.19 1105.13,640.77 0,0 541.55,204.25 1458.96,192.74 196.68,11.05 393.48,22.13 590.16,33.19 202.12,11.25 804.03,78.46 890.53,32.05 33.39,-18.06 57.22,-37.79 74.18,-59.66 131.41,-167.5 81.06,-508.46 84.4,-709.98 1.34,-96.82 -26.41,-197.71 -46.87,-294.83z"/>
    <path class="fil8" d="M12295.85 9633.51l-9.41 -0.3c-526.53,-15.92 -974.03,381.33 -1024.24,905.75 -123.06,1283.08 -296.97,3183.36 -395.45,4267.23l1193.61 226.25c342.17,-1070.08 619.57,-2169.9 799.05,-3280.65 78.16,-482.52 158.72,-1277.47 177.21,-1765.8 3.37,-90.31 -144.73,-245.35 -140.05,-344.14 -243.35,-34.75 -337.6,-0.3 -600.71,-8.35z"/>
    <polygon class="fil9" points="15140.08,6727.22 15361.13,7396.1 14975.56,7523.57 "/>
    <path class="fil10" d="M16308.61 7368.16c12.32,218.21 66.04,1502.72 66.04,1502.72 142.76,139.15 784.93,144.89 1036.96,-103.2 200.61,-197.44 210.93,-361.9 210.93,-361.9l-220.01 -1865.19 -1093.92 827.56z"/>
    <path class="fil11" d="M17200.85 5129.68l120.66 661.77 183.75 1009.52 51.75 283.91c-565.55,1152.64 -1631.06,1350.48 -2007.38,1008.31 -376.16,-342.04 -691.95,-2434.52 -691.95,-2434.52l2343.18 -529z"/>
    <path class="fil12" d="M17129.23 8074.23c0,0 -949.42,-1666.28 -1214.84,-1790.84 -265.38,-124.56 -1101.93,142.49 -1606.92,-501.65 -498.48,-635.66 -254.03,-1004.54 -79.36,-1051.12 174.34,-46.61 555.24,585.38 1112.85,149.63 567.39,-443.56 1786.17,-535.81 2009.35,-74.18 0,0 768.57,19.86 681.17,1072.48 -87.4,1052.62 -308.92,1948.49 -557.51,2045.14l-344.74 150.54z"/>
    <path class="fil13" d="M16489.96 6231.51c278.74,191.2 313.32,801.76 -168.6,1176.28l-283.28 -984.94c15.29,-156.45 268.55,-317.13 451.88,-191.33z"/>
    <path class="fil14" d="M17541.08 8450.25c-724.6,85.13 -1864.02,297.7 -2074.02,1133.34 -111.98,445.2 -96.35,921.35 -16.26,1370.65 62.7,352.49 120.36,705.91 162.09,1061.87 70.24,601.54 154.64,1278.74 -10.32,1872.2l-679.2 1244.39c0,0 3297.77,1455.05 4933.1,-472.01 0,0 -103.8,-4799.09 -870.23,-5923.19 -93.18,-136.75 -327.18,-197.74 -473.58,-234 -323.67,-80.13 -649.45,-91.18 -971.59,-53.25z"/>
    <path class="fil15" d="M11583.9 10272.21c0,0 78.12,620.57 441.83,1036.53 363.7,416.22 779.06,581.01 1120.02,1020.6 267.95,345.51 2934.2,2903.09 3205.49,1970.82 35.52,-122.16 -8.35,-252.23 -56.72,-369.95 -452.51,-1102.4 -1554.57,-1568.86 -2517.85,-2148.8l-365.54 -244.45c0,0 -158.58,-628.09 -544.29,-974.33l-1282.95 -290.42z"/>
    <path class="fil16" d="M11463.25 8727.59l-801.32 906.69c-56.02,63.43 -50.55,159.78 11.95,216.51l1628.05 1474.01c63.13,57.22 160.52,52.55 217.71,-10.62l786.2 -866.16c56.62,-62.2 52.78,-158.42 -8.65,-216.04l-1612.73 -1514.68c-63.4,-59.66 -163.59,-54.92 -221.21,10.28z"/>
    <polygon class="fil17" points="10821.67,9733.97 12210.12,10995.38 12954.25,10175.66 11580.96,8874.95 "/>
    <path class="fil18" d="M12410.7 11321.16c0,0 121.72,-73.72 71.61,-304.84 -50.08,-231.1 -156.28,-776.45 -156.28,-776.45 0,0 1.7,-194.81 78.76,-152.07 77.22,42.97 243.85,163.46 308.32,501.85 0,0 67.11,291.02 141.92,365.67 74.92,74.65 270.66,277.84 306.01,599.37 0,0 -548.83,185.12 -750.34,-233.53z"/>
    <path class="fil19" d="M16465.66 14286.48c112.01,-149.6 128.53,-361.73 135.98,-585.59 18.36,-544.72 45.07,-1088.41 69.21,-1632.39 10.75,-242.31 21.37,-484.83 29.58,-727.31 16.39,-495.28 50.08,-1222.85 -598.17,-1341.4 -147.63,-27.01 -338.83,81.96 -430.78,182.85 -69.04,75.75 -111.54,181.05 -137.78,299.74 -55.85,251.86 -39.29,563.98 -51.61,782.66 -24.87,449 -41.9,899.34 -44.9,1350.65 -1.97,289.95 -0.3,580.38 15.32,871.27 12.75,239.44 4.71,541.88 114.71,765.67 117.28,239.04 406.5,275 621.37,213.64 128.97,-36.69 216.84,-99.22 277.07,-179.78z"/>
    <path class="fil20" d="M16979.77 12318.12c-89.21,-672.09 5.01,-3087.01 -957.64,-3185.5 -1064.9,-109.1 -858.55,3214.48 -858.55,3214.48l1816.18 -28.98z"/>
    <path class="fil21" d="M5455.82 17880.61c95.75,-14.89 190.47,-59.49 282.54,-96.22 26.24,-10.45 282.71,-95.15 311.86,-97.09 424.1,-28.28 1598.27,14.39 1598.27,14.39l-17.33 -1172.77c0,0 -1010.42,195.71 -1611.79,47.31l0 1.37c-302.24,-510.3 -958.54,-1206.02 -958.54,-1206.02 0,0 -222.42,-567.66 -247.76,-621.98 -25.37,-54.18 156.58,-186.63 8.95,-337.96 0,0 -28.68,-785.23 -198.34,527.36 0,0 -308.18,544.29 -140.82,1446.2 22.64,195.77 45.2,391.48 67.84,587.22 23.07,200.92 59.19,805.6 119.72,882.85 23.5,30.01 47.04,50.08 71.48,63.1 187.53,100.89 514.67,-6.68 713.92,-37.76z"/>
    <path class="fil22" d="M5732.93 17786.67c-55.12,-295.9 -45.5,-617.1 -19.46,-882.68 18.7,-189.96 68.44,-403.47 158.15,-590.26 -272.66,-510 -564.79,-1160.79 -564.79,-1160.79 0,0 -207.09,-745.67 -232.46,-799.99 -25.17,-54.35 -66.3,-189.36 -213.97,-340.67 0,0 -265.98,-410.14 -435.62,902.42 0,0 -109.27,568.59 58.09,1470.51 22.64,195.77 45.2,391.48 67.67,587.22 23.24,200.92 59.36,805.6 119.89,882.85 23.5,30.01 47.04,50.08 71.48,63.1 187.53,100.89 514.67,-6.68 713.92,-37.76 93.78,-14.59 186.53,-57.69 277.1,-93.95z"/>
    <path class="fil23" d="M7082.21 17697.29c1382.17,192.57 4417.3,456.45 6131.68,-129.27 269.46,-92.11 558.54,-366.01 588.76,-662.34 23.17,-229.16 -71.91,-565.09 -269.06,-703.6 -162.79,-114.45 -703.17,-152.67 -891.33,-144.19 -532.6,24.14 -3933.27,295.3 -5540.02,424.57l-20.03 1214.84z"/>
    <path class="fil24" d="M21609.69 9519.1c-821.56,-605.58 -1360.8,-1571.9 -1360.8,-2670.66 0,-1836.95 1489,-3325.98 3326.15,-3325.98 1836.78,0 3325.98,1489.04 3325.98,3325.98 0,1098.76 -539.45,2065.07 -1360.8,2670.66l1450.61 0c579.21,-739.29 938.54,-1658.5 938.54,-2670.66 0,-2404.77 -1949.56,-4354.33 -4354.33,-4354.33 -2404.94,0 -4354.7,1949.56 -4354.7,4354.33 0,1012.15 359.5,1931.36 938.54,2670.66l1450.81 0z"/>
    <path class="fil25" d="M24214.18 12437.51l0 2482.93c0,184.36 -149.67,333.99 -334.02,333.99l-610.29 0c-184.52,0 -333.96,-149.63 -333.96,-333.99l0 -2482.93c-410.31,-229.26 -698.63,-652.46 -695.62,-1156.71 4.14,-707.71 586.95,-1305.85 1294.23,-1326.68 755.95,-22.27 1375.22,583.31 1375.22,1334.26 0,500.89 -287.55,921.08 -695.56,1149.14zm3836.58 -4560.52l-9087.59 0c-363.1,0 -657.5,294.36 -657.5,657.3l0 8610.84c0,363.4 294.4,657.8 657.5,657.8l9087.59 0c362.94,0 657.5,-294.4 657.5,-657.8l0 -8610.84c0,-362.94 -294.56,-657.3 -657.5,-657.3z"/>
   </g>
  </g>
 </g>
</svg>
