<?xml version="1.0" encoding="UTF-8"?>
<!DOCTYPE svg PUBLIC "-//W3C//DTD SVG 1.1//EN" "http://www.w3.org/Graphics/SVG/1.1/DTD/svg11.dtd">
<!-- Creator: CorelDRAW 2019 (64-Bit) -->
<svg xmlns="http://www.w3.org/2000/svg" xml:space="preserve" width="167.12mm" height="106.523mm" version="1.1" style="shape-rendering:geometricPrecision; text-rendering:geometricPrecision; image-rendering:optimizeQuality; fill-rule:evenodd; clip-rule:evenodd"
viewBox="0 0 16697.81 10643.22"
 xmlns:xlink="http://www.w3.org/1999/xlink">
 <defs>
  <style type="text/css">
   <![CDATA[
    .fil6 {fill:#FCE0BE;fill-rule:nonzero}
    .fil1 {fill:#09A59D;fill-opacity:0.200000}
    .fil25 {fill:#FEFEFE;fill-opacity:0.301961}
    .fil26 {fill:#332C2B;fill-opacity:0.301961}
    .fil0 {fill:#09A59D;fill-opacity:0.301961}
    .fil2 {fill:#332C2B;fill-rule:nonzero;fill-opacity:0.501961}
    .fil24 {fill:url(#id0)}
    .fil16 {fill:url(#id1)}
    .fil23 {fill:url(#id2)}
    .fil17 {fill:url(#id3)}
    .fil15 {fill:url(#id4)}
    .fil22 {fill:url(#id5)}
    .fil21 {fill:url(#id6)}
    .fil14 {fill:url(#id7)}
    .fil11 {fill:url(#id8)}
    .fil4 {fill:url(#id9)}
    .fil7 {fill:url(#id10)}
    .fil19 {fill:url(#id11)}
    .fil10 {fill:url(#id12)}
    .fil13 {fill:url(#id13)}
    .fil3 {fill:url(#id14)}
    .fil5 {fill:url(#id15)}
    .fil8 {fill:url(#id16)}
    .fil9 {fill:url(#id17)}
    .fil20 {fill:url(#id18)}
    .fil12 {fill:url(#id19)}
    .fil18 {fill:url(#id20)}
   ]]>
  </style>
  <linearGradient id="id0" gradientUnits="userSpaceOnUse" x1="11675.74" y1="6416.31" x2="11675.74" y2="10419.12">
   <stop offset="0" style="stop-opacity:1; stop-color:#5E5E5E"/>
   <stop offset="1" style="stop-opacity:1; stop-color:#2B2B2B"/>
  </linearGradient>
  <linearGradient id="id1" gradientUnits="userSpaceOnUse" x1="5005.3" y1="4670.25" x2="6173.03" y2="4582.01">
   <stop offset="0" style="stop-opacity:1; stop-color:#C7C7C7"/>
   <stop offset="1" style="stop-opacity:1; stop-color:#FCFCFC"/>
  </linearGradient>
  <linearGradient id="id2" gradientUnits="userSpaceOnUse" x1="3414.62" y1="7576.62" x2="6381.62" y2="7741.03">
   <stop offset="0" style="stop-opacity:1; stop-color:#09A59D"/>
   <stop offset="1" style="stop-opacity:1; stop-color:#057872"/>
  </linearGradient>
  <linearGradient id="id3" gradientUnits="userSpaceOnUse" x1="5082.69" y1="4623.36" x2="6009.52" y2="4553.28">
   <stop offset="0" style="stop-opacity:1; stop-color:#FAF8FB"/>
   <stop offset="0.0509804" style="stop-opacity:1; stop-color:#FAF8FB"/>
   <stop offset="1" style="stop-opacity:1; stop-color:#95C2E8"/>
  </linearGradient>
  <linearGradient id="id4" gradientUnits="userSpaceOnUse" x1="6396.94" y1="4673.78" x2="6548.86" y2="6395.81">
   <stop offset="0" style="stop-opacity:1; stop-color:#FAD8C9"/>
   <stop offset="1" style="stop-opacity:1; stop-color:#F29F81"/>
  </linearGradient>
  <linearGradient id="id5" gradientUnits="userSpaceOnUse" x1="2701.93" y1="6559.44" x2="2424.71" y2="8122.18">
   <stop offset="0" style="stop-opacity:1; stop-color:#4F4F4F"/>
   <stop offset="1" style="stop-opacity:1; stop-color:#262626"/>
  </linearGradient>
  <linearGradient id="id6" gradientUnits="userSpaceOnUse" xlink:href="#id4" x1="2279.69" y1="7395.95" x2="3702.88" y2="7474.94">
  </linearGradient>
  <linearGradient id="id7" gradientUnits="userSpaceOnUse" xlink:href="#id1" x1="6914.9" y1="6573.78" x2="9087.95" y2="4337.61">
  </linearGradient>
  <linearGradient id="id8" gradientUnits="userSpaceOnUse" xlink:href="#id4" x1="8045.67" y1="3308.2" x2="6824.79" y2="2755.14">
  </linearGradient>
  <linearGradient id="id9" gradientUnits="userSpaceOnUse" x1="9098.02" y1="7067.99" x2="5921.08" y2="7878.87">
   <stop offset="0" style="stop-opacity:1; stop-color:#09A49C"/>
   <stop offset="1" style="stop-opacity:1; stop-color:#057A74"/>
  </linearGradient>
  <linearGradient id="id10" gradientUnits="userSpaceOnUse" x1="3785.54" y1="7450.26" x2="5575.26" y2="7676.77">
   <stop offset="0" style="stop-opacity:1; stop-color:#2C357E"/>
   <stop offset="1" style="stop-opacity:1; stop-color:#222A44"/>
  </linearGradient>
  <linearGradient id="id11" gradientUnits="userSpaceOnUse" xlink:href="#id4" x1="7325.51" y1="4629.24" x2="7470.42" y2="6589.06">
  </linearGradient>
  <linearGradient id="id12" gradientUnits="userSpaceOnUse" xlink:href="#id4" x1="8160.42" y1="3775.23" x2="7498.64" y2="3463.39">
  </linearGradient>
  <linearGradient id="id13" gradientUnits="userSpaceOnUse" xlink:href="#id4" x1="7627.43" y1="3271.64" x2="7353.55" y2="3127.36">
  </linearGradient>
  <linearGradient id="id14" gradientUnits="userSpaceOnUse" x1="7604.53" y1="7300.75" x2="5478.15" y2="4746.09">
   <stop offset="0" style="stop-opacity:1; stop-color:#09A49C"/>
   <stop offset="1" style="stop-opacity:1; stop-color:#057973"/>
  </linearGradient>
  <linearGradient id="id15" gradientUnits="userSpaceOnUse" xlink:href="#id4" x1="4653.08" y1="7871.1" x2="4821.2" y2="6478.65">
  </linearGradient>
  <linearGradient id="id16" gradientUnits="userSpaceOnUse" xlink:href="#id14" x1="5414.13" y1="6825.69" x2="5769.88" y2="3956.3">
  </linearGradient>
  <linearGradient id="id17" gradientUnits="userSpaceOnUse" x1="7110.64" y1="3415.43" x2="6914.92" y2="3321.34">
   <stop offset="0" style="stop-opacity:1; stop-color:#E5C094"/>
   <stop offset="1" style="stop-opacity:1; stop-color:#EE9962"/>
  </linearGradient>
  <linearGradient id="id18" gradientUnits="userSpaceOnUse" xlink:href="#id1" x1="7977.81" y1="5620.38" x2="6778.64" y2="4498.65">
  </linearGradient>
  <linearGradient id="id19" gradientUnits="userSpaceOnUse" x1="8261.31" y1="2960.89" x2="6616.89" y2="3088.38">
   <stop offset="0" style="stop-opacity:1; stop-color:#4D4D4D"/>
   <stop offset="1" style="stop-opacity:1; stop-color:#1A1A1A"/>
  </linearGradient>
  <linearGradient id="id20" gradientUnits="userSpaceOnUse" xlink:href="#id4" x1="6068.4" y1="5278.49" x2="5652.82" y2="4734.79">
  </linearGradient>
 </defs>
 <g id="Layer_x0020_1">
  <metadata id="CorelCorpID_0Corel-Layer"/>
  <g id="_2355926082992">
   <g>
    <path class="fil0" d="M6380.41 8630.5c-4742.36,1270.71 -6809.89,-5581.32 -1733.99,-7459.05 2031.22,-751.4 3206.67,1461.7 5335.93,502.35 12570.15,-5663.57 4914.07,4674.85 -3601.94,6956.7z"/>
    <path class="fil1" d="M12759.16 715.65c-9805.75,1906.3 -9446.46,3606.35 -8568.34,5685.11 5118.62,12117.37 19353.5,-7781.82 8568.34,-5685.11z"/>
    <path class="fil1" d="M8702.05 2478.43c-5601.71,350.65 -10144.6,-2570.07 -8274.84,1452.67 7509.32,16156.25 17044.15,-2001.59 8274.84,-1452.67z"/>
   </g>
   <g>
    <path class="fil2" d="M13490.19 8081.64c0,213.6 -2629.79,386.7 -5873.73,386.7 -3243.93,0 -5873.72,-173.1 -5873.72,-386.7 0,-213.6 2629.79,-386.77 5873.72,-386.77 3243.94,0 5873.73,173.17 5873.73,386.77z"/>
    <path class="fil3" d="M5994.62 4457.73c420.86,297.08 775.89,685.94 1112.85,1072.63 167.37,192.11 670.1,987.47 823.32,1191.41 290.14,386.16 154.37,380.03 -364.47,657.03 -65.62,35.03 -137.44,56.73 -211.43,64.28 -871.09,88.6 -1273.35,-1052.95 -1535.11,-1666.79 -113.61,-266.54 -236.52,-595.97 -333.21,-869.2 75.4,-487.02 508.05,-449.36 508.05,-449.36z"/>
    <path class="fil4" d="M5754.07 7390.65c447.07,-256.04 949.45,-413.65 1442.34,-555.76 244.78,-70.61 1178.01,-190.35 1427.58,-243.15 472.61,-99.93 409.67,20.6 441.66,607.83 4,74.24 -6.58,148.55 -31.05,218.84 -287.56,826.94 -1492.2,709.51 -2159.13,687.53 -289.59,-9.56 -640.11,-37.26 -928.56,-65.01 -409.61,-273.97 -192.85,-650.29 -192.85,-650.29z"/>
    <path class="fil5" d="M5580.78 7576.96c0.59,-42.99 -11.73,-87.8 -20.82,-130.93 -2.64,-12.26 -20.28,-130.85 -18.94,-143.78 19.67,-187.66 127.01,-698.25 127.01,-698.25l-514.51 -81c0,0 9.3,456.9 -101,708.83l0.61 0.16c-246.14,93.64 -677.24,204.22 -677.24,204.22 0,0 -470.72,8.55 -496.39,15.57 -25.61,6.93 -87.86,14.69 -165.21,67.86 0,0 -70.82,111.11 490.73,284.53 0,0 240.46,90.7 647.85,85.59 87.33,4.91 174.72,9.83 262.05,14.75 89.75,4.99 357.04,34.84 395.44,14.23 14.83,-8.02 25.41,-16.79 32.95,-26.5 58.35,-74.37 35.98,-225.78 37.48,-315.26z"/>
    <path class="fil6" d="M5380.59 6991.5c6.32,29.44 11.25,59.09 15.22,88.94 14.03,-26.42 27.63,-53.17 40.85,-80.05l-56.06 -8.89z"/>
    <path class="fil7" d="M5559.96 7446.03c-1.57,-7.06 -8.1,-49.79 -13.09,-86.98 -21.21,7.81 -42.16,15.09 -62.53,21.88 -235.62,78.58 -471.66,33.03 -699.19,-50.65l-12.2 -5.2c-202.41,61.12 -397.07,111.05 -397.07,111.05 0,0 -470.72,8.61 -496.39,15.63 -25.61,6.93 -87.86,14.69 -165.21,67.86 0,0 -70.82,111.11 490.73,284.53 0,0 240.46,90.7 647.85,85.59 87.33,4.91 174.72,9.83 262.05,14.75 89.75,4.99 357.04,34.84 395.44,14.23 14.83,-8.02 25.41,-16.79 32.95,-26.5 58.35,-74.37 35.98,-225.78 37.48,-315.26 0.59,-42.99 -11.73,-87.8 -20.82,-130.93z"/>
    <path class="fil8" d="M5727.87 4454.02l-4.19 -0.14c-233.8,-7.06 -432.51,169.35 -454.8,402.21 -54.64,569.75 -131.87,1413.56 -175.6,1894.86l530.02 100.46c151.94,-475.16 275.12,-963.55 354.82,-1456.77 34.7,-214.26 70.48,-567.27 78.69,-784.11 1.49,-40.09 -64.28,-108.94 -62.19,-152.81 -108.07,-15.44 -149.92,-0.14 -266.75,-3.71z"/>
    <polygon class="fil9" points="6990.84,3163.5 7089,3460.5 6917.79,3517.11 "/>
    <path class="fil10" d="M7509.73 3448.11c5.47,96.89 29.32,667.27 29.32,667.27 63.39,61.79 348.55,64.35 460.46,-45.82 89.08,-87.67 93.66,-160.7 93.66,-160.7l-97.69 -828.23 -485.76 367.49z"/>
    <path class="fil11" d="M7905.92 2454.11l53.57 293.86 81.59 448.27 22.98 126.08c-251.13,511.81 -724.26,599.68 -891.37,447.74 -167.03,-151.88 -307.26,-1081.06 -307.26,-1081.06l1040.48 -234.89z"/>
    <path class="fil12" d="M7874.12 3761.63c0,0 -421.59,-739.91 -539.44,-795.22 -117.84,-55.31 -489.31,63.28 -713.55,-222.76 -221.34,-282.26 -112.8,-446.06 -35.24,-466.75 77.41,-20.68 246.55,259.96 494.16,66.45 251.95,-196.96 793.13,-237.93 892.25,-32.95 0,0 341.28,8.83 302.46,476.24 -38.81,467.41 -137.17,865.22 -247.55,908.14l-153.09 66.85z"/>
    <path class="fil13" d="M7590.26 2943.37c123.76,84.9 139.12,356.03 -74.88,522.32l-125.79 -437.37c6.8,-69.46 119.26,-140.82 200.67,-84.96z"/>
    <path class="fil14" d="M8057 3928.6c-321.76,37.8 -827.71,132.19 -920.95,503.26 -49.74,197.69 -42.78,409.12 -7.22,608.64 27.83,156.53 53.44,313.44 71.97,471.52 31.19,267.11 68.66,567.82 -4.59,831.34l-301.58 552.58c0,0 1464.36,646.11 2190.52,-209.6 0,0 -46.09,-2131.03 -386.43,-2630.19 -41.36,-60.72 -145.27,-87.81 -210.29,-103.9 -143.73,-35.59 -288.38,-40.5 -431.42,-23.65z"/>
    <path class="fil15" d="M5411.73 4737.63c0,0 34.68,275.58 196.19,460.27 161.51,184.83 345.94,258.01 497.35,453.2 118.99,153.43 1302.93,1289.11 1423.4,875.14 15.78,-54.24 -3.71,-112 -25.2,-164.28 -200.93,-489.51 -690.3,-696.65 -1118.05,-954.18l-162.31 -108.54c0,0 -70.42,-278.9 -241.68,-432.65l-569.69 -128.97z"/>
    <path class="fil16" d="M5358.15 4051.76l-355.84 402.61c-24.87,28.18 -22.44,70.96 5.32,96.15l722.92 654.53c28.05,25.41 71.29,23.33 96.69,-4.72l349.11 -384.61c25.13,-27.62 23.43,-70.34 -3.85,-95.94l-716.13 -672.59c-28.15,-26.49 -72.64,-24.39 -98.23,4.57z"/>
    <polygon class="fil17" points="5073.25,4498.63 5689.8,5058.76 6020.23,4694.78 5410.43,4117.19 "/>
    <path class="fil18" d="M5778.86 5203.42c0,0 54.05,-32.74 31.8,-135.36 -22.23,-102.62 -69.39,-344.79 -69.39,-344.79 0,0 0.74,-86.51 34.97,-67.52 34.28,19.08 108.28,72.58 136.91,222.84 0,0 29.79,129.23 63.01,162.39 33.27,33.13 120.2,123.36 135.89,266.13 0,0 -243.71,82.21 -333.2,-103.69z"/>
    <path class="fil19" d="M7579.47 6520.17c49.73,-66.43 57.07,-160.63 60.37,-260.03 8.16,-241.88 20.02,-483.31 30.73,-724.86 4.78,-107.61 9.49,-215.29 13.14,-322.95 7.28,-219.93 22.23,-543.01 -265.62,-595.65 -65.54,-11.99 -150.44,36.39 -191.28,81.19 -30.66,33.64 -49.53,80.39 -61.18,133.1 -24.82,111.84 -17.47,250.44 -22.92,347.53 -11.04,199.39 -18.6,399.36 -19.94,599.76 -0.88,128.75 -0.13,257.71 6.8,386.89 5.67,106.33 2.1,240.61 50.94,339.99 52.09,106.14 180.51,122.11 275.91,94.87 57.28,-16.29 96.3,-44.06 123.05,-79.83z"/>
    <path class="fil20" d="M7807.74 5646.12c-39.61,-298.44 2.24,-1370.77 -425.24,-1414.51 -472.86,-48.44 -381.23,1427.39 -381.23,1427.39l806.47 -12.88z"/>
    <path class="fil21" d="M2690.57 8116.13c42.51,-6.6 84.58,-26.41 125.46,-42.72 11.66,-4.64 125.53,-42.24 138.48,-43.1 188.32,-12.55 709.7,6.39 709.7,6.39l-7.69 -520.78c0,0 -448.68,86.91 -715.71,21.01l0 0.61c-134.22,-226.61 -425.64,-535.54 -425.64,-535.54 0,0 -98.77,-252.07 -110.02,-276.18 -11.27,-24.07 69.52,-82.87 3.97,-150.07 0,0 -12.74,-348.68 -88.06,234.17 0,0 -136.85,241.68 -62.54,642.19 10.05,86.93 20.07,173.83 30.12,260.75 10.24,89.22 26.28,357.72 53.15,392.03 10.45,13.34 20.89,22.24 31.74,28.03 83.28,44.8 228.55,-2.97 317.02,-16.78z"/>
    <path class="fil22" d="M2813.61 8074.42c-24.47,-131.39 -20.21,-274.03 -8.63,-391.95 8.28,-84.36 30.38,-179.16 70.21,-262.11 -121.08,-226.47 -250.79,-515.45 -250.79,-515.45 0,0 -91.96,-331.11 -103.23,-355.24 -11.17,-24.12 -29.43,-84.08 -95,-151.27 0,0 -118.12,-182.11 -193.45,400.72 0,0 -48.52,252.47 25.8,652.98 10.05,86.93 20.07,173.83 30.04,260.75 10.32,89.22 26.36,357.72 53.23,392.03 10.45,13.34 20.89,22.24 31.74,28.03 83.28,44.8 228.55,-2.97 317.02,-16.78 41.63,-6.47 82.82,-25.61 123.05,-41.71z"/>
    <path class="fil23" d="M3412.75 8034.73c613.76,85.51 1961.5,202.69 2722.77,-57.39 119.66,-40.92 248.03,-162.52 261.44,-294.12 10.29,-101.75 -31.94,-250.92 -119.47,-312.44 -72.3,-50.8 -312.25,-67.78 -395.79,-64.02 -236.51,10.71 -1746.57,131.12 -2460.04,188.53l-8.9 539.44z"/>
    <g>
     <path class="fil24" d="M14618.8 2960.24l-5886.01 0c-185.72,0 -336.27,150.55 -336.27,336.18l0 4343.05c0,185.86 150.55,336.42 336.27,336.42l5886.01 0c185.63,0 336.27,-150.56 336.27,-336.42l0 -4343.05c0,-185.63 -150.64,-336.18 -336.27,-336.18z"/>
     <g>
      <path class="fil25" d="M9385.81 4146.09l4579.97 0c64.49,0 117.25,52.76 117.25,117.26l0 440.43c0,64.49 -52.77,117.24 -117.25,117.24l-4579.97 0c-64.5,0 -117.25,-52.76 -117.25,-117.24l0 -440.43c0,-64.5 52.76,-117.26 117.25,-117.26z"/>
      <path class="fil25" d="M9385.81 5130.6l4579.97 0c64.49,0 117.25,52.75 117.25,117.25l0 440.43c0,64.5 -52.77,117.24 -117.25,117.24l-4579.97 0c-64.5,0 -117.25,-52.75 -117.25,-117.24l0 -440.43c0,-64.5 52.76,-117.25 117.25,-117.25z"/>
      <path class="fil26" d="M10612.52 6115.09l2126.54 0c64.5,0 117.25,52.76 117.25,117.26l0 440.42c0,64.5 -52.76,117.25 -117.25,117.25l-2126.54 0c-64.5,0 -117.25,-52.76 -117.25,-117.25l0 -440.42c0,-64.5 52.76,-117.26 117.25,-117.26z"/>
     </g>
    </g>
   </g>
  </g>
 </g>
</svg>
