<?xml version="1.0" encoding="UTF-8"?>
<!DOCTYPE svg PUBLIC "-//W3C//DTD SVG 1.1//EN" "http://www.w3.org/Graphics/SVG/1.1/DTD/svg11.dtd">
<!-- Creator: CorelDRAW 2019 (64-Bit) -->
<svg xmlns="http://www.w3.org/2000/svg" xml:space="preserve" width="39.3864mm" height="43.1734mm" version="1.1" style="shape-rendering:geometricPrecision; text-rendering:geometricPrecision; image-rendering:optimizeQuality; fill-rule:evenodd; clip-rule:evenodd"
viewBox="0 0 1166.09 1278.21"
 xmlns:xlink="http://www.w3.org/1999/xlink">
 <defs>
  <style type="text/css">
   <![CDATA[
    .fil0 {fill:#0CA69E}
    .fil1 {fill:white}
   ]]>
  </style>
 </defs>
 <g id="Layer_x0020_1">
  <metadata id="CorelCorpID_0Corel-Layer"/>
  <g id="_2705703346032">
   <path class="fil0" d="M313.76 950.76c-51.29,60.3 -63.38,105.38 -78.58,157.61 105.98,68.99 312,213.96 431.16,156.78 -8.05,-48.68 -7.92,-43.61 -9.8,-97.99 0,-299.61 45.01,-475.25 107.79,-744.73 -36.1,24.17 -106.19,178.12 -127.26,225.51l-213.63 502.69c-112.59,70.37 -109.68,-160.28 -109.68,-199.87zm-313.76 -489.13l0 352.77c0,89.16 25.09,160.28 78.4,195.98 0,-165.78 55.09,-524.58 110.01,-690.45 25.83,-101.28 95.87,-84.89 115.6,7.24 15,70.03 -68.82,433.08 -68.82,555.83 38.47,-28.18 63.86,-128.47 124.35,-189.41 39.57,-39.87 74.17,-43.6 94.04,1.09 13.18,29.63 -2.81,92.41 -2.81,158.92l84.8 -179.78c49.71,-103.55 229.79,-486.56 326.76,-486.56 30.1,0 72.72,39.74 82.25,65.51 12.28,33.22 -70.15,334.15 -80.31,377.39 -37.56,159.89 -70.54,365.11 -70.54,556.6 43.25,-10.08 300.67,-166.58 320.82,-188.73 25.86,-28.43 51.54,-73.68 51.54,-124.84l0 -480.16c0,-129.87 -207.36,-207.01 -321.59,-276.16 -295.41,-178.83 -259.21,-147.44 -619.63,60.07 -117.79,67.82 -224.87,97.49 -224.87,284.68z"/>
   <path class="fil1" d="M235.18 1108.36c15.2,-52.22 27.29,-97.31 78.58,-157.61 0,39.59 -2.92,270.23 109.68,199.87l213.63 -502.69c21.07,-47.39 91.16,-201.33 127.26,-225.51 -62.78,269.48 -107.79,445.12 -107.79,744.73 1.88,54.38 1.75,49.31 9.8,97.99l127.39 -78.39c0,-191.49 32.98,-396.72 70.54,-556.6 10.16,-43.24 92.59,-344.18 80.31,-377.39 -9.53,-25.78 -52.15,-65.51 -82.25,-65.51 -96.97,0 -277.06,383.01 -326.76,486.56l-84.8 179.78c0,-66.51 15.99,-129.29 2.81,-158.92 -19.87,-44.69 -54.47,-40.96 -94.04,-1.09 -60.49,60.94 -85.88,161.23 -124.35,189.41 0,-122.75 83.82,-485.8 68.82,-555.83 -19.73,-92.13 -89.76,-108.52 -115.6,-7.24 -54.92,165.87 -110.01,524.68 -110.01,690.45l156.78 97.99z"/>
  </g>
 </g>
</svg>
