<svg width="100" height="100" viewBox="0 0 100 100" fill="none" xmlns="http://www.w3.org/2000/svg">
<g clip-path="url(#clip0)">
<path d="M42.5163 80.1509V72.1431C41.6578 72.536 40.7047 72.7568 39.7005 72.7568C38.7202 72.7568 37.7609 72.5367 36.8846 72.1336V80.1509H42.5163Z" fill="#E1E1E1"/>
<path d="M77.9004 80.1509V72.1344C77.1786 72.4708 76.3892 72.6835 75.5567 72.7406C75.3997 72.7513 75.2411 72.7568 75.0849 72.7568C75.0847 72.7568 75.0847 72.7568 75.0845 72.7568C74.0803 72.7568 73.1272 72.5358 72.2687 72.143V80.1509H77.9004Z" fill="#E1E1E1"/>
<path d="M66.701 80.1509V72.3949C66.0537 72.6303 65.3638 72.7568 64.657 72.7568H63.1134C62.3961 72.7568 61.7079 72.6303 61.0695 72.399V80.1509H66.701Z" fill="#E1E1E1"/>
<path d="M68.2925 65.9648C68.2925 65.4046 67.8367 64.949 67.2766 64.949H56.9175V66.7367C56.9175 70.1444 59.7057 72.9326 63.1134 72.9326H64.657C66.7825 72.9326 68.6667 71.8477 69.784 70.2045C68.852 69.0415 68.2925 67.5676 68.2925 65.9648Z" fill="#177144"/>
<path d="M61.7515 66.7367V64.949H56.9175V66.7367C56.9175 70.1444 59.7057 72.9326 63.1134 72.9326H64.657C65.2263 72.9326 65.7776 72.8532 66.3021 72.7076C63.6865 71.9822 61.7515 69.575 61.7515 66.7367Z" fill="#177144"/>
<path d="M31.3171 80.1509V72.1336C30.4408 72.5367 29.4816 72.7568 28.5013 72.7568C27.497 72.7568 26.5439 72.536 25.6854 72.1431V80.1509H31.3171Z" fill="#E1E1E1"/>
<path d="M90.6264 50.2062C92.5174 48.2468 93.6816 45.5816 93.6816 42.643C93.6816 38.4296 91.2894 34.7772 87.7901 32.9635C87.4873 32.8065 87.3088 32.4861 87.3366 32.1461C87.3598 31.8624 87.3721 31.5757 87.3721 31.286C87.3721 25.2665 82.4924 20.387 76.4732 20.387C74.7493 20.387 73.1201 20.7892 71.6714 21.5024C71.3161 21.6773 70.8926 21.5888 70.6381 21.2854C68.6389 18.9033 65.6405 17.3882 62.2871 17.3882C59.8144 17.3882 57.5355 18.2137 55.7069 19.6016C55.4024 19.8328 54.9857 19.8328 54.6812 19.6016C52.8527 18.2137 50.5739 17.3882 48.101 17.3882C45.4168 17.3882 42.9603 18.3594 41.0613 19.9687C43.6418 20.7491 45.5631 23.057 45.7587 25.848C45.8408 27.0178 45.6165 28.1866 45.1105 29.2278L44.9876 29.4804H50.8247C51.348 29.4804 51.8209 29.7259 52.1227 30.1541C52.4231 30.5806 52.495 31.1062 52.3199 31.5961C51.3546 34.2977 48.7772 36.1128 45.9069 36.1128C45.1904 36.1128 44.4819 36.0004 43.8011 35.7791L43.571 35.7043V45.02C43.571 52.7631 37.2715 59.0626 29.5283 59.0626C26.5592 59.0626 23.8042 58.1338 21.5333 56.5551V65.965C21.5333 69.7972 24.6687 72.9328 28.5011 72.9328C30.7892 72.9328 32.8284 71.8145 34.1007 70.098C35.373 71.8145 37.4121 72.9328 39.7004 72.9328C43.5326 72.9328 46.6682 69.7974 46.6682 65.965C46.6682 65.5011 47.0444 65.1249 47.5083 65.1249H67.2766C67.7407 65.1249 68.1167 65.5011 68.1167 65.965C68.1167 69.9575 71.5198 73.1936 75.5686 72.9161C79.243 72.6642 82.0523 69.5218 82.0523 65.8388V65.4967C82.0523 65.0782 82.3603 64.7215 82.7749 64.666C87.5574 64.0238 91.2456 59.9287 91.2456 54.9704C91.2456 53.6062 90.9649 52.308 90.4601 51.1285C90.3258 50.8139 90.3891 50.4521 90.6264 50.2062Z" fill="#1F7E4E"/>
<path d="M53.4223 80.1509V77.7778C53.4223 77.0497 52.8322 76.4594 52.1039 76.4594C51.3757 76.4594 50.7856 77.0497 50.7856 77.7778V80.1509H53.4223Z" fill="#333333"/>
<path d="M88.7543 80.1509V77.7778C88.7543 77.0497 88.1642 76.4594 87.436 76.4594C86.7077 76.4594 86.1176 77.0497 86.1176 77.7778V80.1509H88.7543Z" fill="#333333"/>
<path d="M21.9575 80.1509V77.7778C21.9575 77.0497 21.3672 76.4594 20.6391 76.4594C19.911 76.4594 19.3207 77.0497 19.3207 77.7778V80.1509H21.9575Z" fill="#333333"/>
<path d="M50.8249 29.3046H45.0737L43.571 31.2675V35.8869C44.3015 36.1462 45.0876 36.2885 45.9071 36.2885C48.9395 36.2885 51.5205 34.356 52.4855 31.6553C52.8949 30.5097 52.0412 29.3046 50.8249 29.3046Z" fill="#177144"/>
<path d="M13.9829 29.3046H8.23189C7.01566 29.3046 6.16189 30.5097 6.57128 31.6551C7.53632 34.3558 10.1173 36.2884 13.1497 36.2884C13.9692 36.2884 14.7551 36.146 15.4857 35.8867V31.2674L13.9829 29.3046Z" fill="#177144"/>
<path d="M39.1325 32.9705C37.6131 32.9705 36.1829 32.4709 34.9967 31.5257C34.8074 31.3749 34.5708 31.2916 34.3305 31.2916C34.0902 31.2916 33.8536 31.3747 33.6643 31.5257C32.478 32.4709 31.048 32.9705 29.5285 32.9705C28.0089 32.9705 26.5789 32.4709 25.3927 31.5257C25.2034 31.3749 24.9668 31.2916 24.7265 31.2916C24.4862 31.2916 24.2496 31.3747 24.0602 31.5257C22.874 32.4709 21.4438 32.9705 19.9244 32.9705C18.2052 32.9705 16.543 32.2948 15.3099 31.106V45.0196C15.3099 52.8397 21.7082 59.238 29.5285 59.238C37.3487 59.238 43.7469 52.8397 43.7469 45.0196V31.106C42.514 32.2949 40.8515 32.9705 39.1325 32.9705V32.9705Z" fill="#E1E1E1"/>
<path d="M23.4931 44.6977C22.765 44.6977 22.1747 44.1074 22.1747 43.3793V40.6358C22.1747 39.9077 22.765 39.3174 23.4931 39.3174C24.2212 39.3174 24.8115 39.9077 24.8115 40.6358V43.3793C24.8115 44.1074 24.2212 44.6977 23.4931 44.6977Z" fill="#333333"/>
<path d="M35.5638 44.6977C34.8357 44.6977 34.2454 44.1074 34.2454 43.3793V40.6358C34.2454 39.9077 34.8357 39.3174 35.5638 39.3174C36.2918 39.3174 36.8821 39.9077 36.8821 40.6358V43.3793C36.8821 44.1074 36.2918 44.6977 35.5638 44.6977Z" fill="#333333"/>
<path d="M34.5952 51.0883C34.0803 50.5734 33.2456 50.5734 32.7309 51.0883C32.1865 51.6327 31.5368 52.0085 30.8468 52.2173V49.4927L32.4886 48.2999C33.0777 47.8718 33.2083 47.0474 32.7803 46.4584C32.3524 45.8693 31.528 45.7387 30.9388 46.1667L29.5285 47.1914L28.118 46.1666C27.529 45.7384 26.7044 45.8693 26.2765 46.4584C25.8487 47.0474 25.9793 47.8718 26.5683 48.2999L28.2101 49.4927V52.2173C27.5202 52.0085 26.8705 51.6327 26.3261 51.0883C25.8112 50.5734 24.9765 50.5734 24.4618 51.0883C23.9469 51.6031 23.9469 52.4379 24.4618 52.9526C25.8587 54.3495 27.6937 55.0479 29.5287 55.0479C31.3635 55.0479 33.1984 54.3495 34.5954 52.9526C35.1101 52.4379 35.1101 51.6031 34.5952 51.0883Z" fill="#333333"/>
<path d="M39.4995 19.5179C37.7519 19.4263 36.1388 19.9934 34.8854 20.9929C34.5587 21.2534 34.1009 21.252 33.7742 20.9917C32.6093 20.0634 31.1339 19.5084 29.5285 19.5084C27.9233 19.5084 26.4478 20.0634 25.2829 20.9917C24.9561 21.2522 24.4984 21.2536 24.1716 20.9929C22.9181 19.9934 21.3049 19.4263 19.5571 19.5179C16.1489 19.6967 13.3612 22.4315 13.1227 25.836C12.8434 29.8242 15.996 33.1464 19.9245 33.1464C21.5298 33.1464 23.0051 32.5915 24.1698 31.6634C24.4975 31.4023 24.9557 31.4023 25.2832 31.6634C26.4481 32.5915 27.9235 33.1464 29.5285 33.1464C31.1337 33.1464 32.6091 32.5915 33.7738 31.6634C34.1015 31.4023 34.5597 31.4023 34.8872 31.6634C36.0521 32.5915 37.5274 33.1464 39.1325 33.1464C43.0612 33.1464 46.2138 29.8242 45.9342 25.8359C45.6956 22.4313 42.9078 19.6967 39.4995 19.5179Z" fill="#177144"/>
<path d="M18.3959 25.836C18.5785 23.228 20.2583 21.0144 22.5659 20.0404C21.6478 19.654 20.6278 19.4617 19.5567 19.5179C16.1485 19.6967 13.3608 22.4315 13.1223 25.836C12.843 29.8242 15.9956 33.1464 19.9241 33.1464C20.8595 33.1464 21.7501 32.9569 22.5616 32.6159C19.964 31.5257 18.183 28.8751 18.3959 25.836Z" fill="#177144"/>
<path d="M93.6816 79.9751H84.0082V77.7778C84.0082 77.0497 83.4181 76.4594 82.6899 76.4594C81.9616 76.4594 81.3715 77.0497 81.3715 77.7778V79.9751H58.1684V77.7778C58.1684 77.0497 57.5783 76.4594 56.85 76.4594C56.1218 76.4594 55.5317 77.0497 55.5317 77.7778V79.9751H48.6762V77.7778C48.6762 77.0497 48.0859 76.4594 47.3578 76.4594C46.6297 76.4594 46.0395 77.0497 46.0395 77.7778V79.9751H17.2113V77.7778C17.2113 77.0497 16.6211 76.4594 15.893 76.4594C15.1649 76.4594 14.5746 77.0497 14.5746 77.7778V79.9751H12.4653V77.7778C12.4653 77.0497 11.875 76.4594 11.1469 76.4594C10.4188 76.4594 9.82854 77.0497 9.82854 77.7778V79.9751H6.31836C5.59027 79.9751 5 80.5653 5 81.2934C5 82.0215 5.59027 82.6118 6.31836 82.6118H93.6816C94.4099 82.6118 95 82.0215 95 81.2934C95 80.5653 94.4099 79.9751 93.6816 79.9751Z" fill="#C2D75E"/>
</g>
<defs>
<clipPath id="clip0">
<rect width="90" height="90" fill="white" transform="translate(5 5)"/>
</clipPath>
</defs>
</svg>
