<svg width="100" height="100" viewBox="0 0 100 100" fill="none" xmlns="http://www.w3.org/2000/svg">
<path d="M91.1772 65.5315L83.0966 61.8666L79.5615 56.2394L79.1007 56.1118C78.5101 56.4147 77.9022 56.7111 77.2834 56.9728L59.7832 46.7548H40.5868C37.8978 46.75 35.3609 48.0016 33.7286 50.1385L24.787 61.8731L9.79423 65.9566C6.97632 66.7205 5.01493 69.2712 5 72.1906V77.6512C5.02683 81.2482 7.93668 84.1572 11.5337 84.1827H14.3678C14.3462 83.9663 14.3353 83.6505 14.3353 83.3952C14.3286 78.5752 18.2304 74.6624 23.0506 74.6555C27.8706 74.6487 31.7834 78.5506 31.7901 83.3707C31.7901 83.6219 31.7793 83.8969 31.7577 84.1414L31.8983 84.1827H67.0243L67.1649 84.1373C67.1433 83.8928 67.1325 83.6299 67.1325 83.38C67.1292 78.5601 71.0338 74.6498 75.8538 74.6466C80.6738 74.6433 84.584 78.548 84.5873 83.3679C84.5873 83.6189 84.5764 83.8958 84.5548 84.1403L84.6933 84.1836H88.4663C92.0635 84.158 94.9738 81.2484 95 77.6512V71.4183C94.9857 68.8775 93.4925 66.578 91.1772 65.5315Z" fill="#1F7E4E"/>
<path d="M84.5872 83.3627C84.5872 83.6137 84.5764 83.8603 84.5548 84.1048C84.145 88.9068 79.9202 92.4677 75.118 92.0579C70.8843 91.6966 67.5259 88.3385 67.1649 84.1048C67.1432 83.8603 67.1324 83.6137 67.1324 83.3627C67.1344 78.5428 71.0433 74.6368 75.8633 74.6388C80.6807 74.6407 84.5853 78.5454 84.5872 83.3627Z" fill="#333333"/>
<path d="M14.3678 84.1178C14.3461 83.869 14.3353 83.618 14.3353 83.3627C14.3353 78.5428 18.2428 74.6353 23.0627 74.6353C27.8827 74.6353 31.7901 78.5428 31.7901 83.3627C31.7901 83.6137 31.7793 83.8603 31.7577 84.1048C31.3475 88.9073 27.1216 92.4677 22.3194 92.0575C18.0909 91.6962 14.7354 88.3456 14.3678 84.1178Z" fill="#333333"/>
<path d="M59.7832 46.7288C57.1442 42.5014 55.7459 37.6174 55.7483 32.6339V18.1452L74.4233 7.90985L93.6327 18.1452V32.3678C93.6325 42.3848 88.0176 51.5564 79.0964 56.1118C78.5051 56.4147 77.9 56.6974 77.2812 56.9599L74.3584 58.2211L71.7644 57.0918C66.8161 54.9264 62.6391 51.3137 59.7832 46.7288Z" fill="#C2D75E"/>
<path d="M85.1405 27.6123C84.3865 26.6854 83.0238 26.5453 82.0969 27.2992L82.0967 27.2994L71.9717 35.5375L68.2923 31.2289C67.5163 30.3203 66.1507 30.2128 65.2421 30.9888C64.3334 31.7648 64.2259 33.1304 65.0019 34.0391L70.0553 39.9537C70.078 39.9804 70.1029 40.0033 70.1265 40.0284C70.1538 40.0576 70.1806 40.0877 70.2092 40.1149C70.2377 40.1422 70.271 40.1692 70.3024 40.1958C70.3338 40.2225 70.3621 40.2484 70.3935 40.2722C70.4248 40.296 70.461 40.3192 70.4952 40.3421C70.5293 40.365 70.5579 40.3854 70.5906 40.4057C70.6271 40.4273 70.6652 40.4459 70.7029 40.4656C70.7347 40.4821 70.7658 40.5002 70.7987 40.5152C70.8394 40.5338 70.8816 40.5489 70.9231 40.5649C70.9542 40.5768 70.9845 40.5905 71.0159 40.6008C71.0616 40.616 71.1083 40.6272 71.1546 40.6394C71.1831 40.6469 71.2115 40.6562 71.2411 40.6625C71.2937 40.674 71.3469 40.6811 71.3999 40.6885C71.4237 40.6919 71.4469 40.6971 71.4704 40.6997C71.5475 40.7079 71.6251 40.7123 71.7026 40.7123C71.7636 40.7123 71.8248 40.7097 71.8856 40.7045C71.9044 40.703 71.923 40.6995 71.9417 40.6973C71.9838 40.6928 72.026 40.6882 72.068 40.6811C72.092 40.677 72.1158 40.6707 72.1396 40.666C72.176 40.6584 72.2123 40.6515 72.2478 40.6422C72.2742 40.6352 72.3001 40.6264 72.3263 40.6184C72.3594 40.6084 72.3925 40.5991 72.425 40.5876C72.4524 40.5777 72.4793 40.566 72.5065 40.5552C72.5373 40.5429 72.5682 40.5312 72.5983 40.5173C72.6283 40.5035 72.6532 40.4899 72.6807 40.476C72.7082 40.4622 72.7385 40.4472 72.7672 40.4312C72.796 40.4152 72.8204 40.3986 72.8471 40.3819C72.8737 40.3652 72.9029 40.3475 72.9299 40.3287C72.957 40.3099 72.9797 40.2919 73.0043 40.2733C73.026 40.2577 73.0465 40.2434 73.0666 40.227L84.8294 30.6558C85.7558 29.9012 85.8949 28.5387 85.1405 27.6123Z" fill="#1F7E4E"/>
</svg>
