<svg width="100" height="100" viewBox="0 0 100 100" fill="none" xmlns="http://www.w3.org/2000/svg">
<g clip-path="url(#clip0)">
<path d="M94.1001 42.7436L51.7369 5.65385C50.7427 4.78338 49.2576 4.78338 48.2632 5.65385L5.89996 42.7436C5.07361 43.4671 4.78235 44.6271 5.16871 45.6551C5.55525 46.6832 6.53857 47.364 7.63685 47.364H15.7228V92.3639C15.7228 93.8201 16.9033 95.0006 18.3595 95.0006H81.6406C83.0968 95.0006 84.2773 93.8201 84.2773 92.3639V47.364H92.3632C93.4615 47.364 94.4448 46.683 94.8314 45.6551C95.2178 44.6271 94.9265 43.4671 94.1001 42.7436V42.7436Z" fill="#1F7E4E"/>
<path d="M50.0002 32.8877C45.2054 29.5035 38.5744 32.7963 38.5744 39.4355C38.5744 46.0273 47.6128 51.6423 48.6432 52.2609C49.4785 52.762 50.5218 52.7622 51.3571 52.2609C52.3875 51.6423 61.4258 46.0273 61.4258 39.4355C61.426 32.7896 54.7906 29.5065 50.0002 32.8877V32.8877Z" fill="#C2D75E"/>
<path d="M49.5469 68.4573C43.7313 68.4573 39 73.1886 39 79.0041V81.6409C39 83.097 40.1805 84.2776 41.6367 84.2776H57.457C58.9132 84.2776 60.0937 83.097 60.0937 81.6409V79.0041C60.0937 73.1886 55.3624 68.4573 49.5469 68.4573Z" fill="#E1E1E1"/>
<path d="M49.5469 73.7307C53.9155 73.7307 57.457 70.1892 57.457 65.8206C57.457 61.4519 53.9155 57.9104 49.5469 57.9104C45.1782 57.9104 41.6367 61.4519 41.6367 65.8206C41.6367 70.1892 45.1782 73.7307 49.5469 73.7307Z" fill="#E1E1E1"/>
</g>
<defs>
<clipPath id="clip0">
<rect width="90" height="90" fill="white" transform="translate(5 5)"/>
</clipPath>
</defs>
</svg>
