<?xml version="1.0" encoding="UTF-8"?>
<!DOCTYPE svg PUBLIC "-//W3C//DTD SVG 1.1//EN" "http://www.w3.org/Graphics/SVG/1.1/DTD/svg11.dtd">
<!-- Creator: CorelDRAW 2019 (64-Bit) -->
<svg xmlns="http://www.w3.org/2000/svg" xml:space="preserve" width="3.6775in" height="3.6775in" version="1.1" style="shape-rendering:geometricPrecision; text-rendering:geometricPrecision; image-rendering:optimizeQuality; fill-rule:evenodd; clip-rule:evenodd"
viewBox="0 0 3677.5 3677.5"
 xmlns:xlink="http://www.w3.org/1999/xlink">
 <defs>
  <style type="text/css">
   <![CDATA[
    .fil3 {fill:#FEFEFE;fill-opacity:0.039216}
    .fil2 {fill:#FEFEFE;fill-opacity:0.039216}
    .fil1 {fill:#059C00;fill-opacity:0.039216}
    .fil0 {fill:#FFCC00;fill-opacity:0.039216}
   ]]>
  </style>
 </defs>
 <g id="Layer_x0020_1">
  <metadata id="CorelCorpID_0Corel-Layer"/>
  <g id="_2051182238112">
   <path class="fil0" d="M1838.75 0c-1015.51,0 -1838.75,823.24 -1838.75,1838.75 0,1015.51 823.24,1838.75 1838.75,1838.75 1015.51,0 1838.75,-823.24 1838.75,-1838.75 0,-1015.51 -823.24,-1838.75 -1838.75,-1838.75z"/>
   <path class="fil1" d="M1838.75 167.2c-923.17,0 -1671.55,748.38 -1671.55,1671.55 0,923.17 748.38,1671.55 1671.55,1671.55 923.17,0 1671.55,-748.38 1671.55,-1671.55 0,-923.17 -748.38,-1671.55 -1671.55,-1671.55z"/>
   <polygon class="fil2" points="667.38,667.38 3010.12,667.38 3010.12,3010.12 667.38,3010.12 "/>
   <polygon class="fil3" points="182.18,1838.75 1838.75,182.18 3495.31,1838.75 1838.74,3495.31 "/>
  </g>
 </g>
</svg>
