<?xml version="1.0" encoding="UTF-8"?>
<!DOCTYPE svg PUBLIC "-//W3C//DTD SVG 1.1//EN" "http://www.w3.org/Graphics/SVG/1.1/DTD/svg11.dtd">
<!-- Creator: CorelDRAW 2019 (64-Bit) -->
<svg xmlns="http://www.w3.org/2000/svg" xml:space="preserve" width="80.9739mm" height="80.9739mm" version="1.1" style="shape-rendering:geometricPrecision; text-rendering:geometricPrecision; image-rendering:optimizeQuality; fill-rule:evenodd; clip-rule:evenodd"
viewBox="0 0 5990.61 5990.61"
 xmlns:xlink="http://www.w3.org/1999/xlink">
 <defs>
  <style type="text/css">
   <![CDATA[
    .fil9 {fill:none}
    .fil1 {fill:none;fill-rule:nonzero}
    .fil3 {fill:#09A59D}
    .fil0 {fill:#333333}
    .fil7 {fill:#333333;fill-rule:nonzero}
    .fil6 {fill:black;fill-rule:nonzero;fill-opacity:0.121569}
    .fil2 {fill:#09A59D;fill-opacity:0.200000}
    .fil5 {fill:white;fill-rule:nonzero;fill-opacity:0.200000}
    .fil8 {fill:white;fill-opacity:0.400000}
    .fil4 {fill:white;fill-rule:nonzero;fill-opacity:0.400000}
   ]]>
  </style>
 </defs>
 <g id="Layer_x0020_1">
  <metadata id="CorelCorpID_0Corel-Layer"/>
  <g id="_3034040676432">
   <g>
    <path class="fil0" d="M1380.64 1519.22c19.88,-29.6 19.42,-69.51 19.78,-83.48 1.33,-50.35 -11.8,-105.77 -25.29,-153.65 -15.14,-53.68 -26.29,-108.6 -41.41,-162.24 -27.56,-97.8 -73.07,-192.64 -108.09,-288.07 -18.39,-50.15 -35.36,-155.81 -110.71,-124.88 -89.52,36.74 -120.66,127.53 -102.38,218.81 7.71,38.46 29.7,72.47 46.22,107.47 28.19,59.72 58.91,116.34 90.12,174.43 17.29,32.19 33.39,65.1 51.93,96.72 35.76,60.97 59.29,139.23 107.08,191.43 8.97,9.8 52.86,53.09 72.75,23.47z"/>
    <path class="fil0" d="M1057.08 1750.73c-0.06,-35.68 -23.68,-76.65 -44.5,-103.12 -50.59,-64.27 -134.2,-142.59 -239.21,-217.88 -174.38,-125.02 -200.42,-141.91 -252.86,-98.63 -26.75,22.08 -32.42,145.45 69.75,228.89 145.55,118.87 307.14,222.5 360.53,241.97 15.72,5.73 106.42,23.1 106.3,-51.23z"/>
    <path class="fil1" d="M605.5 2532.22c490.51,-739.2 1958.08,-866.73 3277.93,-284.83 1319.86,581.89 1992.18,1652.85 1501.69,2392.05 -490.51,739.21 -1958.08,866.73 -3277.94,284.84 -1319.85,-581.9 -1992.18,-1652.85 -1501.68,-2392.06z"/>
    <path class="fil2" d="M2790.2 1436.41l-1945.05 3067.15c0,0 -352.83,764.97 478.64,785.74l3589.76 -791.34c0,0 1043.08,-237.3 340.55,-1114.76l-1225.07 -1833.01c0,0 -647.62,-887.57 -1238.83,-113.78z"/>
    <path class="fil3" d="M4982.31 1915.51c0,0 -3056.91,-218.53 -3417.61,-230.39 -360.68,-11.88 -464.58,373.06 -453.13,530.65l-114.09 1529.89c0,0 -110.74,448.65 617.56,522.05l1061.25 131.04c0,0 134.32,410.69 -57.39,719.73 0,0 -29.87,115.32 122.63,76.17 152.48,-39.15 681.5,-411.55 738.36,-743.34 0.61,-3.53 894.04,4.05 1171.24,17.68 277.2,13.63 492.91,-46.34 523.42,-306.03l44.82 -306.94 211.54 -1448.81c0,0 81.71,-517.25 -448.61,-491.71z"/>
    <path class="fil4" d="M1323.8 2149.93c0.61,-9.79 -3.63,-19.58 -11.54,-25.5 -18.64,-14.38 -46.13,-1.96 -47.6,21.54l-8.43 125.81c-0.61,9.8 3.63,19.58 11.54,25.5 18.64,14.38 46.13,1.96 47.6,-21.54l8.43 -125.81zm-143.47 1254.22c-0.61,9.79 3.63,19.57 11.54,25.5 18.64,14.38 46.14,1.96 47.6,-21.54l16.87 -251.64c0.61,-9.79 -3.63,-19.57 -11.54,-25.5 -18.64,-14.38 -46.13,-1.95 -47.6,21.54l-16.87 251.64zm25.3 -377.46c-0.61,9.79 3.63,19.58 11.53,25.5 18.64,14.38 46.14,1.96 47.61,-21.54l16.86 -251.64c0.61,-9.8 -3.63,-19.58 -11.54,-25.51 -18.64,-14.38 -46.13,-1.95 -47.6,21.54l-16.86 251.64zm25.29 -377.46c-0.61,9.79 3.63,19.58 11.54,25.5 18.64,14.38 46.13,1.96 47.6,-21.54l16.86 -251.64c0.61,-9.8 -3.63,-19.58 -11.53,-25.5 -18.64,-14.38 -46.14,-1.96 -47.61,21.54l-16.86 251.64z"/>
    <path class="fil4" d="M1535.33 4102.06c-9.2,-1.15 -18.45,2.08 -24.92,8.74 -17,17.55 -6.67,47.04 17.58,50.07l125.13 15.62c9.2,1.15 18.45,-2.07 24.92,-8.74 16.99,-17.55 6.67,-47.04 -17.58,-50.06l-125.13 -15.63zm1206.11 210.32c9.2,1.15 18.46,-2.08 24.92,-8.74 17,-17.55 6.67,-47.04 -17.57,-50.07l-212.43 -26.53c-9.2,-1.15 -18.46,2.08 -24.92,8.75 -17,17.54 -6.67,47.04 17.58,50.06l212.42 26.53zm-337.56 -42.15c9.2,1.15 18.45,-2.08 24.92,-8.74 16.99,-17.55 6.66,-47.04 -17.58,-50.07l-250.26 -31.25c-9.2,-1.15 -18.45,2.08 -24.92,8.75 -17,17.54 -6.67,47.04 17.58,50.06l250.26 31.25zm-375.38 -46.87c9.2,1.15 18.45,-2.08 24.91,-8.74 17,-17.55 6.67,-47.04 -17.57,-50.07l-250.26 -31.24c-9.2,-1.15 -18.45,2.08 -24.91,8.74 -17,17.55 -6.67,47.04 17.57,50.07l250.26 31.24z"/>
    <path class="fil4" d="M2770.19 4267.18c-15.36,-24.21 -52.74,-14.73 -54.66,13.98 -0.28,6.36 1.08,12.21 4.51,17.61l0.15 0.24 -0.06 -0.1c5.26,8.6 10.2,17.48 14.94,26.39 14.15,26.56 26.85,54.04 38.15,81.93 10.05,25.1 46.45,24.32 55.4,-1.35 2.46,-6.89 2.2,-14.26 -0.5,-21.03 -10.04,-24.76 -21.11,-49.04 -33.17,-72.88 -7.61,-14.94 -15.75,-30.47 -24.67,-44.68l0.27 0.45 -0.35 -0.57zm542.25 253.12c11,-25.47 -16.69,-50.95 -41.24,-37.73 -6,3.14 -10.62,8.32 -13.29,14.52 -31.38,74.67 -77.58,143.51 -128.7,206.02 -15.02,17.93 -3.42,46.22 19.93,48.3 9.9,1.09 19.52,-3.11 25.87,-10.68 54.72,-66.92 103.84,-140.51 137.43,-220.44zm-223.8 316.04c8.71,-8.71 11.14,-22.52 5.73,-33.62 -9.03,-18.53 -33.23,-22.7 -47.79,-8.13 -58.25,58.85 -120.79,113.14 -186.43,163.57 -9.68,7.39 -13.86,20.18 -10.4,31.86 5.9,20 29.94,27.8 46.48,15.17 67.88,-52.36 132.08,-107.89 192.41,-168.86zm-296.33 243.62c10.71,-7.23 15.43,-20.07 12.11,-32.52 -0.5,-1.83 -1.15,-3.57 -1.95,-5.2 28.05,-45 50.12,-93.77 65.59,-144.48 2.46,-8.08 1.29,-16.56 -2.98,-23.81 -13.32,-22 -46.3,-17.85 -53.78,6.72 -20.02,65.55 -50.88,123.72 -92.31,178.21 -7.58,9.93 -8.16,23.37 -1.49,33.92 9.33,14.56 28.5,17.73 41.79,8.58 11.09,-7.07 22.08,-14.11 33.03,-21.42zm41.53 -316.79c-1,12.03 5.4,23.36 16.13,28.86 18.82,9.41 41.19,-2.98 42.94,-24.01 7.4,-87.2 -2.05,-175.23 -23.95,-259.82 -7.01,-27.43 -45.47,-30.07 -56.12,-3.74 -2.46,5.91 -2.83,12.44 -1.24,18.64 20.28,77.81 29.05,159.85 22.25,240.07z"/>
    <path class="fil4" d="M3292.12 4382.57c-8.2,26.96 22.82,49.14 45.69,32.62 5.28,-3.71 9.18,-9.32 11.05,-15.48l29.98 -99.23c16.14,-11.89 17.41,-39.4 -4.47,-50.6 -4.1,-1.9 -7.57,-2.83 -12.1,-3.02l-4.19 -0.13c-6.67,-0.73 -13.76,0.86 -20.2,5.5 -5.28,3.71 -9.18,9.33 -11.05,15.48l-34.71 114.86zm1428.72 -31.8c31.77,0.66 42.55,-41.62 14.05,-56.23 -4.1,-1.89 -7.58,-2.82 -12.1,-3.01l-100.18 -3.29c-31.77,-0.67 -42.55,41.62 -14.05,56.22 4.09,1.9 7.57,2.83 12.1,3.02l100.18 3.29zm-226.21 -7.44c31.77,0.67 42.55,-41.62 14.05,-56.22 -4.1,-1.9 -7.57,-2.83 -12.1,-3.02l-252.06 -8.27c-31.77,-0.67 -42.55,41.61 -14.05,56.22 4.09,1.89 7.57,2.83 12.1,3.01l252.06 8.28zm-378.1 -12.41c31.77,0.67 42.55,-41.62 14.05,-56.22 -4.1,-1.9 -7.57,-2.83 -12.1,-3.02l-252.06 -8.28c-31.77,-0.66 -42.55,41.62 -14.05,56.23 4.1,1.89 7.57,2.82 12.1,3.01l252.06 8.28zm-378.1 -12.41c31.77,0.66 42.55,-41.62 14.05,-56.23 -4.09,-1.89 -7.57,-2.82 -12.1,-3.01l-252.06 -8.27c-31.77,-0.66 -42.55,41.62 -14.05,56.22 4.1,1.9 7.57,2.83 12.1,3.02l252.06 8.27z"/>
    <path class="fil4" d="M4725.39 4291.33l-0.36 -0.04c-31.21,-3.57 -46.52,38.46 -18.6,55.65 3.76,2.17 7.36,3.44 11.67,3.99l0.25 0.04 -0.07 -0.01 0.92 0.1c6.2,1.13 16.04,1.21 22.43,1.44 61.15,1.57 123.56,-7.93 179.1,-34.47 11.19,-5.41 17.92,-16.74 17.12,-29.16 -1.4,-20.95 -23.82,-34.3 -42.82,-25.12 -49.5,23.65 -114.3,32.8 -169,27.64l0.1 0.01 -0.73 -0.07zm338.87 -169.97c2.22,-14.2 -5.45,-27.9 -18.98,-33.03 -17.51,-6.64 -37.35,4.5 -40.26,23.15 -1.72,10.13 -3.89,19.92 -6.73,29.79 -9.32,32.11 33.34,53.57 53.5,25.56 1.83,-2.68 3.21,-5.5 4.12,-8.64 3.55,-12.18 6.21,-24.33 8.36,-36.83zm-338.87 169.97l0.34 0.04 -0.34 -0.04z"/>
    <path class="fil4" d="M5005.24 4112.73c-3.15,25.21 24.95,42.47 46.02,28.23 7.14,-5.02 11.71,-12.16 12.8,-20.86l15.68 -125.12c3.15,-25.21 -24.95,-42.47 -46.01,-28.24 -7.14,5.02 -11.71,12.16 -12.8,20.86l-15.68 125.13zm262.67 -1619.21c3.15,-25.21 -24.95,-42.47 -46.01,-28.23 -7.14,5.02 -11.71,12.16 -12.8,20.86l-31.38 250.24c-3.14,25.21 24.95,42.47 46.02,28.24 7.14,-5.02 11.71,-12.16 12.8,-20.87l31.37 -250.24zm-47.05 375.37c3.15,-25.21 -24.95,-42.47 -46.01,-28.23 -7.15,5.02 -11.72,12.16 -12.81,20.86l-31.36 250.24c-3.14,25.21 24.95,42.47 46.02,28.24 7.14,-5.02 11.71,-12.16 12.8,-20.87l31.36 -250.24zm-47.04 375.37c3.14,-25.21 -24.95,-42.47 -46.02,-28.23 -7.14,5.02 -11.71,12.16 -12.8,20.86l-31.36 250.24c-3.15,25.21 24.95,42.47 46.01,28.23 7.15,-5.02 11.71,-12.16 12.81,-20.86l31.36 -250.24zm-47.05 375.36c3.15,-25.21 -24.95,-42.47 -46.01,-28.24 -7.15,5.02 -11.72,12.16 -12.81,20.86l-31.36 250.24c-3.15,25.21 24.95,42.47 46.02,28.24 7.14,-5.02 11.71,-12.16 12.8,-20.86l31.36 -250.24z"/>
    <path class="fil4" d="M5220.3 2403.42l-0.18 0.5 0.18 -0.5zm-3955.34 -260.18c-1.46,8.77 1.27,17.98 7.25,24.56 16.76,18.44 47.18,9.4 51.27,-15.14l0.27 -1.61c1.94,-11.63 -2.94,-22.71 -12.54,-29.45 -17.84,-12.05 -42.35,-1.75 -45.9,19.56l-0.35 2.08zm37.18 -130.02c-11.49,26.61 17.43,52.12 42.39,37.4 5.44,-3.43 9.12,-7.49 11.79,-13.38 31.8,-73.38 85.32,-125.89 159.57,-155.21 26.02,-9.83 25.18,-47.24 -1.37,-55.89 -6.71,-2.03 -13.09,-2.01 -19.69,0.48 -88.68,34.61 -154.81,99.17 -192.7,186.59zm192.7 -186.59l21.06 55.41 -21.06 -55.41zm130.83 -28.86c-29.27,2.43 -37.49,41.7 -11.61,55.63 5.16,2.72 10.63,3.91 16.46,3.43 40.6,-3.37 80.63,-2.35 121.19,0.79 23.68,1.79 47.27,4.59 70.94,6.53 12.58,0.95 26.31,2.08 38.79,-0.47 6.11,-0.88 12.38,-0.84 18.55,-0.93 32.08,-0.67 40.75,-44.27 10.92,-57.06 -3.81,-1.54 -7.45,-2.2 -11.56,-2.2 -8.35,0.13 -16.49,0.3 -24.79,1.27l-2.75 0.42 -3.03 0.63 0.35 -0.07c-5.72,0.87 -15.91,-0.2 -21.77,-0.66 -23.68,-1.98 -47.28,-4.74 -70.99,-6.53 -43.52,-3.5 -87.18,-4.39 -130.72,-0.78zm381.33 9.17c-28.82,-1.2 -42.18,35.48 -19.32,53.12 4.97,3.72 10.54,5.84 16.76,6.1 83.79,3.59 167.72,8.11 251.44,13.08 11.75,0.73 22.62,-5.64 28.06,-16.01 9.8,-19.13 -3.24,-41.82 -24.64,-43.16 -84.02,-4.94 -168.2,-9.52 -252.29,-13.12zm378.26 20.57c-9.24,-0.57 -18.3,3.26 -24.31,10.31 -15.88,18.61 -3.68,47.33 20.71,48.85 83.87,5.05 167.76,10.27 251.61,15.76 30.07,1.88 43.4,-37.31 18.42,-54.18 -4.32,-2.92 -9.42,-4.64 -14.62,-4.96 -83.92,-5.48 -167.87,-10.71 -251.81,-15.77zm377.68 23.93c-29.81,-1.86 -43.44,36.63 -18.78,53.97 4.52,3.05 9.45,4.84 14.91,5.18 83.87,5.47 167.73,11.07 251.58,16.73 9.65,0.61 19.01,-3.39 25.07,-10.96 14.97,-18.72 2.75,-46.68 -21.08,-48.18 -83.9,-5.65 -167.79,-11.25 -251.7,-16.73zm377.54 25.26c-13.24,-0.82 -25.21,6.92 -29.84,19.37 -6.84,18.38 6.24,38.54 25.82,39.77 83.87,5.7 167.72,11.47 251.58,17.29 13.24,0.83 25.24,-6.87 29.87,-19.33 6.84,-18.38 -6.17,-38.57 -25.77,-39.8 -83.88,-5.82 -167.76,-11.59 -251.65,-17.29zm377.46 26.05c-28.19,-1.77 -42.84,32.54 -21.54,51.9 5.13,4.38 10.69,6.67 17.41,7.22 83.86,5.83 167.71,11.73 251.56,17.67 28.39,1.78 42.84,-33.12 21.57,-51.89 -5.14,-4.38 -10.67,-6.67 -17.4,-7.24 -83.87,-5.94 -167.74,-11.84 -251.61,-17.67zm377.4 26.57c-11.79,-0.74 -22.49,5.12 -28.19,15.48 -10.09,19.22 2.37,41.84 23.98,43.64l251.54 17.96c24.13,1.51 39.76,-24.07 27.45,-44.94 -5.3,-8.4 -13.3,-13.35 -23.22,-14.18l-251.58 -17.96zm377.37 27.01c-22.77,-1.42 -38.51,21.55 -28.91,42.27 4.65,9.79 13.92,15.96 24.65,16.85 83.84,6.04 167.68,12.09 251.52,18.2 26.32,1.65 41.57,-28.31 24.7,-48.8 -5.45,-6.18 -12.17,-9.63 -20.39,-10.31l-251.56 -18.2zm377.33 27.36c-32.17,-2.01 -44.18,40.97 -15.65,55.95 3.62,1.86 7.29,2.83 11.33,3.16 83.84,6.04 167.68,12.18 251.5,18.43 13.18,0.83 24.95,-6.53 29.83,-18.85 7,-18.82 -5.44,-38.59 -25.46,-40.25 -83.84,-6.21 -167.7,-12.39 -251.55,-18.44zm377.3 27.72c-32.07,-2 -44.47,40.82 -15.35,56.12 3.6,1.75 7.03,2.67 11.02,3 25.2,1.74 82.4,25.26 105.57,38.43 32.07,18.05 60.3,43.64 79.1,75.46 13.38,23.4 49.07,17.83 54.68,-8.99 1.35,-7.42 0.36,-14.17 -3.41,-20.75 -24.02,-40.76 -59.74,-73.97 -100.85,-97.12 -38.78,-22.09 -80.18,-35.82 -123.65,-45.34 -1.32,-0.29 -2.64,-0.47 -3.96,-0.58 -0.98,-0.14 -2.15,-0.17 -3.15,-0.24zm-4.32 58.9l0.55 -7.6 -0.55 7.6zm273.12 218.61c-1.34,-32.1 -45.11,-39.83 -57.27,-9.78 -1.46,3.91 -2.06,7.41 -1.97,11.6 1.24,37.28 -4.39,74.77 -15.76,110.26l-0.84 2.41 0.04 -0.09 -0.1 0.26 0.07 -0.17 -0.07 0.17c-9.81,26.39 19.69,50.46 43.58,35.38 5.54,-3.6 9.57,-8.39 11.93,-14.6l0.36 -0.98 -0.03 0.08c1.74,-4.64 3.21,-9.56 4.62,-14.3 11.24,-38.8 16.79,-79.86 15.45,-120.24zm-75.84 114.49l0.16 -0.41 -0.16 0.41z"/>
    <path class="fil0" d="M1810.78 1473.25c30.07,-19.21 51.96,-61.15 63.09,-92.92 27.06,-77.18 48.24,-189.77 55.36,-318.8 11.84,-214.22 12.1,-245.27 -52.59,-266.26 -32.99,-10.71 -140.1,50.75 -155.64,181.74 -22.12,186.62 -22.76,378.58 -10.52,434.08 3.61,16.34 37.66,102.18 100.29,62.15z"/>
    <g>
     <path class="fil5" d="M3253.82 3355.37c-3.82,54.38 -26.06,98.37 -66.61,131.93 -40.6,33.6 -89.41,48.35 -146.43,44.34 -53.58,-3.77 -99,-25.15 -136.2,-64.22 -37.21,-39.02 -53.94,-84.91 -50.23,-137.66l11.81 -168.06c5.1,-72.49 18.84,-118.72 41.22,-138.69 22.38,-19.92 42.04,-32.63 59.07,-38.07 16.97,-5.4 76.48,-12.39 178.5,-20.97 101.98,-8.55 156.84,-67.21 164.49,-175.97 3.59,-51.05 -13.48,-94.48 -51.17,-130.27 -37.72,-35.76 -88.76,-55.92 -153.11,-60.44 -45.26,-3.18 -85.91,3.08 -121.96,18.75 -36.1,15.71 -74.9,45.26 -116.39,88.68l-39.48 39.45c-43.06,40.05 -91.55,58.14 -145.45,54.35 -52.19,-3.67 -93.69,-23.13 -124.41,-58.42 -30.75,-35.27 -44.2,-80.11 -40.37,-134.48 7.88,-112.03 73.9,-205.93 198.15,-281.63 124.21,-75.72 265.48,-108.01 423.81,-96.87 187.91,13.21 338.4,73.46 451.5,180.78 113.1,107.3 164.14,239.24 153.14,395.76 -9.96,141.73 -53.45,243.81 -130.37,306.28 -76.98,62.5 -135.68,101.84 -176.16,118.01 -40.48,16.21 -99.7,31.49 -177.63,45.87l-5.73 81.57zm-221.89 302.33l0 0c62.26,4.38 113.96,29.13 155.13,74.25 41.16,45.12 59.67,97.35 55.49,156.66 -4.17,59.31 -29.74,107.63 -76.7,144.88 -46.96,37.25 -102.41,53.65 -166.39,49.15 -60.55,-4.25 -111.01,-28.53 -151.34,-72.75 -40.37,-44.2 -58.5,-95.16 -54.45,-152.85 4.17,-59.31 29.76,-108.44 76.83,-147.35 47.07,-38.91 100.87,-56.25 161.42,-51.99z"/>
    </g>
    <g>
     <path class="fil6" d="M3403.53 3365.91c-3.82,54.37 -26.05,98.37 -66.61,131.92 -40.59,33.6 -89.41,48.35 -146.43,44.34 -53.59,-3.77 -99,-25.15 -136.21,-64.22 -37.21,-39.03 -53.94,-84.9 -50.23,-137.66l11.81 -168.06c5.1,-72.48 18.84,-118.71 41.22,-138.68 22.38,-19.92 42.04,-32.63 59.07,-38.07 16.98,-5.4 76.48,-12.39 178.5,-20.97 101.98,-8.54 156.84,-67.21 164.49,-175.97 3.59,-51.05 -13.48,-94.48 -51.17,-130.27 -37.72,-35.76 -88.76,-55.92 -153.11,-60.44 -45.26,-3.18 -85.91,3.08 -121.97,18.75 -36.1,15.7 -74.89,45.26 -116.38,88.68l-39.48 39.45c-43.06,40.05 -91.55,58.14 -145.46,54.35 -52.19,-3.67 -93.69,-23.13 -124.4,-58.42 -30.75,-35.27 -44.2,-80.12 -40.37,-134.48 7.88,-112.03 73.91,-205.93 198.15,-281.63 124.21,-75.72 265.47,-108.01 423.81,-96.88 187.9,13.21 338.4,73.47 451.5,180.78 113.1,107.3 164.14,239.24 153.14,395.76 -9.97,141.73 -53.45,243.81 -130.38,306.27 -76.97,62.5 -135.68,101.84 -176.15,118.02 -40.48,16.21 -99.71,31.49 -177.63,45.88l-5.73 81.57zm-221.89 302.32l0 0c62.26,4.38 113.96,29.13 155.13,74.25 41.17,45.11 59.67,97.35 55.5,156.66 -4.17,59.31 -29.74,107.63 -76.7,144.88 -46.96,37.25 -102.41,53.65 -166.39,49.15 -60.55,-4.25 -111.01,-28.53 -151.34,-72.75 -40.37,-44.2 -58.5,-95.16 -54.45,-152.85 4.17,-59.32 29.76,-108.44 76.83,-147.36 47.07,-38.91 100.86,-56.25 161.42,-51.99z"/>
    </g>
    <g>
     <path class="fil7" d="M3328.67 3360.64c-3.82,54.37 -26.05,98.37 -66.61,131.92 -40.6,33.6 -89.41,48.35 -146.43,44.34 -53.59,-3.77 -99,-25.15 -136.2,-64.22 -37.21,-39.03 -53.94,-84.91 -50.23,-137.66l11.82 -168.06c5.1,-72.48 18.84,-118.72 41.22,-138.68 22.38,-19.92 42.04,-32.63 59.06,-38.07 16.98,-5.4 76.48,-12.39 178.5,-20.97 101.98,-8.55 156.84,-67.22 164.49,-175.97 3.59,-51.05 -13.48,-94.48 -51.17,-130.27 -37.72,-35.76 -88.76,-55.92 -153.11,-60.44 -45.26,-3.18 -85.91,3.08 -121.96,18.74 -36.1,15.71 -74.89,45.26 -116.38,88.69l-39.49 39.45c-43.06,40.05 -91.55,58.14 -145.45,54.35 -52.19,-3.67 -93.69,-23.12 -124.41,-58.42 -30.75,-35.27 -44.2,-80.12 -40.37,-134.48 7.88,-112.04 73.9,-205.94 198.15,-281.64 124.21,-75.71 265.47,-108.01 423.81,-96.87 187.91,13.21 338.4,73.47 451.5,180.78 113.1,107.3 164.14,239.24 153.14,395.75 -9.97,141.73 -53.45,243.81 -130.38,306.28 -76.97,62.5 -135.67,101.84 -176.14,118.01 -40.48,16.22 -99.71,31.49 -177.63,45.88l-5.74 81.57zm-221.89 302.32l0 0c62.26,4.38 113.96,29.13 155.13,74.25 41.16,45.12 59.66,97.35 55.49,156.66 -4.17,59.31 -29.74,107.63 -76.7,144.88 -46.96,37.24 -102.41,53.65 -166.39,49.15 -60.55,-4.26 -111.01,-28.53 -151.34,-72.75 -40.37,-44.2 -58.5,-95.16 -54.44,-152.85 4.17,-59.31 29.75,-108.44 76.82,-147.35 47.07,-38.92 100.87,-56.25 161.42,-51.99z"/>
    </g>
    <g>
     <path class="fil4" d="M1232.15 3511.74l0.01 -0.07c2.58,-11.18 -1.62,-22.68 -10.54,-29.83 -17.22,-13.38 -42.27,-4.59 -47.24,16.65l57.77 13.25zm295.8 649.13c13.17,1.65 25.75,-5.59 30.98,-17.79 7.73,-18.03 -4.13,-38.59 -23.56,-41.02 -55.09,-7.19 -107.3,-22.02 -154.97,-51.26 -26.45,-16.13 -56.82,13.68 -40.98,40.53 2.57,4.17 5.62,7.24 9.76,9.86 55.55,33.91 114.59,51.28 178.78,59.67zm-279.43 -152.26c15.24,21.23 49.11,13.27 53.22,-12.57 1.41,-7.73 -0.7,-15.9 -5.25,-22.24 -47.31,-64.48 -68.88,-142.04 -76.99,-220.7 -1.28,-12.31 -9.83,-22.41 -21.77,-25.66 -19.93,-5.44 -39.34,11.05 -37.2,31.58 9.27,89.36 34.28,176.39 87.99,249.6zm-90.66 -380.12c-1.09,26.26 29.06,41.02 48.97,24.04 6.23,-5.66 9.68,-12.35 10.22,-20.8l0.16 -2.8c2.26,-38.11 6.68,-76.65 14.28,-114.1l0.67 -3.09 -15.1 119.98 -42.67 -133.23c-0.53,2.03 -0.94,4.32 -1.37,6.4 -8.06,40.73 -12.8,82.1 -15.15,123.54l0 0.05zm16.52 -129.99l57.77 13.25 -0.04 0.15 0.04 -0.15 -57.77 -13.25z"/>
     <path class="fil8" d="M1217.2 3628.92c2.26,-38.11 6.69,-76.65 14.29,-114.1l0.67 -3.08 -57.77 -13.26 42.66 133.23 0.16 -2.8z"/>
    </g>
   </g>
   <rect class="fil9" x="-0" y="-0" width="5990.61" height="5990.61"/>
  </g>
 </g>
</svg>
