<?xml version="1.0" encoding="UTF-8"?>
<!DOCTYPE svg PUBLIC "-//W3C//DTD SVG 1.1//EN" "http://www.w3.org/Graphics/SVG/1.1/DTD/svg11.dtd">
<!-- Creator: CorelDRAW 2019 (64-Bit) -->
<svg xmlns="http://www.w3.org/2000/svg" xml:space="preserve" width="112.634mm" height="71.7932mm" version="1.1" style="shape-rendering:geometricPrecision; text-rendering:geometricPrecision; image-rendering:optimizeQuality; fill-rule:evenodd; clip-rule:evenodd"
viewBox="0 0 4897.73 3121.83"
 xmlns:xlink="http://www.w3.org/1999/xlink">
 <defs>
  <style type="text/css">
   <![CDATA[
    .fil25 {fill:#20D7CD}
    .fil6 {fill:#FCE0BE;fill-rule:nonzero}
    .fil1 {fill:#09A59D;fill-opacity:0.200000}
    .fil0 {fill:#09A59D;fill-opacity:0.301961}
    .fil26 {fill:#333333;fill-opacity:0.301961}
    .fil2 {fill:#332C2B;fill-rule:nonzero;fill-opacity:0.501961}
    .fil16 {fill:url(#id0)}
    .fil15 {fill:url(#id1)}
    .fil24 {fill:url(#id2)}
    .fil13 {fill:url(#id3)}
    .fil8 {fill:url(#id4)}
    .fil19 {fill:url(#id5)}
    .fil23 {fill:url(#id6)}
    .fil9 {fill:url(#id7)}
    .fil22 {fill:url(#id8)}
    .fil18 {fill:url(#id9)}
    .fil10 {fill:url(#id10)}
    .fil20 {fill:url(#id11)}
    .fil14 {fill:url(#id12)}
    .fil21 {fill:url(#id13)}
    .fil17 {fill:url(#id14)}
    .fil11 {fill:url(#id15)}
    .fil5 {fill:url(#id16)}
    .fil4 {fill:url(#id17)}
    .fil12 {fill:url(#id18)}
    .fil7 {fill:url(#id19)}
    .fil3 {fill:url(#id20)}
   ]]>
  </style>
  <linearGradient id="id0" gradientUnits="userSpaceOnUse" x1="1468.13" y1="1369.86" x2="1810.64" y2="1343.97">
   <stop offset="0" style="stop-opacity:1; stop-color:#C7C7C7"/>
   <stop offset="1" style="stop-opacity:1; stop-color:#FCFCFC"/>
  </linearGradient>
  <linearGradient id="id1" gradientUnits="userSpaceOnUse" x1="1876.32" y1="1370.89" x2="1920.88" y2="1875.99">
   <stop offset="0" style="stop-opacity:1; stop-color:#FAD8C9"/>
   <stop offset="1" style="stop-opacity:1; stop-color:#F29F81"/>
  </linearGradient>
  <linearGradient id="id2" gradientUnits="userSpaceOnUse" x1="3424.68" y1="1882" x2="3424.68" y2="3056.09">
   <stop offset="0" style="stop-opacity:1; stop-color:#068079"/>
   <stop offset="1" style="stop-opacity:1; stop-color:#05736D"/>
  </linearGradient>
  <linearGradient id="id3" gradientUnits="userSpaceOnUse" xlink:href="#id1" x1="2237.24" y1="959.63" x2="2156.9" y2="917.3">
  </linearGradient>
  <linearGradient id="id4" gradientUnits="userSpaceOnUse" x1="1588.05" y1="2002.08" x2="1692.4" y2="1160.45">
   <stop offset="0" style="stop-opacity:1; stop-color:#09A49C"/>
   <stop offset="1" style="stop-opacity:1; stop-color:#057973"/>
  </linearGradient>
  <linearGradient id="id5" gradientUnits="userSpaceOnUse" xlink:href="#id1" x1="2148.69" y1="1357.83" x2="2191.19" y2="1932.68">
  </linearGradient>
  <linearGradient id="id6" gradientUnits="userSpaceOnUse" x1="1001.56" y1="2222.34" x2="1871.83" y2="2270.57">
   <stop offset="0" style="stop-opacity:1; stop-color:#09A59D"/>
   <stop offset="1" style="stop-opacity:1; stop-color:#057872"/>
  </linearGradient>
  <linearGradient id="id7" gradientUnits="userSpaceOnUse" x1="2085.66" y1="1001.8" x2="2028.26" y2="974.2">
   <stop offset="0" style="stop-opacity:1; stop-color:#E5C094"/>
   <stop offset="1" style="stop-opacity:1; stop-color:#EE9962"/>
  </linearGradient>
  <linearGradient id="id8" gradientUnits="userSpaceOnUse" x1="792.52" y1="1923.98" x2="711.2" y2="2382.37">
   <stop offset="0" style="stop-opacity:1; stop-color:#4F4F4F"/>
   <stop offset="1" style="stop-opacity:1; stop-color:#262626"/>
  </linearGradient>
  <linearGradient id="id9" gradientUnits="userSpaceOnUse" xlink:href="#id1" x1="1779.95" y1="1548.26" x2="1658.06" y2="1388.79">
  </linearGradient>
  <linearGradient id="id10" gradientUnits="userSpaceOnUse" xlink:href="#id1" x1="2393.58" y1="1107.34" x2="2199.47" y2="1015.86">
  </linearGradient>
  <linearGradient id="id11" gradientUnits="userSpaceOnUse" xlink:href="#id0" x1="2340.01" y1="1648.55" x2="1988.29" y2="1319.53">
  </linearGradient>
  <linearGradient id="id12" gradientUnits="userSpaceOnUse" xlink:href="#id0" x1="2028.24" y1="1928.19" x2="2665.64" y2="1272.29">
  </linearGradient>
  <linearGradient id="id13" gradientUnits="userSpaceOnUse" xlink:href="#id1" x1="668.67" y1="2169.35" x2="1086.11" y2="2192.51">
  </linearGradient>
  <linearGradient id="id14" gradientUnits="userSpaceOnUse" x1="1490.83" y1="1356.11" x2="1762.68" y2="1335.55">
   <stop offset="0" style="stop-opacity:1; stop-color:#FAF8FB"/>
   <stop offset="0.0509804" style="stop-opacity:1; stop-color:#FAF8FB"/>
   <stop offset="1" style="stop-opacity:1; stop-color:#95C2E8"/>
  </linearGradient>
  <linearGradient id="id15" gradientUnits="userSpaceOnUse" xlink:href="#id1" x1="2359.92" y1="970.34" x2="2001.82" y2="808.12">
  </linearGradient>
  <linearGradient id="id16" gradientUnits="userSpaceOnUse" xlink:href="#id1" x1="1364.82" y1="2308.72" x2="1414.13" y2="1900.29">
  </linearGradient>
  <linearGradient id="id17" gradientUnits="userSpaceOnUse" x1="2668.59" y1="2073.15" x2="1736.74" y2="2310.99">
   <stop offset="0" style="stop-opacity:1; stop-color:#09A49C"/>
   <stop offset="1" style="stop-opacity:1; stop-color:#057A74"/>
  </linearGradient>
  <linearGradient id="id18" gradientUnits="userSpaceOnUse" x1="2423.17" y1="868.48" x2="1940.83" y2="905.88">
   <stop offset="0" style="stop-opacity:1; stop-color:#4D4D4D"/>
   <stop offset="1" style="stop-opacity:1; stop-color:#1A1A1A"/>
  </linearGradient>
  <linearGradient id="id19" gradientUnits="userSpaceOnUse" x1="1110.36" y1="2185.28" x2="1635.31" y2="2251.72">
   <stop offset="0" style="stop-opacity:1; stop-color:#2C357E"/>
   <stop offset="1" style="stop-opacity:1; stop-color:#222A44"/>
  </linearGradient>
  <linearGradient id="id20" gradientUnits="userSpaceOnUse" xlink:href="#id4" x1="2230.53" y1="2141.43" x2="1606.83" y2="1392.11">
  </linearGradient>
 </defs>
 <g id="Layer_x0020_1">
  <metadata id="CorelCorpID_0Corel-Layer"/>
  <g id="_3068685589616">
   <g>
    <path class="fil0" d="M1871.47 2531.46c-1391.01,372.72 -1997.45,-1637.09 -508.61,-2187.86 595.79,-220.4 940.56,428.74 1565.11,147.34 3687.02,-1661.21 1441.37,1371.21 -1056.5,2040.51z"/>
    <path class="fil1" d="M3742.46 209.91c-2876.18,559.15 -2770.79,1057.8 -2513.23,1667.53 1501.37,3554.21 5676.68,-2282.53 2513.23,-1667.53z"/>
    <path class="fil1" d="M2552.45 726.96c-1643.07,102.85 -2975.57,-753.84 -2427.14,426.09 2202.6,4738.88 4999.31,-587.1 2427.14,-426.09z"/>
   </g>
   <g>
    <path class="fil2" d="M3956.88 2370.47c0,62.65 -771.36,113.43 -1722.85,113.43 -951.5,0 -1722.85,-50.78 -1722.85,-113.43 0,-62.65 771.36,-113.44 1722.85,-113.44 951.5,0 1722.85,50.8 1722.85,113.44z"/>
    <path class="fil3" d="M1758.31 1307.52c123.45,87.14 227.58,201.19 326.42,314.62 49.09,56.35 196.55,289.64 241.49,349.46 85.1,113.27 45.28,111.47 -106.9,192.72 -19.25,10.28 -40.31,16.64 -62.02,18.85 -255.51,25.99 -373.49,-308.85 -450.27,-488.89 -33.33,-78.18 -69.37,-174.8 -97.73,-254.95 22.11,-142.85 149.01,-131.8 149.01,-131.8z"/>
    <path class="fil4" d="M1687.76 2167.79c131.13,-75.1 278.49,-121.33 423.06,-163.01 71.8,-20.71 345.53,-55.83 418.73,-71.32 138.62,-29.31 120.16,6.04 129.55,178.29 1.17,21.78 -1.94,43.57 -9.11,64.19 -84.35,242.56 -437.68,208.11 -633.3,201.67 -84.95,-2.81 -187.76,-10.93 -272.36,-19.07 -120.15,-80.36 -56.56,-190.74 -56.56,-190.74z"/>
    <path class="fil5" d="M1636.93 2222.44c0.17,-12.61 -3.44,-25.76 -6.11,-38.4 -0.77,-3.6 -5.95,-38.38 -5.56,-42.17 5.77,-55.04 37.26,-204.81 37.26,-204.81l-150.91 -23.76c0,0 2.73,134.02 -29.63,207.91l0.18 0.04c-72.2,27.47 -198.65,59.9 -198.65,59.9 0,0 -138.07,2.51 -145.6,4.57 -7.51,2.03 -25.77,4.3 -48.46,19.9 0,0 -20.77,32.59 143.94,83.46 0,0 70.53,26.61 190.02,25.1 25.62,1.44 51.25,2.89 76.87,4.33 26.32,1.46 104.72,10.22 115.99,4.17 4.35,-2.35 7.45,-4.93 9.67,-7.77 17.12,-21.82 10.55,-66.23 10.99,-92.47z"/>
    <path class="fil6" d="M1578.21 2050.72c1.85,8.64 3.3,17.33 4.47,26.09 4.11,-7.75 8.1,-15.6 11.98,-23.48l-16.44 -2.61z"/>
    <path class="fil7" d="M1630.82 2184.04c-0.46,-2.07 -2.37,-14.61 -3.84,-25.51 -6.22,2.29 -12.37,4.43 -18.34,6.42 -69.11,23.05 -138.34,9.69 -205.08,-14.85l-3.58 -1.53c-59.37,17.93 -116.47,32.57 -116.47,32.57 0,0 -138.07,2.53 -145.6,4.58 -7.51,2.03 -25.77,4.3 -48.46,19.9 0,0 -20.77,32.59 143.94,83.46 0,0 70.53,26.61 190.02,25.1 25.62,1.44 51.25,2.89 76.87,4.33 26.32,1.46 104.72,10.22 115.99,4.17 4.35,-2.35 7.45,-4.93 9.67,-7.77 17.12,-21.82 10.55,-66.23 10.99,-92.47 0.17,-12.61 -3.44,-25.76 -6.11,-38.4z"/>
    <path class="fil8" d="M1680.07 1306.43l-1.23 -0.04c-68.58,-2.07 -126.86,49.67 -133.4,117.98 -16.03,167.12 -38.68,414.62 -51.51,555.79l155.46 29.47c44.57,-139.37 80.7,-282.63 104.07,-427.29 10.18,-62.85 20.67,-166.39 23.08,-229.99 0.44,-11.76 -18.85,-31.96 -18.24,-44.82 -31.7,-4.53 -43.97,-0.04 -78.24,-1.09z"/>
    <polygon class="fil9" points="2050.52,927.91 2079.31,1015.02 2029.09,1031.63 "/>
    <path class="fil10" d="M2202.72 1011.39c1.6,28.42 8.6,195.72 8.6,195.72 18.59,18.12 102.24,18.88 135.06,-13.44 26.13,-25.72 27.47,-47.14 27.47,-47.14l-28.66 -242.93 -142.48 107.79z"/>
    <path class="fil11" d="M2318.93 719.83l15.71 86.19 23.93 131.49 6.74 36.98c-73.66,150.12 -212.44,175.9 -261.45,131.33 -48.99,-44.55 -90.12,-317.09 -90.12,-317.09l305.19 -68.9z"/>
    <path class="fil12" d="M2309.6 1103.34c0,0 -123.66,-217.03 -158.22,-233.25 -34.57,-16.22 -143.53,18.56 -209.3,-65.34 -64.92,-82.79 -33.09,-130.83 -10.34,-136.9 22.71,-6.07 72.32,76.25 144.94,19.49 73.9,-57.77 232.64,-69.79 261.71,-9.66 0,0 100.1,2.59 88.72,139.69 -11.38,137.1 -40.24,253.78 -72.61,266.37l-44.9 19.61z"/>
    <path class="fil13" d="M2226.34 863.34c36.3,24.9 40.81,104.43 -21.96,153.2l-36.9 -128.29c1.99,-20.38 34.98,-41.31 58.86,-24.92z"/>
    <path class="fil14" d="M2363.24 1152.32c-94.38,11.09 -242.78,38.77 -270.13,147.62 -14.59,57.98 -12.55,120 -2.12,178.52 8.16,45.91 15.67,91.94 21.11,138.3 9.15,78.34 20.14,166.55 -1.34,243.84l-88.46 162.08c0,0 429.52,189.51 642.51,-61.48 0,0 -13.52,-625.06 -113.34,-771.47 -12.14,-17.81 -42.61,-25.76 -61.68,-30.48 -42.16,-10.44 -84.59,-11.88 -126.55,-6.94z"/>
    <path class="fil15" d="M1587.34 1389.62c0,0 10.18,80.83 57.55,135 47.38,54.22 101.47,75.67 145.88,132.93 34.9,45 382.17,378.11 417.5,256.69 4.63,-15.91 -1.09,-32.85 -7.39,-48.18 -58.94,-143.58 -202.48,-204.34 -327.94,-279.87l-47.61 -31.84c0,0 -20.65,-81.81 -70.89,-126.9l-167.1 -37.83z"/>
    <path class="fil16" d="M1571.63 1188.45l-104.37 118.09c-7.3,8.27 -6.58,20.82 1.56,28.2l212.05 191.98c8.22,7.45 20.91,6.84 28.36,-1.38l102.4 -112.81c7.37,-8.1 6.87,-20.63 -1.13,-28.14l-210.05 -197.28c-8.26,-7.77 -21.3,-7.15 -28.81,1.34z"/>
    <polygon class="fil17" points="1488.07,1319.52 1668.9,1483.81 1765.83,1377.05 1586.96,1207.64 "/>
    <path class="fil18" d="M1695.03 1526.24c0,0 15.85,-9.6 9.33,-39.7 -6.52,-30.1 -20.35,-101.13 -20.35,-101.13 0,0 0.22,-25.37 10.26,-19.8 10.06,5.6 31.76,21.29 40.16,65.36 0,0 8.74,37.9 18.48,47.63 9.76,9.72 35.26,36.18 39.86,78.06 0,0 -71.49,24.11 -97.73,-30.42z"/>
    <path class="fil19" d="M2223.17 1912.47c14.59,-19.49 16.74,-47.12 17.71,-76.27 2.39,-70.95 5.87,-141.76 9.01,-212.61 1.4,-31.56 2.78,-63.15 3.85,-94.73 2.14,-64.51 6.52,-159.27 -77.91,-174.71 -19.23,-3.52 -44.13,10.67 -56.11,23.82 -8.99,9.86 -14.53,23.58 -17.95,39.04 -7.27,32.81 -5.12,73.46 -6.72,101.94 -3.24,58.48 -5.46,117.14 -5.85,175.92 -0.26,37.77 -0.04,75.59 2,113.48 1.66,31.19 0.62,70.58 14.94,99.73 15.28,31.13 52.95,35.81 80.93,27.83 16.8,-4.78 28.25,-12.92 36.09,-23.42z"/>
    <path class="fil20" d="M2290.13 1656.09c-11.62,-87.53 0.66,-402.07 -124.73,-414.9 -138.7,-14.21 -111.82,418.68 -111.82,418.68l236.55 -3.78z"/>
    <path class="fil21" d="M789.18 2380.59c12.47,-1.94 24.81,-7.75 36.8,-12.53 3.41,-1.36 36.82,-12.39 40.61,-12.65 55.24,-3.68 208.17,1.88 208.17,1.88l-2.26 -152.75c0,0 -131.6,25.49 -209.93,6.17l0 0.18c-39.37,-66.46 -124.85,-157.08 -124.85,-157.08 0,0 -28.97,-73.93 -32.27,-81.01 -3.3,-7.06 20.39,-24.31 1.17,-44.01 0,0 -3.74,-102.28 -25.83,68.68 0,0 -40.14,70.89 -18.34,188.37 2.95,25.49 5.89,50.98 8.84,76.48 3,26.17 7.71,104.93 15.59,114.98 3.06,3.91 6.13,6.52 9.31,8.22 24.42,13.15 67.04,-0.87 92.99,-4.92z"/>
    <path class="fil22" d="M825.28 2368.35c-7.17,-38.54 -5.93,-80.38 -2.53,-114.96 2.43,-24.75 8.91,-52.55 20.59,-76.88 -35.51,-66.43 -73.56,-151.19 -73.56,-151.19 0,0 -26.97,-97.12 -30.28,-104.2 -3.28,-7.07 -8.64,-24.66 -27.87,-44.37 0,0 -34.64,-53.42 -56.74,117.54 0,0 -14.23,74.06 7.57,191.53 2.95,25.49 5.89,50.98 8.81,76.48 3.03,26.17 7.73,104.93 15.61,114.98 3.06,3.91 6.13,6.52 9.31,8.22 24.42,13.15 67.04,-0.87 92.99,-4.92 12.21,-1.9 24.29,-7.51 36.09,-12.24z"/>
    <path class="fil23" d="M1001.01 2356.71c180.02,25.08 575.34,59.45 798.63,-16.83 35.1,-12 72.75,-47.67 76.68,-86.27 3.02,-29.84 -9.37,-73.6 -35.04,-91.64 -21.2,-14.9 -91.59,-19.88 -116.09,-18.78 -69.37,3.14 -512.3,38.46 -721.57,55.3l-2.61 158.22z"/>
    <g>
     <path class="fil24" d="M4287.92 868.28l-1726.46 0c-54.47,0 -98.63,44.16 -98.63,98.61l0 1273.88c0,54.52 44.16,98.68 98.63,98.68l1726.46 0c54.45,0 98.63,-44.16 98.63,-98.68l0 -1273.88c0,-54.45 -44.19,-98.61 -98.63,-98.61z"/>
     <g>
      <rect class="fil25" x="2718.61" y="1216.12" width="1412.16" height="197.97" rx="40.43" ry="34.39"/>
      <rect class="fil25" x="2718.61" y="1504.88" width="1412.16" height="197.97" rx="40.43" ry="34.39"/>
      <path class="fil26" d="M3112.82 1793.65l623.75 0c18.92,0 34.39,15.48 34.39,34.39l0 129.19c0,18.92 -15.48,34.39 -34.39,34.39l-623.75 0c-18.92,0 -34.39,-15.48 -34.39,-34.39l0 -129.19c0,-18.92 15.48,-34.39 34.39,-34.39z"/>
     </g>
    </g>
   </g>
  </g>
 </g>
</svg>
