<?xml version="1.0" encoding="UTF-8"?>
<!DOCTYPE svg PUBLIC "-//W3C//DTD SVG 1.1//EN" "http://www.w3.org/Graphics/SVG/1.1/DTD/svg11.dtd">
<!-- Creator: CorelDRAW 2019 (64-Bit) -->
<svg xmlns="http://www.w3.org/2000/svg" xml:space="preserve" width="68.4389mm" height="68.4389mm" version="1.1" style="shape-rendering:geometricPrecision; text-rendering:geometricPrecision; image-rendering:optimizeQuality; fill-rule:evenodd; clip-rule:evenodd"
viewBox="0 0 1667.97 1667.97"
 xmlns:xlink="http://www.w3.org/1999/xlink">
 <defs>
  <style type="text/css">
   <![CDATA[
    .fil0 {fill:none}
    .fil5 {fill:#00598C;fill-rule:nonzero}
    .fil3 {fill:#184983;fill-rule:nonzero}
    .fil1 {fill:#FDC897;fill-rule:nonzero}
    .fil7 {fill:white;fill-rule:nonzero}
    .fil4 {fill:#184983;fill-rule:nonzero;fill-opacity:0.301961}
    .fil6 {fill:#388395;fill-rule:nonzero;fill-opacity:0.301961}
    .fil2 {fill:#FDC897;fill-rule:nonzero;fill-opacity:0.501961}
   ]]>
  </style>
 </defs>
 <g id="Layer_x0020_1">
  <metadata id="CorelCorpID_0Corel-Layer"/>
  <g id="_2705100006352">
   <rect class="fil0" x="-0" y="-0" width="1667.97" height="1667.97"/>
   <g>
    <g>
     <path class="fil1" d="M1496.06 948.32c19.49,19.18 31.88,46.9 31.88,77.71 0,48.33 -30.31,89.11 -71.04,100.91 18.15,17.48 29.69,43.06 29.69,71.45l0 3.22c0,43.15 -26.47,79.76 -62.46,91.3 20.39,18.02 33.53,45.56 33.53,76.37l0 9.3c0,53.92 -40.15,98.01 -89.2,98.01l-493.64 0c0,0 -132.25,0.4 -157.07,-31.39 -16.05,-20.57 -45.96,-38.27 -65.05,-48.2 -10.42,-5.41 -17.62,-8.54 -17.62,-8.54l-151.57 0 0 -523.82c0,0 133.68,-8.63 215.06,-51.46 14.98,-7.87 28.17,-16.9 38.45,-27.23 66.13,-66.62 165.34,-251.32 179.15,-348.2 13.77,-96.89 -11.04,-163.5 0,-211.93 11,-48.47 176.34,-84.77 225.96,175.58 21.6,113.25 15.02,205.31 0.67,273.18 -3.22,15.11 -6.8,29.02 -10.51,41.71l323.3 0c21.37,0 41.36,6.79 58.21,18.55 30.76,21.33 51.33,59.06 51.33,101.81 0,50.48 -28.7,93.89 -69.08,111.69z"/>
    </g>
    <path class="fil2" d="M698.57 813.16l-45.87 583.82c-10.42,-5.41 -17.62,-8.54 -17.62,-8.54l-151.57 0 0 -523.82c0,0 133.68,-8.63 215.06,-51.46z"/>
    <g>
     <path class="fil3" d="M614.02 816.56l0 609.04c0,28.17 -22.8,50.97 -50.97,50.97l-409.23 0c-31.66,0 -55.66,-28.52 -50.21,-59.73l51.59 -295.76 54.64 -313.28c4.25,-24.41 25.44,-42.2 50.21,-42.2l303 0c28.17,0 50.97,22.8 50.97,50.97z"/>
    </g>
    <path class="fil4" d="M124.97 1294.39l-21.36 122.44c-5.45,31.21 18.55,59.73 50.21,59.73l409.23 0c28.17,0 50.97,-22.8 50.97,-50.97l0 -131.2 -489.05 0z"/>
    <path class="fil4" d="M339.05 1326.07c0,30.87 -25.02,55.89 -55.89,55.89 -30.87,0 -55.89,-25.02 -55.89,-55.89 0,-30.86 25.02,-55.89 55.89,-55.89 30.87,0 55.89,25.02 55.89,55.89z"/>
    <path class="fil5" d="M324.52 1320.48c0,30.87 -25.02,55.89 -55.89,55.89 -30.87,0 -55.89,-25.02 -55.89,-55.89 0,-30.86 25.02,-55.89 55.89,-55.89 30.86,0 55.89,25.02 55.89,55.89z"/>
    <path class="fil6" d="M288.9 1268.44c7.08,8.14 11.39,18.75 11.39,30.38 0,25.61 -20.76,46.38 -46.38,46.38 -17.91,0 -33.42,-10.17 -41.15,-25.03 0,0.1 -0.02,0.21 -0.02,0.31 0,30.87 25.02,55.89 55.89,55.89 30.86,0 55.89,-25.02 55.89,-55.89 0,-23.71 -14.79,-43.92 -35.62,-52.04z"/>
    <path class="fil2" d="M1565.14 836.63c0,-42.74 -20.56,-80.42 -51.33,-101.79l0 -0.01c-0.07,-0.05 -0.14,-0.09 -0.2,-0.13 -2.04,-1.41 -4.1,-2.76 -6.22,-4.02 -0.07,-0.04 -0.13,-0.07 -0.2,-0.11 -1.87,-1.11 -3.79,-2.14 -5.72,-3.13 -0.59,-0.3 -1.18,-0.59 -1.78,-0.89 -1.67,-0.81 -3.36,-1.58 -5.07,-2.31 -0.42,-0.18 -0.84,-0.38 -1.27,-0.55 -2.03,-0.83 -4.09,-1.57 -6.18,-2.26 -0.78,-0.26 -1.56,-0.49 -2.34,-0.74 -1.53,-0.48 -3.08,-0.9 -4.64,-1.3 -0.62,-0.16 -1.23,-0.33 -1.85,-0.47 -2.18,-0.51 -4.38,-0.95 -6.6,-1.32 -0.5,-0.08 -1.01,-0.14 -1.51,-0.21 -1.85,-0.28 -3.7,-0.5 -5.58,-0.67 -0.66,-0.06 -1.32,-0.12 -1.98,-0.17 -2.34,-0.17 -4.69,-0.28 -7.07,-0.28l-98.36 0 -224.94 0c1.05,-3.58 2.08,-7.27 3.09,-11.04 0.56,-2.04 1.09,-4.12 1.64,-6.22 0.53,-2.05 1.05,-4.13 1.57,-6.24 0.51,-2.06 1.02,-4.1 1.51,-6.22 0.92,-3.92 1.82,-7.91 2.7,-12.01l-0.02 0c14.34,-67.88 20.93,-159.91 -0.65,-273.18 -41.73,-218.92 -165.26,-228.08 -210.06,-196.64 44.28,23.27 89.53,80.34 111.7,196.64 26.38,138.47 10.68,245.24 -9.84,314.89l0 49.32 361.22 0c38.86,0 71.26,30.97 71.61,69.82 0,0.41 0.01,0.81 0.01,1.22 0,50.48 -28.7,93.89 -69.08,111.69 19.49,19.18 31.88,46.9 31.88,77.71 0,48.33 -30.31,89.11 -71.04,100.91 18.15,17.48 29.68,43.06 29.68,71.45l0 3.22c0,43.15 -26.47,79.76 -62.46,91.3 20.39,18.02 33.53,45.56 33.53,76.37l0 9.3c0,53.92 -40.15,98.01 -89.2,98.01l98.36 0c49.05,0 89.2,-44.08 89.2,-98.01l0 -9.3c0,-30.81 -13.14,-58.35 -33.53,-76.37 35.99,-11.54 62.46,-48.15 62.46,-91.3l0 -3.22c0,-28.39 -11.54,-53.97 -29.69,-71.45 40.73,-11.8 71.04,-52.58 71.04,-100.91 0,-30.81 -12.39,-58.53 -31.88,-77.71 40.37,-17.79 69.08,-61.21 69.08,-111.69z"/>
    <path class="fil7" d="M265 1280.53c5.16,5.6 2.96,16.02 -4.91,23.27 -7.87,7.25 -18.43,8.58 -23.59,2.99 -5.16,-5.6 -2.96,-16.02 4.91,-23.27 7.87,-7.25 18.43,-8.59 23.59,-2.99z"/>
   </g>
  </g>
 </g>
</svg>
