<svg width="100" height="100" viewBox="0 0 100 100" fill="none" xmlns="http://www.w3.org/2000/svg">
<g clip-path="url(#clip0)">
<path fill-rule="evenodd" clip-rule="evenodd" d="M38.6508 60.9095L45.9009 54.4021H37.8727V45.4544H41.657L34.582 39.0363L27.7932 45.3482H31.2592V56.0997C31.2828 59.4241 31.8377 60.9286 34.7259 60.964L38.6508 60.9095V60.9095Z" fill="#3C893F"/>
<path fill-rule="evenodd" clip-rule="evenodd" d="M60.5283 39.0906L53.2782 45.5981H61.3065V54.5457H57.5222L64.5973 60.964L71.3859 54.6519H67.9199V43.9006C67.8964 40.576 67.3415 39.0716 64.4532 39.0363L60.5283 39.0906Z" fill="#3C893F"/>
<path fill-rule="evenodd" clip-rule="evenodd" d="M60.4991 60.9388L53.9916 53.6887V61.7169H45.044V57.9327L38.6259 65.0078L44.9378 71.7964V68.3304H55.6893C59.0137 68.3068 60.5183 67.752 60.5536 64.8637L60.4991 60.9388V60.9388Z" fill="#3C893F"/>
<path fill-rule="evenodd" clip-rule="evenodd" d="M38.6801 39.0612L45.1876 46.3113V38.2831H54.1352V42.0674L60.5534 34.9923L54.2413 28.2036V31.6696H43.49C40.1655 31.6932 38.6609 32.248 38.6257 35.1363L38.6801 39.0612Z" fill="#3C893F"/>
<path fill-rule="evenodd" clip-rule="evenodd" d="M9.77359 30.0387C8.85509 31.4995 8.0849 31.5082 7.39359 37.7236C6.70239 43.939 10.6474 50.4908 10.6474 50.4908C10.6474 50.4908 10.2406 47.4847 12.1327 45.0091C14.0247 42.5335 17.7913 38.8553 19.5596 36.3797C21.3278 33.9041 21.7913 30.7368 21.7913 30.7368H21.7911C20.1615 31.4742 18.3523 31.8849 16.4471 31.8849C14.0064 31.8849 11.7234 31.2105 9.77347 30.0387H9.77359Z" fill="#1C4596"/>
<path fill-rule="evenodd" clip-rule="evenodd" d="M25.5841 19.1031C25.5841 24.167 21.4791 28.2722 16.415 28.2722C11.3511 28.2722 7.24597 24.1672 7.24597 19.1031C7.24597 14.0391 11.351 9.93396 16.415 9.93396C21.4789 9.93396 25.5841 14.039 25.5841 19.1031Z" fill="#1C4596"/>
<path fill-rule="evenodd" clip-rule="evenodd" d="M26.848 11.3856C26.848 11.3856 33.8862 6.30053 40.9595 5.31025C48.0327 4.32008 58.1828 6.01759 58.1828 6.01759C58.1828 6.01759 53.2879 6.35988 50.2464 8.14578C47.2049 9.93169 44.7791 12.6665 41.1717 15.9202C37.5644 19.174 35.0179 21.2959 32.4716 22.4984C30.8276 23.2747 29.4199 23.4614 28.6282 23.4961C29.1219 22.1242 29.3914 20.6452 29.3914 19.1031C29.3914 16.2128 28.446 13.5437 26.8483 11.3868L26.8481 11.3856H26.848Z" fill="#1C4596"/>
<path fill-rule="evenodd" clip-rule="evenodd" d="M30.0385 90.2527C31.4994 91.1712 31.5081 91.9413 37.7235 92.6327C43.9388 93.324 50.4907 89.379 50.4907 89.379C50.4907 89.379 47.4845 89.7857 45.0089 87.8937C42.5333 86.0015 38.8552 82.235 36.3796 80.4668C33.9039 78.6984 30.7366 78.235 30.7366 78.235V78.2351C31.4741 79.8648 31.8847 81.674 31.8847 83.5791C31.8847 86.0199 31.2103 88.3029 30.0385 90.2528V90.2527Z" fill="#3C893F"/>
<path fill-rule="evenodd" clip-rule="evenodd" d="M19.1031 74.442C24.1669 74.442 28.2722 78.5471 28.2722 83.6111C28.2722 88.6751 24.167 92.7803 19.1031 92.7803C14.0393 92.7803 9.93411 88.6752 9.93411 83.6111C9.93411 78.5472 14.0392 74.442 19.1031 74.442Z" fill="#3C893F"/>
<path fill-rule="evenodd" clip-rule="evenodd" d="M11.3855 73.1783C11.3855 73.1783 6.3004 66.1401 5.31023 59.0668C4.31995 51.9935 6.01758 41.8434 6.01758 41.8434C6.01758 41.8434 6.35975 46.7384 8.14565 49.7798C9.93167 52.8213 12.6665 55.2472 15.9202 58.8545C19.1739 62.4619 21.2958 65.0083 22.4983 67.5546C23.2746 69.1986 23.4613 70.6064 23.496 71.398C22.124 70.9045 20.6451 70.6348 19.103 70.6348C16.2128 70.6348 13.5435 71.5802 11.3867 73.1781L11.3855 73.1782V73.1783Z" fill="#3C893F"/>
<path fill-rule="evenodd" clip-rule="evenodd" d="M89.4057 69.9613C90.3242 68.5005 91.0944 68.4918 91.7857 62.2764C92.4769 56.061 88.5319 49.5092 88.5319 49.5092C88.5319 49.5092 88.9387 52.5153 87.0466 54.9909C85.1545 57.4665 81.388 61.1447 79.6197 63.6203C77.8513 66.0959 77.3879 69.2633 77.3879 69.2633H77.3881C79.0178 68.5258 80.827 68.1151 82.7321 68.1151C85.1728 68.1151 87.4559 68.7895 89.4058 69.9613H89.4057Z" fill="#1C4596"/>
<path fill-rule="evenodd" clip-rule="evenodd" d="M73.5948 80.897C73.5948 75.8331 77.6999 71.7279 82.764 71.7279C87.8279 71.7279 91.9331 75.8329 91.9331 80.897C91.9331 85.9609 87.8281 90.066 82.764 90.066C77.7 90.066 73.5948 85.961 73.5948 80.897Z" fill="#1C4596"/>
<path fill-rule="evenodd" clip-rule="evenodd" d="M72.3313 88.6144C72.3313 88.6144 65.2931 93.6995 58.2198 94.6898C51.1466 95.6799 40.9963 93.9824 40.9963 93.9824C40.9963 93.9824 45.8914 93.6403 48.9329 91.8542C51.9742 90.0683 54.4002 87.3335 58.0076 84.0798C61.6149 80.8261 64.1614 78.7041 66.7077 77.5016C68.3517 76.7253 69.7594 76.5386 70.5511 76.5039C70.0574 77.876 69.7879 79.3548 69.7879 80.8969C69.7879 83.7872 70.7333 86.4565 72.3311 88.6132L72.3312 88.6144H72.3313Z" fill="#1C4596"/>
<path fill-rule="evenodd" clip-rule="evenodd" d="M69.1408 9.74719C67.6799 8.82868 67.6712 8.0585 61.4558 7.36718C55.2403 6.67587 48.6886 10.6209 48.6886 10.6209C48.6886 10.6209 51.6948 10.2141 54.1703 12.1063C56.6459 13.9983 60.3241 17.7649 62.7996 19.5331C65.2752 21.3014 68.4426 21.7649 68.4426 21.7649V21.7647C67.7052 20.1351 67.2945 18.3259 67.2945 16.4207C67.2945 13.98 67.9688 11.697 69.1408 9.74707V9.74719Z" fill="#3C893F"/>
<path fill-rule="evenodd" clip-rule="evenodd" d="M80.0762 25.558C75.0123 25.558 70.9072 21.4529 70.9072 16.389C70.9072 11.325 75.0122 7.21985 80.0762 7.21985C85.1401 7.21985 89.2453 11.3249 89.2453 16.389C89.2453 21.4528 85.1403 25.558 80.0762 25.558Z" fill="#3C893F"/>
<path fill-rule="evenodd" clip-rule="evenodd" d="M87.7938 26.8217C87.7938 26.8217 92.8788 33.8598 93.8691 40.933C94.8593 48.0064 93.1617 58.1565 93.1617 58.1565C93.1617 58.1565 92.8195 53.2615 91.0335 50.22C89.2476 47.1786 86.5128 44.7527 83.2591 41.1453C80.0054 37.538 77.8835 34.9916 76.681 32.4452C75.9046 30.8013 75.718 29.3935 75.6832 28.6019C77.0553 29.0954 78.5342 29.3651 80.0762 29.3651C82.9665 29.3651 85.6357 28.4196 87.7926 26.8218H87.7938V26.8217Z" fill="#3C893F"/>
</g>
<defs>
<clipPath id="clip0">
<rect width="89.1793" height="90" fill="white" transform="translate(5 5)"/>
</clipPath>
</defs>
</svg>
