<svg width="100" height="100" viewBox="0 0 100 100" fill="none" xmlns="http://www.w3.org/2000/svg">
<path d="M16.25 64.0046L16.3923 63.8621C18.9653 61.2892 22.455 59.8438 26.0937 59.8438C29.7324 59.8438 33.2221 61.2892 35.7951 63.8621L35.9375 64.0046H50C51.1188 64.0046 52.1919 64.4491 52.9831 65.2403C53.7742 66.0314 54.2187 67.1045 54.2187 68.2234C54.2188 68.5731 54.1754 68.9215 54.0897 69.2605L68.2483 64.5402C68.8946 64.3249 69.5827 64.2662 70.2561 64.3689C70.9295 64.4717 71.5688 64.7331 72.1213 65.1314C72.6739 65.5297 73.1239 66.0537 73.4342 66.6601C73.7445 67.2665 73.9063 67.9379 73.9062 68.6191V68.7115C73.9093 69.4383 73.7283 70.1541 73.3802 70.7921C73.0322 71.4302 72.5283 71.9697 71.9155 72.3606L47.5056 87.894C46.0747 88.8046 44.471 89.4096 42.7952 89.6709C41.1193 89.9323 39.4076 89.8443 37.7673 89.4126L16.25 83.75H9.21872V64.0046H16.25Z" fill="#09A59D"/>
<path d="M50 72.4421C50.9382 72.4418 51.8496 72.129 52.5903 71.5532C53.331 70.9774 53.8588 70.1713 54.0905 69.2622L68.2479 64.5407C68.8362 64.3424 69.4607 64.2752 70.0778 64.3438L51.4063 74.8309H35.9375V72.4421H50Z" fill="#068079"/>
<path d="M57.3523 45.9427L60.6394 46.5019C61.1494 46.5886 61.6723 46.562 62.1709 46.424C62.6695 46.286 63.1316 46.0399 63.5244 45.7033C63.9173 45.3667 64.2312 44.9477 64.4439 44.4761C64.6567 44.0045 64.7631 43.4919 64.7555 42.9746C64.7434 42.1511 64.4433 41.3578 63.9074 40.7325C63.3714 40.1071 62.6335 39.6891 61.8215 39.551L57.2466 38.7729L57.3523 45.9427Z" fill="#069B93"/>
<path d="M50.1825 46.0479L55.625 46.9734C56.2257 47.0756 56.8431 46.9992 57.4007 46.7538C57.9584 46.5085 58.4317 46.1048 58.7622 45.593C59.0162 45.1996 59.1782 44.7539 59.2361 44.2892C59.294 43.8245 59.2463 43.3527 59.0966 42.9089C58.9468 42.4652 58.6989 42.061 58.3713 41.7263C58.0436 41.3917 57.6447 41.1353 57.2042 40.9763L48.4071 37.7996L50.1825 46.0479Z" fill="#069B93"/>
<path d="M56.1682 40.7954L54.9843 35.2964L41.2368 38.2562L39.8305 31.7261C39.6238 30.7657 39.6435 29.7704 39.888 28.8189C40.1326 27.8675 40.5953 26.986 41.2396 26.2444L46.4466 20.2503C47.0539 19.551 47.8074 18.9935 48.6537 18.6173C49.5001 18.2411 50.4187 18.0552 51.3447 18.0728L72.9417 18.484L90.7812 9.5907V30.6844L79.539 35.7636L77.2171 38.6113C75.037 41.2854 72.0118 43.1379 68.639 43.8642C65.7825 44.4793 62.8018 44.1038 60.1871 42.7996L56.1682 40.7954Z" fill="#09A59D"/>
<path d="M42.4764 42.3804L43.2163 45.8173C43.3135 46.2686 43.4986 46.6964 43.7611 47.0763C44.0236 47.4561 44.3583 47.7805 44.7462 48.0309C45.134 48.2813 45.5674 48.4529 46.0216 48.5359C46.4758 48.6188 46.9419 48.6115 47.3932 48.5143C47.8446 48.4171 48.2723 48.232 48.6521 47.9695C49.0319 47.707 49.3563 47.3722 49.6067 46.9844C49.8571 46.5965 50.0287 46.1631 50.1116 45.709C50.1946 45.2548 50.1872 44.7887 50.09 44.3374L49.3502 40.9005L42.4764 42.3804Z" fill="#E8C8B3"/>
<path d="M47.2212 34.0588C47.431 34.0586 47.6381 34.0115 47.8274 33.921C48.0167 33.8305 48.1834 33.6989 48.3153 33.5357C48.4472 33.3725 48.541 33.1819 48.5898 32.9779C48.6386 32.7738 48.6412 32.5614 48.5974 32.3562L48.0053 29.6066C47.9268 29.242 47.7067 28.9235 47.3934 28.7212C47.08 28.5189 46.6992 28.4493 46.3345 28.5279C45.9699 28.6064 45.6514 28.8265 45.4491 29.1398C45.2468 29.4532 45.1773 29.834 45.2558 30.1987L45.8478 32.948C45.9153 33.2623 46.0885 33.5439 46.3383 33.746C46.5882 33.9481 46.8998 34.0585 47.2212 34.0588V34.0588Z" fill="#068079"/>
<path d="M50.6855 34.8445C50.9677 34.8446 51.2435 34.7597 51.4768 34.6009C51.7102 34.4422 51.8904 34.2169 51.994 33.9543L54.5163 27.5641C54.6532 27.2172 54.6467 26.8301 54.4983 26.488C54.3498 26.1458 54.0715 25.8767 53.7246 25.7397C53.3776 25.6028 52.9905 25.6092 52.6484 25.7577C52.3062 25.9062 52.0371 26.1845 51.9001 26.5314L49.3778 32.9216C49.2936 33.1348 49.2628 33.3654 49.2881 33.5933C49.3134 33.8212 49.394 34.0394 49.5229 34.229C49.6518 34.4186 49.8252 34.5738 50.0278 34.6811C50.2304 34.7883 50.4562 34.8444 50.6855 34.8445V34.8445Z" fill="#068079"/>
<path d="M29.6445 48.5586L39.8047 58.7187L49.9648 48.5586C50.4219 48.1015 50.7844 47.5589 51.0317 46.9617C51.279 46.3645 51.4063 45.7245 51.4062 45.0781C51.4062 43.7728 50.8877 42.5209 49.9647 41.5978C49.0416 40.6748 47.7897 40.1563 46.4844 40.1563C45.838 40.1562 45.198 40.2835 44.6008 40.5308C44.0036 40.7781 43.461 41.1406 43.0039 41.5977L39.8047 44.7969L36.6055 41.5977C36.1484 41.1406 35.6058 40.7781 35.0086 40.5308C34.4114 40.2835 33.7714 40.1562 33.125 40.1563C31.8196 40.1563 30.5677 40.6748 29.6447 41.5978C28.7217 42.5209 28.2031 43.7728 28.2031 45.0781C28.2031 45.7245 28.3303 46.3645 28.5777 46.9617C28.825 47.5589 29.1875 48.1015 29.6445 48.5586Z" fill="#333333"/>
<path d="M68.3502 43.9266C65.6805 44.5014 62.8946 44.1504 60.4508 42.9315L56.1682 40.7954L44.7479 42.1888C43.6555 42.3221 42.5527 42.0421 41.6562 41.4038C40.7596 40.7656 40.1341 39.8152 39.9025 38.7393C39.7806 38.1732 39.7713 37.5885 39.8753 37.0188C39.9793 36.4491 40.1946 35.9055 40.5087 35.4189C40.8228 34.9324 41.2297 34.5125 41.7061 34.1832C42.1825 33.8539 42.7191 33.6217 43.2852 33.4998L54.0958 31.1723L65.0944 28.8043L68.3502 43.9266Z" fill="#09A59D"/>
<path d="M35.9375 73.6365C35.9375 73.9535 36.0635 74.2575 36.2876 74.4817C36.5118 74.7059 36.8158 74.8318 37.1328 74.8318H45.6194C49.4133 74.8314 53.1434 73.8552 56.4512 71.997L70.0778 64.3438C69.4607 64.2752 68.8362 64.3424 68.2479 64.5407L54.0905 69.2622C53.8588 70.1713 53.331 70.9774 52.5903 71.5532C51.8496 72.129 50.9382 72.4418 50 72.4421H37.1328C36.816 72.4421 36.5121 72.5679 36.2879 72.7918C36.0638 73.0158 35.9378 73.3196 35.9375 73.6365Z" fill="#068079"/>
</svg>
