<svg width="100" height="100" viewBox="0 0 100 100" fill="none" xmlns="http://www.w3.org/2000/svg">
<g clip-path="url(#clip0)">
<path d="M69.6527 37.5436L69.9995 37.699C71.5842 38.4093 72.8522 39.6774 73.5626 41.2621L73.7181 41.6089C74.1383 42.5465 75.4693 42.5465 75.8896 41.6089L76.045 41.2621C76.7551 39.6772 78.0234 38.4092 79.608 37.6988L79.9548 37.5434C80.8925 37.1231 80.8925 35.7921 79.9548 35.3718L79.608 35.2164C78.0234 34.5063 76.7551 33.238 76.045 31.6532L75.8896 31.3064C75.4694 30.3687 74.1383 30.3687 73.7181 31.3064L73.5626 31.6532C72.8524 33.2378 71.5842 34.5061 69.9995 35.2163L69.6527 35.3717C68.7151 35.7923 68.7151 37.1233 69.6527 37.5436Z" fill="#20D7CD"/>
<path d="M36.9487 22.5654L37.2956 22.7208C38.8802 23.4311 40.1483 24.6992 40.8586 26.2841L41.0142 26.6309C41.4343 27.5685 42.7653 27.5685 43.1856 26.6309L43.341 26.2841C44.0512 24.6992 45.3194 23.4311 46.9041 22.7208L47.2509 22.5654C48.1885 22.1451 48.1885 20.8141 47.2509 20.3938L46.9041 20.2384C45.3194 19.5283 44.0512 18.26 43.341 16.6752L43.1856 16.3283C42.7655 15.3907 41.4345 15.3907 41.0142 16.3283L40.8586 16.6752C40.1485 18.2598 38.8802 19.5281 37.2956 20.2382L36.9487 20.3936C36.0113 20.8141 36.0113 22.1453 36.9487 22.5654Z" fill="#20D7CD"/>
<path d="M12.1432 45.9023L12.49 46.0576C14.0747 46.768 15.3428 48.0361 16.0531 49.6207L16.2087 49.9676C16.6288 50.9052 17.96 50.9052 18.3801 49.9676L18.5355 49.6207C19.2457 48.0361 20.5139 46.7678 22.0986 46.0575L22.4454 45.9021C23.383 45.4818 23.383 44.1508 22.4454 43.7305L22.0986 43.5751C20.5139 42.8649 19.2457 41.5967 18.5355 40.0118L18.3801 39.665C17.96 38.7274 16.6288 38.7274 16.2087 39.665L16.0531 40.0118C15.343 41.5965 14.0747 42.8648 12.49 43.5749L12.1432 43.7303C11.2056 44.1509 11.2056 45.482 12.1432 45.9023V45.9023Z" fill="#20D7CD"/>
<path d="M64.298 49.3904L61.6525 40.8259C60.9323 38.4947 58.7772 36.9048 56.3374 36.9048H43.6627C41.2228 36.9048 39.0676 38.4947 38.3476 40.8259L35.7021 49.3904L50 50.9724L64.298 49.3904Z" fill="#09A59D"/>
<path d="M35.7021 49.3903L35.0421 51.5272C34.8578 52.1237 35.3036 52.728 35.928 52.728H64.0723C64.6965 52.728 65.1425 52.1237 64.9583 51.5272L64.2982 49.3903H35.7021Z" fill="#068079"/>
<path d="M49.2979 65.2136L46.6524 56.6492C45.9324 54.318 43.7771 52.728 41.3373 52.728H28.6626C26.2227 52.728 24.0675 54.318 23.3475 56.6492L20.702 65.2136L35 66.7956L49.2979 65.2136Z" fill="#09A59D"/>
<path d="M20.702 65.2136L20.0419 67.3506C19.8577 67.947 20.3035 68.5514 20.9277 68.5514H49.072C49.6962 68.5514 50.1422 67.947 49.958 67.3506L49.2979 65.2136H20.702Z" fill="#068079"/>
<path d="M79.2979 65.2136L76.6524 56.6492C75.9324 54.318 73.7772 52.728 71.3373 52.728H58.6626C56.2228 52.728 54.0675 54.318 53.3475 56.6492L50.702 65.2136L65.0001 66.7956L79.2979 65.2136Z" fill="#09A59D"/>
<path d="M50.7021 65.2136L50.042 67.3506C49.8578 67.947 50.3036 68.5514 50.9278 68.5514H79.0721C79.6963 68.5514 80.1423 67.947 79.958 67.3506L79.298 65.2136H50.7021Z" fill="#068079"/>
<path d="M34.2979 81.0368L31.6524 72.4724C30.9324 70.1412 28.7772 68.5513 26.3373 68.5513H13.6626C11.2228 68.5513 9.06753 70.1412 8.34753 72.4724L5.70203 81.0368L19.9999 82.6189L34.2979 81.0368Z" fill="#09A59D"/>
<path d="M5.70206 81.037L5.042 83.174C4.85778 83.7704 5.30356 84.3747 5.92793 84.3747H34.0723C34.6965 84.3747 35.1424 83.7704 34.958 83.174L34.298 81.037H5.70206Z" fill="#068079"/>
<path d="M64.298 81.0368L61.6525 72.4724C60.9323 70.1412 58.7772 68.5513 56.3374 68.5513H43.6627C41.2228 68.5513 39.0676 70.1412 38.3476 72.4724L35.7021 81.0368L50 82.6189L64.298 81.0368Z" fill="#09A59D"/>
<path d="M35.7019 81.037L35.0419 83.174C34.8577 83.7704 35.3034 84.3747 35.9278 84.3747H64.0722C64.6964 84.3747 65.1423 83.7704 64.9581 83.174L64.298 81.037H35.7019Z" fill="#068079"/>
<path d="M94.2979 81.0368L91.6524 72.4724C90.9324 70.1412 88.7771 68.5513 86.3373 68.5513H73.6626C71.2227 68.5513 69.0675 70.1412 68.3475 72.4724L65.702 81.0368L79.9998 82.6189L94.2979 81.0368Z" fill="#09A59D"/>
<path d="M65.702 81.037L65.0419 83.174C64.8577 83.7704 65.3035 84.3747 65.9279 84.3747H94.0724C94.6966 84.3747 95.1423 83.7704 94.9581 83.174L94.2981 81.037H65.702Z" fill="#068079"/>
</g>
<defs>
<clipPath id="clip0">
<rect width="90" height="90" fill="white" transform="translate(5 5)"/>
</clipPath>
</defs>
</svg>
