<svg width="100" height="100" viewBox="0 0 100 100" fill="none" xmlns="http://www.w3.org/2000/svg">
<path d="M69.6766 60.0656C69.6633 60.0789 69.7197 60.0656 69.5078 60.0656C67.2752 60.0656 65.7319 62.136 66.5101 64.0653C66.1353 64.4602 67.7524 62.8438 40.4057 90.0473C39.6269 90.8208 38.3743 90.8223 37.594 90.0473C10.2558 62.8507 11.8683 64.4642 11.4898 64.0653C12.2988 62.0594 10.6076 59.9583 8.32593 60.0697C8.3246 60.0682 8.3246 60.0669 8.32327 60.0657C6.06019 56.5296 4.9242 52.6934 5.00392 48.7561C5.31287 33.3028 24.1703 21.9085 39 34.8795C53.8213 21.9157 72.687 33.2947 72.9961 48.7561C73.0758 52.6934 71.9397 56.5296 69.6766 60.0656V60.0656Z" fill="#09A59D"/>
<path d="M69.6767 60.0656C68.7957 61.4436 67.7433 62.7764 66.5234 64.052H51.7566C51.0231 64.052 50.3494 63.6494 50.0012 63.0036L44.4296 52.6549L36.5498 69.2901C35.8826 70.6985 33.9104 70.8362 33.067 69.5067L27.3571 60.5347L25.8263 63.0845C25.4662 63.6853 24.8178 64.0519 24.1175 64.0519H11.4766C10.2568 62.7762 9.20436 61.4434 8.32336 60.0655H22.9894L25.5978 55.7176C26.352 54.4576 28.1862 54.4126 28.9876 55.6738L34.4915 64.3216L42.5134 47.386C43.2157 45.9093 45.2954 45.8591 46.0706 47.2943L52.9472 60.0655H69.6767V60.0656Z" fill="white"/>
<path d="M59.7832 46.7288C57.1442 42.5014 55.7459 37.6174 55.7483 32.6339V18.1452L74.4233 7.90985L93.6327 18.1452V32.3678C93.6325 42.3848 88.0176 51.5564 79.0964 56.1118C78.5051 56.4147 77.9 56.6974 77.2812 56.9599L74.3584 58.2212L71.7644 57.0918C66.8161 54.9264 62.6391 51.3137 59.7832 46.7288Z" fill="#068079"/>
<path d="M85.1405 27.6123C84.3865 26.6854 83.0238 26.5453 82.0969 27.2992L82.0967 27.2994L71.9717 35.5375L68.2923 31.2289C67.5163 30.3203 66.1507 30.2128 65.2421 30.9888C64.3334 31.7648 64.2259 33.1304 65.0019 34.0391L70.0553 39.9537C70.078 39.9804 70.1029 40.0033 70.1265 40.0284C70.1538 40.0576 70.1806 40.0877 70.2092 40.1149C70.2377 40.1422 70.271 40.1692 70.3024 40.1958C70.3338 40.2225 70.3621 40.2484 70.3935 40.2722C70.4248 40.296 70.461 40.3192 70.4952 40.3421C70.5293 40.365 70.5579 40.3854 70.5906 40.4057C70.6271 40.4273 70.6652 40.4459 70.7029 40.4656C70.7347 40.4821 70.7658 40.5002 70.7987 40.5152C70.8394 40.5338 70.8816 40.5489 70.9231 40.5649C70.9542 40.5768 70.9845 40.5905 71.0159 40.6008C71.0616 40.616 71.1083 40.6272 71.1546 40.6394C71.1831 40.6469 71.2115 40.6562 71.2411 40.6625C71.2937 40.674 71.3469 40.6811 71.3999 40.6885C71.4237 40.6919 71.4469 40.6971 71.4704 40.6997C71.5475 40.7079 71.6251 40.7123 71.7026 40.7123C71.7636 40.7123 71.8248 40.7097 71.8856 40.7045C71.9044 40.703 71.923 40.6995 71.9417 40.6973C71.9838 40.6928 72.026 40.6882 72.068 40.6811C72.092 40.677 72.1158 40.6707 72.1396 40.666C72.176 40.6584 72.2123 40.6515 72.2478 40.6422C72.2742 40.6352 72.3001 40.6264 72.3263 40.6184C72.3594 40.6084 72.3925 40.5991 72.425 40.5876C72.4524 40.5777 72.4793 40.566 72.5065 40.5552C72.5373 40.5429 72.5682 40.5312 72.5983 40.5173C72.6283 40.5035 72.6532 40.4899 72.6807 40.476C72.7082 40.4622 72.7385 40.4472 72.7672 40.4312C72.796 40.4152 72.8205 40.3986 72.8471 40.3819C72.8737 40.3652 72.9029 40.3475 72.9299 40.3287C72.957 40.3099 72.9797 40.2919 73.0043 40.2733C73.026 40.2577 73.0465 40.2434 73.0666 40.227L84.8294 30.6558C85.7558 29.9012 85.8949 28.5387 85.1405 27.6123Z" fill="#20D7CD"/>
</svg>
