<svg width="100" height="100" viewBox="0 0 100 100" fill="none" xmlns="http://www.w3.org/2000/svg">
<path d="M50.4945 26.486C65.6594 26.6348 75.1595 25.6913 76.4426 42.4999H94.9352C94.9352 16.4607 72.2256 12.9509 50.0131 12.9509C27.7989 12.9509 5.091 16.4607 5.091 42.4999H23.4401C24.8597 25.3709 35.4557 26.339 50.4945 26.486Z" fill="#09A59D"/>
<path d="M14.2621 50.8709C18.7662 50.8709 22.5141 51.1405 23.3473 46.7099C23.4593 46.1077 23.5241 45.425 23.5241 44.6355H23.3105H5C5 51.2262 9.14701 50.8709 14.2621 50.8709Z" fill="#068079"/>
<path d="M76.5617 44.6355H76.3884C76.3884 45.4302 76.4566 46.1147 76.5844 46.7099C77.4632 50.7956 81.2058 50.5418 85.6942 50.5418C90.8337 50.5418 95 50.8796 95 44.6355H76.5617Z" fill="#068079"/>
<rect x="34" y="46" width="30" height="27" fill="#333333"/>
<path d="M67.5271 40.1472V37.5284C67.5271 36.3573 66.1775 36.2838 64.511 36.2838H61.7889C60.1242 36.2838 58.7745 36.3573 58.7745 37.5284V39.7848V41.5353H39.5187V39.7848V37.5284C39.5187 36.3573 38.169 36.2838 36.5042 36.2838H33.7804C32.1157 36.2838 30.766 36.3573 30.766 37.5284V40.1472V42.4334C26.3792 46.9917 12.0248 66.3964 11.5032 68.7456L11.5102 84.4216C11.5102 85.8693 12.6883 87.0474 14.136 87.0474H84.1572C85.6049 87.0474 86.783 85.8693 86.783 84.4216V68.6668C86.2666 66.3859 71.9157 46.99 67.5271 42.4316V40.1472ZM38.5699 70.855C37.1607 70.855 36.0176 69.7136 36.0176 68.3027C36.0176 66.8918 37.1607 65.7504 38.5699 65.7504C39.979 65.7504 41.1221 66.8918 41.1221 68.3027C41.1221 69.7136 39.979 70.855 38.5699 70.855ZM38.5699 62.1023C37.1607 62.1023 36.0176 60.961 36.0176 59.55C36.0176 58.1391 37.1607 56.9978 38.5699 56.9978C39.979 56.9978 41.1221 58.1391 41.1221 59.55C41.1221 60.961 39.979 62.1023 38.5699 62.1023ZM38.5699 53.3514C37.1607 53.3514 36.0176 52.2101 36.0176 50.7991C36.0176 49.39 37.1607 48.2469 38.5699 48.2469C39.979 48.2469 41.1221 49.39 41.1221 50.7991C41.1221 52.2101 39.979 53.3514 38.5699 53.3514ZM49.0731 70.855C47.6639 70.855 46.5208 69.7136 46.5208 68.3027C46.5208 66.8918 47.6639 65.7504 49.0731 65.7504C50.484 65.7504 51.6253 66.8918 51.6253 68.3027C51.6253 69.7136 50.484 70.855 49.0731 70.855ZM49.0731 62.1023C47.6639 62.1023 46.5208 60.961 46.5208 59.55C46.5208 58.1391 47.6639 56.9978 49.0731 56.9978C50.484 56.9978 51.6253 58.1391 51.6253 59.55C51.6253 60.961 50.484 62.1023 49.0731 62.1023ZM49.0731 53.3514C47.6639 53.3514 46.5208 52.2101 46.5208 50.7991C46.5208 49.39 47.6639 48.2469 49.0731 48.2469C50.484 48.2469 51.6253 49.39 51.6253 50.7991C51.6253 52.2101 50.484 53.3514 49.0731 53.3514ZM59.5762 70.855C58.1653 70.855 57.024 69.7136 57.024 68.3027C57.024 66.8918 58.1653 65.7504 59.5762 65.7504C60.9872 65.7504 62.1285 66.8918 62.1285 68.3027C62.1285 69.7136 60.9872 70.855 59.5762 70.855ZM59.5762 62.1023C58.1653 62.1023 57.024 60.961 57.024 59.55C57.024 58.1391 58.1653 56.9978 59.5762 56.9978C60.9872 56.9978 62.1285 58.1391 62.1285 59.55C62.1285 60.961 60.9872 62.1023 59.5762 62.1023ZM59.5762 53.3514C58.1653 53.3514 57.024 52.2101 57.024 50.7991C57.024 49.39 58.1653 48.2469 59.5762 48.2469C60.9872 48.2469 62.1285 49.39 62.1285 50.7991C62.1285 52.2101 60.9872 53.3514 59.5762 53.3514Z" fill="#09A59D"/>
</svg>
