<svg width="100" height="100" viewBox="0 0 100 100" fill="none" xmlns="http://www.w3.org/2000/svg">
<g clip-path="url(#clip0)">
<path d="M84.4492 65.1014C82.0301 71.6575 78.3717 77.3581 73.5741 82.0431C68.1132 87.3755 60.9624 91.6128 52.3203 94.6355C52.0367 94.7343 51.7408 94.8154 51.4435 94.8751C51.0507 94.9527 50.6511 94.9946 50.2549 95.0001H50.1773C49.755 95.0001 49.3307 94.9575 48.9097 94.8751C48.6124 94.8154 48.3206 94.7343 48.0384 94.6375C39.386 91.6197 32.2263 87.3845 26.7599 82.052C21.9602 77.367 18.3025 71.6699 15.8869 65.1138C11.4944 53.1936 11.7443 40.0622 11.9455 29.5098L11.9489 29.3478C11.9895 28.4764 12.0156 27.5611 12.03 26.5504C12.1034 21.588 16.0489 17.4825 21.012 17.2058C31.3597 16.6284 39.3647 13.2535 46.2044 6.58685L46.2641 6.53192C47.3998 5.49028 48.8308 4.97941 50.2549 5.0007C51.6282 5.01855 52.996 5.52873 54.0912 6.53192L54.1495 6.58685C60.9906 13.2535 68.9955 16.6284 79.3433 17.2058C84.3063 17.4825 88.2518 21.588 88.3253 26.5504C88.3397 27.568 88.3658 28.4819 88.4063 29.3478L88.4084 29.4165C88.6089 39.9887 88.8574 53.1463 84.4492 65.1014Z" fill="#09A59D"/>
<path d="M72.6057 50.0001C72.6057 62.3412 62.5854 72.3868 50.2546 72.4307H50.1757C37.8085 72.4307 27.745 62.3679 27.745 50.0001C27.745 37.6329 37.8085 27.5701 50.1757 27.5701H50.2546C62.5854 27.614 72.6057 37.6597 72.6057 50.0001Z" fill="#068079"/>
<path d="M60.3566 46.77L50.2546 56.8733L48.0718 59.0562C47.5561 59.5719 46.8798 59.8293 46.2041 59.8293C45.5278 59.8293 44.8521 59.5719 44.3357 59.0562L39.6425 54.3609C38.6112 53.3296 38.6112 51.6589 39.6425 50.6269C40.6725 49.5956 42.3452 49.5956 43.3765 50.6269L46.2041 53.4545L56.6226 43.036C57.6539 42.004 59.3266 42.004 60.3566 43.036C61.3879 44.0674 61.3879 45.7401 60.3566 46.77Z" fill="#333333"/>
</g>
<defs>
<clipPath id="clip0">
<rect width="90" height="90" fill="white" transform="translate(5 5)"/>
</clipPath>
</defs>
</svg>
