<svg width="100" height="100" viewBox="0 0 100 100" fill="none" xmlns="http://www.w3.org/2000/svg">
<rect x="27" y="16" width="46" height="74" fill="#068079"/>
<rect x="36" y="8" width="32" height="7" fill="#333333"/>
<path d="M68.9303 5H31.0612C27.4397 5 24.514 7.93704 24.514 11.5586V88.4499C24.514 92.0601 27.4397 95 31.0612 95H68.9303C72.5462 95 75.4832 92.063 75.4832 88.4499V11.5586C75.4804 7.93704 72.5462 5 68.9303 5ZM70.572 77.9203H29.4251V16.0636H70.572V77.9203ZM58.7756 11.6552H41.2187V9.74073H58.7785L58.7756 11.6552ZM66.2886 10.7803C66.2886 11.7063 65.5331 12.4562 64.6099 12.4562C63.6839 12.4562 62.9312 11.7035 62.9312 10.7803C62.9312 9.85719 63.6839 9.10447 64.6099 9.10447C65.5359 9.10163 66.2886 9.85435 66.2886 10.7803ZM57.9888 88.0125H41.9999V83.0928H57.9888V88.0125Z" fill="#09A59D"/>
</svg>
