<svg width="100" height="100" viewBox="0 0 100 100" fill="none" xmlns="http://www.w3.org/2000/svg">
<g clip-path="url(#clip0)">
<path d="M74.4467 5H69.0141V95H74.4467C77.4473 95 79.8793 92.568 79.8793 89.5674V10.4326C79.8793 7.43199 77.4473 5 74.4467 5Z" fill="#09A59D"/>
<path d="M69.0141 5H25.5533C22.5527 5 20.1207 7.43199 20.1207 10.4326V89.5674C20.1207 92.568 22.5527 95 25.5533 95H69.0141C72.0147 95 74.4467 92.568 74.4467 89.5674V78.7022L58.1489 44.5674L74.4467 10.4326C74.4467 7.43199 72.0147 5 69.0141 5Z" fill="#09A59D"/>
<path d="M55.4326 84.1348H50V89.5674H55.4326C56.9327 89.5674 58.1489 88.3513 58.1489 86.8511C58.1489 85.351 56.9327 84.1348 55.4326 84.1348Z" fill="#068079"/>
<path d="M52.7163 86.8511C52.7163 85.351 51.5002 84.1348 50 84.1348H44.5674C43.0673 84.1348 41.8511 85.351 41.8511 86.8511C41.8511 88.3513 43.0673 89.5674 44.5674 89.5674H50C51.5002 89.5674 52.7163 88.3513 52.7163 86.8511Z" fill="#068079"/>
<path d="M50 44.5674L69.0141 78.7022H74.4467V10.4326H69.0141L50 44.5674Z" fill="#068079"/>
<path d="M57.6828 10.4326L53.8414 14.2739C52.8541 15.2565 51.4969 15.8652 50 15.8652C48.5032 15.8652 47.1459 15.2565 46.1623 14.2739C46.1586 14.2739 42.3172 10.4326 42.3172 10.4326H25.5533V78.7022H69.0141V10.4326H57.6828Z" fill="#068079"/>
<path d="M50 11.5191C50.6 11.5191 51.0865 11.0327 51.0865 10.4326C51.0865 9.83252 50.6 9.34607 50 9.34607C49.3999 9.34607 48.9135 9.83252 48.9135 10.4326C48.9135 11.0327 49.3999 11.5191 50 11.5191Z" fill="#333333"/>
</g>
<defs>
<clipPath id="clip0">
<rect width="90" height="90" fill="white" transform="translate(5 5)"/>
</clipPath>
</defs>
</svg>
