<svg width="100" height="100" viewBox="0 0 100 100" fill="none" xmlns="http://www.w3.org/2000/svg">
<g clip-path="url(#clip0)">
<path d="M88.9165 78.2073C88.9165 95.8572 71.556 94.8445 49.9999 94.8445C28.4439 94.8445 11.0834 95.7125 11.0834 78.2073C11.0834 60.5574 28.4439 31.1891 49.9999 31.1891C71.556 31.3338 88.9165 60.702 88.9165 78.2073Z" fill="#09A59D"/>
<path d="M31.048 13.1052C31.048 4.56956 39.5836 5.00358 49.9999 5.00358C60.4163 5.00358 68.9519 4.56956 68.9519 13.1052C68.9519 21.6408 60.4163 35.9632 49.9999 35.9632C39.5836 35.9632 31.048 21.6408 31.048 13.1052Z" fill="#09A59D"/>
<path d="M66.6372 32.9252C66.6372 34.3719 65.4798 35.5292 64.0331 35.5292H35.9669C34.5202 35.5292 33.3628 34.3719 33.3628 32.9252V32.2018C33.3628 30.7551 34.5202 29.5977 35.9669 29.5977H64.1778C65.6245 29.5977 66.7819 30.7551 66.7819 32.2018V32.9252H66.6372Z" fill="#068079"/>
<path d="M50.3606 83.7211C59.9485 83.7211 67.7211 75.9485 67.7211 66.3606C67.7211 56.7726 59.9485 49 50.3606 49C40.7726 49 33 56.7726 33 66.3606C33 75.9485 40.7726 83.7211 50.3606 83.7211Z" fill="#068079"/>
<path d="M36.6946 68.356C36.9666 68.14 37.0906 68.04 37.0666 68.056C37.8506 67.408 38.4666 66.876 38.9146 66.46C39.3706 66.044 39.7546 65.608 40.0666 65.152C40.3786 64.696 40.5346 64.252 40.5346 63.82C40.5346 63.492 40.4586 63.236 40.3066 63.052C40.1546 62.868 39.9266 62.776 39.6226 62.776C39.3186 62.776 39.0786 62.892 38.9026 63.124C38.7346 63.348 38.6506 63.668 38.6506 64.084H36.6706C36.6866 63.404 36.8306 62.836 37.1026 62.38C37.3826 61.924 37.7466 61.588 38.1946 61.372C38.6506 61.156 39.1546 61.048 39.7066 61.048C40.6586 61.048 41.3746 61.292 41.8546 61.78C42.3426 62.268 42.5866 62.904 42.5866 63.688C42.5866 64.544 42.2946 65.34 41.7106 66.076C41.1266 66.804 40.3826 67.516 39.4786 68.212H42.7186V69.88H36.6946V68.356ZM46.034 68.104L44.702 71.548H43.394L44.09 68.104H46.034ZM53.2353 63.028H49.4913V64.684C49.6513 64.508 49.8753 64.364 50.1633 64.252C50.4513 64.14 50.7633 64.084 51.0993 64.084C51.6993 64.084 52.1953 64.22 52.5873 64.492C52.9873 64.764 53.2793 65.116 53.4633 65.548C53.6473 65.98 53.7393 66.448 53.7393 66.952C53.7393 67.888 53.4753 68.632 52.9473 69.184C52.4193 69.728 51.6753 70 50.7153 70C50.0753 70 49.5193 69.892 49.0473 69.676C48.5753 69.452 48.2113 69.144 47.9553 68.752C47.6993 68.36 47.5593 67.908 47.5353 67.396H49.5393C49.5873 67.644 49.7033 67.852 49.8873 68.02C50.0713 68.18 50.3233 68.26 50.6433 68.26C51.0193 68.26 51.2993 68.14 51.4833 67.9C51.6673 67.66 51.7593 67.34 51.7593 66.94C51.7593 66.548 51.6633 66.248 51.4713 66.04C51.2793 65.832 50.9993 65.728 50.6313 65.728C50.3593 65.728 50.1353 65.796 49.9593 65.932C49.7833 66.06 49.6673 66.232 49.6113 66.448H47.6313V61.228H53.2353V63.028ZM54.704 63.448C54.704 62.8 54.888 62.3 55.256 61.948C55.632 61.596 56.116 61.42 56.708 61.42C57.3 61.42 57.78 61.596 58.148 61.948C58.516 62.3 58.7 62.8 58.7 63.448C58.7 64.096 58.516 64.596 58.148 64.948C57.78 65.3 57.3 65.476 56.708 65.476C56.116 65.476 55.632 65.3 55.256 64.948C54.888 64.596 54.704 64.096 54.704 63.448ZM62.852 61.552L58.232 70H56.252L60.872 61.552H62.852ZM56.696 62.62C56.312 62.62 56.12 62.896 56.12 63.448C56.12 63.992 56.312 64.264 56.696 64.264C56.88 64.264 57.024 64.196 57.128 64.06C57.232 63.924 57.284 63.72 57.284 63.448C57.284 62.896 57.088 62.62 56.696 62.62ZM60.416 68.104C60.416 67.456 60.6 66.956 60.968 66.604C61.336 66.252 61.816 66.076 62.408 66.076C63 66.076 63.48 66.252 63.848 66.604C64.216 66.956 64.4 67.456 64.4 68.104C64.4 68.752 64.216 69.252 63.848 69.604C63.48 69.956 63 70.132 62.408 70.132C61.816 70.132 61.336 69.956 60.968 69.604C60.6 69.252 60.416 68.752 60.416 68.104ZM62.396 67.276C62.212 67.276 62.068 67.344 61.964 67.48C61.868 67.616 61.82 67.824 61.82 68.104C61.82 68.648 62.012 68.92 62.396 68.92C62.58 68.92 62.724 68.852 62.828 68.716C62.932 68.58 62.984 68.376 62.984 68.104C62.984 67.832 62.932 67.628 62.828 67.492C62.724 67.348 62.58 67.276 62.396 67.276Z" fill="#20D7CD"/>
</g>
<defs>
<clipPath id="clip0">
<rect width="90" height="90" fill="white" transform="translate(5 5)"/>
</clipPath>
</defs>
</svg>
