<svg width="100" height="100" viewBox="0 0 100 100" fill="none" xmlns="http://www.w3.org/2000/svg">
<path d="M16.25 64.0047L16.3924 63.8622C18.9654 61.2893 22.455 59.8438 26.0937 59.8438C29.7324 59.8438 33.2221 61.2893 35.7951 63.8622L35.9375 64.0047H50C51.1189 64.0047 52.1919 64.4492 52.9831 65.2404C53.7743 66.0315 54.2187 67.1046 54.2187 68.2235C54.2188 68.5732 54.1755 68.9215 54.0897 69.2606L68.2484 64.5403C68.8946 64.325 69.5827 64.2662 70.2561 64.369C70.9295 64.4718 71.5688 64.7331 72.1214 65.1315C72.6739 65.5298 73.1239 66.0538 73.4342 66.6602C73.7445 67.2665 73.9063 67.938 73.9062 68.6192V68.7116C73.9093 69.4384 73.7283 70.1542 73.3803 70.7922C73.0322 71.4303 72.5283 71.9698 71.9155 72.3607L47.5056 87.8941C46.0747 88.8047 44.471 89.4097 42.7952 89.671C41.1194 89.9323 39.4076 89.8444 37.7674 89.4127L16.25 83.7501H9.21873V64.0047H16.25Z" fill="#E1E1E1"/>
<path d="M50 72.4421C50.9382 72.4418 51.8496 72.1291 52.5903 71.5532C53.331 70.9774 53.8588 70.1713 54.0905 69.2622L68.2479 64.5407C68.8362 64.3424 69.4607 64.2752 70.0778 64.3438L51.4063 74.8309H35.9375V72.4421H50Z" fill="#333333" fill-opacity="0.32"/>
<path d="M57.3523 45.9428L60.6394 46.502C61.1494 46.5887 61.6723 46.5621 62.1709 46.4241C62.6695 46.2861 63.1316 46.04 63.5244 45.7034C63.9173 45.3668 64.2312 44.9478 64.4439 44.4762C64.6567 44.0046 64.7631 43.492 64.7555 42.9747C64.7434 42.1512 64.4433 41.3579 63.9074 40.7325C63.3714 40.1072 62.6335 39.6891 61.8215 39.551L57.2466 38.773L57.3523 45.9428Z" fill="#BBBBBB"/>
<path d="M50.1825 46.0479L55.6251 46.9734C56.2257 47.0755 56.8431 46.9992 57.4007 46.7538C57.9584 46.5084 58.4318 46.1048 58.7622 45.593C59.0163 45.1995 59.1783 44.7539 59.2362 44.2892C59.294 43.8244 59.2463 43.3526 59.0966 42.9089C58.9469 42.4652 58.6989 42.0609 58.3713 41.7263C58.0437 41.3917 57.6447 41.1353 57.2043 40.9763L48.4071 37.7995L50.1825 46.0479Z" fill="#BBBBBB"/>
<path d="M56.1682 40.7954L54.9843 35.2965L41.2368 38.2563L39.8305 31.7262C39.6238 30.7658 39.6435 29.7704 39.888 28.819C40.1326 27.8675 40.5953 26.9861 41.2396 26.2444L46.4466 20.2503C47.0539 19.551 47.8074 18.9936 48.6537 18.6173C49.5001 18.2411 50.4187 18.0552 51.3447 18.0729L72.9417 18.484L90.7812 9.59073V30.6845L79.539 35.7637L77.2171 38.6113C75.037 41.2854 72.0118 43.1379 68.639 43.8642C65.7825 44.4793 62.8018 44.1039 60.1871 42.7997L56.1682 40.7954Z" fill="#E1E1E1"/>
<path d="M42.4765 42.3805L43.2164 45.8174C43.3136 46.2687 43.4987 46.6965 43.7612 47.0763C44.0237 47.4561 44.3584 47.7805 44.7463 48.031C45.1341 48.2814 45.5675 48.453 46.0217 48.536C46.4759 48.6189 46.942 48.6116 47.3933 48.5144C47.8446 48.4172 48.2724 48.2321 48.6522 47.9696C49.032 47.7071 49.3564 47.3723 49.6068 46.9845C49.8572 46.5966 50.0288 46.1632 50.1117 45.709C50.1947 45.2549 50.1873 44.7888 50.0901 44.3375L49.3503 40.9006L42.4765 42.3805Z" fill="#E8C8B3"/>
<path d="M47.2212 34.0589C47.431 34.0587 47.6382 34.0116 47.8275 33.9211C48.0168 33.8306 48.1835 33.6989 48.3154 33.5357C48.4473 33.3726 48.541 33.182 48.5898 32.9779C48.6386 32.7738 48.6412 32.5614 48.5974 32.3562L48.0054 29.6067C47.9269 29.242 47.7067 28.9236 47.3934 28.7212C47.0801 28.5189 46.6992 28.4494 46.3346 28.5279C45.97 28.6064 45.6515 28.8265 45.4492 29.1399C45.2469 29.4532 45.1773 29.8341 45.2558 30.1987L45.8478 32.9481C45.9154 33.2623 46.0885 33.5439 46.3384 33.746C46.5883 33.9481 46.8998 34.0585 47.2212 34.0589V34.0589Z" fill="#333333" fill-opacity="0.32"/>
<path d="M50.6855 34.8446C50.9678 34.8446 51.2435 34.7598 51.4769 34.601C51.7103 34.4423 51.8904 34.217 51.994 33.9544L54.5163 27.5642C54.6533 27.2173 54.6468 26.8302 54.4983 26.488C54.3498 26.1459 54.0715 25.8767 53.7246 25.7398C53.3777 25.6028 52.9906 25.6093 52.6484 25.7578C52.3063 25.9063 52.0371 26.1846 51.9002 26.5315L49.3779 32.9217C49.2937 33.1349 49.2628 33.3655 49.2881 33.5934C49.3134 33.8213 49.394 34.0395 49.523 34.2291C49.6519 34.4187 49.8252 34.5739 50.0278 34.6811C50.2305 34.7884 50.4562 34.8445 50.6855 34.8446V34.8446Z" fill="#333333" fill-opacity="0.32"/>
<path d="M29.6445 48.5586L39.8047 58.7187L49.9648 48.5586C50.4219 48.1015 50.7844 47.5589 51.0317 46.9617C51.279 46.3645 51.4063 45.7245 51.4062 45.0781C51.4062 43.7728 50.8877 42.5209 49.9647 41.5978C49.0416 40.6748 47.7897 40.1563 46.4844 40.1563C45.838 40.1562 45.198 40.2835 44.6008 40.5308C44.0036 40.7781 43.461 41.1406 43.0039 41.5977L39.8047 44.7969L36.6055 41.5977C36.1484 41.1406 35.6058 40.7781 35.0086 40.5308C34.4114 40.2835 33.7714 40.1562 33.125 40.1563C31.8196 40.1563 30.5677 40.6748 29.6447 41.5978C28.7217 42.5209 28.2031 43.7728 28.2031 45.0781C28.2031 45.7245 28.3303 46.3645 28.5777 46.9617C28.825 47.5589 29.1875 48.1015 29.6445 48.5586Z" fill="#005331"/>
<path d="M68.3502 43.9266C65.6804 44.5014 62.8946 44.1505 60.4507 42.9315L56.1682 40.7955L44.7479 42.1889C43.6554 42.3221 42.5527 42.0421 41.6561 41.4039C40.7596 40.7656 40.1341 39.8152 39.9024 38.7393C39.7805 38.1732 39.7713 37.5886 39.8753 37.0189C39.9793 36.4492 40.1945 35.9055 40.5086 35.419C40.8228 34.9324 41.2296 34.5125 41.706 34.1832C42.1824 33.854 42.719 33.6217 43.2852 33.4998L54.0957 31.1723L65.0944 28.8044L68.3502 43.9266Z" fill="#E1E1E1"/>
</svg>
