<svg width="100" height="100" viewBox="0 0 100 100" fill="none" xmlns="http://www.w3.org/2000/svg">
<g clip-path="url(#clip0)">
<path d="M69.6527 37.5436L69.9995 37.699C71.5842 38.4093 72.8523 39.6774 73.5626 41.262L73.7182 41.6089C74.1383 42.5465 75.4693 42.5465 75.8896 41.6089L76.045 41.262C76.7551 39.6772 78.0234 38.4091 79.6081 37.6988L79.9549 37.5434C80.8925 37.1231 80.8925 35.7921 79.9549 35.3718L79.6081 35.2164C78.0234 34.5062 76.7551 33.238 76.045 31.6531L75.8896 31.3063C75.4695 30.3687 74.1383 30.3687 73.7182 31.3063L73.5626 31.6531C72.8524 33.2378 71.5842 34.5061 69.9995 35.2162L69.6527 35.3716C68.7151 35.7923 68.7151 37.1233 69.6527 37.5436Z" fill="#FFCB05"/>
<path d="M36.9488 22.5654L37.2956 22.7208C38.8803 23.4311 40.1483 24.6992 40.8587 26.2841L41.0142 26.6309C41.4344 27.5685 42.7654 27.5685 43.1857 26.6309L43.3411 26.2841C44.0512 24.6992 45.3195 23.4311 46.9041 22.7208L47.251 22.5654C48.1886 22.1451 48.1886 20.8141 47.251 20.3938L46.9041 20.2384C45.3195 19.5283 44.0512 18.26 43.3411 16.6752L43.1857 16.3284C42.7656 15.3907 41.4345 15.3907 41.0142 16.3284L40.8587 16.6752C40.1485 18.2598 38.8803 19.5281 37.2956 20.2383L36.9488 20.3936C36.0113 20.8141 36.0113 22.1453 36.9488 22.5654Z" fill="#FFCB05"/>
<path d="M12.1432 45.9023L12.4901 46.0577C14.0747 46.768 15.3428 48.0361 16.0531 49.6208L16.2087 49.9676C16.6288 50.9052 17.96 50.9052 18.3801 49.9676L18.5355 49.6208C19.2457 48.0361 20.5139 46.7679 22.0986 46.0575L22.4454 45.9021C23.383 45.4818 23.383 44.1508 22.4454 43.7305L22.0986 43.5751C20.5139 42.865 19.2457 41.5967 18.5355 40.0119L18.3801 39.6651C17.96 38.7274 16.6288 38.7274 16.2087 39.6651L16.0531 40.0119C15.343 41.5965 14.0747 42.8648 12.4901 43.575L12.1432 43.7303C11.2056 44.151 11.2056 45.482 12.1432 45.9023V45.9023Z" fill="#FFCB05"/>
<path d="M64.298 49.3904L61.6525 40.8259C60.9323 38.4947 58.7773 36.9048 56.3374 36.9048H43.6627C41.2229 36.9048 39.0676 38.4947 38.3476 40.8259L35.7021 49.3904L50 50.9724L64.298 49.3904Z" fill="#FFCB05"/>
<path d="M35.7021 49.3903L35.0421 51.5273C34.8579 52.1237 35.3036 52.7281 35.928 52.7281H64.0724C64.6966 52.7281 65.1425 52.1237 64.9583 51.5273L64.2983 49.3903H35.7021Z" fill="#DBAF07"/>
<path d="M49.2979 65.2137L46.6524 56.6493C45.9324 54.318 43.7772 52.7281 41.3373 52.7281H28.6626C26.2228 52.7281 24.0675 54.318 23.3475 56.6493L20.702 65.2137L35 66.7957L49.2979 65.2137Z" fill="#FFCB05"/>
<path d="M20.702 65.2136L20.042 67.3506C19.8577 67.947 20.3035 68.5514 20.9277 68.5514H49.0721C49.6963 68.5514 50.1422 67.947 49.958 67.3506L49.2979 65.2136H20.702Z" fill="#DBAF07"/>
<path d="M79.298 65.2137L76.6525 56.6493C75.9325 54.318 73.7772 52.7281 71.3374 52.7281H58.6627C56.2228 52.7281 54.0676 54.318 53.3476 56.6493L50.7021 65.2137L65.0001 66.7957L79.298 65.2137Z" fill="#FFCB05"/>
<path d="M50.7021 65.2136L50.042 67.3506C49.8578 67.947 50.3036 68.5514 50.9278 68.5514H79.0721C79.6963 68.5514 80.1423 67.947 79.958 67.3506L79.298 65.2136H50.7021Z" fill="#DBAF07"/>
<path d="M34.298 81.0369L31.6525 72.4725C30.9325 70.1413 28.7772 68.5513 26.3374 68.5513H13.6627C11.2228 68.5513 9.06756 70.1413 8.34756 72.4725L5.70206 81.0369L19.9999 82.6189L34.298 81.0369Z" fill="#FFCB05"/>
<path d="M5.70209 81.037L5.04203 83.1739C4.85781 83.7704 5.30359 84.3747 5.92796 84.3747H34.0723C34.6965 84.3747 35.1425 83.7704 34.9581 83.1739L34.298 81.037H5.70209Z" fill="#DBAF07"/>
<path d="M64.298 81.0369L61.6525 72.4725C60.9323 70.1413 58.7773 68.5513 56.3374 68.5513H43.6627C41.2229 68.5513 39.0676 70.1413 38.3476 72.4725L35.7021 81.0369L50 82.6189L64.298 81.0369Z" fill="#FFCB05"/>
<path d="M35.702 81.037L35.0419 83.1739C34.8577 83.7704 35.3035 84.3747 35.9278 84.3747H64.0722C64.6964 84.3747 65.1424 83.7704 64.9581 83.1739L64.2981 81.037H35.702Z" fill="#DBAF07"/>
<path d="M94.2979 81.0369L91.6524 72.4725C90.9324 70.1413 88.7772 68.5513 86.3373 68.5513H73.6626C71.2228 68.5513 69.0675 70.1413 68.3475 72.4725L65.702 81.0369L79.9999 82.6189L94.2979 81.0369Z" fill="#FFCB05"/>
<path d="M65.702 81.037L65.042 83.1739C64.8577 83.7704 65.3035 84.3747 65.9279 84.3747H94.0724C94.6966 84.3747 95.1424 83.7704 94.9582 83.1739L94.2981 81.037H65.702Z" fill="#DBAF07"/>
</g>
<defs>
<clipPath id="clip0">
<rect width="90" height="90" fill="white" transform="translate(5 5)"/>
</clipPath>
</defs>
</svg>
