<svg width="100" height="100" viewBox="0 0 100 100" fill="none" xmlns="http://www.w3.org/2000/svg">
<path d="M30.1791 83.7873V68.101H28.4963C25.642 68.101 23.3197 65.7787 23.3197 62.9242H23.144V83.7873H30.1791Z" fill="#005331"/>
<path d="M26.7125 83.7873V67.784C24.7344 67.0556 23.3197 65.152 23.3197 62.9242H23.144V83.7873H26.7125Z" fill="#005331"/>
<path d="M67.2069 68.1009H74.2422V83.7873H67.2069V68.1009Z" fill="#005331"/>
<path d="M67.2069 68.1009H70.7756V83.7873H67.2069V68.1009Z" fill="#005331"/>
<path d="M67.2069 79.3537H74.2422V83.7873H67.2069V79.3537Z" fill="#333333"/>
<path d="M67.2069 79.3537H70.7756V83.7873H67.2069V79.3537Z" fill="#333333"/>
<path d="M28.4963 68.2767H35.43C36.4155 68.2767 37.2142 69.0754 37.2142 70.0608V83.7873H44.2495V70.0608C44.2495 69.0754 45.0482 68.2767 46.0337 68.2767H79.4931C80.4785 68.2767 81.2773 69.0754 81.2773 70.0608V83.7873H88.3126V37.249C88.3126 30.3513 82.721 24.7597 75.8233 24.7597H48.8147C47.5675 26.2748 45.6812 27.207 43.6543 27.207C42.9536 27.207 42.2591 27.0966 41.5904 26.879L41.3602 26.8041V35.9445C41.3602 38.4912 40.649 40.985 39.3037 43.1561L39.2629 43.2219L39.2838 43.2962C39.4398 43.8522 39.5189 44.4242 39.5189 44.9962V45.69C39.5189 49.1863 36.6744 52.0306 33.1783 52.0306H23.144V62.9241C23.1438 65.8802 25.5402 68.2767 28.4963 68.2767V68.2767Z" fill="#007D4A"/>
<path d="M21.8956 20.7103V16.047C21.8956 14.7847 20.8627 13.7518 19.6004 13.7518H19.3561C18.0938 13.7518 17.0609 14.7847 17.0609 16.047V20.7103H21.8956Z" fill="#005331"/>
<path d="M38.1265 20.7103V16.047C38.1265 14.7847 37.0936 13.7518 35.8313 13.7518H35.587C34.3247 13.7518 33.2918 14.7847 33.2918 16.047V20.7103H38.1265Z" fill="#005331"/>
<path d="M48.3953 20.5345H41.3604V26.9876C42.0777 27.2426 42.8496 27.3826 43.6545 27.3826C46.5994 27.3826 49.1101 25.5239 50.0774 22.9156C50.5058 21.7604 49.6276 20.5345 48.3953 20.5345Z" fill="#005331"/>
<path d="M13.827 20.5345H6.7921C5.55969 20.5345 4.68149 21.7604 5.11005 22.9158C6.07737 25.524 8.58805 27.3827 11.5329 27.3827C12.3378 27.3827 13.1097 27.2428 13.827 26.9878V20.5345Z" fill="#005331"/>
<path d="M13.6512 20.5345V35.9445C13.6512 38.7017 14.4656 41.2761 15.861 43.446C16.5544 40.6968 19.0476 38.6556 22.0091 38.6556H33.1784C36.14 38.6556 38.6331 40.6968 39.3266 43.4458C40.7219 41.276 41.5361 38.7015 41.5361 35.9443V20.5345H13.6512Z" fill="#333333" fill-opacity="0.32"/>
<path d="M21.6753 34.4458C20.947 34.4458 20.3569 33.8556 20.3569 33.1275V30.4371C20.3569 29.709 20.947 29.1188 21.6753 29.1188C22.4036 29.1188 22.9937 29.709 22.9937 30.4371V33.1275C22.9937 33.8556 22.4036 34.4458 21.6753 34.4458Z" fill="#333333"/>
<path d="M33.5117 34.4458C32.7834 34.4458 32.1933 33.8556 32.1933 33.1275V30.4371C32.1933 29.709 32.7834 29.1188 33.5117 29.1188C34.24 29.1188 34.8301 29.709 34.8301 30.4371V33.1275C34.8301 33.8556 34.24 34.4458 33.5117 34.4458Z" fill="#333333"/>
<path d="M33.1783 52.2064H22.009C18.425 52.2064 15.4926 49.274 15.4926 45.69V44.9962C15.4926 41.4122 18.425 38.4798 22.009 38.4798H33.1783C36.7623 38.4798 39.6947 41.4122 39.6947 44.9962V45.69C39.6947 49.274 36.7623 52.2064 33.1783 52.2064Z" fill="#E1E1E1"/>
<path d="M19.4181 45.5915V45.0944C19.4181 41.4563 22.3948 38.4798 26.0328 38.4798H22.1072C18.4691 38.4798 15.4926 41.4565 15.4926 45.0944V45.5915C15.4926 49.2297 18.4693 52.2062 22.1072 52.2062H26.0328C22.3948 52.2064 19.4181 49.2297 19.4181 45.5915Z" fill="#333333" fill-opacity="0.32"/>
<path d="M51.1366 83.7873V81.2335C51.1366 80.5054 50.5465 79.9152 49.8182 79.9152C49.09 79.9152 48.4999 80.5054 48.4999 81.2335V83.7873H51.1366Z" fill="#005331"/>
<path d="M59.7006 83.7873V81.2335C59.7006 80.5054 59.1105 79.9152 58.3823 79.9152C57.654 79.9152 57.0639 80.5054 57.0639 81.2335V83.7873H59.7006Z" fill="#005331"/>
<path d="M16.3449 83.7873V81.2335C16.3449 80.5054 15.7548 79.9152 15.0266 79.9152C14.2983 79.9152 13.7082 80.5054 13.7082 81.2335V83.7873H16.3449Z" fill="#005331"/>
<path d="M24.0252 46.0203H21.8841C21.1559 46.0203 20.5658 45.4301 20.5658 44.702C20.5658 43.9739 21.1559 43.3836 21.8841 43.3836H24.0252C24.7534 43.3836 25.3435 43.9739 25.3435 44.702C25.3435 45.4301 24.7534 46.0203 24.0252 46.0203Z" fill="#333333"/>
<path d="M33.3031 46.0203H31.162C30.4338 46.0203 29.8437 45.4301 29.8437 44.702C29.8437 43.9739 30.4338 43.3836 31.162 43.3836H33.3031C34.0313 43.3836 34.6214 43.9739 34.6214 44.702C34.6214 45.4301 34.0311 46.0203 33.3031 46.0203Z" fill="#333333"/>
<path d="M23.1438 79.3537H30.1791V83.7873H23.1438V79.3537Z" fill="#333333"/>
<path d="M23.1438 79.3537H26.7125V83.7873H23.1438V79.3537Z" fill="#333333"/>
<path d="M81.2773 79.3537H88.3126V83.7873H81.2773V79.3537Z" fill="#333333"/>
<path d="M81.2773 79.3537H84.846V83.7873H81.2773V79.3537Z" fill="#333333"/>
<path d="M37.2144 79.3537H44.2496V83.7873H37.2144V79.3537Z" fill="#333333"/>
<path d="M37.2144 79.3537H40.7831V83.7873H37.2144V79.3537Z" fill="#333333"/>
<path d="M93.6816 83.6115H63.9827V81.2335C63.9827 80.5054 63.3926 79.9152 62.6643 79.9152C61.9361 79.9152 61.346 80.5054 61.346 81.2335V83.6115H55.4186V81.2335C55.4186 80.5054 54.8285 79.9152 54.1003 79.9152C53.372 79.9152 52.7819 80.5054 52.7819 81.2335V83.6115H20.0917V81.2335C20.0917 80.5054 19.5016 79.9152 18.7733 79.9152C18.0451 79.9152 17.455 80.5054 17.455 81.2335V83.6115H11.9442C11.216 83.6115 10.6259 84.2018 10.6259 84.9299C10.6259 85.6579 11.216 86.2482 11.9442 86.2482H93.6816C94.4099 86.2482 95 85.6579 95 84.9299C95 84.2018 94.4099 83.6115 93.6816 83.6115Z" fill="#FFCB05"/>
</svg>
