<svg width="100" height="100" viewBox="0 0 100 100" fill="none" xmlns="http://www.w3.org/2000/svg">
<path d="M13.4375 38.1237C13.4397 40.5266 14.3952 42.8305 16.0942 44.5298C17.7932 46.2291 20.097 47.1849 22.4999 47.1875H38.1251C40.528 47.1849 42.8318 46.2291 44.5308 44.5298C46.2298 42.8305 47.1853 40.5266 47.1875 38.1237V22.5013C47.1853 20.0984 46.2298 17.7945 44.5308 16.0952C42.8318 14.3959 40.528 13.4401 38.1251 13.4375H22.4999C20.097 13.4401 17.7932 14.3959 16.0942 16.0952C14.3952 17.7945 13.4397 20.0984 13.4375 22.5013V38.1237Z" fill="#005331"/>
<path d="M13.4375 77.4987C13.4397 79.9016 14.3952 82.2055 16.0942 83.9048C17.7932 85.6041 20.097 86.5599 22.4999 86.5625H38.1251C40.528 86.5599 42.8318 85.6041 44.5308 83.9048C46.2298 82.2055 47.1853 79.9016 47.1875 77.4987V61.8763C47.1853 59.4734 46.2298 57.1695 44.5308 55.4702C42.8318 53.7709 40.528 52.8151 38.1251 52.8125H22.4999C20.097 52.8151 17.7932 53.7709 16.0942 55.4702C14.3952 57.1695 13.4397 59.4734 13.4375 61.8763V77.4987Z" fill="#FFCB05"/>
<path d="M69.6874 13.4375C66.3499 13.4375 63.0873 14.4272 60.3122 16.2815C57.5371 18.1357 55.3742 20.7712 54.097 23.8547C52.8198 26.9382 52.4856 30.3312 53.1367 33.6046C53.7878 36.8781 55.395 39.8849 57.755 42.2449C60.115 44.6049 63.1219 46.2121 66.3953 46.8632C69.6687 47.5144 73.0617 47.1802 76.1452 45.903C79.2287 44.6257 81.8642 42.4628 83.7185 39.6877C85.5727 36.9127 86.5624 33.6501 86.5624 30.3125C86.5575 25.8385 84.778 21.5491 81.6144 18.3855C78.4508 15.2219 74.1615 13.4424 69.6874 13.4375Z" fill="#FFCB05"/>
<path d="M61.8749 52.8125C59.472 52.8151 57.1682 53.7709 55.4692 55.4702C53.7702 57.1695 52.8147 59.4734 52.8125 61.8763V77.4987C52.8147 79.9016 53.7702 82.2055 55.4692 83.9048C57.1682 85.6041 59.472 86.5599 61.8749 86.5625H77.5001C79.903 86.5599 82.2068 85.6041 83.9058 83.9048C85.6048 82.2055 86.5603 79.9016 86.5625 77.4987V61.8763C86.5603 59.4734 85.6048 57.1695 83.9058 55.4702C82.2068 53.7709 79.903 52.8151 77.5001 52.8125H61.8749Z" fill="#005331"/>
</svg>
