<svg width="100" height="100" viewBox="0 0 100 100" fill="none" xmlns="http://www.w3.org/2000/svg">
<rect x="26" y="13" width="47" height="80" fill="#E1E1E1"/>
<rect x="43" y="9" width="15" height="2" fill="#333333"/>
<path d="M76.2864 11.079V88.921C76.2864 92.2665 73.5554 95 70.2073 95H30.0791C26.7361 95.0026 24 92.2691 24 88.9235V11.079C24 7.73608 26.7361 5 30.0791 5H70.2048C73.5477 5 76.2864 7.73351 76.2864 11.079ZM42.988 10.1173C42.988 10.5236 43.3172 10.8527 43.7235 10.8527H56.5604C56.9667 10.8527 57.2958 10.5236 57.2958 10.1173C57.2958 9.71099 56.9667 9.37927 56.5604 9.37927H43.7235C43.3197 9.38184 42.988 9.71099 42.988 10.1173ZM53.1814 88.9235C53.1814 87.2444 51.8211 85.884 50.1419 85.884C48.4627 85.884 47.1024 87.2418 47.1024 88.9235C47.1024 90.6053 48.4627 91.9656 50.1419 91.9656C51.8211 91.9656 53.1814 90.6027 53.1814 88.9235ZM72.0563 14.6406H28.2327V83.7523H72.0563V14.6406Z" fill="#005331"/>
<path d="M65.9027 42.9811L63.6243 45.2569C56.1875 37.8226 44.0938 37.8226 36.657 45.2569L34.3812 42.9811C43.0729 34.292 57.2161 34.2894 65.9027 42.9811ZM38.3156 46.9155L40.5914 49.1938C45.8552 43.9274 54.4235 43.9274 59.6899 49.1938L61.9657 46.9155C55.4469 40.3967 44.8395 40.3967 38.3156 46.9155ZM42.376 50.9759L44.6518 53.2517C47.6784 50.225 52.6029 50.225 55.6295 53.2517L57.9079 50.9759C53.6237 46.6943 46.6627 46.6943 42.376 50.9759Z" fill="#FFCB05"/>
</svg>
