<svg width="100" height="100" viewBox="0 0 100 100" fill="none" xmlns="http://www.w3.org/2000/svg">
<path d="M61.7501 54.4432C61.7501 54.3608 61.6678 54.2784 61.5853 54.2784L40 24.0425C39.5881 23.3833 38.8467 22.9714 38.0227 22.9714C37.1988 22.9714 36.4573 23.3833 36.0454 24.0425L14.4603 54.2784C14.3779 54.3607 14.3779 54.4432 14.2955 54.4432C12.0711 58.233 11 62.2699 11 66.554C11 80.8892 23.3579 93 38.0227 93C47.662 93 56.642 87.7272 61.5852 79.2415C66.1167 71.3324 66.199 62.105 61.7501 54.4432Z" fill="#005331"/>
<path d="M50.9575 63.6704C49.5569 63.6704 48.486 64.7415 48.486 66.1419C48.486 71.9914 43.7076 76.7698 37.8581 76.7698C36.4575 76.7698 35.3866 77.8409 35.3866 79.2413C35.3866 80.6419 36.4576 81.7128 37.8581 81.7128C46.4263 81.7128 53.4292 74.71 53.4292 66.1418C53.429 64.7415 52.3581 63.6704 50.9575 63.6704Z" fill="white" fill-opacity="0.32"/>
<path d="M87.4956 24.1731C87.4956 24.1282 87.4507 24.0832 87.4057 24.0832L75.6273 7.58444C75.4025 7.22476 74.9979 7 74.5483 7C74.0987 7 73.6941 7.22476 73.4694 7.58444L61.691 24.0832C61.6461 24.1281 61.6461 24.1731 61.6011 24.1731C60.3873 26.2411 59.8029 28.444 59.8029 30.7816C59.8029 38.6039 66.5462 45.2124 74.5483 45.2124C79.8082 45.2124 84.7083 42.3352 87.4056 37.7048C89.8783 33.3891 89.9232 28.354 87.4956 24.1731Z" fill="#005331"/>
<path d="M81.6065 29.2082C80.8422 29.2082 80.2578 29.7926 80.2578 30.5568C80.2578 33.7487 77.6504 36.3561 74.4585 36.3561C73.6943 36.3561 73.1099 36.9405 73.1099 37.7047C73.1099 38.469 73.6943 39.0534 74.4585 39.0534C79.134 39.0534 82.9552 35.2321 82.9552 30.5567C82.9551 29.7926 82.3708 29.2082 81.6065 29.2082Z" fill="white" fill-opacity="0.32"/>
</svg>
