<svg width="100" height="100" viewBox="0 0 100 100" fill="none" xmlns="http://www.w3.org/2000/svg">
<path d="M30.7082 95L42.376 51.7935H16.0531L32.4275 5H69.501L53.1092 33.4416H83.9469L30.7082 95Z" fill="#FFCB05"/>
<rect x="15.5" y="39.5" width="69" height="17" rx="3.5" fill="#005331" stroke="white" stroke-width="3"/>
<path d="M27.1532 52H25.7532L22.5832 47.21V52H21.1832V45.01H22.5832L25.7532 49.81V45.01H27.1532V52ZM31.7767 52.07C31.1233 52.07 30.5233 51.9167 29.9767 51.61C29.43 51.3033 28.9967 50.88 28.6767 50.34C28.3567 49.7933 28.1967 49.1767 28.1967 48.49C28.1967 47.81 28.3567 47.2 28.6767 46.66C28.9967 46.1133 29.43 45.6867 29.9767 45.38C30.5233 45.0733 31.1233 44.92 31.7767 44.92C32.4367 44.92 33.0367 45.0733 33.5767 45.38C34.1233 45.6867 34.5533 46.1133 34.8667 46.66C35.1867 47.2 35.3467 47.81 35.3467 48.49C35.3467 49.1767 35.1867 49.7933 34.8667 50.34C34.5533 50.88 34.1233 51.3033 33.5767 51.61C33.03 51.9167 32.43 52.07 31.7767 52.07ZM31.7767 50.82C32.1967 50.82 32.5667 50.7267 32.8867 50.54C33.2067 50.3467 33.4567 50.0733 33.6367 49.72C33.8167 49.3667 33.9067 48.9567 33.9067 48.49C33.9067 48.0233 33.8167 47.6167 33.6367 47.27C33.4567 46.9167 33.2067 46.6467 32.8867 46.46C32.5667 46.2733 32.1967 46.18 31.7767 46.18C31.3567 46.18 30.9833 46.2733 30.6567 46.46C30.3367 46.6467 30.0867 46.9167 29.9067 47.27C29.7267 47.6167 29.6367 48.0233 29.6367 48.49C29.6367 48.9567 29.7267 49.3667 29.9067 49.72C30.0867 50.0733 30.3367 50.3467 30.6567 50.54C30.9833 50.7267 31.3567 50.82 31.7767 50.82ZM42.3582 52H40.9582L37.7882 47.21V52H36.3882V45.01H37.7882L40.9582 49.81V45.01H42.3582V52ZM50.8746 45.02V46.15H49.0146V52H47.6146V46.15H45.7546V45.02H50.8746ZM56.1761 50.67H53.3961L52.9361 52H51.4661L53.9761 45.01H55.6061L58.1161 52H56.6361L56.1761 50.67ZM55.7961 49.55L54.7861 46.63L53.7761 49.55H55.7961ZM63.9143 47.12C63.7543 46.8267 63.5343 46.6033 63.2543 46.45C62.9743 46.2967 62.6476 46.22 62.2743 46.22C61.8609 46.22 61.4943 46.3133 61.1743 46.5C60.8543 46.6867 60.6043 46.9533 60.4243 47.3C60.2443 47.6467 60.1543 48.0467 60.1543 48.5C60.1543 48.9667 60.2443 49.3733 60.4243 49.72C60.6109 50.0667 60.8676 50.3333 61.1943 50.52C61.5209 50.7067 61.9009 50.8 62.3343 50.8C62.8676 50.8 63.3043 50.66 63.6443 50.38C63.9843 50.0933 64.2076 49.6967 64.3143 49.19H61.9143V48.12H65.6943V49.34C65.6009 49.8267 65.4009 50.2767 65.0943 50.69C64.7876 51.1033 64.3909 51.4367 63.9043 51.69C63.4243 51.9367 62.8843 52.06 62.2843 52.06C61.6109 52.06 61.0009 51.91 60.4543 51.61C59.9143 51.3033 59.4876 50.88 59.1743 50.34C58.8676 49.8 58.7143 49.1867 58.7143 48.5C58.7143 47.8133 58.8676 47.2 59.1743 46.66C59.4876 46.1133 59.9143 45.69 60.4543 45.39C61.0009 45.0833 61.6076 44.93 62.2743 44.93C63.0609 44.93 63.7443 45.1233 64.3243 45.51C64.9043 45.89 65.3043 46.4267 65.5243 47.12H63.9143ZM68.13 50.89H70.43V52H66.73V45.02H68.13V50.89ZM72.7199 45.02V52H71.3199V45.02H72.7199ZM76.5131 52.07C76.0264 52.07 75.5864 51.9867 75.1931 51.82C74.8064 51.6533 74.4998 51.4133 74.2731 51.1C74.0464 50.7867 73.9298 50.4167 73.9231 49.99H75.4231C75.4431 50.2767 75.5431 50.5033 75.7231 50.67C75.9098 50.8367 76.1631 50.92 76.4831 50.92C76.8098 50.92 77.0664 50.8433 77.2531 50.69C77.4398 50.53 77.5331 50.3233 77.5331 50.07C77.5331 49.8633 77.4698 49.6933 77.3431 49.56C77.2164 49.4267 77.0564 49.3233 76.8631 49.25C76.6764 49.17 76.4164 49.0833 76.0831 48.99C75.6298 48.8567 75.2598 48.7267 74.9731 48.6C74.6931 48.4667 74.4498 48.27 74.2431 48.01C74.0431 47.7433 73.9431 47.39 73.9431 46.95C73.9431 46.5367 74.0464 46.1767 74.2531 45.87C74.4598 45.5633 74.7498 45.33 75.1231 45.17C75.4964 45.0033 75.9231 44.92 76.4031 44.92C77.1231 44.92 77.7064 45.0967 78.1531 45.45C78.6064 45.7967 78.8564 46.2833 78.9031 46.91H77.3631C77.3498 46.67 77.2464 46.4733 77.0531 46.32C76.8664 46.16 76.6164 46.08 76.3031 46.08C76.0298 46.08 75.8098 46.15 75.6431 46.29C75.4831 46.43 75.4031 46.6333 75.4031 46.9C75.4031 47.0867 75.4631 47.2433 75.5831 47.37C75.7098 47.49 75.8631 47.59 76.0431 47.67C76.2298 47.7433 76.4898 47.83 76.8231 47.93C77.2764 48.0633 77.6464 48.1967 77.9331 48.33C78.2198 48.4633 78.4664 48.6633 78.6731 48.93C78.8798 49.1967 78.9831 49.5467 78.9831 49.98C78.9831 50.3533 78.8864 50.7 78.6931 51.02C78.4998 51.34 78.2164 51.5967 77.8431 51.79C77.4698 51.9767 77.0264 52.07 76.5131 52.07Z" fill="#E1E1E1"/>
</svg>
