<svg width="100" height="100" viewBox="0 0 100 100" fill="none" xmlns="http://www.w3.org/2000/svg">
<g clip-path="url(#clip0)">
<path d="M84.4492 65.1015C82.0302 71.6576 78.3717 77.3581 73.5741 82.0431C68.1132 87.3756 60.9625 91.6129 52.3204 94.6355C52.0368 94.7344 51.7408 94.8154 51.4435 94.8751C51.0508 94.9527 50.6511 94.9946 50.2549 95.0001H50.1773C49.7551 95.0001 49.3307 94.9575 48.9098 94.8751C48.6125 94.8154 48.3207 94.7344 48.0384 94.6375C39.386 91.6197 32.2264 87.3845 26.76 82.052C21.9603 77.367 18.3025 71.6699 15.8869 65.1138C11.4945 53.1937 11.7444 40.0622 11.9456 29.5099L11.949 29.3478C11.9895 28.4765 12.0156 27.5612 12.03 26.5504C12.1035 21.588 16.049 17.4826 21.0121 17.2059C31.3598 16.6284 39.3647 13.2535 46.2044 6.58688L46.2641 6.53195C47.3999 5.49031 48.8308 4.97944 50.2549 5.00073C51.6282 5.01858 52.996 5.52876 54.0912 6.53195L54.1496 6.58688C60.9906 13.2535 68.9956 16.6284 79.3433 17.2059C84.3064 17.4826 88.2519 21.588 88.3253 26.5504C88.3398 27.568 88.3659 28.482 88.4064 29.3478L88.4084 29.4165C88.6089 39.9888 88.8575 53.1463 84.4492 65.1015Z" fill="#005331"/>
<path d="M72.6058 50.0001C72.6058 62.3412 62.5855 72.3869 50.2547 72.4308H50.1758C37.8086 72.4308 27.7451 62.368 27.7451 50.0001C27.7451 37.6329 37.8086 27.5701 50.1758 27.5701H50.2547C62.5855 27.6141 72.6058 37.6597 72.6058 50.0001Z" fill="#FFCB05"/>
<path d="M60.3567 46.7701L50.2547 56.8734L48.0719 59.0562C47.5562 59.5719 46.8799 59.8294 46.2042 59.8294C45.5279 59.8294 44.8522 59.5719 44.3358 59.0562L39.6426 54.3609C38.6113 53.3296 38.6113 51.659 39.6426 50.6269C40.6726 49.5956 42.3453 49.5956 43.3766 50.6269L46.2042 53.4546L56.6227 43.0361C57.654 42.004 59.3267 42.004 60.3567 43.0361C61.388 44.0674 61.388 45.7401 60.3567 46.7701Z" fill="#005331"/>
</g>
<defs>
<clipPath id="clip0">
<rect width="90" height="90" fill="white" transform="translate(5 5)"/>
</clipPath>
</defs>
</svg>
