<svg width="100" height="100" viewBox="0 0 100 100" fill="none" xmlns="http://www.w3.org/2000/svg">
<path d="M76.9317 29.8566C75.0709 31.0459 65.6048 36.9565 61.6895 36.2832C61.3324 36.2227 60.9452 36.1514 60.5331 36.0745C57.0106 35.4222 51.6864 34.4334 47.193 37.4079C43.8431 39.6256 40.0891 38.8946 38.5399 35.0173L30.2123 41.616C29.7644 42.0506 29.2333 42.3902 28.6509 42.6144C28.0685 42.8387 27.4468 42.943 26.8231 42.9211C26.1994 42.8991 25.5866 42.7514 25.0214 42.4868C24.4562 42.2222 23.9503 41.8461 23.534 41.3811C21.3262 38.7678 23.1426 35.1876 24.5639 33.4834C24.6013 33.4382 24.6417 33.3955 24.6847 33.3557L37.3053 21.5948C37.4206 21.4752 41.1848 17.7698 50.346 16.0796C59.0898 14.4659 69.6397 12.6656 69.7451 12.6484C70.3935 12.5394 77.5084 29.4872 76.9317 29.8566V29.8566Z" fill="#E1E1E1"/>
<path d="M52.6906 25.4656C50.1312 26.225 38.8531 29.2625 39.5562 36.2937L39.2328 36.2797C38.9438 35.8952 38.6896 35.4858 38.4734 35.0562L37.5031 35.9562C35.5062 28.1375 46.5031 24.0031 51.9171 22.7656C52.2749 22.6724 52.655 22.7213 52.9775 22.9023C53.3 23.0832 53.5399 23.382 53.6468 23.7359C53.6981 23.9123 53.714 24.097 53.6936 24.2796C53.6733 24.4621 53.6171 24.6388 53.5282 24.7995C53.4393 24.9603 53.3196 25.1018 53.1758 25.2162C53.0321 25.3305 52.8672 25.4152 52.6906 25.4656Z" fill="#333333" fill-opacity="0.32"/>
<path d="M73.9062 78.125V87.9687C73.905 89.0872 73.4602 90.1596 72.6693 90.9505C71.8783 91.7414 70.806 92.1863 69.6875 92.1875H19.0625C17.944 92.1863 16.8717 91.7414 16.0807 90.9505C15.2898 90.1596 14.845 89.0872 14.8438 87.9687V78.125C14.8438 77.3477 73.9062 77.3477 73.9062 78.125Z" fill="#005331"/>
<path d="M72.5 79.5312H16.25C16.0318 79.5284 15.8172 79.4753 15.6228 79.376C15.4284 79.2768 15.2595 79.1341 15.1292 78.9591C14.9989 78.784 14.9107 78.5813 14.8715 78.3666C14.8322 78.1519 14.8429 77.9311 14.9028 77.7212L22.7389 51.6013C22.9959 50.7299 23.5289 49.9655 24.2578 49.4231C24.9866 48.8807 25.8719 48.5896 26.7804 48.5937H37.3438C37.5285 48.5936 37.7114 48.6299 37.882 48.7006C38.0527 48.7712 38.2078 48.8748 38.3384 49.0054C38.469 49.136 38.5726 49.291 38.6432 49.4617C38.7138 49.6324 38.7501 49.8153 38.75 50C38.75 51.4918 39.3426 52.9226 40.3975 53.9775C41.4524 55.0323 42.8832 55.625 44.375 55.625C45.8668 55.625 47.2976 55.0323 48.3525 53.9775C49.4074 52.9226 50 51.4918 50 50C49.9999 49.8153 50.0362 49.6324 50.1068 49.4617C50.1775 49.291 50.281 49.136 50.4116 49.0054C50.5422 48.8748 50.6973 48.7712 50.868 48.7006C51.0386 48.6299 51.2216 48.5936 51.4063 48.5937H61.9696C62.8781 48.5896 63.7634 48.8807 64.4922 49.4231C65.2211 49.9655 65.7541 50.7299 66.0111 51.6013L73.8472 77.7212C73.9071 77.9311 73.9178 78.1519 73.8785 78.3666C73.8393 78.5813 73.7511 78.784 73.6208 78.9591C73.4905 79.1341 73.3216 79.2768 73.1272 79.376C72.9328 79.4753 72.7182 79.5284 72.5 79.5312V79.5312Z" fill="#007D4A"/>
<path d="M50 65.4688H38.75C38.3855 65.4561 38.0401 65.3024 37.7867 65.0401C37.5333 64.7777 37.3917 64.4272 37.3917 64.0625C37.3917 63.6978 37.5333 63.3473 37.7867 63.0849C38.0401 62.8226 38.3855 62.6689 38.75 62.6562H50C50.3646 62.6689 50.7099 62.8226 50.9633 63.0849C51.2168 63.3473 51.3584 63.6978 51.3584 64.0625C51.3584 64.4272 51.2168 64.7777 50.9633 65.0401C50.7099 65.3024 50.3646 65.4561 50 65.4688V65.4688Z" fill="#333333"/>
<path d="M82.5017 27.4712L76.8369 29.9171C76.4941 30.0614 76.1084 30.0655 75.7627 29.9283C75.417 29.7912 75.1389 29.5238 74.9884 29.1837L68.7594 14.7504C68.6115 14.408 68.6057 14.0209 68.7432 13.6743C68.8808 13.3276 69.1504 13.0498 69.4927 12.9019L75.1578 10.4563C76.1861 10.0232 77.3434 10.0112 78.3804 10.4228C79.4175 10.8345 80.2514 11.637 80.7027 12.6575L84.703 21.9258C85.1451 22.9532 85.1616 24.1141 84.7489 25.1536C84.3363 26.1932 83.5281 27.0267 82.5017 27.4712V27.4712Z" fill="#005331"/>
<path d="M44.375 58.4375C42.7062 58.4375 41.0749 57.9427 39.6873 57.0155C38.2998 56.0884 37.2184 54.7706 36.5797 53.2289C35.9411 51.6871 35.774 49.9906 36.0996 48.3539C36.4252 46.7172 37.2288 45.2138 38.4088 44.0338C39.5888 42.8538 41.0922 42.0502 42.7289 41.7246C44.3656 41.3991 46.0621 41.5662 47.6039 42.2048C49.1456 42.8434 50.4634 43.9248 51.3905 45.3124C52.3176 46.6999 52.8125 48.3312 52.8125 50C52.81 52.237 51.9203 54.3817 50.3385 55.9635C48.7567 57.5453 46.612 58.435 44.375 58.4375V58.4375ZM44.375 44.375C43.2625 44.375 42.1749 44.7049 41.2499 45.323C40.3249 45.9411 39.6039 46.8196 39.1781 47.8474C38.7524 48.8752 38.641 50.0062 38.8581 51.0974C39.0751 52.1885 39.6108 53.1908 40.3975 53.9775C41.1842 54.7641 42.1864 55.2999 43.2776 55.5169C44.3687 55.734 45.4997 55.6226 46.5276 55.1968C47.5554 54.7711 48.4339 54.0501 49.052 53.1251C49.6701 52.2001 50 51.1125 50 50C49.9985 48.5086 49.4054 47.0787 48.3508 46.0242C47.2962 44.9696 45.8664 44.3765 44.375 44.375Z" fill="#FFCB05"/>
<path d="M44.375 54.2188C43.5406 54.2188 42.7249 53.9713 42.0312 53.5078C41.3374 53.0442 40.7967 52.3853 40.4774 51.6145C40.1581 50.8436 40.0745 49.9953 40.2373 49.177C40.4001 48.3586 40.8019 47.6069 41.3919 47.0169C41.9819 46.4269 42.7336 46.0251 43.5519 45.8623C44.3703 45.6995 45.2186 45.7831 45.9894 46.1024C46.7603 46.4217 47.4192 46.9624 47.8827 47.6562C48.3463 48.35 48.5937 49.1656 48.5937 50C48.5925 51.1185 48.1476 52.1909 47.3567 52.9818C46.5658 53.7727 45.4935 54.2175 44.375 54.2188V54.2188ZM44.375 48.5938C44.0969 48.5938 43.825 48.6762 43.5937 48.8308C43.3625 48.9853 43.1822 49.2049 43.0758 49.4619C42.9693 49.7188 42.9415 50.0016 42.9958 50.2744C43.05 50.5471 43.1839 50.7977 43.3806 50.9944C43.5773 51.191 43.8279 51.325 44.1006 51.3792C44.3734 51.4335 44.6562 51.4056 44.9131 51.2992C45.1701 51.1928 45.3897 51.0125 45.5442 50.7813C45.6988 50.55 45.7812 50.2781 45.7812 50C45.781 49.6271 45.6327 49.2696 45.3691 49.0059C45.1054 48.7423 44.7479 48.594 44.375 48.5938Z" fill="#FFCB05"/>
</svg>
