<svg width="100" height="100" viewBox="0 0 100 100" fill="none" xmlns="http://www.w3.org/2000/svg">
<g clip-path="url(#clip0)">
<path d="M76.25 50C76.25 58.1 72.575 65.6 66.2375 70.625C63.65 72.65 61.9625 75.3125 61.4375 78.1625L61.25 78.125H38.75L38.4875 78.1625C37.9625 75.2 36.425 72.6125 34.2125 70.9625C26.0375 64.775 22.2125 54.65 24.3125 44.45C26.375 34.5125 34.4375 26.4125 44.375 24.35C52.2875 22.6625 60.3875 24.6125 66.5375 29.6C72.725 34.625 76.25 42.05 76.25 50V50Z" fill="#FFCB05"/>
<path d="M74.6413 28.1712C73.9213 28.1712 73.2013 27.8975 72.6538 27.3462C71.555 26.2475 71.555 24.4662 72.6538 23.3675L77.8438 18.1775C78.9425 17.0787 80.7238 17.0787 81.8225 18.1775C82.9213 19.2762 82.9213 21.0575 81.8225 22.1562L76.6325 27.3462C76.0813 27.8937 75.3613 28.1712 74.6413 28.1712V28.1712Z" fill="#FFCB05"/>
<path d="M92.1876 52.8125H84.8488C83.2963 52.8125 82.0363 51.5525 82.0363 50C82.0363 48.4475 83.2963 47.1875 84.8488 47.1875H92.1876C93.7401 47.1875 95.0001 48.4475 95.0001 50C95.0001 51.5525 93.7401 52.8125 92.1876 52.8125Z" fill="#FFCB05"/>
<path d="M79.8313 82.6437C79.1113 82.6437 78.3913 82.37 77.8438 81.8187L72.6538 76.6287C71.555 75.53 71.555 73.7487 72.6538 72.65C73.7525 71.5512 75.5338 71.5512 76.6325 72.65L81.8225 77.84C82.9213 78.9387 82.9213 80.72 81.8225 81.8187C81.2713 82.37 80.5513 82.6437 79.8313 82.6437Z" fill="#FFCB05"/>
<path d="M61.4375 78.1625C61.325 78.8 61.25 79.4375 61.25 80.1125V88.4375C61.25 92.0375 58.2875 95 54.6875 95H45.3125C42.1625 95 38.75 92.6 38.75 87.35V80.7125C38.75 79.85 38.675 78.9875 38.4875 78.1625L38.75 78.125H61.25L61.4375 78.1625Z" fill="#005331"/>
<path d="M50 17.9638C48.4475 17.9638 47.1875 16.7038 47.1875 15.1513V7.8125C47.1875 6.26 48.4475 5 50 5C51.5525 5 52.8125 6.26 52.8125 7.8125V15.1513C52.8125 16.7038 51.5525 17.9638 50 17.9638Z" fill="#FFCB05"/>
<path d="M25.3587 28.1712C24.6387 28.1712 23.9187 27.8975 23.3712 27.3462L18.1812 22.1562C17.0825 21.0575 17.0825 19.2762 18.1812 18.1775C19.28 17.0787 21.0612 17.0787 22.16 18.1775L27.35 23.3675C28.4487 24.4662 28.4487 26.2475 27.35 27.3462C26.795 27.8937 26.0787 28.1712 25.3587 28.1712V28.1712Z" fill="#FFCB05"/>
<path d="M15.1513 52.8125H7.8125C6.26 52.8125 5 51.5525 5 50C5 48.4475 6.26 47.1875 7.8125 47.1875H15.1513C16.7038 47.1875 17.9638 48.4475 17.9638 50C17.9638 51.5525 16.7038 52.8125 15.1513 52.8125Z" fill="#FFCB05"/>
<path d="M20.1687 82.6437C19.4487 82.6437 18.7287 82.37 18.1812 81.8187C17.0825 80.72 17.0825 78.9387 18.1812 77.84L23.3712 72.65C24.47 71.5512 26.2512 71.5512 27.35 72.65C28.4487 73.7487 28.4487 75.53 27.35 76.6287L22.16 81.8187C21.6087 82.37 20.8887 82.6437 20.1687 82.6437V82.6437Z" fill="#FFCB05"/>
<path d="M64.0624 51.875C62.5099 51.875 61.2499 50.615 61.2499 49.0625C61.2499 43.3737 56.6262 38.75 50.9374 38.75C49.3849 38.75 48.1249 37.49 48.1249 35.9375C48.1249 34.385 49.3849 33.125 50.9374 33.125C59.7237 33.125 66.8749 40.2762 66.8749 49.0625C66.8749 50.615 65.6149 51.875 64.0624 51.875Z" fill="white" fill-opacity="0.52"/>
</g>
<defs>
<clipPath id="clip0">
<rect width="90" height="90" fill="white" transform="translate(5 5)"/>
</clipPath>
</defs>
</svg>
