<?xml version="1.0" encoding="UTF-8"?>
<!DOCTYPE svg PUBLIC "-//W3C//DTD SVG 1.1//EN" "http://www.w3.org/Graphics/SVG/1.1/DTD/svg11.dtd">
<!-- Creator: CorelDRAW 2019 (64-Bit) -->
<svg xmlns="http://www.w3.org/2000/svg" xml:space="preserve" width="2.1772in" height="2.1772in" version="1.1" style="shape-rendering:geometricPrecision; text-rendering:geometricPrecision; image-rendering:optimizeQuality; fill-rule:evenodd; clip-rule:evenodd"
viewBox="0 0 1611.25 1611.25"
 xmlns:xlink="http://www.w3.org/1999/xlink"
 xmlns:xodm="http://www.corel.com/coreldraw/odm/2003">
 <defs>
  <style type="text/css">
   <![CDATA[
    .fil0 {fill:none}
    .fil2 {fill:none;fill-rule:nonzero}
    .fil4 {fill:#001249}
    .fil1 {fill:#F59323}
    .fil8 {fill:#F59323;fill-rule:nonzero}
    .fil7 {fill:black;fill-rule:nonzero;fill-opacity:0.121569}
    .fil3 {fill:#F59323;fill-opacity:0.200000}
    .fil6 {fill:white;fill-rule:nonzero;fill-opacity:0.200000}
    .fil9 {fill:white;fill-opacity:0.400000}
    .fil5 {fill:white;fill-rule:nonzero;fill-opacity:0.400000}
   ]]>
  </style>
 </defs>
 <g id="Layer_x0020_1">
  <metadata id="CorelCorpID_0Corel-Layer"/>
  <g id="_2097885651728">
   <rect class="fil0" x="-0" y="-0" width="1611.25" height="1611.25"/>
   <path class="fil1" d="M371.34 408.61c5.35,-7.96 5.22,-18.7 5.32,-22.46 0.36,-13.54 -3.17,-28.45 -6.8,-41.32 -4.07,-14.44 -7.07,-29.21 -11.14,-43.64 -7.41,-26.3 -19.65,-51.82 -29.07,-77.48 -4.95,-13.48 -9.51,-41.91 -29.78,-33.59 -24.08,9.88 -32.45,34.3 -27.54,58.85 2.07,10.34 7.99,19.49 12.43,28.91 7.58,16.06 15.84,31.29 24.24,46.91 4.65,8.65 8.98,17.51 13.97,26.01 9.62,16.4 15.94,37.45 28.8,51.49 2.41,2.63 14.22,14.28 19.57,6.31z"/>
   <path class="fil1" d="M284.32 470.88c-0.02,-9.6 -6.37,-20.62 -11.97,-27.73 -13.61,-17.29 -36.1,-38.35 -64.34,-58.6 -46.9,-33.63 -53.9,-38.17 -68.01,-26.53 -7.19,5.94 -8.72,39.12 18.76,61.56 39.15,31.97 82.61,59.85 96.97,65.08 4.23,1.54 28.62,6.21 28.59,-13.78z"/>
   <path class="fil2" d="M162.86 681.07c131.93,-198.82 526.65,-233.12 881.64,-76.61 354.99,156.5 535.82,444.55 403.9,643.37 -131.93,198.82 -526.65,233.12 -881.64,76.61 -354.99,-156.51 -535.82,-444.55 -403.9,-643.37z"/>
   <path class="fil3" d="M750.46 386.34l-523.15 824.94c0,0 -94.9,205.75 128.74,211.34l965.51 -212.84c0,0 280.55,-63.83 91.59,-299.83l-329.49 -493.01c0,0 -174.18,-238.72 -333.2,-30.6z"/>
   <path class="fil4" d="M1340.05 515.2c0,0 -822.19,-58.77 -919.2,-61.97 -97.01,-3.2 -124.96,100.34 -121.88,142.72l-30.69 411.49c0,0 -29.78,120.67 166.1,140.41l285.44 35.24c0,0 36.13,110.46 -15.44,193.58 0,0 -8.04,31.02 32.98,20.49 41.01,-10.53 183.3,-110.69 198.59,-199.93 0.17,-0.95 240.46,1.09 315.02,4.76 74.55,3.67 132.57,-12.46 140.78,-82.31l12.05 -82.55 56.89 -389.67c0,0 21.98,-139.12 -120.66,-132.25z"/>
   <path class="fil5" d="M356.05 578.25c0.16,-2.63 -0.98,-5.26 -3.1,-6.86 -5.01,-3.87 -12.41,-0.53 -12.81,5.79l-2.27 33.84c-0.17,2.63 0.98,5.26 3.1,6.86 5.01,3.87 12.41,0.52 12.8,-5.8l2.27 -33.84zm-38.59 337.34c-0.16,2.63 0.98,5.26 3.11,6.86 5.01,3.87 12.41,0.53 12.8,-5.79l4.54 -67.68c0.16,-2.63 -0.98,-5.26 -3.11,-6.86 -5.01,-3.87 -12.41,-0.52 -12.8,5.8l-4.54 67.68zm6.81 -101.52c-0.17,2.63 0.98,5.26 3.1,6.86 5.01,3.87 12.41,0.53 12.8,-5.79l4.54 -67.68c0.16,-2.63 -0.98,-5.26 -3.1,-6.86 -5.01,-3.87 -12.41,-0.53 -12.81,5.79l-4.53 67.68zm6.8 -101.52c-0.17,2.63 0.98,5.26 3.1,6.86 5.01,3.87 12.41,0.53 12.8,-5.79l4.54 -67.68c0.16,-2.63 -0.98,-5.26 -3.1,-6.86 -5.01,-3.87 -12.41,-0.53 -12.8,5.79l-4.54 67.68z"/>
   <path class="fil5" d="M412.94 1103.3c-2.47,-0.31 -4.96,0.56 -6.7,2.35 -4.57,4.72 -1.79,12.65 4.73,13.47l33.66 4.2c2.47,0.31 4.96,-0.56 6.7,-2.35 4.57,-4.72 1.79,-12.65 -4.73,-13.47l-33.66 -4.2zm324.4 56.57c2.47,0.31 4.96,-0.56 6.7,-2.35 4.57,-4.72 1.79,-12.65 -4.73,-13.47l-57.14 -7.14c-2.47,-0.31 -4.96,0.56 -6.7,2.35 -4.57,4.72 -1.79,12.65 4.73,13.47l57.14 7.14zm-90.79 -11.34c2.47,0.31 4.96,-0.56 6.7,-2.35 4.57,-4.72 1.79,-12.65 -4.73,-13.47l-67.31 -8.41c-2.48,-0.31 -4.96,0.56 -6.7,2.35 -4.57,4.72 -1.79,12.65 4.73,13.47l67.31 8.41zm-100.97 -12.61c2.47,0.31 4.96,-0.56 6.7,-2.35 4.57,-4.72 1.79,-12.65 -4.73,-13.47l-67.31 -8.4c-2.47,-0.31 -4.96,0.56 -6.7,2.35 -4.57,4.72 -1.79,12.65 4.73,13.47l67.31 8.4z"/>
   <path class="fil5" d="M745.08 1147.71c-4.13,-6.51 -14.19,-3.96 -14.7,3.76 -0.08,1.71 0.29,3.28 1.21,4.74l0.04 0.06 -0.02 -0.03c1.42,2.31 2.74,4.7 4.02,7.1 3.81,7.14 7.22,14.54 10.26,22.03 2.7,6.75 12.49,6.54 14.9,-0.36 0.66,-1.85 0.59,-3.83 -0.14,-5.66 -2.7,-6.66 -5.68,-13.19 -8.92,-19.6 -2.05,-4.01 -4.24,-8.19 -6.64,-12.02l0.07 0.12 -0.09 -0.15zm145.84 68.08c2.96,-6.85 -4.49,-13.71 -11.09,-10.15 -1.61,0.84 -2.86,2.24 -3.58,3.9 -8.44,20.08 -20.86,38.6 -34.61,55.41 -4.04,4.82 -0.92,12.43 5.36,12.99 2.66,0.3 5.25,-0.83 6.96,-2.87 14.72,-17.99 27.93,-37.79 36.96,-59.29zm-60.19 85c2.34,-2.34 3,-6.06 1.54,-9.04 -2.43,-4.98 -8.94,-6.1 -12.85,-2.19 -15.67,15.83 -32.49,30.43 -50.14,44 -2.61,1.99 -3.73,5.43 -2.8,8.57 1.59,5.38 8.05,7.48 12.5,4.08 18.26,-14.08 35.53,-29.02 51.75,-45.41zm-79.7 65.52c2.88,-1.94 4.15,-5.4 3.26,-8.75 -0.14,-0.49 -0.31,-0.96 -0.53,-1.4 7.54,-12.1 13.48,-25.22 17.64,-38.86 0.66,-2.17 0.35,-4.45 -0.8,-6.4 -3.58,-5.92 -12.45,-4.8 -14.46,1.81 -5.39,17.63 -13.69,33.28 -24.83,47.93 -2.04,2.67 -2.19,6.28 -0.4,9.12 2.51,3.92 7.67,4.77 11.24,2.31 2.98,-1.9 5.94,-3.79 8.88,-5.76zm11.17 -85.21c-0.27,3.24 1.45,6.28 4.34,7.76 5.06,2.53 11.08,-0.8 11.55,-6.46 1.99,-23.45 -0.55,-47.13 -6.44,-69.88 -1.89,-7.38 -12.23,-8.09 -15.1,-1.01 -0.66,1.59 -0.76,3.35 -0.34,5.01 5.45,20.93 7.81,43 5.98,64.57z"/>
   <path class="fil5" d="M885.46 1178.74c-2.21,7.25 6.14,13.22 12.29,8.78 1.42,-1 2.47,-2.51 2.97,-4.16l8.06 -26.69c4.34,-3.2 4.68,-10.59 -1.2,-13.61 -1.1,-0.51 -2.04,-0.76 -3.25,-0.81l-1.13 -0.04c-1.8,-0.2 -3.7,0.23 -5.43,1.48 -1.42,1 -2.47,2.51 -2.97,4.16l-9.34 30.89zm384.27 -8.55c8.54,0.18 11.44,-11.19 3.78,-15.12 -1.1,-0.51 -2.04,-0.76 -3.26,-0.81l-26.95 -0.89c-8.54,-0.18 -11.44,11.19 -3.78,15.12 1.1,0.51 2.03,0.76 3.25,0.81l26.95 0.89zm-60.84 -2c8.55,0.18 11.45,-11.19 3.78,-15.12 -1.1,-0.51 -2.04,-0.76 -3.25,-0.81l-67.8 -2.23c-8.54,-0.18 -11.44,11.19 -3.78,15.12 1.1,0.51 2.04,0.76 3.26,0.81l67.79 2.23zm-101.69 -3.34c8.55,0.18 11.44,-11.19 3.78,-15.12 -1.1,-0.51 -2.04,-0.76 -3.25,-0.81l-67.8 -2.23c-8.54,-0.18 -11.44,11.19 -3.78,15.12 1.1,0.51 2.04,0.76 3.25,0.81l67.8 2.23zm-101.69 -3.34c8.54,0.18 11.44,-11.19 3.78,-15.12 -1.1,-0.51 -2.04,-0.76 -3.25,-0.81l-67.8 -2.23c-8.55,-0.18 -11.44,11.19 -3.78,15.12 1.1,0.51 2.04,0.76 3.25,0.81l67.8 2.23z"/>
   <path class="fil5" d="M1270.95 1154.2l-0.1 -0.01c-8.39,-0.96 -12.51,10.34 -5,14.97 1.01,0.58 1.98,0.92 3.14,1.07l0.07 0.01 -0.02 -0.01 0.25 0.03c1.67,0.3 4.31,0.33 6.03,0.39 16.44,0.42 33.24,-2.13 48.17,-9.27 3.01,-1.45 4.82,-4.5 4.6,-7.84 -0.38,-5.64 -6.4,-9.22 -11.51,-6.76 -13.32,6.36 -30.74,8.82 -45.46,7.44l0.03 0 -0.19 -0.02zm91.14 -45.72c0.6,-3.82 -1.47,-7.5 -5.11,-8.88 -4.71,-1.79 -10.04,1.21 -10.83,6.23 -0.46,2.72 -1.05,5.36 -1.81,8.01 -2.51,8.64 8.97,14.41 14.39,6.88 0.49,-0.72 0.86,-1.48 1.11,-2.33 0.96,-3.27 1.67,-6.54 2.25,-9.91zm-91.14 45.72l0.09 0.01 -0.09 -0.01z"/>
   <path class="fil5" d="M1346.22 1106.17c-0.85,6.78 6.71,11.42 12.37,7.59 1.92,-1.35 3.15,-3.27 3.44,-5.61l4.22 -33.65c0.84,-6.78 -6.71,-11.42 -12.38,-7.59 -1.92,1.35 -3.15,3.27 -3.44,5.61l-4.22 33.65zm70.65 -435.51c0.85,-6.78 -6.71,-11.42 -12.38,-7.59 -1.92,1.35 -3.15,3.27 -3.44,5.61l-8.44 67.31c-0.85,6.78 6.71,11.42 12.37,7.59 1.92,-1.35 3.15,-3.27 3.44,-5.61l8.44 -67.31zm-12.66 100.96c0.85,-6.78 -6.71,-11.42 -12.37,-7.6 -1.92,1.35 -3.15,3.27 -3.44,5.61l-8.43 67.31c-0.85,6.78 6.71,11.42 12.38,7.59 1.92,-1.35 3.15,-3.27 3.44,-5.61l8.43 -67.3zm-12.65 100.96c0.84,-6.78 -6.71,-11.42 -12.38,-7.6 -1.92,1.35 -3.15,3.27 -3.44,5.61l-8.43 67.31c-0.84,6.78 6.71,11.42 12.38,7.59 1.92,-1.35 3.15,-3.27 3.44,-5.61l8.43 -67.3zm-12.65 100.96c0.85,-6.78 -6.71,-11.42 -12.37,-7.59 -1.92,1.35 -3.15,3.27 -3.44,5.61l-8.43 67.3c-0.85,6.78 6.71,11.42 12.37,7.59 1.92,-1.35 3.15,-3.27 3.44,-5.61l8.43 -67.3z"/>
   <path class="fil5" d="M1404.06 646.43l-0.05 0.13 0.05 -0.13zm-1063.84 -69.98c-0.39,2.36 0.34,4.84 1.95,6.61 4.51,4.96 12.69,2.53 13.79,-4.07l0.07 -0.43c0.52,-3.13 -0.79,-6.11 -3.37,-7.92 -4.8,-3.24 -11.39,-0.47 -12.34,5.26l-0.09 0.56zm10 -34.97c-3.09,7.16 4.69,14.02 11.4,10.06 1.46,-0.92 2.45,-2.02 3.17,-3.6 8.55,-19.74 22.95,-33.86 42.92,-41.75 7,-2.64 6.77,-12.71 -0.37,-15.03 -1.8,-0.54 -3.52,-0.54 -5.29,0.13 -23.85,9.31 -41.64,26.67 -51.83,50.18zm51.83 -50.18l5.66 14.9 -5.66 -14.9zm35.19 -7.76c-7.87,0.66 -10.08,11.22 -3.12,14.96 1.39,0.73 2.86,1.05 4.43,0.92 10.92,-0.9 21.69,-0.63 32.59,0.21 6.37,0.48 12.72,1.24 19.08,1.76 3.39,0.26 7.08,0.56 10.43,-0.13 1.64,-0.24 3.33,-0.22 4.99,-0.25 8.63,-0.18 10.96,-11.91 2.94,-15.35 -1.03,-0.41 -2,-0.59 -3.11,-0.59 -2.24,0.03 -4.43,0.08 -6.67,0.34l-0.74 0.11 -0.82 0.17 0.1 -0.02c-1.54,0.23 -4.28,-0.05 -5.86,-0.18 -6.37,-0.53 -12.71,-1.28 -19.09,-1.76 -11.7,-0.94 -23.45,-1.18 -35.16,-0.21zm102.56 2.47c-7.75,-0.32 -11.35,9.54 -5.2,14.29 1.34,1 2.83,1.57 4.51,1.64 22.53,0.96 45.11,2.18 67.62,3.52 3.16,0.2 6.08,-1.52 7.55,-4.31 2.64,-5.15 -0.87,-11.25 -6.63,-11.61 -22.6,-1.33 -45.24,-2.56 -67.86,-3.53zm101.74 5.53c-2.49,-0.15 -4.92,0.87 -6.54,2.77 -4.27,5.01 -0.99,12.73 5.57,13.14 22.56,1.36 45.12,2.76 67.67,4.24 8.09,0.5 11.67,-10.03 4.96,-14.57 -1.16,-0.79 -2.53,-1.25 -3.93,-1.34 -22.57,-1.47 -45.15,-2.88 -67.73,-4.24zm101.58 6.44c-8.02,-0.5 -11.68,9.85 -5.05,14.52 1.21,0.82 2.54,1.3 4.01,1.39 22.56,1.47 45.11,2.98 67.67,4.5 2.59,0.16 5.11,-0.91 6.74,-2.95 4.03,-5.03 0.74,-12.56 -5.67,-12.96 -22.57,-1.52 -45.13,-3.03 -67.7,-4.5zm101.54 6.79c-3.56,-0.22 -6.78,1.86 -8.03,5.21 -1.84,4.94 1.68,10.37 6.94,10.7 22.56,1.54 45.11,3.09 67.66,4.65 3.56,0.22 6.79,-1.85 8.04,-5.2 1.84,-4.94 -1.66,-10.38 -6.93,-10.7 -22.56,-1.57 -45.12,-3.12 -67.68,-4.65zm101.52 7c-7.58,-0.47 -11.52,8.75 -5.79,13.96 1.38,1.18 2.88,1.79 4.69,1.94 22.55,1.57 45.11,3.16 67.66,4.75 7.64,0.48 11.52,-8.91 5.8,-13.96 -1.38,-1.18 -2.87,-1.79 -4.68,-1.95 -22.56,-1.6 -45.11,-3.18 -67.67,-4.75zm101.51 7.15c-3.17,-0.2 -6.05,1.38 -7.58,4.16 -2.72,5.17 0.64,11.25 6.45,11.74l67.65 4.83c6.49,0.4 10.69,-6.48 7.38,-12.09 -1.42,-2.26 -3.57,-3.59 -6.24,-3.81l-67.66 -4.83zm101.5 7.26c-6.12,-0.38 -10.35,5.8 -7.77,11.37 1.25,2.63 3.74,4.29 6.63,4.53 22.55,1.62 45.1,3.25 67.65,4.89 7.08,0.44 11.18,-7.62 6.64,-13.13 -1.47,-1.66 -3.27,-2.59 -5.48,-2.77l-67.66 -4.89zm101.49 7.36c-8.65,-0.54 -11.88,11.02 -4.21,15.05 0.97,0.5 1.96,0.76 3.05,0.85 22.55,1.63 45.1,3.28 67.65,4.96 3.54,0.22 6.71,-1.76 8.02,-5.07 1.88,-5.06 -1.46,-10.38 -6.85,-10.83 -22.55,-1.67 -45.1,-3.33 -67.66,-4.96zm101.48 7.46c-8.63,-0.54 -11.96,10.98 -4.13,15.09 0.97,0.47 1.89,0.72 2.96,0.81 6.78,0.47 22.16,6.8 28.4,10.34 8.62,4.85 16.22,11.74 21.28,20.29 3.6,6.3 13.2,4.8 14.71,-2.42 0.36,-2 0.09,-3.81 -0.92,-5.58 -6.46,-10.96 -16.07,-19.89 -27.13,-26.12 -10.43,-5.94 -21.57,-9.63 -33.26,-12.2 -0.36,-0.08 -0.71,-0.13 -1.06,-0.15 -0.26,-0.03 -0.58,-0.04 -0.85,-0.06zm-1.16 15.84l0.15 -2.05 -0.15 2.05zm73.46 58.8c-0.36,-8.63 -12.13,-10.71 -15.4,-2.63 -0.39,1.05 -0.55,2 -0.53,3.12 0.33,10.03 -1.18,20.11 -4.24,29.65l-0.23 0.65 0.01 -0.03 -0.03 0.07 0.02 -0.05 -0.02 0.05c-2.64,7.1 5.3,13.57 11.72,9.52 1.49,-0.97 2.58,-2.26 3.2,-3.93l0.1 -0.26 -0.01 0.02c0.47,-1.25 0.87,-2.57 1.24,-3.85 3.02,-10.44 4.52,-21.48 4.15,-32.34zm-20.4 30.79l0.04 -0.11 -0.04 0.11z"/>
   <path class="fil1" d="M487.03 396.25c8.09,-5.17 13.97,-16.45 16.97,-24.99 7.28,-20.76 12.97,-51.04 14.89,-85.74 3.18,-57.62 3.25,-65.97 -14.15,-71.61 -8.87,-2.88 -37.68,13.65 -41.86,48.88 -5.95,50.2 -6.12,101.82 -2.83,116.75 0.97,4.39 10.13,27.48 26.97,16.72z"/>
   <path class="fil6" d="M875.15 902.47c-1.03,14.62 -7.01,26.46 -17.92,35.48 -10.92,9.04 -24.05,13.01 -39.38,11.93 -14.41,-1.01 -26.62,-6.77 -36.63,-17.27 -10.01,-10.49 -14.51,-22.84 -13.51,-37.02l3.18 -45.2c1.37,-19.5 5.07,-31.93 11.09,-37.3 6.02,-5.36 11.31,-8.78 15.88,-10.24 4.57,-1.45 20.57,-3.33 48.01,-5.64 27.43,-2.3 42.19,-18.08 44.24,-47.33 0.97,-13.73 -3.62,-25.41 -13.76,-35.04 -10.15,-9.61 -23.87,-15.04 -41.18,-16.25 -12.18,-0.86 -23.11,0.83 -32.8,5.04 -9.71,4.22 -20.14,12.18 -31.3,23.85l-10.62 10.61c-11.58,10.77 -24.62,15.64 -39.12,14.62 -14.04,-0.99 -25.2,-6.22 -33.46,-15.71 -8.27,-9.49 -11.88,-21.55 -10.86,-36.17 2.12,-30.13 19.88,-55.39 53.3,-75.75 33.41,-20.37 71.4,-29.05 113.99,-26.06 50.54,3.55 91.02,19.76 121.44,48.62 30.42,28.86 44.15,64.35 41.19,106.45 -2.68,38.12 -14.38,65.57 -35.07,82.38 -20.7,16.81 -36.49,27.39 -47.38,31.74 -10.89,4.36 -26.82,8.47 -47.78,12.34l-1.54 21.94zm-59.68 81.31l0 0c16.75,1.18 30.65,7.83 41.73,19.97 11.07,12.14 16.05,26.18 14.93,42.13 -1.12,15.95 -8,28.95 -20.63,38.97 -12.63,10.02 -27.55,14.43 -44.75,13.22 -16.28,-1.15 -29.86,-7.67 -40.7,-19.56 -10.86,-11.89 -15.74,-25.6 -14.64,-41.11 1.12,-15.95 8,-29.17 20.66,-39.63 12.66,-10.47 27.13,-15.13 43.42,-13.98z"/>
   <path class="fil7" d="M915.42 905.3c-1.03,14.62 -7.01,26.46 -17.92,35.48 -10.92,9.04 -24.05,13.01 -39.38,11.93 -14.41,-1.01 -26.63,-6.76 -36.63,-17.27 -10.01,-10.49 -14.51,-22.84 -13.51,-37.02l3.18 -45.2c1.37,-19.49 5.07,-31.93 11.09,-37.3 6.02,-5.36 11.31,-8.78 15.89,-10.24 4.57,-1.45 20.57,-3.33 48.01,-5.64 27.43,-2.3 42.19,-18.08 44.24,-47.33 0.97,-13.73 -3.62,-25.41 -13.76,-35.04 -10.15,-9.62 -23.87,-15.04 -41.18,-16.25 -12.18,-0.86 -23.11,0.83 -32.8,5.04 -9.71,4.22 -20.14,12.17 -31.3,23.85l-10.62 10.61c-11.58,10.77 -24.62,15.64 -39.12,14.62 -14.04,-0.99 -25.2,-6.22 -33.46,-15.71 -8.27,-9.49 -11.88,-21.55 -10.86,-36.17 2.12,-30.13 19.88,-55.39 53.3,-75.75 33.41,-20.36 71.4,-29.05 113.99,-26.05 50.54,3.55 91.02,19.76 121.44,48.62 30.42,28.86 44.15,64.34 41.19,106.44 -2.68,38.12 -14.38,65.58 -35.07,82.38 -20.7,16.81 -36.49,27.39 -47.38,31.74 -10.89,4.36 -26.82,8.47 -47.78,12.34l-1.54 21.94zm-59.68 81.31l0 0c16.75,1.18 30.65,7.83 41.72,19.97 11.07,12.14 16.05,26.18 14.93,42.13 -1.12,15.95 -8,28.95 -20.63,38.97 -12.63,10.02 -27.55,14.43 -44.75,13.22 -16.28,-1.15 -29.86,-7.67 -40.7,-19.57 -10.86,-11.89 -15.74,-25.59 -14.64,-41.11 1.12,-15.95 8,-29.17 20.66,-39.63 12.66,-10.47 27.13,-15.13 43.42,-13.98z"/>
   <path class="fil8" d="M895.29 903.88c-1.03,14.62 -7.01,26.46 -17.92,35.48 -10.92,9.04 -24.05,13 -39.38,11.93 -14.41,-1.01 -26.62,-6.76 -36.63,-17.27 -10.01,-10.49 -14.51,-22.84 -13.51,-37.02l3.18 -45.2c1.37,-19.49 5.07,-31.93 11.09,-37.3 6.02,-5.36 11.31,-8.78 15.88,-10.24 4.57,-1.45 20.57,-3.33 48.01,-5.64 27.43,-2.3 42.18,-18.08 44.24,-47.33 0.96,-13.73 -3.63,-25.41 -13.76,-35.04 -10.15,-9.62 -23.87,-15.04 -41.18,-16.26 -12.18,-0.86 -23.11,0.83 -32.8,5.04 -9.71,4.22 -20.14,12.17 -31.3,23.85l-10.62 10.61c-11.58,10.77 -24.62,15.64 -39.12,14.62 -14.04,-0.99 -25.2,-6.22 -33.46,-15.71 -8.27,-9.49 -11.89,-21.55 -10.86,-36.17 2.12,-30.13 19.88,-55.39 53.3,-75.75 33.41,-20.37 71.4,-29.05 113.99,-26.06 50.54,3.55 91.02,19.76 121.44,48.62 30.42,28.86 44.15,64.35 41.19,106.44 -2.68,38.12 -14.38,65.58 -35.07,82.38 -20.7,16.81 -36.49,27.39 -47.38,31.74 -10.89,4.36 -26.82,8.47 -47.78,12.34l-1.54 21.94zm-59.68 81.31l0 0c16.75,1.18 30.65,7.83 41.73,19.97 11.07,12.14 16.05,26.18 14.92,42.13 -1.12,15.95 -8,28.95 -20.63,38.97 -12.63,10.02 -27.54,14.43 -44.75,13.22 -16.29,-1.15 -29.86,-7.67 -40.71,-19.56 -10.86,-11.89 -15.74,-25.6 -14.64,-41.11 1.12,-15.95 8,-29.17 20.66,-39.63 12.66,-10.47 27.13,-15.13 43.42,-13.98z"/>
   <path class="fil5" d="M331.4 944.52l0 -0.02c0.69,-3.01 -0.44,-6.1 -2.84,-8.02 -4.63,-3.6 -11.37,-1.24 -12.71,4.48l15.54 3.56zm79.56 174.59c3.54,0.44 6.93,-1.5 8.33,-4.79 2.08,-4.85 -1.11,-10.38 -6.34,-11.03 -14.82,-1.93 -28.86,-5.92 -41.68,-13.78 -7.12,-4.34 -15.28,3.68 -11.02,10.9 0.69,1.12 1.51,1.95 2.63,2.65 14.94,9.12 30.82,13.79 48.08,16.05zm-75.16 -40.95c4.1,5.71 13.21,3.57 14.31,-3.38 0.38,-2.08 -0.19,-4.27 -1.41,-5.98 -12.72,-17.34 -18.52,-38.2 -20.71,-59.36 -0.35,-3.31 -2.65,-6.03 -5.86,-6.9 -5.36,-1.46 -10.58,2.97 -10.01,8.49 2.49,24.03 9.22,47.44 23.67,67.13zm-24.38 -102.24c-0.29,7.06 7.82,11.03 13.17,6.47 1.67,-1.52 2.6,-3.32 2.74,-5.59l0.04 -0.75c0.61,-10.25 1.8,-20.61 3.84,-30.69l0.18 -0.83 -4.06 32.27 -11.47 -35.83c-0.14,0.54 -0.25,1.16 -0.37,1.72 -2.17,10.96 -3.44,22.08 -4.08,33.23l0 0.01zm4.44 -34.96l15.54 3.56 -0.01 0.04 0.01 -0.04 -15.54 -3.56z"/>
   <path class="fil9" d="M327.38 976.04c0.61,-10.25 1.8,-20.62 3.84,-30.69l0.18 -0.83 -15.54 -3.57 11.47 35.83 0.04 -0.75z"/>
  </g>
 </g>
</svg>
