<?xml version="1.0" encoding="UTF-8"?>
<!DOCTYPE svg PUBLIC "-//W3C//DTD SVG 1.1//EN" "http://www.w3.org/Graphics/SVG/1.1/DTD/svg11.dtd">
<!-- Creator: CorelDRAW 2019 (64-Bit) -->
<svg xmlns="http://www.w3.org/2000/svg" xml:space="preserve" width="3.09241in" height="1.97111in" version="1.1" style="shape-rendering:geometricPrecision; text-rendering:geometricPrecision; image-rendering:optimizeQuality; fill-rule:evenodd; clip-rule:evenodd"
viewBox="0 0 1343.68 856.47"
 xmlns:xlink="http://www.w3.org/1999/xlink"
 xmlns:xodm="http://www.corel.com/coreldraw/odm/2003">
 <defs>
  <style type="text/css">
   <![CDATA[
    .fil24 {fill:#001249}
    .fil25 {fill:#20D7CD}
    .fil26 {fill:#F59323}
    .fil6 {fill:#FCE0BE;fill-rule:nonzero}
    .fil1 {fill:#001249;fill-opacity:0.200000}
    .fil0 {fill:#001249;fill-opacity:0.301961}
    .fil2 {fill:#332C2B;fill-rule:nonzero;fill-opacity:0.501961}
    .fil3 {fill:url(#id0)}
    .fil18 {fill:url(#id1)}
    .fil12 {fill:url(#id2)}
    .fil14 {fill:url(#id3)}
    .fil9 {fill:url(#id4)}
    .fil13 {fill:url(#id5)}
    .fil23 {fill:url(#id6)}
    .fil15 {fill:url(#id7)}
    .fil19 {fill:url(#id8)}
    .fil8 {fill:url(#id9)}
    .fil22 {fill:url(#id10)}
    .fil10 {fill:url(#id11)}
    .fil16 {fill:url(#id12)}
    .fil21 {fill:url(#id13)}
    .fil11 {fill:url(#id14)}
    .fil17 {fill:url(#id15)}
    .fil5 {fill:url(#id16)}
    .fil20 {fill:url(#id17)}
    .fil7 {fill:url(#id18)}
    .fil4 {fill:url(#id19)}
   ]]>
  </style>
  <linearGradient id="id0" gradientUnits="userSpaceOnUse" x1="611.94" y1="587.49" x2="440.83" y2="381.92">
   <stop offset="0" style="stop-opacity:1; stop-color:#F59323"/>
   <stop offset="1" style="stop-opacity:1; stop-color:#C77518"/>
  </linearGradient>
  <linearGradient id="id1" gradientUnits="userSpaceOnUse" x1="488.33" y1="424.76" x2="454.89" y2="381.01">
   <stop offset="0" style="stop-opacity:1; stop-color:#FAD8C9"/>
   <stop offset="1" style="stop-opacity:1; stop-color:#F29F81"/>
  </linearGradient>
  <linearGradient id="id2" gradientUnits="userSpaceOnUse" x1="664.79" y1="238.26" x2="532.47" y2="248.52">
   <stop offset="0" style="stop-opacity:1; stop-color:#4D4D4D"/>
   <stop offset="1" style="stop-opacity:1; stop-color:#1A1A1A"/>
  </linearGradient>
  <linearGradient id="id3" gradientUnits="userSpaceOnUse" x1="556.45" y1="529" x2="731.31" y2="349.05">
   <stop offset="0" style="stop-opacity:1; stop-color:#C7C7C7"/>
   <stop offset="1" style="stop-opacity:1; stop-color:#FCFCFC"/>
  </linearGradient>
  <linearGradient id="id4" gradientUnits="userSpaceOnUse" x1="572.2" y1="274.84" x2="556.45" y2="267.27">
   <stop offset="0" style="stop-opacity:1; stop-color:#E5C094"/>
   <stop offset="1" style="stop-opacity:1; stop-color:#EE9962"/>
  </linearGradient>
  <linearGradient id="id5" gradientUnits="userSpaceOnUse" xlink:href="#id1" x1="613.78" y1="263.27" x2="591.74" y2="251.66">
  </linearGradient>
  <linearGradient id="id6" gradientUnits="userSpaceOnUse" xlink:href="#id0" x1="274.78" y1="609.7" x2="513.53" y2="622.92">
  </linearGradient>
  <linearGradient id="id7" gradientUnits="userSpaceOnUse" xlink:href="#id1" x1="514.77" y1="376.1" x2="526.99" y2="514.67">
  </linearGradient>
  <linearGradient id="id8" gradientUnits="userSpaceOnUse" xlink:href="#id1" x1="589.49" y1="372.52" x2="601.15" y2="530.23">
  </linearGradient>
  <linearGradient id="id9" gradientUnits="userSpaceOnUse" xlink:href="#id0" x1="435.68" y1="549.27" x2="464.31" y2="318.37">
  </linearGradient>
  <linearGradient id="id10" gradientUnits="userSpaceOnUse" x1="217.43" y1="527.84" x2="195.12" y2="653.6">
   <stop offset="0" style="stop-opacity:1; stop-color:#4F4F4F"/>
   <stop offset="1" style="stop-opacity:1; stop-color:#262626"/>
  </linearGradient>
  <linearGradient id="id11" gradientUnits="userSpaceOnUse" xlink:href="#id1" x1="656.67" y1="303.79" x2="603.42" y2="278.7">
  </linearGradient>
  <linearGradient id="id12" gradientUnits="userSpaceOnUse" xlink:href="#id3" x1="402.78" y1="375.82" x2="496.74" y2="368.72">
  </linearGradient>
  <linearGradient id="id13" gradientUnits="userSpaceOnUse" xlink:href="#id1" x1="183.45" y1="595.16" x2="297.97" y2="601.51">
  </linearGradient>
  <linearGradient id="id14" gradientUnits="userSpaceOnUse" xlink:href="#id1" x1="647.44" y1="266.21" x2="549.2" y2="221.71">
  </linearGradient>
  <linearGradient id="id15" gradientUnits="userSpaceOnUse" x1="409.01" y1="372.05" x2="483.59" y2="366.41">
   <stop offset="0" style="stop-opacity:1; stop-color:#FAF8FB"/>
   <stop offset="0.0509804" style="stop-opacity:1; stop-color:#FAF8FB"/>
   <stop offset="1" style="stop-opacity:1; stop-color:#95C2E8"/>
  </linearGradient>
  <linearGradient id="id16" gradientUnits="userSpaceOnUse" xlink:href="#id1" x1="374.44" y1="633.39" x2="387.96" y2="521.34">
  </linearGradient>
  <linearGradient id="id17" gradientUnits="userSpaceOnUse" xlink:href="#id3" x1="641.98" y1="452.27" x2="545.48" y2="362.01">
  </linearGradient>
  <linearGradient id="id18" gradientUnits="userSpaceOnUse" x1="304.63" y1="599.53" x2="448.64" y2="617.76">
   <stop offset="0" style="stop-opacity:1; stop-color:#2C357E"/>
   <stop offset="1" style="stop-opacity:1; stop-color:#222A44"/>
  </linearGradient>
  <linearGradient id="id19" gradientUnits="userSpaceOnUse" xlink:href="#id0" x1="732.12" y1="568.77" x2="476.47" y2="634.02">
  </linearGradient>
 </defs>
 <g id="Layer_x0020_1">
  <metadata id="CorelCorpID_0Corel-Layer"/>
  <g id="_2097899813104">
   <path class="fil0" d="M513.44 694.5c-381.62,102.25 -548,-449.13 -139.54,-600.23 163.45,-60.47 258.04,117.62 429.39,40.42 1011.53,-455.75 395.44,376.19 -289.85,559.81z"/>
   <path class="fil1" d="M1026.74 57.59c-789.07,153.4 -760.16,290.21 -689.5,457.48 411.9,975.09 1557.39,-626.21 689.5,-457.48z"/>
   <path class="fil1" d="M700.26 199.44c-450.77,28.22 -816.34,-206.82 -665.88,116.9 604.28,1300.1 1371.55,-161.07 665.88,-116.9z"/>
   <path class="fil2" d="M1085.56 650.33c0,17.19 -211.62,31.12 -472.66,31.12 -261.04,0 -472.66,-13.93 -472.66,-31.12 0,-17.19 211.62,-31.12 472.66,-31.12 261.04,0 472.66,13.94 472.66,31.12z"/>
   <path class="fil3" d="M482.39 358.72c33.87,23.91 62.44,55.2 89.55,86.32 13.47,15.46 53.92,79.46 66.25,95.87 23.35,31.07 12.42,30.58 -29.33,52.87 -5.28,2.82 -11.06,4.56 -17.01,5.17 -70.1,7.13 -102.47,-84.73 -123.53,-134.13 -9.14,-21.45 -19.03,-47.96 -26.81,-69.95 6.07,-39.19 40.88,-36.16 40.88,-36.16z"/>
   <path class="fil4" d="M463.03 594.73c35.98,-20.6 76.4,-33.29 116.07,-44.72 19.7,-5.68 94.79,-15.32 114.88,-19.57 38.03,-8.04 32.97,1.66 35.54,48.91 0.32,5.98 -0.53,11.96 -2.5,17.61 -23.14,66.55 -120.08,57.09 -173.75,55.33 -23.3,-0.77 -51.51,-3 -74.72,-5.23 -32.96,-22.05 -15.52,-52.33 -15.52,-52.33z"/>
   <path class="fil5" d="M449.09 609.72c0.05,-3.46 -0.94,-7.07 -1.68,-10.54 -0.21,-0.99 -1.63,-10.53 -1.52,-11.57 1.58,-15.1 10.22,-56.19 10.22,-56.19l-41.4 -6.52c0,0 0.75,36.77 -8.13,57.04l0.05 0.01c-19.81,7.54 -54.5,16.43 -54.5,16.43 0,0 -37.88,0.69 -39.94,1.25 -2.06,0.56 -7.07,1.18 -13.3,5.46 0,0 -5.7,8.94 39.49,22.9 0,0 19.35,7.3 52.13,6.89 7.03,0.4 14.06,0.79 21.09,1.19 7.22,0.4 28.73,2.8 31.82,1.14 1.19,-0.64 2.04,-1.35 2.65,-2.13 4.7,-5.99 2.89,-18.17 3.02,-25.37z"/>
   <path class="fil6" d="M432.98 562.61c0.51,2.37 0.9,4.76 1.22,7.16 1.13,-2.13 2.22,-4.28 3.29,-6.44l-4.51 -0.72z"/>
   <path class="fil7" d="M447.41 599.19c-0.12,-0.57 -0.65,-4.01 -1.05,-7 -1.71,0.63 -3.39,1.21 -5.03,1.76 -18.96,6.32 -37.95,2.66 -56.26,-4.08l-0.98 -0.42c-16.29,4.92 -31.95,8.94 -31.95,8.94 0,0 -37.88,0.69 -39.94,1.26 -2.06,0.56 -7.07,1.18 -13.3,5.46 0,0 -5.7,8.94 39.49,22.9 0,0 19.35,7.3 52.13,6.89 7.03,0.4 14.06,0.79 21.09,1.19 7.22,0.4 28.73,2.8 31.82,1.14 1.19,-0.64 2.04,-1.35 2.65,-2.13 4.7,-5.99 2.89,-18.17 3.02,-25.37 0.05,-3.46 -0.94,-7.07 -1.68,-10.54z"/>
   <path class="fil8" d="M460.93 358.42l-0.34 -0.01c-18.81,-0.57 -34.81,13.63 -36.6,32.36 -4.4,45.85 -10.61,113.75 -14.13,152.48l42.65 8.08c12.23,-38.24 22.14,-77.54 28.55,-117.23 2.79,-17.24 5.67,-45.65 6.33,-63.1 0.12,-3.23 -5.17,-8.77 -5,-12.3 -8.7,-1.24 -12.06,-0.01 -21.47,-0.3z"/>
   <polygon class="fil9" points="562.56,254.57 570.46,278.47 556.68,283.03 "/>
   <path class="fil10" d="M604.31 277.47c0.44,7.8 2.36,53.7 2.36,53.7 5.1,4.97 28.05,5.18 37.05,-3.69 7.17,-7.05 7.54,-12.93 7.54,-12.93l-7.86 -66.65 -39.09 29.57z"/>
   <path class="fil11" d="M636.19 197.49l4.31 23.64 6.57 36.07 1.85 10.15c-20.21,41.19 -58.28,48.26 -71.73,36.03 -13.44,-12.22 -24.73,-86.99 -24.73,-86.99l83.73 -18.9z"/>
   <path class="fil12" d="M633.63 302.7c0,0 -33.93,-59.54 -43.41,-63.99 -9.48,-4.45 -39.38,5.09 -57.42,-17.93 -17.81,-22.71 -9.08,-35.89 -2.84,-37.56 6.23,-1.66 19.84,20.92 39.76,5.35 20.27,-15.85 63.83,-19.15 71.8,-2.65 0,0 27.46,0.71 24.34,38.32 -3.12,37.61 -11.04,69.62 -19.92,73.08l-12.32 5.38z"/>
   <path class="fil13" d="M610.79 236.86c9.96,6.83 11.19,28.65 -6.02,42.03l-10.12 -35.2c0.55,-5.59 9.6,-11.33 16.15,-6.84z"/>
   <path class="fil14" d="M648.35 316.14c-25.89,3.04 -66.61,10.64 -74.11,40.5 -4,15.91 -3.44,32.92 -0.58,48.98 2.24,12.6 4.3,25.22 5.79,37.94 2.51,21.49 5.53,45.69 -0.37,66.9l-24.27 44.47c0,0 117.84,51.99 176.27,-16.87 0,0 -3.71,-171.49 -31.1,-211.65 -3.33,-4.89 -11.69,-7.07 -16.92,-8.36 -11.57,-2.86 -23.21,-3.26 -34.72,-1.9z"/>
   <path class="fil15" d="M435.48 381.24c0,0 2.79,22.18 15.79,37.04 13,14.87 27.84,20.76 40.02,36.47 9.58,12.35 104.85,103.74 114.54,70.42 1.27,-4.37 -0.3,-9.01 -2.03,-13.22 -16.17,-39.39 -55.55,-56.06 -89.97,-76.78l-13.06 -8.73c0,0 -5.67,-22.44 -19.45,-34.82l-45.84 -10.38z"/>
   <path class="fil16" d="M431.17 326.05l-28.63 32.4c-2,2.27 -1.81,5.71 0.43,7.74l58.17 52.67c2.26,2.04 5.74,1.88 7.78,-0.38l28.09 -30.95c2.02,-2.22 1.89,-5.66 -0.31,-7.72l-57.63 -54.12c-2.26,-2.13 -5.85,-1.96 -7.91,0.37z"/>
   <polygon class="fil17" points="408.25,362.01 457.86,407.08 484.45,377.79 435.38,331.31 "/>
   <path class="fil18" d="M465.03 418.72c0,0 4.35,-2.63 2.56,-10.89 -1.79,-8.26 -5.58,-27.75 -5.58,-27.75 0,0 0.06,-6.96 2.81,-5.43 2.76,1.54 8.71,5.84 11.02,17.93 0,0 2.4,10.4 5.07,13.07 2.68,2.67 9.67,9.93 10.93,21.42 0,0 -19.61,6.62 -26.81,-8.34z"/>
   <path class="fil19" d="M609.92 524.68c4,-5.35 4.59,-12.93 4.86,-20.92 0.66,-19.46 1.61,-38.89 2.47,-58.33 0.38,-8.66 0.76,-17.33 1.06,-25.99 0.59,-17.7 1.79,-43.7 -21.37,-47.93 -5.27,-0.96 -12.11,2.93 -15.39,6.53 -2.47,2.71 -3.99,6.47 -4.92,10.71 -2,9 -1.4,20.15 -1.84,27.97 -0.89,16.05 -1.5,32.14 -1.6,48.26 -0.07,10.36 -0.01,20.74 0.55,31.13 0.46,8.56 0.17,19.36 4.1,27.36 4.19,8.54 14.53,9.83 22.2,7.63 4.61,-1.31 7.75,-3.55 9.9,-6.43z"/>
   <path class="fil20" d="M628.29 454.35c-3.19,-24.02 0.18,-110.31 -34.22,-113.83 -38.05,-3.9 -30.68,114.86 -30.68,114.86l64.9 -1.03z"/>
   <path class="fil21" d="M216.51 653.11c3.42,-0.53 6.81,-2.13 10.1,-3.44 0.94,-0.37 10.1,-3.4 11.14,-3.47 15.15,-1.01 57.11,0.51 57.11,0.51l-0.62 -41.91c0,0 -36.11,6.99 -57.59,1.69l0 0.05c-10.8,-18.24 -34.25,-43.1 -34.25,-43.1 0,0 -7.95,-20.28 -8.85,-22.23 -0.91,-1.94 5.6,-6.67 0.32,-12.08 0,0 -1.02,-28.06 -7.09,18.84 0,0 -11.01,19.45 -5.03,51.68 0.81,6.99 1.61,13.99 2.42,20.98 0.82,7.18 2.11,28.79 4.28,31.55 0.84,1.07 1.68,1.79 2.55,2.25 6.7,3.6 18.39,-0.24 25.51,-1.35z"/>
   <path class="fil22" d="M226.41 649.75c-1.97,-10.57 -1.63,-22.05 -0.69,-31.54 0.67,-6.79 2.44,-14.42 5.65,-21.09 -9.74,-18.23 -20.18,-41.48 -20.18,-41.48 0,0 -7.4,-26.65 -8.31,-28.59 -0.9,-1.94 -2.37,-6.77 -7.64,-12.17 0,0 -9.5,-14.65 -15.57,32.25 0,0 -3.9,20.32 2.08,52.55 0.81,6.99 1.61,13.99 2.42,20.98 0.83,7.18 2.12,28.79 4.28,31.55 0.84,1.07 1.68,1.79 2.55,2.25 6.7,3.6 18.39,-0.24 25.51,-1.35 3.35,-0.52 6.66,-2.06 9.9,-3.36z"/>
   <path class="fil23" d="M274.63 646.56c49.39,6.88 157.84,16.31 219.1,-4.62 9.63,-3.29 19.96,-13.08 21.04,-23.67 0.83,-8.19 -2.57,-20.19 -9.61,-25.14 -5.82,-4.09 -25.13,-5.45 -31.85,-5.15 -19.03,0.86 -140.55,10.55 -197.96,15.17l-0.72 43.41z"/>
   <path class="fil24" d="M1176.38 238.21l-473.65 0c-14.94,0 -27.06,12.11 -27.06,27.05l0 349.49c0,14.96 12.11,27.07 27.06,27.07l473.65 0c14.94,0 27.06,-12.12 27.06,-27.07l0 -349.49c0,-14.94 -12.12,-27.05 -27.06,-27.05z"/>
   <rect class="fil25" x="745.85" y="333.64" width="387.42" height="54.31" rx="11.09" ry="9.44"/>
   <rect class="fil25" x="745.85" y="412.86" width="387.42" height="54.31" rx="11.09" ry="9.44"/>
   <rect class="fil26" x="844.56" y="492.08" width="189.99" height="54.31" rx="5.44" ry="9.44"/>
  </g>
 </g>
</svg>
