<?xml version="1.0" encoding="UTF-8"?>
<!DOCTYPE svg PUBLIC "-//W3C//DTD SVG 1.1//EN" "http://www.w3.org/Graphics/SVG/1.1/DTD/svg11.dtd">
<!-- Creator: CorelDRAW 2019 (64-Bit) -->
<svg xmlns="http://www.w3.org/2000/svg" xml:space="preserve" width="3.09241in" height="1.97111in" version="1.1" style="shape-rendering:geometricPrecision; text-rendering:geometricPrecision; image-rendering:optimizeQuality; fill-rule:evenodd; clip-rule:evenodd"
viewBox="0 0 10383.87 6618.72"
 xmlns:xlink="http://www.w3.org/1999/xlink"
 xmlns:xodm="http://www.corel.com/coreldraw/odm/2003">
 <defs>
  <style type="text/css">
   <![CDATA[
    .fil24 {fill:#001249}
    .fil6 {fill:#FCE0BE;fill-rule:nonzero}
    .fil1 {fill:#001249;fill-opacity:0.200000}
    .fil0 {fill:#001249;fill-opacity:0.301961}
    .fil2 {fill:#332C2B;fill-rule:nonzero;fill-opacity:0.501961}
    .fil15 {fill:url(#id0)}
    .fil3 {fill:url(#id1)}
    .fil14 {fill:url(#id2)}
    .fil23 {fill:url(#id3)}
    .fil17 {fill:url(#id4)}
    .fil9 {fill:url(#id5)}
    .fil5 {fill:url(#id6)}
    .fil10 {fill:url(#id7)}
    .fil16 {fill:url(#id8)}
    .fil19 {fill:url(#id9)}
    .fil20 {fill:url(#id10)}
    .fil21 {fill:url(#id11)}
    .fil12 {fill:url(#id12)}
    .fil4 {fill:url(#id13)}
    .fil8 {fill:url(#id14)}
    .fil22 {fill:url(#id15)}
    .fil13 {fill:url(#id16)}
    .fil11 {fill:url(#id17)}
    .fil7 {fill:url(#id18)}
    .fil18 {fill:url(#id19)}
   ]]>
  </style>
  <linearGradient id="id0" gradientUnits="userSpaceOnUse" x1="3811.45" y1="2796.86" x2="3905.92" y2="3867.73">
   <stop offset="0" style="stop-opacity:1; stop-color:#FAD8C9"/>
   <stop offset="1" style="stop-opacity:1; stop-color:#F29F81"/>
  </linearGradient>
  <linearGradient id="id1" gradientUnits="userSpaceOnUse" x1="4562.41" y1="4430.5" x2="3240.09" y2="2841.84">
   <stop offset="0" style="stop-opacity:1; stop-color:#F59323"/>
   <stop offset="1" style="stop-opacity:1; stop-color:#C77518"/>
  </linearGradient>
  <linearGradient id="id2" gradientUnits="userSpaceOnUse" x1="4133.55" y1="3978.41" x2="5484.91" y2="2587.81">
   <stop offset="0" style="stop-opacity:1; stop-color:#C7C7C7"/>
   <stop offset="1" style="stop-opacity:1; stop-color:#FCFCFC"/>
  </linearGradient>
  <linearGradient id="id3" gradientUnits="userSpaceOnUse" xlink:href="#id1" x1="1956.84" y1="4602.04" x2="3801.92" y2="4704.27">
  </linearGradient>
  <linearGradient id="id4" gradientUnits="userSpaceOnUse" x1="2994.16" y1="2765.5" x2="3570.52" y2="2721.92">
   <stop offset="0" style="stop-opacity:1; stop-color:#FAF8FB"/>
   <stop offset="0.0509804" style="stop-opacity:1; stop-color:#FAF8FB"/>
   <stop offset="1" style="stop-opacity:1; stop-color:#95C2E8"/>
  </linearGradient>
  <linearGradient id="id5" gradientUnits="userSpaceOnUse" x1="4255.28" y1="2014.32" x2="4133.57" y2="1955.82">
   <stop offset="0" style="stop-opacity:1; stop-color:#E5C094"/>
   <stop offset="1" style="stop-opacity:1; stop-color:#EE9962"/>
  </linearGradient>
  <linearGradient id="id6" gradientUnits="userSpaceOnUse" xlink:href="#id0" x1="2726.99" y1="4785.18" x2="2831.55" y2="3919.26">
  </linearGradient>
  <linearGradient id="id7" gradientUnits="userSpaceOnUse" xlink:href="#id0" x1="4908.11" y1="2238.09" x2="4496.56" y2="2044.14">
  </linearGradient>
  <linearGradient id="id8" gradientUnits="userSpaceOnUse" xlink:href="#id2" x1="2946.03" y1="2794.67" x2="3672.19" y2="2739.79">
  </linearGradient>
  <linearGradient id="id9" gradientUnits="userSpaceOnUse" xlink:href="#id0" x1="4388.9" y1="2769.18" x2="4479.02" y2="3987.91">
  </linearGradient>
  <linearGradient id="id10" gradientUnits="userSpaceOnUse" xlink:href="#id2" x1="4794.55" y1="3385.52" x2="4048.83" y2="2687.96">
  </linearGradient>
  <linearGradient id="id11" gradientUnits="userSpaceOnUse" xlink:href="#id0" x1="1251.07" y1="4489.7" x2="2136.1" y2="4538.8">
  </linearGradient>
  <linearGradient id="id12" gradientUnits="userSpaceOnUse" x1="4970.85" y1="1731.67" x2="3948.22" y2="1810.96">
   <stop offset="0" style="stop-opacity:1; stop-color:#4D4D4D"/>
   <stop offset="1" style="stop-opacity:1; stop-color:#1A1A1A"/>
  </linearGradient>
  <linearGradient id="id13" gradientUnits="userSpaceOnUse" xlink:href="#id1" x1="5491.17" y1="4285.74" x2="3515.54" y2="4789.99">
  </linearGradient>
  <linearGradient id="id14" gradientUnits="userSpaceOnUse" xlink:href="#id1" x1="3200.27" y1="4135.07" x2="3421.5" y2="2350.69">
  </linearGradient>
  <linearGradient id="id15" gradientUnits="userSpaceOnUse" x1="1513.64" y1="3969.49" x2="1341.24" y2="4941.32">
   <stop offset="0" style="stop-opacity:1; stop-color:#4F4F4F"/>
   <stop offset="1" style="stop-opacity:1; stop-color:#262626"/>
  </linearGradient>
  <linearGradient id="id16" gradientUnits="userSpaceOnUse" xlink:href="#id0" x1="4576.65" y1="1924.91" x2="4406.32" y2="1835.19">
  </linearGradient>
  <linearGradient id="id17" gradientUnits="userSpaceOnUse" xlink:href="#id0" x1="4836.75" y1="1947.64" x2="4077.53" y2="1603.71">
  </linearGradient>
  <linearGradient id="id18" gradientUnits="userSpaceOnUse" x1="2187.51" y1="4523.46" x2="3300.47" y2="4664.33">
   <stop offset="0" style="stop-opacity:1; stop-color:#2C357E"/>
   <stop offset="1" style="stop-opacity:1; stop-color:#222A44"/>
  </linearGradient>
  <linearGradient id="id19" gradientUnits="userSpaceOnUse" xlink:href="#id0" x1="3607.14" y1="3172.91" x2="3348.71" y2="2834.8">
  </linearGradient>
 </defs>
 <g id="Layer_x0020_1">
  <metadata id="CorelCorpID_0Corel-Layer"/>
  <g id="_2097894688912">
   <path class="fil0" d="M3967.79 5367.05c-2949.13,790.21 -4234.87,-3470.85 -1078.32,-4638.56 1263.15,-467.27 1994.13,908.99 3318.25,312.39 7817,-3522 3055.92,2907.15 -2239.93,4326.17z"/>
   <path class="fil1" d="M7934.53 445.05c-6097.89,1185.47 -5874.46,2242.68 -5328.4,3535.39 3183.12,7535.42 12035.36,-4839.27 5328.4,-3535.39z"/>
   <path class="fil1" d="M5411.55 1541.27c-3483.54,218.05 -6308.63,-1598.26 -5145.88,903.36 4669.82,10047.09 10599.24,-1244.72 5145.88,-903.36z"/>
   <path class="fil2" d="M8222.53 4916.09c0,132.83 -1635.38,240.48 -3652.69,240.48 -2017.31,0 -3652.69,-107.65 -3652.69,-240.48 0,-132.82 1635.38,-240.51 3652.69,-240.51 2017.31,0 3652.69,107.69 3652.69,240.51z"/>
   <path class="fil3" d="M3561.26 2662.49c261.71,184.75 482.5,426.57 692.05,667.04 104.08,119.47 416.71,614.08 511.99,740.91 180.43,240.14 95.99,236.32 -226.66,408.59 -40.81,21.79 -85.47,35.27 -131.49,39.96 -541.7,55.1 -791.86,-654.8 -954.64,-1036.52 -70.65,-165.75 -147.08,-370.62 -207.21,-540.52 46.89,-302.87 315.94,-279.46 315.94,-279.46z"/>
   <path class="fil4" d="M3411.67 4486.39c278.03,-159.22 590.44,-257.23 896.96,-345.61 152.21,-43.9 732.56,-118.37 887.77,-151.21 293.89,-62.15 254.76,12.81 274.66,378 2.47,46.16 -4.1,92.38 -19.31,136.09 -178.84,514.26 -927.96,441.22 -1342.7,427.56 -180.1,-5.95 -398.07,-23.17 -577.45,-40.43 -254.72,-170.38 -119.93,-404.4 -119.93,-404.4z"/>
   <path class="fil5" d="M3303.91 4602.25c0.36,-26.73 -7.3,-54.6 -12.96,-81.42 -1.64,-7.61 -12.61,-81.37 -11.78,-89.41 12.23,-116.71 78.99,-434.22 78.99,-434.22l-319.96 -50.38c0,0 5.78,284.14 -62.81,440.81l0.38 0.09c-153.07,58.23 -421.16,127 -421.16,127 0,0 -292.73,5.31 -308.69,9.68 -15.93,4.31 -54.64,9.13 -102.75,42.2 0,0 -44.05,69.1 305.17,176.95 0,0 149.54,56.4 402.88,53.22 54.31,3.04 108.65,6.11 162.96,9.16 55.81,3.11 222.03,21.67 245.92,8.86 9.21,-5 15.8,-10.44 20.49,-16.49 36.29,-46.24 22.37,-140.4 23.31,-196.05z"/>
   <path class="fil6" d="M3179.42 4238.18c3.93,18.31 6.99,36.75 9.47,55.31 8.71,-16.43 17.17,-33.06 25.4,-49.79l-34.86 -5.53z"/>
   <path class="fil7" d="M3290.96 4520.83c-0.97,-4.39 -5.04,-30.96 -8.13,-54.08 -13.19,4.85 -26.23,9.39 -38.89,13.6 -146.52,48.87 -293.3,20.54 -434.8,-31.49l-7.59 -3.24c-125.87,38.01 -246.92,69.06 -246.92,69.06 0,0 -292.73,5.35 -308.69,9.72 -15.93,4.31 -54.64,9.13 -102.75,42.2 0,0 -44.05,69.1 305.17,176.95 0,0 149.54,56.4 402.88,53.22 54.31,3.04 108.65,6.11 162.96,9.16 55.81,3.11 222.03,21.67 245.92,8.86 9.21,-5 15.8,-10.44 20.49,-16.49 36.29,-46.24 22.37,-140.4 23.31,-196.05 0.36,-26.73 -7.3,-54.6 -12.96,-81.42z"/>
   <path class="fil8" d="M3395.38 2660.19l-2.6 -0.08c-145.39,-4.4 -268.97,105.31 -282.83,250.12 -33.99,354.31 -82,879.05 -109.21,1178.35l329.6 62.48c94.5,-295.49 171.09,-599.19 220.65,-905.91 21.59,-133.24 43.84,-352.77 48.94,-487.62 0.93,-24.93 -39.96,-67.75 -38.67,-95.04 -67.21,-9.6 -93.24,-0.08 -165.88,-2.3z"/>
   <polygon class="fil9" points="4180.79,1857.66 4241.83,2042.36 4135.35,2077.56 "/>
   <path class="fil10" d="M4503.46 2034.65c3.4,60.26 18.23,414.95 18.23,414.95 39.42,38.43 216.75,40.02 286.34,-28.49 55.4,-54.52 58.25,-99.94 58.25,-99.94l-60.75 -515.05 -302.08 228.53z"/>
   <path class="fil11" d="M4749.84 1416.52l33.31 182.74 50.74 278.77 14.29 78.39c-156.17,318.28 -450.4,372.92 -554.31,278.44 -103.87,-94.44 -191.08,-672.27 -191.08,-672.27l647.05 -146.07z"/>
   <path class="fil12" d="M4730.06 2229.62c0,0 -262.18,-460.13 -335.46,-494.53 -73.29,-34.4 -304.3,39.36 -443.74,-138.52 -137.65,-175.53 -70.14,-277.39 -21.92,-290.26 48.15,-12.86 153.32,161.65 307.3,41.33 156.68,-122.48 493.24,-147.97 554.87,-20.49 0,0 212.23,5.49 188.09,296.15 -24.14,290.67 -85.31,538.05 -153.95,564.74l-95.2 41.58z"/>
   <path class="fil13" d="M4553.54 1720.77c76.97,52.8 86.51,221.39 -46.56,324.81l-78.22 -271.99c4.23,-43.2 74.16,-87.57 124.78,-52.83z"/>
   <path class="fil14" d="M4843.79 2333.45c-200.1,23.51 -514.73,82.21 -572.71,312.97 -30.93,122.93 -26.61,254.42 -4.49,378.49 17.3,97.34 33.23,194.93 44.75,293.23 19.41,166.11 42.7,353.1 -2.84,516.98l-187.55 343.64c0,0 910.64,401.79 1362.22,-130.35 0,0 -28.66,-1325.22 -240.31,-1635.64 -25.73,-37.76 -90.33,-54.6 -130.77,-64.61 -89.38,-22.13 -179.34,-25.18 -268.29,-14.71z"/>
   <path class="fil15" d="M3198.77 2836.56c0,0 21.57,171.37 122.01,286.24 100.45,114.93 215.13,160.44 309.28,281.82 74.01,95.42 810.26,801.66 885.17,544.22 9.82,-33.74 -2.3,-69.66 -15.67,-102.16 -124.94,-304.4 -429.28,-433.22 -695.28,-593.36l-100.93 -67.5c0,0 -43.8,-173.45 -150.3,-269.05l-354.28 -80.21z"/>
   <path class="fil16" d="M3165.46 2410.05l-221.28 250.36c-15.47,17.53 -13.96,44.13 3.29,59.79l449.57 407.04c17.44,15.8 44.33,14.5 60.12,-2.93l217.1 -239.19c15.64,-17.17 14.58,-43.74 -2.38,-59.66l-445.34 -418.25c-17.52,-16.47 -45.17,-15.16 -61.09,2.84z"/>
   <polygon class="fil17" points="2988.3,2687.94 3371.7,3036.26 3577.18,2809.91 3197.97,2450.74 "/>
   <path class="fil18" d="M3427.08 3126.22c0,0 33.62,-20.36 19.78,-84.17 -13.81,-63.83 -43.15,-214.41 -43.15,-214.41 0,0 0.46,-53.79 21.75,-41.99 21.32,11.86 67.34,45.13 85.15,138.57 0,0 18.52,80.36 39.18,100.99 20.69,20.61 74.75,76.72 84.5,165.5 0,0 -151.55,51.12 -207.21,-64.49z"/>
   <path class="fil19" d="M4546.82 3945.06c30.93,-41.31 35.5,-99.89 37.54,-161.69 5.08,-150.42 12.45,-300.56 19.12,-450.77 2.97,-66.92 5.91,-133.88 8.17,-200.84 4.52,-136.77 13.83,-337.68 -165.18,-370.42 -40.76,-7.46 -93.56,22.63 -118.95,50.5 -19.06,20.91 -30.8,49.98 -38.05,82.76 -15.43,69.56 -10.85,155.74 -14.25,216.13 -6.86,123.99 -11.57,248.35 -12.4,372.96 -0.54,80.07 -0.08,160.27 4.23,240.6 3.53,66.11 1.31,149.64 31.67,211.43 32.39,66.01 112.26,75.94 171.58,59 35.63,-10.13 59.9,-27.4 76.52,-49.65z"/>
   <path class="fil20" d="M4688.79 3401.53c-24.64,-185.59 1.39,-852.45 -264.45,-879.64 -294.05,-30.13 -237.07,887.64 -237.07,887.64l501.52 -8z"/>
   <path class="fil21" d="M1506.57 4937.55c26.44,-4.11 52.59,-16.42 78.02,-26.57 7.24,-2.88 78.06,-26.27 86.11,-26.81 117.12,-7.8 441.35,3.98 441.35,3.98l-4.79 -323.85c0,0 -279.02,54.04 -445.08,13.06l0 0.38c-83.47,-140.91 -264.7,-333.04 -264.7,-333.04 0,0 -61.41,-156.75 -68.41,-171.75 -7.01,-14.96 43.24,-51.53 2.47,-93.32 0,0 -7.92,-216.83 -54.77,145.62 0,0 -85.1,150.3 -38.88,399.36 6.24,54.06 12.48,108.1 18.73,162.16 6.36,55.48 16.34,222.45 33.05,243.79 6.5,8.29 13,13.83 19.74,17.42 51.8,27.87 142.13,-1.84 197.15,-10.43z"/>
   <path class="fil22" d="M1583.09 4911.61c-15.22,-81.71 -12.57,-170.4 -5.37,-243.75 5.16,-52.46 18.89,-111.4 43.67,-162.99 -75.3,-140.83 -155.96,-320.54 -155.96,-320.54 0,0 -57.19,-205.91 -64.2,-220.92 -6.95,-14.99 -18.31,-52.28 -59.08,-94.06 0,0 -73.45,-113.26 -120.3,249.18 0,0 -30.17,157.01 16.05,406.08 6.24,54.06 12.48,108.1 18.68,162.16 6.41,55.48 16.39,222.45 33.1,243.79 6.5,8.29 13,13.83 19.74,17.42 51.8,27.87 142.13,-1.84 197.15,-10.43 25.9,-4.02 51.5,-15.93 76.52,-25.94z"/>
   <path class="fil23" d="M1955.68 4886.93c381.67,53.17 1219.79,126.04 1693.2,-35.69 74.41,-25.45 154.25,-101.07 162.59,-182.9 6.4,-63.28 -19.87,-156.05 -74.3,-194.31 -44.96,-31.58 -194.17,-42.15 -246.13,-39.81 -147.08,6.66 -1086.14,81.54 -1529.82,117.25l-5.54 335.46z"/>
   <path class="fil24" d="M5967.29 2628.6c-226.85,-167.22 -375.76,-434.05 -375.76,-737.46 0,-507.26 411.18,-918.44 918.48,-918.44 507.21,0 918.44,411.18 918.44,918.44 0,303.41 -148.96,570.24 -375.78,737.46l400.58 0c159.93,-204.14 259.16,-457.98 259.16,-737.46 0,-664.06 -538.36,-1202.42 -1202.41,-1202.42 -664.1,0 -1202.5,538.36 -1202.5,1202.42 0,279.48 99.27,533.32 259.16,737.46l400.62 0z"/>
   <path class="fil24" d="M6686.49 3434.5l0 685.64c0,50.91 -41.31,92.22 -92.22,92.22l-168.54 0c-50.95,0 -92.21,-41.31 -92.21,-92.22l0 -685.64c-113.31,-63.31 -192.92,-180.17 -192.09,-319.41 1.14,-195.44 162.08,-360.61 357.39,-366.36 208.74,-6.15 379.74,161.07 379.74,368.45 0,138.31 -79.4,254.34 -192.07,317.32zm1059.45 -1259.34l-2509.45 0c-100.27,0 -181.56,81.29 -181.56,181.51l0 2377.79c0,100.35 81.29,181.64 181.56,181.64l2509.45 0c100.22,0 181.56,-81.29 181.56,-181.64l0 -2377.79c0,-100.22 -81.34,-181.51 -181.56,-181.51z"/>
  </g>
 </g>
</svg>
