<?xml version="1.0" encoding="UTF-8"?>
<!DOCTYPE svg PUBLIC "-//W3C//DTD SVG 1.1//EN" "http://www.w3.org/Graphics/SVG/1.1/DTD/svg11.dtd">
<!-- Creator: CorelDRAW 2019 (64-Bit) -->
<svg xmlns="http://www.w3.org/2000/svg" xml:space="preserve" width="80.9739mm" height="80.9739mm" version="1.1" style="shape-rendering:geometricPrecision; text-rendering:geometricPrecision; image-rendering:optimizeQuality; fill-rule:evenodd; clip-rule:evenodd"
viewBox="0 0 2414.58 2414.58"
 xmlns:xlink="http://www.w3.org/1999/xlink">
 <defs>
  <style type="text/css">
   <![CDATA[
    .fil30 {fill:none}
    .fil5 {fill:#016964;fill-rule:nonzero}
    .fil6 {fill:#057872;fill-rule:nonzero}
    .fil7 {fill:#09A59D;fill-rule:nonzero}
    .fil18 {fill:#333333;fill-rule:nonzero}
    .fil23 {fill:#666666;fill-rule:nonzero}
    .fil26 {fill:#6BC9C4;fill-rule:nonzero}
    .fil29 {fill:#999999;fill-rule:nonzero}
    .fil8 {fill:#ABD3EC;fill-rule:nonzero}
    .fil15 {fill:#BADEF8;fill-rule:nonzero}
    .fil14 {fill:#DBDBDB;fill-rule:nonzero}
    .fil10 {fill:#DDEDF5;fill-rule:nonzero}
    .fil13 {fill:#E29D9E;fill-rule:nonzero}
    .fil2 {fill:#E4E5EA;fill-rule:nonzero}
    .fil19 {fill:#E4F1F7;fill-rule:nonzero}
    .fil9 {fill:#EAA0A0;fill-rule:nonzero}
    .fil22 {fill:#EFA4A2;fill-rule:nonzero}
    .fil17 {fill:#EFADAB;fill-rule:nonzero}
    .fil11 {fill:#F7BDB9;fill-rule:nonzero}
    .fil12 {fill:#F7FBFD;fill-rule:nonzero}
    .fil24 {fill:#F99893;fill-rule:nonzero}
    .fil25 {fill:#FEB546;fill-rule:nonzero}
    .fil21 {fill:#FF574F;fill-rule:nonzero}
    .fil27 {fill:#FF7380;fill-rule:nonzero}
    .fil3 {fill:#FFB7B1;fill-rule:nonzero}
    .fil1 {fill:#FFC0BB;fill-rule:nonzero}
    .fil20 {fill:#FFF2F1;fill-rule:nonzero}
    .fil4 {fill:white;fill-rule:nonzero}
    .fil28 {fill:black;fill-rule:nonzero;fill-opacity:0.200000}
    .fil0 {fill:#09A59D;fill-rule:nonzero;fill-opacity:0.200000}
    .fil16 {fill:white;fill-rule:nonzero;fill-opacity:0.600000}
   ]]>
  </style>
 </defs>
 <g id="Layer_x0020_1">
  <metadata id="CorelCorpID_0Corel-Layer"/>
  <g id="_3032928829296">
   <g>
    <path class="fil0" d="M1189.61 2131.46c0,0 -776.15,-57.11 -869.49,-436.62 -93.33,-379.51 113.51,-431.15 184.14,-643.71 70.64,-212.57 -249.73,-337.94 -35.31,-627.16 214.43,-289.22 530.64,-294.27 663.9,-158.05 67.83,69.34 140.92,46.52 228.99,23.7 84.93,-22.01 183.77,-44.02 305.22,16.67 247.33,123.61 307.89,373.38 229.7,568.46 -78.23,195.09 242.47,381.64 282.64,602.83 40.26,221.19 -322.74,751.41 -989.79,653.89z"/>
    <path class="fil1" d="M403.18 2235.18l465.09 0 38.58 -103.87c13.67,-36.8 41.63,-66.38 77.4,-82.55 33.7,-15.25 79.01,-42.92 122.97,-92.25 85.52,-95.98 130.9,-198.96 130.9,-198.96l-288.25 -1.41c0,0 25.95,-161.23 -117.31,-375.36 -15.32,-22.92 -22.31,-50.44 -19.9,-77.9l13.57 -156.18c0,0 97.35,-108.8 37.61,-243.77 0,0 -57.11,-79.08 -79.77,-50.13 0,0 -172.52,410.82 -188.23,471.91 -15.71,61.09 -36.65,99.49 -15.71,291.46 5.55,50.82 7.54,93.21 7.47,128.06 -0.13,66.89 -15.07,132.93 -43.68,193.43l-140.74 297.51z"/>
    <path class="fil2" d="M929.46 2091.31l0 0c14.48,-18.16 33.22,-32.8 54.79,-42.55l0 0c-21.57,9.75 -40.31,24.4 -54.79,42.55zm55.09 -42.68c0.02,-0.02 0.03,-0.04 0.07,-0.04 -0.03,0 -0.05,0.02 -0.07,0.04zm0.34 -0.17c0.03,0 0.05,-0.01 0.08,-0.03 -0.03,0.02 -0.05,0.03 -0.08,0.03zm0.37 -0.17c0.01,0 0.03,-0.02 0.07,-0.02 -0.03,0 -0.05,0.02 -0.07,0.02zm0.3 -0.13c0.01,-0.02 0.05,-0.02 0.08,-0.03 -0.03,0.01 -0.05,0.01 -0.08,0.03zm0.36 -0.17c0.01,-0.02 0.04,-0.02 0.05,-0.03 -0.02,0.01 -0.04,0.03 -0.05,0.03zm0.33 -0.15c0.03,-0.01 0.05,-0.03 0.08,-0.03 -0.03,0 -0.05,0.02 -0.08,0.03zm0.33 -0.17c0.02,0 0.04,0 0.05,-0.01 -0.01,0.01 -0.03,0.01 -0.05,0.01zm0.34 -0.15c0.01,0 0.05,-0.01 0.08,-0.03 -0.03,0.02 -0.07,0.03 -0.08,0.03zm0.38 -0.17c0,-0.01 0.01,-0.01 0.01,-0.01l-0.01 0.01zm-399.71 -305c0,-4.97 -0.05,-10.12 -0.13,-15.4l0 0.01 0 0.02c0.1,5.29 0.13,10.4 0.13,15.37z"/>
    <path class="fil3" d="M868.27 2235.18l-465.09 0 140.74 -297.51c28.61,-60.49 43.55,-126.53 43.68,-193.43 0,-0.63 0,-1.25 0,-1.88 0,-4.97 -0.03,-10.08 -0.13,-15.37 0.24,1.78 20.59,157.74 83.3,179.47 63.08,21.88 123.03,14.31 166.21,62.22 23.96,26.61 59.04,42.87 107.43,42.87 38.78,0 86.13,-10.45 143.12,-34.41 -36.18,35.36 -71.98,57.07 -100.21,70.21 0,0 -0.01,0 -0.01,0.01 -0.1,0.05 -0.2,0.08 -0.3,0.13 -0.03,0.02 -0.07,0.03 -0.08,0.03 -0.1,0.05 -0.2,0.1 -0.29,0.14 -0.01,0.01 -0.03,0.01 -0.05,0.01 -0.08,0.05 -0.16,0.09 -0.25,0.13 -0.03,0 -0.05,0.02 -0.08,0.03 -0.09,0.03 -0.18,0.09 -0.28,0.12 -0.02,0.01 -0.04,0.01 -0.05,0.03 -0.1,0.05 -0.2,0.08 -0.28,0.13 -0.03,0.01 -0.07,0.01 -0.08,0.03 -0.09,0.03 -0.17,0.07 -0.24,0.11 -0.03,0 -0.05,0.02 -0.07,0.02 -0.1,0.05 -0.18,0.09 -0.29,0.13 -0.03,0.02 -0.05,0.03 -0.08,0.03 -0.1,0.05 -0.18,0.09 -0.27,0.13 -0.03,0 -0.05,0.02 -0.07,0.04 -0.1,0.03 -0.2,0.08 -0.3,0.13l0 0c-21.57,9.75 -40.31,24.4 -54.79,42.55 -9.5,11.94 -17.19,25.39 -22.61,40l-38.58 103.87z"/>
    <path class="fil4" d="M1854.7 894.02c-1.64,-7.12 -8.02,-12.44 -15.63,-12.44 -1.39,0 -2.74,0.18 -4.05,0.52 -3.76,-8.05 -11.91,-13.62 -21.4,-13.62 -2.45,0 -4.83,0.37 -7.04,1.07 -5.07,-8.44 -14.36,-14.08 -24.92,-14.08 -12.6,0 -23.32,7.99 -27.37,19.17 -2.86,-1.6 -6.18,-2.52 -9.7,-2.52 -11.05,0 -19.97,8.95 -19.97,19.98 0,0.65 0,1.3 0.08,1.94l129.99 0z"/>
    <path class="fil4" d="M1667.07 423.51c-4.26,-18.6 -20.91,-32.48 -40.83,-32.48 -3.64,0 -7.2,0.47 -10.56,1.34 -9.84,-21 -31.15,-35.56 -55.85,-35.56 -6.4,0 -12.56,0.98 -18.36,2.78 -13.31,-22.03 -37.48,-36.77 -65.09,-36.77 -32.86,0 -60.86,20.86 -71.46,50.05 -7.5,-4.19 -16.14,-6.58 -25.34,-6.58 -28.81,0 -52.15,23.35 -52.15,52.14 0,1.71 0.08,3.4 0.25,5.06l339.4 0z"/>
    <path class="fil4" d="M746.29 743.3c-3.56,-15.57 -17.5,-27.19 -34.16,-27.19 -3.05,0 -6.02,0.4 -8.85,1.13 -8.22,-17.58 -26.06,-29.76 -46.73,-29.76 -5.35,0 -10.52,0.81 -15.38,2.32 -11.13,-18.44 -31.35,-30.77 -54.46,-30.77 -27.51,0 -50.94,17.46 -59.81,41.89 -6.29,-3.5 -13.52,-5.51 -21.23,-5.51 -24.09,0 -43.63,19.54 -43.63,43.65 0,1.43 0.07,2.84 0.2,4.23l284.06 0z"/>
    <path class="fil5" d="M631.31 374.01c106.93,168.71 370.46,319.06 370.46,319.06 0,0 -209.5,-17.01 -313.45,-152.4l37.68 -31.22c0,0 -29.96,2.9 -55.05,5.8 -23.12,-38.36 -38.1,-84.87 -39.64,-141.24z"/>
    <path class="fil6" d="M911.85 443.78c-16.25,7.38 -40.3,18.62 -40.3,18.62l23.18 -33.29c-26.99,-21 -56.71,-35 -86.13,-44.16 -11.94,17.37 -25.96,36.79 -25.96,36.79l-2.78 -44.32c-78.9,-16.99 -148.54,-3.41 -148.54,-3.41 106.93,168.71 370.46,319.06 370.46,319.06 -1.2,-123.96 -38.93,-201.36 -89.92,-249.29z"/>
    <path class="fil6" d="M592.05 612.06c31.44,-18.48 63.36,-28.44 94.37,-32.51 9.34,10.66 20.81,23.2 20.81,23.2l0.63 -25.1c119.18,-5.71 219.65,69.35 219.65,69.35 -68.19,41.49 -126.88,53.12 -175.24,49.68 -3.05,-8.77 -7.39,-21.85 -7.39,-21.85l-8.1 20.21c-23.21,-3.3 -43.78,-10.03 -61.59,-18.29 4.28,-10.48 8.78,-22.46 8.78,-22.46l-25.41 13.93c-43.63,-24.68 -66.52,-56.15 -66.52,-56.15z"/>
    <path class="fil5" d="M752.28 696.68c-3.05,-8.77 -7.39,-21.85 -7.39,-21.85l-8.1 20.21c-23.21,-3.3 -43.78,-10.03 -61.59,-18.29 4.28,-10.48 8.78,-22.46 8.78,-22.46l-25.41 13.93c-43.63,-24.68 -66.52,-56.15 -66.52,-56.15 138.65,-15.85 335.46,34.94 335.46,34.94 -68.19,41.49 -126.88,53.12 -175.24,49.68z"/>
    <path class="fil6" d="M1765.59 594.72l-10.06 75.77 53.84 -39.3 164.73 -84.16 -127.41 11.67c0,0 -64.93,15.76 -68.45,18.94 -3.52,3.18 -12.64,17.07 -12.64,17.07z"/>
    <polygon class="fil7" points="1709.17,548.97 1974.1,547.04 1765.59,594.72 "/>
    <polygon class="fil7" points="1850.73,670.95 1781.34,615.2 1974.1,547.04 "/>
    <path class="fil8" d="M1738.26 634.2c10.14,-3.82 17.63,-4.64 17.72,-4.65l-0.49 -4.71c-0.37,0.04 -8.18,0.9 -18.86,4.92l1.64 4.43z"/>
    <path class="fil8" d="M1685.03 679.1c4.79,-11.64 11.66,-21.79 20.54,-30.17l3.23 3.44c-8.35,7.91 -14.89,17.5 -19.39,28.52l-4.38 -1.79zm-5.93 71.45c-1.88,-12.74 -2.5,-24.82 -1.8,-35.91l4.71 0.29c-0.66,10.75 -0.08,22.51 1.76,34.91l0.04 0.28 -4.67 0.64 -0.04 -0.22zm5.28 35.62l4.71 -0.67c1.96,13.84 3.4,25.16 4.46,35.6l-4.74 0.48c-1.02,-10.38 -2.46,-21.62 -4.42,-35.4zm6.75 70.91l4.71 -0.11c0.33,12.84 -0.08,24.62 -1.15,36.01l-4.71 -0.44c1.06,-11.2 1.43,-22.8 1.15,-35.46zm-19.11 103.45c2.33,-4.87 4.46,-9.94 6.34,-15.08 2.13,-5.82 4.01,-11.9 5.64,-18.08l4.54 1.19c-1.63,6.33 -3.56,12.56 -5.77,18.53 -1.92,5.28 -4.09,10.48 -6.51,15.48l-4.26 -2.03zm-42.1 56.14c8.92,-8.13 16.9,-16.89 23.81,-26.03l3.76 2.84c-7.08,9.38 -15.26,18.35 -24.39,26.67l-3.19 -3.48zm-58.57 39.52c10.95,-5.55 21.28,-11.54 30.66,-17.79l2.62 3.93c-9.54,6.35 -20.02,12.44 -31.15,18.07l-2.14 -4.21z"/>
    <path class="fil8" d="M1522.69 1081.72c6.09,-2.11 12.09,-4.33 17.84,-6.6l-1.74 -4.4c-5.68,2.25 -11.64,4.45 -17.66,6.53l1.55 4.47z"/>
    <path class="fil9" d="M1498.17 578.89c0,0 98.5,-65.94 120.99,-22.5 22.5,43.43 -127.98,197.15 -127.98,197.15l6.99 -174.65z"/>
    <path class="fil9" d="M1498.17 866.16c0,0 98.5,-65.93 120.99,-22.49 22.5,43.43 -127.98,197.15 -127.98,197.15l6.99 -174.66z"/>
    <path class="fil9" d="M1498.17 1061.89c0,0 98.5,-65.93 120.99,-22.49 22.5,43.43 -127.98,197.14 -127.98,197.14l6.99 -174.65z"/>
    <path class="fil7" d="M1430.12 505.01l-540.82 0c-40.26,0 -72.93,32.64 -72.93,72.92l0 1105.27c0,40.62 33.01,72.93 72.93,72.93l540.82 0c40.27,0 72.93,-32.63 72.93,-72.93l0 -1105.27c0,-40.64 -33.05,-72.92 -72.93,-72.92z"/>
    <path class="fil2" d="M1238.12 1757.54l0 0 -288.25 -1.41 288.28 0c-0.02,0.93 -0.03,1.41 -0.03,1.41l0 0z"/>
    <path class="fil3" d="M937.08 1808.72c-106.12,-0.02 -151.57,-50.52 -159.76,-89.65 -4.65,-22.12 16.38,-90.69 39.05,-154.98l0 119.11c0,40.62 33.01,72.93 72.93,72.93l60.57 0 288.25 1.41 0 0c0,0 -100.67,26.98 -246.31,47.17 -19.81,2.75 -38.01,4 -54.72,4z"/>
    <path class="fil7" d="M1238.15 1756.13l-348.85 0c-39.92,0 -72.93,-32.31 -72.93,-72.93l0 -119.11c7.2,-20.38 14.55,-40.32 21.32,-58.22l14.04 0 0 150.87 368.57 0c0.27,0.6 0.58,1.2 0.92,1.79 4.55,7.82 10.69,18.42 18,31.02 -0.52,34.73 -0.98,60.44 -1.08,66.58z"/>
    <polygon class="fil4" points="851.73,1656.74 1467.69,1656.74 1467.69,604.39 851.73,604.39 "/>
    <path class="fil10" d="M816.37 1345.12c-3.69,-13.65 -4.97,-27.96 -3.72,-42.25l3.72 -42.93 0 85.18z"/>
    <path class="fil11" d="M816.37 1505.87l-33.33 0c-18.49,0 -33.47,-14.97 -33.47,-33.46l0 -220.75c0,-18.48 14.98,-33.46 33.47,-33.46l33.33 0 0 41.75 -3.72 42.93c-1.25,14.29 0.03,28.59 3.72,42.25l0 160.75z"/>
    <path class="fil7" d="M837.69 1505.87l-21.32 0 0 -287.68 35.36 0 0 251.15c-4.12,10.54 -8.9,22.94 -14.04,36.53z"/>
    <path class="fil7" d="M851.73 1505.87l-14.04 0c5.14,-13.59 9.92,-25.99 14.04,-36.53l0 36.53z"/>
    <path class="fil12" d="M1254.87 1572.24c-2.72,0 -33.63,-42.58 -50.67,-66.37l-352.47 0 0 -287.68 459.17 0c11.97,19.91 25.56,41.15 40.54,63.36l0 17.24c-23.18,2.9 -71.83,10.97 -74.05,27.78 -2.8,21.34 3.07,58.37 74.05,67.74l0 78.1c0,18.49 -14.98,33.46 -33.47,33.46l-68.93 0c3.47,26.14 8.37,66.37 5.82,66.37z"/>
    <path class="fil10" d="M1509.46 1022.22l-0.72 0c9.27,-10.04 21.36,-23.46 34.18,-38.54l0 5.08c0,18.48 -14.99,33.46 -33.47,33.46zm-6.41 -159.18l0 -121.96c5.11,-5.47 11.6,-12.5 18.89,-20.64 12.31,4.94 20.99,16.99 20.99,31.05l0 90.23c-17.19,7.61 -32.41,16.65 -39.88,21.31z"/>
    <path class="fil13" d="M1503.05 741.07l0 -23.04 6.41 0c4.43,0 8.62,0.85 12.47,2.4 -7.28,8.14 -13.77,15.18 -18.89,20.64z"/>
    <path class="fil13" d="M1508.75 1022.22l-5.7 0 0 -159.18c7.47,-4.66 22.69,-13.7 39.88,-21.31l0 141.95c-12.82,15.08 -24.91,28.5 -34.18,38.54z"/>
    <polygon class="fil7" points="1503.05,1022.22 1467.69,1022.22 1467.69,718.03 1503.05,718.03 "/>
    <path class="fil12" d="M993.65 1085.8c-2.45,0 2.03,-37.46 5.47,-63.59l-59.14 0c-18.47,0 -33.46,-14.98 -33.46,-33.46l0 -237.27c0,-18.48 14.99,-33.45 33.46,-33.45l527.71 0 0 304.19 -425.35 0c-17.35,24.17 -46.05,63.59 -48.69,63.59z"/>
    <path class="fil4" d="M1286.7 571.32l-252.98 0c-2.92,0 -5.3,-2.37 -5.3,-5.3l0 -2.59c0,-2.93 2.38,-5.3 5.3,-5.3l252.98 0c2.94,0 5.3,2.37 5.3,5.3l0 2.59c0,2.93 -2.37,5.3 -5.3,5.3z"/>
    <path class="fil1" d="M804.11 1240.93c0,0 3.72,13.83 12.12,20.63l9.99 -114.86c0,0 71.61,-80.03 54.3,-187.97 -5.92,-36.95 -24.29,-70.95 -52.4,-95.66 -16.04,-14.1 -33.66,-23.53 -44.05,-10.26 0,0 -81.13,193.19 -137.18,334.31l157.22 53.82z"/>
    <path class="fil14" d="M1295.91 1160.93l-534.96 0c-18.47,0 -33.46,14.97 -33.46,33.45l0 220.77c0,18.47 14.99,33.45 33.46,33.45l421.16 0c17.04,23.79 47.95,66.39 50.69,66.39 2.55,0 -2.37,-40.23 -5.84,-66.39l68.95 0c18.47,0 33.44,-14.98 33.44,-33.45l0 -220.77c0,-18.47 -14.97,-33.45 -33.44,-33.45z"/>
    <polygon class="fil15" points="851.73,1656.74 1467.69,1656.74 1467.69,1594.5 851.73,1594.5 "/>
    <polygon class="fil6" points="851.73,660.24 1467.69,660.24 1467.69,604.4 851.73,604.4 "/>
    <path class="fil16" d="M798.66 966.27c22.41,-10.31 34.12,-68.64 38.31,-94.85 -17.99,-18.1 -40.56,-34.38 -52.91,-18.62 0,0 -17.87,42.54 -42.61,102.28 16.92,9.42 40.45,18.9 57.2,11.19z"/>
    <path class="fil17" d="M1363.5 1297.49c0,0 -83.18,6.97 -86.1,29.08 -2.9,22.11 3.5,61.09 82.03,68.66l81.34 0c0,0 -24.32,-67.49 -23.18,-69.82 1.17,-2.32 -54.1,-27.91 -54.1,-27.91z"/>
    <path class="fil1" d="M1230.03 1627.26c-11.27,5.99 -15.19,20.23 -8.8,31.27 38.28,66.03 190.52,328.42 204.23,349.76 15.72,24.43 54.12,82.03 181.52,111.7 127.4,29.68 179.77,115.19 179.77,115.19l392.67 0c0,0 -92.47,-146.6 -169.27,-527.08 0,0 -59.33,-315.9 -171.03,-305.42 0,0 -68.08,-71.56 -134.41,-57.6 0,0 -125.66,-75.05 -197.22,-75.05l-171.86 -203.12c-17.03,-20.11 -47,-24.05 -67.93,-8.04 -6.72,5.13 -11.85,11.93 -13.27,20.92 -5.23,33.16 38.4,116.93 108.21,218.16 69.81,101.22 242.59,422.36 167.55,563.74 0,0 -76.8,-57.6 -143.11,-150.09 -55.54,-77.46 -120.88,-103.52 -157.04,-84.33z"/>
    <path class="fil9" d="M1508.14 1270.11c22.79,19.53 44.16,40.7 64.36,62.94 27.28,29.68 61.68,73.66 81.93,107.64 25.45,42 42.27,78.83 50.25,125.08l-0.49 0.12c-9.17,-43.46 -33.1,-90.27 -53.93,-122.6 -15.63,-25.28 -44.48,-65.44 -80.86,-107.53 -18.29,-21.09 -41.46,-46 -61.62,-65.28l0.37 -0.38z"/>
    <path class="fil9" d="M1703.6 1344.52c18.54,9.51 35.11,22.76 49.71,37.72 14.81,14.92 27.08,31.83 37.68,50.28 10.35,18.29 18.29,37.95 23.61,58.21 4.5,18.99 7.41,31.86 7.9,61.91l-0.53 0.03c-1.72,-20.58 -5.48,-40.96 -11.33,-60.76 -5.89,-19.17 -14.16,-39.74 -24.18,-56.82 -10.06,-18.02 -22.3,-34.8 -36.17,-50.05 -13.14,-14.39 -30.32,-29.91 -46.97,-40.05l0.29 -0.47z"/>
    <path class="fil9" d="M1837.64 1401.21c16.41,12.4 33.02,34.38 41.12,49.22 10.11,17.44 18.13,37.68 23.44,59.84 3.85,14.17 4.87,27.95 5.48,42.35l-0.53 0.07c-2.42,-13.96 -3.93,-24.38 -8.92,-41.3 -7.61,-25.64 -13.62,-38.83 -23.81,-58.59 -6.14,-12.19 -21.97,-36.33 -36.99,-51.21l0.2 -0.38z"/>
    <path class="fil16" d="M1309.29 1708.51c3.49,-17.68 -17.11,-45.69 -35.8,-66.83 -11.67,-13.2 -30.08,-18.14 -46.28,-12.62 -9.05,6.72 -11.81,19.41 -5.98,29.46 10.28,17.74 28.81,49.67 50.65,87.28 16.36,-8.34 34.18,-20.95 37.41,-37.3z"/>
    <path class="fil16" d="M1325.78 1146.61c9.94,-1.98 54.99,-16.96 52.22,-25.17l-44.43 -52.51c-8.82,-10.44 -21.12,-16.49 -33.86,-17.69l0 0 -0.2 -0.03c-0.36,-0.04 -1.18,-0.08 -2.32,-0.08 -5.97,0 -20.63,1.7 -23.86,17.82 -3.18,15.94 23.18,54.66 34.81,70.76 4.02,5.55 10.92,8.26 17.64,6.9z"/>
    <path class="fil6" d="M537.2 1960.74c49.2,30.22 207.65,120.64 371.46,139.92 9.6,1.12 16.36,9.92 13.51,17.52l-28.61 76.64c-1.9,5.09 -7.6,8.04 -13.99,7.27 -48.28,-5.87 -247.49,-35.85 -387.65,-144.29 -4.78,-3.69 -6.78,-9.29 -5,-14.05l29.19 -78.23c2.75,-7.37 13.07,-9.71 21.09,-4.78z"/>
    <path class="fil18" d="M522.81 2034.03l-0.53 -0.2c-2.88,-1.07 -4.34,-4.27 -3.27,-7.14l8.82 -23.61c1.06,-2.87 4.27,-4.33 7.14,-3.25l0.55 0.2c2.87,1.07 4.32,4.27 3.25,7.13l-8.81 23.61c-1.08,2.87 -4.28,4.34 -7.15,3.25z"/>
    <path class="fil18" d="M552.29 2052.21l-0.55 -0.21c-2.87,-1.07 -4.33,-4.27 -3.25,-7.14l8.8 -23.61c1.07,-2.86 4.27,-4.31 7.15,-3.25l0.54 0.2c2.87,1.07 4.34,4.27 3.27,7.15l-8.82 23.59c-1.07,2.87 -4.27,4.34 -7.14,3.27z"/>
    <path class="fil18" d="M581.8 2070.23l-0.55 -0.2c-2.87,-1.07 -4.33,-4.27 -3.25,-7.14l8.8 -23.61c1.07,-2.87 4.27,-4.34 7.15,-3.25l0.54 0.2c2.88,1.07 4.33,4.27 3.27,7.14l-8.82 23.61c-1.07,2.87 -4.27,4.34 -7.14,3.25z"/>
    <path class="fil18" d="M612.17 2084.9l-0.55 -0.2c-2.87,-1.07 -4.34,-4.27 -3.27,-7.14l8.82 -23.61c1.06,-2.87 4.27,-4.34 7.15,-3.25l0.53 0.2c2.87,1.07 4.34,4.27 3.27,7.14l-8.82 23.61c-1.07,2.86 -4.27,4.33 -7.14,3.25z"/>
    <path class="fil18" d="M642.05 2101.96l-0.55 -0.2c-2.87,-1.07 -4.33,-4.27 -3.25,-7.15l8.8 -23.59c1.09,-2.87 4.27,-4.34 7.15,-3.27l0.54 0.2c2.89,1.08 4.33,4.29 3.27,7.15l-8.82 23.59c-1.07,2.88 -4.27,4.33 -7.14,3.27z"/>
    <path class="fil18" d="M673.25 2115.48l-0.53 -0.2c-2.88,-1.09 -4.34,-4.27 -3.27,-7.15l8.82 -23.6c1.06,-2.87 4.27,-4.33 7.14,-3.26l0.55 0.2c2.87,1.08 4.32,4.28 3.25,7.15l-8.8 23.59c-1.09,2.88 -4.29,4.33 -7.15,3.27z"/>
    <path class="fil18" d="M705.06 2127.36l-0.53 -0.2c-2.88,-1.07 -4.34,-4.27 -3.27,-7.14l8.82 -23.61c1.07,-2.87 4.27,-4.34 7.14,-3.25l0.55 0.2c2.87,1.07 4.34,4.27 3.25,7.14l-8.81 23.61c-1.09,2.87 -4.27,4.34 -7.15,3.25z"/>
    <path class="fil18" d="M737.49 2137.59l-0.54 -0.2c-2.88,-1.07 -4.33,-4.27 -3.27,-7.15l8.82 -23.59c1.07,-2.87 4.27,-4.34 7.14,-3.25l0.55 0.2c2.87,1.07 4.34,4.27 3.25,7.14l-8.81 23.61c-1.08,2.87 -4.28,4.32 -7.15,3.25z"/>
    <path class="fil18" d="M771.24 2144.29l-0.54 -0.2c-2.88,-1.06 -4.33,-4.27 -3.27,-7.14l8.82 -23.61c1.07,-2.87 4.27,-4.34 7.14,-3.25l0.55 0.2c2.87,1.07 4.33,4.27 3.25,7.14l-8.8 23.61c-1.09,2.87 -4.27,4.34 -7.15,3.25z"/>
    <path class="fil18" d="M804.1 2153.38l-0.55 -0.2c-2.87,-1.07 -4.34,-4.27 -3.25,-7.15l8.8 -23.59c1.08,-2.87 4.27,-4.34 7.15,-3.25l0.54 0.2c2.88,1.07 4.33,4.27 3.27,7.14l-8.82 23.61c-1.07,2.87 -4.27,4.32 -7.14,3.25z"/>
    <path class="fil18" d="M838.21 2159.1l-0.55 -0.2c-2.87,-1.07 -4.32,-4.27 -3.25,-7.15l8.8 -23.6c1.09,-2.86 4.27,-4.33 7.16,-3.27l0.53 0.2c2.89,1.08 4.34,4.28 3.27,7.15l-8.82 23.61c-1.07,2.87 -4.27,4.32 -7.14,3.25z"/>
    <path class="fil18" d="M872.37 2164.69l-0.55 -0.2c-2.87,-1.07 -4.33,-4.27 -3.25,-7.14l8.8 -23.61c1.09,-2.87 4.27,-4.32 7.15,-3.25l0.53 0.2c2.89,1.07 4.34,4.27 3.27,7.15l-8.82 23.59c-1.07,2.87 -4.27,4.34 -7.14,3.25z"/>
    <path class="fil19" d="M634.43 2138.24l0.13 -0.37c-0.52,-0.07 -1.03,-0.18 -1.55,-0.37l-38.76 -14.47c-3.84,-1.43 -5.69,-5.97 -4.15,-10.11l34.96 -93.64c1.55,-4.14 5.92,-6.34 9.74,-4.9l38.78 14.47c2.27,0.85 3.84,2.79 4.42,5.09 3.05,1.33 6.1,2.65 9.21,3.98 1.05,-7.87 -3,-15.52 -10.2,-18.22l-38.78 -14.47c-8.49,-3.17 -18.19,1.71 -21.62,10.9l-34.95 93.64c-3.44,9.17 0.68,19.22 9.19,22.39l38.77 14.47c5.82,2.19 12.21,0.57 16.74,-3.6 -3.95,-1.57 -7.94,-3.17 -11.91,-4.8z"/>
    <path class="fil4" d="M625.93 2063.93l-16.87 -6.28c-3.01,-1.13 -6.45,0.6 -7.67,3.87 -1.24,3.27 0.23,6.82 3.25,7.95l16.87 6.3 4.42 -11.84z"/>
    <path class="fil20" d="M2179.41 2235.18l0 0 0 0zm0 -0.01c0,0 0,0 0,-0.02 0,0.02 0,0.02 0,0.02zm0 -0.02c-1.23,-1.94 -61.29,-98.54 -124.46,-334.66 0,0 0,0 0,0 63.17,236.14 123.24,332.71 124.46,334.66zm-572.98 -115.28c-0.05,-0.02 -0.12,-0.03 -0.18,-0.05 0.07,0.02 0.13,0.03 0.18,0.05zm-0.32 -0.08c-0.07,-0.01 -0.15,-0.03 -0.24,-0.05 0.08,0.01 0.17,0.03 0.24,0.05zm-0.4 -0.1c-0.05,0 -0.12,-0.02 -0.18,-0.03 0.07,0.01 0.11,0.03 0.18,0.03zm-0.44 -0.1c-0.03,0 -0.07,-0.01 -0.1,-0.01 0.03,0 0.07,0.01 0.1,0.01zm-0.33 -0.08c-0.05,0 -0.08,-0.02 -0.12,-0.02 0.03,0 0.07,0.02 0.12,0.02zm-0.38 -0.09c-0.03,0 -0.07,-0.02 -0.1,-0.02 0.03,0 0.07,0.02 0.1,0.02zm-0.35 -0.08c-0.03,0 -0.07,-0.01 -0.1,-0.01 0.03,0 0.07,0.01 0.1,0.01zm-0.38 -0.08c-0.02,-0.02 -0.03,-0.02 -0.07,-0.02 0.03,0 0.05,0 0.07,0.02zm-0.35 -0.09c-0.01,-0.01 -0.05,-0.01 -0.07,-0.01 0.01,0 0.05,0 0.07,0.01zm-0.35 -0.08c-0.01,-0.02 -0.07,-0.02 -0.08,-0.04 0.01,0.02 0.05,0.02 0.08,0.04zm-0.35 -0.09c-0.01,-0.02 -0.07,-0.02 -0.08,-0.03 0.01,0.01 0.07,0.01 0.08,0.03zm-0.38 -0.1l-0.02 0 0.02 0zm-0.35 -0.09c0,0 -0.02,-0.01 -0.03,-0.01 0.01,0 0.03,0.01 0.03,0.01zm-0.34 -0.08c-0.03,-0.02 -0.05,-0.02 -0.07,-0.02 0.02,0 0.03,0 0.07,0.02zm-0.35 -0.08c-0.03,-0.01 -0.05,-0.01 -0.07,-0.01 0.02,0 0.05,0 0.07,0.01z"/>
    <path class="fil2" d="M1521.37 2090.77c0,0 0,0 -0.01,0 0.01,0 0.01,0 0.01,0zm-0.23 -0.1c0,0 0,0 -0.01,-0.02 0.01,0.02 0.01,0.02 0.01,0.02zm-0.23 -0.12c0,0 -0.02,0 -0.02,-0.02 0.02,0.02 0.02,0.02 0.02,0.02zm-0.22 -0.1c-0.01,-0.01 -0.03,-0.01 -0.03,-0.03 0,0.02 0.02,0.02 0.03,0.03zm-0.21 -0.11c-0.03,0 -0.05,-0.02 -0.07,-0.04 0.01,0.02 0.05,0.04 0.07,0.04zm-0.25 -0.12c-0.02,0 -0.03,-0.02 -0.05,-0.02 0.02,0 0.04,0.02 0.05,0.02zm-0.22 -0.1c-0.03,-0.01 -0.05,-0.03 -0.08,-0.05 0.03,0.02 0.07,0.03 0.08,0.05zm-0.23 -0.11c-0.02,-0.01 -0.07,-0.03 -0.09,-0.05 0.04,0.01 0.05,0.03 0.09,0.05zm-0.23 -0.12c-0.03,-0.01 -0.05,-0.03 -0.09,-0.03 0.04,0 0.05,0.02 0.09,0.03zm-0.25 -0.11c-0.02,-0.02 -0.03,-0.02 -0.05,-0.03 0.02,0.01 0.04,0.01 0.05,0.03zm-0.23 -0.12c-0.02,-0.01 -0.03,-0.01 -0.05,-0.03 0.02,0.02 0.03,0.02 0.05,0.03zm-0.23 -0.11c-0.02,-0.02 -0.03,-0.02 -0.07,-0.03 0.04,0.01 0.05,0.01 0.07,0.03zm-0.22 -0.12c-0.04,0 -0.07,-0.03 -0.1,-0.03 0.03,0 0.06,0.03 0.1,0.03zm-0.23 -0.11c-0.04,0 -0.07,-0.02 -0.1,-0.04 0.03,0.02 0.07,0.04 0.1,0.04zm-0.25 -0.12c-0.02,0 -0.05,-0.02 -0.07,-0.03 0.03,0.01 0.05,0.03 0.07,0.03zm-0.24 -0.12c0,0 -0.01,0 -0.03,-0.02 0.02,0.02 0.03,0.02 0.03,0.02zm-0.23 -0.1c0,-0.02 0,-0.02 -0.01,-0.02 0.01,0 0.01,0 0.01,0.02zm-0.45 -0.23l0 0 0 0zm-0.11 -0.07c-0.03,-0.02 -0.09,-0.03 -0.12,-0.05 0.03,0.02 0.09,0.03 0.12,0.05zm-0.2 -0.1c-0.05,-0.02 -0.1,-0.05 -0.15,-0.07 0.05,0.01 0.1,0.05 0.15,0.07zm-0.24 -0.12c-0.05,-0.01 -0.1,-0.05 -0.15,-0.07 0.05,0.02 0.1,0.05 0.15,0.07zm-0.25 -0.12c-0.03,-0.01 -0.1,-0.05 -0.14,-0.07 0.05,0.02 0.09,0.05 0.14,0.07zm-0.22 -0.11c-0.05,-0.02 -0.1,-0.05 -0.15,-0.08 0.05,0.03 0.1,0.07 0.15,0.08zm-0.23 -0.12c-0.05,-0.01 -0.1,-0.05 -0.17,-0.08 0.07,0.03 0.12,0.07 0.17,0.08zm-0.23 -0.11c-0.05,-0.02 -0.1,-0.05 -0.15,-0.07 0.05,0.01 0.1,0.03 0.15,0.07zm-0.25 -0.12c-0.05,-0.03 -0.09,-0.05 -0.14,-0.07 0.05,0.01 0.09,0.03 0.14,0.07zm-0.22 -0.12c-0.05,-0.03 -0.12,-0.05 -0.16,-0.08 0.05,0.02 0.11,0.05 0.16,0.08zm-0.21 -0.12c-0.07,-0.03 -0.12,-0.05 -0.18,-0.08 0.07,0.03 0.11,0.05 0.18,0.08zm-0.24 -0.12c-0.07,-0.03 -0.13,-0.07 -0.18,-0.1 0.07,0.03 0.12,0.07 0.18,0.1zm-0.21 -0.12c-0.07,-0.03 -0.13,-0.07 -0.2,-0.1 0.07,0.03 0.13,0.07 0.2,0.1zm-0.25 -0.11c-0.05,-0.03 -0.11,-0.07 -0.18,-0.1 0.07,0.03 0.11,0.07 0.18,0.1zm-0.21 -0.12c-0.07,-0.03 -0.13,-0.07 -0.21,-0.1 0.07,0.03 0.14,0.07 0.21,0.1zm-0.25 -0.12c-0.05,-0.03 -0.11,-0.07 -0.18,-0.1 0.07,0.03 0.13,0.07 0.18,0.1zm-0.22 -0.11c-0.07,-0.03 -0.13,-0.07 -0.2,-0.1 0.07,0.02 0.13,0.07 0.2,0.1zm-0.23 -0.12c-0.77,-0.4 -1.53,-0.8 -2.3,-1.2 0.77,0.4 1.53,0.8 2.3,1.2zm-2.3 -1.2c-0.07,-0.05 -0.15,-0.08 -0.22,-0.13 0.07,0.05 0.15,0.08 0.22,0.13zm-0.23 -0.13c-0.07,-0.04 -0.14,-0.07 -0.22,-0.12 0.08,0.05 0.15,0.08 0.22,0.12zm-0.24 -0.12c-0.15,-0.08 -0.28,-0.17 -0.43,-0.23 0.15,0.07 0.3,0.15 0.43,0.23zm-0.45 -0.25c-0.07,-0.03 -0.13,-0.07 -0.2,-0.1 0.07,0.03 0.13,0.07 0.2,0.1zm-0.23 -0.12c-0.07,-0.03 -0.13,-0.07 -0.2,-0.11 0.07,0.05 0.13,0.08 0.2,0.11zm-0.21 -0.11c-0.07,-0.03 -0.14,-0.09 -0.22,-0.12 0.07,0.03 0.15,0.09 0.22,0.12zm-0.22 -0.12c-0.15,-0.08 -0.3,-0.16 -0.45,-0.25 0.15,0.09 0.3,0.17 0.45,0.25zm-0.45 -0.25c-48.5,-26.11 -70.04,-55.47 -81.35,-72.71l0 0c11.31,17.24 32.86,46.62 81.35,72.71z"/>
    <path class="fil3" d="M2179.41 2235.18l-392.67 0c0,0 -52.37,-85.52 -179.77,-115.19l0 0c-0.18,-0.03 -0.37,-0.09 -0.55,-0.12 -0.05,-0.02 -0.12,-0.03 -0.18,-0.05 -0.03,-0.01 -0.09,-0.01 -0.13,-0.03 -0.07,-0.01 -0.15,-0.03 -0.24,-0.05 -0.05,-0.02 -0.1,-0.04 -0.16,-0.05 -0.07,0 -0.12,-0.02 -0.18,-0.03 -0.09,-0.01 -0.17,-0.03 -0.25,-0.07 -0.03,0 -0.07,-0.01 -0.1,-0.01 -0.08,-0.02 -0.17,-0.03 -0.23,-0.07 -0.05,0 -0.08,-0.02 -0.12,-0.02 -0.1,-0.02 -0.18,-0.05 -0.27,-0.07 -0.03,0 -0.07,-0.02 -0.1,-0.02 -0.09,-0.03 -0.15,-0.05 -0.25,-0.07 -0.03,0 -0.07,-0.01 -0.1,-0.01 -0.1,-0.04 -0.2,-0.05 -0.28,-0.07 -0.02,-0.02 -0.03,-0.02 -0.07,-0.02 -0.09,-0.03 -0.18,-0.05 -0.29,-0.07 -0.01,-0.01 -0.05,-0.01 -0.07,-0.01 -0.1,-0.03 -0.18,-0.05 -0.28,-0.07 -0.03,-0.02 -0.07,-0.02 -0.08,-0.04 -0.1,-0.01 -0.17,-0.03 -0.27,-0.05 -0.01,-0.02 -0.07,-0.02 -0.08,-0.03 -0.12,-0.02 -0.2,-0.05 -0.3,-0.07l-0.02 0c-0.12,-0.03 -0.21,-0.07 -0.33,-0.09 0,0 -0.02,-0.01 -0.03,-0.01 -0.1,-0.01 -0.2,-0.05 -0.3,-0.07 -0.03,-0.02 -0.05,-0.02 -0.07,-0.02 -0.1,-0.01 -0.2,-0.05 -0.28,-0.07 -0.02,-0.01 -0.05,-0.01 -0.07,-0.01 -32.08,-7.86 -58.34,-17.48 -79.91,-27.86 0,0 0,0 -0.01,0 -0.07,-0.03 -0.13,-0.07 -0.22,-0.1 0,0 0,0 -0.01,-0.02 -0.07,-0.03 -0.14,-0.07 -0.22,-0.1 0,0 0,0 -0.02,-0.02 -0.07,-0.01 -0.13,-0.05 -0.2,-0.08 -0.01,-0.01 -0.03,-0.01 -0.03,-0.03 -0.07,-0.02 -0.13,-0.05 -0.18,-0.08 -0.02,0 -0.05,-0.02 -0.07,-0.04 -0.07,-0.01 -0.12,-0.05 -0.18,-0.08 -0.02,0 -0.03,-0.02 -0.05,-0.02 -0.05,-0.03 -0.11,-0.07 -0.16,-0.09 -0.01,-0.01 -0.05,-0.03 -0.08,-0.05 -0.05,-0.01 -0.1,-0.05 -0.15,-0.07 -0.03,-0.01 -0.05,-0.03 -0.09,-0.05 -0.05,-0.02 -0.1,-0.03 -0.15,-0.07 -0.03,-0.01 -0.05,-0.03 -0.09,-0.03 -0.05,-0.03 -0.12,-0.07 -0.16,-0.08 -0.02,-0.02 -0.03,-0.02 -0.05,-0.03 -0.07,-0.04 -0.11,-0.05 -0.18,-0.09 -0.02,-0.01 -0.03,-0.01 -0.05,-0.03 -0.07,-0.01 -0.11,-0.05 -0.18,-0.08 -0.02,-0.02 -0.03,-0.02 -0.07,-0.03 -0.05,-0.02 -0.1,-0.05 -0.15,-0.09 -0.04,0 -0.07,-0.03 -0.1,-0.03 -0.05,-0.03 -0.1,-0.05 -0.13,-0.08 -0.04,0 -0.07,-0.02 -0.1,-0.04 -0.05,-0.04 -0.1,-0.05 -0.15,-0.08 -0.02,0 -0.03,-0.02 -0.07,-0.03 -0.05,-0.02 -0.1,-0.05 -0.17,-0.08 0,0 -0.01,0 -0.03,-0.02 -0.07,-0.03 -0.13,-0.05 -0.2,-0.08 0,-0.02 0,-0.02 -0.01,-0.02 -0.13,-0.06 -0.28,-0.15 -0.44,-0.21l0 0c-0.03,-0.02 -0.08,-0.03 -0.11,-0.07 -0.03,-0.02 -0.09,-0.03 -0.12,-0.05 -0.03,-0.01 -0.07,-0.04 -0.08,-0.05 -0.05,-0.02 -0.1,-0.05 -0.15,-0.07 -0.03,-0.02 -0.05,-0.03 -0.08,-0.05 -0.05,-0.01 -0.1,-0.05 -0.15,-0.07 -0.03,-0.01 -0.06,-0.04 -0.1,-0.05 -0.05,-0.01 -0.09,-0.05 -0.14,-0.07 -0.03,-0.01 -0.07,-0.03 -0.08,-0.05 -0.05,-0.02 -0.1,-0.05 -0.15,-0.08 -0.03,0 -0.05,-0.02 -0.08,-0.04 -0.05,-0.01 -0.1,-0.05 -0.17,-0.08 -0.01,0 -0.05,-0.02 -0.06,-0.03 -0.05,-0.03 -0.1,-0.05 -0.15,-0.07 -0.03,-0.02 -0.07,-0.04 -0.1,-0.05 -0.05,-0.03 -0.09,-0.05 -0.14,-0.07 -0.01,-0.02 -0.06,-0.03 -0.08,-0.05 -0.05,-0.03 -0.12,-0.07 -0.16,-0.08 -0.02,-0.02 -0.03,-0.02 -0.05,-0.03 -0.07,-0.03 -0.12,-0.05 -0.18,-0.08 -0.02,-0.01 -0.03,-0.01 -0.05,-0.03 -0.07,-0.03 -0.12,-0.07 -0.18,-0.1 -0.01,0 -0.03,0 -0.03,-0.02 -0.07,-0.03 -0.13,-0.07 -0.2,-0.1 -0.02,0 -0.03,-0.01 -0.05,-0.01 -0.07,-0.03 -0.11,-0.07 -0.18,-0.1 -0.02,0 -0.03,-0.02 -0.03,-0.02 -0.07,-0.03 -0.13,-0.07 -0.21,-0.1 0,0 -0.03,-0.02 -0.05,-0.02 -0.05,-0.03 -0.11,-0.07 -0.18,-0.1l-0.04 -0.02c-0.07,-0.03 -0.13,-0.08 -0.2,-0.1 -0.01,-0.02 -0.01,-0.02 -0.03,-0.02 -0.77,-0.4 -1.53,-0.8 -2.3,-1.2l0 0c-0.07,-0.05 -0.15,-0.08 -0.22,-0.13l-0.01 0c-0.07,-0.04 -0.14,-0.07 -0.22,-0.12 0,0 0,0 -0.02,0 -0.13,-0.08 -0.28,-0.17 -0.43,-0.23 0,0 0,-0.01 -0.02,-0.01 -0.07,-0.03 -0.13,-0.07 -0.2,-0.1 -0.01,0 -0.01,-0.02 -0.03,-0.02 -0.07,-0.03 -0.13,-0.07 -0.2,-0.11l-0.01 0c-0.07,-0.03 -0.15,-0.09 -0.22,-0.12l0 0c-0.15,-0.08 -0.3,-0.16 -0.45,-0.25l0 0c-48.49,-26.09 -70.04,-55.47 -81.35,-72.71 35.03,16.42 266.09,65.41 360.11,65.39 9.08,0 16.9,-0.45 23.16,-1.43 61.33,-9.75 215.91,0.38 243.94,-175.29 63.17,236.12 123.24,332.73 124.46,334.66l0 0c0,0.02 0,0.02 0,0.02l0 0.01 0 0 0 0z"/>
    <path class="fil2" d="M1548.4 1787.29c2.45,-62.33 -17.18,-139.21 -45.35,-214.42l0 -2.04c28.54,75.51 48.28,152.96 45.35,216.45z"/>
    <path class="fil21" d="M1503.05 1572.88c-10.79,-28.78 -22.83,-57.32 -35.36,-84.72l0 -1.22c12.55,27.13 24.57,55.37 35.36,83.9l0 2.04z"/>
    <path class="fil20" d="M1467.69 1488.16c-15.19,-33.2 -31.11,-64.73 -46.42,-92.93l0.18 0c15.27,27.93 31.13,59.01 46.23,91.72l0 1.22z"/>
    <path class="fil22" d="M1421.45 1395.22l-0.18 0c-13.4,-24.71 -26.33,-46.87 -37.88,-65.43l0 0c11.66,18.71 24.63,40.85 38.07,65.43z"/>
    <path class="fil3" d="M1575.54 1906.45l-45.37 -44.76c11.47,-20.79 17.13,-46.08 18.23,-74.4 2.93,-63.49 -16.81,-140.94 -45.35,-216.45 -10.79,-28.53 -22.81,-56.77 -35.36,-83.9 -15.11,-32.71 -30.96,-63.79 -46.23,-91.72 -13.44,-24.58 -26.41,-46.72 -38.07,-65.43 39.75,48.15 81.95,104.52 124.38,169.68 182.37,280.01 67.78,406.97 67.78,406.97z"/>
    <path class="fil4" d="M926.18 1304.77c0,46.32 -37.55,83.86 -83.88,83.86 -46.32,0 -83.87,-37.55 -83.87,-83.86 0,-46.34 37.55,-83.89 83.87,-83.89 46.34,0 83.88,37.55 83.88,83.89z"/>
    <path class="fil23" d="M798.65 1306.97c0,0 -8.32,-34.13 11.49,-46.92 19.82,-12.79 40.98,-15.71 55.44,-8.34 20.04,10.21 28.27,37.78 21.85,53.06l-53.19 -13.37 -35.6 15.57z"/>
    <polygon class="fil1" points="830.94,1371.61 855.56,1371.61 855.56,1347.02 830.94,1347.02 "/>
    <path class="fil24" d="M855.57 1361.78l0 -14.75 -24.63 0 0 12.55c5.3,2.84 13.15,4.47 24.63,2.2z"/>
    <path class="fil1" d="M894.42 1303.02c-2.59,-1.27 -5.55,-1.05 -8.25,0.31 0.92,-24.26 -18.89,-44.67 -43.87,-43.8 -24.96,-0.87 -44.77,19.54 -43.85,43.8 -2.7,-1.37 -5.69,-1.58 -8.25,-0.31 -4.92,2.42 -6.45,9.37 -3.42,15.52 3.03,6.17 9.5,9.19 14.44,6.75 0.69,-0.33 1.29,-0.77 1.84,-1.27 2.83,20.06 19.59,35.1 39.25,34.81 19.67,0.28 36.43,-14.76 39.25,-34.81 0.55,0.5 1.17,0.94 1.85,1.27 4.93,2.44 11.39,-0.58 14.44,-6.75 3.04,-6.15 1.5,-13.11 -3.42,-15.52z"/>
    <path class="fil4" d="M858.42 1331.68c-1.09,4.85 -6.65,8.69 -13.47,8.89 -6.84,0.22 -12.62,-3.27 -14.01,-8.05l27.48 -0.83z"/>
    <path class="fil23" d="M798.45 1303.34c0,0 32.23,-9.77 46.35,-26.06 0,0 -4,19.64 -6.98,22.77 0.95,0.62 32.2,-14.57 36.45,-28.59 4.23,-14.02 -31.96,-19.06 -31.96,-19.06 0,0 -12.41,5.27 -13.02,5.59 -0.64,0.31 -12.28,1.68 -13.61,4.65 -1.74,3.85 -9.94,4.2 -9.94,4.2l-5.18 10.79 -3.64 11.36 1.54 14.35z"/>
    <path class="fil23" d="M772.06 1258.94c7.11,2.87 15.33,4.2 23.86,1.57 18.81,-5.77 26.26,-3.54 28.76,-2.12 1.5,0.87 3.3,1.2 4.94,0.65 1.85,-0.62 3.58,-2.3 3.05,-6.53 0,0 0.73,-17.88 -14.59,-28.06 -19.11,5.77 -35.33,18.16 -46.01,34.5z"/>
    <path class="fil25" d="M812.51 1257.77l0 -0.02c-0.56,-0.73 -0.38,-1.78 0.38,-2.28 3.13,-2.07 11.22,-6.72 20.92,-7.22 0.92,-0.03 1.69,0.7 1.69,1.6 0,0.86 -0.67,1.56 -1.52,1.59 -8.87,0.47 -16.48,4.85 -19.34,6.7 -0.7,0.47 -1.63,0.3 -2.14,-0.37z"/>
    <path class="fil26" d="M1536.7 654.96l-569.49 0c-18.47,0 -33.46,14.98 -33.46,33.46l0 237.27c0,18.48 14.99,33.46 33.46,33.46l59.14 0c-3.43,26.12 -7.93,63.59 -5.47,63.59 2.63,0 31.33,-39.42 48.69,-63.59l467.13 0c18.47,0 33.47,-14.98 33.47,-33.46l0 -237.27c0,-18.48 -14.99,-33.46 -33.47,-33.46z"/>
    <path class="fil4" d="M1127.89 807.89c0,46.32 -37.57,83.87 -83.88,83.87 -46.32,0 -83.88,-37.55 -83.88,-83.87 0,-46.32 37.56,-83.88 83.88,-83.88 46.32,0 83.88,37.55 83.88,83.88z"/>
    <polygon class="fil1" points="1032.65,874.74 1057.28,874.74 1057.28,850.15 1032.65,850.15 "/>
    <path class="fil24" d="M1057.28 864.9l0 -14.74 -24.62 0 0 12.54c5.3,2.84 13.16,4.48 24.62,2.2z"/>
    <path class="fil1" d="M1096.11 806.14c-2.57,-1.26 -5.55,-1.04 -8.25,0.33 0.93,-24.26 -18.89,-44.67 -43.85,-43.81 -24.96,-0.86 -44.79,19.54 -43.85,43.81 -2.7,-1.37 -5.69,-1.59 -8.26,-0.33 -4.94,2.43 -6.47,9.39 -3.42,15.54 3.04,6.15 9.49,9.18 14.42,6.75 0.68,-0.34 1.3,-0.77 1.85,-1.27 2.82,20.06 19.59,35.1 39.25,34.82 19.67,0.28 36.43,-14.76 39.25,-34.82 0.55,0.5 1.17,0.93 1.85,1.27 4.94,2.43 11.39,-0.59 14.42,-6.75 3.05,-6.15 1.51,-13.11 -3.42,-15.54z"/>
    <path class="fil27" d="M1014.01 753.04c0,0 12.37,-10.46 40.46,-8.77 28.09,1.69 33.43,16.36 35.03,37.29l-1.65 24.91c0,0 -7.29,-7.5 -16.79,-28.29 0,0 -15.72,17.65 -22.57,15.56 -6.85,-2.09 2.58,-14.8 2.58,-14.8 0,0 -32.05,27.58 -50.92,27.53 0,0 -9.99,-32.27 4.03,-44.11 0,0 -10.57,0.51 -11.12,-1.57 -0.56,-2.08 5.04,-5.19 15.19,-4.01 0,0 -7.24,-14.16 -3.2,-15.63 4.05,-1.47 8.95,11.89 8.95,11.89z"/>
    <path class="fil4" d="M1060.13 834.8c-1.08,4.86 -6.65,8.69 -13.49,8.89 -6.82,0.21 -12.6,-3.27 -13.99,-8.06l27.48 -0.83z"/>
    <path class="fil28" d="M1483.64 737.91l-319.97 0c-3.82,0 -6.92,-3.11 -6.92,-6.93l0 -0.72c0,-3.83 3.1,-6.93 6.92,-6.93l319.97 0c3.83,0 6.94,3.1 6.94,6.93l0 0.72c0,3.82 -3.11,6.93 -6.94,6.93z"/>
    <path class="fil28" d="M1228.66 776.36l-64.99 0c-3.82,0 -6.92,-3.1 -6.92,-6.93l0 -0.72c0,-3.83 3.1,-6.93 6.92,-6.93l64.99 0c3.82,0 6.92,3.1 6.92,6.93l0 0.72c0,3.83 -3.1,6.93 -6.92,6.93z"/>
    <path class="fil28" d="M1483.64 776.36l-211.38 0c-3.82,0 -6.92,-3.1 -6.92,-6.93l0 -0.72c0,-3.83 3.1,-6.93 6.92,-6.93l211.38 0c3.83,0 6.94,3.1 6.94,6.93l0 0.72c0,3.83 -3.11,6.93 -6.94,6.93z"/>
    <path class="fil28" d="M1322.28 814.83l-158.61 0c-3.82,0 -6.92,-3.1 -6.92,-6.93l0 -0.72c0,-3.83 3.1,-6.93 6.92,-6.93l158.61 0c3.82,0 6.92,3.11 6.92,6.93l0 0.72c0,3.83 -3.1,6.93 -6.92,6.93z"/>
    <path class="fil28" d="M1483.64 814.83l-122.28 0c-3.83,0 -6.94,-3.1 -6.94,-6.93l0 -0.72c0,-3.83 3.1,-6.93 6.94,-6.93l122.28 0c3.83,0 6.94,3.11 6.94,6.93l0 0.72c0,3.83 -3.11,6.93 -6.94,6.93z"/>
    <path class="fil28" d="M1483.64 853.28l-319.97 0c-3.82,0 -6.92,-3.1 -6.92,-6.92l0 -0.72c0,-3.82 3.1,-6.92 6.92,-6.92l319.97 0c3.83,0 6.94,3.1 6.94,6.92l0 0.72c0,3.83 -3.11,6.92 -6.94,6.92z"/>
    <path class="fil29" d="M1047.98 1247.08l-98.5 0c-3.84,0 -6.94,-3.1 -6.94,-6.94l0 -0.72c0,-3.82 3.1,-6.92 6.94,-6.92l98.5 0c3.82,0 6.92,3.1 6.92,6.92l0 0.72c0,3.83 -3.1,6.94 -6.92,6.94z"/>
    <path class="fil29" d="M1011.51 1285.53l-62.04 0c-3.84,0 -6.94,-3.1 -6.94,-6.92l0 -0.72c0,-3.83 3.1,-6.94 6.94,-6.94l62.04 0c3.82,0 6.92,3.11 6.92,6.94l0 0.72c0,3.82 -3.1,6.92 -6.92,6.92z"/>
    <path class="fil29" d="M1118 1285.53l-79.54 0c-3.83,0 -6.94,-3.1 -6.94,-6.92l0 -0.72c0,-3.83 3.1,-6.94 6.94,-6.94l79.54 0c3.82,0 6.92,3.11 6.92,6.94l0 0.72c0,3.82 -3.1,6.92 -6.92,6.92z"/>
    <path class="fil29" d="M1256.99 1285.53l-112.04 0c-3.83,0 -6.94,-3.1 -6.94,-6.92l0 -0.72c0,-3.83 3.1,-6.94 6.94,-6.94l112.04 0c3.83,0 6.94,3.11 6.94,6.94l0 0.72c0,3.82 -3.1,6.92 -6.94,6.92z"/>
    <path class="fil29" d="M1256.99 1247.08l-176.55 0c-3.82,0 -6.92,-3.1 -6.92,-6.94l0 -0.72c0,-3.82 3.1,-6.92 6.92,-6.92l176.55 0c3.83,0 6.94,3.1 6.94,6.92l0 0.72c0,3.83 -3.1,6.94 -6.94,6.94z"/>
    <path class="fil29" d="M1256.99 1360.93l-307.52 0c-3.84,0 -6.94,-3.1 -6.94,-6.94l0 -0.72c0,-3.82 3.1,-6.92 6.94,-6.92l307.52 0c3.83,0 6.94,3.1 6.94,6.92l0 0.72c0,3.83 -3.1,6.94 -6.94,6.94z"/>
    <path class="fil29" d="M1101.63 1324l-152.16 0c-3.84,0 -6.94,-3.1 -6.94,-6.92l0 -0.73c0,-3.82 3.1,-6.92 6.94,-6.92l152.16 0c3.83,0 6.93,3.1 6.93,6.92l0 0.73c0,3.82 -3.1,6.92 -6.93,6.92z"/>
    <path class="fil29" d="M1256.99 1324l-117.21 0c-3.84,0 -6.92,-3.1 -6.92,-6.92l0 -0.73c0,-3.82 3.08,-6.92 6.92,-6.92l117.21 0c3.83,0 6.94,3.1 6.94,6.92l0 0.73c0,3.82 -3.1,6.92 -6.94,6.92z"/>
    <path class="fil0" d="M320.45 969.87c-15.97,-80.84 104.61,-108.01 124.02,-27.92 1.75,7.24 2.88,15.33 3.24,24.35 3.75,96.25 -54.47,201.02 -116.45,183.38 -61.97,-17.64 -26.29,-83.38 -7.52,-122.81 8.77,-18.41 0.83,-36.15 -3.28,-57z"/>
    <path class="fil0" d="M2074.42 793.56c-35.31,-12.33 -73.98,6.48 -87.27,41.45 -10.35,27.19 -22.18,65.13 -23.24,98.49 -1.97,60.19 22.01,189.37 113.5,221.26 91.53,31.89 146.15,-52.26 85.23,-149.6 -26.02,-41.59 -13.05,-185.38 -88.21,-211.61z"/>
    <path class="fil8" d="M450.93 1262.25c-8.19,-7.07 -14.92,-10.42 -14.99,-10.45l2.11 -4.25c0.28,0.15 7.34,3.66 15.99,11.14l-3.1 3.57z"/>
    <path class="fil8" d="M480.67 1322.94c-0.43,-11.89 -3.24,-23.16 -8.37,-33.46l4.23 -2.1c5.44,10.92 8.4,22.82 8.85,35.4l-4.72 0.16zm-14.47 69.15l-4.17 -2.22 0.13 -0.25c5.98,-11.02 10.6,-21.84 13.69,-32.16l4.54 1.35c-3.18,10.64 -7.92,21.78 -14.09,33.08l-0.1 0.2zm-33.55 63.1l-4.25 -2.08c4.6,-9.42 9.84,-19.56 16.47,-31.86l4.17 2.25c-6.62,12.24 -11.83,22.31 -16.39,31.69zm-25.58 66.19l-4.59 -1.2c2.92,-11.05 6.63,-22.24 11.34,-34.2l4.4 1.74c-4.63,11.77 -8.28,22.79 -11.15,33.66zm-11.34 70.46c-0.52,-5.52 -0.76,-11.16 -0.76,-16.79 0,-6.35 0.33,-12.87 0.98,-19.37l4.7 0.47c-0.64,6.35 -0.95,12.72 -0.95,18.91 0,5.48 0.25,10.99 0.74,16.35l-4.71 0.44zm20.63 68.96c-5.68,-10.97 -10.28,-22.22 -13.69,-33.46l4.54 -1.37c3.32,10.97 7.8,21.94 13.35,32.64l-4.2 2.18zm42.09 58.36c-8.5,-9.12 -16.24,-18.46 -23.01,-27.73l3.82 -2.78c6.65,9.12 14.28,18.31 22.64,27.29l-3.45 3.22z"/>
    <path class="fil8" d="M498.75 1756.7c-4.99,-4.09 -9.85,-8.24 -14.47,-12.35l3.15 -3.54c4.57,4.07 9.39,8.19 14.32,12.24l-3 3.65z"/>
    <path class="fil6" d="M419.78 1182.24l-6.25 76.18 -44.25 -49.83 -143.11 -117.21 122.03 38.45c0,0 60.09,29.19 62.84,33.05 2.77,3.85 8.74,19.38 8.74,19.38z"/>
    <polygon class="fil7" points="484.64,1149.49 226.18,1091.38 419.78,1182.24 "/>
    <polygon class="fil7" points="320.4,1238.64 400.06,1198.89 226.18,1091.38 "/>
    <path class="fil4" d="M1621.44 780.91c3.4,-14.73 16.57,-25.72 32.36,-25.72 2.87,0 5.69,0.37 8.35,1.06 7.77,-16.63 24.67,-28.16 44.23,-28.16 5.07,0 9.98,0.77 14.57,2.19 10.51,-17.45 29.66,-29.12 51.55,-29.12 26.02,0 48.16,16.51 56.59,39.64 5.93,-3.31 12.77,-5.21 20.05,-5.21 22.83,0 41.32,18.49 41.32,41.3 0,1.35 -0.08,2.69 -0.2,4.01l-268.81 0z"/>
    <path class="fil4" d="M736.51 324.1c2.41,-10.54 11.85,-18.41 23.12,-18.41 2.07,0 4.08,0.27 6,0.76 5.57,-11.9 17.64,-20.15 31.65,-20.15 3.63,0 7.12,0.55 10.4,1.57 7.55,-12.49 21.24,-20.84 36.9,-20.84 18.62,0 34.48,11.82 40.5,28.37 4.25,-2.37 9.15,-3.73 14.37,-3.73 16.32,0 29.54,13.23 29.54,29.56 0,0.97 -0.05,1.93 -0.13,2.87l-192.35 0z"/>
    <path class="fil4" d="M1754.13 1197.15c0,0 -4.05,39.88 -35.51,42.64 31.47,2.76 35.51,42.65 35.51,42.65 0,0 4.05,-39.9 35.51,-42.65 -31.46,-2.76 -35.51,-42.64 -35.51,-42.64z"/>
    <path class="fil4" d="M604.17 902.32c0,0 -4.05,39.89 -35.53,42.65 31.48,2.76 35.53,42.65 35.53,42.65 0,0 4.03,-39.89 35.51,-42.65 -31.48,-2.76 -35.51,-42.65 -35.51,-42.65z"/>
    <path class="fil4" d="M1837.44 1086.79c0,0 -2.7,26.38 -23.53,28.21 20.83,1.82 23.53,28.21 23.53,28.21 0,0 2.66,-26.4 23.49,-28.21 -20.83,-1.83 -23.49,-28.21 -23.49,-28.21z"/>
    <path class="fil4" d="M670.4 809c0,0 -2.68,26.39 -23.51,28.21 20.82,1.82 23.51,28.21 23.51,28.21 0,0 2.67,-26.39 23.49,-28.21 -20.83,-1.82 -23.49,-28.21 -23.49,-28.21z"/>
    <path class="fil4" d="M1715.75 1007.54c0,0 -1.19,11.81 -10.51,12.62 9.33,0.82 10.51,12.62 10.51,12.62 0,0 1.19,-11.81 10.51,-12.62 -9.33,-0.81 -10.51,-12.62 -10.51,-12.62z"/>
    <path class="fil4" d="M632.11 1058.09c0,0 -1.2,11.8 -10.5,12.62 9.3,0.81 10.5,12.64 10.5,12.64 0,0 1.2,-11.82 10.52,-12.64 -9.32,-0.82 -10.52,-12.62 -10.52,-12.62z"/>
   </g>
   <rect class="fil30" x="-0" y="-0" width="2414.58" height="2414.58"/>
  </g>
 </g>
</svg>
