<?xml version="1.0" encoding="UTF-8"?>
<!DOCTYPE svg PUBLIC "-//W3C//DTD SVG 1.1//EN" "http://www.w3.org/Graphics/SVG/1.1/DTD/svg11.dtd">
<!-- Creator: CorelDRAW 2019 (64-Bit) -->
<svg xmlns="http://www.w3.org/2000/svg" xml:space="preserve" width="2.1772in" height="2.1772in" version="1.1" style="shape-rendering:geometricPrecision; text-rendering:geometricPrecision; image-rendering:optimizeQuality; fill-rule:evenodd; clip-rule:evenodd"
viewBox="0 0 2174.24 2174.24"
 xmlns:xlink="http://www.w3.org/1999/xlink"
 xmlns:xodm="http://www.corel.com/coreldraw/odm/2003">
 <defs>
  <style type="text/css">
   <![CDATA[
    .fil0 {fill:none}
    .fil2 {fill:#001249;fill-rule:nonzero}
    .fil6 {fill:#001963;fill-rule:nonzero}
    .fil10 {fill:#09A59D;fill-rule:nonzero}
    .fil8 {fill:#C77518;fill-rule:nonzero}
    .fil4 {fill:#E6E8E8;fill-rule:nonzero}
    .fil7 {fill:#F59323;fill-rule:nonzero}
    .fil3 {fill:white;fill-rule:nonzero}
    .fil9 {fill:#C77518;fill-rule:nonzero;fill-opacity:0.101961}
    .fil5 {fill:#001249;fill-rule:nonzero;fill-opacity:0.200000}
    .fil1 {fill:#F59323;fill-rule:nonzero;fill-opacity:0.200000}
   ]]>
  </style>
 </defs>
 <g id="Layer_x0020_1">
  <metadata id="CorelCorpID_0Corel-Layer"/>
  <g id="_2097847275632">
   <rect class="fil0" x="-0" y="0" width="2174.24" height="2174.24"/>
   <path class="fil1" d="M1846.01 1141.29c0,-400.7 -324.83,-725.53 -725.52,-725.53 -400.69,0 -725.52,324.83 -725.52,725.53 0,400.7 324.83,725.52 725.52,725.52 400.69,0 725.52,-324.82 725.52,-725.52z"/>
   <path class="fil2" d="M1622.93 1315.7l-526.52 310.49 -526.52 -310.49c0,-0.26 0,-0.6 0.09,-0.86 0.43,-1.97 29.49,-26.23 73.81,-62.23 0.42,-0.34 0.77,-0.68 1.2,-1.03 145.39,-118.04 451.42,-359.78 451.42,-359.78 0,0 306.03,241.74 451.42,359.78 45,36.52 74.58,61.21 75.01,63.26 0.09,0.26 0.09,0.6 0.09,0.86z"/>
   <path class="fil3" d="M1312.95 634.65l-568.08 0c-48.73,0 -88.23,39.5 -88.23,88.23l0 858.93c0,48.73 39.5,88.23 88.23,88.23l711.82 0c48.73,0 88.23,-39.5 88.23,-88.23l0 -715.18 -231.97 -231.97z"/>
   <path class="fil4" d="M1312.95 778.39c0,48.73 39.5,88.23 88.23,88.23l143.74 0 -231.97 -231.97 0 143.75z"/>
   <path class="fil5" d="M1018.43 779.84l-195.99 0c-17.36,0 -31.43,14.07 -31.43,31.43l0 195.99c0,17.36 14.07,31.43 31.43,31.43l195.99 0c17.36,0 31.43,-14.07 31.43,-31.43l0 -195.99c0,-17.36 -14.07,-31.43 -31.43,-31.43z"/>
   <path class="fil5" d="M1286.92 1110.61l-470.26 0c-13.98,0 -25.32,11.34 -25.32,25.32 0,13.99 11.34,25.33 25.32,25.33l470.26 0c13.98,0 25.32,-11.34 25.32,-25.33 0,-13.98 -11.33,-25.32 -25.32,-25.32z"/>
   <path class="fil5" d="M1286.92 1236.76l-470.26 0c-13.98,0 -25.32,11.33 -25.32,25.32 0,13.98 11.34,25.32 25.32,25.32l470.26 0c13.98,0 25.32,-11.33 25.32,-25.32 0,-13.98 -11.33,-25.32 -25.32,-25.32z"/>
   <path class="fil5" d="M1073.35 1359.12l-256.69 0c-13.98,0 -25.32,11.34 -25.32,25.32 0,13.99 11.34,25.33 25.32,25.33l256.69 0c13.98,0 25.32,-11.34 25.32,-25.33 0,-13.98 -11.33,-25.32 -25.32,-25.32z"/>
   <path class="fil6" d="M1622.99 1315.67l0 505.13c0,35.3 -28.85,64.16 -64.16,64.16l-924.88 0c-35.3,0 -63.99,-28.86 -63.99,-64.16l0 -505.13 526.52 310.44 526.51 -310.44z"/>
   <path class="fil2" d="M1605.19 1864.85l-338.88 -338.88 -169.83 100.14 -169.91 -100.18 -338.91 338.9c11.67,12.32 28.04,20.12 46.29,20.12l924.88 0c18.24,0 34.65,-7.79 46.36,-20.1z"/>
   <polygon class="fil7" points="1213.27,604.56 1426.18,1104.1 1581.79,997.65 1671.97,1128.68 1688.24,907.64 1876.57,792.88 "/>
   <polygon class="fil8" points="1616.28,974 1426.18,1104.1 1581.79,997.65 1671.97,1128.68 1688.24,907.64 1388.15,728.92 "/>
   <polygon class="fil9" points="1684.25,961.82 1388.15,728.92 1688.24,907.64 "/>
   <path class="fil10" d="M1231.32 752.69l69.06 158.47c3.51,8.08 -0.2,17.48 -8.3,20.97l-2.46 1.07c-8.12,3.5 -17.55,-0.29 -20.99,-8.44l-66.59 -159.54c-3.52,-8.36 0.64,-17.98 9.16,-21.12 7.93,-2.93 16.76,0.85 20.12,8.59z"/>
   <path class="fil7" d="M376.48 1473.8c-28.04,0 -50.78,22.73 -50.78,50.77 0,28.04 22.74,50.77 50.78,50.77 28.04,0 50.77,-22.73 50.77,-50.77 0,-28.04 -22.73,-50.77 -50.77,-50.77zm0 71.32l0 0c-11.35,0 -20.55,-9.2 -20.55,-20.55 0,-11.35 9.2,-20.55 20.55,-20.55 11.35,0 20.55,9.2 20.55,20.55 0,11.35 -9.2,20.55 -20.55,20.55z"/>
   <path class="fil7" d="M1737.03 1679.25c-28.04,0 -50.77,22.73 -50.77,50.77 0,28.04 22.73,50.77 50.77,50.77 28.04,0 50.77,-22.73 50.77,-50.77 0,-28.04 -22.73,-50.77 -50.77,-50.77zm0 71.33l0 0c-11.35,0 -20.55,-9.2 -20.55,-20.55 0,-11.35 9.2,-20.55 20.55,-20.55 11.35,0 20.55,9.2 20.55,20.55 0,11.35 -9.2,20.55 -20.55,20.55z"/>
   <path class="fil7" d="M1942.65 1035.82c-21.47,0 -38.87,17.4 -38.87,38.87 0,21.47 17.4,38.87 38.87,38.87 21.47,0 38.88,-17.4 38.88,-38.87 0,-21.47 -17.41,-38.87 -38.88,-38.87zm0 54.61l0 0c-8.69,0 -15.73,-7.05 -15.73,-15.73 0,-8.69 7.05,-15.74 15.73,-15.74 8.69,0 15.73,7.05 15.73,15.74 0,8.69 -7.04,15.73 -15.73,15.73z"/>
   <path class="fil7" d="M1467.9 268.79c-22.7,0 -41.1,18.4 -41.1,41.1 0,22.7 18.4,41.1 41.1,41.1 22.7,0 41.1,-18.4 41.1,-41.1 0,-22.7 -18.4,-41.1 -41.1,-41.1zm0 57.74l0 0c-9.19,0 -16.64,-7.45 -16.64,-16.64 0,-9.18 7.45,-16.63 16.64,-16.63 9.18,0 16.63,7.45 16.63,16.63 0,9.19 -7.45,16.64 -16.63,16.64z"/>
   <path class="fil7" d="M235.93 1262.11c-23.86,0 -43.21,19.35 -43.21,43.22 0,23.86 19.35,43.21 43.21,43.21 23.87,0 43.22,-19.35 43.22,-43.21 0,-23.87 -19.35,-43.22 -43.22,-43.22z"/>
   <path class="fil7" d="M1886.93 1369.54c-17.35,0 -31.43,14.08 -31.43,31.43 0,17.36 14.07,31.43 31.43,31.43 17.36,0 31.43,-14.07 31.43,-31.43 0,-17.36 -14.07,-31.43 -31.43,-31.43z"/>
   <path class="fil7" d="M846.07 281.71c-25.37,0 -45.94,20.57 -45.94,45.94 0,25.37 20.57,45.94 45.94,45.94 25.37,0 45.93,-20.57 45.93,-45.94 0,-25.37 -20.57,-45.94 -45.93,-45.94z"/>
   <path class="fil7" d="M1091.99 1945.74c-18.48,0 -33.47,14.99 -33.47,33.47 0,18.48 14.99,33.47 33.47,33.47 18.48,0 33.47,-14.99 33.47,-33.47 0,-18.49 -14.99,-33.47 -33.47,-33.47z"/>
   <path class="fil7" d="M1739.96 458.9c-21.69,0 -39.29,17.59 -39.29,39.29 0,21.69 17.59,39.29 39.29,39.29 21.7,0 39.29,-17.59 39.29,-39.29 0,-21.7 -17.59,-39.29 -39.29,-39.29z"/>
   <path class="fil7" d="M266.24 945.13c-12.35,0 -22.36,10.01 -22.36,22.37 0,12.35 10.01,22.36 22.36,22.36 12.35,0 22.37,-10.01 22.37,-22.36 0,-12.36 -10.01,-22.37 -22.37,-22.37z"/>
   <path class="fil7" d="M1940.37 694.73c-21.07,0 -38.15,17.08 -38.15,38.16 0,21.07 17.08,38.15 38.15,38.15 21.07,0 38.16,-17.08 38.16,-38.15 0,-21.07 -17.08,-38.16 -38.16,-38.16z"/>
   <path class="fil7" d="M287.19 573.7c-13.45,0 -24.35,10.9 -24.35,24.34 0,13.45 10.9,24.34 24.35,24.34 13.44,0 24.34,-10.9 24.34,-24.34 0,-13.44 -10.9,-24.34 -24.34,-24.34z"/>
   <path class="fil7" d="M1155.13 200.09l15.29 -15.29c5.3,-5.3 5.3,-13.97 0,-19.28 -5.3,-5.3 -13.97,-5.3 -19.27,0l-15.29 15.29 -15.29 -15.29c-5.3,-5.3 -13.97,-5.3 -19.27,0 -5.3,5.3 -5.3,13.97 0,19.28l15.28 15.29 -15.28 15.29c-5.3,5.3 -5.3,13.97 0,19.27 5.3,5.3 13.97,5.3 19.27,0l15.29 -15.29 15.29 15.29c5.3,5.3 13.97,5.3 19.27,0 5.3,-5.3 5.3,-13.98 0,-19.27l-15.29 -15.29z"/>
   <path class="fil7" d="M528.07 444.28l15.29 -15.29c5.3,-5.3 5.3,-13.98 0,-19.28 -5.3,-5.3 -13.97,-5.3 -19.28,0l-15.29 15.29 -15.29 -15.29c-5.3,-5.3 -13.97,-5.3 -19.27,0 -5.3,5.3 -5.3,13.97 0,19.28l15.29 15.29 -15.29 15.29c-5.3,5.3 -5.3,13.97 0,19.27 5.3,5.3 13.97,5.3 19.27,0l15.29 -15.29 15.29 15.29c5.3,5.3 13.97,5.3 19.28,0 5.3,-5.3 5.3,-13.98 0,-19.27l-15.29 -15.29z"/>
   <path class="fil7" d="M1917.7 1595.83l12.95 -12.95c4.49,-4.49 4.49,-11.83 0,-16.32 -4.49,-4.49 -11.84,-4.49 -16.32,0l-12.95 12.95 -12.95 -12.95c-4.49,-4.49 -11.83,-4.49 -16.32,0 -4.49,4.49 -4.49,11.83 0,16.32l12.95 12.95 -12.95 12.95c-4.49,4.49 -4.49,11.83 0,16.32 4.49,4.49 11.83,4.49 16.32,0l12.95 -12.95 12.95 12.95c4.49,4.49 11.83,4.49 16.32,0 4.49,-4.49 4.49,-11.83 0,-16.32l-12.95 -12.95z"/>
  </g>
 </g>
</svg>
