<?xml version="1.0" encoding="UTF-8"?>
<!DOCTYPE svg PUBLIC "-//W3C//DTD SVG 1.1//EN" "http://www.w3.org/Graphics/SVG/1.1/DTD/svg11.dtd">
<!-- Creator: CorelDRAW 2019 (64-Bit) -->
<svg xmlns="http://www.w3.org/2000/svg" xml:space="preserve" width="2.1772in" height="2.1772in" version="1.1" style="shape-rendering:geometricPrecision; text-rendering:geometricPrecision; image-rendering:optimizeQuality; fill-rule:evenodd; clip-rule:evenodd"
viewBox="0 0 649.14 649.14"
 xmlns:xlink="http://www.w3.org/1999/xlink"
 xmlns:xodm="http://www.corel.com/coreldraw/odm/2003">
 <defs>
  <style type="text/css">
   <![CDATA[
    .fil0 {fill:none}
    .fil10 {fill:#001249;fill-rule:nonzero}
    .fil18 {fill:#001963;fill-rule:nonzero}
    .fil23 {fill:#666666;fill-rule:nonzero}
    .fil26 {fill:#6BC9C4;fill-rule:nonzero}
    .fil29 {fill:#999999;fill-rule:nonzero}
    .fil8 {fill:#ABD3EC;fill-rule:nonzero}
    .fil6 {fill:#C77518;fill-rule:nonzero}
    .fil15 {fill:#DBDBDB;fill-rule:nonzero}
    .fil11 {fill:#DDEDF5;fill-rule:nonzero}
    .fil14 {fill:#E29D9E;fill-rule:nonzero}
    .fil3 {fill:#E4E5EA;fill-rule:nonzero}
    .fil19 {fill:#E4F1F7;fill-rule:nonzero}
    .fil9 {fill:#EAA0A0;fill-rule:nonzero}
    .fil22 {fill:#EFA4A2;fill-rule:nonzero}
    .fil17 {fill:#EFADAB;fill-rule:nonzero}
    .fil7 {fill:#F59323;fill-rule:nonzero}
    .fil12 {fill:#F7BDB9;fill-rule:nonzero}
    .fil13 {fill:#F7FBFD;fill-rule:nonzero}
    .fil24 {fill:#F99893;fill-rule:nonzero}
    .fil25 {fill:#FEB546;fill-rule:nonzero}
    .fil21 {fill:#FF574F;fill-rule:nonzero}
    .fil27 {fill:#FF7380;fill-rule:nonzero}
    .fil4 {fill:#FFB7B1;fill-rule:nonzero}
    .fil2 {fill:#FFC0BB;fill-rule:nonzero}
    .fil20 {fill:#FFF2F1;fill-rule:nonzero}
    .fil5 {fill:white;fill-rule:nonzero}
    .fil1 {fill:#001249;fill-rule:nonzero;fill-opacity:0.101961}
    .fil30 {fill:#1F7E4E;fill-rule:nonzero;fill-opacity:0.101961}
    .fil28 {fill:black;fill-rule:nonzero;fill-opacity:0.200000}
    .fil16 {fill:white;fill-rule:nonzero;fill-opacity:0.600000}
   ]]>
  </style>
 </defs>
 <g id="Layer_x0020_1">
  <metadata id="CorelCorpID_0Corel-Layer"/>
  <g id="_2097885674288">
   <rect class="fil0" x="0" y="-0" width="649.14" height="649.14"/>
   <path class="fil1" d="M319.82 573.02c0,0 -208.66,-15.35 -233.76,-117.38 -25.09,-102.03 30.52,-115.91 49.51,-173.06 18.99,-57.15 -67.14,-90.85 -9.49,-168.61 57.65,-77.76 142.66,-79.11 178.49,-42.49 18.24,18.64 37.89,12.51 61.56,6.37 22.83,-5.92 49.41,-11.83 82.06,4.48 66.49,33.23 82.77,100.38 61.75,152.83 -21.03,52.45 65.18,102.6 75.99,162.07 10.82,59.46 -86.77,202.01 -266.1,175.79z"/>
   <path class="fil2" d="M108.39 600.91l125.04 0 10.37 -27.93c3.68,-9.89 11.19,-17.84 20.81,-22.19 9.06,-4.1 21.24,-11.54 33.06,-24.8 22.99,-25.8 35.19,-53.49 35.19,-53.49l-77.49 -0.38c0,0 6.97,-43.34 -31.54,-100.91 -4.12,-6.16 -6,-13.56 -5.35,-20.94l3.65 -41.99c0,0 26.17,-29.25 10.11,-65.54 0,0 -15.35,-21.26 -21.44,-13.48 0,0 -46.38,110.45 -50.61,126.87 -4.22,16.42 -9.85,26.75 -4.22,78.36 1.49,13.66 2.03,25.06 2.01,34.43 -0.04,17.98 -4.05,35.74 -11.74,52l-37.84 79.98z"/>
   <path class="fil3" d="M249.88 562.23l0 0c3.89,-4.88 8.93,-8.82 14.73,-11.44l0 0c-5.8,2.62 -10.84,6.56 -14.73,11.44zm14.81 -11.47c0,-0 0.01,-0.01 0.02,-0.01 -0.01,0 -0.01,0 -0.02,0.01zm0.09 -0.05c0.01,0 0.01,-0 0.02,-0.01 -0.01,0 -0.01,0.01 -0.02,0.01zm0.1 -0.04c0,0 0.01,-0 0.02,-0 -0.01,0 -0.01,0 -0.02,0zm0.08 -0.04c0,-0.01 0.01,-0.01 0.02,-0.01 -0.01,0 -0.01,0 -0.02,0.01zm0.1 -0.05c0,-0 0.01,-0 0.02,-0.01 -0,0 -0.01,0.01 -0.02,0.01zm0.09 -0.04c0.01,-0 0.01,-0.01 0.02,-0.01 -0.01,0 -0.01,0 -0.02,0.01zm0.09 -0.05c0.01,0 0.01,0 0.01,-0 -0,0 -0.01,0 -0.01,0zm0.09 -0.04c0,0 0.01,-0 0.02,-0.01 -0.01,0 -0.02,0.01 -0.02,0.01zm0.1 -0.04c0,-0 0,-0 0,-0l-0 0zm-107.46 -82c0,-1.34 -0.01,-2.72 -0.04,-4.14l0 0 0 0c0.03,1.42 0.04,2.8 0.04,4.13z"/>
   <path class="fil4" d="M233.43 600.91l-125.04 0 37.84 -79.98c7.69,-16.26 11.71,-34.02 11.74,-52 0,-0.17 0,-0.34 0,-0.51 0,-1.34 -0.01,-2.71 -0.04,-4.13 0.06,0.48 5.54,42.41 22.4,48.25 16.96,5.88 33.08,3.85 44.68,16.73 6.44,7.15 15.87,11.52 28.88,11.52 10.42,0 23.16,-2.81 38.48,-9.25 -9.73,9.51 -19.35,15.34 -26.94,18.88 0,0 -0,0 -0,0 -0.03,0.01 -0.05,0.02 -0.08,0.04 -0.01,0 -0.02,0.01 -0.02,0.01 -0.03,0.01 -0.05,0.03 -0.08,0.04 -0,0 -0.01,0 -0.01,0 -0.02,0.01 -0.04,0.02 -0.07,0.04 -0.01,0 -0.01,0 -0.02,0.01 -0.02,0.01 -0.05,0.02 -0.08,0.03 -0,0 -0.01,0 -0.02,0.01 -0.03,0.01 -0.05,0.02 -0.08,0.04 -0.01,0 -0.02,0 -0.02,0.01 -0.02,0.01 -0.04,0.02 -0.06,0.03 -0.01,0 -0.01,0 -0.02,0 -0.03,0.01 -0.05,0.02 -0.08,0.04 -0.01,0 -0.01,0.01 -0.02,0.01 -0.03,0.01 -0.05,0.02 -0.07,0.04 -0.01,0 -0.01,0 -0.02,0.01 -0.03,0.01 -0.05,0.02 -0.08,0.03l0 0c-5.8,2.62 -10.84,6.56 -14.73,11.44 -2.55,3.21 -4.62,6.83 -6.08,10.75l-10.37 27.93z"/>
   <path class="fil5" d="M498.62 240.35c-0.44,-1.91 -2.16,-3.34 -4.2,-3.34 -0.37,0 -0.74,0.05 -1.09,0.14 -1.01,-2.16 -3.2,-3.66 -5.75,-3.66 -0.66,0 -1.3,0.1 -1.89,0.29 -1.36,-2.27 -3.86,-3.79 -6.7,-3.79 -3.39,0 -6.27,2.15 -7.36,5.15 -0.77,-0.43 -1.66,-0.68 -2.61,-0.68 -2.97,0 -5.37,2.41 -5.37,5.37 0,0.18 0,0.35 0.02,0.52l34.95 0z"/>
   <path class="fil5" d="M448.18 113.86c-1.14,-5 -5.62,-8.73 -10.98,-8.73 -0.98,0 -1.94,0.13 -2.84,0.36 -2.64,-5.65 -8.37,-9.56 -15.02,-9.56 -1.72,0 -3.38,0.26 -4.94,0.75 -3.58,-5.92 -10.08,-9.88 -17.5,-9.88 -8.83,0 -16.36,5.61 -19.21,13.45 -2.02,-1.12 -4.34,-1.77 -6.81,-1.77 -7.74,0 -14.02,6.28 -14.02,14.02 0,0.46 0.02,0.91 0.07,1.36l91.24 0z"/>
   <path class="fil5" d="M200.63 199.83c-0.96,-4.19 -4.71,-7.31 -9.18,-7.31 -0.82,0 -1.62,0.11 -2.38,0.31 -2.21,-4.73 -7.01,-8 -12.56,-8 -1.44,0 -2.83,0.22 -4.13,0.63 -2.99,-4.96 -8.43,-8.27 -14.64,-8.27 -7.4,0 -13.69,4.69 -16.08,11.26 -1.69,-0.94 -3.64,-1.48 -5.71,-1.48 -6.48,0 -11.73,5.25 -11.73,11.73 0,0.38 0.02,0.76 0.05,1.14l76.37 0z"/>
   <path class="fil6" d="M169.72 100.55c28.75,45.36 99.6,85.78 99.6,85.78 0,0 -56.32,-4.57 -84.27,-40.97l10.13 -8.39c0,0 -8.05,0.78 -14.8,1.56 -6.22,-10.31 -10.24,-22.82 -10.66,-37.97z"/>
   <path class="fil7" d="M245.15 119.31c-4.37,1.98 -10.83,5.01 -10.83,5.01l6.23 -8.95c-7.26,-5.65 -15.24,-9.41 -23.16,-11.87 -3.21,4.67 -6.98,9.89 -6.98,9.89l-0.75 -11.92c-21.21,-4.57 -39.94,-0.91 -39.94,-0.91 28.75,45.36 99.6,85.78 99.6,85.78 -0.32,-33.33 -10.47,-54.13 -24.17,-67.02z"/>
   <path class="fil7" d="M159.17 164.55c8.45,-4.97 17.03,-7.65 25.37,-8.74 2.51,2.87 5.59,6.24 5.59,6.24l0.17 -6.75c32.04,-1.54 59.05,18.64 59.05,18.64 -18.33,11.15 -34.11,14.28 -47.11,13.36 -0.82,-2.36 -1.98,-5.88 -1.98,-5.88l-2.18 5.43c-6.24,-0.89 -11.77,-2.7 -16.56,-4.92 1.15,-2.82 2.36,-6.04 2.36,-6.04l-6.83 3.74c-11.73,-6.64 -17.88,-15.1 -17.88,-15.1z"/>
   <path class="fil6" d="M202.24 187.3c-0.82,-2.36 -1.98,-5.88 -1.98,-5.88l-2.18 5.43c-6.24,-0.89 -11.77,-2.7 -16.56,-4.92 1.15,-2.82 2.36,-6.04 2.36,-6.04l-6.83 3.74c-11.73,-6.64 -17.88,-15.1 -17.88,-15.1 37.28,-4.26 90.19,9.39 90.19,9.39 -18.33,11.15 -34.11,14.28 -47.11,13.36z"/>
   <path class="fil6" d="M474.67 159.89l-2.71 20.37 14.48 -10.57 44.29 -22.62 -34.25 3.14c0,0 -17.46,4.24 -18.4,5.09 -0.95,0.86 -3.4,4.59 -3.4,4.59z"/>
   <polygon class="fil7" points="459.5,147.59 530.72,147.07 474.67,159.89 "/>
   <polygon class="fil7" points="497.56,180.38 478.9,165.39 530.72,147.07 "/>
   <path class="fil8" d="M467.32 170.5c2.73,-1.03 4.74,-1.25 4.76,-1.25l-0.13 -1.27c-0.1,0.01 -2.2,0.24 -5.07,1.32l0.44 1.19z"/>
   <path class="fil8" d="M453.01 182.57c1.29,-3.13 3.13,-5.86 5.52,-8.11l0.87 0.92c-2.24,2.13 -4,4.71 -5.21,7.67l-1.18 -0.48zm-1.6 19.21c-0.51,-3.43 -0.67,-6.67 -0.48,-9.65l1.26 0.08c-0.18,2.89 -0.02,6.05 0.47,9.39l0.01 0.08 -1.25 0.17 -0.01 -0.06zm1.42 9.58l1.27 -0.18c0.53,3.72 0.91,6.76 1.2,9.57l-1.28 0.13c-0.27,-2.79 -0.66,-5.81 -1.19,-9.52zm1.81 19.06l1.27 -0.03c0.09,3.45 -0.02,6.62 -0.31,9.68l-1.26 -0.12c0.29,-3.01 0.39,-6.13 0.31,-9.53zm-5.14 27.81c0.63,-1.31 1.2,-2.67 1.7,-4.05 0.57,-1.56 1.08,-3.2 1.52,-4.86l1.22 0.32c-0.44,1.7 -0.96,3.38 -1.55,4.98 -0.52,1.42 -1.1,2.82 -1.75,4.16l-1.14 -0.55zm-11.32 15.09c2.4,-2.19 4.54,-4.54 6.4,-7l1.01 0.77c-1.9,2.52 -4.1,4.93 -6.56,7.17l-0.86 -0.94zm-15.75 10.62c2.95,-1.49 5.72,-3.1 8.24,-4.78l0.7 1.06c-2.56,1.71 -5.38,3.34 -8.37,4.86l-0.57 -1.13z"/>
   <path class="fil8" d="M409.36 290.81c1.64,-0.57 3.25,-1.16 4.8,-1.77l-0.47 -1.18c-1.53,0.61 -3.13,1.2 -4.75,1.76l0.42 1.2z"/>
   <path class="fil9" d="M402.77 155.63c0,0 26.48,-17.73 32.53,-6.05 6.05,11.68 -34.41,53 -34.41,53l1.88 -46.95z"/>
   <path class="fil9" d="M402.77 232.86c0,0 26.48,-17.72 32.53,-6.05 6.05,11.68 -34.41,53 -34.41,53l1.88 -46.96z"/>
   <path class="fil9" d="M402.77 285.48c0,0 26.48,-17.73 32.53,-6.05 6.05,11.68 -34.41,53 -34.41,53l1.88 -46.95z"/>
   <path class="fil10" d="M384.48 135.77l-145.4 0c-10.83,0 -19.61,8.77 -19.61,19.61l0 297.14c0,10.92 8.87,19.61 19.61,19.61l145.4 0c10.83,0 19.61,-8.77 19.61,-19.61l0 -297.14c0,-10.93 -8.88,-19.61 -19.61,-19.61z"/>
   <path class="fil3" d="M332.86 472.5l0 0 -77.49 -0.38 77.5 0c-0,0.25 -0.01,0.38 -0.01,0.38l0 0z"/>
   <path class="fil4" d="M251.93 486.26c-28.53,-0.01 -40.75,-13.58 -42.95,-24.1 -1.25,-5.95 4.4,-24.38 10.5,-41.66l0 32.02c0,10.92 8.87,19.61 19.61,19.61l16.28 0 77.49 0.38 0 0c0,0 -27.07,7.25 -66.22,12.68 -5.33,0.74 -10.22,1.08 -14.71,1.08z"/>
   <path class="fil10" d="M332.87 472.12l-93.79 0c-10.73,0 -19.61,-8.69 -19.61,-19.61l0 -32.02c1.94,-5.48 3.91,-10.84 5.73,-15.65l3.78 0 0 40.56 99.09 0c0.07,0.16 0.16,0.32 0.25,0.48 1.22,2.1 2.87,4.95 4.84,8.34 -0.14,9.34 -0.26,16.25 -0.29,17.9z"/>
   <polygon class="fil5" points="228.98,445.4 394.58,445.4 394.58,162.49 228.98,162.49 "/>
   <path class="fil11" d="M219.48 361.62c-0.99,-3.67 -1.34,-7.52 -1,-11.36l1 -11.54 0 22.9z"/>
   <path class="fil12" d="M219.48 404.84l-8.96 0c-4.97,0 -9,-4.03 -9,-9l0 -59.35c0,-4.97 4.03,-9 9,-9l8.96 0 0 11.22 -1 11.54c-0.34,3.84 0.01,7.69 1,11.36l0 43.21z"/>
   <path class="fil10" d="M225.21 404.84l-5.73 0 0 -77.34 9.51 0 0 67.52c-1.11,2.83 -2.39,6.17 -3.78,9.82z"/>
   <path class="fil10" d="M228.98 404.84l-3.78 0c1.38,-3.65 2.67,-6.99 3.78,-9.82l0 9.82z"/>
   <path class="fil13" d="M337.36 422.68c-0.73,0 -9.04,-11.45 -13.62,-17.84l-94.76 0 0 -77.34 123.45 0c3.22,5.35 6.87,11.06 10.9,17.03l0 4.64c-6.23,0.78 -19.31,2.95 -19.91,7.47 -0.75,5.74 0.83,15.69 19.91,18.21l0 21c0,4.97 -4.03,9 -9,9l-18.53 0c0.93,7.03 2.25,17.84 1.56,17.84z"/>
   <path class="fil11" d="M405.81 274.81l-0.19 0c2.49,-2.7 5.74,-6.31 9.19,-10.36l0 1.37c0,4.97 -4.03,9 -9,9zm-1.72 -42.79l0 -32.79c1.37,-1.47 3.12,-3.36 5.08,-5.55 3.31,1.33 5.64,4.57 5.64,8.35l0 24.26c-4.62,2.05 -8.71,4.48 -10.72,5.73z"/>
   <path class="fil14" d="M404.08 199.23l0 -6.19 1.72 0c1.19,0 2.32,0.23 3.35,0.65 -1.96,2.19 -3.7,4.08 -5.08,5.55z"/>
   <path class="fil14" d="M405.62 274.81l-1.53 0 0 -42.79c2.01,-1.25 6.1,-3.68 10.72,-5.73l0 38.16c-3.45,4.05 -6.7,7.66 -9.19,10.36z"/>
   <polygon class="fil10" points="404.08,274.81 394.58,274.81 394.58,193.04 404.08,193.04 "/>
   <path class="fil13" d="M267.14 291.91c-0.66,0 0.55,-10.07 1.47,-17.1l-15.9 0c-4.97,0 -9,-4.03 -9,-9l0 -63.79c0,-4.97 4.03,-8.99 9,-8.99l141.87 0 0 81.78 -114.35 0c-4.67,6.5 -12.38,17.1 -13.09,17.1z"/>
   <path class="fil5" d="M345.92 153.6l-68.01 0c-0.78,0 -1.42,-0.64 -1.42,-1.43l0 -0.7c0,-0.79 0.64,-1.43 1.42,-1.43l68.01 0c0.79,0 1.43,0.64 1.43,1.43l0 0.7c0,0.79 -0.64,1.43 -1.43,1.43z"/>
   <path class="fil2" d="M216.18 333.61c0,0 1,3.72 3.26,5.55l2.68 -30.88c0,0 19.25,-21.52 14.6,-50.54 -1.59,-9.93 -6.53,-19.07 -14.09,-25.72 -4.31,-3.79 -9.05,-6.33 -11.84,-2.76 0,0 -21.81,51.94 -36.88,89.88l42.27 14.47z"/>
   <path class="fil15" d="M348.39 312.11l-143.82 0c-4.97,0 -9,4.03 -9,8.99l0 59.35c0,4.97 4.03,8.99 9,8.99l113.23 0c4.58,6.4 12.89,17.85 13.63,17.85 0.69,0 -0.64,-10.82 -1.57,-17.85l18.53 0c4.97,0 8.99,-4.03 8.99,-8.99l0 -59.35c0,-4.97 -4.03,-8.99 -8.99,-8.99z"/>
   <polygon class="fil7" points="228.98,445.4 394.58,445.4 394.58,428.67 228.98,428.67 "/>
   <polygon class="fil7" points="228.98,177.5 394.58,177.5 394.58,162.49 228.98,162.49 "/>
   <path class="fil16" d="M214.71 259.77c6.02,-2.77 9.17,-18.45 10.3,-25.5 -4.84,-4.87 -10.91,-9.24 -14.22,-5.01 0,0 -4.8,11.44 -11.46,27.5 4.55,2.53 10.87,5.08 15.38,3.01z"/>
   <path class="fil17" d="M366.57 348.82c0,0 -22.36,1.87 -23.15,7.82 -0.78,5.94 0.94,16.42 22.05,18.46l21.87 0c0,0 -6.54,-18.15 -6.23,-18.77 0.31,-0.62 -14.55,-7.5 -14.55,-7.5z"/>
   <path class="fil2" d="M330.68 437.48c-3.03,1.61 -4.08,5.44 -2.37,8.4 10.29,17.75 51.22,88.29 54.9,94.03 4.23,6.57 14.55,22.05 48.8,30.03 34.25,7.98 48.33,30.97 48.33,30.97l105.57 0c0,0 -24.86,-39.41 -45.51,-141.7 0,0 -15.95,-84.93 -45.98,-82.11 0,0 -18.3,-19.24 -36.13,-15.49 0,0 -33.78,-20.18 -53.02,-20.18l-46.2 -54.61c-4.58,-5.41 -12.64,-6.46 -18.26,-2.16 -1.81,1.38 -3.19,3.21 -3.57,5.63 -1.41,8.92 10.32,31.44 29.09,58.65 18.77,27.21 65.22,113.55 45.04,151.56 0,0 -20.65,-15.49 -38.47,-40.35 -14.93,-20.83 -32.5,-27.83 -42.22,-22.67z"/>
   <path class="fil9" d="M405.45 341.46c6.13,5.25 11.87,10.94 17.3,16.92 7.33,7.98 16.58,19.8 22.03,28.94 6.84,11.29 11.36,21.19 13.51,33.63l-0.13 0.03c-2.46,-11.69 -8.9,-24.27 -14.5,-32.96 -4.2,-6.8 -11.96,-17.59 -21.74,-28.91 -4.92,-5.67 -11.15,-12.37 -16.57,-17.55l0.1 -0.1z"/>
   <path class="fil9" d="M458 361.46c4.98,2.56 9.44,6.12 13.37,10.14 3.98,4.01 7.28,8.56 10.13,13.52 2.78,4.92 4.92,10.2 6.35,15.65 1.21,5.11 1.99,8.57 2.12,16.64l-0.14 0.01c-0.46,-5.53 -1.47,-11.01 -3.05,-16.34 -1.58,-5.15 -3.81,-10.68 -6.5,-15.28 -2.71,-4.85 -5.99,-9.36 -9.72,-13.46 -3.53,-3.87 -8.15,-8.04 -12.63,-10.77l0.08 -0.13z"/>
   <path class="fil9" d="M494.04 376.7c4.41,3.33 8.88,9.24 11.06,13.23 2.72,4.69 4.87,10.13 6.3,16.09 1.03,3.81 1.31,7.51 1.47,11.39l-0.14 0.02c-0.65,-3.75 -1.06,-6.55 -2.4,-11.1 -2.05,-6.89 -3.66,-10.44 -6.4,-15.75 -1.65,-3.28 -5.91,-9.77 -9.94,-13.77l0.06 -0.1z"/>
   <path class="fil16" d="M351.99 459.32c0.94,-4.75 -4.6,-12.28 -9.62,-17.97 -3.14,-3.55 -8.09,-4.88 -12.44,-3.39 -2.43,1.81 -3.17,5.22 -1.61,7.92 2.77,4.77 7.74,13.35 13.62,23.47 4.4,-2.24 9.19,-5.63 10.06,-10.03z"/>
   <path class="fil16" d="M356.43 308.26c2.67,-0.53 14.78,-4.56 14.04,-6.77l-11.95 -14.11c-2.37,-2.81 -5.68,-4.43 -9.1,-4.76l0 0 -0.05 -0.01c-0.1,-0.01 -0.32,-0.02 -0.62,-0.02 -1.6,0 -5.55,0.46 -6.42,4.79 -0.86,4.28 6.23,14.69 9.36,19.02 1.08,1.49 2.94,2.22 4.74,1.86z"/>
   <path class="fil18" d="M144.42 527.13c13.23,8.13 55.82,32.43 99.86,37.62 2.58,0.3 4.4,2.67 3.63,4.71l-7.69 20.6c-0.51,1.37 -2.04,2.16 -3.76,1.95 -12.98,-1.58 -66.54,-9.64 -104.22,-38.79 -1.29,-0.99 -1.82,-2.5 -1.34,-3.78l7.85 -21.03c0.74,-1.98 3.51,-2.61 5.67,-1.29z"/>
   <path class="fil10" d="M140.55 546.83l-0.14 -0.05c-0.78,-0.29 -1.17,-1.15 -0.88,-1.92l2.37 -6.35c0.29,-0.77 1.15,-1.17 1.92,-0.87l0.15 0.05c0.77,0.29 1.16,1.15 0.87,1.92l-2.37 6.35c-0.29,0.77 -1.15,1.17 -1.92,0.87z"/>
   <path class="fil10" d="M148.48 551.72l-0.15 -0.06c-0.77,-0.29 -1.16,-1.15 -0.87,-1.92l2.37 -6.35c0.29,-0.77 1.15,-1.16 1.92,-0.87l0.14 0.05c0.77,0.29 1.17,1.15 0.88,1.92l-2.37 6.34c-0.29,0.77 -1.15,1.17 -1.92,0.88z"/>
   <path class="fil10" d="M156.41 556.57l-0.15 -0.05c-0.77,-0.29 -1.16,-1.15 -0.87,-1.92l2.37 -6.35c0.29,-0.77 1.15,-1.17 1.92,-0.87l0.14 0.05c0.77,0.29 1.16,1.15 0.88,1.92l-2.37 6.35c-0.29,0.77 -1.15,1.17 -1.92,0.87z"/>
   <path class="fil10" d="M164.58 560.51l-0.15 -0.05c-0.77,-0.29 -1.17,-1.15 -0.88,-1.92l2.37 -6.35c0.29,-0.77 1.15,-1.17 1.92,-0.87l0.14 0.05c0.77,0.29 1.17,1.15 0.88,1.92l-2.37 6.35c-0.29,0.77 -1.15,1.16 -1.92,0.87z"/>
   <path class="fil10" d="M172.61 565.1l-0.15 -0.05c-0.77,-0.29 -1.17,-1.15 -0.87,-1.92l2.37 -6.34c0.29,-0.77 1.15,-1.17 1.92,-0.88l0.14 0.05c0.78,0.29 1.16,1.15 0.88,1.92l-2.37 6.34c-0.29,0.77 -1.15,1.16 -1.92,0.88z"/>
   <path class="fil10" d="M181 568.73l-0.14 -0.05c-0.78,-0.29 -1.17,-1.15 -0.88,-1.92l2.37 -6.34c0.29,-0.77 1.15,-1.16 1.92,-0.88l0.15 0.05c0.77,0.29 1.16,1.15 0.87,1.92l-2.37 6.34c-0.29,0.77 -1.15,1.16 -1.92,0.88z"/>
   <path class="fil10" d="M189.55 571.92l-0.14 -0.05c-0.77,-0.29 -1.17,-1.15 -0.88,-1.92l2.37 -6.35c0.29,-0.77 1.15,-1.17 1.92,-0.87l0.15 0.05c0.77,0.29 1.17,1.15 0.87,1.92l-2.37 6.35c-0.29,0.77 -1.15,1.17 -1.92,0.87z"/>
   <path class="fil10" d="M198.27 574.67l-0.14 -0.05c-0.77,-0.29 -1.17,-1.15 -0.88,-1.92l2.37 -6.34c0.29,-0.77 1.15,-1.17 1.92,-0.87l0.15 0.05c0.77,0.29 1.17,1.15 0.87,1.92l-2.37 6.35c-0.29,0.77 -1.15,1.16 -1.92,0.87z"/>
   <path class="fil10" d="M207.34 576.48l-0.14 -0.05c-0.78,-0.29 -1.17,-1.15 -0.88,-1.92l2.37 -6.35c0.29,-0.77 1.15,-1.17 1.92,-0.87l0.15 0.05c0.77,0.29 1.17,1.15 0.87,1.92l-2.37 6.35c-0.29,0.77 -1.15,1.17 -1.92,0.87z"/>
   <path class="fil10" d="M216.18 578.92l-0.15 -0.05c-0.77,-0.29 -1.17,-1.15 -0.87,-1.92l2.37 -6.34c0.29,-0.77 1.15,-1.17 1.92,-0.87l0.14 0.05c0.77,0.29 1.16,1.15 0.88,1.92l-2.37 6.35c-0.29,0.77 -1.15,1.16 -1.92,0.87z"/>
   <path class="fil10" d="M225.35 580.46l-0.15 -0.05c-0.77,-0.29 -1.16,-1.15 -0.87,-1.92l2.37 -6.34c0.29,-0.77 1.15,-1.17 1.92,-0.88l0.14 0.05c0.77,0.29 1.17,1.15 0.88,1.92l-2.37 6.35c-0.29,0.77 -1.15,1.16 -1.92,0.87z"/>
   <path class="fil10" d="M234.53 581.96l-0.15 -0.05c-0.77,-0.29 -1.17,-1.15 -0.87,-1.92l2.37 -6.35c0.29,-0.77 1.15,-1.16 1.92,-0.87l0.14 0.05c0.78,0.29 1.17,1.15 0.88,1.92l-2.37 6.34c-0.29,0.77 -1.15,1.17 -1.92,0.87z"/>
   <path class="fil19" d="M170.56 574.85l0.04 -0.1c-0.14,-0.02 -0.28,-0.05 -0.42,-0.1l-10.42 -3.89c-1.03,-0.39 -1.53,-1.6 -1.12,-2.72l9.4 -25.17c0.42,-1.11 1.59,-1.7 2.62,-1.32l10.42 3.89c0.61,0.23 1.03,0.75 1.19,1.37 0.82,0.36 1.64,0.71 2.48,1.07 0.28,-2.12 -0.81,-4.17 -2.74,-4.9l-10.43 -3.89c-2.28,-0.85 -4.89,0.46 -5.81,2.93l-9.4 25.17c-0.92,2.47 0.18,5.17 2.47,6.02l10.42 3.89c1.56,0.59 3.28,0.15 4.5,-0.97 -1.06,-0.42 -2.13,-0.85 -3.2,-1.29z"/>
   <path class="fil5" d="M168.28 554.87l-4.54 -1.69c-0.81,-0.31 -1.73,0.16 -2.06,1.04 -0.33,0.88 0.06,1.83 0.87,2.14l4.54 1.69 1.19 -3.18z"/>
   <path class="fil20" d="M585.92 600.91l0 0 0 0zm0 -0c0,0 0,0 0,-0 0,0 0,0 0,0zm0 -0c-0.33,-0.52 -16.48,-26.49 -33.46,-89.97 0,0 0,0 0,0 16.98,63.48 33.13,89.45 33.46,89.97zm-154.04 -30.99c-0.02,-0 -0.03,-0.01 -0.05,-0.01 0.02,0 0.04,0.01 0.05,0.01zm-0.09 -0.02c-0.02,-0 -0.04,-0.01 -0.06,-0.01 0.02,0 0.04,0.01 0.06,0.01zm-0.11 -0.03c-0.02,0 -0.03,-0 -0.05,-0.01 0.02,0 0.03,0.01 0.05,0.01zm-0.12 -0.03c-0.01,0 -0.02,-0 -0.03,-0 0.01,0 0.02,0 0.03,0zm-0.09 -0.02c-0.01,0 -0.02,-0 -0.03,-0 0.01,0 0.02,0 0.03,0zm-0.1 -0.02c-0.01,0 -0.02,-0 -0.03,-0 0.01,0 0.02,0 0.03,0zm-0.09 -0.02c-0.01,0 -0.02,-0 -0.03,-0 0.01,0 0.02,0 0.03,0zm-0.1 -0.02c-0,-0 -0.01,-0 -0.02,-0 0.01,0 0.01,0 0.02,0zm-0.1 -0.02c-0,-0 -0.01,-0 -0.02,-0 0,0 0.01,0 0.02,0zm-0.09 -0.02c-0,-0 -0.02,-0 -0.02,-0.01 0,0 0.01,0 0.02,0.01zm-0.09 -0.02c-0,-0 -0.02,-0 -0.02,-0.01 0,0 0.02,0 0.02,0.01zm-0.1 -0.03l-0.01 0 0.01 0zm-0.1 -0.02c0,0 -0,-0 -0.01,-0 0,0 0.01,0 0.01,0zm-0.09 -0.02c-0.01,-0 -0.01,-0 -0.02,-0 0,0 0.01,0 0.02,0zm-0.09 -0.02c-0.01,-0 -0.01,-0 -0.02,-0 0,0 0.01,0 0.02,0z"/>
   <path class="fil3" d="M409.01 562.09c0,0 0,0 -0,0 0,0 0,0 0,0zm-0.06 -0.03c0,0 0,0 -0,-0 0,0 0,0 0,0zm-0.06 -0.03c0,0 -0,0 -0,-0 0,0 0,0 0,0zm-0.06 -0.03c-0,-0 -0.01,-0 -0.01,-0.01 0,0 0,0 0.01,0.01zm-0.06 -0.03c-0.01,0 -0.01,-0.01 -0.02,-0.01 0,0 0.01,0.01 0.02,0.01zm-0.07 -0.03c-0,0 -0.01,-0 -0.01,-0 0.01,0 0.01,0 0.01,0zm-0.06 -0.03c-0.01,-0 -0.01,-0.01 -0.02,-0.01 0.01,0 0.02,0.01 0.02,0.01zm-0.06 -0.03c-0,-0 -0.02,-0.01 -0.02,-0.01 0.01,0 0.01,0.01 0.02,0.01zm-0.06 -0.03c-0.01,-0 -0.01,-0.01 -0.02,-0.01 0.01,0 0.01,0 0.02,0.01zm-0.07 -0.03c-0,-0 -0.01,-0 -0.01,-0.01 0.01,0 0.01,0 0.01,0.01zm-0.06 -0.03c-0.01,-0 -0.01,-0 -0.01,-0.01 0,0 0.01,0 0.01,0.01zm-0.06 -0.03c-0.01,-0 -0.01,-0 -0.02,-0.01 0.01,0 0.01,0 0.02,0.01zm-0.06 -0.03c-0.01,0 -0.02,-0.01 -0.03,-0.01 0.01,0 0.02,0.01 0.03,0.01zm-0.06 -0.03c-0.01,0 -0.02,-0 -0.03,-0.01 0.01,0 0.02,0.01 0.03,0.01zm-0.07 -0.03c-0,0 -0.01,-0 -0.02,-0.01 0.01,0 0.01,0.01 0.02,0.01zm-0.06 -0.03c0,0 -0,0 -0.01,-0 0,0 0.01,0 0.01,0zm-0.06 -0.03c0,-0 0,-0 -0,-0 0,0 0,0 0,0zm-0.12 -0.06l0 0 0 0zm-0.03 -0.02c-0.01,-0 -0.02,-0.01 -0.03,-0.01 0.01,0 0.02,0.01 0.03,0.01zm-0.05 -0.03c-0.01,-0 -0.03,-0.01 -0.04,-0.02 0.01,0 0.03,0.01 0.04,0.02zm-0.06 -0.03c-0.01,-0 -0.03,-0.01 -0.04,-0.02 0.01,0 0.03,0.01 0.04,0.02zm-0.07 -0.03c-0.01,-0 -0.03,-0.01 -0.04,-0.02 0.01,0 0.02,0.01 0.04,0.02zm-0.06 -0.03c-0.01,-0 -0.03,-0.02 -0.04,-0.02 0.01,0.01 0.03,0.02 0.04,0.02zm-0.06 -0.03c-0.01,-0 -0.03,-0.01 -0.05,-0.02 0.02,0.01 0.03,0.02 0.05,0.02zm-0.06 -0.03c-0.01,-0 -0.03,-0.01 -0.04,-0.02 0.01,0 0.03,0.01 0.04,0.02zm-0.07 -0.03c-0.01,-0.01 -0.02,-0.01 -0.04,-0.02 0.01,0 0.02,0.01 0.04,0.02zm-0.06 -0.03c-0.01,-0.01 -0.03,-0.01 -0.04,-0.02 0.01,0.01 0.03,0.01 0.04,0.02zm-0.06 -0.03c-0.02,-0.01 -0.03,-0.01 -0.05,-0.02 0.02,0.01 0.03,0.01 0.05,0.02zm-0.06 -0.03c-0.02,-0.01 -0.04,-0.02 -0.05,-0.03 0.02,0.01 0.03,0.02 0.05,0.03zm-0.06 -0.03c-0.02,-0.01 -0.04,-0.02 -0.05,-0.03 0.02,0.01 0.04,0.02 0.05,0.03zm-0.07 -0.03c-0.01,-0.01 -0.03,-0.02 -0.05,-0.03 0.02,0.01 0.03,0.02 0.05,0.03zm-0.06 -0.03c-0.02,-0.01 -0.04,-0.02 -0.06,-0.03 0.02,0.01 0.04,0.02 0.06,0.03zm-0.07 -0.03c-0.01,-0.01 -0.03,-0.02 -0.05,-0.03 0.02,0.01 0.04,0.02 0.05,0.03zm-0.06 -0.03c-0.02,-0.01 -0.04,-0.02 -0.05,-0.03 0.02,0 0.04,0.02 0.05,0.03zm-0.06 -0.03c-0.21,-0.11 -0.41,-0.21 -0.62,-0.32 0.21,0.11 0.41,0.21 0.62,0.32zm-0.62 -0.32c-0.02,-0.01 -0.04,-0.02 -0.06,-0.04 0.02,0.01 0.04,0.02 0.06,0.04zm-0.06 -0.04c-0.02,-0.01 -0.04,-0.02 -0.06,-0.03 0.02,0.01 0.04,0.02 0.06,0.03zm-0.06 -0.03c-0.04,-0.02 -0.08,-0.04 -0.12,-0.06 0.04,0.02 0.08,0.04 0.12,0.06zm-0.12 -0.07c-0.02,-0.01 -0.04,-0.02 -0.05,-0.03 0.02,0.01 0.04,0.02 0.05,0.03zm-0.06 -0.03c-0.02,-0.01 -0.04,-0.02 -0.05,-0.03 0.02,0.01 0.04,0.02 0.05,0.03zm-0.06 -0.03c-0.02,-0.01 -0.04,-0.02 -0.06,-0.03 0.02,0.01 0.04,0.02 0.06,0.03zm-0.06 -0.03c-0.04,-0.02 -0.08,-0.04 -0.12,-0.07 0.04,0.02 0.08,0.04 0.12,0.07zm-0.12 -0.07c-13.04,-7.02 -18.83,-14.91 -21.87,-19.55l0 0c3.04,4.63 8.84,12.53 21.87,19.55z"/>
   <path class="fil4" d="M585.92 600.91l-105.57 0c0,0 -14.08,-22.99 -48.33,-30.97l0 0c-0.05,-0.01 -0.1,-0.02 -0.15,-0.03 -0.02,-0 -0.03,-0.01 -0.05,-0.01 -0.01,-0 -0.02,-0 -0.04,-0.01 -0.02,-0 -0.04,-0.01 -0.06,-0.01 -0.01,-0 -0.03,-0.01 -0.04,-0.01 -0.02,0 -0.03,-0 -0.05,-0.01 -0.02,-0 -0.04,-0.01 -0.07,-0.02 -0.01,0 -0.02,-0 -0.03,-0 -0.02,-0 -0.05,-0.01 -0.06,-0.02 -0.01,0 -0.02,-0 -0.03,-0 -0.03,-0.01 -0.05,-0.01 -0.07,-0.02 -0.01,0 -0.02,-0 -0.03,-0 -0.02,-0.01 -0.04,-0.01 -0.07,-0.02 -0.01,0 -0.02,-0 -0.03,-0 -0.03,-0.01 -0.05,-0.01 -0.08,-0.02 -0,-0 -0.01,-0 -0.02,-0 -0.02,-0.01 -0.05,-0.01 -0.08,-0.02 -0,-0 -0.01,-0 -0.02,-0 -0.03,-0.01 -0.05,-0.01 -0.08,-0.02 -0.01,-0 -0.02,-0 -0.02,-0.01 -0.03,-0 -0.05,-0.01 -0.07,-0.01 -0,-0 -0.02,-0 -0.02,-0.01 -0.03,-0 -0.05,-0.01 -0.08,-0.02l-0.01 0c-0.03,-0.01 -0.06,-0.02 -0.09,-0.02 0,0 -0,-0 -0.01,-0 -0.03,-0 -0.05,-0.01 -0.08,-0.02 -0.01,-0 -0.01,-0 -0.02,-0 -0.03,-0 -0.05,-0.01 -0.08,-0.02 -0,-0 -0.01,-0 -0.02,-0 -8.62,-2.11 -15.68,-4.7 -21.48,-7.49 0,0 0,0 -0,0 -0.02,-0.01 -0.04,-0.02 -0.06,-0.03 0,0 0,0 -0,-0 -0.02,-0.01 -0.04,-0.02 -0.06,-0.03 0,0 0,0 -0,-0 -0.02,-0 -0.04,-0.01 -0.05,-0.02 -0,-0 -0.01,-0 -0.01,-0.01 -0.02,-0 -0.04,-0.02 -0.05,-0.02 -0,0 -0.01,-0.01 -0.02,-0.01 -0.02,-0 -0.03,-0.01 -0.05,-0.02 -0,0 -0.01,-0 -0.01,-0 -0.01,-0.01 -0.03,-0.02 -0.04,-0.02 -0,-0 -0.01,-0.01 -0.02,-0.01 -0.02,-0 -0.03,-0.01 -0.04,-0.02 -0.01,-0 -0.01,-0.01 -0.02,-0.01 -0.01,-0 -0.03,-0.01 -0.04,-0.02 -0.01,-0 -0.01,-0.01 -0.02,-0.01 -0.01,-0.01 -0.03,-0.02 -0.04,-0.02 -0,-0 -0.01,-0 -0.01,-0.01 -0.02,-0.01 -0.03,-0.01 -0.05,-0.02 -0.01,-0 -0.01,-0 -0.01,-0.01 -0.02,-0 -0.03,-0.01 -0.05,-0.02 -0.01,-0 -0.01,-0 -0.02,-0.01 -0.01,-0 -0.03,-0.01 -0.04,-0.02 -0.01,0 -0.02,-0.01 -0.03,-0.01 -0.01,-0.01 -0.03,-0.01 -0.04,-0.02 -0.01,0 -0.02,-0 -0.03,-0.01 -0.01,-0.01 -0.03,-0.01 -0.04,-0.02 -0,0 -0.01,-0 -0.02,-0.01 -0.01,-0 -0.03,-0.01 -0.04,-0.02 0,0 -0,0 -0.01,-0 -0.02,-0.01 -0.04,-0.01 -0.05,-0.02 0,-0 0,-0 -0,-0 -0.04,-0.02 -0.08,-0.04 -0.12,-0.06l0 0c-0.01,-0 -0.02,-0.01 -0.03,-0.02 -0.01,-0 -0.02,-0.01 -0.03,-0.01 -0.01,-0 -0.02,-0.01 -0.02,-0.01 -0.01,-0 -0.03,-0.01 -0.04,-0.02 -0.01,-0 -0.01,-0.01 -0.02,-0.01 -0.01,-0 -0.03,-0.01 -0.04,-0.02 -0.01,-0 -0.02,-0.01 -0.03,-0.01 -0.01,-0 -0.02,-0.01 -0.04,-0.02 -0.01,-0 -0.02,-0.01 -0.02,-0.01 -0.01,-0 -0.03,-0.02 -0.04,-0.02 -0.01,0 -0.01,-0.01 -0.02,-0.01 -0.01,-0 -0.03,-0.01 -0.05,-0.02 -0,0 -0.01,-0 -0.02,-0.01 -0.01,-0.01 -0.03,-0.01 -0.04,-0.02 -0.01,-0 -0.02,-0.01 -0.03,-0.01 -0.01,-0.01 -0.02,-0.01 -0.04,-0.02 -0,-0 -0.02,-0.01 -0.02,-0.01 -0.01,-0.01 -0.03,-0.02 -0.04,-0.02 -0,-0 -0.01,-0 -0.01,-0.01 -0.02,-0.01 -0.03,-0.01 -0.05,-0.02 -0,-0 -0.01,-0 -0.02,-0.01 -0.02,-0.01 -0.03,-0.02 -0.05,-0.03 -0,0 -0.01,0 -0.01,-0 -0.02,-0.01 -0.04,-0.02 -0.05,-0.03 -0.01,0 -0.01,-0 -0.01,-0 -0.02,-0.01 -0.03,-0.02 -0.05,-0.03 -0,0 -0.01,-0 -0.01,-0 -0.02,-0.01 -0.04,-0.02 -0.06,-0.03 0,0 -0.01,-0 -0.01,-0 -0.01,-0.01 -0.03,-0.02 -0.05,-0.03l-0.01 -0c-0.02,-0.01 -0.04,-0.02 -0.05,-0.03 -0,-0.01 -0,-0.01 -0.01,-0.01 -0.21,-0.11 -0.41,-0.21 -0.62,-0.32l0 0c-0.02,-0.01 -0.04,-0.02 -0.06,-0.04l-0 0c-0.02,-0.01 -0.04,-0.02 -0.06,-0.03 0,0 0,0 -0,0 -0.04,-0.02 -0.08,-0.04 -0.12,-0.06 0,0 0,-0 -0,-0 -0.02,-0.01 -0.04,-0.02 -0.05,-0.03 -0,0 -0,-0.01 -0.01,-0.01 -0.02,-0.01 -0.04,-0.02 -0.05,-0.03l-0 0c-0.02,-0.01 -0.04,-0.02 -0.06,-0.03l0 0c-0.04,-0.02 -0.08,-0.04 -0.12,-0.07l0 0c-13.03,-7.01 -18.83,-14.91 -21.87,-19.55 9.42,4.41 71.54,17.59 96.81,17.58 2.44,0 4.54,-0.12 6.23,-0.39 16.49,-2.62 58.05,0.1 65.58,-47.12 16.98,63.48 33.13,89.45 33.46,89.97l0 0c0,0 0,0 0,0l0 0 0 0 0 0z"/>
   <path class="fil3" d="M416.28 480.5c0.66,-16.75 -4.62,-37.42 -12.19,-57.64l0 -0.55c7.67,20.3 12.98,41.12 12.19,58.19z"/>
   <path class="fil21" d="M404.08 422.85c-2.9,-7.74 -6.14,-15.41 -9.51,-22.77l0 -0.33c3.37,7.29 6.61,14.89 9.51,22.56l0 0.55z"/>
   <path class="fil20" d="M394.58 400.08c-4.08,-8.93 -8.36,-17.4 -12.48,-24.99l0.05 0c4.11,7.51 8.37,15.86 12.43,24.66l0 0.33z"/>
   <path class="fil22" d="M382.15 375.09l-0.05 0c-3.6,-6.64 -7.08,-12.6 -10.19,-17.59l0 0c3.13,5.03 6.62,10.98 10.23,17.59z"/>
   <path class="fil4" d="M423.57 512.53l-12.2 -12.04c3.08,-5.59 4.6,-12.39 4.9,-20 0.79,-17.07 -4.52,-37.89 -12.19,-58.19 -2.9,-7.67 -6.13,-15.26 -9.51,-22.56 -4.06,-8.79 -8.32,-17.15 -12.43,-24.66 -3.61,-6.61 -7.1,-12.56 -10.23,-17.59 10.69,12.95 22.03,28.1 33.44,45.62 49.03,75.28 18.22,109.41 18.22,109.41z"/>
   <path class="fil5" d="M249 350.78c0,12.45 -10.09,22.55 -22.55,22.55 -12.45,0 -22.55,-10.09 -22.55,-22.55 0,-12.46 10.09,-22.55 22.55,-22.55 12.46,0 22.55,10.09 22.55,22.55z"/>
   <path class="fil23" d="M214.71 351.37c0,0 -2.24,-9.18 3.09,-12.61 5.33,-3.44 11.02,-4.22 14.9,-2.24 5.39,2.74 7.6,10.16 5.88,14.26l-14.3 -3.59 -9.57 4.19z"/>
   <polygon class="fil2" points="223.39,368.75 230.01,368.75 230.01,362.14 223.39,362.14 "/>
   <path class="fil24" d="M230.01 366.1l0 -3.97 -6.62 0 0 3.37c1.43,0.76 3.54,1.2 6.62,0.59z"/>
   <path class="fil2" d="M240.46 350.31c-0.69,-0.34 -1.49,-0.28 -2.22,0.08 0.25,-6.52 -5.08,-12.01 -11.79,-11.77 -6.71,-0.23 -12.04,5.25 -11.79,11.77 -0.73,-0.37 -1.53,-0.43 -2.22,-0.08 -1.32,0.65 -1.73,2.52 -0.92,4.17 0.81,1.66 2.55,2.47 3.88,1.81 0.18,-0.09 0.35,-0.21 0.49,-0.34 0.76,5.39 5.27,9.44 10.55,9.36 5.29,0.08 9.79,-3.97 10.55,-9.36 0.15,0.13 0.31,0.25 0.5,0.34 1.33,0.66 3.06,-0.16 3.88,-1.81 0.82,-1.65 0.4,-3.52 -0.92,-4.17z"/>
   <path class="fil5" d="M230.78 358.01c-0.29,1.3 -1.79,2.34 -3.62,2.39 -1.84,0.06 -3.39,-0.88 -3.77,-2.17l7.39 -0.22z"/>
   <path class="fil23" d="M214.66 350.39c0,0 8.67,-2.63 12.46,-7.01 0,0 -1.07,5.28 -1.88,6.12 0.25,0.17 8.66,-3.92 9.8,-7.69 1.14,-3.77 -8.59,-5.12 -8.59,-5.12 0,0 -3.33,1.42 -3.5,1.5 -0.17,0.08 -3.3,0.45 -3.66,1.25 -0.47,1.04 -2.67,1.13 -2.67,1.13l-1.39 2.9 -0.98 3.05 0.41 3.86z"/>
   <path class="fil23" d="M207.56 338.46c1.91,0.77 4.12,1.13 6.41,0.42 5.06,-1.55 7.06,-0.95 7.73,-0.57 0.4,0.23 0.89,0.32 1.33,0.17 0.5,-0.17 0.96,-0.62 0.82,-1.76 0,0 0.2,-4.81 -3.92,-7.55 -5.14,1.55 -9.5,4.88 -12.37,9.28z"/>
   <path class="fil25" d="M218.44 338.14l0 -0c-0.15,-0.2 -0.1,-0.48 0.1,-0.61 0.84,-0.56 3.02,-1.81 5.63,-1.94 0.25,-0.01 0.45,0.19 0.45,0.43 0,0.23 -0.18,0.42 -0.41,0.43 -2.38,0.13 -4.43,1.31 -5.2,1.8 -0.19,0.13 -0.44,0.08 -0.57,-0.1z"/>
   <path class="fil26" d="M413.13 176.08l-153.1 0c-4.97,0 -9,4.03 -9,9l0 63.79c0,4.97 4.03,9 9,9l15.9 0c-0.92,7.02 -2.13,17.09 -1.47,17.09 0.71,0 8.42,-10.6 13.09,-17.09l125.58 0c4.97,0 9,-4.03 9,-9l0 -63.79c0,-4.97 -4.03,-9 -9,-9z"/>
   <path class="fil5" d="M303.22 217.19c0,12.45 -10.1,22.55 -22.55,22.55 -12.45,0 -22.55,-10.09 -22.55,-22.55 0,-12.45 10.1,-22.55 22.55,-22.55 12.45,0 22.55,10.09 22.55,22.55z"/>
   <polygon class="fil2" points="277.62,235.17 284.24,235.17 284.24,228.56 277.62,228.56 "/>
   <path class="fil24" d="M284.24 232.52l0 -3.96 -6.62 0 0 3.37c1.42,0.77 3.54,1.21 6.62,0.59z"/>
   <path class="fil2" d="M294.68 216.72c-0.69,-0.34 -1.49,-0.28 -2.22,0.09 0.25,-6.52 -5.08,-12.01 -11.79,-11.78 -6.71,-0.23 -12.04,5.26 -11.79,11.78 -0.73,-0.37 -1.53,-0.43 -2.22,-0.09 -1.33,0.65 -1.74,2.52 -0.92,4.18 0.82,1.65 2.55,2.47 3.88,1.81 0.18,-0.09 0.35,-0.21 0.5,-0.34 0.76,5.39 5.27,9.44 10.55,9.36 5.29,0.08 9.79,-3.97 10.55,-9.36 0.15,0.13 0.31,0.25 0.5,0.34 1.33,0.65 3.06,-0.16 3.88,-1.81 0.82,-1.66 0.41,-3.53 -0.92,-4.18z"/>
   <path class="fil27" d="M272.61 202.45c0,0 3.33,-2.81 10.88,-2.36 7.55,0.45 8.99,4.4 9.42,10.02l-0.44 6.7c0,0 -1.96,-2.02 -4.51,-7.61 0,0 -4.23,4.74 -6.07,4.18 -1.84,-0.56 0.69,-3.98 0.69,-3.98 0,0 -8.61,7.41 -13.69,7.4 0,0 -2.68,-8.68 1.08,-11.86 0,0 -2.84,0.14 -2.99,-0.42 -0.15,-0.56 1.35,-1.39 4.08,-1.08 0,0 -1.95,-3.81 -0.86,-4.2 1.09,-0.39 2.41,3.2 2.41,3.2z"/>
   <path class="fil5" d="M285.01 224.43c-0.29,1.31 -1.79,2.33 -3.63,2.39 -1.83,0.06 -3.39,-0.88 -3.76,-2.17l7.39 -0.22z"/>
   <path class="fil28" d="M398.87 198.38l-86.02 0c-1.03,0 -1.86,-0.83 -1.86,-1.86l0 -0.19c0,-1.03 0.83,-1.86 1.86,-1.86l86.02 0c1.03,0 1.87,0.83 1.87,1.86l0 0.19c0,1.03 -0.83,1.86 -1.87,1.86z"/>
   <path class="fil28" d="M330.32 208.72l-17.47 0c-1.03,0 -1.86,-0.83 -1.86,-1.86l0 -0.19c0,-1.03 0.83,-1.86 1.86,-1.86l17.47 0c1.03,0 1.86,0.83 1.86,1.86l0 0.19c0,1.03 -0.83,1.86 -1.86,1.86z"/>
   <path class="fil28" d="M398.87 208.72l-56.83 0c-1.03,0 -1.86,-0.83 -1.86,-1.86l0 -0.19c0,-1.03 0.83,-1.86 1.86,-1.86l56.83 0c1.03,0 1.87,0.83 1.87,1.86l0 0.19c0,1.03 -0.83,1.86 -1.87,1.86z"/>
   <path class="fil28" d="M355.48 219.06l-42.64 0c-1.03,0 -1.86,-0.83 -1.86,-1.86l0 -0.19c0,-1.03 0.83,-1.86 1.86,-1.86l42.64 0c1.03,0 1.86,0.83 1.86,1.86l0 0.19c0,1.03 -0.83,1.86 -1.86,1.86z"/>
   <path class="fil28" d="M398.87 219.06l-32.87 0c-1.03,0 -1.86,-0.83 -1.86,-1.86l0 -0.19c0,-1.03 0.83,-1.86 1.86,-1.86l32.87 0c1.03,0 1.87,0.83 1.87,1.86l0 0.19c0,1.03 -0.83,1.86 -1.87,1.86z"/>
   <path class="fil28" d="M398.87 229.4l-86.02 0c-1.03,0 -1.86,-0.83 -1.86,-1.86l0 -0.19c0,-1.03 0.83,-1.86 1.86,-1.86l86.02 0c1.03,0 1.87,0.83 1.87,1.86l0 0.19c0,1.03 -0.83,1.86 -1.87,1.86z"/>
   <path class="fil29" d="M281.74 335.27l-26.48 0c-1.03,0 -1.87,-0.83 -1.87,-1.86l0 -0.19c0,-1.03 0.83,-1.86 1.87,-1.86l26.48 0c1.03,0 1.86,0.83 1.86,1.86l0 0.19c0,1.03 -0.83,1.86 -1.86,1.86z"/>
   <path class="fil29" d="M271.94 345.6l-16.68 0c-1.03,0 -1.87,-0.83 -1.87,-1.86l0 -0.19c0,-1.03 0.83,-1.87 1.87,-1.87l16.68 0c1.03,0 1.86,0.83 1.86,1.87l0 0.19c0,1.03 -0.83,1.86 -1.86,1.86z"/>
   <path class="fil29" d="M300.57 345.6l-21.38 0c-1.03,0 -1.86,-0.83 -1.86,-1.86l0 -0.19c0,-1.03 0.83,-1.87 1.86,-1.87l21.38 0c1.03,0 1.86,0.83 1.86,1.87l0 0.19c0,1.03 -0.83,1.86 -1.86,1.86z"/>
   <path class="fil29" d="M337.93 345.6l-30.12 0c-1.03,0 -1.86,-0.83 -1.86,-1.86l0 -0.19c0,-1.03 0.83,-1.87 1.86,-1.87l30.12 0c1.03,0 1.86,0.83 1.86,1.87l0 0.19c0,1.03 -0.83,1.86 -1.86,1.86z"/>
   <path class="fil29" d="M337.93 335.27l-47.46 0c-1.03,0 -1.86,-0.83 -1.86,-1.86l0 -0.19c0,-1.03 0.83,-1.86 1.86,-1.86l47.46 0c1.03,0 1.86,0.83 1.86,1.86l0 0.19c0,1.03 -0.83,1.86 -1.86,1.86z"/>
   <path class="fil29" d="M337.93 365.87l-82.67 0c-1.03,0 -1.87,-0.83 -1.87,-1.86l0 -0.19c0,-1.03 0.83,-1.86 1.87,-1.86l82.67 0c1.03,0 1.86,0.83 1.86,1.86l0 0.19c0,1.03 -0.83,1.86 -1.86,1.86z"/>
   <path class="fil29" d="M296.16 355.94l-40.91 0c-1.03,0 -1.87,-0.83 -1.87,-1.86l0 -0.2c0,-1.03 0.83,-1.86 1.87,-1.86l40.91 0c1.03,0 1.86,0.83 1.86,1.86l0 0.2c0,1.03 -0.83,1.86 -1.86,1.86z"/>
   <path class="fil29" d="M337.93 355.94l-31.51 0c-1.03,0 -1.86,-0.83 -1.86,-1.86l0 -0.2c0,-1.03 0.83,-1.86 1.86,-1.86l31.51 0c1.03,0 1.86,0.83 1.86,1.86l0 0.2c0,1.03 -0.83,1.86 -1.86,1.86z"/>
   <path class="fil30" d="M86.15 260.74c-4.3,-21.73 28.12,-29.04 33.34,-7.51 0.47,1.95 0.77,4.12 0.87,6.55 1.01,25.87 -14.65,54.04 -31.31,49.3 -16.66,-4.74 -7.07,-22.42 -2.02,-33.02 2.36,-4.95 0.22,-9.72 -0.88,-15.32z"/>
   <path class="fil1" d="M557.69 213.34c-9.49,-3.31 -19.89,1.74 -23.46,11.15 -2.78,7.31 -5.96,17.51 -6.25,26.48 -0.53,16.18 5.92,50.91 30.51,59.49 24.61,8.57 39.29,-14.05 22.91,-40.22 -6.99,-11.18 -3.51,-49.84 -23.72,-56.89z"/>
   <path class="fil8" d="M121.23 339.35c-2.2,-1.9 -4.01,-2.8 -4.03,-2.81l0.56 -1.14c0.08,0.04 1.97,0.98 4.3,2.99l-0.83 0.96z"/>
   <path class="fil8" d="M129.23 355.66c-0.12,-3.2 -0.87,-6.23 -2.25,-9l1.14 -0.56c1.46,2.94 2.26,6.14 2.38,9.52l-1.27 0.04zm-3.89 18.59l-1.12 -0.6 0.04 -0.07c1.61,-2.96 2.85,-5.87 3.68,-8.65l1.22 0.36c-0.86,2.86 -2.13,5.85 -3.79,8.89l-0.03 0.05zm-9.02 16.97l-1.14 -0.56c1.24,-2.53 2.64,-5.26 4.43,-8.57l1.12 0.61c-1.78,3.29 -3.18,6 -4.41,8.52zm-6.88 17.8l-1.23 -0.32c0.78,-2.97 1.78,-5.98 3.05,-9.19l1.18 0.47c-1.25,3.16 -2.23,6.13 -3,9.05zm-3.05 18.94c-0.14,-1.48 -0.21,-3 -0.21,-4.51 0,-1.71 0.09,-3.46 0.26,-5.21l1.26 0.12c-0.17,1.71 -0.26,3.42 -0.26,5.08 0,1.47 0.07,2.95 0.2,4.4l-1.26 0.12zm5.55 18.54c-1.53,-2.95 -2.77,-5.97 -3.68,-9l1.22 -0.37c0.89,2.95 2.1,5.9 3.59,8.78l-1.13 0.59zm11.31 15.69c-2.29,-2.45 -4.37,-4.96 -6.19,-7.46l1.03 -0.75c1.79,2.45 3.84,4.92 6.09,7.34l-0.93 0.87z"/>
   <path class="fil8" d="M134.08 472.27c-1.34,-1.1 -2.65,-2.22 -3.89,-3.32l0.85 -0.95c1.23,1.09 2.52,2.2 3.85,3.29l-0.81 0.98z"/>
   <path class="fil6" d="M112.86 317.84l-1.68 20.48 -11.9 -13.4 -38.47 -31.51 32.81 10.34c0,0 16.15,7.85 16.89,8.88 0.75,1.04 2.35,5.21 2.35,5.21z"/>
   <polygon class="fil7" points="130.29,309.03 60.81,293.41 112.86,317.84 "/>
   <polygon class="fil7" points="86.14,333 107.55,322.31 60.81,293.41 "/>
   <path class="fil5" d="M435.91 209.94c0.91,-3.96 4.45,-6.92 8.7,-6.92 0.77,0 1.53,0.1 2.24,0.29 2.09,-4.47 6.63,-7.57 11.89,-7.57 1.36,0 2.68,0.21 3.92,0.59 2.83,-4.69 7.98,-7.83 13.86,-7.83 6.99,0 12.95,4.44 15.21,10.65 1.59,-0.89 3.43,-1.4 5.39,-1.4 6.14,0 11.11,4.97 11.11,11.1 0,0.37 -0.02,0.72 -0.06,1.08l-72.27 0z"/>
   <path class="fil5" d="M198.01 87.13c0.65,-2.83 3.19,-4.95 6.22,-4.95 0.56,0 1.1,0.07 1.61,0.21 1.5,-3.2 4.74,-5.42 8.51,-5.42 0.98,0 1.91,0.15 2.8,0.42 2.03,-3.36 5.71,-5.6 9.92,-5.6 5.01,0 9.27,3.18 10.89,7.63 1.14,-0.64 2.46,-1 3.86,-1 4.39,0 7.94,3.56 7.94,7.95 0,0.26 -0.01,0.52 -0.04,0.77l-51.71 0z"/>
   <path class="fil5" d="M471.59 321.84c0,0 -1.09,10.72 -9.55,11.46 8.46,0.74 9.55,11.47 9.55,11.47 0,0 1.09,-10.73 9.55,-11.47 -8.46,-0.74 -9.55,-11.46 -9.55,-11.46z"/>
   <path class="fil5" d="M162.43 242.58c0,0 -1.09,10.72 -9.55,11.47 8.46,0.74 9.55,11.46 9.55,11.46 0,0 1.08,-10.72 9.55,-11.46 -8.46,-0.74 -9.55,-11.47 -9.55,-11.47z"/>
   <path class="fil5" d="M493.98 292.17c0,0 -0.73,7.09 -6.32,7.58 5.6,0.49 6.32,7.58 6.32,7.58 0,0 0.71,-7.1 6.31,-7.58 -5.6,-0.49 -6.31,-7.58 -6.31,-7.58z"/>
   <path class="fil5" d="M180.23 217.49c0,0 -0.72,7.09 -6.32,7.59 5.6,0.49 6.32,7.59 6.32,7.59 0,0 0.72,-7.09 6.32,-7.59 -5.6,-0.49 -6.32,-7.59 -6.32,-7.59z"/>
   <path class="fil5" d="M461.27 270.87c0,0 -0.32,3.17 -2.83,3.39 2.51,0.22 2.83,3.39 2.83,3.39 0,0 0.32,-3.17 2.83,-3.39 -2.51,-0.22 -2.83,-3.39 -2.83,-3.39z"/>
   <path class="fil5" d="M169.94 284.46c0,0 -0.32,3.17 -2.82,3.39 2.5,0.22 2.82,3.4 2.82,3.4 0,0 0.32,-3.18 2.83,-3.4 -2.51,-0.22 -2.83,-3.39 -2.83,-3.39z"/>
  </g>
 </g>
</svg>
