<?xml version="1.0" encoding="UTF-8"?>
<!DOCTYPE svg PUBLIC "-//W3C//DTD SVG 1.1//EN" "http://www.w3.org/Graphics/SVG/1.1/DTD/svg11.dtd">
<!-- Creator: CorelDRAW 2019 (64-Bit) -->
<svg xmlns="http://www.w3.org/2000/svg" xml:space="preserve" width="78.5471mm" height="50.0662mm" version="1.1" style="shape-rendering:geometricPrecision; text-rendering:geometricPrecision; image-rendering:optimizeQuality; fill-rule:evenodd; clip-rule:evenodd"
viewBox="0 0 26375.03 16811.54"
 xmlns:xlink="http://www.w3.org/1999/xlink">
 <defs>
  <style type="text/css">
   <![CDATA[
    .fil26 {fill:#005331}
    .fil6 {fill:#FCE0BE;fill-rule:nonzero}
    .fil1 {fill:#005331;fill-opacity:0.200000}
    .fil0 {fill:#005331;fill-opacity:0.301961}
    .fil2 {fill:#332C2B;fill-rule:nonzero;fill-opacity:0.501961}
    .fil24 {fill:url(#id0)}
    .fil25 {fill:url(#id1)}
    .fil15 {fill:url(#id2)}
    .fil14 {fill:url(#id3)}
    .fil23 {fill:url(#id4)}
    .fil9 {fill:url(#id5)}
    .fil5 {fill:url(#id6)}
    .fil10 {fill:url(#id7)}
    .fil16 {fill:url(#id8)}
    .fil19 {fill:url(#id9)}
    .fil20 {fill:url(#id10)}
    .fil17 {fill:url(#id11)}
    .fil21 {fill:url(#id12)}
    .fil12 {fill:url(#id13)}
    .fil4 {fill:url(#id14)}
    .fil3 {fill:url(#id15)}
    .fil8 {fill:url(#id16)}
    .fil22 {fill:url(#id17)}
    .fil13 {fill:url(#id18)}
    .fil11 {fill:url(#id19)}
    .fil7 {fill:url(#id20)}
    .fil18 {fill:url(#id21)}
   ]]>
  </style>
  <linearGradient id="id0" gradientUnits="userSpaceOnUse" x1="16535.29" y1="4408.64" x2="16535.29" y2="6474.56">
   <stop offset="0" style="stop-opacity:1; stop-color:#FFCB05"/>
   <stop offset="1" style="stop-opacity:1; stop-color:#B08D00"/>
  </linearGradient>
  <linearGradient id="id1" gradientUnits="userSpaceOnUse" xlink:href="#id0" x1="16487.6" y1="10322.1" x2="16487.6" y2="15878.25">
  </linearGradient>
  <linearGradient id="id2" gradientUnits="userSpaceOnUse" x1="9681.08" y1="7104.03" x2="9921.04" y2="9824.03">
   <stop offset="0" style="stop-opacity:1; stop-color:#FAD8C9"/>
   <stop offset="1" style="stop-opacity:1; stop-color:#F29F81"/>
  </linearGradient>
  <linearGradient id="id3" gradientUnits="userSpaceOnUse" x1="10499.23" y1="10105.15" x2="13931.67" y2="6573.05">
   <stop offset="0" style="stop-opacity:1; stop-color:#C7C7C7"/>
   <stop offset="1" style="stop-opacity:1; stop-color:#FCFCFC"/>
  </linearGradient>
  <linearGradient id="id4" gradientUnits="userSpaceOnUse" x1="4970.37" y1="11689.19" x2="9656.87" y2="11948.85">
   <stop offset="0" style="stop-opacity:1; stop-color:#005331"/>
   <stop offset="1" style="stop-opacity:1; stop-color:#003B22"/>
  </linearGradient>
  <linearGradient id="id5" gradientUnits="userSpaceOnUse" x1="10808.42" y1="5116.37" x2="10499.26" y2="4967.79">
   <stop offset="0" style="stop-opacity:1; stop-color:#E5C094"/>
   <stop offset="1" style="stop-opacity:1; stop-color:#EE9962"/>
  </linearGradient>
  <linearGradient id="id6" gradientUnits="userSpaceOnUse" xlink:href="#id2" x1="6926.56" y1="12154.35" x2="7192.14" y2="9954.92">
  </linearGradient>
  <linearGradient id="id7" gradientUnits="userSpaceOnUse" xlink:href="#id2" x1="12466.6" y1="5684.76" x2="11421.26" y2="5192.13">
  </linearGradient>
  <linearGradient id="id8" gradientUnits="userSpaceOnUse" xlink:href="#id3" x1="7482.93" y1="7098.45" x2="9327.37" y2="6959.07">
  </linearGradient>
  <linearGradient id="id9" gradientUnits="userSpaceOnUse" xlink:href="#id2" x1="11147.8" y1="7033.71" x2="11376.7" y2="10129.29">
  </linearGradient>
  <linearGradient id="id10" gradientUnits="userSpaceOnUse" xlink:href="#id3" x1="12178.16" y1="8599.22" x2="10284.02" y2="6827.41">
  </linearGradient>
  <linearGradient id="id11" gradientUnits="userSpaceOnUse" x1="7605.15" y1="7024.38" x2="9069.11" y2="6913.67">
   <stop offset="0" style="stop-opacity:1; stop-color:#FAF8FB"/>
   <stop offset="0.0509804" style="stop-opacity:1; stop-color:#FAF8FB"/>
   <stop offset="1" style="stop-opacity:1; stop-color:#95C2E8"/>
  </linearGradient>
  <linearGradient id="id12" gradientUnits="userSpaceOnUse" xlink:href="#id2" x1="3177.71" y1="11403.84" x2="5425.7" y2="11528.55">
  </linearGradient>
  <linearGradient id="id13" gradientUnits="userSpaceOnUse" x1="12625.96" y1="4398.43" x2="10028.49" y2="4599.83">
   <stop offset="0" style="stop-opacity:1; stop-color:#4D4D4D"/>
   <stop offset="1" style="stop-opacity:1; stop-color:#1A1A1A"/>
  </linearGradient>
  <linearGradient id="id14" gradientUnits="userSpaceOnUse" xlink:href="#id4" x1="13947.58" y1="10885.78" x2="8929.46" y2="12166.57">
  </linearGradient>
  <linearGradient id="id15" gradientUnits="userSpaceOnUse" xlink:href="#id4" x1="11588.52" y1="11253.47" x2="8229.82" y2="7218.26">
  </linearGradient>
  <linearGradient id="id16" gradientUnits="userSpaceOnUse" xlink:href="#id4" x1="8128.68" y1="10503.09" x2="8690.62" y2="5970.75">
  </linearGradient>
  <linearGradient id="id17" gradientUnits="userSpaceOnUse" x1="3844.65" y1="10082.52" x2="3406.75" y2="12550.95">
   <stop offset="0" style="stop-opacity:1; stop-color:#4F4F4F"/>
   <stop offset="1" style="stop-opacity:1; stop-color:#262626"/>
  </linearGradient>
  <linearGradient id="id18" gradientUnits="userSpaceOnUse" xlink:href="#id2" x1="11624.68" y1="4889.28" x2="11192.06" y2="4661.38">
  </linearGradient>
  <linearGradient id="id19" gradientUnits="userSpaceOnUse" xlink:href="#id2" x1="12285.34" y1="4947" x2="10356.92" y2="4073.42">
  </linearGradient>
  <linearGradient id="id20" gradientUnits="userSpaceOnUse" x1="5556.29" y1="11489.6" x2="8383.2" y2="11847.41">
   <stop offset="0" style="stop-opacity:1; stop-color:#2C357E"/>
   <stop offset="1" style="stop-opacity:1; stop-color:#222A44"/>
  </linearGradient>
  <linearGradient id="id21" gradientUnits="userSpaceOnUse" xlink:href="#id2" x1="9162.13" y1="8059.2" x2="8505.73" y2="7200.4">
  </linearGradient>
 </defs>
 <g id="Layer_x0020_1">
  <metadata id="CorelCorpID_0Corel-Layer"/>
  <g id="_2884328627664">
   <path class="fil0" d="M10078.19 13632.31c-7490.78,2007.13 -10756.57,-8815.97 -2738.94,-11781.93 3208.4,-1186.87 5065.1,2308.83 8428.37,793.46 19855.17,-8945.88 7762.03,7384.17 -5689.43,10988.47z"/>
   <path class="fil1" d="M20153.72 1130.42c-15488.64,3011.1 -14921.13,5696.41 -13534.13,8979.9 8085.13,19139.98 30569.8,-12291.75 13534.13,-8979.9z"/>
   <path class="fil1" d="M13745.34 3914.83c-8848.2,553.85 -16023.92,-4059.59 -13070.54,2294.53 11861.34,25519.61 26922.06,-3161.59 13070.54,-2294.53z"/>
   <path class="fil2" d="M20885.23 12486.88c0,337.4 -4153.88,610.83 -9277.84,610.83 -5123.96,0 -9277.84,-273.43 -9277.84,-610.83 0,-337.36 4153.88,-610.9 9277.84,-610.9 5123.96,0 9277.84,273.53 9277.84,610.9z"/>
   <path class="fil3" d="M9045.61 6762.73c664.76,469.26 1225.55,1083.48 1757.81,1694.28 264.36,303.45 1058.43,1559.76 1300.47,1881.91 458.28,609.96 243.81,600.25 -575.71,1037.81 -103.66,55.34 -217.09,89.59 -333.97,101.51 -1375.92,139.96 -2011.33,-1663.18 -2424.78,-2632.77 -179.44,-421.01 -373.6,-941.38 -526.31,-1372.93 119.1,-769.29 802.5,-709.82 802.5,-709.82z"/>
   <path class="fil4" d="M8665.63 11395.44c706.19,-404.42 1499.72,-653.37 2278.28,-877.85 386.62,-111.51 1860.69,-300.66 2254.94,-384.07 746.49,-157.85 647.09,32.54 697.63,960.11 6.28,117.26 -10.41,234.65 -49.06,345.66 -454.25,1306.21 -2357.02,1120.69 -3410.45,1086 -457.44,-15.11 -1011.09,-58.86 -1466.71,-102.68 -646.99,-432.76 -304.63,-1027.17 -304.63,-1027.17z"/>
   <path class="fil5" d="M8391.93 11689.72c0.91,-67.9 -18.54,-138.68 -32.91,-206.81 -4.16,-19.34 -32.03,-206.68 -29.92,-227.09 31.06,-296.43 200.63,-1102.92 200.63,-1102.92l-812.7 -127.97c0,0 14.67,721.71 -159.53,1119.65l0.97 0.24c-388.81,147.91 -1069.75,322.59 -1069.75,322.59 0,0 -743.53,13.5 -784.06,24.58 -40.46,10.95 -138.78,23.2 -260.97,107.18 0,0 -111.88,175.52 775.13,449.45 0,0 379.84,143.25 1023.31,135.19 137.94,7.72 275.98,15.51 413.92,23.27 141.77,7.89 563.95,55.04 624.63,22.5 23.4,-12.69 40.13,-26.53 52.05,-41.87 92.17,-117.46 56.82,-356.6 59.2,-497.97z"/>
   <path class="fil6" d="M8075.72 10764.97c9.97,46.51 17.76,93.35 24.04,140.49 22.13,-41.74 43.62,-83.98 64.5,-126.46l-88.55 -14.04z"/>
   <path class="fil7" d="M8359.03 11482.91c-2.45,-11.15 -12.79,-78.64 -20.65,-137.37 -33.51,12.32 -66.62,23.84 -98.79,34.55 -372.15,124.14 -744.98,52.18 -1104.4,-79.98l-19.27 -8.23c-319.7,96.54 -627.18,175.41 -627.18,175.41 0,0 -743.53,13.6 -784.06,24.68 -40.46,10.95 -138.78,23.2 -260.97,107.18 0,0 -111.88,175.52 775.13,449.45 0,0 379.84,143.25 1023.31,135.19 137.94,7.72 275.98,15.51 413.92,23.27 141.77,7.89 563.95,55.04 624.63,22.5 23.4,-12.69 40.13,-26.53 52.05,-41.87 92.17,-117.46 56.82,-356.6 59.2,-497.97 0.91,-67.9 -18.54,-138.68 -32.91,-206.81z"/>
   <path class="fil8" d="M8624.26 6756.89l-6.61 -0.2c-369.3,-11.18 -683.19,267.49 -718.38,635.31 -86.33,899.94 -208.29,2232.78 -277.39,2993l837.18 158.69c240.02,-750.55 434.57,-1521.95 560.46,-2301.01 54.83,-338.44 111.35,-896.05 124.31,-1238.55 2.35,-63.33 -101.51,-172.09 -98.22,-241.4 -170.71,-24.38 -236.83,-0.2 -421.34,-5.84z"/>
   <polygon class="fil9" points="10619.2,4718.47 10774.24,5187.59 10503.79,5277.01 "/>
   <path class="fil10" d="M11438.79 5168.02c8.63,153.05 46.3,1053.97 46.3,1053.97 100.13,97.61 550.55,101.64 727.31,-72.36 140.73,-138.48 147.95,-253.85 147.95,-253.85l-154.29 -1308.22 -767.27 580.47z"/>
   <path class="fil11" d="M12064.6 3597.95l84.62 464.16 128.87 708.07 36.3 199.12c-396.66,808.44 -1144.02,947.22 -1407.95,707.23 -263.83,-239.89 -485.35,-1707.57 -485.35,-1707.57l1643.51 -371.01z"/>
   <path class="fil12" d="M12014.36 5663.24c0,0 -665.93,-1168.74 -852.06,-1256.11 -186.16,-87.37 -772.91,99.96 -1127.1,-351.84 -349.62,-445.86 -178.17,-704.58 -55.67,-737.25 122.29,-32.67 389.44,410.6 780.53,104.97 397.97,-311.11 1252.82,-375.85 1409.36,-52.05 0,0 539.07,13.94 477.76,752.23 -61.31,738.29 -216.68,1366.65 -391.02,1434.44l-241.8 105.6z"/>
   <path class="fil13" d="M11565.99 4370.76c195.49,134.11 219.74,562.34 -118.26,825.03l-198.68 -690.85c10.75,-109.73 188.38,-222.42 316.95,-134.18z"/>
   <path class="fil14" d="M12303.24 5926.96c-508.25,59.7 -1307.42,208.83 -1454.69,794.94 -78.57,312.25 -67.59,646.22 -11.42,961.36 43.95,247.24 84.42,495.12 113.66,744.81 49.29,421.92 108.46,896.88 -7.22,1313.13l-476.38 872.84c0,0 2313.03,1020.55 3460.04,-331.09 0,0 -72.8,-3366.05 -610.39,-4154.51 -65.34,-95.9 -229.44,-138.68 -332.16,-164.1 -227.03,-56.21 -455.53,-63.97 -681.44,-37.37z"/>
   <path class="fil15" d="M8124.88 7204.86c0,0 54.8,435.28 309.9,727.04 255.13,291.93 546.42,407.51 785.57,715.83 187.97,242.37 2058.07,2036.21 2248.32,1382.33 24.95,-85.69 -5.84,-176.93 -39.79,-259.5 -317.35,-773.18 -1090.36,-1100.37 -1766,-1507.14l-256.37 -171.45c0,0 -111.25,-440.55 -381.76,-683.39l-899.87 -203.72z"/>
   <path class="fil16" d="M8040.27 6121.52l-562.04 635.91c-39.29,44.53 -35.46,112.09 8.36,151.88l1141.91 1033.89c44.29,40.13 112.59,36.84 152.72,-7.45l551.43 -607.54c39.72,-43.62 37.04,-111.11 -6.04,-151.54l-1131.16 -1062.36c-44.49,-41.84 -114.74,-38.51 -155.17,7.22z"/>
   <polygon class="fil17" points="7590.28,6827.37 8564.13,7712.1 9086.04,7137.17 8122.84,6224.87 "/>
   <path class="fil18" d="M8704.79 7940.6c0,0 85.39,-51.71 50.23,-213.8 -35.09,-162.12 -109.6,-544.61 -109.6,-544.61 0,0 1.18,-136.63 55.24,-106.65 54.16,30.12 171.05,114.64 216.28,351.97 0,0 47.04,204.12 99.53,256.51 52.55,52.35 189.85,194.86 214.63,420.37 0,0 -384.95,129.85 -526.31,-163.8z"/>
   <path class="fil19" d="M11548.93 10020.46c78.57,-104.93 90.16,-253.72 95.36,-410.7 12.89,-382.06 31.63,-763.41 48.55,-1144.96 7.56,-169.97 15.01,-340.05 20.75,-510.13 11.48,-347.4 35.12,-857.7 -419.56,-940.87 -103.52,-18.94 -237.64,57.49 -302.14,128.27 -48.42,53.12 -78.24,126.96 -96.64,210.2 -39.19,176.69 -27.57,395.59 -36.2,548.98 -17.43,314.93 -29.38,630.81 -31.5,947.32 -1.38,203.39 -0.2,407.07 10.75,611.13 8.97,167.93 3.32,380.08 80.45,537.02 82.27,167.66 285.15,192.88 435.82,149.86 90.49,-25.72 152.14,-69.61 194.35,-126.12z"/>
   <path class="fil20" d="M11909.53 8639.88c-62.59,-471.41 3.53,-2165.22 -671.71,-2234.29 -746.89,-76.53 -602.17,2254.6 -602.17,2254.6l1273.87 -20.32z"/>
   <path class="fil21" d="M3826.69 12541.38c67.16,-10.44 133.58,-41.7 198.18,-67.49 18.4,-7.32 198.28,-66.72 218.73,-68.1 297.47,-19.81 1121.02,10.11 1121.02,10.11l-12.16 -822.58c0,0 -708.71,137.27 -1130.49,33.18l0 0.97c-212.02,-357.91 -672.34,-845.91 -672.34,-845.91 0,0 -155.97,-398.14 -173.77,-436.25 -17.8,-38.01 109.84,-130.89 6.28,-237.03 0,0 -20.11,-550.76 -139.12,369.87 0,0 -216.15,381.76 -98.75,1014.38 15.85,137.3 31.7,274.57 47.58,411.88 16.15,140.93 41.5,565.03 83.95,619.22 16.52,21.05 33.01,35.12 50.13,44.26 131.56,70.78 361,-4.67 500.76,-26.49z"/>
   <path class="fil22" d="M4021.04 12475.5c-38.65,-207.55 -31.93,-432.83 -13.63,-619.12 13.1,-133.24 47.98,-282.97 110.91,-413.99 -191.26,-357.71 -396.13,-814.18 -396.13,-814.18 0,0 -145.26,-523.02 -163.06,-561.13 -17.66,-38.08 -46.51,-132.8 -150.06,-238.91 0,0 -186.56,-287.67 -305.57,632.92 0,0 -76.63,398.81 40.76,1031.43 15.85,137.3 31.7,274.57 47.45,411.88 16.29,140.93 41.64,565.03 84.08,619.22 16.52,21.05 33.01,35.12 50.13,44.26 131.56,70.78 361,-4.67 500.76,-26.49 65.78,-10.21 130.82,-40.46 194.35,-65.88z"/>
   <path class="fil23" d="M4967.42 12412.81c969.45,135.05 3098.27,320.14 4300.72,-90.66 189.01,-64.64 391.8,-256.71 412.98,-464.56 16.25,-160.74 -50.47,-396.36 -188.71,-493.54 -114.2,-80.22 -493.2,-107.05 -625.17,-101.11 -373.6,16.92 -2758.79,207.11 -3885.75,297.81l-14.07 852.06z"/>
   <path class="fil24" d="M15156.92 6676.64c-576.21,-424.74 -954.44,-1102.49 -954.44,-1873.15 0,-1288.45 1044.4,-2332.84 2332.94,-2332.84 1288.31,0 2332.84,1044.4 2332.84,2332.84 0,770.66 -378.36,1448.41 -954.47,1873.15l1017.47 0c406.23,-518.52 658.28,-1163.26 658.28,-1873.15 0,-1686.72 -1367.42,-3054.14 -3054.11,-3054.14 -1686.82,0 -3054.34,1367.42 -3054.34,3054.14 0,709.89 252.14,1354.63 658.28,1873.15l1017.57 0z"/>
   <path class="fil25" d="M16983.69 8723.62l0 1741.52c0,129.31 -104.93,234.24 -234.24,234.24l-428.09 0c-129.41,0 -234.21,-104.93 -234.21,-234.24l0 -1741.52c-287.8,-160.81 -490.01,-457.64 -487.9,-811.29 2.89,-496.43 411.67,-915.96 907.76,-930.56 530.21,-15.61 964.55,409.12 964.55,935.87 0,351.3 -201.67,646.02 -487.86,805.99zm2690.99 -3198.73l-6373.99 0c-254.69,0 -461.17,206.47 -461.17,461.03l0 6039.58c0,254.9 206.47,461.37 461.17,461.37l6373.99 0c254.56,0 461.17,-206.47 461.17,-461.37l0 -6039.58c0,-254.56 -206.61,-461.03 -461.17,-461.03z"/>
   <path class="fil26" d="M15599.25 7912.33c-2.12,353.65 200.09,650.48 487.9,811.29l0 1741.52c0,129.31 104.8,234.24 234.21,234.24l428.09 0c129.31,0 234.24,-104.93 234.24,-234.24l0 -1741.52c286.19,-159.97 487.86,-454.69 487.86,-805.99 0,-526.75 -434.34,-951.48 -964.55,-935.87 -496.09,14.61 -904.88,434.14 -907.76,930.56z"/>
  </g>
 </g>
</svg>
