<?xml version="1.0" encoding="UTF-8"?>
<!DOCTYPE svg PUBLIC "-//W3C//DTD SVG 1.1//EN" "http://www.w3.org/Graphics/SVG/1.1/DTD/svg11.dtd">
<!-- Creator: CorelDRAW 2019 (64-Bit) -->
<svg xmlns="http://www.w3.org/2000/svg" xml:space="preserve" width="55.3009mm" height="55.3008mm" version="1.1" style="shape-rendering:geometricPrecision; text-rendering:geometricPrecision; image-rendering:optimizeQuality; fill-rule:evenodd; clip-rule:evenodd"
viewBox="0 0 1648.82 1648.82"
 xmlns:xlink="http://www.w3.org/1999/xlink">
 <defs>
  <style type="text/css">
   <![CDATA[
    .fil0 {fill:none}
    .fil10 {fill:#005331;fill-rule:nonzero}
    .fil27 {fill:#007D4A;fill-rule:nonzero}
    .fil17 {fill:#057872;fill-rule:nonzero}
    .fil15 {fill:#333333;fill-rule:nonzero}
    .fil18 {fill:#333333;fill-rule:nonzero}
    .fil23 {fill:#666666;fill-rule:nonzero}
    .fil30 {fill:#999999;fill-rule:nonzero}
    .fil8 {fill:#ABD3EC;fill-rule:nonzero}
    .fil9 {fill:#B8B8B8;fill-rule:nonzero}
    .fil14 {fill:#CCCCCC;fill-rule:nonzero}
    .fil4 {fill:#D6D6D6;fill-rule:nonzero}
    .fil6 {fill:#DBAF07;fill-rule:nonzero}
    .fil11 {fill:#DDEDF5;fill-rule:nonzero}
    .fil2 {fill:#E1E1E1;fill-rule:nonzero}
    .fil13 {fill:#E29D9E;fill-rule:nonzero}
    .fil3 {fill:#E4E5EA;fill-rule:nonzero}
    .fil19 {fill:#E4F1F7;fill-rule:nonzero}
    .fil22 {fill:#EFA4A2;fill-rule:nonzero}
    .fil12 {fill:#F7FBFD;fill-rule:nonzero}
    .fil25 {fill:#F99893;fill-rule:nonzero}
    .fil26 {fill:#FEB546;fill-rule:nonzero}
    .fil21 {fill:#FF574F;fill-rule:nonzero}
    .fil28 {fill:#FF7380;fill-rule:nonzero}
    .fil24 {fill:#FFC0BB;fill-rule:nonzero}
    .fil7 {fill:#FFCB05;fill-rule:nonzero}
    .fil20 {fill:#FFF2F1;fill-rule:nonzero}
    .fil5 {fill:white;fill-rule:nonzero}
    .fil1 {fill:#005331;fill-rule:nonzero;fill-opacity:0.101961}
    .fil29 {fill:white;fill-rule:nonzero;fill-opacity:0.301961}
    .fil16 {fill:white;fill-rule:nonzero;fill-opacity:0.600000}
   ]]>
  </style>
 </defs>
 <g id="Layer_x0020_1">
  <metadata id="CorelCorpID_0Corel-Layer"/>
  <g id="_2884271754480">
   <rect class="fil0" x="0" y="-0" width="1648.82" height="1648.82"/>
   <g>
    <path class="fil1" d="M812.34 1455.48c0,0 -530,-39 -593.74,-298.15 -63.73,-259.15 77.51,-294.41 125.74,-439.57 48.24,-145.16 -170.53,-230.76 -24.11,-428.26 146.42,-197.5 362.35,-200.94 453.35,-107.93 46.32,47.35 96.23,31.77 156.37,16.18 58,-15.03 125.49,-30.06 208.42,11.38 168.9,84.41 210.25,254.97 156.85,388.18 -53.42,133.22 165.57,260.61 193.01,411.65 27.49,151.04 -220.39,513.1 -675.89,446.51z"/>
    <path class="fil2" d="M275.31 1526.31l317.59 0 26.35 -70.93c9.34,-25.13 28.43,-45.33 52.85,-56.37 23.01,-10.41 53.95,-29.31 83.97,-62.99 58.4,-65.54 89.39,-135.86 89.39,-135.86l-196.83 -0.97c0,0 17.72,-110.09 -80.11,-256.32 -10.47,-15.65 -15.23,-34.44 -13.59,-53.19l9.27 -106.64c0,0 66.48,-74.29 25.69,-166.46 0,0 -39,-54 -54.47,-34.23 0,0 -117.8,280.53 -128.54,322.25 -10.73,41.72 -25.03,67.94 -10.73,199.03 3.79,34.71 5.15,63.65 5.1,87.45 -0.09,45.68 -10.29,90.78 -29.83,132.09l-96.1 203.16z"/>
    <path class="fil3" d="M634.69 1428.07l0 0c9.89,-12.4 22.68,-22.4 37.42,-29.06l0 0c-14.73,6.66 -27.53,16.66 -37.42,29.06zm37.62 -29.14c0.01,-0.01 0.02,-0.02 0.04,-0.02 -0.02,0 -0.03,0.01 -0.04,0.02zm0.23 -0.12c0.02,0 0.03,-0.01 0.06,-0.02 -0.02,0.01 -0.03,0.02 -0.06,0.02zm0.25 -0.11c0.01,0 0.02,-0.01 0.04,-0.01 -0.02,0 -0.04,0.01 -0.04,0.01zm0.2 -0.09c0.01,-0.01 0.03,-0.01 0.06,-0.02 -0.02,0.01 -0.04,0.01 -0.06,0.02zm0.25 -0.12c0.01,-0.01 0.03,-0.01 0.04,-0.02 -0.01,0.01 -0.03,0.02 -0.04,0.02zm0.23 -0.1c0.02,-0.01 0.03,-0.02 0.06,-0.02 -0.02,0 -0.03,0.01 -0.06,0.02zm0.23 -0.12c0.01,0 0.02,0 0.03,-0.01 -0.01,0.01 -0.02,0.01 -0.03,0.01zm0.23 -0.1c0.01,0 0.03,-0.01 0.06,-0.02 -0.02,0.01 -0.04,0.02 -0.06,0.02zm0.26 -0.11c0,-0.01 0.01,-0.01 0.01,-0.01l-0.01 0.01zm-272.95 -208.27c0,-3.39 -0.03,-6.91 -0.09,-10.52l0 0.01 0 0.01c0.07,3.61 0.09,7.11 0.09,10.5z"/>
    <path class="fil4" d="M592.91 1526.31l-317.59 0 96.1 -203.16c19.54,-41.31 29.74,-86.41 29.83,-132.09 0,-0.43 0,-0.85 0,-1.29 0,-3.39 -0.02,-6.89 -0.09,-10.5 0.16,1.22 14.06,107.72 56.88,122.55 43.07,14.94 84.01,9.77 113.5,42.49 16.36,18.17 40.32,29.27 73.36,29.27 26.48,0 58.81,-7.14 97.73,-23.5 -24.71,24.15 -49.15,38.97 -68.43,47.94 0,0 -0.01,0 -0.01,0.01 -0.07,0.03 -0.14,0.06 -0.21,0.09 -0.02,0.01 -0.04,0.02 -0.06,0.02 -0.07,0.04 -0.14,0.07 -0.2,0.09 -0.01,0.01 -0.02,0.01 -0.03,0.01 -0.06,0.04 -0.11,0.06 -0.17,0.09 -0.02,0 -0.03,0.01 -0.06,0.02 -0.06,0.02 -0.13,0.06 -0.19,0.08 -0.01,0.01 -0.03,0.01 -0.04,0.02 -0.07,0.04 -0.13,0.06 -0.19,0.09 -0.02,0.01 -0.04,0.01 -0.06,0.02 -0.06,0.02 -0.11,0.04 -0.16,0.08 -0.02,0 -0.04,0.01 -0.04,0.01 -0.07,0.03 -0.13,0.06 -0.2,0.09 -0.02,0.01 -0.03,0.02 -0.06,0.02 -0.07,0.03 -0.13,0.06 -0.18,0.09 -0.02,0 -0.03,0.01 -0.04,0.02 -0.07,0.02 -0.14,0.05 -0.2,0.09l0 0c-14.73,6.66 -27.53,16.66 -37.42,29.06 -6.48,8.15 -11.74,17.34 -15.44,27.31l-26.35 70.93z"/>
    <path class="fil5" d="M1266.5 610.49c-1.12,-4.86 -5.48,-8.49 -10.67,-8.49 -0.95,0 -1.87,0.12 -2.77,0.35 -2.57,-5.49 -8.13,-9.3 -14.61,-9.3 -1.68,0 -3.29,0.25 -4.8,0.73 -3.46,-5.77 -9.81,-9.62 -17.02,-9.62 -8.6,0 -15.93,5.45 -18.69,13.09 -1.96,-1.09 -4.22,-1.72 -6.62,-1.72 -7.54,0 -13.63,6.11 -13.63,13.64 0,0.45 0,0.89 0.06,1.32l88.76 0z"/>
    <path class="fil5" d="M1138.37 289.2c-2.91,-12.7 -14.28,-22.18 -27.88,-22.18 -2.49,0 -4.92,0.32 -7.21,0.92 -6.71,-14.34 -21.27,-24.28 -38.14,-24.28 -4.37,0 -8.57,0.66 -12.54,1.9 -9.08,-15.04 -25.59,-25.1 -44.45,-25.1 -22.44,0 -41.56,14.24 -48.8,34.17 -5.12,-2.86 -11.02,-4.49 -17.3,-4.49 -19.67,0 -35.61,15.94 -35.61,35.61 0,1.17 0.06,2.32 0.17,3.46l231.76 0z"/>
    <path class="fil5" d="M509.61 507.57c-2.43,-10.64 -11.95,-18.57 -23.33,-18.57 -2.08,0 -4.11,0.27 -6.04,0.78 -5.61,-12.01 -17.8,-20.33 -31.91,-20.33 -3.65,0 -7.19,0.56 -10.5,1.59 -7.6,-12.59 -21.41,-21.01 -37.19,-21.01 -18.79,0 -34.78,11.92 -40.84,28.6 -4.29,-2.39 -9.23,-3.76 -14.5,-3.76 -16.45,0 -29.79,13.35 -29.79,29.81 0,0.97 0.04,1.94 0.14,2.89l193.97 0z"/>
    <path class="fil6" d="M431.1 255.4c73.02,115.2 252.97,217.87 252.97,217.87 0,0 -143.06,-11.62 -214.04,-104.07l25.73 -21.32c0,0 -20.46,1.98 -37.59,3.96 -15.79,-26.19 -26.02,-57.95 -27.07,-96.44z"/>
    <path class="fil7" d="M622.67 303.04c-11.1,5.04 -27.52,12.71 -27.52,12.71l15.82 -22.74c-18.43,-14.34 -38.72,-23.9 -58.81,-30.15 -8.15,11.86 -17.73,25.12 -17.73,25.12l-1.9 -30.27c-53.88,-11.6 -101.44,-2.32 -101.44,-2.32 73.02,115.2 252.97,217.87 252.97,217.87 -0.82,-84.65 -26.58,-137.5 -61.4,-170.23z"/>
    <path class="fil7" d="M404.29 417.95c21.47,-12.62 43.27,-19.42 64.44,-22.2 6.37,7.28 14.21,15.84 14.21,15.84l0.43 -17.14c81.38,-3.9 149.99,47.36 149.99,47.36 -46.57,28.33 -86.64,36.27 -119.66,33.92 -2.08,-5.99 -5.04,-14.92 -5.04,-14.92l-5.53 13.8c-15.85,-2.25 -29.9,-6.85 -42.06,-12.49 2.92,-7.15 6,-15.34 6,-15.34l-17.35 9.51c-29.79,-16.86 -45.43,-38.35 -45.43,-38.35z"/>
    <path class="fil6" d="M513.7 475.73c-2.08,-5.99 -5.04,-14.92 -5.04,-14.92l-5.53 13.8c-15.85,-2.25 -29.9,-6.85 -42.06,-12.49 2.92,-7.15 6,-15.34 6,-15.34l-17.35 9.51c-29.79,-16.86 -45.43,-38.35 -45.43,-38.35 94.68,-10.82 229.07,23.86 229.07,23.86 -46.57,28.33 -86.64,36.27 -119.66,33.92z"/>
    <path class="fil6" d="M1205.65 406.11l-6.87 51.74 36.77 -26.84 112.48 -57.47 -87 7.97c0,0 -44.34,10.76 -46.74,12.93 -2.4,2.17 -8.63,11.66 -8.63,11.66z"/>
    <polygon class="fil7" points="1167.12,374.87 1348.03,373.55 1205.65,406.11 "/>
    <polygon class="fil7" points="1263.79,458.16 1216.41,420.09 1348.03,373.55 "/>
    <path class="fil8" d="M1186.99 433.07c6.93,-2.61 12.04,-3.17 12.1,-3.17l-0.34 -3.21c-0.25,0.03 -5.59,0.61 -12.88,3.36l1.12 3.02z"/>
    <path class="fil8" d="M1150.64 463.73c3.27,-7.95 7.96,-14.88 14.03,-20.6l2.21 2.35c-5.7,5.4 -10.17,11.95 -13.24,19.48l-2.99 -1.23zm-4.05 48.79c-1.29,-8.7 -1.71,-16.95 -1.23,-24.52l3.21 0.2c-0.45,7.34 -0.05,15.37 1.2,23.84l0.03 0.19 -3.19 0.44 -0.03 -0.15zm3.6 24.33l3.21 -0.46c1.34,9.45 2.32,17.18 3.04,24.31l-3.24 0.32c-0.7,-7.08 -1.68,-14.76 -3.02,-24.17zm4.61 48.42l3.21 -0.07c0.22,8.77 -0.06,16.81 -0.78,24.59l-3.21 -0.3c0.72,-7.65 0.98,-15.57 0.78,-24.21zm-13.05 70.64c1.59,-3.32 3.04,-6.79 4.33,-10.3 1.45,-3.97 2.74,-8.13 3.86,-12.35l3.1 0.81c-1.12,4.32 -2.43,8.58 -3.94,12.65 -1.31,3.6 -2.79,7.16 -4.44,10.57l-2.9 -1.39zm-28.75 38.34c6.09,-5.55 11.54,-11.53 16.26,-17.78l2.57 1.94c-4.83,6.4 -10.42,12.53 -16.65,18.21l-2.18 -2.38zm-39.99 26.99c7.48,-3.79 14.53,-7.88 20.94,-12.15l1.79 2.69c-6.51,4.34 -13.67,8.49 -21.27,12.34l-1.46 -2.88z"/>
    <path class="fil8" d="M1039.78 738.66c4.16,-1.44 8.25,-2.96 12.18,-4.51l-1.19 -3.01c-3.88,1.54 -7.95,3.04 -12.05,4.46l1.06 3.05z"/>
    <path class="fil9" d="M1023.04 395.3c0,0 67.27,-45.02 82.62,-15.36 15.37,29.66 -87.39,134.63 -87.39,134.63l4.77 -119.26z"/>
    <path class="fil9" d="M1023.04 591.47c0,0 67.27,-45.02 82.62,-15.36 15.37,29.66 -87.39,134.63 -87.39,134.63l4.77 -119.27z"/>
    <path class="fil9" d="M1023.04 725.12c0,0 67.27,-45.02 82.62,-15.36 15.37,29.66 -87.39,134.62 -87.39,134.62l4.77 -119.26z"/>
    <path class="fil10" d="M976.57 344.85l-369.31 0c-27.5,0 -49.8,22.29 -49.8,49.8l0 754.75c0,27.73 22.54,49.8 49.8,49.8l369.31 0c27.5,0 49.8,-22.28 49.8,-49.8l0 -754.75c0,-27.75 -22.57,-49.8 -49.8,-49.8z"/>
    <path class="fil3" d="M845.46 1200.15l0 0 -196.83 -0.97 196.85 0c-0.01,0.64 -0.02,0.97 -0.02,0.97l0 0z"/>
    <path class="fil4" d="M639.9 1235.1c-72.47,-0.01 -103.5,-34.5 -109.09,-61.22 -3.18,-15.1 11.18,-61.92 26.67,-105.83l0 81.34c0,27.73 22.54,49.8 49.8,49.8l41.36 0 196.83 0.97 0 0c0,0 -68.75,18.42 -168.19,32.21 -13.53,1.88 -25.96,2.73 -37.37,2.73z"/>
    <path class="fil10" d="M845.48 1199.19l-238.22 0c-27.26,0 -49.8,-22.06 -49.8,-49.8l0 -81.34c4.92,-13.91 9.94,-27.53 14.56,-39.76l9.59 0 0 103.03 251.68 0c0.18,0.41 0.4,0.82 0.63,1.22 3.11,5.34 7.3,12.58 12.3,21.19 -0.35,23.72 -0.67,41.27 -0.74,45.46z"/>
    <polygon class="fil5" points="581.62,1131.32 1002.23,1131.32 1002.23,412.71 581.62,412.71 "/>
    <path class="fil11" d="M557.47 918.53c-2.52,-9.32 -3.4,-19.09 -2.54,-28.85l2.54 -29.32 0 58.17z"/>
    <path class="fil9" d="M557.47 1028.29l-22.76 0c-12.63,0 -22.85,-10.22 -22.85,-22.85l0 -150.74c0,-12.62 10.22,-22.85 22.85,-22.85l22.76 0 0 28.51 -2.54 29.32c-0.86,9.76 0.02,19.53 2.54,28.85l0 109.77z"/>
    <path class="fil10" d="M572.03 1028.29l-14.56 0 0 -196.44 24.15 0 0 171.5c-2.81,7.19 -6.08,15.67 -9.59,24.95z"/>
    <path class="fil10" d="M581.62 1028.29l-9.59 0c3.51,-9.28 6.77,-17.75 9.59,-24.95l0 24.95z"/>
    <path class="fil12" d="M856.9 1073.62c-1.86,0 -22.96,-29.08 -34.6,-45.33l-240.69 0 0 -196.44 313.55 0c8.18,13.6 17.45,28.1 27.68,43.27l0 11.77c-15.83,1.98 -49.05,7.49 -50.56,18.97 -1.91,14.57 2.1,39.86 50.56,46.26l0 53.33c0,12.63 -10.22,22.85 -22.85,22.85l-47.07 0c2.37,17.85 5.72,45.33 3.97,45.33z"/>
    <path class="fil11" d="M1030.75 698.03l-0.49 0c6.33,-6.86 14.59,-16.02 23.34,-26.32l0 3.47c0,12.61 -10.24,22.85 -22.85,22.85zm-4.38 -108.7l0 -83.28c3.49,-3.73 7.92,-8.54 12.9,-14.09 8.4,3.38 14.34,11.6 14.34,21.2l0 61.62c-11.74,5.2 -22.13,11.37 -27.23,14.56z"/>
    <path class="fil13" d="M1026.37 506.05l0 -15.73 4.38 0c3.02,0 5.89,0.58 8.52,1.64 -4.97,5.56 -9.41,10.36 -12.9,14.09z"/>
    <path class="fil9" d="M1030.26 698.03l-3.89 0 0 -108.7c5.1,-3.18 15.5,-9.36 27.23,-14.56l0 96.94c-8.76,10.3 -17.01,19.46 -23.34,26.32z"/>
    <polygon class="fil10" points="1026.37,698.03 1002.23,698.03 1002.23,490.31 1026.37,490.31 "/>
    <path class="fil12" d="M678.52 741.45c-1.67,0 1.39,-25.58 3.74,-43.42l-40.38 0c-12.61,0 -22.85,-10.23 -22.85,-22.85l0 -162.02c0,-12.62 10.24,-22.84 22.85,-22.84l360.35 0 0 207.72 -290.45 0c-11.85,16.51 -31.45,43.42 -33.25,43.42z"/>
    <path class="fil5" d="M878.63 390.14l-172.75 0c-1.99,0 -3.62,-1.62 -3.62,-3.62l0 -1.77c0,-2 1.62,-3.62 3.62,-3.62l172.75 0c2.01,0 3.62,1.62 3.62,3.62l0 1.77c0,2 -1.62,3.62 -3.62,3.62z"/>
    <path class="fil2" d="M549.1 847.38c0,0 2.54,9.44 8.28,14.08l6.82 -78.43c0,0 48.9,-54.65 37.08,-128.36 -4.04,-25.23 -16.59,-48.45 -35.78,-65.32 -10.95,-9.63 -22.99,-16.07 -30.08,-7.01 0,0 -55.4,131.92 -93.67,228.28l107.36 36.75z"/>
    <path class="fil14" d="M884.92 792.75l-365.3 0c-12.61,0 -22.85,10.22 -22.85,22.84l0 150.75c0,12.61 10.24,22.84 22.85,22.84l287.59 0c11.64,16.25 32.75,45.33 34.61,45.33 1.74,0 -1.62,-27.47 -3.98,-45.33l47.08 0c12.61,0 22.84,-10.22 22.84,-22.84l0 -150.75c0,-12.61 -10.22,-22.84 -22.84,-22.84z"/>
    <polygon class="fil15" points="581.62,1131.32 1002.23,1131.32 1002.23,1088.82 581.62,1088.82 "/>
    <polygon class="fil15" points="581.62,450.85 1002.23,450.85 1002.23,412.72 581.62,412.72 "/>
    <path class="fil16" d="M545.38 659.82c15.3,-7.04 23.29,-46.87 26.16,-64.77 -12.28,-12.36 -27.7,-23.48 -36.13,-12.71 0,0 -12.2,29.05 -29.1,69.84 11.55,6.43 27.62,12.91 39.06,7.64z"/>
    <path class="fil9" d="M931.08 886c0,0 -56.8,4.76 -58.79,19.86 -1.98,15.1 2.39,41.71 56.02,46.88l55.55 0c0,0 -16.61,-46.09 -15.83,-47.68 0.8,-1.58 -36.94,-19.06 -36.94,-19.06z"/>
    <path class="fil2" d="M839.94 1111.19c-7.7,4.09 -10.38,13.81 -6.01,21.35 26.14,45.09 130.1,224.27 139.46,238.84 10.74,16.68 36.96,56.01 123.95,76.27 87,20.27 122.76,78.66 122.76,78.66l268.14 0c0,0 -63.15,-100.11 -115.59,-359.93 0,0 -40.51,-215.72 -116.79,-208.56 0,0 -46.49,-48.87 -91.78,-39.34 0,0 -85.81,-51.25 -134.67,-51.25l-117.36 -138.7c-11.63,-13.73 -32.1,-16.42 -46.39,-5.49 -4.59,3.51 -8.09,8.15 -9.06,14.29 -3.57,22.64 26.22,79.85 73.89,148.98 47.67,69.12 165.66,288.41 114.41,384.95 0,0 -52.44,-39.34 -97.72,-102.49 -37.93,-52.9 -82.55,-70.69 -107.24,-57.59z"/>
    <path class="fil9" d="M1029.85 867.3c15.56,13.33 30.16,27.79 43.94,42.98 18.63,20.27 42.12,50.3 55.95,73.5 17.38,28.68 28.86,53.83 34.31,85.41l-0.34 0.08c-6.26,-29.68 -22.6,-61.64 -36.82,-83.72 -10.67,-17.26 -30.37,-44.69 -55.22,-73.43 -12.49,-14.4 -28.31,-31.41 -42.08,-44.57l0.25 -0.26z"/>
    <path class="fil9" d="M1163.32 918.12c12.66,6.49 23.97,15.54 33.95,25.75 10.11,10.19 18.49,21.73 25.73,34.34 7.07,12.49 12.49,25.91 16.12,39.75 3.07,12.97 5.06,21.76 5.39,42.27l-0.36 0.02c-1.17,-14.05 -3.74,-27.97 -7.74,-41.49 -4.02,-13.09 -9.67,-27.14 -16.51,-38.8 -6.87,-12.31 -15.23,-23.76 -24.7,-34.18 -8.97,-9.83 -20.7,-20.43 -32.07,-27.35l0.19 -0.32z"/>
    <path class="fil9" d="M1254.85 956.83c11.2,8.47 22.55,23.48 28.08,33.61 6.9,11.91 12.38,25.73 16.01,40.86 2.63,9.68 3.32,19.08 3.74,28.92l-0.36 0.04c-1.65,-9.53 -2.68,-16.65 -6.09,-28.2 -5.2,-17.51 -9.3,-26.51 -16.26,-40.01 -4.19,-8.32 -15,-24.81 -25.26,-34.97l0.14 -0.26z"/>
    <path class="fil16" d="M894.06 1166.67c2.38,-12.07 -11.68,-31.2 -24.45,-45.64 -7.97,-9.02 -20.54,-12.39 -31.6,-8.62 -6.18,4.59 -8.06,13.26 -4.09,20.12 7.02,12.11 19.67,33.92 34.59,59.6 11.17,-5.69 23.34,-14.3 25.55,-25.47z"/>
    <path class="fil16" d="M905.32 782.97c6.79,-1.35 37.55,-11.58 35.66,-17.19l-30.34 -35.85c-6.02,-7.13 -14.42,-11.26 -23.12,-12.08l0 0 -0.14 -0.02c-0.25,-0.02 -0.81,-0.06 -1.58,-0.06 -4.08,0 -14.08,1.16 -16.29,12.17 -2.17,10.88 15.82,37.32 23.77,48.32 2.75,3.79 7.46,5.64 12.05,4.71z"/>
    <path class="fil17" d="M366.83 1338.91c33.6,20.64 141.79,82.38 253.65,95.54 6.56,0.76 11.17,6.77 9.22,11.97l-19.54 52.34c-1.3,3.47 -5.19,5.49 -9.55,4.96 -32.97,-4 -169,-24.48 -264.71,-98.53 -3.27,-2.52 -4.63,-6.34 -3.41,-9.6l19.93 -53.42c1.88,-5.03 8.93,-6.62 14.4,-3.26z"/>
    <path class="fil18" d="M357 1388.96l-0.36 -0.14c-1.97,-0.73 -2.96,-2.91 -2.23,-4.87l6.03 -16.12c0.72,-1.96 2.91,-2.96 4.87,-2.22l0.37 0.14c1.96,0.73 2.95,2.91 2.22,4.87l-6.01 16.12c-0.74,1.96 -2.92,2.96 -4.88,2.22z"/>
    <path class="fil18" d="M377.13 1401.37l-0.38 -0.15c-1.96,-0.73 -2.96,-2.92 -2.22,-4.87l6.01 -16.12c0.73,-1.96 2.92,-2.95 4.88,-2.22l0.36 0.14c1.96,0.73 2.96,2.92 2.23,4.88l-6.02 16.11c-0.73,1.96 -2.92,2.96 -4.87,2.23z"/>
    <path class="fil18" d="M397.29 1413.68l-0.38 -0.14c-1.96,-0.73 -2.96,-2.91 -2.22,-4.87l6.01 -16.12c0.73,-1.96 2.91,-2.96 4.88,-2.22l0.37 0.14c1.97,0.73 2.96,2.91 2.23,4.87l-6.02 16.12c-0.73,1.96 -2.92,2.96 -4.87,2.22z"/>
    <path class="fil18" d="M418.03 1423.7l-0.38 -0.14c-1.96,-0.73 -2.96,-2.92 -2.23,-4.87l6.03 -16.12c0.72,-1.96 2.91,-2.96 4.88,-2.22l0.36 0.14c1.96,0.73 2.96,2.92 2.23,4.87l-6.02 16.12c-0.73,1.96 -2.92,2.96 -4.87,2.22z"/>
    <path class="fil18" d="M438.43 1435.34l-0.37 -0.14c-1.96,-0.73 -2.96,-2.91 -2.22,-4.88l6.01 -16.11c0.74,-1.96 2.92,-2.96 4.88,-2.23l0.37 0.14c1.97,0.74 2.96,2.92 2.23,4.88l-6.02 16.11c-0.73,1.97 -2.91,2.96 -4.87,2.23z"/>
    <path class="fil18" d="M459.73 1444.57l-0.36 -0.13c-1.97,-0.74 -2.96,-2.92 -2.23,-4.88l6.02 -16.11c0.73,-1.96 2.92,-2.96 4.87,-2.23l0.38 0.14c1.96,0.74 2.95,2.92 2.22,4.88l-6.01 16.11c-0.74,1.97 -2.92,2.96 -4.88,2.23z"/>
    <path class="fil18" d="M481.46 1452.68l-0.36 -0.14c-1.97,-0.73 -2.96,-2.91 -2.23,-4.87l6.02 -16.12c0.73,-1.96 2.91,-2.96 4.87,-2.22l0.38 0.14c1.96,0.73 2.96,2.91 2.22,4.87l-6.01 16.12c-0.74,1.96 -2.91,2.96 -4.88,2.22z"/>
    <path class="fil18" d="M503.6 1459.67l-0.36 -0.14c-1.97,-0.73 -2.96,-2.91 -2.23,-4.88l6.02 -16.11c0.73,-1.96 2.92,-2.96 4.88,-2.22l0.37 0.14c1.96,0.73 2.96,2.92 2.22,4.87l-6.01 16.12c-0.74,1.96 -2.93,2.95 -4.89,2.22z"/>
    <path class="fil18" d="M526.65 1464.25l-0.37 -0.14c-1.97,-0.72 -2.96,-2.91 -2.23,-4.87l6.02 -16.12c0.73,-1.96 2.92,-2.96 4.87,-2.22l0.38 0.14c1.96,0.73 2.96,2.92 2.22,4.87l-6.01 16.12c-0.74,1.96 -2.92,2.96 -4.88,2.22z"/>
    <path class="fil18" d="M549.09 1470.46l-0.38 -0.14c-1.96,-0.73 -2.96,-2.92 -2.22,-4.88l6.01 -16.11c0.74,-1.96 2.92,-2.96 4.88,-2.22l0.37 0.14c1.97,0.73 2.96,2.92 2.23,4.87l-6.02 16.12c-0.73,1.96 -2.92,2.95 -4.87,2.22z"/>
    <path class="fil18" d="M572.38 1474.36l-0.38 -0.14c-1.96,-0.73 -2.95,-2.92 -2.22,-4.88l6.01 -16.11c0.74,-1.96 2.92,-2.96 4.89,-2.23l0.36 0.14c1.97,0.74 2.96,2.92 2.23,4.88l-6.02 16.12c-0.73,1.96 -2.91,2.95 -4.87,2.22z"/>
    <path class="fil18" d="M595.71 1478.17l-0.38 -0.14c-1.96,-0.73 -2.96,-2.92 -2.22,-4.87l6.01 -16.12c0.74,-1.96 2.92,-2.95 4.88,-2.22l0.37 0.14c1.97,0.73 2.96,2.91 2.23,4.88l-6.02 16.11c-0.73,1.96 -2.92,2.96 -4.87,2.22z"/>
    <path class="fil19" d="M433.23 1460.12l0.09 -0.25c-0.35,-0.04 -0.71,-0.13 -1.06,-0.25l-26.47 -9.88c-2.62,-0.98 -3.88,-4.08 -2.84,-6.9l23.87 -63.94c1.06,-2.82 4.04,-4.33 6.65,-3.35l26.48 9.88c1.55,0.58 2.62,1.9 3.02,3.47 2.08,0.91 4.17,1.81 6.29,2.72 0.72,-5.38 -2.05,-10.6 -6.97,-12.44l-26.49 -9.88c-5.79,-2.16 -12.42,1.17 -14.76,7.44l-23.86 63.94c-2.35,6.26 0.47,13.12 6.27,15.29l26.47 9.88c3.97,1.49 8.33,0.39 11.43,-2.46 -2.7,-1.07 -5.42,-2.16 -8.13,-3.28z"/>
    <path class="fil5" d="M427.42 1409.37l-11.52 -4.29c-2.06,-0.78 -4.4,0.41 -5.24,2.64 -0.84,2.23 0.16,4.65 2.22,5.43l11.52 4.3 3.02 -8.09z"/>
    <path class="fil20" d="M1488.23 1526.31l0 0 0 0zm0 -0.01c0,0 0,0 0,-0.01 0,0.01 0,0.01 0,0.01zm0 -0.01c-0.84,-1.32 -41.85,-67.29 -84.99,-228.53 0,0 0,0 0,0 43.14,161.25 84.15,227.19 84.99,228.53zm-391.27 -78.72c-0.04,-0.01 -0.08,-0.02 -0.13,-0.03 0.04,0.01 0.09,0.02 0.13,0.03zm-0.22 -0.06c-0.04,-0.01 -0.1,-0.02 -0.16,-0.03 0.06,0.01 0.11,0.02 0.16,0.03zm-0.27 -0.07c-0.04,0 -0.08,-0.01 -0.13,-0.02 0.04,0.01 0.08,0.02 0.13,0.02zm-0.3 -0.07c-0.02,0 -0.04,-0.01 -0.07,-0.01 0.02,0 0.04,0.01 0.07,0.01zm-0.23 -0.05c-0.03,0 -0.05,-0.01 -0.08,-0.01 0.02,0 0.04,0.01 0.08,0.01zm-0.26 -0.06c-0.02,0 -0.04,-0.01 -0.07,-0.01 0.02,0 0.04,0.01 0.07,0.01zm-0.24 -0.06c-0.02,0 -0.05,-0.01 -0.07,-0.01 0.02,0 0.05,0.01 0.07,0.01zm-0.26 -0.06c-0.01,-0.01 -0.02,-0.01 -0.04,-0.01 0.02,0 0.03,0 0.04,0.01zm-0.24 -0.06c-0.01,-0.01 -0.03,-0.01 -0.04,-0.01 0.01,0 0.04,0 0.04,0.01zm-0.24 -0.06c-0.01,-0.01 -0.05,-0.01 -0.05,-0.02 0.01,0.01 0.03,0.01 0.05,0.02zm-0.24 -0.06c-0.01,-0.01 -0.04,-0.01 -0.06,-0.02 0.01,0.01 0.04,0.01 0.06,0.02zm-0.26 -0.07l-0.01 0 0.01 0zm-0.24 -0.06c0,0 -0.01,-0.01 -0.02,-0.01 0.01,0 0.02,0.01 0.02,0.01zm-0.23 -0.06c-0.02,-0.01 -0.03,-0.01 -0.04,-0.01 0.01,0 0.02,0 0.04,0.01zm-0.24 -0.05c-0.02,-0.01 -0.03,-0.01 -0.04,-0.01 0.01,0 0.04,0 0.04,0.01z"/>
    <path class="fil3" d="M1038.88 1427.7c0,0 0,0 -0.01,0 0.01,0 0.01,0 0.01,0zm-0.16 -0.07c0,0 0,0 -0.01,-0.01 0.01,0.01 0.01,0.01 0.01,0.01zm-0.16 -0.08c0,0 -0.01,0 -0.01,-0.01 0.01,0.01 0.01,0.01 0.01,0.01zm-0.15 -0.07c-0.01,-0.01 -0.02,-0.01 -0.02,-0.02 0,0.01 0.01,0.01 0.02,0.02zm-0.15 -0.08c-0.02,0 -0.03,-0.01 -0.04,-0.02 0.01,0.01 0.03,0.02 0.04,0.02zm-0.17 -0.08c-0.01,0 -0.02,-0.01 -0.04,-0.01 0.01,0 0.02,0.01 0.04,0.01zm-0.15 -0.07c-0.02,-0.01 -0.03,-0.02 -0.05,-0.03 0.02,0.01 0.04,0.02 0.05,0.03zm-0.16 -0.08c-0.01,-0.01 -0.05,-0.02 -0.06,-0.03 0.03,0.01 0.04,0.02 0.06,0.03zm-0.16 -0.08c-0.02,-0.01 -0.04,-0.02 -0.06,-0.02 0.02,0 0.04,0.01 0.06,0.02zm-0.17 -0.08c-0.01,-0.01 -0.02,-0.01 -0.04,-0.02 0.01,0.01 0.03,0.01 0.04,0.02zm-0.16 -0.08c-0.01,-0.01 -0.02,-0.01 -0.04,-0.02 0.01,0.01 0.02,0.01 0.04,0.02zm-0.16 -0.08c-0.01,-0.01 -0.02,-0.01 -0.05,-0.02 0.02,0.01 0.03,0.01 0.05,0.02zm-0.15 -0.08c-0.03,0 -0.05,-0.02 -0.07,-0.02 0.02,0 0.04,0.02 0.07,0.02zm-0.16 -0.08c-0.03,0 -0.05,-0.01 -0.07,-0.02 0.02,0.01 0.04,0.02 0.07,0.02zm-0.18 -0.08c-0.01,0 -0.03,-0.01 -0.04,-0.02 0.02,0.01 0.04,0.02 0.04,0.02zm-0.16 -0.08c0,0 -0.01,0 -0.02,-0.01 0.01,0.01 0.02,0.01 0.02,0.01zm-0.16 -0.07c0,-0.01 0,-0.01 -0.01,-0.01 0.01,0 0.01,0 0.01,0.01zm-0.31 -0.16l0 0 0 0zm-0.08 -0.04c-0.02,-0.01 -0.06,-0.02 -0.08,-0.04 0.02,0.01 0.06,0.02 0.08,0.04zm-0.14 -0.07c-0.03,-0.01 -0.07,-0.04 -0.1,-0.05 0.03,0.01 0.07,0.04 0.1,0.05zm-0.16 -0.08c-0.03,-0.01 -0.07,-0.03 -0.1,-0.04 0.03,0.01 0.07,0.03 0.1,0.04zm-0.17 -0.08c-0.02,-0.01 -0.07,-0.03 -0.09,-0.04 0.03,0.01 0.06,0.03 0.09,0.04zm-0.15 -0.08c-0.03,-0.01 -0.07,-0.04 -0.1,-0.06 0.04,0.02 0.07,0.04 0.1,0.06zm-0.16 -0.08c-0.04,-0.01 -0.07,-0.03 -0.12,-0.05 0.04,0.02 0.08,0.04 0.12,0.05zm-0.16 -0.08c-0.04,-0.01 -0.07,-0.04 -0.1,-0.04 0.03,0.01 0.07,0.02 0.1,0.04zm-0.17 -0.08c-0.03,-0.02 -0.06,-0.03 -0.09,-0.04 0.03,0.01 0.06,0.02 0.09,0.04zm-0.15 -0.08c-0.03,-0.02 -0.08,-0.04 -0.11,-0.06 0.03,0.01 0.08,0.04 0.11,0.06zm-0.14 -0.08c-0.05,-0.02 -0.08,-0.04 -0.13,-0.06 0.04,0.02 0.08,0.03 0.13,0.06zm-0.16 -0.08c-0.04,-0.02 -0.09,-0.05 -0.12,-0.07 0.04,0.02 0.08,0.05 0.12,0.07zm-0.14 -0.08c-0.05,-0.02 -0.09,-0.04 -0.14,-0.07 0.04,0.02 0.09,0.04 0.14,0.07zm-0.17 -0.08c-0.04,-0.02 -0.08,-0.05 -0.13,-0.07 0.04,0.02 0.08,0.05 0.13,0.07zm-0.15 -0.08c-0.05,-0.02 -0.09,-0.04 -0.14,-0.07 0.05,0.02 0.09,0.04 0.14,0.07zm-0.17 -0.08c-0.03,-0.02 -0.08,-0.04 -0.12,-0.07 0.04,0.02 0.09,0.05 0.12,0.07zm-0.15 -0.08c-0.04,-0.02 -0.09,-0.04 -0.14,-0.07 0.05,0.01 0.09,0.04 0.14,0.07zm-0.16 -0.08c-0.52,-0.27 -1.05,-0.55 -1.57,-0.82 0.52,0.27 1.05,0.55 1.57,0.82zm-1.57 -0.82c-0.04,-0.04 -0.1,-0.06 -0.15,-0.09 0.04,0.03 0.1,0.05 0.15,0.09zm-0.16 -0.09c-0.04,-0.03 -0.09,-0.05 -0.15,-0.08 0.06,0.04 0.1,0.06 0.15,0.08zm-0.16 -0.08c-0.1,-0.05 -0.19,-0.11 -0.3,-0.16 0.1,0.04 0.2,0.1 0.3,0.16zm-0.31 -0.17c-0.05,-0.02 -0.09,-0.04 -0.14,-0.07 0.04,0.02 0.09,0.04 0.14,0.07zm-0.16 -0.08c-0.05,-0.02 -0.09,-0.04 -0.14,-0.08 0.04,0.03 0.09,0.06 0.14,0.08zm-0.15 -0.08c-0.04,-0.02 -0.09,-0.06 -0.15,-0.08 0.04,0.02 0.1,0.06 0.15,0.08zm-0.15 -0.08c-0.1,-0.06 -0.21,-0.11 -0.31,-0.17 0.1,0.06 0.21,0.11 0.31,0.17zm-0.31 -0.17c-33.12,-17.83 -47.83,-37.88 -55.55,-49.65l0 0c7.72,11.77 22.44,31.83 55.55,49.65z"/>
    <path class="fil4" d="M1488.23 1526.31l-268.14 0c0,0 -35.76,-58.4 -122.76,-78.66l0 0c-0.13,-0.02 -0.25,-0.06 -0.37,-0.08 -0.04,-0.01 -0.08,-0.02 -0.13,-0.03 -0.02,-0.01 -0.06,-0.01 -0.09,-0.02 -0.04,-0.01 -0.1,-0.02 -0.16,-0.03 -0.03,-0.01 -0.07,-0.02 -0.11,-0.04 -0.05,0 -0.08,-0.01 -0.13,-0.02 -0.06,-0.01 -0.11,-0.02 -0.17,-0.04 -0.02,0 -0.04,-0.01 -0.07,-0.01 -0.06,-0.01 -0.12,-0.02 -0.16,-0.04 -0.03,0 -0.05,-0.01 -0.08,-0.01 -0.07,-0.01 -0.13,-0.04 -0.18,-0.05 -0.02,0 -0.04,-0.01 -0.07,-0.01 -0.06,-0.02 -0.1,-0.03 -0.17,-0.04 -0.02,0 -0.05,-0.01 -0.07,-0.01 -0.07,-0.02 -0.14,-0.04 -0.19,-0.04 -0.01,-0.01 -0.02,-0.01 -0.04,-0.01 -0.06,-0.02 -0.13,-0.04 -0.2,-0.04 -0.01,-0.01 -0.03,-0.01 -0.04,-0.01 -0.07,-0.02 -0.13,-0.03 -0.19,-0.04 -0.02,-0.01 -0.05,-0.01 -0.05,-0.02 -0.07,-0.01 -0.12,-0.02 -0.18,-0.04 -0.01,-0.01 -0.04,-0.01 -0.06,-0.02 -0.08,-0.01 -0.14,-0.03 -0.2,-0.04l-0.01 0c-0.08,-0.02 -0.15,-0.04 -0.23,-0.06 0,0 -0.01,-0.01 -0.02,-0.01 -0.07,-0.01 -0.13,-0.03 -0.21,-0.04 -0.02,-0.01 -0.03,-0.01 -0.04,-0.01 -0.07,-0.01 -0.14,-0.04 -0.19,-0.04 -0.01,-0.01 -0.03,-0.01 -0.04,-0.01 -21.91,-5.36 -39.84,-11.93 -54.57,-19.03 0,0 0,0 -0.01,0 -0.04,-0.02 -0.09,-0.04 -0.15,-0.07 0,0 0,0 -0.01,-0.01 -0.05,-0.02 -0.09,-0.05 -0.15,-0.07 0,0 0,0 -0.01,-0.01 -0.05,-0.01 -0.09,-0.03 -0.14,-0.06 -0.01,-0.01 -0.02,-0.01 -0.02,-0.02 -0.05,-0.01 -0.09,-0.04 -0.13,-0.06 -0.01,0 -0.03,-0.01 -0.04,-0.02 -0.05,-0.01 -0.08,-0.04 -0.13,-0.06 -0.01,0 -0.02,-0.01 -0.04,-0.01 -0.03,-0.02 -0.08,-0.05 -0.11,-0.06 -0.01,-0.01 -0.03,-0.02 -0.05,-0.03 -0.04,-0.01 -0.07,-0.03 -0.1,-0.04 -0.02,-0.01 -0.03,-0.02 -0.06,-0.03 -0.03,-0.01 -0.07,-0.02 -0.1,-0.05 -0.02,-0.01 -0.04,-0.02 -0.06,-0.02 -0.03,-0.02 -0.08,-0.05 -0.11,-0.06 -0.01,-0.01 -0.02,-0.01 -0.04,-0.02 -0.04,-0.02 -0.08,-0.03 -0.12,-0.06 -0.01,-0.01 -0.02,-0.01 -0.04,-0.02 -0.04,-0.01 -0.08,-0.03 -0.12,-0.06 -0.01,-0.01 -0.02,-0.01 -0.05,-0.02 -0.04,-0.01 -0.07,-0.03 -0.1,-0.06 -0.03,0 -0.05,-0.02 -0.07,-0.02 -0.04,-0.02 -0.07,-0.04 -0.09,-0.06 -0.03,0 -0.05,-0.01 -0.07,-0.02 -0.03,-0.02 -0.07,-0.03 -0.1,-0.06 -0.01,0 -0.02,-0.01 -0.04,-0.02 -0.03,-0.01 -0.07,-0.03 -0.11,-0.06 0,0 -0.01,0 -0.02,-0.01 -0.04,-0.02 -0.09,-0.03 -0.13,-0.06 0,-0.01 0,-0.01 -0.01,-0.01 -0.09,-0.04 -0.19,-0.1 -0.3,-0.15l0 0c-0.02,-0.01 -0.06,-0.02 -0.08,-0.04 -0.02,-0.01 -0.06,-0.02 -0.08,-0.04 -0.02,-0.01 -0.04,-0.02 -0.06,-0.03 -0.03,-0.01 -0.07,-0.04 -0.1,-0.05 -0.02,-0.01 -0.04,-0.02 -0.06,-0.03 -0.03,-0.01 -0.07,-0.03 -0.1,-0.04 -0.02,-0.01 -0.04,-0.02 -0.07,-0.04 -0.03,-0.01 -0.06,-0.03 -0.09,-0.04 -0.02,-0.01 -0.04,-0.02 -0.06,-0.03 -0.03,-0.01 -0.07,-0.04 -0.1,-0.06 -0.02,0 -0.03,-0.01 -0.05,-0.03 -0.04,-0.01 -0.07,-0.03 -0.12,-0.05 -0.01,0 -0.03,-0.01 -0.04,-0.02 -0.04,-0.02 -0.07,-0.04 -0.1,-0.04 -0.02,-0.01 -0.04,-0.02 -0.07,-0.04 -0.03,-0.02 -0.06,-0.03 -0.09,-0.04 -0.01,-0.01 -0.04,-0.02 -0.06,-0.03 -0.03,-0.02 -0.08,-0.04 -0.11,-0.06 -0.01,-0.01 -0.02,-0.01 -0.03,-0.02 -0.05,-0.02 -0.08,-0.04 -0.13,-0.06 -0.01,-0.01 -0.02,-0.01 -0.04,-0.02 -0.04,-0.02 -0.08,-0.05 -0.12,-0.07 -0.01,0 -0.02,0 -0.02,-0.01 -0.05,-0.02 -0.09,-0.04 -0.14,-0.07 -0.01,0 -0.02,-0.01 -0.04,-0.01 -0.04,-0.02 -0.08,-0.05 -0.13,-0.07 -0.01,0 -0.02,-0.01 -0.02,-0.01 -0.05,-0.02 -0.09,-0.04 -0.14,-0.07 0,0 -0.02,-0.01 -0.03,-0.01 -0.03,-0.02 -0.08,-0.04 -0.12,-0.07l-0.03 -0.01c-0.04,-0.02 -0.09,-0.05 -0.14,-0.07 -0.01,-0.01 -0.01,-0.01 -0.02,-0.01 -0.52,-0.27 -1.05,-0.55 -1.57,-0.82l0 0c-0.04,-0.04 -0.1,-0.06 -0.15,-0.09l-0.01 0c-0.04,-0.03 -0.09,-0.05 -0.15,-0.08 0,0 0,0 -0.01,0 -0.09,-0.05 -0.19,-0.11 -0.3,-0.16 0,0 0,-0.01 -0.01,-0.01 -0.05,-0.02 -0.09,-0.04 -0.14,-0.07 -0.01,0 -0.01,-0.01 -0.02,-0.01 -0.05,-0.02 -0.09,-0.04 -0.14,-0.08l-0.01 0c-0.04,-0.02 -0.1,-0.06 -0.15,-0.08l0 0c-0.1,-0.06 -0.21,-0.11 -0.31,-0.17l0 0c-33.11,-17.82 -47.83,-37.88 -55.55,-49.65 23.92,11.21 181.7,44.67 245.91,44.65 6.2,0 11.54,-0.31 15.81,-0.98 41.88,-6.66 147.43,0.26 166.58,-119.69 43.14,161.24 84.15,227.21 84.99,228.53l0 0c0,0.01 0,0.01 0,0.01l0 0.01 0 0 0 0z"/>
    <path class="fil3" d="M1057.34 1220.47c1.67,-42.56 -11.73,-95.05 -30.97,-146.41l0 -1.39c19.49,51.56 32.97,104.45 30.97,147.8z"/>
    <path class="fil21" d="M1026.37 1074.05c-7.37,-19.65 -15.59,-39.14 -24.15,-57.85l0 -0.83c8.57,18.52 16.78,37.81 24.15,57.29l0 1.39z"/>
    <path class="fil20" d="M1002.23 1016.2c-10.37,-22.67 -21.25,-44.2 -31.7,-63.46l0.13 0c10.43,19.07 21.26,40.29 31.57,62.63l0 0.83z"/>
    <path class="fil22" d="M970.65 952.74l-0.13 0c-9.15,-16.88 -17.98,-32 -25.87,-44.68l0 0c7.96,12.78 16.82,27.9 26,44.68z"/>
    <path class="fil4" d="M1075.88 1301.84l-30.98 -30.57c7.83,-14.2 11.69,-31.47 12.44,-50.8 2,-43.35 -11.48,-96.24 -30.97,-147.8 -7.37,-19.48 -15.58,-38.77 -24.15,-57.29 -10.32,-22.34 -21.14,-43.56 -31.57,-62.63 -9.18,-16.78 -18.04,-31.9 -26,-44.68 27.14,32.88 55.96,71.38 84.94,115.87 124.53,191.21 46.28,277.91 46.28,277.91z"/>
    <path class="fil5" d="M632.45 890.97c0,31.63 -25.64,57.27 -57.28,57.27 -31.63,0 -57.27,-25.64 -57.27,-57.27 0,-31.64 25.64,-57.28 57.27,-57.28 31.64,0 57.28,25.64 57.28,57.28z"/>
    <path class="fil23" d="M545.36 892.48c0,0 -5.68,-23.31 7.84,-32.04 13.54,-8.74 27.98,-10.73 37.86,-5.69 13.69,6.97 19.31,25.8 14.93,36.23l-36.32 -9.13 -24.31 10.63z"/>
    <polygon class="fil24" points="567.41,936.62 584.23,936.62 584.23,919.82 567.41,919.82 "/>
    <path class="fil25" d="M584.23 929.9l0 -10.07 -16.82 0 0 8.57c3.62,1.94 8.98,3.05 16.82,1.5z"/>
    <path class="fil24" d="M610.76 889.78c-1.77,-0.87 -3.79,-0.72 -5.64,0.21 0.63,-16.57 -12.9,-30.5 -29.96,-29.91 -17.04,-0.59 -30.57,13.34 -29.94,29.91 -1.84,-0.93 -3.88,-1.08 -5.64,-0.21 -3.36,1.65 -4.41,6.4 -2.33,10.6 2.07,4.21 6.49,6.27 9.86,4.61 0.47,-0.22 0.88,-0.52 1.25,-0.86 1.94,13.7 13.38,23.97 26.8,23.77 13.43,0.19 24.88,-10.08 26.8,-23.77 0.38,0.34 0.8,0.64 1.26,0.86 3.37,1.66 7.78,-0.4 9.86,-4.61 2.07,-4.2 1.03,-8.95 -2.33,-10.6z"/>
    <path class="fil5" d="M586.18 909.35c-0.74,3.31 -4.54,5.93 -9.2,6.07 -4.67,0.15 -8.62,-2.23 -9.56,-5.5l18.77 -0.57z"/>
    <path class="fil23" d="M545.23 889.99c0,0 22.01,-6.67 31.65,-17.79 0,0 -2.73,13.41 -4.77,15.55 0.65,0.42 21.99,-9.95 24.89,-19.53 2.89,-9.57 -21.82,-13.01 -21.82,-13.01 0,0 -8.47,3.6 -8.89,3.82 -0.43,0.21 -8.38,1.15 -9.29,3.18 -1.18,2.63 -6.79,2.87 -6.79,2.87l-3.54 7.37 -2.48 7.75 1.05 9.8z"/>
    <path class="fil23" d="M527.21 859.68c4.86,1.96 10.47,2.87 16.29,1.07 12.84,-3.94 17.93,-2.42 19.64,-1.45 1.03,0.59 2.25,0.82 3.37,0.44 1.27,-0.42 2.45,-1.57 2.08,-4.46 0,0 0.5,-12.21 -9.96,-19.17 -13.05,3.94 -24.12,12.4 -31.42,23.56z"/>
    <path class="fil26" d="M554.84 858.88l0 -0.01c-0.39,-0.5 -0.26,-1.22 0.26,-1.56 2.14,-1.41 7.66,-4.59 14.29,-4.93 0.63,-0.02 1.15,0.48 1.15,1.09 0,0.58 -0.46,1.06 -1.04,1.08 -6.06,0.32 -11.25,3.32 -13.21,4.58 -0.48,0.32 -1.12,0.21 -1.46,-0.25z"/>
    <path class="fil27" d="M1049.35 447.24l-388.88 0c-12.61,0 -22.85,10.23 -22.85,22.85l0 162.02c0,12.62 10.23,22.85 22.85,22.85l40.39 0c-2.35,17.84 -5.42,43.42 -3.73,43.42 1.8,0 21.39,-26.92 33.24,-43.42l318.98 0c12.61,0 22.85,-10.23 22.85,-22.85l0 -162.02c0,-12.62 -10.24,-22.85 -22.85,-22.85z"/>
    <path class="fil5" d="M770.19 551.68c0,31.63 -25.65,57.27 -57.28,57.27 -31.63,0 -57.28,-25.64 -57.28,-57.27 0,-31.63 25.65,-57.28 57.28,-57.28 31.63,0 57.28,25.64 57.28,57.28z"/>
    <polygon class="fil24" points="705.16,597.33 721.97,597.33 721.97,580.53 705.16,580.53 "/>
    <path class="fil25" d="M721.97 590.6l0 -10.07 -16.81 0 0 8.56c3.62,1.94 8.98,3.06 16.81,1.5z"/>
    <path class="fil24" d="M748.49 550.48c-1.75,-0.86 -3.79,-0.71 -5.64,0.22 0.64,-16.57 -12.9,-30.5 -29.94,-29.92 -17.05,-0.59 -30.58,13.35 -29.94,29.92 -1.85,-0.93 -3.88,-1.09 -5.64,-0.22 -3.37,1.66 -4.42,6.41 -2.33,10.61 2.07,4.2 6.48,6.26 9.85,4.6 0.47,-0.23 0.89,-0.52 1.26,-0.86 1.92,13.7 13.38,23.97 26.8,23.77 13.43,0.19 24.88,-10.08 26.8,-23.77 0.38,0.34 0.8,0.64 1.27,0.86 3.37,1.66 7.78,-0.4 9.85,-4.6 2.08,-4.2 1.03,-8.95 -2.33,-10.61z"/>
    <path class="fil28" d="M692.43 514.22c0,0 8.45,-7.14 27.63,-5.99 19.18,1.15 22.83,11.17 23.92,25.46l-1.12 17.01c0,0 -4.98,-5.12 -11.47,-19.32 0,0 -10.73,12.05 -15.41,10.63 -4.68,-1.43 1.76,-10.11 1.76,-10.11 0,0 -21.88,18.83 -34.77,18.8 0,0 -6.82,-22.04 2.75,-30.12 0,0 -7.22,0.35 -7.59,-1.07 -0.38,-1.42 3.44,-3.54 10.38,-2.74 0,0 -4.94,-9.67 -2.19,-10.67 2.77,-1 6.11,8.12 6.11,8.12z"/>
    <path class="fil5" d="M723.92 570.05c-0.74,3.32 -4.54,5.93 -9.21,6.07 -4.66,0.14 -8.61,-2.23 -9.55,-5.5l18.76 -0.57z"/>
    <path class="fil29" d="M1013.12 503.89l-218.5 0c-2.61,0 -4.73,-2.12 -4.73,-4.73l0 -0.49c0,-2.61 2.12,-4.73 4.73,-4.73l218.5 0c2.62,0 4.74,2.12 4.74,4.73l0 0.49c0,2.61 -2.12,4.73 -4.74,4.73z"/>
    <path class="fil29" d="M839 530.15l-44.38 0c-2.61,0 -4.73,-2.12 -4.73,-4.73l0 -0.49c0,-2.61 2.12,-4.73 4.73,-4.73l44.38 0c2.61,0 4.73,2.12 4.73,4.73l0 0.49c0,2.61 -2.12,4.73 -4.73,4.73z"/>
    <path class="fil29" d="M1013.12 530.15l-144.35 0c-2.61,0 -4.72,-2.12 -4.72,-4.73l0 -0.49c0,-2.61 2.12,-4.73 4.72,-4.73l144.35 0c2.62,0 4.74,2.12 4.74,4.73l0 0.49c0,2.61 -2.12,4.73 -4.74,4.73z"/>
    <path class="fil29" d="M902.93 556.41l-108.31 0c-2.61,0 -4.73,-2.12 -4.73,-4.73l0 -0.49c0,-2.61 2.12,-4.73 4.73,-4.73l108.31 0c2.61,0 4.73,2.12 4.73,4.73l0 0.49c0,2.61 -2.12,4.73 -4.73,4.73z"/>
    <path class="fil29" d="M1013.12 556.41l-83.5 0c-2.62,0 -4.73,-2.12 -4.73,-4.73l0 -0.49c0,-2.61 2.12,-4.73 4.73,-4.73l83.5 0c2.62,0 4.74,2.12 4.74,4.73l0 0.49c0,2.61 -2.12,4.73 -4.74,4.73z"/>
    <path class="fil29" d="M1013.12 582.67l-218.5 0c-2.61,0 -4.73,-2.12 -4.73,-4.73l0 -0.49c0,-2.61 2.12,-4.73 4.73,-4.73l218.5 0c2.62,0 4.74,2.12 4.74,4.73l0 0.49c0,2.61 -2.12,4.73 -4.74,4.73z"/>
    <path class="fil30" d="M715.62 851.58l-67.26 0c-2.62,0 -4.74,-2.12 -4.74,-4.73l0 -0.49c0,-2.61 2.12,-4.73 4.74,-4.73l67.26 0c2.61,0 4.73,2.12 4.73,4.73l0 0.49c0,2.62 -2.12,4.73 -4.73,4.73z"/>
    <path class="fil30" d="M690.72 877.84l-42.36 0c-2.62,0 -4.74,-2.12 -4.74,-4.73l0 -0.49c0,-2.62 2.12,-4.74 4.74,-4.74l42.36 0c2.61,0 4.72,2.12 4.72,4.74l0 0.49c0,2.61 -2.12,4.73 -4.72,4.73z"/>
    <path class="fil30" d="M763.44 877.84l-54.32 0c-2.62,0 -4.73,-2.12 -4.73,-4.73l0 -0.49c0,-2.62 2.12,-4.74 4.73,-4.74l54.32 0c2.61,0 4.73,2.12 4.73,4.74l0 0.49c0,2.61 -2.12,4.73 -4.73,4.73z"/>
    <path class="fil30" d="M858.35 877.84l-76.51 0c-2.62,0 -4.73,-2.12 -4.73,-4.73l0 -0.49c0,-2.62 2.12,-4.74 4.73,-4.74l76.51 0c2.62,0 4.73,2.12 4.73,4.74l0 0.49c0,2.61 -2.12,4.73 -4.73,4.73z"/>
    <path class="fil30" d="M858.35 851.58l-120.56 0c-2.61,0 -4.73,-2.12 -4.73,-4.73l0 -0.49c0,-2.61 2.12,-4.73 4.73,-4.73l120.56 0c2.62,0 4.73,2.12 4.73,4.73l0 0.49c0,2.62 -2.12,4.73 -4.73,4.73z"/>
    <path class="fil30" d="M858.35 929.32l-209.99 0c-2.62,0 -4.74,-2.12 -4.74,-4.73l0 -0.49c0,-2.61 2.12,-4.72 4.74,-4.72l209.99 0c2.62,0 4.73,2.12 4.73,4.72l0 0.49c0,2.62 -2.12,4.73 -4.73,4.73z"/>
    <path class="fil30" d="M752.26 904.1l-103.9 0c-2.62,0 -4.74,-2.12 -4.74,-4.72l0 -0.5c0,-2.61 2.12,-4.73 4.74,-4.73l103.9 0c2.62,0 4.73,2.12 4.73,4.73l0 0.5c0,2.61 -2.12,4.72 -4.73,4.72z"/>
    <path class="fil30" d="M858.35 904.1l-80.04 0c-2.62,0 -4.73,-2.12 -4.73,-4.72l0 -0.5c0,-2.61 2.1,-4.73 4.73,-4.73l80.04 0c2.62,0 4.73,2.12 4.73,4.73l0 0.5c0,2.61 -2.12,4.72 -4.73,4.72z"/>
    <path class="fil1" d="M218.82 662.28c-10.91,-55.2 71.43,-73.75 84.68,-19.07 1.2,4.95 1.97,10.47 2.21,16.63 2.56,65.72 -37.2,137.27 -79.52,125.22 -42.32,-12.05 -17.95,-56.94 -5.13,-83.86 5.99,-12.57 0.57,-24.68 -2.24,-38.92z"/>
    <path class="fil1" d="M1416.54 541.89c-24.11,-8.42 -50.51,4.42 -59.6,28.31 -7.07,18.57 -15.14,44.47 -15.87,67.25 -1.34,41.1 15.03,129.31 77.51,151.09 62.5,21.78 99.8,-35.68 58.2,-102.16 -17.77,-28.4 -8.91,-126.58 -60.24,-144.5z"/>
    <path class="fil8" d="M307.92 861.94c-5.59,-4.83 -10.19,-7.11 -10.24,-7.14l1.43 -2.9c0.19,0.1 5.01,2.5 10.92,7.61l-2.12 2.44z"/>
    <path class="fil8" d="M328.24 903.38c-0.3,-8.12 -2.21,-15.81 -5.72,-22.85l2.89 -1.43c3.72,7.46 5.74,15.58 6.05,24.17l-3.22 0.11zm-9.88 47.22l-2.85 -1.52 0.09 -0.17c4.09,-7.52 7.24,-14.91 9.35,-21.96l3.1 0.92c-2.18,7.26 -5.41,14.87 -9.62,22.59l-0.07 0.14zm-22.91 43.09l-2.9 -1.42c3.14,-6.43 6.72,-13.35 11.25,-21.76l2.85 1.54c-4.52,8.36 -8.07,15.23 -11.19,21.64zm-17.47 45.2l-3.13 -0.82c1.99,-7.55 4.53,-15.19 7.74,-23.35l3.01 1.19c-3.17,8.04 -5.66,15.56 -7.62,22.98zm-7.74 48.12c-0.35,-3.77 -0.52,-7.62 -0.52,-11.46 0,-4.34 0.23,-8.79 0.67,-13.23l3.21 0.32c-0.43,4.34 -0.65,8.69 -0.65,12.91 0,3.74 0.17,7.5 0.5,11.17l-3.21 0.3zm14.08 47.09c-3.88,-7.49 -7.02,-15.18 -9.35,-22.85l3.09 -0.93c2.27,7.49 5.33,14.98 9.12,22.29l-2.87 1.49zm28.74 39.85c-5.81,-6.23 -11.09,-12.6 -15.71,-18.94l2.61 -1.9c4.54,6.23 9.75,12.5 15.46,18.63l-2.36 2.2z"/>
    <path class="fil8" d="M340.58 1199.58c-3.4,-2.79 -6.73,-5.63 -9.88,-8.44l2.15 -2.42c3.12,2.78 6.41,5.59 9.78,8.36l-2.05 2.5z"/>
    <path class="fil6" d="M286.65 807.3l-4.27 52.02 -30.21 -34.03 -97.72 -80.04 83.33 26.25c0,0 41.03,19.93 42.91,22.56 1.89,2.63 5.97,13.23 5.97,13.23z"/>
    <polygon class="fil7" points="330.95,784.94 154.45,745.25 286.65,807.3 "/>
    <polygon class="fil7" points="218.79,845.82 273.18,818.68 154.45,745.25 "/>
    <path class="fil5" d="M1107.22 533.25c2.32,-10.06 11.31,-17.57 22.1,-17.57 1.96,0 3.88,0.25 5.7,0.73 5.31,-11.36 16.85,-19.23 30.2,-19.23 3.46,0 6.82,0.52 9.95,1.5 7.18,-11.92 20.26,-19.88 35.21,-19.88 17.77,0 32.88,11.28 38.64,27.06 4.05,-2.26 8.72,-3.56 13.69,-3.56 15.59,0 28.22,12.63 28.22,28.2 0,0.93 -0.06,1.84 -0.14,2.74l-183.56 0z"/>
    <path class="fil5" d="M502.93 221.31c1.65,-7.2 8.09,-12.57 15.79,-12.57 1.41,0 2.79,0.18 4.1,0.52 3.8,-8.13 12.05,-13.76 21.61,-13.76 2.48,0 4.86,0.38 7.11,1.08 5.16,-8.53 14.5,-14.23 25.2,-14.23 12.71,0 23.55,8.07 27.65,19.37 2.9,-1.62 6.25,-2.55 9.82,-2.55 11.15,0 20.17,9.03 20.17,20.18 0,0.66 -0.04,1.32 -0.09,1.96l-131.35 0z"/>
    <path class="fil7" d="M1197.83 817.48c0,0 -2.77,27.23 -24.25,29.12 21.49,1.88 24.25,29.12 24.25,29.12 0,0 2.77,-27.24 24.25,-29.12 -21.49,-1.89 -24.25,-29.12 -24.25,-29.12z"/>
    <path class="fil7" d="M412.57 616.16c0,0 -2.77,27.24 -24.26,29.13 21.5,1.88 24.26,29.12 24.26,29.12 0,0 2.75,-27.24 24.25,-29.12 -21.49,-1.89 -24.25,-29.13 -24.25,-29.13z"/>
    <path class="fil7" d="M1254.71 742.12c0,0 -1.84,18.01 -16.06,19.26 14.22,1.24 16.06,19.26 16.06,19.26 0,0 1.82,-18.02 16.04,-19.26 -14.22,-1.25 -16.04,-19.26 -16.04,-19.26z"/>
    <path class="fil7" d="M457.79 552.43c0,0 -1.83,18.02 -16.05,19.27 14.22,1.25 16.05,19.27 16.05,19.27 0,0 1.82,-18.02 16.04,-19.27 -14.22,-1.25 -16.04,-19.27 -16.04,-19.27z"/>
    <path class="fil7" d="M1171.62 688.01c0,0 -0.81,8.06 -7.18,8.62 6.37,0.56 7.18,8.62 7.18,8.62 0,0 0.81,-8.06 7.18,-8.62 -6.37,-0.56 -7.18,-8.62 -7.18,-8.62z"/>
    <path class="fil7" d="M431.65 722.53c0,0 -0.82,8.06 -7.17,8.62 6.35,0.56 7.17,8.63 7.17,8.63 0,0 0.82,-8.07 7.18,-8.63 -6.37,-0.56 -7.18,-8.62 -7.18,-8.62z"/>
   </g>
  </g>
 </g>
</svg>
