<?xml version="1.0" encoding="UTF-8"?>
<!DOCTYPE svg PUBLIC "-//W3C//DTD SVG 1.1//EN" "http://www.w3.org/Graphics/SVG/1.1/DTD/svg11.dtd">
<!-- Creator: CorelDRAW 2019 (64-Bit) -->
<svg xmlns="http://www.w3.org/2000/svg" xml:space="preserve" width="78.5471mm" height="50.0662mm" version="1.1" style="shape-rendering:geometricPrecision; text-rendering:geometricPrecision; image-rendering:optimizeQuality; fill-rule:evenodd; clip-rule:evenodd"
viewBox="0 0 3412.96 2175.43"
 xmlns:xlink="http://www.w3.org/1999/xlink">
 <defs>
  <style type="text/css">
   <![CDATA[
    .str0 {stroke:#005331;stroke-width:3.31;stroke-miterlimit:22.9256}
    .fil26 {fill:#005331}
    .fil6 {fill:#FCE0BE;fill-rule:nonzero}
    .fil1 {fill:#005331;fill-opacity:0.200000}
    .fil25 {fill:#1A1A1A;fill-opacity:0.278431}
    .fil0 {fill:#005331;fill-opacity:0.301961}
    .fil2 {fill:#332C2B;fill-rule:nonzero;fill-opacity:0.501961}
    .fil24 {fill:url(#id0)}
    .fil3 {fill:url(#id1)}
    .fil18 {fill:url(#id2)}
    .fil12 {fill:url(#id3)}
    .fil14 {fill:url(#id4)}
    .fil9 {fill:url(#id5)}
    .fil13 {fill:url(#id6)}
    .fil23 {fill:url(#id7)}
    .fil15 {fill:url(#id8)}
    .fil19 {fill:url(#id9)}
    .fil8 {fill:url(#id10)}
    .fil22 {fill:url(#id11)}
    .fil10 {fill:url(#id12)}
    .fil16 {fill:url(#id13)}
    .fil21 {fill:url(#id14)}
    .fil11 {fill:url(#id15)}
    .fil17 {fill:url(#id16)}
    .fil5 {fill:url(#id17)}
    .fil20 {fill:url(#id18)}
    .fil7 {fill:url(#id19)}
    .fil4 {fill:url(#id20)}
   ]]>
  </style>
  <linearGradient id="id0" gradientUnits="userSpaceOnUse" x1="2386.47" y1="1311.46" x2="2386.47" y2="2129.61">
   <stop offset="0" style="stop-opacity:1; stop-color:#FFCB05"/>
   <stop offset="1" style="stop-opacity:1; stop-color:#B08D00"/>
  </linearGradient>
  <linearGradient id="id1" gradientUnits="userSpaceOnUse" x1="1554.33" y1="1492.24" x2="1119.71" y2="970.08">
   <stop offset="0" style="stop-opacity:1; stop-color:#005331"/>
   <stop offset="1" style="stop-opacity:1; stop-color:#003B22"/>
  </linearGradient>
  <linearGradient id="id2" gradientUnits="userSpaceOnUse" x1="1240.35" y1="1078.9" x2="1155.41" y2="967.77">
   <stop offset="0" style="stop-opacity:1; stop-color:#FAD8C9"/>
   <stop offset="1" style="stop-opacity:1; stop-color:#F29F81"/>
  </linearGradient>
  <linearGradient id="id3" gradientUnits="userSpaceOnUse" x1="1688.57" y1="605.19" x2="1352.46" y2="631.25">
   <stop offset="0" style="stop-opacity:1; stop-color:#4D4D4D"/>
   <stop offset="1" style="stop-opacity:1; stop-color:#1A1A1A"/>
  </linearGradient>
  <linearGradient id="id4" gradientUnits="userSpaceOnUse" x1="1413.37" y1="1343.65" x2="1857.53" y2="886.59">
   <stop offset="0" style="stop-opacity:1; stop-color:#C7C7C7"/>
   <stop offset="1" style="stop-opacity:1; stop-color:#FCFCFC"/>
  </linearGradient>
  <linearGradient id="id5" gradientUnits="userSpaceOnUse" x1="1453.38" y1="698.1" x2="1413.38" y2="678.87">
   <stop offset="0" style="stop-opacity:1; stop-color:#E5C094"/>
   <stop offset="1" style="stop-opacity:1; stop-color:#EE9962"/>
  </linearGradient>
  <linearGradient id="id6" gradientUnits="userSpaceOnUse" xlink:href="#id2" x1="1559.01" y1="668.71" x2="1503.02" y2="639.22">
  </linearGradient>
  <linearGradient id="id7" gradientUnits="userSpaceOnUse" xlink:href="#id1" x1="697.93" y1="1548.63" x2="1304.37" y2="1582.23">
  </linearGradient>
  <linearGradient id="id8" gradientUnits="userSpaceOnUse" xlink:href="#id2" x1="1307.51" y1="955.3" x2="1338.56" y2="1307.27">
  </linearGradient>
  <linearGradient id="id9" gradientUnits="userSpaceOnUse" xlink:href="#id2" x1="1497.3" y1="946.19" x2="1526.91" y2="1346.77">
  </linearGradient>
  <linearGradient id="id10" gradientUnits="userSpaceOnUse" xlink:href="#id1" x1="1106.62" y1="1395.14" x2="1179.34" y2="808.65">
  </linearGradient>
  <linearGradient id="id11" gradientUnits="userSpaceOnUse" x1="552.26" y1="1340.72" x2="495.6" y2="1660.14">
   <stop offset="0" style="stop-opacity:1; stop-color:#4F4F4F"/>
   <stop offset="1" style="stop-opacity:1; stop-color:#262626"/>
  </linearGradient>
  <linearGradient id="id12" gradientUnits="userSpaceOnUse" xlink:href="#id2" x1="1667.95" y1="771.64" x2="1532.68" y2="707.9">
  </linearGradient>
  <linearGradient id="id13" gradientUnits="userSpaceOnUse" xlink:href="#id4" x1="1023.06" y1="954.58" x2="1261.73" y2="936.54">
  </linearGradient>
  <linearGradient id="id14" gradientUnits="userSpaceOnUse" xlink:href="#id2" x1="465.96" y1="1511.7" x2="756.85" y2="1527.84">
  </linearGradient>
  <linearGradient id="id15" gradientUnits="userSpaceOnUse" xlink:href="#id2" x1="1644.5" y1="676.18" x2="1394.96" y2="563.13">
  </linearGradient>
  <linearGradient id="id16" gradientUnits="userSpaceOnUse" x1="1038.88" y1="945" x2="1228.31" y2="930.67">
   <stop offset="0" style="stop-opacity:1; stop-color:#FAF8FB"/>
   <stop offset="0.0509804" style="stop-opacity:1; stop-color:#FAF8FB"/>
   <stop offset="1" style="stop-opacity:1; stop-color:#95C2E8"/>
  </linearGradient>
  <linearGradient id="id17" gradientUnits="userSpaceOnUse" xlink:href="#id2" x1="951.07" y1="1608.81" x2="985.43" y2="1324.21">
  </linearGradient>
  <linearGradient id="id18" gradientUnits="userSpaceOnUse" xlink:href="#id4" x1="1630.63" y1="1148.78" x2="1385.53" y2="919.51">
  </linearGradient>
  <linearGradient id="id19" gradientUnits="userSpaceOnUse" x1="773.75" y1="1522.8" x2="1139.56" y2="1569.1">
   <stop offset="0" style="stop-opacity:1; stop-color:#2C357E"/>
   <stop offset="1" style="stop-opacity:1; stop-color:#222A44"/>
  </linearGradient>
  <linearGradient id="id20" gradientUnits="userSpaceOnUse" xlink:href="#id1" x1="1859.59" y1="1444.67" x2="1210.24" y2="1610.4">
  </linearGradient>
 </defs>
 <g id="Layer_x0020_1">
  <metadata id="CorelCorpID_0Corel-Layer"/>
  <g id="_2884328601552">
   <g>
    <path class="fil0" d="M1304.13 1764.04c-969.32,259.72 -1391.91,-1140.79 -354.42,-1524.59 415.17,-153.58 655.43,298.77 1090.64,102.67 2569.28,-1157.61 1004.41,955.52 -736.22,1421.92z"/>
    <path class="fil1" d="M2607.91 146.28c-2004.25,389.64 -1930.81,737.12 -1751.33,1162.01 1046.22,2476.73 3955.76,-1590.57 1751.33,-1162.01z"/>
    <path class="fil1" d="M1778.66 506.58c-1144.96,71.67 -2073.51,-525.31 -1691.34,296.91 1534.87,3302.26 3483.74,-409.11 1691.34,-296.91z"/>
   </g>
   <g>
    <path class="fil2" d="M2757.33 1651.85c0,43.66 -537.52,79.04 -1200.56,79.04 -663.05,0 -1200.56,-35.38 -1200.56,-79.04 0,-43.66 537.52,-79.05 1200.56,-79.05 663.05,0 1200.56,35.4 1200.56,79.05z"/>
    <path class="fil3" d="M1225.27 911.14c86.02,60.72 158.59,140.2 227.46,219.24 34.21,39.27 136.96,201.83 168.28,243.52 59.3,78.93 31.55,77.68 -74.5,134.3 -13.41,7.16 -28.09,11.59 -43.22,13.14 -178.05,18.11 -260.27,-215.22 -313.77,-340.68 -23.22,-54.48 -48.34,-121.82 -68.11,-177.66 15.41,-99.55 103.84,-91.85 103.84,-91.85z"/>
    <path class="fil4" d="M1176.1 1510.62c91.38,-52.33 194.07,-84.55 294.81,-113.59 50.03,-14.43 240.78,-38.91 291.79,-49.7 96.6,-20.43 83.73,4.21 90.27,124.24 0.81,15.18 -1.35,30.37 -6.35,44.73 -58.78,169.02 -305,145.02 -441.32,140.53 -59.19,-1.96 -130.84,-7.62 -189.79,-13.29 -83.72,-56 -39.42,-132.92 -39.42,-132.92z"/>
    <path class="fil5" d="M1140.69 1548.7c0.12,-8.79 -2.4,-17.95 -4.26,-26.76 -0.54,-2.51 -4.15,-26.74 -3.87,-29.39 4.02,-38.35 25.96,-142.72 25.96,-142.72l-105.16 -16.55c0,0 1.9,93.39 -20.64,144.88l0.13 0.03c-50.31,19.14 -138.43,41.74 -138.43,41.74 0,0 -96.21,1.75 -101.46,3.18 -5.24,1.42 -17.96,3 -33.77,13.87 0,0 -14.48,22.71 100.3,58.15 0,0 49.15,18.54 132.42,17.49 17.85,1 35.71,2.01 53.56,3.02 18.35,1.02 72.98,7.12 80.83,2.91 3.03,-1.64 5.19,-3.43 6.73,-5.41 11.93,-15.2 7.35,-46.15 7.66,-64.44z"/>
    <path class="fil6" d="M1099.77 1429.03c1.29,6.02 2.3,12.08 3.11,18.18 2.86,-5.4 5.64,-10.87 8.35,-16.36l-11.46 -1.82z"/>
    <path class="fil7" d="M1136.43 1521.93c-0.32,-1.44 -1.66,-10.18 -2.67,-17.78 -4.34,1.59 -8.62,3.08 -12.78,4.47 -48.16,16.06 -96.4,6.75 -142.91,-10.35l-2.49 -1.06c-41.37,12.49 -81.16,22.7 -81.16,22.7 0,0 -96.21,1.76 -101.46,3.19 -5.24,1.42 -17.96,3 -33.77,13.87 0,0 -14.48,22.71 100.3,58.15 0,0 49.15,18.54 132.42,17.49 17.85,1 35.71,2.01 53.56,3.02 18.35,1.02 72.98,7.12 80.83,2.91 3.03,-1.64 5.19,-3.43 6.73,-5.41 11.93,-15.2 7.35,-46.15 7.66,-64.44 0.12,-8.79 -2.4,-17.95 -4.26,-26.76z"/>
    <path class="fil8" d="M1170.75 910.38l-0.86 -0.03c-47.79,-1.45 -88.41,34.61 -92.96,82.21 -11.17,116.46 -26.95,288.93 -35.89,387.3l108.34 20.53c31.05,-97.12 56.23,-196.95 72.52,-297.76 7.1,-43.79 14.41,-115.94 16.09,-160.26 0.3,-8.19 -13.14,-22.27 -12.71,-31.24 -22.09,-3.15 -30.64,-0.03 -54.52,-0.76z"/>
    <polygon class="fil9" points="1428.9,646.6 1448.96,707.31 1413.96,718.88 "/>
    <path class="fil10" d="M1534.95 704.78c1.12,19.8 5.99,136.39 5.99,136.39 12.96,12.63 71.24,13.15 94.12,-9.36 18.21,-17.92 19.14,-32.85 19.14,-32.85l-19.97 -169.29 -99.29 75.11z"/>
    <path class="fil11" d="M1615.93 501.61l10.95 60.06 16.68 91.63 4.7 25.77c-51.33,104.61 -148.04,122.57 -182.19,91.52 -34.14,-31.05 -62.8,-220.96 -62.8,-220.96l212.67 -48.01z"/>
    <path class="fil12" d="M1609.43 768.86c0,0 -86.17,-151.24 -110.26,-162.54 -24.09,-11.31 -100.02,12.94 -145.85,-45.53 -45.24,-57.69 -23.06,-91.17 -7.2,-95.4 15.82,-4.23 50.39,53.13 101,13.58 51.5,-40.26 162.12,-48.63 182.37,-6.73 0,0 69.76,1.81 61.82,97.34 -7.93,95.54 -28.04,176.85 -50.6,185.62l-31.29 13.67z"/>
    <path class="fil13" d="M1551.41 601.61c25.3,17.35 28.43,72.77 -15.3,106.76l-25.71 -89.4c1.39,-14.2 24.38,-28.78 41.01,-17.36z"/>
    <path class="fil14" d="M1646.81 802.99c-65.77,7.73 -169.18,27.02 -188.24,102.87 -10.17,40.41 -8.75,83.62 -1.48,124.4 5.69,31.99 10.92,64.07 14.71,96.37 6.38,54.6 14.03,116.06 -0.93,169.92l-61.64 112.94c0,0 299.31,132.07 447.73,-42.84 0,0 -9.42,-435.58 -78.99,-537.6 -8.46,-12.41 -29.69,-17.95 -42.98,-21.24 -29.38,-7.27 -58.95,-8.27 -88.18,-4.83z"/>
    <path class="fil15" d="M1106.13 968.35c0,0 7.09,56.33 40.1,94.08 33.01,37.78 70.71,52.74 101.65,92.63 24.32,31.36 266.32,263.49 290.94,178.88 3.23,-11.09 -0.76,-22.89 -5.15,-33.58 -41.07,-100.05 -141.09,-142.39 -228.52,-195.03l-33.17 -22.19c0,0 -14.4,-57.01 -49.4,-88.43l-116.44 -26.36z"/>
    <path class="fil16" d="M1095.18 828.16l-72.73 82.29c-5.08,5.76 -4.59,14.5 1.08,19.65l147.76 133.78c5.73,5.19 14.57,4.77 19.76,-0.96l71.36 -78.61c5.14,-5.64 4.79,-14.38 -0.78,-19.61l-146.37 -137.47c-5.75,-5.42 -14.85,-4.99 -20.08,0.93z"/>
    <polygon class="fil17" points="1036.95,919.5 1162.97,1033.99 1230.5,959.59 1105.86,841.53 "/>
    <path class="fil18" d="M1181.17 1063.56c0,0 11.05,-6.69 6.5,-27.67 -4.54,-20.98 -14.18,-70.47 -14.18,-70.47 0,0 0.15,-17.68 7.15,-13.8 7.01,3.9 22.13,14.84 27.99,45.55 0,0 6.09,26.41 12.88,33.19 6.8,6.77 24.57,25.21 27.77,54.4 0,0 -49.81,16.8 -68.1,-21.2z"/>
    <path class="fil19" d="M1549.2 1332.69c10.17,-13.58 11.67,-32.83 12.34,-53.15 1.67,-49.44 4.09,-98.78 6.28,-148.16 0.98,-21.99 1.94,-44.01 2.69,-66.01 1.49,-44.95 4.54,-110.99 -54.29,-121.75 -13.4,-2.45 -30.75,7.44 -39.1,16.6 -6.27,6.87 -10.12,16.43 -12.51,27.2 -5.07,22.86 -3.57,51.19 -4.68,71.03 -2.26,40.76 -3.8,81.63 -4.08,122.59 -0.18,26.32 -0.03,52.68 1.39,79.08 1.16,21.73 0.43,49.18 10.41,69.5 10.65,21.7 36.9,24.96 56.4,19.39 11.71,-3.33 19.68,-9.01 25.15,-16.32z"/>
    <path class="fil20" d="M1595.87 1154.04c-8.1,-61 0.46,-280.18 -86.92,-289.12 -96.65,-9.9 -77.92,291.75 -77.92,291.75l164.84 -2.63z"/>
    <path class="fil21" d="M549.94 1658.9c8.69,-1.35 17.29,-5.4 25.64,-8.73 2.38,-0.95 25.66,-8.63 28.3,-8.81 38.49,-2.56 145.06,1.31 145.06,1.31l-1.57 -106.44c0,0 -91.71,17.76 -146.29,4.29l0 0.13c-27.44,-46.32 -87,-109.46 -87,-109.46 0,0 -20.19,-51.52 -22.49,-56.45 -2.3,-4.92 14.21,-16.94 0.81,-30.67 0,0 -2.6,-71.27 -18,47.86 0,0 -27.97,49.4 -12.78,131.26 2.05,17.77 4.1,35.53 6.16,53.3 2.09,18.23 5.37,73.12 10.86,80.13 2.14,2.72 4.27,4.54 6.49,5.73 17.02,9.16 46.71,-0.61 64.8,-3.43z"/>
    <path class="fil22" d="M575.09 1650.38c-5,-26.86 -4.13,-56.01 -1.76,-80.12 1.69,-17.24 6.21,-36.62 14.35,-53.57 -24.75,-46.29 -51.26,-105.36 -51.26,-105.36 0,0 -18.8,-67.68 -21.1,-72.61 -2.29,-4.93 -6.02,-17.18 -19.42,-30.92 0,0 -24.14,-37.22 -39.54,81.91 0,0 -9.92,51.61 5.27,133.47 2.05,17.77 4.1,35.53 6.14,53.3 2.11,18.23 5.39,73.12 10.88,80.13 2.14,2.72 4.27,4.54 6.49,5.73 17.02,9.16 46.71,-0.61 64.8,-3.43 8.51,-1.33 16.93,-5.24 25.15,-8.53z"/>
    <path class="fil23" d="M697.55 1642.26c125.45,17.48 400.92,41.43 556.52,-11.73 24.45,-8.36 50.69,-33.22 53.44,-60.12 2.1,-20.8 -6.53,-51.29 -24.42,-63.86 -14.78,-10.38 -63.82,-13.85 -80.9,-13.08 -48.34,2.19 -356.99,26.8 -502.82,38.53l-1.82 110.26z"/>
    <g>
     <path class="fil24" d="M2988.01 605.06l-1203.07 0c-37.96,0 -68.73,30.77 -68.73,68.71l0 887.7c0,37.99 30.77,68.77 68.73,68.77l1203.07 0c37.94,0 68.74,-30.78 68.74,-68.77l0 -887.7c0,-37.94 -30.79,-68.71 -68.74,-68.71z"/>
     <g>
      <path class="fil25" d="M1918.41 847.44l936.13 0c13.18,0 23.96,10.78 23.96,23.96l0 90.03c0,13.18 -10.78,23.96 -23.96,23.96l-936.13 0c-13.18,0 -23.96,-10.78 -23.96,-23.96l0 -90.03c0,-13.18 10.78,-23.96 23.96,-23.96z"/>
      <path class="fil25" d="M1918.41 1048.67l936.13 0c13.18,0 23.96,10.78 23.96,23.96l0 90.03c0,13.18 -10.78,23.96 -23.96,23.96l-936.13 0c-13.18,0 -23.96,-10.78 -23.96,-23.96l0 -90.03c0,-13.18 10.78,-23.96 23.96,-23.96z"/>
      <rect class="fil26 str0" x="2145.18" y="1249.9" width="482.59" height="137.95" rx="13.82" ry="23.97"/>
     </g>
    </g>
   </g>
  </g>
 </g>
</svg>
