<?xml version="1.0" encoding="UTF-8"?>
<!DOCTYPE svg PUBLIC "-//W3C//DTD SVG 1.1//EN" "http://www.w3.org/Graphics/SVG/1.1/DTD/svg11.dtd">
<!-- Creator: CorelDRAW 2019 (64-Bit) -->
<svg xmlns="http://www.w3.org/2000/svg" xml:space="preserve" width="68.4389mm" height="68.4389mm" version="1.1" style="shape-rendering:geometricPrecision; text-rendering:geometricPrecision; image-rendering:optimizeQuality; fill-rule:evenodd; clip-rule:evenodd"
viewBox="0 0 1667.97 1667.97"
 xmlns:xlink="http://www.w3.org/1999/xlink">
 <defs>
  <style type="text/css">
   <![CDATA[
    .fil0 {fill:none}
    .fil7 {fill:#3B4148;fill-rule:nonzero}
    .fil1 {fill:#62697B;fill-rule:nonzero}
    .fil5 {fill:#D57A4A;fill-rule:nonzero}
    .fil6 {fill:#E8E8E7;fill-rule:nonzero}
    .fil4 {fill:#E9EAEA;fill-rule:nonzero}
    .fil2 {fill:#EA8852;fill-rule:nonzero}
    .fil3 {fill:#FEFEFE;fill-rule:nonzero}
   ]]>
  </style>
 </defs>
 <g id="Layer_x0020_1">
  <metadata id="CorelCorpID_0Corel-Layer"/>
  <g id="_2705230509920">
   <rect class="fil0" x="-0" y="-0" width="1667.97" height="1667.97"/>
   <g>
    <path class="fil1" d="M868.4 156.56c-12.72,-1.01 -25.66,-1.71 -38.47,-2.03l0.24 -9.69c12.99,0.34 26.11,1.03 39,2.06l-0.77 9.65zm-115.48 0.18l-0.8 -9.65c12.9,-1.07 26.03,-1.81 39,-2.16l0.28 9.67c-12.8,0.38 -25.74,1.09 -38.47,2.14zm191.8 10.17c-12.56,-2.4 -25.35,-4.51 -38.02,-6.21l1.3 -9.61c12.85,1.75 25.81,3.87 38.54,6.33l-1.82 9.49zm-268.08 0.46l-1.86 -9.51c12.72,-2.48 25.68,-4.65 38.52,-6.43l1.34 9.57c-12.67,1.77 -25.45,3.91 -38,6.37zm342.79 18.27c-12.22,-3.79 -24.69,-7.29 -37.1,-10.38l2.35 -9.39c12.57,3.14 25.23,6.69 37.61,10.54l-2.87 9.23zm-417.44 0.69l-2.9 -9.23c12.37,-3.89 25.02,-7.49 37.58,-10.66l2.38 9.37c-12.39,3.16 -24.86,6.69 -37.06,10.52zm489.76 26.25c-11.73,-5.12 -23.77,-10.01 -35.78,-14.48l3.38 -9.07c12.18,4.55 24.38,9.47 36.28,14.69l-3.88 8.86zm-561.78 0.85l-3.9 -8.86c11.83,-5.22 23.97,-10.18 36.09,-14.73l3.41 9.05c-11.95,4.49 -23.93,9.37 -35.6,14.54zm630.62 33.91c-11.1,-6.39 -22.52,-12.57 -33.94,-18.33l4.36 -8.64c11.58,5.84 23.16,12.09 34.41,18.59l-4.84 8.38zm-699.18 0.95l-4.85 -8.38c11.2,-6.49 22.73,-12.77 34.27,-18.64l4.39 8.64c-11.39,5.78 -22.76,11.97 -33.81,18.39zm763.75 41.18c-10.31,-7.56 -20.98,-14.95 -31.7,-21.94l5.29 -8.12c10.87,7.09 21.68,14.59 32.14,22.26l-5.73 7.8zm-828.09 1.03l-5.75 -7.78c10.43,-7.68 21.21,-15.19 32.03,-22.3l5.32 8.08c-10.68,7.01 -21.31,14.42 -31.6,22zm887.62 47.91c-9.42,-8.66 -19.2,-17.16 -29.09,-25.3l6.15 -7.47c10.02,8.24 19.94,16.86 29.49,25.63l-6.55 7.13zm-946.99 1.13l-6.56 -7.11c9.53,-8.8 19.42,-17.43 29.41,-25.67l6.16 7.45c-9.86,8.14 -19.62,16.68 -29.02,25.34zm1000.79 53.99c-8.41,-9.63 -17.21,-19.14 -26.14,-28.3l6.93 -6.77c9.05,9.29 17.97,18.94 26.5,28.69l-7.29 6.38zm-1054.46 1.29l-7.3 -6.35c8.5,-9.79 17.41,-19.46 26.44,-28.77l6.95 6.75c-8.91,9.17 -17.69,18.72 -26.08,28.37zm1101.89 59.37c-7.31,-10.47 -15.01,-20.89 -22.89,-30.98l7.62 -5.96c8,10.21 15.81,20.79 23.19,31.4l-7.92 5.53zm-1149.22 1.46l-7.95 -5.52c7.39,-10.66 15.17,-21.26 23.15,-31.49l7.64 5.94c-7.86,10.1 -15.54,20.55 -22.83,31.07zm1189.68 64c-6.11,-11.21 -12.61,-22.41 -19.34,-33.28l8.24 -5.09c6.81,11.03 13.4,22.38 19.6,33.74l-8.5 4.63zm-1230.06 1.69l-8.51 -4.61c6.18,-11.41 12.75,-22.81 19.55,-33.86l8.24 5.07c-6.7,10.91 -13.19,22.15 -19.28,33.4zm1263.04 67.77c-4.83,-11.81 -10.05,-23.65 -15.53,-35.18l8.74 -4.15c5.56,11.7 10.86,23.7 15.77,35.67l-8.98 3.67zm-1295.93 2.01l-8.96 -3.63c4.87,-12.02 10.15,-24.08 15.69,-35.84l8.76 4.12c-5.46,11.6 -10.67,23.49 -15.49,35.35zm1321.08 70.79c-3.49,-12.3 -7.38,-24.66 -11.55,-36.75l9.13 -3.16c4.25,12.26 8.18,24.8 11.73,37.26l-9.31 2.65zm-1346.02 2.15l-9.31 -2.62c3.5,-12.48 7.41,-25.03 11.6,-37.3l9.16 3.13c-4.14,12.11 -7.98,24.48 -11.45,36.78zm1362.96 72.98c-2.13,-12.62 -4.63,-25.34 -7.43,-37.8l9.43 -2.13c2.86,12.64 5.38,25.53 7.52,38.33l-9.53 1.6zm-1379.65 2.21l-9.55 -1.57c2.1,-12.8 4.59,-25.7 7.4,-38.36l9.45 2.1c-2.76,12.48 -5.23,25.21 -7.3,37.82zm1388.18 74.33c-0.71,-12.78 -1.81,-25.7 -3.22,-38.39l9.61 -1.07c1.43,12.87 2.54,25.96 3.26,38.91l-9.65 0.55zm-1396.48 2.24l-9.66 -0.51c0.68,-12.96 1.74,-26.06 3.14,-38.93l9.62 1.04c-1.38,12.69 -2.41,25.61 -3.09,38.4zm1406.23 76.8l-9.67 -0.52c0.69,-12.74 1.05,-25.7 1.05,-38.51l-0.02 -1.49 9.69 -0.02 0 1.51c0,12.99 -0.36,26.12 -1.05,39.03zm-1415.81 0.78c-0.72,-12.93 -1.08,-26.06 -1.1,-39.05l9.68 -0c0.01,12.81 0.37,25.77 1.08,38.52l-9.66 0.54zm1407.31 76.85l-9.55 -1.58c2.08,-12.61 3.85,-25.44 5.24,-38.16l9.63 1.05c-1.43,12.89 -3.2,25.91 -5.32,38.69zm-1398.74 0.76c-2.13,-12.77 -3.93,-25.79 -5.35,-38.69l9.62 -1.07c1.41,12.73 3.19,25.57 5.28,38.17l-9.55 1.59zm1381.74 75.46l-9.33 -2.63c3.48,-12.31 6.65,-24.88 9.43,-37.35l9.45 2.1c-2.82,12.65 -6.03,25.4 -9.55,37.88zm-1364.66 0.74c-3.54,-12.48 -6.77,-25.21 -9.6,-37.87l9.44 -2.12c2.8,12.47 5.99,25.04 9.47,37.34l-9.31 2.64zm1339.28 73.2l-8.98 -3.64c4.85,-11.89 9.39,-24.05 13.54,-36.16l9.15 3.14c-4.21,12.27 -8.82,24.61 -13.72,36.65zm-1313.86 0.64c-4.89,-12 -9.51,-24.3 -13.73,-36.56l9.15 -3.15c4.16,12.09 8.72,24.23 13.55,36.07l-8.97 3.65zm1280.44 70.07l-8.52 -4.61c6.11,-11.26 11.97,-22.84 17.45,-34.41l8.76 4.14c-5.56,11.73 -11.5,23.47 -17.69,34.89zm-1247.06 0.39c-6.19,-11.38 -12.13,-23.08 -17.67,-34.77l8.75 -4.14c5.47,11.53 11.33,23.07 17.43,34.3l-8.5 4.62zm1206.06 66.16l-7.94 -5.52c7.29,-10.52 14.39,-21.38 21.11,-32.26l8.24 5.08c-6.79,11.04 -14,22.04 -21.4,32.7zm-1165.11 0.25c-7.39,-10.63 -14.59,-21.62 -21.39,-32.64l8.24 -5.09c6.7,10.88 13.8,21.71 21.1,32.2l-7.95 5.53zm1117.06 61.37l-7.29 -6.36c8.4,-9.65 16.66,-19.66 24.52,-29.74l7.65 5.95c-7.98,10.23 -16.34,20.37 -24.88,30.15zm-1069.04 0.17c-8.52,-9.77 -16.89,-19.9 -24.85,-30.12l7.63 -5.95c7.86,10.07 16.11,20.07 24.52,29.7l-7.3 6.37zm1014.58 55.8l-6.55 -7.12c9.41,-8.67 18.71,-17.7 27.61,-26.86l6.94 6.75c-9.04,9.28 -18.46,18.44 -28,27.24zm-960.1 0.14c-9.54,-8.77 -18.96,-17.93 -28.01,-27.23l6.93 -6.75c8.93,9.17 18.23,18.21 27.63,26.86l-6.55 7.12zm899.86 49.51l-5.74 -7.79c10.29,-7.57 20.51,-15.54 30.38,-23.68l6.15 7.47c-10,8.25 -20.36,16.32 -30.79,24zm-839.57 0.16c-10.45,-7.69 -20.83,-15.77 -30.83,-24.01l6.15 -7.47c9.87,8.13 20.1,16.1 30.41,23.69l-5.74 7.79zm774.28 42.57l-4.85 -8.37c11.06,-6.4 22.08,-13.19 32.77,-20.19l5.3 8.1c-10.84,7.1 -22.02,13.98 -33.23,20.47zm-708.86 0.2c-11.24,-6.49 -22.44,-13.38 -33.3,-20.49l5.3 -8.1c10.71,7.01 21.76,13.8 32.84,20.21l-4.84 8.38zm639.32 35.08l-3.89 -8.86c11.69,-5.14 23.38,-10.67 34.77,-16.45l4.38 8.63c-11.54,5.86 -23.4,11.47 -35.26,16.68zm-569.55 0.25c-11.89,-5.21 -23.79,-10.83 -35.38,-16.7l4.37 -8.64c11.44,5.79 23.18,11.33 34.9,16.48l-3.89 8.86zm496.5 27.15l-2.89 -9.24c12.2,-3.81 24.46,-8.03 36.43,-12.52l3.39 9.06c-12.13,4.56 -24.56,8.83 -36.94,12.7zm-423.21 0.25c-12.41,-3.87 -24.88,-8.13 -37.04,-12.69l3.39 -9.06c11.99,4.49 24.29,8.69 36.53,12.51l-2.88 9.24zm347.5 18.9l-1.85 -9.5c12.55,-2.44 25.2,-5.27 37.59,-8.41l2.38 9.39c-12.57,3.18 -25.4,6.04 -38.12,8.53zm-271.78 0.16c-12.73,-2.47 -25.56,-5.32 -38.12,-8.48l2.36 -9.38c12.39,3.11 25.04,5.93 37.6,8.36l-1.84 9.5zm194.43 10.51l-0.79 -9.65c12.76,-1.05 25.64,-2.46 38.29,-4.21l1.32 9.59c-12.82,1.76 -25.88,3.2 -38.82,4.27zm-117.06 0.07c-12.93,-1.05 -25.99,-2.47 -38.82,-4.22l1.31 -9.59c12.65,1.73 25.53,3.13 38.3,4.17l-0.79 9.65zm58.11 2.35c-6.33,0 -12.77,-0.09 -19.1,-0.26l0.25 -9.67c12.81,0.33 25.79,0.33 38.54,-0.02l0.27 9.67c-6.61,0.19 -13.32,0.28 -19.96,0.28z"/>
    <path class="fil2" d="M1402.04 855.94c0,2.53 -0.02,5.06 -0.06,7.59 -0.1,7.57 -0.34,15.12 -0.71,22.61 -12.03,237.59 -165.37,437.9 -377.62,518.6 -2.24,0.85 -4.48,1.68 -6.72,2.51 -6.74,2.48 -13.54,4.82 -20.4,7.04 -2.28,0.75 -4.57,1.47 -6.87,2.19 -13.78,4.29 -27.78,8.07 -41.98,11.35 -4.74,1.09 -9.49,2.13 -14.27,3.11 -11.93,2.45 -24.01,4.52 -36.2,6.23 -2.44,0.34 -4.88,0.66 -7.33,0.98 -4.9,0.62 -9.81,1.18 -14.75,1.68 -2.46,0.25 -4.93,0.49 -7.4,0.7 -4.96,0.44 -9.92,0.82 -14.9,1.14 -12.47,0.78 -25.03,1.19 -37.7,1.19 -12.66,0 -25.23,-0.41 -37.69,-1.19 -4.99,-0.32 -9.95,-0.69 -14.91,-1.14 -2.47,-0.21 -4.94,-0.45 -7.4,-0.7 -4.93,-0.5 -9.85,-1.07 -14.74,-1.68 -2.45,-0.32 -4.89,-0.64 -7.33,-0.98 -12.19,-1.71 -24.26,-3.78 -36.2,-6.23 -4.77,-0.98 -9.53,-2.01 -14.27,-3.11 -14.19,-3.27 -28.19,-7.06 -41.99,-11.35 -2.29,-0.72 -4.58,-1.45 -6.87,-2.19 -6.86,-2.23 -13.66,-4.57 -20.4,-7.04 -2.24,-0.82 -4.48,-1.66 -6.72,-2.51 -212.27,-80.7 -365.59,-281.01 -377.64,-518.6 -0.31,-6.24 -0.53,-12.51 -0.65,-18.8 -0.02,-1.26 -0.05,-2.55 -0.06,-3.81 -0.01,-0.93 -0.02,-1.85 -0.03,-2.78 -0.01,-1.6 -0.02,-3.21 -0.02,-4.81 0,-6.98 0.13,-13.92 0.37,-20.83 0.08,-2.17 0.16,-4.35 0.26,-6.51 0.05,-0.96 0.09,-1.9 0.13,-2.85 0.26,-5 0.57,-9.99 0.95,-14.96 0.19,-2.48 0.4,-4.96 0.62,-7.44 0.44,-4.95 0.94,-9.89 1.5,-14.8 0.56,-4.91 1.19,-9.8 1.87,-14.69 1.02,-7.31 2.18,-14.58 3.47,-21.81 11.42,-63.95 33.21,-124.32 63.56,-179.29 1.01,-1.83 2.02,-3.65 3.05,-5.46 12,-21.21 25.27,-41.58 39.73,-61.04 0.82,-1.1 1.64,-2.2 2.46,-3.29 13.66,-18.11 28.34,-35.42 43.96,-51.82 0.1,-0.11 0.21,-0.22 0.32,-0.33 21.01,-22.03 43.72,-42.4 67.9,-60.94 11.19,-8.58 22.7,-16.78 34.52,-24.54 11.81,-7.78 23.91,-15.13 36.29,-22.06 4.12,-2.3 8.28,-4.56 12.47,-6.77 4.19,-2.2 8.41,-4.37 12.65,-6.49 2.81,-1.39 5.63,-2.76 8.46,-4.11 5.08,-2.42 10.2,-4.76 15.36,-7.05 1.33,-0.6 2.65,-1.17 3.98,-1.75 3.71,-1.61 7.44,-3.18 11.19,-4.71 4.42,-1.81 8.86,-3.55 13.33,-5.26 2.23,-0.85 4.47,-1.69 6.72,-2.5 2.83,-1.03 5.66,-2.04 8.51,-3.04 3.95,-1.37 7.91,-2.72 11.89,-4.01 2.28,-0.73 4.57,-1.47 6.87,-2.18 4.6,-1.43 9.22,-2.8 13.86,-4.13 11.61,-3.28 23.37,-6.23 35.25,-8.82 4.75,-1.05 9.53,-2.03 14.33,-2.94 4.79,-0.91 9.6,-1.79 14.45,-2.58 7.25,-1.21 14.55,-2.26 21.91,-3.2 4.89,-0.64 9.81,-1.19 14.74,-1.69 2.46,-0.26 4.94,-0.48 7.4,-0.71 4.96,-0.44 9.92,-0.81 14.91,-1.13 12.46,-0.79 25.03,-1.19 37.69,-1.19 12.67,0 25.23,0.4 37.7,1.19 4.98,0.32 9.94,0.7 14.9,1.13 2.48,0.24 4.95,0.46 7.4,0.71 4.94,0.5 9.85,1.05 14.75,1.69 7.34,0.93 14.64,1.98 21.9,3.2 4.84,0.79 9.66,1.67 14.45,2.58 4.79,0.91 9.58,1.89 14.33,2.94 11.89,2.58 23.64,5.54 35.25,8.82 4.64,1.33 9.26,2.7 13.85,4.13 2.3,0.71 4.59,1.45 6.87,2.18 3.98,1.29 7.95,2.64 11.9,4.01 2.84,0.99 5.68,2.01 8.51,3.04 2.24,0.81 4.49,1.65 6.72,2.5 4.47,1.71 8.91,3.45 13.32,5.26 3.75,1.53 7.48,3.1 11.2,4.71 1.32,0.58 2.65,1.15 3.98,1.75 5.16,2.28 10.28,4.63 15.36,7.05 2.83,1.35 5.66,2.72 8.46,4.11 4.25,2.13 8.46,4.29 12.65,6.49 4.19,2.21 8.35,4.47 12.47,6.77 12.39,6.93 24.49,14.28 36.3,22.06 11.81,7.76 23.32,15.96 34.51,24.54 24.19,18.54 46.89,38.92 67.9,60.94 0.11,0.1 0.21,0.22 0.31,0.33 15.62,16.4 30.3,33.71 43.96,51.82 0.82,1.09 1.65,2.19 2.46,3.29 14.45,19.45 27.73,39.83 39.73,61.04 1.02,1.81 2.04,3.63 3.05,5.46 30.34,54.98 52.14,115.34 63.55,179.29 1.29,7.22 2.44,14.49 3.48,21.81 0.68,4.88 1.29,9.78 1.86,14.69 0.56,4.91 1.07,9.85 1.51,14.8 0.22,2.47 0.42,4.96 0.59,7.44 0.4,4.97 0.69,9.96 0.95,14.96 0.52,10 0.78,20.07 0.78,30.2z"/>
    <path class="fil3" d="M326.83 855.94c0,269.68 218.61,488.29 488.29,488.29 269.68,0 488.3,-218.61 488.3,-488.29 0,-269.68 -218.62,-488.3 -488.3,-488.3 -269.67,0 -488.29,218.62 -488.29,488.3z"/>
    <path class="fil2" d="M428.42 855.94c0,213.56 173.13,386.69 386.69,386.69 213.56,0 386.69,-173.13 386.69,-386.69 0,-213.56 -173.13,-386.69 -386.69,-386.69 -213.56,0 -386.69,173.13 -386.69,386.69z"/>
    <path class="fil3" d="M521.9 855.94c0,161.94 131.28,293.21 293.21,293.21 161.94,0 293.21,-131.28 293.21,-293.21 0,-161.94 -131.27,-293.21 -293.21,-293.21 -161.94,0 -293.21,131.27 -293.21,293.21z"/>
    <path class="fil2" d="M610.52 857.58c0,112.99 91.6,204.6 204.6,204.6 113,0 204.6,-91.6 204.6,-204.6 0,-112.99 -91.6,-204.6 -204.6,-204.6 -112.99,0 -204.6,91.6 -204.6,204.6z"/>
    <path class="fil3" d="M716.89 851.13c0,54.25 43.98,98.23 98.23,98.23 54.25,0 98.23,-43.98 98.23,-98.23 0,-54.25 -43.98,-98.22 -98.23,-98.22 -54.25,0 -98.23,43.97 -98.23,98.22z"/>
    <path class="fil4" d="M901.96 1043.42l-0.43 -0.33c62.03,-28.95 107.15,-88.11 116.42,-158.55l0.07 0.05c-9.11,70.5 -54.1,129.74 -116.05,158.83z"/>
    <path class="fil5" d="M901.53 1043.09l-146.27 -113.48 0.02 -0.04c16.56,12.75 37.31,20.33 59.83,20.33 54.25,0 98.23,-43.97 98.23,-98.23 0,-0.13 0,-0.27 0,-0.4 0,-0.04 0,-0.09 0,-0.13 0,-28.9 -12.49,-54.9 -32.37,-72.87l136.98 106.28c-9.27,70.44 -54.39,129.59 -116.42,158.55z"/>
    <path class="fil4" d="M913.34 851.27c-0.13,-31.22 -14.82,-59 -37.63,-76.91l0.09 -0.11 5.17 4.02c19.88,17.97 32.37,43.97 32.37,72.87 0,0.05 0,0.09 0,0.13z"/>
    <path class="fil4" d="M835.12 1242.69l-0.68 -0.53c204.59,-10.07 367.37,-179.13 367.37,-386.22 0,-26.18 -2.6,-51.74 -7.56,-76.46l0.5 0.4c4.98,24.76 7.59,50.37 7.59,76.6 0,207.03 -162.71,376.07 -367.23,386.21z"/>
    <path class="fil5" d="M834.43 1242.16l-195.92 -152.01c49.21,37.37 110.59,59.54 177.15,59.54 161.93,0 293.2,-131.27 293.2,-293.21 0,-80.61 -32.53,-153.64 -85.19,-206.64 -5.43,-5.49 -11.08,-10.78 -16.93,-15.83l187.51 145.48c4.96,24.72 7.56,50.28 7.56,76.46 0,207.09 -162.79,376.15 -367.37,386.22z"/>
    <path class="fil4" d="M1023.67 649.84c-5.75,-5.78 -11.73,-11.33 -17.94,-16.62l1.01 0.79c5.84,5.05 11.5,10.34 16.93,15.83z"/>
    <path class="fil6" d="M815.11 1442.86c-12.66,0 -25.23,-0.41 -37.69,-1.19 -1.75,-0.11 -3.5,-0.23 -5.24,-0.36 1.75,0.12 3.49,0.24 5.24,0.36 12.46,0.78 25.03,1.19 37.69,1.19 12.67,0 25.23,-0.41 37.7,-1.19 4.98,-0.32 9.94,-0.69 14.9,-1.14 2.48,-0.21 4.94,-0.45 7.4,-0.7 4.94,-0.5 9.85,-1.07 14.75,-1.68 2.45,-0.32 4.89,-0.64 7.33,-0.98 12.19,-1.71 24.26,-3.78 36.2,-6.23 4.78,-0.98 9.53,-2.01 14.27,-3.11 14.2,-3.27 28.2,-7.06 41.98,-11.35 2.3,-0.72 4.59,-1.45 6.87,-2.19 6.86,-2.23 13.66,-4.57 20.4,-7.04 2.24,-0.82 4.49,-1.66 6.72,-2.51 212.26,-80.7 365.59,-281.01 377.62,-518.6 0.38,-7.49 0.62,-15.04 0.71,-22.61 0.04,-2.52 0.06,-5.05 0.06,-7.59l0 0c0,2.53 -0.02,5.06 -0.06,7.59 -0.1,7.57 -0.34,15.12 -0.71,22.61 -12.03,237.59 -165.37,437.9 -377.62,518.6 -2.24,0.85 -4.48,1.68 -6.72,2.51 -6.74,2.48 -13.54,4.82 -20.4,7.04 -2.28,0.75 -4.57,1.47 -6.87,2.19 -13.78,4.29 -27.78,8.07 -41.98,11.35 -4.74,1.09 -9.49,2.13 -14.27,3.11 -11.93,2.45 -24.01,4.52 -36.2,6.23 -2.44,0.34 -4.88,0.66 -7.33,0.98 -4.9,0.62 -9.81,1.18 -14.75,1.68 -2.46,0.25 -4.93,0.49 -7.4,0.7 -4.96,0.44 -9.92,0.82 -14.9,1.14 -12.47,0.78 -25.03,1.19 -37.7,1.19zm577.76 -690.82c-0.02,-0.11 -0.04,-0.22 -0.06,-0.33 0.02,0.11 0.04,0.22 0.06,0.33z"/>
    <path class="fil5" d="M815.11 1442.86c-12.66,0 -25.23,-0.41 -37.69,-1.19 -1.75,-0.11 -3.49,-0.23 -5.24,-0.36 -0.14,-0.01 -0.28,-0.02 -0.42,-0.03l-266.86 -207.04 0.56 -0.73c84.27,69.19 192.11,110.72 309.64,110.72 169.34,0 318.54,-86.2 406.13,-217.11 51.9,-77.57 82.17,-170.84 82.17,-271.18 0,-111.52 -37.39,-214.31 -100.31,-296.51 -0,-0.01 -0.02,-0.03 -0.03,-0.04 -0.06,-0.09 -0.13,-0.17 -0.19,-0.24 -0.02,-0.02 -0.04,-0.05 -0.06,-0.08 -0.05,-0.07 -0.12,-0.16 -0.18,-0.23 -0.03,-0.04 -0.04,-0.04 -0.07,-0.08 -0.06,-0.08 -0.11,-0.15 -0.17,-0.23 -0.01,-0.01 -0.02,-0.02 -0.02,-0.03 -0.14,-0.17 -0.28,-0.35 -0.41,-0.53 -0.01,-0.01 -0.01,-0.01 -0.02,-0.03 -0.05,-0.06 -0.11,-0.15 -0.16,-0.21 -0.03,-0.04 -0.05,-0.07 -0.08,-0.1 -0.05,-0.06 -0.1,-0.13 -0.15,-0.2 -0.04,-0.05 -0.06,-0.08 -0.1,-0.12 -0.05,-0.07 -0.09,-0.12 -0.14,-0.19 -0.04,-0.05 -0.06,-0.09 -0.11,-0.14 -0.04,-0.06 -0.09,-0.11 -0.13,-0.17 -0.05,-0.07 -0.09,-0.11 -0.15,-0.19 -0.05,-0.07 -0.11,-0.15 -0.17,-0.22 -0.04,-0.06 -0.12,-0.15 -0.16,-0.21 -0.04,-0.05 -0.08,-0.09 -0.11,-0.14 -0.05,-0.06 -0.09,-0.12 -0.14,-0.18 -0.04,-0.05 -0.07,-0.09 -0.11,-0.14 -0.06,-0.07 -0.09,-0.12 -0.15,-0.19 -0.03,-0.04 -0.07,-0.09 -0.1,-0.13 -0.06,-0.08 -0.11,-0.14 -0.16,-0.21 -0.03,-0.04 -0.06,-0.07 -0.09,-0.11 -0.08,-0.09 -0.16,-0.2 -0.23,-0.3 -0,-0.01 -0.01,-0.01 -0.02,-0.02 -0.08,-0.1 -0.17,-0.22 -0.26,-0.33 -0.02,-0.02 -0.03,-0.05 -0.05,-0.07 -0.07,-0.09 -0.14,-0.18 -0.21,-0.27 -0.02,-0.02 -0.04,-0.05 -0.06,-0.07 -0.06,-0.09 -0.14,-0.18 -0.2,-0.26 -0.02,-0.02 -0.04,-0.05 -0.06,-0.07 -0.08,-0.11 -0.15,-0.19 -0.23,-0.3 -0.01,-0 -0.02,-0.02 -0.02,-0.03 -0.18,-0.23 -0.36,-0.45 -0.54,-0.68l0 0c-0.1,-0.12 -0.17,-0.22 -0.26,-0.34 -0.01,-0.01 -0.01,-0.01 -0.02,-0.02 -0.09,-0.11 -0.16,-0.21 -0.25,-0.31 -0.01,-0.01 -0.01,-0.02 -0.02,-0.02 -27,-33.91 -58.41,-64.14 -93.38,-89.83l0.27 -0.35 267.56 207.6c8.93,26.63 16,54.11 21.04,82.29 0.02,0.11 0.04,0.22 0.06,0.33l0 0c1.29,7.22 2.44,14.49 3.48,21.81 0.68,4.88 1.29,9.78 1.86,14.69 0.56,4.91 1.07,9.85 1.51,14.8 0.22,2.47 0.42,4.96 0.59,7.44 0.4,4.97 0.69,9.96 0.95,14.96 0.52,10 0.78,20.07 0.78,30.2 0,2.53 -0.02,5.06 -0.06,7.59 -0.1,7.57 -0.34,15.12 -0.71,22.61 -12.03,237.59 -165.37,437.9 -377.62,518.6 -2.24,0.85 -4.48,1.68 -6.72,2.51 -6.74,2.48 -13.54,4.82 -20.4,7.04 -2.28,0.75 -4.57,1.47 -6.87,2.19 -13.78,4.29 -27.78,8.07 -41.98,11.35 -4.74,1.09 -9.49,2.13 -14.27,3.11 -11.93,2.45 -24.01,4.52 -36.2,6.23 -2.44,0.34 -4.88,0.66 -7.33,0.98 -4.9,0.62 -9.81,1.18 -14.75,1.68 -2.46,0.25 -4.93,0.49 -7.4,0.7 -4.96,0.44 -9.92,0.82 -14.9,1.14 -12.47,0.78 -25.03,1.19 -37.7,1.19z"/>
    <path class="fil4" d="M815.11 1344.23c-117.54,0 -225.37,-41.53 -309.64,-110.72l0.01 -0c84.26,69.19 192.11,110.72 309.64,110.72 169.34,0 318.54,-86.2 406.13,-217.11 -87.59,130.91 -236.79,217.11 -406.13,217.11zm387.99 -784.8c-0.01,-0.01 -0.02,-0.02 -0.03,-0.04 0.01,0.01 0.02,0.03 0.03,0.04zm-0.22 -0.28c-0.02,-0.03 -0.03,-0.05 -0.06,-0.08 0.02,0.02 0.04,0.05 0.06,0.08zm-0.23 -0.3c-0.02,-0.03 -0.04,-0.05 -0.07,-0.08 0.03,0.04 0.04,0.04 0.07,0.08zm-0.24 -0.31c-0,-0.01 -0.02,-0.02 -0.02,-0.03 0,0.01 0.01,0.02 0.02,0.03zm-0.43 -0.56c-0.01,-0.02 -0.01,-0.01 -0.02,-0.03 0.01,0.02 0.01,0.02 0.02,0.03zm-0.19 -0.24c-0.03,-0.04 -0.05,-0.07 -0.08,-0.1 0.03,0.04 0.05,0.07 0.08,0.1zm-0.23 -0.3c-0.04,-0.04 -0.06,-0.08 -0.1,-0.12 0.04,0.05 0.06,0.08 0.1,0.12zm-0.24 -0.31c-0.03,-0.05 -0.07,-0.1 -0.11,-0.14 0.04,0.05 0.07,0.09 0.11,0.14zm-0.24 -0.31c-0.05,-0.06 -0.09,-0.12 -0.15,-0.19 0.06,0.08 0.09,0.11 0.15,0.19zm-0.32 -0.4c-0.05,-0.06 -0.11,-0.14 -0.16,-0.21 0.04,0.06 0.12,0.15 0.16,0.21zm-0.27 -0.36c-0.05,-0.06 -0.1,-0.12 -0.14,-0.18 0.05,0.06 0.09,0.12 0.14,0.18zm-0.25 -0.32c-0.05,-0.06 -0.1,-0.13 -0.15,-0.19 0.06,0.08 0.1,0.12 0.15,0.19zm-0.25 -0.32c-0.05,-0.07 -0.11,-0.15 -0.16,-0.21 0.06,0.07 0.1,0.13 0.16,0.21zm-0.25 -0.32c-0.08,-0.1 -0.16,-0.2 -0.23,-0.3 0.08,0.09 0.16,0.2 0.23,0.3zm-0.25 -0.32c-0.08,-0.1 -0.17,-0.22 -0.26,-0.33 0.09,0.11 0.17,0.22 0.26,0.33zm-0.31 -0.39c-0.08,-0.1 -0.13,-0.17 -0.21,-0.27 0.07,0.09 0.14,0.18 0.21,0.27zm-0.27 -0.34c-0.06,-0.09 -0.14,-0.18 -0.2,-0.26 0.06,0.08 0.14,0.18 0.2,0.26zm-0.26 -0.33c-0.08,-0.1 -0.15,-0.19 -0.23,-0.3 0.08,0.11 0.14,0.19 0.23,0.3zm-0.25 -0.33c-0.18,-0.23 -0.36,-0.45 -0.54,-0.68 0.18,0.23 0.36,0.45 0.54,0.68zm-0.54 -0.68c-0.09,-0.11 -0.18,-0.23 -0.26,-0.34 0.09,0.12 0.17,0.22 0.26,0.34zm-0.29 -0.36c-0.08,-0.1 -0.17,-0.21 -0.25,-0.31 0.09,0.1 0.16,0.2 0.25,0.31zm-0.27 -0.34c-27,-33.91 -58.41,-64.13 -93.38,-89.83l0 0c34.97,25.69 66.38,55.92 93.38,89.83z"/>
    <path class="fil1" d="M1452.91 105.39l0.16 113.3 112.06 -0.68 -172.31 172.33 -87.34 -2.16 -471.56 471.57c-5.97,5.97 -15.74,5.97 -21.71,0l-1.24 -1.23c-5.97,-5.97 -5.97,-15.74 0,-21.71l471.79 -471.8 -2.79 -86.71 172.92 -172.9z"/>
    <path class="fil7" d="M1453.07 218.68l112.06 -0.68 -172.31 172.33 -87.34 -2.16 -471.56 471.57c-5.97,5.97 -15.74,5.97 -21.71,0l-0.62 -0.61 641.47 -641.45 0 1.01z"/>
   </g>
  </g>
 </g>
</svg>
