<svg width="100" height="100" viewBox="0 0 100 100" fill="none" xmlns="http://www.w3.org/2000/svg">
<path d="M65.3028 46.5238C65.0582 46.0667 64.5814 45.7813 64.0625 45.7813H54.2188V27.5C54.2188 26.8813 53.8138 26.3328 53.2204 26.1542C52.6283 25.9728 51.9857 26.2049 51.6425 26.7195L34.7675 52.032C34.4807 52.4638 34.4525 53.0178 34.6972 53.4749C34.9419 53.9333 35.4186 54.2188 35.9375 54.2188H45.7813V72.5C45.7813 73.1188 46.1863 73.6672 46.7797 73.8458C46.9147 73.8866 47.0511 73.9063 47.1875 73.9063C47.6488 73.9063 48.0932 73.6785 48.3575 73.2805L65.2325 47.968C65.5194 47.5363 65.5475 46.9822 65.3028 46.5238Z" fill="#F59323"/>
<path d="M90.6069 78.2994L79.3569 67.0494C78.807 66.4995 77.9169 66.4995 77.3684 67.0494L70.9194 73.4984C69.2755 75.1423 69.2755 77.8198 70.9194 79.4652L71.2105 79.7548C64.9864 84.2141 57.688 86.5625 50 86.5625C29.8386 86.5625 13.4375 70.16 13.4375 50C13.4375 47.6741 11.5447 45.7812 9.21875 45.7812C6.89281 45.7812 5 47.6741 5 50C5 74.8133 25.1867 95 50 95C59.8255 95 69.4541 91.7417 77.2559 85.7989L78.1925 86.7369C79.7802 88.3259 82.5702 88.3259 84.1578 86.7369L90.6069 80.2878C90.8698 80.0234 91.0189 79.6663 91.0189 79.2936C91.0189 78.9195 90.8698 78.5623 90.6069 78.2994Z" fill="#001249"/>
<path d="M50 5C40.1745 5 30.5459 8.25828 22.7455 14.2011L21.8075 13.2631C20.2198 11.6741 17.4298 11.6741 15.8422 13.2631L9.39311 19.7122C9.12874 19.9766 8.98108 20.3337 8.98108 20.7064C8.98108 21.0791 9.12874 21.4377 9.39311 21.7006L20.6431 32.9506C21.193 33.5005 22.0817 33.5005 22.6315 32.9506L29.0806 26.5016C30.7245 24.8577 30.7245 22.1802 29.0806 20.5348L28.7895 20.2452C35.0136 15.7859 42.312 13.4375 50 13.4375C70.1614 13.4375 86.5625 29.84 86.5625 50C86.5625 52.3259 88.4553 54.2188 90.7812 54.2188C93.1072 54.2188 95 52.3259 95 50C95 25.1867 74.8119 5 50 5Z" fill="#001249"/>
<path d="M29.0806 20.5362L21.8075 13.2631C20.2198 11.6741 17.4298 11.6741 15.8422 13.2631L9.39313 19.7122C8.84328 20.262 8.84328 21.1508 9.39313 21.7006L20.6431 32.9506C20.9173 33.2248 21.2773 33.3626 21.6373 33.3626C21.9973 33.3626 22.3573 33.2248 22.6316 32.9506L29.0806 26.5016C30.7245 24.8576 30.7245 22.1816 29.0806 20.5362Z" fill="#F59323"/>
<path d="M7.98688 26.7434C7.43703 27.2932 7.43703 28.182 7.98688 28.7318C8.26109 29.0061 8.62109 29.1439 8.98109 29.1439C9.34109 29.1439 9.70109 29.0061 9.97531 28.7318L13.1998 25.5073L11.2114 23.5189L7.98688 26.7434Z" fill="#F59323"/>
<path d="M13.6119 32.3684C13.062 32.9182 13.062 33.807 13.6119 34.3568C13.8861 34.631 14.2461 34.7689 14.6061 34.7689C14.9661 34.7689 15.3261 34.631 15.6003 34.3568L18.8248 31.1323L16.8364 29.1439L13.6119 32.3684Z" fill="#F59323"/>
<path d="M92.0131 71.2681C91.4632 70.7183 90.5731 70.7183 90.0246 71.2681L86.8001 74.4927L88.7885 76.4811L92.0131 73.2566C92.5629 72.7067 92.5629 71.8166 92.0131 71.2681Z" fill="#F59323"/>
<path d="M86.3881 67.6316C86.9379 67.0817 86.9379 66.193 86.3881 65.6431C85.8382 65.0933 84.9481 65.0933 84.3996 65.6431L81.1751 68.8677L83.1635 70.8561L86.3881 67.6316Z" fill="#F59323"/>
<path d="M90.6068 78.2994L79.3568 67.0494C78.807 66.4995 77.9168 66.4995 77.3684 67.0494L70.9193 73.4984C69.2754 75.1423 69.2754 77.8198 70.9193 79.4637L78.1925 86.7369C78.9856 87.53 80.0459 87.9687 81.1751 87.9687C82.3043 87.9687 83.3647 87.53 84.1578 86.7369L90.6068 80.2878C91.1567 79.738 91.1567 78.8478 90.6068 78.2994Z" fill="#F59323"/>
</svg>
