<svg width="100" height="100" viewBox="0 0 100 100" fill="none" xmlns="http://www.w3.org/2000/svg">
<path d="M50.4945 26.486C65.6594 26.6348 75.1595 25.6913 76.4426 42.4998H94.9352C94.9352 16.4607 72.2256 12.9509 50.0131 12.9509C27.7989 12.9509 5.09103 16.4607 5.09103 42.4998H23.4401C24.8598 25.3709 35.4557 26.339 50.4945 26.486Z" fill="#001249"/>
<path d="M14.2621 50.8709C18.7662 50.8709 22.5141 51.1404 23.3473 46.7098C23.4593 46.1077 23.5241 45.425 23.5241 44.6355H23.3105H5C5 51.2262 9.14701 50.8709 14.2621 50.8709Z" fill="#F59323"/>
<path d="M76.5617 44.6355H76.3884C76.3884 45.4302 76.4566 46.1147 76.5844 46.7098C77.4632 50.7956 81.2058 50.5418 85.6942 50.5418C90.8337 50.5418 95 50.8796 95 44.6355H76.5617Z" fill="#F59323"/>
<rect x="34" y="46" width="30" height="27" fill="#F59323"/>
<path d="M67.5272 40.1471V37.5283C67.5272 36.3572 66.1775 36.2837 64.511 36.2837H61.7889C60.1242 36.2837 58.7745 36.3572 58.7745 37.5283V39.7848V41.5353H39.5187V39.7848V37.5283C39.5187 36.3572 38.169 36.2837 36.5043 36.2837H33.7804C32.1157 36.2837 30.766 36.3572 30.766 37.5283V40.1471V42.4333C26.3792 46.9917 12.0248 66.3963 11.5032 68.7455L11.5102 84.4215C11.5102 85.8692 12.6883 87.0473 14.136 87.0473H84.1572C85.6049 87.0473 86.783 85.8692 86.783 84.4215V68.6667C86.2666 66.3858 71.9157 46.9899 67.5272 42.4316V40.1471ZM38.5699 70.8549C37.1607 70.8549 36.0176 69.7136 36.0176 68.3026C36.0176 66.8917 37.1607 65.7504 38.5699 65.7504C39.9791 65.7504 41.1222 66.8917 41.1222 68.3026C41.1222 69.7136 39.9791 70.8549 38.5699 70.8549ZM38.5699 62.1023C37.1607 62.1023 36.0176 60.9609 36.0176 59.55C36.0176 58.1391 37.1607 56.9977 38.5699 56.9977C39.9791 56.9977 41.1222 58.1391 41.1222 59.55C41.1222 60.9609 39.9791 62.1023 38.5699 62.1023ZM38.5699 53.3514C37.1607 53.3514 36.0176 52.21 36.0176 50.7991C36.0176 49.3899 37.1607 48.2468 38.5699 48.2468C39.9791 48.2468 41.1222 49.3899 41.1222 50.7991C41.1222 52.21 39.9791 53.3514 38.5699 53.3514ZM49.0731 70.8549C47.6639 70.8549 46.5208 69.7136 46.5208 68.3026C46.5208 66.8917 47.6639 65.7504 49.0731 65.7504C50.484 65.7504 51.6253 66.8917 51.6253 68.3026C51.6253 69.7136 50.484 70.8549 49.0731 70.8549ZM49.0731 62.1023C47.6639 62.1023 46.5208 60.9609 46.5208 59.55C46.5208 58.1391 47.6639 56.9977 49.0731 56.9977C50.484 56.9977 51.6253 58.1391 51.6253 59.55C51.6253 60.9609 50.484 62.1023 49.0731 62.1023ZM49.0731 53.3514C47.6639 53.3514 46.5208 52.21 46.5208 50.7991C46.5208 49.3899 47.6639 48.2468 49.0731 48.2468C50.484 48.2468 51.6253 49.3899 51.6253 50.7991C51.6253 52.21 50.484 53.3514 49.0731 53.3514ZM59.5762 70.8549C58.1653 70.8549 57.024 69.7136 57.024 68.3026C57.024 66.8917 58.1653 65.7504 59.5762 65.7504C60.9872 65.7504 62.1285 66.8917 62.1285 68.3026C62.1285 69.7136 60.9872 70.8549 59.5762 70.8549ZM59.5762 62.1023C58.1653 62.1023 57.024 60.9609 57.024 59.55C57.024 58.1391 58.1653 56.9977 59.5762 56.9977C60.9872 56.9977 62.1285 58.1391 62.1285 59.55C62.1285 60.9609 60.9872 62.1023 59.5762 62.1023ZM59.5762 53.3514C58.1653 53.3514 57.024 52.21 57.024 50.7991C57.024 49.3899 58.1653 48.2468 59.5762 48.2468C60.9872 48.2468 62.1285 49.3899 62.1285 50.7991C62.1285 52.21 60.9872 53.3514 59.5762 53.3514Z" fill="#001249"/>
</svg>
