<svg width="100" height="100" viewBox="0 0 100 100" fill="none" xmlns="http://www.w3.org/2000/svg">
<path d="M52.1464 95.2927C38.8329 95.2927 28 84.4598 28 71.1464C28 57.833 38.8329 47 52.1464 47C65.4598 47 76.2927 57.833 76.2927 71.1464C76.2927 84.4598 65.4598 95.2927 52.1464 95.2927Z" fill="#F59323"/>
<path d="M46.5984 79L43.3864 73.17H42.4844V79H38.7224V63.556H45.0364C46.2537 63.556 47.2877 63.7687 48.1384 64.194C49.0037 64.6194 49.6491 65.206 50.0744 65.954C50.4997 66.6874 50.7124 67.5087 50.7124 68.418C50.7124 69.4447 50.4191 70.3614 49.8324 71.168C49.2604 71.9747 48.4097 72.5467 47.2804 72.884L50.8444 79H46.5984ZM42.4844 70.508H44.8164C45.5057 70.508 46.0191 70.3394 46.3564 70.002C46.7084 69.6647 46.8844 69.188 46.8844 68.572C46.8844 67.9854 46.7084 67.5234 46.3564 67.186C46.0191 66.8487 45.5057 66.68 44.8164 66.68H42.4844V70.508ZM56.836 68.462C57.2026 67.89 57.7086 67.428 58.354 67.076C58.9993 66.724 59.7546 66.548 60.62 66.548C61.632 66.548 62.5486 66.8047 63.37 67.318C64.1913 67.8314 64.8366 68.5647 65.306 69.518C65.79 70.4714 66.032 71.5787 66.032 72.84C66.032 74.1014 65.79 75.216 65.306 76.184C64.8366 77.1374 64.1913 77.878 63.37 78.406C62.5486 78.9194 61.632 79.176 60.62 79.176C59.7693 79.176 59.014 79 58.354 78.648C57.7086 78.296 57.2026 77.8414 56.836 77.284V84.852H53.074V66.724H56.836V68.462ZM62.204 72.84C62.204 71.9014 61.94 71.168 61.412 70.64C60.8986 70.0974 60.2606 69.826 59.498 69.826C58.75 69.826 58.112 70.0974 57.584 70.64C57.0706 71.1827 56.814 71.9234 56.814 72.862C56.814 73.8007 57.0706 74.5414 57.584 75.084C58.112 75.6267 58.75 75.898 59.498 75.898C60.246 75.898 60.884 75.6267 61.412 75.084C61.94 74.5267 62.204 73.7787 62.204 72.84Z" fill="#E2E2E2"/>
<path d="M61.0976 9.39024V5H85.2439V29.1463H80.8537V12.4941L72.0732 21.2746V57.0156C70.8241 55.2376 69.3534 53.6263 67.6829 52.2434V25.6671L58.9024 34.4476V47.6446C57.4866 47.2407 56.0224 46.9554 54.5122 46.8193V34.7132L45.7317 28.8588V47.6446C44.1995 48.0793 42.7332 48.661 41.3415 49.3744V30.3712L32.561 39.8827V57.0134C29.8039 60.9383 28.1707 65.7039 28.1707 70.8537V44.6395L19.3902 54.151V77.439H29.1059C29.5405 78.9712 30.1222 80.4376 30.8356 81.8293H15V77.439V52.4344L43.1963 21.8893L56.4285 30.7115L77.7498 9.39024H61.0976Z" fill="#001249"/>
<path d="M73.7985 81.8293H85.2438V77.439H75.5282C75.0914 78.9712 74.5119 80.4376 73.7985 81.8293Z" fill="#001249"/>
</svg>
