<svg width="100" height="100" viewBox="0 0 100 100" fill="none" xmlns="http://www.w3.org/2000/svg">
<g clip-path="url(#clip0)">
<path d="M58.8133 63.3189C73.552 63.3189 85.5001 51.3709 85.5001 36.6322C85.5001 21.8935 73.552 9.94537 58.8133 9.94537C44.0746 9.94537 32.1266 21.8935 32.1266 36.6322C32.1266 51.3709 44.0746 63.3189 58.8133 63.3189Z" fill="#F59323" fill-opacity="0.28"/>
<path d="M58.79 64.2287C58.0401 64.2287 57.4321 63.6207 57.4321 62.8708V47.6295C57.4321 46.8796 58.0401 46.2716 58.79 46.2716C59.5399 46.2716 60.1479 46.8796 60.1479 47.6295V62.8708C60.1479 63.6207 59.5399 64.2287 58.79 64.2287Z" fill="#001249"/>
<path d="M58.79 52.8666L53.3924 48.8713C45.8337 43.2767 45.8708 31.9556 53.4661 26.4108L58.0645 23.0538C58.4254 22.7903 58.9403 22.977 59.046 23.4112C59.5414 25.4467 59.436 27.5686 58.7902 29.7682L61.398 34.5876L58.79 52.8666Z" fill="#F59323"/>
<path d="M66.1752 19.2597L63.1361 24.8313C62.8754 25.3093 62.5549 25.7523 62.1825 26.1495L57.3028 31.3546C54.8585 33.9619 54.0099 37.6848 55.0834 41.094L58.79 52.8667L67.247 44.1209C73.8693 37.2725 74.4593 26.6009 68.6326 19.0643C67.9828 18.2237 66.684 18.3269 66.1752 19.2597Z" fill="#001249"/>
<path d="M43.5345 67.1351L55.7625 60.4298C63.5043 56.1845 73.0766 57.248 79.6978 63.0892L84.6857 67.4896V72.5541L47.7463 83.9561L43.5345 72.8047V67.1351Z" fill="#29A8A1"/>
<path d="M94.6216 67.9592C93.7381 66.0473 91.5456 65.1204 89.5576 65.8192L62.0199 75.5036C62.0271 75.4963 62.0326 75.4909 62.0398 75.4837C62.9215 74.6038 63.4665 73.3853 63.4665 72.0401C63.4665 70.3382 62.5938 68.8409 61.2703 67.9701C60.5045 67.465 59.5848 67.1717 58.598 67.1717H45.6439H41.8364C40.1816 65.5169 37.9366 64.5863 35.5956 64.5863H13.0538V86.3213L22.1889 86.0896L22.9873 86.7776C25.4423 88.8922 28.5763 90.0546 31.8171 90.0546H57.1442C59.3096 90.0546 61.4442 89.535 63.3669 88.5392L92.793 73.3002C94.1907 72.576 95 71.1511 95 69.6702C95 69.0962 94.8787 68.5132 94.6216 67.9592Z" fill="#E2E2E2"/>
<path d="M44.5761 76.8731H58.58C61.2691 76.8731 63.4489 74.6931 63.4489 72.0041C63.4489 69.315 61.2689 67.1352 58.58 67.1352H41.8183H40.8267L41.8183 76.8733H44.5761V76.8731Z" fill="#E2E2E2"/>
<path d="M58.58 73.0571H44.5761C43.0531 73.0571 41.8184 74.2917 41.8184 75.8149V76.5461C41.8184 76.7268 41.9648 76.8731 42.1453 76.8731H44.5759H58.5798C61.2689 76.8731 63.4488 74.6931 63.4488 72.0041C63.4488 71.3268 63.3103 70.6821 63.0604 70.096C62.3183 71.8368 60.5918 73.0571 58.58 73.0571Z" fill="black" fill-opacity="0.2"/>
<path d="M17.7677 65.1059V85.7457C17.7677 85.8633 17.7586 85.9774 17.7423 86.0897C17.5757 87.2719 16.56 88.1826 15.3307 88.1826H6.27061C5.56886 88.1826 5 87.6137 5 86.912V63.9396C5 63.2379 5.56886 62.669 6.27061 62.669H15.3307C16.4985 62.669 17.4744 63.4892 17.7115 64.5863C17.7477 64.7529 17.7677 64.9267 17.7677 65.1059Z" fill="#001249"/>
<circle cx="28.5" cy="29.5" r="19.5" fill="#001249"/>
<path d="M21.9863 27.86C21.9863 28.47 21.8463 29.03 21.5663 29.54C21.2863 30.04 20.8563 30.445 20.2763 30.755C19.6963 31.065 18.9763 31.22 18.1163 31.22H16.5263V35H13.9613V24.47H18.1163C18.9563 24.47 19.6663 24.615 20.2463 24.905C20.8263 25.195 21.2613 25.595 21.5513 26.105C21.8413 26.615 21.9863 27.2 21.9863 27.86ZM17.9213 29.18C18.4113 29.18 18.7763 29.065 19.0163 28.835C19.2563 28.605 19.3763 28.28 19.3763 27.86C19.3763 27.44 19.2563 27.115 19.0163 26.885C18.7763 26.655 18.4113 26.54 17.9213 26.54H16.5263V29.18H17.9213ZM28.6916 35L26.5016 31.025H25.8866V35H23.3216V24.47H27.6266C28.4566 24.47 29.1616 24.615 29.7416 24.905C30.3316 25.195 30.7716 25.595 31.0616 26.105C31.3516 26.605 31.4966 27.165 31.4966 27.785C31.4966 28.485 31.2966 29.11 30.8966 29.66C30.5066 30.21 29.9266 30.6 29.1566 30.83L31.5866 35H28.6916ZM25.8866 29.21H27.4766C27.9466 29.21 28.2966 29.095 28.5266 28.865C28.7666 28.635 28.8866 28.31 28.8866 27.89C28.8866 27.49 28.7666 27.175 28.5266 26.945C28.2966 26.715 27.9466 26.6 27.4766 26.6H25.8866V29.21ZM38.0868 35.105C37.0968 35.105 36.1868 34.875 35.3568 34.415C34.5368 33.955 33.8818 33.315 33.3918 32.495C32.9118 31.665 32.6718 30.735 32.6718 29.705C32.6718 28.675 32.9118 27.75 33.3918 26.93C33.8818 26.11 34.5368 25.47 35.3568 25.01C36.1868 24.55 37.0968 24.32 38.0868 24.32C39.0768 24.32 39.9818 24.55 40.8018 25.01C41.6318 25.47 42.2818 26.11 42.7518 26.93C43.2318 27.75 43.4718 28.675 43.4718 29.705C43.4718 30.735 43.2318 31.665 42.7518 32.495C42.2718 33.315 41.6218 33.955 40.8018 34.415C39.9818 34.875 39.0768 35.105 38.0868 35.105ZM38.0868 32.765C38.9268 32.765 39.5968 32.485 40.0968 31.925C40.6068 31.365 40.8618 30.625 40.8618 29.705C40.8618 28.775 40.6068 28.035 40.0968 27.485C39.5968 26.925 38.9268 26.645 38.0868 26.645C37.2368 26.645 36.5568 26.92 36.0468 27.47C35.5468 28.02 35.2968 28.765 35.2968 29.705C35.2968 30.635 35.5468 31.38 36.0468 31.94C36.5568 32.49 37.2368 32.765 38.0868 32.765Z" fill="#E2E2E2"/>
</g>
<defs>
<clipPath id="clip0">
<rect width="90" height="90" fill="white" transform="translate(5 5)"/>
</clipPath>
</defs>
</svg>
