<svg width="100" height="100" viewBox="0 0 100 100" fill="none" xmlns="http://www.w3.org/2000/svg">
<path d="M79.5312 34.5312H68.2812C67.1624 34.5313 66.0893 34.9757 65.2981 35.7669C64.507 36.5581 64.0625 37.6311 64.0625 38.75V44.375C64.0625 44.748 64.2107 45.1056 64.4744 45.3694C64.7381 45.6331 65.0958 45.7812 65.4688 45.7812H82.3438C82.7167 45.7812 83.0744 45.6331 83.3381 45.3694C83.6018 45.1056 83.75 44.748 83.75 44.375V38.75C83.75 37.6311 83.3055 36.5581 82.5144 35.7669C81.7232 34.9757 80.6501 34.5313 79.5312 34.5312V34.5312ZM80.9375 42.9688H66.875V38.75C66.875 38.377 67.0232 38.0194 67.2869 37.7556C67.5506 37.4919 67.9083 37.3438 68.2812 37.3438H79.5312C79.9042 37.3438 80.2619 37.4919 80.5256 37.7556C80.7893 38.0194 80.9375 38.377 80.9375 38.75V42.9688Z" fill="#777777"/>
<path d="M79.5312 28.9062V26.0938C79.5312 24.6019 78.9386 23.1712 77.8837 22.1163C76.8288 21.0614 75.3981 20.4688 73.9062 20.4688C72.4144 20.4688 70.9837 21.0614 69.9288 22.1163C68.8739 23.1712 68.2812 24.6019 68.2812 26.0938V28.9062C68.2812 30.3981 68.8739 31.8288 69.9288 32.8837C70.9837 33.9386 72.4144 34.5312 73.9062 34.5312C75.3981 34.5312 76.8288 33.9386 77.8837 32.8837C78.9386 31.8288 79.5312 30.3981 79.5312 28.9062ZM76.7188 28.9062C76.7188 29.6522 76.4224 30.3675 75.895 30.895C75.3675 31.4224 74.6522 31.7188 73.9062 31.7188C73.1603 31.7188 72.445 31.4224 71.9175 30.895C71.3901 30.3675 71.0938 29.6522 71.0938 28.9062V26.0938C71.0938 25.3478 71.3901 24.6325 71.9175 24.105C72.445 23.5776 73.1603 23.2812 73.9062 23.2812C74.6522 23.2812 75.3675 23.5776 75.895 24.105C76.4224 24.6325 76.7188 25.3478 76.7188 26.0938V28.9062Z" fill="#777777"/>
<path d="M93.5938 34.5312C93.5938 29.3098 91.5195 24.3022 87.8274 20.6101C84.1353 16.918 79.1277 14.8438 73.9062 14.8438C68.6848 14.8438 63.6772 16.918 59.9851 20.6101C56.293 24.3022 54.2188 29.3098 54.2188 34.5312H7.8125C7.43954 34.5312 7.08185 34.6794 6.81813 34.9431C6.55441 35.2069 6.40625 35.5645 6.40625 35.9375V76.7188C6.40848 78.9558 7.29815 81.1006 8.88 82.6825C10.4619 84.2644 12.6067 85.154 14.8438 85.1562H76.7188C78.9558 85.154 81.1006 84.2644 82.6825 82.6825C84.2644 81.1006 85.154 78.9558 85.1562 76.7188V50.6652C87.7588 48.855 89.8852 46.4425 91.3543 43.6333C92.8235 40.8241 93.5918 37.7014 93.5938 34.5312V34.5312ZM76.7188 82.3438H14.8438C13.3519 82.3438 11.9212 81.7511 10.8663 80.6962C9.81138 79.6413 9.21875 78.2106 9.21875 76.7188V73.9062H82.3438V76.7188C82.3438 78.2106 81.7511 79.6413 80.6962 80.6962C79.6413 81.7511 78.2106 82.3438 76.7188 82.3438ZM82.3438 71.0938H9.21875V37.3438H54.4437C54.8743 40.3968 56.0186 43.3053 57.7836 45.8333C59.5487 48.3613 61.8849 50.4377 64.6026 51.8938C67.3204 53.3499 70.3431 54.1448 73.4256 54.214C76.508 54.2833 79.5634 53.6248 82.3438 52.2922V71.0938ZM73.9062 51.4062C70.5687 51.4062 67.3061 50.4165 64.531 48.5623C61.7559 46.708 59.593 44.0725 58.3158 40.989C57.0386 37.9055 56.7044 34.5125 57.3555 31.2391C58.0066 27.9657 59.6138 24.9588 61.9738 22.5988C64.3338 20.2388 67.3407 18.6316 70.6141 17.9805C73.8875 17.3294 77.2805 17.6636 80.364 18.9408C83.4475 20.218 86.083 22.3809 87.9373 25.156C89.7915 27.9311 90.7812 31.1937 90.7812 34.5312C90.7764 39.0053 88.997 43.2947 85.8333 46.4583C82.6697 49.622 78.3803 51.4014 73.9062 51.4062Z" fill="#777777"/>
<path d="M52.8125 40.1562H13.4375C13.0645 40.1562 12.7069 40.3044 12.4431 40.5681C12.1794 40.8319 12.0312 41.1895 12.0312 41.5625V66.875C12.0312 67.248 12.1794 67.6056 12.4431 67.8694C12.7069 68.1331 13.0645 68.2812 13.4375 68.2812H52.8125C53.1855 68.2812 53.5431 68.1331 53.8069 67.8694C54.0706 67.6056 54.2188 67.248 54.2188 66.875V41.5625C54.2188 41.1895 54.0706 40.8319 53.8069 40.5681C53.5431 40.3044 53.1855 40.1562 52.8125 40.1562ZM51.4062 65.4688H14.8438V42.9688H51.4062V65.4688Z" fill="#777777"/>
<path d="M57.0312 65.4688H79.5312V68.2812H57.0312V65.4688Z" fill="#777777"/>
<path d="M57.0312 59.8438H66.875V62.6562H57.0312V59.8438Z" fill="#777777"/>
<path d="M69.6875 59.8438H79.5312V62.6562H69.6875V59.8438Z" fill="#777777"/>
<path d="M21.3828 57.9101L19.843 55.1152H19.4105V57.9101H17.607V50.5062H20.634C21.2176 50.5062 21.7133 50.6082 22.1211 50.8121C22.5359 51.016 22.8453 51.2972 23.0492 51.6558C23.2531 52.0074 23.3551 52.4011 23.3551 52.8371C23.3551 53.3293 23.2144 53.7687 22.9332 54.1554C22.659 54.5422 22.2512 54.8164 21.7098 54.9781L23.4184 57.9101H21.3828ZM19.4105 53.839H20.5285C20.859 53.839 21.1051 53.7582 21.2668 53.5965C21.4355 53.4347 21.5199 53.2062 21.5199 52.9109C21.5199 52.6297 21.4355 52.4082 21.2668 52.2465C21.1051 52.0847 20.859 52.0039 20.5285 52.0039H19.4105V53.839Z" fill="#777777"/>
<path d="M26.2907 52.8582C26.4665 52.584 26.7091 52.3625 27.0185 52.1937C27.3278 52.025 27.6899 51.9406 28.1048 51.9406C28.5899 51.9406 29.0294 52.0636 29.4232 52.3097C29.8169 52.5558 30.1263 52.9074 30.3513 53.3644C30.5833 53.8215 30.6993 54.3523 30.6993 54.957C30.6993 55.5617 30.5833 56.0961 30.3513 56.5601C30.1263 57.0172 29.8169 57.3722 29.4232 57.6254C29.0294 57.8715 28.5899 57.9945 28.1048 57.9945C27.697 57.9945 27.3349 57.9101 27.0185 57.7414C26.7091 57.5726 26.4665 57.3547 26.2907 57.0875V60.7156H24.4872V52.025H26.2907V52.8582ZM28.8642 54.957C28.8642 54.507 28.7376 54.1554 28.4845 53.9023C28.2384 53.6422 27.9325 53.5121 27.5669 53.5121C27.2083 53.5121 26.9024 53.6422 26.6493 53.9023C26.4032 54.1625 26.2802 54.5175 26.2802 54.9675C26.2802 55.4175 26.4032 55.7726 26.6493 56.0328C26.9024 56.2929 27.2083 56.423 27.5669 56.423C27.9255 56.423 28.2314 56.2929 28.4845 56.0328C28.7376 55.7656 28.8642 55.407 28.8642 54.957Z" fill="#777777"/>
<path d="M39.6641 57.9101L38.1242 55.1152H37.6918V57.9101H35.8883V50.5062H38.9152C39.4988 50.5062 39.9945 50.6082 40.4023 50.8121C40.8172 51.016 41.1266 51.2972 41.3305 51.6558C41.5344 52.0074 41.6363 52.4011 41.6363 52.8371C41.6363 53.3293 41.4957 53.7687 41.2144 54.1554C40.9402 54.5422 40.5324 54.8164 39.991 54.9781L41.6996 57.9101H39.6641ZM37.6918 53.839H38.8098C39.1402 53.839 39.3863 53.7582 39.548 53.5965C39.7168 53.4347 39.8012 53.2062 39.8012 52.9109C39.8012 52.6297 39.7168 52.4082 39.548 52.2465C39.3863 52.0847 39.1402 52.0039 38.8098 52.0039H37.6918V53.839Z" fill="#777777"/>
<path d="M44.572 52.8582C44.7478 52.584 44.9903 52.3625 45.2997 52.1937C45.6091 52.025 45.9712 51.9406 46.386 51.9406C46.8712 51.9406 47.3107 52.0636 47.7044 52.3097C48.0982 52.5558 48.4075 52.9074 48.6325 53.3644C48.8646 53.8215 48.9806 54.3523 48.9806 54.957C48.9806 55.5617 48.8646 56.0961 48.6325 56.5601C48.4075 57.0172 48.0982 57.3722 47.7044 57.6254C47.3107 57.8715 46.8712 57.9945 46.386 57.9945C45.9782 57.9945 45.6161 57.9101 45.2997 57.7414C44.9903 57.5726 44.7478 57.3547 44.572 57.0875V60.7156H42.7685V52.025H44.572V52.8582ZM47.1454 54.957C47.1454 54.507 47.0189 54.1554 46.7657 53.9023C46.5196 53.6422 46.2138 53.5121 45.8482 53.5121C45.4896 53.5121 45.1837 53.6422 44.9306 53.9023C44.6845 54.1625 44.5614 54.5175 44.5614 54.9675C44.5614 55.4175 44.6845 55.7726 44.9306 56.0328C45.1837 56.2929 45.4896 56.423 45.8482 56.423C46.2067 56.423 46.5126 56.2929 46.7657 56.0328C47.0189 55.7656 47.1454 55.407 47.1454 54.957Z" fill="#777777"/>
</svg>
