<svg width="100" height="100" viewBox="0 0 100 100" fill="none" xmlns="http://www.w3.org/2000/svg">
<g clip-path="url(#clip0)">
<path d="M74.7528 29.7278C74.8196 29.738 74.8862 29.7429 74.952 29.7429C75.592 29.7429 76.1536 29.2753 76.2524 28.6232C76.4635 27.2311 75.9958 25.8061 75.0012 24.8115C74.074 23.8841 72.7925 23.4155 71.4845 23.5255C70.7598 23.5865 70.2215 24.2235 70.2825 24.9485C70.3434 25.6732 70.9793 26.2107 71.7055 26.1504C72.2374 26.1053 72.7609 26.2965 73.1386 26.6743C73.55 27.0854 73.7356 27.652 73.6482 28.2282C73.5391 28.9473 74.0337 29.6188 74.7528 29.7278Z" fill="#777777"/>
<path d="M79.4261 29.8674C79.493 29.8776 79.5595 29.8825 79.6252 29.8825C80.2652 29.8825 80.8269 29.4151 80.9257 28.7628C81.343 26.0122 80.4191 23.1967 78.4538 21.2315C76.6218 19.3996 74.0902 18.4742 71.5059 18.6911C70.7812 18.7521 70.2429 19.3891 70.3039 20.1138C70.3647 20.8386 71.0007 21.377 71.7269 21.3158C73.5353 21.1629 75.3089 21.8117 76.5914 23.094C77.9671 24.4697 78.6138 26.4413 78.3215 28.3676C78.2123 29.0869 78.707 29.7584 79.4261 29.8674V29.8674Z" fill="#777777"/>
<path d="M84.2517 29.9108C84.3186 29.921 84.3851 29.9259 84.4508 29.9259C85.0908 29.9259 85.6525 29.4585 85.7513 28.8062C86.3772 24.6811 84.9915 20.459 82.0447 17.512C79.2978 14.7651 75.5 13.3764 71.6257 13.7025C70.9007 13.7635 70.3627 14.4005 70.4237 15.1253C70.4845 15.8502 71.1219 16.3876 71.8464 16.3275C74.9469 16.0664 77.9847 17.1774 80.1823 19.3748C82.5397 21.7322 83.648 25.1104 83.1472 28.4112C83.0379 29.1303 83.5325 29.8018 84.2517 29.9108V29.9108Z" fill="#777777"/>
<path d="M65.026 60.303C65.026 62.4808 66.7977 64.2527 68.9756 64.2527C71.1536 64.2527 72.9251 62.481 72.9251 60.303C72.9251 58.1251 71.1534 56.3536 68.9756 56.3536C66.7979 56.3536 65.026 58.1253 65.026 60.303ZM68.9755 58.9877C69.7007 58.9877 70.2908 59.5778 70.2908 60.303C70.2908 61.0283 69.7007 61.6184 68.9755 61.6184C68.2502 61.6184 67.6601 61.0283 67.6601 60.303C67.6601 59.5778 68.2502 58.9877 68.9755 58.9877Z" fill="#777777"/>
<path d="M77.3971 5.0448C69.3999 5.0448 62.6322 10.4058 60.4964 17.7225H14.2457C9.14773 17.7225 5 21.8701 5 26.9679V70.5112C5 71.2386 5.58975 71.8281 6.31713 71.8281C7.04451 71.8281 7.63426 71.2386 7.63426 70.5112V33.422C9.3142 35.1428 11.6568 36.2138 14.2457 36.2138H66.1963C69.2421 38.7331 73.1449 40.251 77.3971 40.251C79.3331 40.251 81.2196 39.9379 82.9991 39.3432V51.9227H68.4857C63.8646 51.9227 60.1051 55.6821 60.1051 60.3032C60.1051 64.9243 63.8647 68.6838 68.4857 68.6838H82.9991V88.0355C82.9991 90.3987 81.0765 92.3212 78.7133 92.3212H11.9198C9.5566 92.3212 7.63408 90.3987 7.63408 88.0355V76.5088C7.63408 75.7815 7.04434 75.1917 6.31695 75.1917C5.58957 75.1917 5 75.7813 5 76.5085V88.0352C5 91.8508 8.10412 94.955 11.9198 94.955H78.7133C82.529 94.955 85.6331 91.8508 85.6331 88.0352V68.6217C87.3955 68.3072 88.7388 66.7669 88.7388 64.9154V55.6909C88.7388 53.8396 87.3955 52.2992 85.6331 51.9847V38.2151C87.7671 37.0848 89.6724 35.5087 91.2216 33.5461C91.6723 32.9752 91.5747 32.1469 91.0038 31.6962C90.4327 31.2457 89.6047 31.3431 89.1539 31.914C86.2934 35.5383 82.008 37.6167 77.3969 37.6167C69.1431 37.6167 62.4281 30.9017 62.4281 22.6479C62.4281 14.3941 69.1431 7.67906 77.3969 7.67906C85.6507 7.67906 92.3657 14.3941 92.3657 22.6479C92.3657 24.1092 92.1559 25.5525 91.7421 26.9384C91.5339 27.6353 91.9303 28.369 92.6273 28.5772C93.3245 28.7851 94.058 28.3889 94.2661 27.6919C94.753 26.0616 94.9998 24.3644 94.9998 22.6479C95 12.9416 87.1034 5.0448 77.3971 5.0448V5.0448ZM86.1048 55.6909V64.9154C86.1048 65.5408 85.5959 66.0495 84.9704 66.0495H68.4855C65.3169 66.0495 62.739 63.4717 62.739 60.303C62.739 57.1344 65.3169 54.5567 68.4855 54.5567H84.9704C85.5959 54.5567 86.1048 55.0655 86.1048 55.6909V55.6909ZM63.6102 33.5795H14.2457C10.6002 33.5795 7.63426 30.6136 7.63426 26.9681C7.63426 23.3225 10.6002 20.3566 14.2457 20.3566H59.9431C59.8452 21.1066 59.794 21.8713 59.794 22.6477C59.794 23.6715 59.8828 24.6746 60.0513 25.6509H16.4256C15.6982 25.6509 15.1085 26.2405 15.1085 26.9679C15.1085 27.6953 15.6982 28.285 16.4256 28.285H60.7197C61.3764 30.2228 62.3627 32.0095 63.6102 33.5795V33.5795Z" fill="#777777"/>
</g>
<defs>
<clipPath id="clip0">
<rect width="90" height="90" fill="white" transform="translate(5 5)"/>
</clipPath>
</defs>
</svg>
