<svg width="100" height="100" viewBox="0 0 100 100" fill="none" xmlns="http://www.w3.org/2000/svg">
<g clip-path="url(#clip0)">
<path d="M79.846 52.3074C79.1712 52.0336 78.4023 52.3577 78.1283 53.0322C77.8539 53.7066 78.1784 54.4757 78.8528 54.7499L83.3056 56.5603C83.4683 56.6264 83.6364 56.6577 83.8016 56.6577C84.3221 56.6577 84.8153 56.3474 85.0233 55.8355C85.2977 55.1611 84.9732 54.392 84.2987 54.1178L79.846 52.3074Z" fill="#777777"/>
<path d="M75.3934 50.4971C74.7189 50.2229 73.9499 50.5473 73.6757 51.2218C73.4014 51.8963 73.7259 52.6653 74.4006 52.9395L75.1427 53.2412C75.3053 53.3073 75.4734 53.3386 75.6386 53.3386C76.1591 53.3386 76.6523 53.0283 76.8605 52.5164C77.1347 51.842 76.8102 51.0729 76.1356 50.7987L75.3934 50.4971Z" fill="#777777"/>
<path d="M41.4302 46.399C41.5956 46.399 41.7636 46.3678 41.9262 46.3017L46.379 44.4913C47.0534 44.2171 47.3779 43.4479 47.1037 42.7736C46.8293 42.0989 46.0597 41.7744 45.386 42.0488L40.9333 43.8592C40.2588 44.1334 39.9343 44.9026 40.2085 45.5769C40.4165 46.0888 40.9097 46.399 41.4302 46.399Z" fill="#777777"/>
<path d="M16.1981 56.6578C16.3635 56.6578 16.5316 56.6265 16.6942 56.5604L21.1469 54.7501C21.8214 54.4758 22.1459 53.7066 21.8716 53.0323C21.5973 52.3577 20.8279 52.0334 20.1539 52.3076L15.7012 54.118C15.0267 54.3922 14.7022 55.1614 14.9764 55.8357C15.1846 56.3476 15.6776 56.6578 16.1981 56.6578V56.6578Z" fill="#777777"/>
<path d="M36.9774 48.2093C37.1427 48.2093 37.3109 48.178 37.4735 48.1119L38.2156 47.8103C38.8901 47.5361 39.2146 46.767 38.9404 46.0926C38.6662 45.4181 37.8968 45.0934 37.2226 45.3678L36.4805 45.6695C35.806 45.9437 35.4815 46.7127 35.7557 47.3872C35.9639 47.8991 36.4569 48.2093 36.9774 48.2093Z" fill="#777777"/>
<path d="M24.3615 53.3388C24.5267 53.3388 24.6949 53.3075 24.8575 53.2414L25.5997 52.9398C26.2741 52.6656 26.5986 51.8965 26.3244 51.2221C26.0502 50.5476 25.281 50.2231 24.6067 50.4973L23.8645 50.799C23.1901 51.0732 22.8656 51.8422 23.1398 52.5167C23.3479 53.0286 23.841 53.3388 24.3615 53.3388V53.3388Z" fill="#777777"/>
<path d="M28.8141 51.5284C28.9795 51.5284 29.1476 51.4971 29.3102 51.431L33.7629 49.6206C34.4373 49.3464 34.7618 48.5772 34.4876 47.9029C34.2132 47.2284 33.4438 46.9041 32.7699 47.1782L28.3172 48.9885C27.6427 49.2628 27.3182 50.032 27.5924 50.7063C27.8005 51.2181 28.2936 51.5284 28.8141 51.5284V51.5284Z" fill="#777777"/>
<path d="M93.6816 85.0351H89.2382V72.5332C89.2382 71.8051 88.6481 71.2148 87.9199 71.2148C87.1916 71.2148 86.6015 71.8051 86.6015 72.5332V78.1027H51.3184V38.4408L57.1742 40.8216V43.0895L54.6143 42.0487C53.9391 41.7745 53.1707 42.099 52.8965 42.7734C52.6223 43.4479 52.9466 44.217 53.6211 44.4912L57.1742 45.9357V64.7421C57.1742 65.2784 57.4992 65.7612 57.9959 65.9634L60.9267 67.155C61.2577 67.2896 61.6292 67.284 61.9559 67.1397C62.2827 66.9954 62.5371 66.7245 62.6605 66.3891L64.4061 61.6476L65.7133 68.4528C65.7975 68.8912 66.0979 69.2573 66.5113 69.4254L70.241 70.9419C70.4012 71.0069 70.5696 71.0389 70.7374 71.0389C70.9962 71.0389 71.253 70.9628 71.4736 70.8142C71.8375 70.5692 72.056 70.1593 72.056 69.7205V46.8721L86.6017 52.7863V66.3809C86.6017 67.1089 87.1918 67.6992 87.9201 67.6992C88.6483 67.6992 89.2384 67.1089 89.2384 66.3809V29.0641C89.2384 28.5278 88.9134 28.0449 88.4166 27.8428L50.4966 12.4252C50.1779 12.2958 49.8218 12.2958 49.5034 12.4252L39.1492 16.6349C38.4747 16.9092 38.1502 17.6784 38.4245 18.3527C38.6987 19.0271 39.4679 19.3513 40.1422 19.0774L48.6816 15.6057V25.7195L13.3985 40.065V29.9513L34.4319 21.3993C35.1064 21.1251 35.4309 20.3559 35.1567 19.6816C34.8823 19.0069 34.1129 18.6828 33.4389 18.9568L11.5837 27.8428C11.0868 28.0447 10.7619 28.5276 10.7619 29.0641V85.0351H6.31836C5.59027 85.0351 5 85.6254 5 86.3535C5 87.0816 5.59027 87.6718 6.31836 87.6718H93.6816C94.4099 87.6718 95 87.0816 95 86.3535C95 85.6254 94.4099 85.0351 93.6816 85.0351V85.0351ZM69.4191 67.7616L68.1675 67.2526L66.1012 56.4949C65.9896 55.9134 65.5041 55.4777 64.9138 55.4295C64.3267 55.3819 63.7739 55.7324 63.5694 56.288L60.6571 64.1989L59.8111 63.8547V41.8937L69.4193 45.8002V67.7616H69.4191ZM51.3184 15.6057L86.6015 29.9513V40.0648L51.3184 25.7195V15.6057ZM51.3184 28.5657L86.6015 42.9113V49.9399L51.3184 35.5944V28.5657ZM48.6816 78.1027H30.4883C29.7602 78.1027 29.1699 78.6929 29.1699 79.421C29.1699 80.1491 29.7602 80.7394 30.4883 80.7394H48.6816V85.0351H13.3985V80.7394H24.3359C25.064 80.7394 25.6543 80.1491 25.6543 79.421C25.6543 78.6929 25.064 78.1027 24.3359 78.1027H13.3985V52.7863L48.6816 38.4408V78.1027ZM48.6816 35.5944L13.3985 49.9399V42.9113L48.6816 28.5657V35.5944ZM86.6015 85.0351H51.3184V80.7394H86.6015V85.0351Z" fill="#777777"/>
</g>
<defs>
<clipPath id="clip0">
<rect width="90" height="90" fill="white" transform="translate(5 5)"/>
</clipPath>
</defs>
</svg>
