<svg width="100" height="100" viewBox="0 0 100 100" fill="none" xmlns="http://www.w3.org/2000/svg">
<path d="M73.7335 49.2009H80.0113C81.4306 49.2009 82.5853 48.0462 82.5853 46.6269V40.3491C82.5853 38.9298 81.4306 37.7751 80.0113 37.7751H73.7335C72.3142 37.7751 71.1595 38.9298 71.1595 40.3491V46.6269C71.1595 48.0462 72.3142 49.2009 73.7335 49.2009V49.2009ZM73.7962 40.4118H79.9486V46.5642H73.7962V40.4118ZM73.7335 65.9001H80.0113C81.4306 65.9001 82.5853 64.7454 82.5853 63.3262V57.0483C82.5853 55.629 81.4306 54.4743 80.0113 54.4743H73.7335C72.3142 54.4743 71.1595 55.629 71.1595 57.0483V63.3262C71.1595 64.7454 72.3142 65.9001 73.7335 65.9001V65.9001ZM73.7962 57.1111H79.9486V63.2634H73.7962V57.1111ZM55.8185 49.2009H62.0964C63.5157 49.2009 64.6704 48.0462 64.6704 46.6269V40.3491C64.6704 38.9298 63.5157 37.7751 62.0964 37.7751H55.8185C54.3993 37.7751 53.2446 38.9298 53.2446 40.3491V46.6269C53.2446 48.0462 54.3993 49.2009 55.8185 49.2009ZM55.8813 40.4118H62.0336V46.5642H55.8813V40.4118ZM26.2666 70.3906H19.9887C18.5694 70.3906 17.4147 71.5453 17.4147 72.9646V79.2424C17.4147 80.6617 18.5694 81.8164 19.9887 81.8164H26.2666C27.6858 81.8164 28.8405 80.6617 28.8405 79.2424V72.9646C28.8405 71.5453 27.6858 70.3906 26.2666 70.3906ZM26.2038 79.1797H20.0515V73.0273H26.2038V79.1797ZM26.2666 37.7751H19.9887C18.5694 37.7751 17.4147 38.9298 17.4147 40.3491V46.6269C17.4147 48.0462 18.5694 49.2009 19.9887 49.2009H26.2666C27.6858 49.2009 28.8405 48.0462 28.8405 46.6269V40.3491C28.8405 38.9296 27.6858 37.7751 26.2666 37.7751ZM26.2038 46.5642H20.0515V40.4118H26.2038V46.5642ZM55.8185 65.5087H62.0964C63.5157 65.5087 64.6704 64.3539 64.6704 62.9347V56.6568C64.6704 55.2376 63.5157 54.0829 62.0964 54.0829H55.8185C54.3993 54.0829 53.2446 55.2376 53.2446 56.6568V62.9347C53.2446 64.3539 54.3993 65.5087 55.8185 65.5087ZM55.8813 56.7196H62.0336V62.8719H55.8813V56.7196ZM83.8947 11.0247H78.2581V9.00904C78.2581 6.79842 76.4597 5 74.249 5H73.6436C71.4332 5 69.6348 6.79842 69.6348 9.00904V11.0247H30.3652V9.00904C30.3652 6.79842 28.5668 5 26.3562 5H25.7508C23.5402 5 21.7418 6.79842 21.7418 9.00904V11.0247H16.1053C12.4658 11.0247 9.50476 13.9858 9.50476 17.6253V88.4082C9.50476 92.043 12.4618 95 16.0966 95H83.9038C87.5386 95 90.4956 92.043 90.4956 88.4082V17.6253C90.4954 13.9858 87.5344 11.0247 83.8947 11.0247V11.0247ZM72.2715 9.00904C72.2715 8.2523 72.8871 7.63672 73.6438 7.63672H74.2492C75.0059 7.63672 75.6215 8.2523 75.6215 9.00904V11.0247H72.2715V9.00904ZM24.3787 9.00904C24.3787 8.2523 24.9943 7.63672 25.751 7.63672H26.3564C27.1131 7.63672 27.7287 8.2523 27.7287 9.00904V11.0247H24.3788V9.00904H24.3787ZM87.8587 88.4082C87.8587 90.5891 86.0846 92.3633 83.9036 92.3633H16.0964C13.9155 92.3633 12.1413 90.5891 12.1413 88.4082V88.3999C13.2459 89.2323 14.6189 89.7266 16.1053 89.7266H69.5574C71.3205 89.7266 72.9781 89.04 74.2248 87.7931L87.8587 74.1592V88.4082ZM72.8795 85.4096C72.9829 84.9829 73.0391 84.538 73.0391 84.0801V75.2798C73.0391 73.6204 74.3893 72.2703 76.0489 72.2703H84.849C85.3069 72.2703 85.7518 72.214 86.1784 72.1106L72.8795 85.4096ZM87.8587 29.865H31.6836C30.9555 29.865 30.3652 30.4552 30.3652 31.1833C30.3652 31.9114 30.9555 32.5017 31.6836 32.5017H87.8587V66.624C87.8587 68.2835 86.5085 69.6337 84.849 69.6337H76.0489C72.9354 69.6337 70.4024 72.1667 70.4024 75.28V84.0803C70.4024 85.7398 69.0522 87.09 67.3929 87.09H16.1053C13.9197 87.09 12.1415 85.3118 12.1415 83.126V32.5017H26.4102C27.1383 32.5017 27.7285 31.9114 27.7285 31.1833C27.7285 30.4552 27.1383 29.865 26.4102 29.865H12.1413V17.6253C12.1413 15.4396 13.9195 13.6614 16.1052 13.6614H21.7418V17.5378C21.7418 19.7484 23.5402 21.5468 25.7508 21.5468C26.4789 21.5468 27.0692 20.9565 27.0692 20.2285C27.0692 19.5004 26.4789 18.9101 25.7508 18.9101C24.9941 18.9101 24.3785 18.2945 24.3785 17.5378V13.6614H69.6348V17.5378C69.6348 19.7484 71.4332 21.5468 73.6438 21.5468C74.3719 21.5468 74.9622 20.9565 74.9622 20.2285C74.9622 19.5004 74.3719 18.9101 73.6438 18.9101C72.8871 18.9101 72.2715 18.2945 72.2715 17.5378V13.6614H83.8949C86.0805 13.6614 87.8587 15.4396 87.8587 17.6253V29.865ZM26.2666 54.0829H19.9887C18.5694 54.0829 17.4147 55.2376 17.4147 56.6568V62.9347C17.4147 64.3539 18.5694 65.5087 19.9887 65.5087H26.2666C27.6858 65.5087 28.8405 64.3539 28.8405 62.9347V56.6568C28.8405 55.2374 27.6858 54.0829 26.2666 54.0829ZM26.2038 62.8719H20.0515V56.7196H26.2038V62.8719ZM37.9036 49.2009H44.1815C45.6007 49.2009 46.7554 48.0462 46.7554 46.6269V40.3491C46.7554 38.9298 45.6007 37.7751 44.1815 37.7751H37.9036C36.4844 37.7751 35.3297 38.9298 35.3297 40.3491V46.6269C35.3297 48.0462 36.4844 49.2009 37.9036 49.2009ZM37.9664 40.4118H44.1187V46.5642H37.9664V40.4118ZM55.8797 79.1797C55.847 78.4806 55.2699 77.9241 54.5628 77.9241C53.8347 77.9241 53.2444 78.5144 53.2444 79.2424C53.2444 80.6617 54.3991 81.8164 55.8184 81.8164H62.0962C63.5155 81.8164 64.6702 80.6617 64.6702 79.2424V72.9646C64.6702 71.5453 63.5155 70.3906 62.0962 70.3906H55.8184C54.3991 70.3906 53.2444 71.5453 53.2444 72.9646V74.7751C53.2444 75.5032 53.8347 76.0935 54.5628 76.0935C55.2908 76.0935 55.8811 75.5032 55.8811 74.7751V73.0273H62.0335V79.1797H55.8797ZM37.9036 65.5087H44.1815C45.6007 65.5087 46.7554 64.3539 46.7554 62.9347V56.6568C46.7554 55.2376 45.6007 54.0829 44.1815 54.0829H37.9036C36.4844 54.0829 35.3297 55.2376 35.3297 56.6568V62.9347C35.3297 64.3539 36.4844 65.5087 37.9036 65.5087ZM37.9664 56.7196H44.1187V62.8719H37.9664V56.7196ZM37.9036 81.8164H44.1815C45.6007 81.8164 46.7554 80.6617 46.7554 79.2424V72.9646C46.7554 71.5453 45.6007 70.3906 44.1815 70.3906H37.9036C36.4844 70.3906 35.3297 71.5453 35.3297 72.9646V79.2424C35.3297 80.6617 36.4844 81.8164 37.9036 81.8164ZM37.9664 73.0273H44.1187V79.1797H37.9664V73.0273Z" fill="#336633"/>
</svg>
