<svg width="100" height="100" viewBox="0 0 100 100" fill="none" xmlns="http://www.w3.org/2000/svg">
<g clip-path="url(#clip0)">
<path d="M60.5935 57.2734V91.5702C60.5958 93.4635 62.13 94.9978 64.023 95H87.345C89.2384 94.9978 90.7726 93.4635 90.7748 91.5702V57.2734C90.7726 55.38 89.2384 53.8458 87.345 53.8436H64.023C62.13 53.8458 60.5958 55.38 60.5935 57.2734V57.2734ZM61.9653 57.2734C61.9653 56.1367 62.8867 55.2153 64.023 55.2153H87.345C88.4814 55.2153 89.4028 56.1367 89.4028 57.2734V91.5702C89.4028 92.7069 88.4814 93.628 87.345 93.628H64.023C62.8867 93.628 61.9653 92.7069 61.9653 91.5702V57.2734Z" fill="#777777"/>
<path d="M64.7091 66.8764H86.6591C87.038 66.8764 87.3451 66.5693 87.3451 66.1904V58.6451C87.3451 58.2662 87.038 57.9594 86.6591 57.9594H64.7091C64.3302 57.9594 64.0231 58.2662 64.0231 58.6451V66.1904C64.0231 66.5693 64.3302 66.8764 64.7091 66.8764V66.8764ZM65.3951 59.3311H85.9734V65.5047H65.3951V59.3311Z" fill="#777777"/>
<path d="M78.428 68.2482H72.9404C72.5615 68.2482 72.2544 68.5553 72.2544 68.9342V74.4218C72.2544 74.8006 72.5615 75.1078 72.9404 75.1078H78.428C78.8066 75.1078 79.1137 74.8006 79.1137 74.4218V68.9342C79.1137 68.5553 78.8069 68.2482 78.428 68.2482V68.2482ZM77.742 73.7357H73.6262V69.6202H77.742V73.7357Z" fill="#777777"/>
<path d="M86.6593 68.2482H81.1717C80.7928 68.2482 80.4857 68.5553 80.4857 68.9342V74.4218C80.4857 74.8006 80.7928 75.1078 81.1717 75.1078H86.6593C87.0379 75.1078 87.345 74.8006 87.345 74.4218V68.9342C87.345 68.5553 87.0379 68.2482 86.6593 68.2482V68.2482ZM85.9733 73.7357H81.8575V69.6202H85.9733V73.7357Z" fill="#777777"/>
<path d="M64.7091 75.1078H70.1967C70.5756 75.1078 70.8827 74.8006 70.8827 74.4218V68.9342C70.8827 68.5553 70.5756 68.2482 70.1967 68.2482H64.7091C64.3302 68.2482 64.0231 68.5553 64.0231 68.9342V74.4218C64.0231 74.8006 64.3302 75.1078 64.7091 75.1078ZM65.3951 69.6202H69.5107V73.7357H65.3951V69.6202Z" fill="#777777"/>
<path d="M78.428 76.4795H72.9404C72.5615 76.4795 72.2544 76.7866 72.2544 77.1655V82.6531C72.2544 83.032 72.5615 83.3388 72.9404 83.3388H78.428C78.8066 83.3388 79.1137 83.032 79.1137 82.6531V77.1655C79.1137 76.7866 78.8069 76.4795 78.428 76.4795V76.4795ZM77.742 81.9671H73.6262V77.8515H77.742V81.9671Z" fill="#777777"/>
<path d="M86.6593 76.4795H81.1717C80.7928 76.4795 80.4857 76.7866 80.4857 77.1655V90.8841C80.4857 91.263 80.7928 91.5701 81.1717 91.5701H86.6593C87.0379 91.5701 87.345 91.263 87.345 90.8841V77.1655C87.345 76.7866 87.0379 76.4795 86.6593 76.4795V76.4795ZM85.9733 90.1984H81.8575V77.8515H85.9733V90.1984Z" fill="#777777"/>
<path d="M64.7091 83.3388H70.1967C70.5756 83.3388 70.8827 83.032 70.8827 82.6531V77.1655C70.8827 76.7866 70.5756 76.4795 70.1967 76.4795H64.7091C64.3302 76.4795 64.0231 76.7866 64.0231 77.1655V82.6531C64.0231 83.032 64.3302 83.3388 64.7091 83.3388ZM65.3951 77.8515H69.5107V81.9671H65.3951V77.8515Z" fill="#777777"/>
<path d="M78.428 84.7109H72.9404C72.5615 84.7109 72.2544 85.0181 72.2544 85.397V90.8842C72.2544 91.2631 72.5615 91.5702 72.9404 91.5702H78.428C78.8066 91.5702 79.1137 91.2631 79.1137 90.8842V85.397C79.1137 85.0181 78.8069 84.7109 78.428 84.7109V84.7109ZM77.742 90.1985H73.6262V86.0827H77.742V90.1985Z" fill="#777777"/>
<path d="M64.7091 91.5702H70.1967C70.5756 91.5702 70.8827 91.2631 70.8827 90.8842V85.397C70.8827 85.0181 70.5756 84.7109 70.1967 84.7109H64.7091C64.3302 84.7109 64.0231 85.0181 64.0231 85.397V90.8842C64.0231 91.2631 64.3302 91.5702 64.7091 91.5702ZM65.3951 86.083H69.5107V90.1985H65.3951V86.083Z" fill="#777777"/>
<path d="M83.2295 62.7606H84.6012V64.1327H83.2295V62.7606Z" fill="#777777"/>
<path d="M80.4857 62.7606H81.8575V64.1327H80.4857V62.7606Z" fill="#777777"/>
<path d="M77.7419 62.7606H79.1137V64.1327H77.7419V62.7606Z" fill="#777777"/>
<path fill-rule="evenodd" clip-rule="evenodd" d="M31.0735 20.8473L26.0406 6.97067H26.0406C25.339 5.38936 27.5016 4.24414 28.4223 5.60433L33.4253 11.6172L34.3018 6.26853C34.5088 5.02723 36.1247 4.67405 36.8305 5.71588L41.3 12.3412L45.6389 5.72955C46.3281 4.68208 47.9417 5.00612 48.173 6.23831L49.191 11.6688L54.1777 5.60963C55.1745 4.40341 57.0964 5.5026 56.5622 6.97341L51.4775 20.8501C53.1946 21.3488 53.972 23.4749 53.7613 25.2597C59.3568 27.0563 64.1148 29.4638 67.5535 33.2977C71.2246 37.3904 73.2733 43.0411 73.3258 50.7847H70.5385C70.4884 43.5265 68.6504 38.6944 65.4794 35.1591C62.4185 31.7466 57.9173 29.5285 52.3649 27.7963C51.6477 28.4108 50.7304 28.798 49.7246 28.798H42.7236C43.4053 30.0569 44.6054 31.3567 46.3602 32.0697C47.0369 32.4629 47.8029 32.9295 48.2438 33.869C48.7862 35.0246 48.5532 36.1624 48.3146 37.0701C48.2633 37.2506 48.2063 37.4332 48.1489 37.6173C47.812 38.6968 47.4582 39.8306 48.1295 40.938C48.5546 41.4597 49.5248 42.1506 51.4721 42.7997C53.1754 43.4183 52.3199 45.9743 50.5874 45.4429C48.3537 44.6983 46.8893 43.8267 45.9682 42.6964C45.0472 41.566 44.8403 40.2056 44.9611 39.1061C45.0377 38.731 45.1413 38.3406 45.2474 37.9413C45.4974 36.9998 45.7606 36.0088 45.7124 35.053C44.8869 34.2908 44.2604 33.7811 43.2837 33.1752C43.1916 33.0989 43.093 33.025 42.9896 32.9473C42.5921 32.6491 42.122 32.2963 41.662 31.5484C41.615 31.663 41.5686 31.7775 41.5225 31.8913C41.1644 32.774 40.8262 33.6079 40.4339 34.0348C39.2358 35.3387 38.0772 36.402 36.6526 37.7094C36.387 37.9531 36.1122 38.2053 35.8261 38.4692C34.7769 39.4369 33.4353 39.6675 32.3583 39.6095C32.0477 39.5696 31.7252 39.5101 31.3956 39.4493C30.3155 39.25 29.1599 39.0367 28.0984 39.4548C27.7247 39.7194 27.2058 40.3846 26.7728 42.038C26.2992 43.8362 23.6017 43.1258 24.0753 41.3274C24.6005 39.3224 25.364 37.9753 26.4843 37.1819C27.5714 36.4933 29.1323 36.5838 30.6277 36.6705C31.8809 36.7432 33.088 36.8131 33.9316 36.4197C34.2173 36.1794 34.5189 35.935 34.8287 35.684C36.9399 33.9735 39.4319 31.9545 39.8465 28.7982H32.8211C31.8152 28.7982 30.8979 28.4109 30.1807 27.7966V27.7963C24.6284 29.5285 20.1271 31.7466 17.0662 35.1591C13.8508 38.7439 12.0061 43.662 12.0061 51.0909V85.9323H57.4843V88.7198H10.6124C9.84274 88.7198 9.21883 88.0958 9.21875 87.3262V51.0912C9.21875 43.1899 11.2727 37.4442 14.9921 33.2977C18.4309 29.4638 23.1888 27.0563 28.7843 25.2597C28.7578 23.3999 28.9586 21.9969 31.0735 20.8473ZM47.0026 15.112L46.0717 10.1499L42.4814 15.6189C41.9345 16.4516 40.7188 16.4587 40.1622 15.6346L36.4821 10.1798L35.6791 15.0821C35.4848 16.2604 33.9955 16.6647 33.2321 15.7463L31.3811 13.5197L33.8881 20.4308H48.6603L51.1291 13.6994L49.4469 15.7409C48.6948 16.6516 47.2218 16.2727 47.0026 15.112ZM51.0284 24.6117C51.0197 23.6853 50.3934 23.1868 49.6483 23.1881L32.9109 23.2182C32.0764 23.2259 31.5144 23.7803 31.5172 24.6117C31.5203 25.4431 31.8554 25.9843 32.9109 26.0054L49.6402 26.0059C50.4801 25.969 51.0368 25.5378 51.0284 24.6117ZM42.2446 58.4759V54.3004C42.2686 52.162 45.0221 51.9556 45.0319 54.3004V58.4759C45.0741 60.3758 42.2023 60.3758 42.2446 58.4759ZM30.9074 59.1646C29.6243 60.6822 27.4031 59.4421 28.4903 57.7873V57.7891C28.4903 57.7891 29.2564 56.2211 31.3657 55.6868C33.4751 55.1525 34.7168 55.5735 36.5256 57.593C37.4289 59.117 37.5107 60.9748 36.5256 62.4191C35.8747 63.3734 35.0516 64.0188 34.1487 64.7267C33.8577 64.9549 33.5583 65.1896 33.2538 65.4432H36.5256C38.3432 65.4834 38.3432 68.1882 36.5256 68.2304H29.6935C28.3653 68.225 27.7967 66.5411 28.8497 65.7316L28.9187 65.6787C30.132 64.7494 33.3468 62.2872 34.2201 60.8429C34.6218 60.1781 34.4778 59.8292 34.301 59.4007C34.2639 59.3109 34.2254 59.2176 34.1901 59.1172C33.1769 58.0991 32.1512 58.2743 30.9074 59.1646ZM41.1857 65.9344L49.5504 56.1734C50.7709 54.7987 53.0203 56.2024 51.6681 57.9943L43.3034 67.7472C42.0948 69.159 39.9771 67.3462 41.1857 65.9344ZM47.9852 64.6086C47.9852 64.6086 48.4713 63.7048 49.7354 63.2286L49.7356 63.2287C51.1903 62.9175 52.1447 63.1768 53.2524 64.4755C53.8285 65.5183 53.9068 66.7101 53.2524 67.7146C53.0827 67.9751 52.7433 68.3924 52.4378 68.7681C52.3116 68.9231 52.1913 69.0711 52.091 69.1981H52.8741C54.7339 69.1981 54.6904 71.7594 52.8304 71.7594H49.2101C47.8945 71.7594 47.3114 70.1045 48.3364 69.2797C49.3144 68.25 50.1007 67.337 50.9168 66.1931C51.1386 65.9034 50.829 65.6436 50.435 65.956C49.2288 67.5275 47.087 66.2418 47.9852 64.6086Z" fill="#777777"/>
</g>
<defs>
<clipPath id="clip0">
<rect width="90" height="90" fill="white" transform="translate(5 5)"/>
</clipPath>
</defs>
</svg>
