<svg width="100" height="100" viewBox="0 0 100 100" fill="none" xmlns="http://www.w3.org/2000/svg">
<g clip-path="url(#clip0)">
<path d="M94.7269 92.3014L80.3046 69.526C82.2293 67.3054 83.3986 64.4119 83.3986 61.2492V27.8521C83.3986 15.2515 73.147 4.99988 60.5464 4.99988H39.454C26.8533 4.99988 16.6017 15.2515 16.6017 27.8521V61.2492C16.6017 64.4119 17.7704 67.3054 19.6951 69.526L5.27344 92.3014C4.75365 93.1212 4.99741 94.2075 5.81795 94.7266C6.10977 94.9113 6.43524 94.9999 6.75659 94.9999C7.33887 94.9999 7.90878 94.7108 8.24318 94.1821L22.3771 71.8634C23.129 72.3529 23.9344 72.7642 24.7852 73.087L15.8828 92.5087C15.4784 93.3918 15.8656 94.4348 16.7487 94.8399C16.9856 94.9484 17.2348 94.9999 17.4799 94.9999C18.146 94.9999 18.7832 94.6188 19.0785 93.974L21.3478 89.0226H78.6525L80.9219 93.974C81.2171 94.6188 81.8543 94.9999 82.5204 94.9999C82.7655 94.9999 83.0148 94.9484 83.2517 94.8399C84.1347 94.4348 84.522 93.3918 84.1175 92.5087L75.2159 73.087C76.0659 72.7642 76.872 72.3523 77.6232 71.8634L91.7571 94.1821C92.0915 94.7108 92.6615 94.9992 93.2437 94.9992C93.5651 94.9992 93.8906 94.9113 94.1824 94.7266C95.0029 94.2075 95.2467 93.1212 94.7269 92.3014V92.3014ZM70.7424 70.3898H64.921C65.4174 59.2655 70.6078 48.9795 79.3392 41.9551L79.883 41.5178V61.2492C79.883 66.2899 75.7823 70.3898 70.7424 70.3898ZM39.454 8.5155H60.5457C71.2086 8.5155 79.883 17.1899 79.883 27.8521V37.0058L77.1357 39.2154C72.2427 43.1527 68.2224 48.227 65.5094 53.8904C63.0499 59.0265 61.6457 64.6955 61.404 70.3898H38.5998C38.4446 66.6455 37.7944 62.9452 36.6586 59.3657C36.3648 58.4408 35.3767 57.9286 34.4511 58.2225C33.5262 58.5157 33.0139 59.5037 33.3078 60.4293C34.3337 63.6634 34.9269 67.0067 35.08 70.3898H29.258C24.218 70.3898 20.1173 66.2899 20.1173 61.2492V41.5178L20.6612 41.9551C22.8529 43.7178 24.8552 45.7241 26.6123 47.918C26.9598 48.3512 27.4699 48.5765 27.9856 48.5765C28.3708 48.5765 28.7588 48.4501 29.0836 48.1906C29.8409 47.5836 29.9632 46.4774 29.3562 45.7193C27.439 43.3271 25.2548 41.1387 22.8646 39.2154L20.1173 37.0051V27.8521C20.1173 17.1899 28.7917 8.5155 39.454 8.5155V8.5155ZM22.9594 85.507L24.5709 81.9914H75.4294L77.041 85.507H22.9594ZM73.8185 78.4758H26.1818L28.2953 73.8656C28.6132 73.8897 28.9339 73.9055 29.258 73.9055H70.7424C71.0665 73.9055 71.3871 73.8897 71.705 73.8656L73.8185 78.4758Z" fill="#777777"/>
<path d="M74.5654 58.4375H72.1484C71.1775 58.4375 70.3906 59.2244 70.3906 60.1953C70.3906 61.1656 71.1775 61.9525 72.1484 61.9525H74.5654C75.5356 61.9525 76.3232 61.1656 76.3232 60.1953C76.3232 59.2244 75.5356 58.4375 74.5654 58.4375Z" fill="#777777"/>
<path d="M27.8516 58.4375H25.4346C24.4637 58.4375 23.6768 59.2244 23.6768 60.1953C23.6768 61.1656 24.4637 61.9525 25.4346 61.9525H27.8516C28.8225 61.9525 29.6094 61.1656 29.6094 60.1953C29.6094 59.2244 28.8225 58.4375 27.8516 58.4375Z" fill="#777777"/>
<path d="M32.1754 43.1569C32.505 43.4865 32.952 43.6719 33.4182 43.6719H66.5818C67.0481 43.6719 67.4951 43.4865 67.8247 43.1569L74.446 36.5356C74.7756 36.206 74.961 35.759 74.961 35.2927V27.8523C74.961 19.9043 68.4941 13.4375 60.5462 13.4375H39.4538C31.5059 13.4375 25.0391 19.9043 25.0391 27.8523V35.2927C25.0391 35.759 25.2245 36.206 25.554 36.5356L32.1754 43.1569ZM71.4453 27.8523V34.5649L65.854 40.1563H51.7578V16.9531H60.5462C66.5557 16.9531 71.4453 21.8427 71.4453 27.8523ZM28.5547 27.8523C28.5547 21.8427 33.4443 16.9531 39.4538 16.9531H48.2422V40.1563H34.146L28.5547 34.5649V27.8523Z" fill="#777777"/>
<path d="M54.3067 48.2642H45.738C44.7671 48.2642 43.9802 49.0511 43.9802 50.022C43.9802 50.9929 44.7671 51.7798 45.738 51.7798H54.3067C55.2776 51.7798 56.0645 50.9929 56.0645 50.022C56.0645 49.0511 55.2776 48.2642 54.3067 48.2642Z" fill="#777777"/>
<path d="M54.3067 55.2954H45.738C44.7671 55.2954 43.9802 56.0823 43.9802 57.0532C43.9802 58.0241 44.7671 58.811 45.738 58.811H54.3067C55.2776 58.811 56.0645 58.0241 56.0645 57.0532C56.0645 56.0823 55.2776 55.2954 54.3067 55.2954Z" fill="#777777"/>
<path d="M54.3067 62.3267H45.738C44.7671 62.3267 43.9802 63.1136 43.9802 64.0845C43.9802 65.0554 44.7671 65.8423 45.738 65.8423H54.3067C55.2776 65.8423 56.0645 65.0554 56.0645 64.0845C56.0645 63.1136 55.2776 62.3267 54.3067 62.3267Z" fill="#777777"/>
<path d="M30.8433 51.7743L30.8309 51.7866C30.1443 52.4733 30.1443 53.5863 30.8309 54.273C31.1742 54.6156 31.624 54.7873 32.0737 54.7873C32.5235 54.7873 32.9732 54.6156 33.3166 54.273L33.3289 54.2599C34.0156 53.574 34.0156 52.4609 33.3289 51.7743C32.643 51.0876 31.5299 51.0876 30.8433 51.7743Z" fill="#777777"/>
</g>
<defs>
<clipPath id="clip0">
<rect width="90" height="90" fill="white" transform="translate(5 5)"/>
</clipPath>
</defs>
</svg>
