<svg width="100" height="100" viewBox="0 0 100 100" fill="none" xmlns="http://www.w3.org/2000/svg">
<path d="M49.9999 78.3577C49.2735 78.3577 48.6846 78.9464 48.6846 79.673V81.246C48.6846 81.9726 49.2735 82.5613 49.9999 82.5613C50.7263 82.5613 51.3152 81.9726 51.3152 81.246V79.673C51.3152 78.9466 50.7263 78.3577 49.9999 78.3577Z" fill="#777777"/>
<path d="M28.088 29.9482C28.3447 30.2051 28.6814 30.3335 29.0182 30.3335C29.3549 30.3335 29.6913 30.2051 29.9482 29.9484C30.4619 29.4347 30.4621 28.6018 29.9484 28.0883L28.8361 26.9759C28.3224 26.462 27.4896 26.4622 26.976 26.9757C26.4624 27.4894 26.4622 28.3222 26.9759 28.8358L28.088 29.9482Z" fill="#777777"/>
<path d="M71.9121 70.0518C71.3983 69.5383 70.5656 69.5383 70.0519 70.0518C69.5382 70.5657 69.5382 71.3984 70.0519 71.9121L71.1641 73.0243C71.4211 73.2811 71.7578 73.4094 72.0943 73.4094C72.4309 73.4094 72.7676 73.2811 73.0246 73.0243C73.5382 72.5105 73.5382 71.6778 73.0246 71.1641L71.9121 70.0518Z" fill="#777777"/>
<path d="M20.3273 48.6847H18.7543C18.0279 48.6847 17.439 49.2734 17.439 50C17.439 50.7266 18.0279 51.3154 18.7543 51.3154H20.3273C21.0537 51.3154 21.6426 50.7266 21.6426 50C21.6426 49.2734 21.0537 48.6847 20.3273 48.6847Z" fill="#777777"/>
<path d="M81.246 48.6847H79.673C78.9464 48.6847 78.3577 49.2734 78.3577 50C78.3577 50.7266 78.9464 51.3154 79.673 51.3154H81.246C81.9726 51.3154 82.5613 50.7266 82.5613 50C82.5613 49.2734 81.9726 48.6847 81.246 48.6847Z" fill="#777777"/>
<path d="M28.088 70.0518L26.9757 71.1641C26.462 71.6779 26.462 72.5106 26.9757 73.0243C27.2325 73.2811 27.5692 73.4094 27.9057 73.4094C28.2423 73.4094 28.579 73.2811 28.8358 73.0243L29.948 71.9121C30.4617 71.3982 30.4617 70.5655 29.948 70.0518C29.4345 69.5383 28.6017 69.5383 28.088 70.0518Z" fill="#777777"/>
<path d="M70.982 30.3335C71.3186 30.3335 71.6555 30.2051 71.9122 29.9482L73.0245 28.8358C73.5382 28.3221 73.5382 27.4892 73.0243 26.9757C72.5104 26.4622 71.6776 26.462 71.1642 26.9759L70.052 28.0883C69.5383 28.602 69.5383 29.4349 70.0522 29.9484C70.3089 30.2051 70.6453 30.3335 70.982 30.3335Z" fill="#777777"/>
<path d="M81.8198 18.1802C73.3206 9.68068 62.02 5 49.9999 5C37.9802 5 26.6796 9.68068 18.1802 18.1802C9.68086 26.6796 5 37.9802 5 50.0001C5 62.02 9.68086 73.3206 18.1802 81.8198C26.6796 90.319 37.98 94.9998 50.0001 94.9998C62.9467 94.9998 75.2753 89.4161 83.8249 79.6807C84.304 79.1349 84.2503 78.3036 83.7044 77.8243C83.1582 77.3451 82.3271 77.399 81.848 77.9448C73.7979 87.1118 62.1898 92.3692 50.0001 92.3692C38.6829 92.3692 28.043 87.9621 20.0405 79.9595C12.038 71.957 7.63068 61.3173 7.63068 50.0001C7.63068 38.6829 12.0378 28.043 20.0403 20.0405C28.0428 12.038 38.6827 7.63068 49.9999 7.63068C61.3173 7.63068 71.9572 12.038 79.9597 20.0405C87.9621 28.043 92.3693 38.6829 92.3693 50.0001C92.3693 58.2964 89.9724 66.33 85.4376 73.2327C85.0388 73.8399 85.2076 74.6554 85.8147 75.0544C86.4221 75.4532 87.2374 75.2844 87.6364 74.6773C92.4537 67.3443 95 58.8113 95 50.0003C95 37.9802 90.3191 26.6796 81.8198 18.1802Z" fill="#777777"/>
<path d="M62.9342 37.7032H37.066C35.7266 37.7032 34.637 38.7929 34.637 40.1322V67.1588C34.637 68.498 35.7266 69.5876 37.066 69.5876H62.9342C64.2735 69.5876 65.3632 68.498 65.3632 67.1588V40.1321C65.3632 38.7929 64.2735 37.7032 62.9342 37.7032ZM49.8083 66.9566H44.6618V56.6924H49.8083V66.9566ZM62.7325 66.9566H52.4391V56.1384C52.4391 54.9933 51.5075 54.0615 50.3625 54.0615H44.1078C42.9627 54.0615 42.0311 54.9933 42.0311 56.1384V66.9566H37.2678V51.3353H62.7325V66.9566ZM62.7325 48.7046H37.2678V45.6909H62.7325V48.7046ZM62.7325 43.0604H37.2678V40.3339H62.7325V43.0604Z" fill="#777777"/>
<path d="M49.9999 35.8635C52.2499 35.8635 54.0803 34.0329 54.0803 31.783C54.0803 29.5331 52.2497 27.7026 49.9999 27.7026C47.7502 27.7026 45.9196 29.5331 45.9196 31.783C45.9196 34.0329 47.7502 35.8635 49.9999 35.8635ZM49.9999 30.3335C50.7993 30.3335 51.4496 30.9838 51.4496 31.7832C51.4496 32.5827 50.7993 33.233 49.9999 33.233C49.2005 33.233 48.5502 32.5827 48.5502 31.7832C48.5504 30.9838 49.2007 30.3335 49.9999 30.3335Z" fill="#777777"/>
<path d="M76.6125 23.3876C70.1468 16.9219 61.7421 13.1006 52.7099 12.462L51.856 11.0141C51.4647 10.3503 50.7708 9.95392 50.0001 9.95392C49.2294 9.95392 48.5355 10.3503 48.1441 11.0139L47.29 12.462C38.2578 13.1004 29.8533 16.9219 23.3876 23.3876C16.2792 30.496 12.3644 39.9472 12.3644 50.0001C12.3644 60.0528 16.2792 69.5041 23.3876 76.6124C30.4961 83.7209 39.9471 87.6357 50 87.6357C60.0528 87.6357 69.5038 83.7209 76.6125 76.6124C83.7209 69.5041 87.6357 60.0528 87.6357 50.0001C87.6359 39.9472 83.7209 30.496 76.6125 23.3876ZM50 85.0052C30.6981 85.0052 14.9951 69.3019 14.9951 50.0001C14.9951 32.1772 28.3854 17.4266 45.6336 15.2704L45.0239 16.304C44.6549 16.9298 44.8629 17.7362 45.4887 18.1053C46.1143 18.4745 46.9208 18.2663 47.2898 17.6408L50 13.0457L56.0081 23.2325H43.9917L44.2142 22.8551C44.5832 22.2296 44.3752 21.423 43.7495 21.054C43.1235 20.6848 42.3171 20.893 41.9483 21.5187L41.3024 22.6138C40.9106 23.2783 40.9048 24.1073 41.2875 24.7773C41.6702 25.4469 42.3871 25.8631 43.1584 25.8631H56.8413C57.6126 25.8631 58.3298 25.4469 58.7124 24.7771C59.0951 24.1073 59.0891 23.2783 58.6973 22.6136L54.3669 15.2714C71.6149 17.4279 85.005 32.1774 85.005 50.0001C85.0052 69.3019 69.302 85.0052 50 85.0052Z" fill="#777777"/>
</svg>
