<svg width="100" height="100" viewBox="0 0 100 100" fill="none" xmlns="http://www.w3.org/2000/svg">
<path d="M23.2813 7.79962C20.9684 7.79962 19.0543 9.71385 19.0543 12.0267V23.2793C19.0543 25.5922 20.9684 27.4926 23.2813 27.4926H26.0938C27.9271 27.4501 27.9271 24.7213 26.0938 24.6801H23.2813C22.4779 24.6801 21.8695 24.0827 21.8695 23.2793V12.0267C21.8695 11.2234 22.4779 10.6149 23.2813 10.6149H76.7215C77.5249 10.6149 78.1223 11.2234 78.1223 12.0267V23.2793C78.1223 24.0827 77.5249 24.6801 76.7215 24.6801H73.909C72.0756 24.7226 72.0756 27.4515 73.909 27.4926H76.7215C79.0344 27.4926 80.9348 25.5922 80.9348 23.2793V12.0267C80.9348 9.71385 79.0344 7.79962 76.7215 7.79962H23.2813ZM26.0938 16.24C24.2169 16.24 24.2169 19.0551 26.0938 19.0551H66.8695V64.0552C66.8695 64.8586 66.2722 65.467 65.4688 65.467H61.2418V55.615C61.2418 51.744 58.087 48.5864 54.216 48.5864C50.345 48.5864 47.1875 51.744 47.1875 55.615V69.6801C47.1875 74.4655 49.4658 78.514 51.2222 80.9329H48.5883C47.8149 80.9357 47.1891 81.563 47.1875 82.3364V90.7739C47.1903 91.5462 47.8159 92.1715 48.5883 92.1746H79.523C79.5714 92.1774 79.6201 92.1774 79.6686 92.1746C80.3879 92.1023 80.9355 91.4968 80.9348 90.7739V82.3364C80.9334 81.5587 80.3007 80.9299 79.523 80.9329H77.0236L80.9073 61.5174C81.6589 57.7596 81.138 54.9503 77.8421 50.5558L75.0296 46.8067C74.7773 46.4586 74.3797 46.2452 73.9502 46.2272C72.7556 46.1793 72.0484 47.5475 72.7802 48.4931L75.5899 52.242C78.6221 56.285 78.6846 58.294 78.1497 60.968L74.1562 80.9329H54.8587C53.9608 79.9407 50 75.2807 50 69.6801V55.615C50 53.2534 51.8545 51.3989 54.216 51.3989C56.5775 51.3989 58.4293 53.2534 58.4293 55.615V66.8676C58.4321 67.6441 59.0644 68.2714 59.841 68.2685H65.4688C67.7817 68.2685 69.682 66.3681 69.682 64.0552V19.0551H73.909C75.7858 19.0551 75.7858 16.24 73.909 16.24H26.0938ZM31.6995 21.8456C30.9175 21.8509 30.2918 22.4974 30.307 23.2793V64.0552C30.307 66.3681 32.2211 68.2685 34.534 68.2685H42.9633C45.0062 68.4518 45.0062 65.2834 42.9633 65.467H34.534C33.7306 65.467 33.1223 64.8586 33.1223 64.0552V23.2793C33.1377 22.4855 32.4935 21.8362 31.6995 21.8456V21.8456ZM51.3843 21.851C51.1996 21.8546 51.0175 21.8946 50.8482 21.9686C50.679 22.0426 50.526 22.1491 50.3979 22.2823C50.2699 22.4154 50.1693 22.5724 50.102 22.7444C50.0347 22.9164 50.0019 23.1 50.0055 23.2847V28.8987C50.0055 31.2115 51.9059 33.1258 54.2188 33.1258H59.8465C62.1594 33.1258 64.0598 31.2115 64.0598 28.8987V23.2847C64.0639 23.0974 64.0306 22.9112 63.9618 22.7369C63.893 22.5627 63.7901 22.4039 63.6591 22.2699C63.5281 22.136 63.3717 22.0297 63.199 21.9571C63.0263 21.8844 62.8409 21.8469 62.6535 21.8469C62.4662 21.8469 62.2807 21.8844 62.108 21.9571C61.9354 22.0297 61.7789 22.136 61.6479 22.2699C61.5169 22.4039 61.414 22.5627 61.3452 22.7369C61.2764 22.9112 61.2431 23.0974 61.2473 23.2847V28.8987C61.2473 29.702 60.6498 30.3105 59.8465 30.3105H58.4348V26.0862C58.4333 25.7151 58.2853 25.3596 58.0229 25.0972C57.7605 24.8349 57.4051 24.6869 57.034 24.6854H52.807V23.2847C52.8107 23.0963 52.7765 22.909 52.7064 22.7342C52.6364 22.5593 52.5319 22.4003 52.3992 22.2665C52.2665 22.1328 52.1083 22.0272 51.9339 21.9558C51.7596 21.8844 51.5727 21.8486 51.3843 21.8508V21.851ZM40.1315 24.6635C39.7605 24.6708 39.4074 24.8244 39.1491 25.0909C38.8908 25.3574 38.7484 25.7151 38.7528 26.0862V33.1258C38.7486 33.3131 38.7819 33.4993 38.8507 33.6736C38.9195 33.8478 39.0224 34.0066 39.1534 34.1405C39.2844 34.2745 39.4408 34.3809 39.6135 34.4536C39.7862 34.5262 39.9716 34.5637 40.159 34.5637C40.3463 34.5637 40.5318 34.5262 40.7045 34.4536C40.8772 34.3809 41.0336 34.2745 41.1646 34.1405C41.2956 34.0066 41.3985 33.8478 41.4673 33.6736C41.5361 33.4993 41.5694 33.3131 41.5652 33.1258V26.0862C41.5674 25.8978 41.5317 25.7109 41.4603 25.5366C41.3889 25.3623 41.2832 25.2043 41.1495 25.0716C41.0157 24.939 40.8567 24.8345 40.6819 24.7644C40.507 24.6944 40.3199 24.6602 40.1315 24.6638V24.6635ZM52.807 27.4978H55.6195V30.3103H54.2188C53.4154 30.3103 52.807 29.7019 52.807 28.8986V27.4978ZM40.1315 38.7314C39.7605 38.7387 39.4074 38.8922 39.1491 39.1587C38.8908 39.4252 38.7484 39.783 38.7528 40.1541V47.0755C38.7486 47.2628 38.7819 47.449 38.8507 47.6232C38.9195 47.7975 39.0224 47.9562 39.1534 48.0902C39.2844 48.2241 39.4408 48.3306 39.6135 48.4032C39.7862 48.4759 39.9716 48.5134 40.159 48.5134C40.3463 48.5134 40.5318 48.4759 40.7045 48.4032C40.8772 48.3306 41.0336 48.2241 41.1646 48.0902C41.2956 47.9562 41.3985 47.7975 41.4673 47.6232C41.5361 47.449 41.5694 47.2628 41.5652 47.0755V40.1541C41.5675 39.9657 41.5318 39.7787 41.4604 39.6044C41.389 39.4301 41.2833 39.2719 41.1496 39.1392C41.0159 39.0065 40.8568 38.9021 40.6819 38.832C40.5071 38.7619 40.3199 38.7278 40.1315 38.7314V38.7314ZM40.1315 52.7855C39.9469 52.7891 39.7647 52.8291 39.5955 52.9031C39.4262 52.9771 39.2732 53.0837 39.1452 53.2168C39.0171 53.35 38.9166 53.5071 38.8493 53.6791C38.7819 53.8511 38.7491 54.0347 38.7528 54.2194V61.2478C38.7486 61.4351 38.7819 61.6213 38.8507 61.7956C38.9195 61.9698 39.0224 62.1286 39.1534 62.2626C39.2844 62.3965 39.4408 62.5029 39.6135 62.5756C39.7862 62.6483 39.9716 62.6857 40.159 62.6857C40.3463 62.6857 40.5318 62.6483 40.7045 62.5756C40.8772 62.5029 41.0336 62.3965 41.1646 62.2626C41.2956 62.1286 41.3985 61.9698 41.4673 61.7956C41.5361 61.6213 41.5694 61.4351 41.5652 61.2478V54.2194C41.569 54.0301 41.5344 53.8419 41.4637 53.6663C41.3929 53.4907 41.2875 53.3311 41.1536 53.1972C41.0197 53.0633 40.8602 52.958 40.6846 52.8872C40.5089 52.8165 40.3208 52.7818 40.1315 52.7855V52.7855ZM50 83.7479H78.1223V89.3619H50V83.7479Z" fill="#777777"/>
</svg>
