<svg width="100" height="100" viewBox="0 0 100 100" fill="none" xmlns="http://www.w3.org/2000/svg">
<path d="M90.0247 71.2681L86.8002 74.4927L83.1636 70.8561L86.3881 67.6316C86.938 67.0817 86.938 66.193 86.3881 65.6431C85.8383 65.0933 84.9481 65.0933 84.3997 65.6431L81.1752 68.8677L79.3569 67.0494C78.807 66.4995 77.9169 66.4995 77.3684 67.0494L70.9194 73.4984C69.2755 75.1423 69.2755 77.8198 70.9194 79.4637L71.1866 79.7309C64.9667 84.1873 57.6852 86.5625 50 86.5625C29.8386 86.5625 13.4375 70.16 13.4375 50C13.4375 47.6741 11.5447 45.7812 9.21875 45.7812C6.89281 45.7812 5 47.6741 5 50C5 74.8133 25.1867 95 50 95C59.8255 95 69.447 91.7347 77.2489 85.7919L78.1925 86.7355C78.9856 87.53 80.0459 87.9688 81.1752 87.9688C82.3044 87.9688 83.3647 87.53 84.1578 86.7369L90.6069 80.2878C91.1567 79.738 91.1567 78.8492 90.6069 78.2994L88.7886 76.4811L92.0131 73.2566C92.563 72.7067 92.563 71.818 92.0131 71.2681C91.4633 70.7183 90.5731 70.7183 90.0247 71.2681V71.2681ZM50 92.1875C26.7378 92.1875 7.8125 73.2622 7.8125 50C7.8125 49.2252 8.4425 48.5938 9.21875 48.5938C9.995 48.5938 10.625 49.2252 10.625 50C10.625 71.7111 28.2875 89.375 50 89.375C58.4347 89.375 66.4194 86.7228 73.2003 81.7447L75.2211 83.7655C67.8931 89.2583 59.2194 92.1875 50 92.1875V92.1875ZM82.1694 84.747C81.642 85.2744 80.7083 85.2744 80.1809 84.747L72.9078 77.4739C72.3594 76.9255 72.3594 76.0339 72.9078 75.4855L78.3627 70.0306L87.6242 79.2922L82.1694 84.747Z" fill="#777777"/>
<path d="M53.2204 26.1542C52.6283 25.9728 51.9857 26.2048 51.6426 26.7195L34.7676 52.032C34.4807 52.4637 34.4526 53.0178 34.6973 53.4748C34.9419 53.9332 35.4187 54.2187 35.9376 54.2187H45.7813V72.5C45.7813 73.1187 46.1863 73.6671 46.7798 73.8457C46.9148 73.8865 47.0512 73.9062 47.1876 73.9062C47.6488 73.9062 48.0932 73.6784 48.3576 73.2804L65.2326 47.9679C65.5194 47.5362 65.5476 46.9821 65.3029 46.5251C65.0582 46.0667 64.5815 45.7812 64.0626 45.7812H54.2188V27.5C54.2188 26.8812 53.8138 26.3328 53.2204 26.1542V26.1542ZM61.4357 48.5937L48.5938 67.8551V52.8125C48.5938 52.0362 47.9652 51.4062 47.1876 51.4062H38.5644L51.4063 32.1448V47.1875C51.4063 47.9637 52.0349 48.5937 52.8126 48.5937H61.4357Z" fill="#777777"/>
<path d="M50 5C40.1745 5 30.5529 8.26531 22.7511 14.2081L21.8075 13.2645C20.2198 11.6755 17.4298 11.6755 15.8422 13.2645L9.3931 19.7136C8.84325 20.2634 8.84325 21.1522 9.3931 21.702L11.2114 23.5203L7.98685 26.7448C7.437 27.2947 7.437 28.1834 7.98685 28.7333C8.26106 29.0075 8.62106 29.1453 8.98106 29.1453C9.34106 29.1453 9.70106 29.0075 9.97528 28.7333L13.1998 25.5087L16.8364 29.1453L13.6118 32.3698C13.062 32.9197 13.062 33.8084 13.6118 34.3583C13.8861 34.6325 14.2461 34.7703 14.6061 34.7703C14.9661 34.7703 15.3261 34.6325 15.6003 34.3583L18.8248 31.1337L20.6431 32.952C20.9173 33.2263 21.2773 33.3641 21.6373 33.3641C21.9973 33.3641 22.3573 33.2263 22.6315 32.952L29.0806 26.503C30.7245 24.8591 30.7245 22.1816 29.0806 20.5377L28.8134 20.2705C35.0333 15.8127 42.3148 13.4375 50 13.4375C70.1614 13.4375 86.5625 29.84 86.5625 50C86.5625 52.3259 88.4553 54.2188 90.7812 54.2188C93.1072 54.2188 95 52.3259 95 50C95 25.1867 74.8119 5 50 5ZM27.0922 24.5145L21.6373 29.9694L12.3758 20.7078L17.8306 15.253C18.3579 14.7256 19.2917 14.7256 19.819 15.253L27.0922 22.5261C27.6406 23.0731 27.6406 23.9661 27.0922 24.5145ZM90.7812 51.4062C90.005 51.4062 89.375 50.7748 89.375 50C89.375 28.2875 71.7111 10.625 50 10.625C41.5653 10.625 33.5806 13.2772 26.7997 18.2553L24.7803 16.2373C32.0379 10.8134 40.917 7.8125 50 7.8125C73.2622 7.8125 92.1875 26.7378 92.1875 50C92.1875 50.7748 91.5575 51.4062 90.7812 51.4062Z" fill="#777777"/>
</svg>
