<svg width="100" height="100" viewBox="0 0 100 100" fill="none" xmlns="http://www.w3.org/2000/svg">
<g clip-path="url(#clip0)">
<path d="M65.0383 43.0903C64.7069 42.8701 64.3528 42.6559 63.9853 42.4539C63.3471 42.1033 62.5459 42.336 62.1951 42.974C61.8444 43.6118 62.0772 44.4131 62.715 44.7641C63.018 44.9305 63.3085 45.1061 63.5788 45.2859C65.4819 46.5511 66.6991 48.2918 67.0989 50.3197C67.5276 52.4946 66.9046 54.6805 65.4329 56.1668C65.3262 56.2726 64.8571 56.6618 64.3809 57.0472H35.6185C35.1425 56.6622 34.6736 56.2727 34.5674 56.1676C33.095 54.6807 32.4718 52.4948 32.9005 50.3199C33.3003 48.292 34.5175 46.5514 36.4205 45.2862C38.0812 44.182 40.0357 43.4912 41.9564 43.0084C42.9713 42.7534 43.9979 42.5365 45.0159 42.3141C46.5528 41.9782 47.2604 41.8237 48.237 41.2784C48.4442 41.1707 49.2523 40.7246 49.9995 39.9556C50.7464 40.7243 51.5543 41.1705 51.7621 41.2784C52.3492 41.5837 52.9346 41.8209 53.5756 41.9903C54.8135 42.3176 56.0469 42.5392 57.2949 42.8278C58.004 42.9919 58.7126 42.552 58.8776 41.8431C59.0428 41.1341 58.602 40.4255 57.8931 40.2601C57.3769 40.1399 56.8641 40.0276 56.3671 39.9187L55.5458 39.7387C54.019 39.3972 51.9099 38.9545 51.3176 37.2584V35.689C52.1158 35.4331 52.8121 34.9085 53.283 34.1817C53.6787 33.5706 53.5042 32.7546 52.8932 32.3588C52.2823 31.9631 51.4661 32.1376 51.0703 32.7486C50.8756 33.0493 50.5461 33.2288 50.189 33.2288C49.611 33.2288 49.1407 32.7585 49.1407 32.1803C49.1407 31.6724 49.502 31.2386 49.9999 31.1488C50.7162 31.0197 51.1921 30.3339 51.063 29.6176C50.9338 28.9012 50.248 28.4262 49.5317 28.5545C47.7776 28.8712 46.5045 30.3959 46.5045 32.1803C46.5045 33.6746 47.4001 34.9613 48.6816 35.5389V37.2584C48.2593 38.4689 46.7846 39.1719 45.6418 39.4869C44.9836 39.6682 44.3068 39.771 43.6406 39.9169C40.6016 40.5824 37.5848 41.3468 34.9614 43.0908C32.4599 44.7539 30.8529 47.0774 30.3142 49.8103C29.7163 52.8438 30.6061 55.9137 32.6943 58.0226C32.8876 58.2179 33.4038 58.6456 33.8367 58.9968V63.2623C33.8367 64.5315 34.8693 65.5642 36.1386 65.5642H63.8612C65.1304 65.5642 66.1631 64.5315 66.1631 63.2623V58.9968C66.5958 58.6456 67.1121 58.2179 67.3053 58.0228C69.3936 55.9139 70.2834 52.8438 69.6854 49.8104C69.1469 47.0767 67.5399 44.7534 65.0383 43.0903V43.0903ZM63.5271 62.9275H36.473V59.6831H63.5271V62.9275Z" fill="#777777"/>
<path d="M94.2292 48.1361L82.5922 36.4997V20.0423C82.5922 18.589 81.41 17.407 79.9571 17.407L63.5002 17.4072L51.8631 5.77006C50.8357 4.74284 49.164 4.74249 48.1365 5.77006L36.4999 17.407H20.0425C18.5894 17.407 17.4074 18.5892 17.4074 20.0423L17.4075 36.499L5.77044 48.1361C4.74286 49.1637 4.74286 50.8355 5.77044 51.8631L10.0706 56.1632C10.5853 56.6778 11.4199 56.6778 11.9345 56.1632C12.4493 55.6483 12.4493 54.8139 11.9345 54.2991L7.63439 50.0004L19.2713 38.3635C19.7692 37.8658 20.0434 37.2037 20.0434 36.4999L20.0423 20.0433H36.4997C37.2038 20.0433 37.8656 19.769 38.3631 19.2715L49.9988 7.63436L61.6358 19.2713C62.1335 19.769 62.7953 20.0433 63.4994 20.0433L79.9557 20.0425V36.4999C79.9557 37.2039 80.2299 37.8658 80.7276 38.3635L92.3647 49.9992L80.7281 61.6357C80.2302 62.1334 79.9561 62.7955 79.9561 63.4993L79.9571 79.9559H63.4997C62.7957 79.9559 62.1338 80.2302 61.6363 80.7277L50.0006 92.3648L38.3635 80.7279C37.8658 80.2302 37.2039 79.9559 36.4999 79.9559L20.0435 79.9567V63.4993C20.0435 62.7953 19.7694 62.1334 19.2717 61.6357L16.261 58.6251C15.7462 58.1105 14.9116 58.1105 14.397 58.6251C13.8823 59.14 13.8823 59.9744 14.397 60.4892L17.4074 63.4995V79.9569C17.4074 81.4102 18.5896 82.5922 20.0425 82.5922L36.4994 82.592L48.1365 94.2291C48.6502 94.7428 49.3249 94.9998 49.9999 94.9998C50.6746 94.9996 51.3496 94.7428 51.8633 94.2291L63.4999 82.5922H79.9573C81.4104 82.5922 82.5924 81.41 82.5924 79.9569L82.5922 63.5002L94.2293 51.8631C95.2567 50.8355 95.2567 49.1635 94.2292 48.1361V48.1361Z" fill="#777777"/>
<path d="M73.4848 24.6327H60.5075L51.3308 15.4558C50.5969 14.7223 49.4027 14.7225 48.6688 15.456L39.4923 24.6327H26.515C25.477 24.6327 24.6326 25.4771 24.6326 26.5151V39.4924L15.4564 48.6687C15.1007 49.0243 14.9048 49.4972 14.9048 50C14.9048 50.5028 15.1007 50.9757 15.4563 51.3311L24.6326 60.5076V73.4849C24.6326 74.5229 25.477 75.3673 26.515 75.3673H39.4923L48.669 84.5442C49.036 84.911 49.5178 85.0944 49.9999 85.0943C50.482 85.0943 50.964 84.9108 51.3312 84.544L60.5077 75.3673H73.485C74.523 75.3673 75.3674 74.5229 75.3674 73.4849V60.5076L84.5436 51.3313C84.8993 50.9757 85.0952 50.5028 85.0952 50C85.0952 49.4972 84.8993 49.0243 84.5437 48.6689L75.3674 39.4924V26.5151C75.3674 25.4771 74.523 24.6327 73.4848 24.6327V24.6327ZM23.4247 55.5715L17.8533 50L23.4247 44.4286C23.0481 46.2275 22.849 48.0907 22.849 50C22.849 51.9093 23.0479 53.7725 23.4247 55.5715ZM72.7312 27.2689V35.1691C70.6715 32.0229 67.9773 29.3286 64.8312 27.2689H72.7312ZM49.9999 17.8532L55.5714 23.4246C53.7724 23.048 51.909 22.8489 49.9999 22.8489C48.0908 22.8489 46.2274 23.048 44.4285 23.4246L49.9999 17.8532ZM27.2688 27.2689H35.1688C32.0227 29.3286 29.3285 32.0229 27.2688 35.1691V27.2689ZM27.2688 72.7312V64.8309C29.3285 67.9771 32.0228 70.6714 35.1688 72.7312H27.2688ZM49.9999 82.1468L44.4285 76.5754C46.2274 76.952 48.0908 77.1513 49.9999 77.1513C51.909 77.1513 53.7724 76.9522 55.5714 76.5754L49.9999 82.1468ZM72.7312 72.7312H64.8312C67.9773 70.6714 70.6715 67.9771 72.7312 64.8309V72.7312ZM49.9999 74.515C36.4822 74.515 25.485 63.5176 25.485 50C25.485 36.4824 36.4823 25.4851 49.9999 25.4851C63.5175 25.4851 74.5149 36.4824 74.5149 50C74.5149 63.5176 63.5177 74.515 49.9999 74.515ZM76.5753 44.4287L82.1468 50.0002L76.5753 55.5716C76.9519 53.7727 77.151 51.9095 77.151 50.0002C77.1512 48.0909 76.9519 46.2275 76.5753 44.4287V44.4287Z" fill="#777777"/>
</g>
<defs>
<clipPath id="clip0">
<rect width="90" height="90" fill="white" transform="translate(5 5)"/>
</clipPath>
</defs>
</svg>
