<svg width="100" height="100" viewBox="0 0 100 100" fill="none" xmlns="http://www.w3.org/2000/svg">
<g clip-path="url(#clip0)">
<path d="M8.92823 58.7005L34.2389 62.1919L21.8875 80.1633C21.6072 80.5714 21.5444 81.0908 21.72 81.5534C21.8949 82.0168 22.2852 82.3643 22.7656 82.4846L28.8099 83.9957C29.2946 84.1174 29.8082 83.992 30.1815 83.6599L51.7041 64.5287L63.7397 65.6221C65.2825 65.7631 67.2156 65.8295 69.2114 65.8295C72.0668 65.845 74.9215 65.6967 77.76 65.3853L81.7539 64.8865C84.5547 64.5368 87.2928 63.7945 89.8877 62.6819L92.7586 61.4519C94.0425 60.9015 94.9072 59.6752 94.9928 58.2807C95.0791 56.8862 94.3715 55.5625 93.1652 54.8594L84.4278 49.7624C80.4995 47.4729 76.0342 46.2658 71.4869 46.2643H60.0815L42.5845 26.396C42.2849 26.0721 41.8644 25.8861 41.4224 25.8839L35.1944 25.9961C34.6845 26.0042 34.2138 26.2676 33.9415 26.6985C33.6685 27.1286 33.6309 27.6673 33.8419 28.1314L41.9559 46.2643H21.0442L13.9152 31.9887C13.6577 31.4737 13.1302 31.1498 12.5547 31.1535H6.51035C6.06618 31.1535 5.64488 31.349 5.35786 31.6877C5.07084 32.0271 4.94762 32.4757 5.02067 32.9132L7.85838 49.9447L7.51676 50.1158C5.73268 51.0086 4.7366 52.9587 5.06051 54.928C5.38442 56.8973 6.95158 58.426 8.92823 58.7005V58.7005ZM28.7686 80.868L25.6106 80.0778L40.4979 58.4238L52.7651 59.5387L50.6748 61.3958L50.4682 61.3752L50.4483 61.5936L28.7686 80.868ZM37.5333 28.974L40.779 28.9149L56.0544 46.2643H45.2673L37.5333 28.974ZM11.0229 50.5482L8.29517 34.1757H11.6198L18.7562 48.4505C19.0129 48.9633 19.5368 49.2872 20.1101 49.2865H71.4869C75.3768 49.2902 79.1995 50.2944 82.5891 52.2024L83.0591 53.1439L81.7081 53.8198H76.0202V56.8419H82.0645C82.2984 56.8441 82.5301 56.7925 82.7403 56.6907L85.7625 55.1796C86.0672 55.0195 86.307 54.7598 86.442 54.4432L91.6423 57.4779C91.8651 57.6056 91.9965 57.8483 91.9802 58.1051C91.9647 58.3619 91.8046 58.5869 91.5678 58.6865L88.6969 59.9165C86.3624 60.917 83.8987 61.5847 81.379 61.9005L77.3851 62.3993C72.9434 62.873 68.4684 62.9482 64.0134 62.6243L54.7956 61.7876L57.3751 59.4952C57.8385 59.0975 58.0178 58.4607 57.8289 57.8808C57.64 57.3001 57.1206 56.8906 56.5126 56.8419L39.8907 55.3308C39.3461 55.2814 38.8186 55.53 38.5094 55.9801L36.158 59.4103L9.34363 55.7064C8.67958 55.6142 8.15203 55.0999 8.04357 54.4373C7.93437 53.7755 8.26935 53.1195 8.86921 52.8193L10.2084 52.1493C10.8023 51.8527 11.1329 51.2027 11.0229 50.5482V50.5482Z" fill="#777777"/>
<path d="M24.6433 50.7976H27.6655V53.8198H24.6433V50.7976Z" fill="#777777"/>
<path d="M30.6876 50.7976H33.7098V53.8198H30.6876V50.7976Z" fill="#777777"/>
<path d="M36.7319 50.7976H39.7541V53.8198H36.7319V50.7976Z" fill="#777777"/>
<path d="M42.7764 50.7976H45.7985V53.8198H42.7764V50.7976Z" fill="#777777"/>
<path d="M48.8207 50.7976H51.8429V53.8198H48.8207V50.7976Z" fill="#777777"/>
<path d="M54.865 50.7976H57.8872V53.8198H54.865V50.7976Z" fill="#777777"/>
<path d="M60.9093 50.7976H63.9315V53.8198H60.9093V50.7976Z" fill="#777777"/>
<path d="M87.9384 19.1475C87.3503 16.7355 85.3471 14.9278 82.8872 14.5906C80.4272 14.2534 78.0116 15.4546 76.7956 17.6202C75.2506 17.3612 73.6805 17.9131 72.6372 19.0811C69.9566 18.8819 67.5528 20.7257 67.0503 23.3672C66.5478 26.0079 68.1061 28.605 70.6731 29.4049C70.9158 29.5598 71.1984 29.6424 71.4869 29.6424H89.6199C89.8877 29.6424 90.1497 29.5664 90.3754 29.4233C92.8944 28.6744 94.4822 26.1901 94.103 23.59C93.723 20.9899 91.4925 19.0619 88.8643 19.0649C88.5537 19.0649 88.2438 19.0922 87.9384 19.1475ZM91.131 24.3536C91.1317 25.4309 90.3732 26.3591 89.3181 26.5745C89.2606 26.5863 89.2045 26.6018 89.1484 26.6203H71.9598C71.9038 26.6018 71.8462 26.5863 71.7879 26.5745C70.6465 26.3428 69.8666 25.2833 69.9839 24.1249C70.1012 22.9658 71.0781 22.0848 72.2424 22.087C72.4623 22.0914 72.68 22.1298 72.888 22.1984C73.5934 22.4102 74.3482 22.0826 74.6758 21.423C74.8691 21.0437 75.213 20.7626 75.6239 20.6475C76.0342 20.5331 76.4739 20.5951 76.8362 20.8187C77.2501 21.0865 77.7681 21.136 78.2248 20.9515C78.6815 20.767 79.0194 20.3708 79.1301 19.8912C79.533 18.3292 81.0942 17.3612 82.6725 17.6947C84.2507 18.0282 85.2866 19.5444 85.0232 21.136C84.9059 21.7579 85.1885 22.3866 85.7308 22.712C86.2738 23.0381 86.9615 22.9909 87.4551 22.5946C88.1295 22.0383 89.0658 21.924 89.8545 22.301C90.6433 22.678 91.1413 23.4793 91.131 24.3536V24.3536Z" fill="#777777"/>
<path d="M58.6427 84.0414C58.332 84.0414 58.0222 84.0687 57.7167 84.124C57.1286 81.7121 55.1254 79.9044 52.6655 79.5672C50.2055 79.23 47.7899 80.4312 46.5739 82.5967C45.0289 82.3378 43.4588 82.8897 42.4155 84.0576C39.735 83.8584 37.3311 85.7023 36.8286 88.3437C36.3262 90.9844 37.8845 93.5816 40.4514 94.3814C40.6941 94.5363 40.9767 94.619 41.2652 94.619H59.3982C59.666 94.619 59.928 94.543 60.1538 94.3998C62.6727 93.6509 64.2605 91.1667 63.8813 88.5665C63.5013 85.9664 61.2708 84.0385 58.6427 84.0414V84.0414ZM59.0964 91.5511C59.0389 91.5629 58.9828 91.5784 58.9267 91.5968H41.7382C41.6821 91.5784 41.6245 91.5629 41.5663 91.5511C40.4248 91.3194 39.6449 90.2599 39.7623 89.1015C39.8796 87.9423 40.8565 87.0614 42.0208 87.0636C42.2406 87.068 42.4583 87.1064 42.6664 87.175C43.3717 87.3867 44.1265 87.0591 44.4541 86.3995C44.6474 86.0203 44.9913 85.7384 45.4015 85.6233C45.8125 85.509 46.2522 85.5709 46.6145 85.7952C47.0284 86.0631 47.5464 86.1125 48.0031 85.9281C48.4598 85.7436 48.7978 85.3474 48.9084 84.8678C49.3113 83.3058 50.8725 82.3378 52.4508 82.6713C54.029 83.0048 55.0649 84.521 54.8015 86.1125C54.6842 86.7345 54.9668 87.3631 55.5091 87.6885C56.0521 88.0146 56.7398 87.9674 57.2334 87.5712C57.9646 86.9728 58.9909 86.8909 59.8077 87.3661C60.6252 87.8413 61.0613 88.7731 60.9027 89.705C60.7448 90.6369 60.0246 91.3725 59.0964 91.5511V91.5511Z" fill="#777777"/>
<path d="M27.495 10.081C26.907 7.66899 24.9037 5.8613 22.4438 5.52411C19.9839 5.18692 17.5682 6.38811 16.3523 8.55365C14.8072 8.29393 13.2371 8.84583 12.1938 10.0146C9.51327 9.81534 7.10941 11.6592 6.60695 14.3006C6.10448 16.9413 7.66279 19.5385 10.2297 20.3383C10.4725 20.4933 10.755 20.5759 11.0435 20.5759H29.1765C29.4444 20.5759 29.7063 20.4999 29.9321 20.3568C32.451 19.6079 34.0389 17.1236 33.6596 14.5235C33.2796 11.9233 31.0492 9.99538 28.421 9.99833C28.1104 9.99833 27.8005 10.0256 27.495 10.081V10.081ZM30.6876 15.2871C30.6884 16.3644 29.9299 17.2925 28.8748 17.508C28.8172 17.5198 28.7611 17.5353 28.7051 17.5537H11.5165C11.4604 17.5353 11.4036 17.5198 11.3461 17.508C10.2046 17.2763 9.42473 16.2175 9.54205 15.0591C9.65863 13.9007 10.6348 13.019 11.7991 13.0205C12.019 13.0249 12.2366 13.0633 12.4447 13.1319C13.1501 13.3437 13.9049 13.0161 14.2325 12.3564C14.4258 11.9772 14.7696 11.6953 15.1798 11.5802C15.5908 11.4659 16.0306 11.5279 16.3928 11.7522C16.8068 12.02 17.3247 12.0694 17.7814 11.885C18.2382 11.7005 18.5761 11.3043 18.6868 10.8247C19.0896 9.26271 20.6509 8.29467 22.2291 8.62817C23.8073 8.96167 24.8432 10.4779 24.5798 12.0694C24.4625 12.6914 24.7451 13.3201 25.2874 13.6454C25.8305 13.9716 26.5181 13.9243 27.0117 13.5281C27.6861 12.9718 28.6224 12.8574 29.4112 13.2345C30.1999 13.6115 30.6979 14.4128 30.6876 15.2871Z" fill="#777777"/>
</g>
<defs>
<clipPath id="clip0">
<rect width="90" height="90" fill="white" transform="translate(5 5)"/>
</clipPath>
</defs>
</svg>
