<svg width="100" height="100" viewBox="0 0 100 100" fill="none" xmlns="http://www.w3.org/2000/svg">
<path d="M70.3906 6.40625H29.6094C28.3045 6.40769 27.0534 6.92671 26.1307 7.84943C25.208 8.77215 24.6889 10.0232 24.6875 11.3281V88.6719C24.6889 89.9768 25.208 91.2279 26.1307 92.1506C27.0534 93.0733 28.3045 93.5923 29.6094 93.5938H70.3906C71.6955 93.5923 72.9466 93.0733 73.8693 92.1506C74.792 91.2279 75.3111 89.9768 75.3125 88.6719V11.3281C75.3111 10.0232 74.792 8.77215 73.8693 7.84943C72.9466 6.92671 71.6955 6.40769 70.3906 6.40625V6.40625ZM56.6357 9.21875L55.9326 12.0312H44.0674L43.3643 9.21875H56.6357ZM72.5 88.6719C72.4995 89.2312 72.2771 89.7674 71.8817 90.1629C71.4862 90.5584 70.9499 90.7808 70.3906 90.7812H29.6094C29.0501 90.7808 28.5138 90.5584 28.1183 90.1629C27.7229 89.7674 27.5005 89.2312 27.5 88.6719V11.3281C27.5005 10.7688 27.7229 10.2326 28.1183 9.83709C28.5138 9.4416 29.0501 9.21922 29.6094 9.21875H40.4639L41.6047 13.7785C41.6807 14.0827 41.8563 14.3528 42.1034 14.5458C42.3506 14.7388 42.6552 14.8437 42.9688 14.8438H57.0312C57.3448 14.8437 57.6494 14.7388 57.8966 14.5458C58.1437 14.3528 58.3193 14.0827 58.3953 13.7785L59.5361 9.21875H70.3906C70.9499 9.21922 71.4862 9.4416 71.8817 9.83709C72.2771 10.2326 72.4995 10.7688 72.5 11.3281V88.6719Z" fill="#777777"/>
<path d="M55.625 86.5625H44.375C44.002 86.5625 43.6444 86.7107 43.3806 86.9744C43.1169 87.2381 42.9688 87.5958 42.9688 87.9688C42.9688 88.3417 43.1169 88.6994 43.3806 88.9631C43.6444 89.2268 44.002 89.375 44.375 89.375H55.625C55.998 89.375 56.3556 89.2268 56.6194 88.9631C56.8831 88.6994 57.0312 88.3417 57.0312 87.9688C57.0312 87.5958 56.8831 87.2381 56.6194 86.9744C56.3556 86.7107 55.998 86.5625 55.625 86.5625Z" fill="#777777"/>
<path d="M50 50C49.2596 50.0012 48.5325 50.1966 47.8913 50.5668C47.2501 50.9369 46.7172 51.4688 46.3459 52.1094C46.2508 52.2694 46.1885 52.4467 46.1625 52.631C46.1365 52.8153 46.1473 53.003 46.1944 53.183C46.2414 53.3631 46.3238 53.5321 46.4366 53.6801C46.5495 53.8281 46.6906 53.9523 46.8518 54.0453C47.0129 54.1384 47.191 54.1986 47.3756 54.2223C47.5602 54.246 47.7477 54.2329 47.9272 54.1836C48.1067 54.1343 48.2746 54.0499 48.4212 53.9352C48.5679 53.8206 48.6903 53.6779 48.7813 53.5156C48.9049 53.3018 49.0826 53.1242 49.2965 53.0007C49.5104 52.8773 49.753 52.8123 50 52.8123C50.247 52.8123 50.4897 52.8773 50.7036 53.0007C50.9175 53.1242 51.0952 53.3018 51.2187 53.5156C51.3098 53.6779 51.4322 53.8206 51.5788 53.9352C51.7254 54.0499 51.8934 54.1343 52.0728 54.1836C52.2523 54.2329 52.4398 54.246 52.6244 54.2223C52.809 54.1986 52.9871 54.1384 53.1483 54.0453C53.3095 53.9523 53.4506 53.8281 53.5634 53.6801C53.6763 53.5321 53.7586 53.3631 53.8057 53.183C53.8528 53.003 53.8636 52.8153 53.8376 52.631C53.8116 52.4467 53.7492 52.2694 53.6542 52.1094C53.2828 51.4688 52.75 50.9369 52.1087 50.5668C51.4675 50.1966 50.7404 50.0012 50 50Z" fill="#777777"/>
<path d="M50 45.7812C48.5195 45.7842 47.0656 46.1751 45.7833 46.9152C44.501 47.6552 43.4351 48.7185 42.6919 49.999C42.5083 50.3216 42.4597 50.7037 42.5568 51.0621C42.6538 51.4204 42.8886 51.7258 43.2099 51.9117C43.5313 52.0976 43.913 52.1489 44.272 52.0544C44.631 51.9599 44.9381 51.7273 45.1263 51.4073C45.6203 50.5519 46.3307 49.8415 47.1862 49.3477C48.0417 48.8538 49.0122 48.5938 50 48.5938C50.9878 48.5938 51.9583 48.8538 52.8138 49.3477C53.6693 49.8415 54.3797 50.5519 54.8737 51.4073C55.0619 51.7273 55.369 51.9599 55.728 52.0544C56.087 52.1489 56.4687 52.0976 56.7901 51.9117C57.1114 51.7258 57.3462 51.4204 57.4432 51.0621C57.5403 50.7037 57.4917 50.3216 57.3081 49.999C56.5649 48.7185 55.499 47.6552 54.2167 46.9152C52.9344 46.1751 51.4805 45.7842 50 45.7812Z" fill="#777777"/>
<path d="M50 41.5625C47.7789 41.5666 45.5977 42.1532 43.6741 43.2635C41.7505 44.3739 40.1517 45.9694 39.0373 47.8906C38.9396 48.0507 38.8749 48.2287 38.847 48.4142C38.8191 48.5996 38.8286 48.7888 38.8749 48.9705C38.9212 49.1522 39.0034 49.3228 39.1167 49.4723C39.2299 49.6218 39.3719 49.7471 39.5343 49.8409C39.6967 49.9347 39.8762 49.9951 40.0623 50.0185C40.2483 50.0419 40.4372 50.0278 40.6177 49.9771C40.7983 49.9264 40.9669 49.8401 41.1136 49.7233C41.2603 49.6065 41.3822 49.4615 41.472 49.2969C42.3365 47.8001 43.5797 46.5573 45.0766 45.6932C46.5736 44.8291 48.2716 44.3742 50 44.3742C51.7285 44.3742 53.4265 44.8291 54.9234 45.6932C56.4204 46.5573 57.6636 47.8001 58.528 49.2969C58.6179 49.4615 58.7397 49.6065 58.8864 49.7233C59.0331 49.8401 59.2017 49.9264 59.3823 49.9771C59.5628 50.0278 59.7517 50.0419 59.9378 50.0185C60.1239 49.9951 60.3034 49.9347 60.4658 49.8409C60.6282 49.7471 60.7701 49.6218 60.8834 49.4723C60.9966 49.3228 61.0788 49.1522 61.1251 48.9705C61.1714 48.7888 61.1809 48.5996 61.1531 48.4142C61.1252 48.2287 61.0605 48.0507 60.9628 47.8906C59.8483 45.9694 58.2495 44.3739 56.3259 43.2635C54.4023 42.1532 52.2211 41.5666 50 41.5625Z" fill="#777777"/>
<path d="M50 33.125C46.9406 33.125 43.9498 34.0322 41.406 35.732C38.8622 37.4317 36.8795 39.8476 35.7087 42.6741C34.538 45.5007 34.2316 48.6109 34.8285 51.6115C35.4253 54.6122 36.8986 57.3685 39.0619 59.5318C41.2253 61.6951 43.9816 63.1684 46.9822 63.7653C49.9828 64.3621 53.0931 64.0558 55.9196 62.885C58.7462 61.7142 61.1621 59.7315 62.8618 57.1877C64.5615 54.6439 65.4688 51.6532 65.4688 48.5937C65.4641 44.4926 63.8329 40.5608 60.9329 37.6608C58.033 34.7609 54.1011 33.1297 50 33.125V33.125ZM50 61.25C47.4968 61.25 45.0499 60.5077 42.9686 59.117C40.8873 57.7263 39.2651 55.7497 38.3072 53.4371C37.3492 51.1244 37.0986 48.5797 37.5869 46.1246C38.0753 43.6696 39.2807 41.4144 41.0507 39.6444C42.8207 37.8744 45.0758 36.669 47.5309 36.1807C49.986 35.6923 52.5307 35.943 54.8433 36.9009C57.156 37.8588 59.1326 39.481 60.5233 41.5623C61.914 43.6436 62.6563 46.0906 62.6563 48.5937C62.6525 51.9492 61.3179 55.1662 58.9452 57.5389C56.5725 59.9116 53.3555 61.2462 50 61.25V61.25Z" fill="#777777"/>
</svg>
