<svg width="100" height="100" viewBox="0 0 100 100" fill="none" xmlns="http://www.w3.org/2000/svg">
<g clip-path="url(#clip0)">
<path d="M40.1132 82.4525C31.4324 79.7533 25.5999 71.8261 25.5999 62.7264C25.5999 58.2786 26.9924 54.041 29.6269 50.4718C29.687 50.3903 29.7413 50.3013 29.7866 50.2108C30.2219 49.3403 29.8683 48.2831 28.9977 47.8478C28.2098 47.4532 27.2673 47.7067 26.7728 48.4035C23.6998 52.5781 22.0754 57.5303 22.0754 62.7264C22.0754 67.9884 23.737 72.9915 26.8803 77.1943C29.9186 81.2567 34.2463 84.3195 39.0667 85.8182C39.241 85.8725 39.4172 85.8982 39.5905 85.8982C40.3418 85.8982 41.0381 85.4137 41.2728 84.6586C41.5618 83.7291 41.0426 82.7415 40.1132 82.4525V82.4525Z" fill="#777777"/>
<path d="M85.2875 46.1822C85.2875 42.8276 84.2421 39.6316 82.2637 36.9363L71.1079 20.3754C70.7803 19.8891 70.2325 19.5977 69.6462 19.5977C69.0599 19.5977 68.5121 19.8891 68.1845 20.3754L63.4836 27.3537L48.9489 5.77772C48.6215 5.29149 48.0735 5 47.4874 5C46.9012 5 46.3533 5.29149 46.0259 5.77772L21.0753 42.8156C16.9123 48.4729 14.7124 55.1832 14.7124 62.225C14.7124 80.2971 29.4153 95 47.4874 95C65.5595 95 80.2624 80.2971 80.2624 62.225C80.2624 60.7824 80.166 59.3371 79.9786 57.9143C83.2316 55.0459 85.2875 50.85 85.2875 46.1822V46.1822ZM69.6462 24.5144L79.34 38.9046C79.3594 38.9346 79.3798 38.964 79.4011 38.9929C80.9462 41.0854 81.7628 43.5713 81.7628 46.1821C81.7628 52.8631 76.3274 58.2985 69.6462 58.2985C62.9652 58.2985 57.5297 52.8631 57.5297 46.1821C57.5297 43.5713 58.3464 41.0854 59.8915 38.9929C59.9119 38.9653 59.9315 38.9371 59.9503 38.908L64.9418 31.4982C64.951 31.4847 64.9605 31.4713 64.9693 31.4573L69.6462 24.5144ZM76.7375 62.225C76.7375 78.3538 63.6158 91.4753 47.4872 91.4753C31.3584 91.4753 18.2369 78.3538 18.2369 62.225C18.2369 55.9257 20.209 49.924 23.9402 44.8693C23.9615 44.8406 23.9821 44.8104 24.0021 44.7796L47.4874 9.91658L61.359 30.5081L57.0287 36.9365C55.0505 39.6316 54.0051 42.8278 54.0051 46.1822C54.0051 54.8068 61.0217 61.8234 69.6462 61.8234C72.1681 61.8234 74.552 61.2226 76.6637 60.158C76.7118 60.8453 76.7375 61.5354 76.7375 62.225Z" fill="#777777"/>
<path d="M63.4324 45.7524C63.4324 44.8986 63.6063 44.0745 63.9493 43.3031C64.3448 42.4137 63.9442 41.3721 63.0549 40.9768C62.1654 40.5819 61.1241 40.9818 60.7286 41.8712C60.1839 43.0964 59.9077 44.4021 59.9077 45.7524C59.9077 48.9509 61.4966 51.924 64.158 53.7046C64.459 53.9061 64.7994 54.0023 65.1364 54.0023C65.7049 54.0023 66.2629 53.7277 66.6027 53.22C67.1439 52.4109 66.9269 51.3163 66.118 50.7751C64.4364 49.6498 63.4324 47.7722 63.4324 45.7524V45.7524Z" fill="#777777"/>
<path d="M46.6516 84.894C46.2202 83.7601 44.6105 83.4367 43.7772 84.323C42.7852 85.2844 43.3192 87.0495 44.6795 87.2961C46.0283 87.5916 47.2039 86.1601 46.6516 84.894Z" fill="#777777"/>
<path d="M68.7178 55.3112C69.8541 56.0982 71.4815 55.228 71.4582 53.8467C71.4837 52.4652 69.8532 51.5932 68.7178 52.3804C67.6886 53.0254 67.6845 54.6683 68.7178 55.3112Z" fill="#777777"/>
</g>
<defs>
<clipPath id="clip0">
<rect width="90" height="90" fill="white" transform="translate(5 5)"/>
</clipPath>
</defs>
</svg>
