<svg width="100" height="100" viewBox="0 0 100 100" fill="none" xmlns="http://www.w3.org/2000/svg">
<path fill-rule="evenodd" clip-rule="evenodd" d="M52.0197 35.2687H74.6574C76.0237 35.2687 76.8757 36.7498 76.189 37.931L74.4043 41H70.3046L71.577 38.812H49.3819C48.1228 38.812 47.2657 37.5355 47.7421 36.37L50.6237 29.3213C51.5136 27.1453 54.7929 28.4865 53.903 30.6624L52.0197 35.2687ZM48.8643 73L47.3231 80.5185L51.6954 73H55.7962L44.9466 91.6578C43.9376 93.3928 41.2764 92.3774 41.6795 90.4114L45.2483 73H48.8643ZM30.4707 41L39.3365 10.997H58.116L56.6579 14.5616C55.7645 16.7475 59.0456 18.0886 59.939 15.9028L62.3952 9.89596C62.8718 8.73039 62.0145 7.45374 60.7554 7.45374H38.0113C37.214 7.45374 36.5373 7.98523 36.3176 8.71338C36.3163 8.71474 30.8337 27.2698 26.7791 40.9921C26.7783 40.9948 26.7775 40.9974 26.7767 41H30.4707ZM53.5095 22.612C53.5095 21.6335 54.3027 20.8404 55.2812 20.8404C56.2597 20.8404 57.0528 21.6335 57.0528 22.612C57.0528 23.5905 56.2597 24.3837 55.2812 24.3837C54.3027 24.3837 53.5095 23.5905 53.5095 22.612Z" fill="#777777"/>
<rect x="14" y="47" width="73" height="20" rx="4" stroke="#777777" stroke-width="3"/>
<path d="M28.0074 61H26.2974L23.4374 56.67V61H21.7274V53.98H23.4374L26.2974 58.33V53.98H28.0074V61ZM32.567 61.07C31.907 61.07 31.3003 60.9167 30.747 60.61C30.2003 60.3033 29.7636 59.8767 29.437 59.33C29.117 58.7767 28.957 58.1567 28.957 57.47C28.957 56.7833 29.117 56.1667 29.437 55.62C29.7636 55.0733 30.2003 54.6467 30.747 54.34C31.3003 54.0333 31.907 53.88 32.567 53.88C33.227 53.88 33.8303 54.0333 34.377 54.34C34.9303 54.6467 35.3636 55.0733 35.677 55.62C35.997 56.1667 36.157 56.7833 36.157 57.47C36.157 58.1567 35.997 58.7767 35.677 59.33C35.357 59.8767 34.9236 60.3033 34.377 60.61C33.8303 60.9167 33.227 61.07 32.567 61.07ZM32.567 59.51C33.127 59.51 33.5736 59.3233 33.907 58.95C34.247 58.5767 34.417 58.0833 34.417 57.47C34.417 56.85 34.247 56.3567 33.907 55.99C33.5736 55.6167 33.127 55.43 32.567 55.43C32.0003 55.43 31.547 55.6133 31.207 55.98C30.8736 56.3467 30.707 56.8433 30.707 57.47C30.707 58.09 30.8736 58.5867 31.207 58.96C31.547 59.3267 32.0003 59.51 32.567 59.51ZM43.3883 61H41.6783L38.8183 56.67V61H37.1083V53.98H38.8183L41.6783 58.33V53.98H43.3883V61ZM51.797 53.98V55.35H49.937V61H48.227V55.35H46.367V53.98H51.797ZM57.0252 59.76H54.4052L53.9852 61H52.1952L54.7352 53.98H56.7152L59.2552 61H57.4452L57.0252 59.76ZM56.5852 58.44L55.7152 55.87L54.8552 58.44H56.5852ZM64.6882 56.2C64.5615 55.9667 64.3782 55.79 64.1382 55.67C63.9049 55.5433 63.6282 55.48 63.3082 55.48C62.7549 55.48 62.3115 55.6633 61.9782 56.03C61.6449 56.39 61.4782 56.8733 61.4782 57.48C61.4782 58.1267 61.6515 58.6333 61.9982 59C62.3515 59.36 62.8349 59.54 63.4482 59.54C63.8682 59.54 64.2215 59.4333 64.5082 59.22C64.8015 59.0067 65.0149 58.7 65.1482 58.3H62.9782V57.04H66.6982V58.63C66.5715 59.0567 66.3549 59.4533 66.0482 59.82C65.7482 60.1867 65.3649 60.4833 64.8982 60.71C64.4315 60.9367 63.9049 61.05 63.3182 61.05C62.6249 61.05 62.0049 60.9 61.4582 60.6C60.9182 60.2933 60.4949 59.87 60.1882 59.33C59.8882 58.79 59.7382 58.1733 59.7382 57.48C59.7382 56.7867 59.8882 56.17 60.1882 55.63C60.4949 55.0833 60.9182 54.66 61.4582 54.36C61.9982 54.0533 62.6149 53.9 63.3082 53.9C64.1482 53.9 64.8549 54.1033 65.4282 54.51C66.0082 54.9167 66.3915 55.48 66.5782 56.2H64.6882ZM69.3554 59.68H71.5954V61H67.6454V53.98H69.3554V59.68ZM74.121 53.98V61H72.411V53.98H74.121ZM77.9002 61.07C77.3869 61.07 76.9269 60.9867 76.5202 60.82C76.1136 60.6533 75.7869 60.4067 75.5402 60.08C75.3002 59.7533 75.1736 59.36 75.1602 58.9H76.9802C77.0069 59.16 77.0969 59.36 77.2502 59.5C77.4036 59.6333 77.6036 59.7 77.8502 59.7C78.1036 59.7 78.3036 59.6433 78.4502 59.53C78.5969 59.41 78.6702 59.2467 78.6702 59.04C78.6702 58.8667 78.6102 58.7233 78.4902 58.61C78.3769 58.4967 78.2336 58.4033 78.0602 58.33C77.8936 58.2567 77.6536 58.1733 77.3402 58.08C76.8869 57.94 76.5169 57.8 76.2302 57.66C75.9436 57.52 75.6969 57.3133 75.4902 57.04C75.2836 56.7667 75.1802 56.41 75.1802 55.97C75.1802 55.3167 75.4169 54.8067 75.8902 54.44C76.3636 54.0667 76.9802 53.88 77.7402 53.88C78.5136 53.88 79.1369 54.0667 79.6102 54.44C80.0836 54.8067 80.3369 55.32 80.3702 55.98H78.5202C78.5069 55.7533 78.4236 55.5767 78.2702 55.45C78.1169 55.3167 77.9202 55.25 77.6802 55.25C77.4736 55.25 77.3069 55.3067 77.1802 55.42C77.0536 55.5267 76.9902 55.6833 76.9902 55.89C76.9902 56.1167 77.0969 56.2933 77.3102 56.42C77.5236 56.5467 77.8569 56.6833 78.3102 56.83C78.7636 56.9833 79.1302 57.13 79.4102 57.27C79.6969 57.41 79.9436 57.6133 80.1502 57.88C80.3569 58.1467 80.4602 58.49 80.4602 58.91C80.4602 59.31 80.3569 59.6733 80.1502 60C79.9502 60.3267 79.6569 60.5867 79.2702 60.78C78.8836 60.9733 78.4269 61.07 77.9002 61.07Z" fill="#777777"/>
</svg>
