<svg width="100" height="100" viewBox="0 0 100 100" fill="none" xmlns="http://www.w3.org/2000/svg">
<path d="M57.5001 9.5H42.5001C41.6722 9.5 41.0002 10.172 41.0002 10.9999C41.0002 11.8279 41.6722 12.4999 42.5001 12.4999H57.5001C58.328 12.4999 59 11.8279 59 10.9999C59 10.172 58.328 9.5 57.5001 9.5Z" fill="#777777"/>
<path d="M68 9.5H66.5001C65.6721 9.5 65.0001 10.172 65.0001 10.9999C65.0001 11.8279 65.6721 12.4999 66.5001 12.4999H68C68.8279 12.4999 69.5 11.8279 69.5 10.9999C69.5 10.172 68.8279 9.5 68 9.5Z" fill="#777777"/>
<path d="M51.8629 81.5H48.1385C45.857 81.5 44.0001 83.357 44.0001 85.6384V86.363C44.0001 88.6444 45.857 90.5 48.1371 90.5H51.8615C54.143 90.5 55.9999 88.6444 55.9999 86.363V85.6384C55.9999 83.357 54.143 81.5 51.8629 81.5ZM53.0001 86.363C53.0001 86.99 52.4901 87.4999 51.8631 87.4999H48.1385C47.5101 87.4999 46.9999 86.99 46.9999 86.363V85.6384C46.9999 85.01 47.5099 84.4999 48.1385 84.4999H51.8615C52.4901 84.4999 53.0001 85.0098 53.0001 85.6384V86.363V86.363Z" fill="#777777"/>
<path d="M70.079 5H29.9224C26.9329 5 24.4999 7.43299 24.4999 10.4225V89.5775C24.4999 92.567 26.9329 95 29.9224 95H70.0774C73.0669 95 75.4999 92.567 75.4999 89.5791V10.4225C75.5 7.43299 73.0671 5 70.079 5ZM72.5 89.5775C72.5 90.9126 71.414 91.9999 70.079 91.9999H29.9224C28.586 91.9999 27.5 90.9124 27.5 89.5789V10.4225C27.5 9.08744 28.586 8.00006 29.9224 8.00006H70.0774C71.4138 8.00006 72.4998 9.08762 72.4998 10.4225V89.5775H72.5Z" fill="#777777"/>
<path d="M74 14H26.0001C25.1721 14 24.5001 14.672 24.5001 15.4999V78.4999C24.5001 79.3279 25.1721 79.9999 26.0001 79.9999H74.0001C74.8281 79.9999 75.5001 79.3279 75.5001 78.4999V15.4999C75.5001 14.672 74.8281 14 74 14ZM72.5 77H27.5V17.0001H72.5V77Z" fill="#777777"/>
</svg>
