<svg width="100" height="100" viewBox="0 0 100 100" fill="none" xmlns="http://www.w3.org/2000/svg">
<g clip-path="url(#clip0)">
<path d="M15.7228 85.5224C15.7228 90.7482 19.9549 95 25.1567 95H80.9635C82.7883 95 84.2731 93.5159 84.2731 91.6916L84.2773 70.4154C84.2773 69.6872 83.6871 69.0971 82.959 69.0971C82.2309 69.0971 81.6406 69.6872 81.6406 70.4154V76.0448H28.3244V7.63672H80.9683C81.339 7.63672 81.6406 7.93837 81.6406 8.30891V64.8036C81.6406 65.5319 82.2309 66.122 82.959 66.122C83.6871 66.122 84.2773 65.5319 84.2773 64.8036V8.30891C84.2773 6.4843 82.7929 5.00001 80.9683 5.00001H25.1567C19.9138 4.99403 15.6197 9.35253 15.7316 14.6258V23.1719C15.791 24.9151 18.3077 24.9187 18.3683 23.1719V14.4776C18.3265 10.5078 21.7669 7.3713 25.6875 7.63672V76.0448C22.8782 75.9167 20.187 77.0246 18.3682 78.951V28.886C18.3682 28.1578 17.7779 27.5677 17.0498 27.5677C16.3217 27.5677 15.7315 28.1578 15.7315 28.886L15.7228 85.5224ZM81.6364 78.6815V91.6916C81.6364 92.062 81.3346 92.3633 80.9635 92.3633H25.1567C21.4477 92.3633 18.4248 89.3574 18.3624 85.6393C18.3726 85.5584 18.3669 85.2579 18.3683 85.1719C18.5503 81.5621 21.5256 78.6817 25.1567 78.6817H27.0061H81.6364V78.6815Z" fill="#336633"/>
<path d="M25.6725 85.5224C25.6725 86.2507 26.2628 86.8408 26.9909 86.8408H44.3984C45.1264 86.8408 45.7167 86.2507 45.7167 85.5224C45.7167 84.7941 45.1264 84.204 44.3984 84.204H26.9909C26.2626 84.204 25.6725 84.7941 25.6725 85.5224V85.5224Z" fill="#336633"/>
<path d="M54.0693 86.8408H73.2386C74.9784 86.7831 74.9884 84.2657 73.2386 84.204H54.0693C52.3296 84.2617 52.3196 86.7791 54.0693 86.8408Z" fill="#336633"/>
<path d="M42.1391 70.7215H68.2239C68.952 70.7215 69.5423 70.1314 69.5423 69.4031C69.4347 66.2211 72.0034 63.5513 75.1931 63.5571C75.9212 63.5571 76.5115 62.967 76.5115 62.2388V21.2438C76.5115 20.5155 75.9212 19.9254 75.1931 19.9254C72.0772 19.9254 69.5423 17.3922 69.5423 14.2786C69.5423 13.5504 68.952 12.9603 68.2239 12.9603H42.1391C41.411 12.9603 40.8207 13.5504 40.8207 14.2786C40.8207 17.3922 38.2858 19.9254 35.1699 19.9254C34.4418 19.9254 33.8515 20.5155 33.8515 21.2438V62.2388C33.8515 62.967 34.4418 63.5571 35.1699 63.5571C38.2858 63.5571 40.8207 66.0903 40.8207 69.2039C40.7395 69.993 41.3226 70.7295 42.1391 70.7215V70.7215ZM36.4882 61.0252V22.4576C40.004 21.8935 42.7879 19.1112 43.3525 15.5972H67.0103C67.575 19.1112 70.3588 21.8935 73.8748 22.4576V61.0252C70.2927 61.5998 67.4704 64.477 66.9808 68.0847H43.3822C42.8925 64.4768 40.0705 61.5996 36.4882 61.0252V61.0252Z" fill="#336633"/>
<path d="M54.1142 55.9324C58.6863 56.0288 63.4468 53.0484 65.2986 48.6792C65.7942 47.5969 64.6416 46.4424 63.5586 46.9384C59.95 48.5431 55.6495 47.7467 52.8575 44.9565C50.066 42.1667 49.2691 37.8695 50.8747 34.2635C51.0967 33.765 50.9886 33.1813 50.6028 32.7952C50.2171 32.4094 49.6334 32.3008 49.1347 32.5226C47.7601 33.1338 46.5229 33.9837 45.4573 35.0486C37.7507 42.8144 43.2921 55.9184 54.1142 55.9324ZM47.3211 36.9138C47.3798 36.8551 47.4393 36.7972 47.4992 36.7403C46.5277 44.4998 53.3228 51.2846 61.0788 50.3138C57.3763 54.2186 51.1217 54.2994 47.3211 50.4897C43.5951 46.9163 43.5947 40.4871 47.3211 36.9138V36.9138Z" fill="#336633"/>
<path d="M57.4765 35.0943L56.921 38.3306C56.8361 38.8251 57.0393 39.325 57.4454 39.6201C57.8511 39.9149 58.3893 39.9537 58.8335 39.7207L61.7425 38.1922L64.6515 39.7207C65.0943 39.9534 65.6331 39.9156 66.0397 39.6201C66.4457 39.325 66.6489 38.8252 66.564 38.3306L66.0086 35.0943L68.3614 32.8021C68.7209 32.4519 68.8504 31.9277 68.6954 31.4505C68.5403 30.9733 68.1276 30.6254 67.6308 30.5533L64.3787 30.081L62.9245 27.1359C62.7023 26.6859 62.244 26.4012 61.7423 26.4012C61.2407 26.4012 60.7824 26.6859 60.5602 27.1359L59.106 30.081L55.8539 30.5533C55.3571 30.6254 54.9445 30.9734 54.7893 31.4505C54.6343 31.9279 54.7637 32.4519 55.1231 32.8021L57.4765 35.0943ZM60.171 32.5906C60.6005 32.5284 60.9715 32.2587 61.1637 31.8696L61.7427 30.6971L62.3217 31.8696C62.5138 32.2587 62.8851 32.5282 63.3144 32.5906L64.6074 32.7784L63.6722 33.6896C63.3613 33.9926 63.2194 34.4291 63.2927 34.857L63.5137 36.1444L62.3558 35.5358C62.1639 35.4351 61.9533 35.3847 61.7427 35.3847C61.5321 35.3847 61.3215 35.4351 61.1296 35.5358L59.9717 36.1444L60.1927 34.857C60.266 34.4291 60.1241 33.9926 59.8133 33.6896L58.878 32.7784L60.171 32.5906Z" fill="#336633"/>
</g>
<defs>
<clipPath id="clip0">
<rect width="90" height="90" fill="white" transform="translate(5 5)"/>
</clipPath>
</defs>
</svg>
