<svg width="100" height="100" viewBox="0 0 100 100" fill="none" xmlns="http://www.w3.org/2000/svg">
<g clip-path="url(#clip0)">
<path d="M41.7623 7.66649C39.2122 5.6044 35.8722 5.5877 33.8449 7.68442C31.441 10.1761 31.4404 14.2347 33.8439 16.7321C33.8516 16.7401 33.8595 16.7482 33.8676 16.7561L40.3462 23.1751C40.3801 23.2089 40.416 23.2407 40.4534 23.2704L40.4926 23.3017C40.8076 23.5527 41.1647 23.8373 41.7078 23.86C41.7261 23.8607 41.7444 23.861 41.7627 23.861C41.7802 23.861 41.7978 23.8607 41.8154 23.86C42.3647 23.838 42.7231 23.5524 43.0394 23.3001L43.0768 23.2704C43.1142 23.2405 43.1501 23.2085 43.1842 23.1748L48.8804 17.5232L49.6575 16.7561C49.6651 16.7486 49.6726 16.741 49.68 16.7333C52.09 14.2354 52.0896 10.1756 49.6804 7.68477C47.6554 5.58471 44.3132 5.60159 41.7623 7.66649V7.66649ZM47.7928 14.8916L41.7646 20.8687L36.497 15.6468L35.7327 14.8923C34.3118 13.4036 34.3148 10.9949 35.7414 9.51624C36.9988 8.21545 39.0393 8.74403 40.3232 9.90418C40.4172 9.98874 40.4932 10.0605 40.5556 10.1195C40.8171 10.3667 41.1754 10.7054 41.7625 10.7054C42.3549 10.7054 42.7092 10.3682 42.9678 10.122C43.03 10.0629 43.1062 9.99014 43.2042 9.90207C44.4871 8.74315 46.5276 8.21387 47.7837 9.51676C49.2144 10.9956 49.2172 13.4038 47.7928 14.8916Z" fill="#777777"/>
<path d="M42.0104 44.9484C40.2498 44.2731 38.2684 44.554 36.5743 45.7187C36.2996 45.9077 36.0387 46.1146 35.7933 46.3376V30.0944C35.7933 27.6041 33.7673 25.578 31.277 25.578C30.6066 25.578 29.9695 25.725 29.3968 25.9881C29.3615 23.5253 27.3493 21.533 24.881 21.533C22.9573 21.533 21.3104 22.7436 20.6609 24.4437C20.0152 24.0872 19.2734 23.8842 18.4852 23.8842C15.9921 23.8842 13.964 25.9103 13.964 28.4006V31.9844C13.5431 31.8325 13.0898 31.7499 12.6173 31.7499C10.3907 31.7499 8.50946 33.5764 8.50946 35.7385L8.51438 59.0296C8.53723 62.6078 9.64237 64.6104 10.7781 65.8383C10.0391 66.1877 9.52548 66.9383 9.52548 67.8084V77.9556C9.52548 78.6837 10.1157 79.2739 10.8438 79.2739C11.5719 79.2739 12.1622 78.6837 12.1622 77.9556V68.2651H37.1564V92.3385H12.1622V84.541C12.1622 83.813 11.5719 83.2227 10.8438 83.2227C10.1157 83.2227 9.52548 83.813 9.52548 84.541V92.7952C9.52548 93.9974 10.5033 94.9754 11.7055 94.9754H37.618C38.8173 94.9754 39.7931 93.9974 39.7931 92.7952V67.8084C39.7931 66.9559 39.3012 66.2181 38.5879 65.8599C39.4934 64.3644 40.0933 62.8069 40.3758 61.208C41.1851 56.6187 42.3308 53.605 43.1674 51.4045C43.7761 49.8032 44.1783 48.7451 44.1851 47.7692C44.1941 46.4556 43.4627 45.5067 42.0104 44.9484V44.9484ZM40.7029 50.4674C39.8783 52.6367 38.632 55.9149 37.7793 60.7496C37.4835 62.4236 36.7382 64.062 35.5641 65.6282H14.6513C14.4354 65.4357 14.1951 65.2621 13.9478 65.0835C12.7785 64.2397 11.1771 63.0841 11.1511 59.021L11.1462 35.7384C11.1462 35.031 11.8474 34.3868 12.6173 34.3868C13.3598 34.3868 13.964 34.9931 13.964 35.7384V43.0111C13.964 43.7392 14.5542 44.3295 15.2823 44.3295C16.0104 44.3295 16.6007 43.7392 16.6007 43.0111V28.4007C16.6007 27.3643 17.446 26.5211 18.4852 26.5211C19.5216 26.5211 20.3649 27.3643 20.3649 28.4007V43.2701C20.3649 43.9982 20.9551 44.5884 21.6832 44.5884C22.4113 44.5884 23.0016 43.9982 23.0016 43.2701V26.0544C23.0016 25.0152 23.8448 24.1697 24.8812 24.1697C25.9176 24.1697 26.7608 25.0152 26.7608 26.0544V42.1591C26.7608 42.8872 27.3511 43.4775 28.0792 43.4775C28.8073 43.4775 29.3975 42.8872 29.3975 42.1591V30.0942C29.3975 29.0578 30.2408 28.2146 31.2772 28.2146C32.3136 28.2146 33.1568 29.0578 33.1568 30.0942V51.7545C30.3114 53.2963 27.7566 55.9026 27.1576 57.9541C26.9535 58.653 27.3546 59.385 28.0535 59.5891C28.1769 59.6251 28.3012 59.6423 28.4235 59.6423C28.9943 59.6423 29.5204 59.2688 29.6885 58.6931C30.0268 57.5344 32.1239 55.1112 35.0306 53.7607C35.4892 53.5477 35.7935 53.0709 35.7935 52.565C35.7935 50.6176 36.644 48.8703 38.0683 47.891C39.0362 47.2257 40.1288 47.0502 41.0656 47.4095C41.4062 47.5405 41.5187 47.6396 41.5444 47.6657C41.6339 48.0184 41.1396 49.3189 40.7029 50.4674V50.4674Z" fill="#777777"/>
<path d="M89.1057 67.8536C88.2262 66.9436 87.1529 66.3431 85.9893 66.0444V55.5042C85.9893 54.5628 85.4201 53.7526 84.6088 53.3993C85.6347 51.7362 86.3108 50.0056 86.6217 48.2316C87.5103 43.2034 88.7657 39.901 89.6824 37.4898C90.3437 35.7503 90.7807 34.6009 90.7883 33.5558C90.7983 32.1753 90.0254 31.1765 88.4903 30.5869C86.6052 29.8636 84.4811 30.1657 82.6633 31.4155C82.2891 31.6727 81.9391 31.9612 81.6156 32.2765V14.2338C81.6156 11.5786 79.4555 9.41844 76.8005 9.41844C76.0168 9.41844 75.2766 9.60652 74.622 9.93998V9.81518C74.622 7.16018 72.4618 5 69.8068 5C67.7033 5 65.9101 6.35316 65.2538 8.23385C64.5366 7.80916 63.7004 7.56535 62.8083 7.56535C60.1533 7.56535 57.9931 9.72553 57.9931 12.3807V16.4804C57.5004 16.2792 56.9616 16.1683 56.3974 16.1683C54.0277 16.1683 52.0255 18.1064 52.0255 20.4012L52.0355 45.8683C52.0589 49.8726 53.3347 52.0526 54.6044 53.3669C53.7497 53.7002 53.1414 54.5315 53.1414 55.5044V71.7586C53.1414 72.4866 53.7316 73.0769 54.4597 73.0769C55.1878 73.0769 55.7781 72.4866 55.7781 71.7586V55.8465H57.9799C57.9808 55.8465 57.9817 55.8467 57.9827 55.8467C57.9836 55.8467 57.9845 55.8465 57.9854 55.8465H83.3525V65.8727C81.6418 66.0659 79.8988 66.8288 78.3895 68.1543C74.9861 65.1668 70.4015 65.0304 67.6781 67.8539C64.4989 71.1454 64.4986 76.5052 67.6774 79.8021C67.6845 79.8093 67.6915 79.8165 67.6985 79.8236L76.7741 88.8197C76.8079 88.8531 76.8434 88.8847 76.8805 88.9145L76.9502 88.9702C77.3631 89.3003 77.7532 89.6121 78.3509 89.6295C78.3637 89.6299 78.3767 89.6301 78.3895 89.6301C78.402 89.6301 78.4147 89.6299 78.4271 89.6295C79.0271 89.6123 79.4251 89.2936 79.81 88.9851L79.8986 88.9143C79.9357 88.8847 79.9714 88.8529 80.0051 88.8195L83.3525 85.5013V92.3633H55.7779V77.8459C55.7779 77.1178 55.1876 76.5275 54.4596 76.5275C53.7315 76.5275 53.1412 77.1178 53.1412 77.8459V92.7054C53.1412 93.9706 54.1683 95 55.4309 95H83.6994C84.962 95 85.9891 93.9706 85.9891 92.7054V82.8876L89.0834 79.8257C89.0913 79.8179 89.099 79.81 89.1066 79.8021C92.2856 76.5052 92.2852 71.1453 89.1057 67.8536V67.8536ZM81.5469 53.2098H58.5709C58.3303 52.9904 58.0592 52.7932 57.7787 52.5907C56.4788 51.6523 54.6984 50.3672 54.6721 45.86L54.6621 20.4007C54.6621 19.5656 55.4891 18.805 56.3972 18.805C57.277 18.805 57.9929 19.5208 57.9929 20.4007V28.361C57.9929 29.0891 58.5832 29.6793 59.3113 29.6793C60.0394 29.6793 60.6297 29.0891 60.6297 28.361V12.3807C60.6297 11.1794 61.607 10.2021 62.8081 10.2021C64.0092 10.2021 64.9866 11.1794 64.9866 12.3807V28.6399C64.9866 29.368 65.5768 29.9583 66.3049 29.9583C67.033 29.9583 67.6233 29.368 67.6233 28.6399V9.81535C67.6233 8.61406 68.6027 7.63672 69.8067 7.63672C71.0078 7.63672 71.9851 8.61406 71.9851 9.81535V27.4244C71.9851 28.1525 72.5754 28.7428 73.3035 28.7428C74.0316 28.7428 74.6218 28.1525 74.6218 27.4244V14.2338C74.6218 13.0325 75.5992 12.0552 76.8003 12.0552C78.0014 12.0552 78.9787 13.0325 78.9787 14.2338V37.9883C75.8667 39.6532 73.0634 42.4961 72.4116 44.7288C72.2075 45.4278 72.6088 46.1599 73.3077 46.3638C73.4311 46.3998 73.5554 46.4169 73.6777 46.4169C74.2485 46.4169 74.7746 46.0432 74.9426 45.4677C75.3192 44.1778 77.6402 41.4876 80.8519 39.9977C81.311 39.7848 81.6155 39.3079 81.6155 38.8017C81.6155 36.6313 82.5656 34.6822 84.1569 33.5882C85.2482 32.8379 86.4837 32.6411 87.5453 33.0485C88.1531 33.282 88.1524 33.3945 88.1514 33.5367C88.1471 34.1074 87.7369 35.1866 87.2176 36.5529C86.3174 38.9209 84.9571 42.4992 84.0246 47.7746C83.6983 49.6375 82.8646 51.4632 81.5469 53.2098V53.2098ZM87.2195 77.9606L78.3895 86.7084L69.5653 77.9615C67.3705 75.6737 67.3733 71.9644 69.5752 69.685C71.5601 67.6268 74.7407 68.4155 76.7272 70.2045C76.8662 70.3291 76.977 70.4347 77.0673 70.5207C77.3814 70.8195 77.7701 71.1892 78.3811 71.1892H78.3981C79.0092 71.1892 79.3978 70.8194 79.7119 70.5205C79.8023 70.4346 79.913 70.3289 80.0538 70.2027C81.2755 69.1025 82.9514 68.3821 84.5234 68.4704C84.5579 68.4743 84.593 68.4758 84.6284 68.4771C85.5714 68.5521 86.4725 68.923 87.2095 69.6857C89.4103 71.9642 89.4135 75.6729 87.2195 77.9606V77.9606Z" fill="#777777"/>
</g>
<defs>
<clipPath id="clip0">
<rect width="90" height="90" fill="white" transform="translate(5 5)"/>
</clipPath>
</defs>
</svg>
