<svg width="100" height="100" viewBox="0 0 100 100" fill="none" xmlns="http://www.w3.org/2000/svg">
<path fill-rule="evenodd" clip-rule="evenodd" d="M56.6602 6.90604L70.1713 14.7009L83.6824 22.4958C88.0624 25.0199 90.5617 29.3504 90.5617 34.3985V43.7771H66.212C62.7971 43.7771 60.0008 46.5734 60.0008 49.9883C60.0008 53.4032 62.7971 56.1994 66.212 56.1994H90.5617V65.578C90.5617 70.6261 88.0624 74.9566 83.6824 77.4807L70.1713 85.2756L56.6602 93.0705C52.2802 95.5945 47.2815 95.5945 42.9016 93.0705L29.3904 85.2756L15.8793 77.4807C11.4993 74.9566 9 70.6261 9 65.578V49.9883V34.3985C9 29.3504 11.4993 25.0199 15.8793 22.4958L29.3904 14.7009L42.9016 6.90604C47.2815 4.38199 52.2802 4.38199 56.6602 6.90604V6.90604ZM73.6604 26.9995C58.3676 26.9995 43.0995 26.9995 27.8067 26.9995C24.0206 26.9995 20.9274 30.0927 20.9274 33.8788V66.1472C20.9274 69.9333 24.0206 73.0265 27.8067 73.0265C43.0995 73.0265 58.3676 73.0265 73.6604 73.0265C75.2936 73.0265 76.6052 71.6902 76.6052 70.0817V60.1092H66.212C60.6442 60.1092 56.1158 55.5808 56.1158 50.013C56.1158 44.4452 60.6442 39.9168 66.212 39.9168H76.6052V29.9443C76.6052 28.311 75.2689 26.9995 73.6604 26.9995ZM67.573 47.291C69.0825 47.291 70.295 48.5035 70.295 50.013C70.295 51.5225 69.0825 52.735 67.573 52.735C66.0635 52.735 64.851 51.5225 64.851 50.013C64.851 48.5035 66.0635 47.291 67.573 47.291Z" fill="#ffffff"/>
</svg>
