<svg width="100" height="100" viewBox="0 0 100 100" fill="none" xmlns="http://www.w3.org/2000/svg">
<g clip-path="url(#clip0)">
<path fill-rule="evenodd" clip-rule="evenodd" d="M73.6409 26.9939C58.3583 26.9939 43.0762 26.9939 27.7936 26.9939C24.0054 26.9939 20.9155 30.0838 20.9155 33.8721V66.128C20.9155 69.9162 24.0054 73.0061 27.7936 73.0061C43.0762 73.0061 58.3583 73.0061 73.6409 73.0061C75.2646 73.0061 76.5888 71.6819 76.5888 70.0578V60.0885H66.1912C60.6347 60.0885 56.1026 55.556 56.1026 49.9999C56.1026 44.4435 60.6347 39.9114 66.1912 39.9114H76.5888V29.9421C76.5888 28.3179 75.2646 26.9938 73.6409 26.9938V26.9939ZM56.6474 6.89402L70.1542 14.6923L83.6614 22.4907C88.0356 25.016 90.5392 29.3525 90.5392 34.4032V43.7778V46.6224H87.6945C80.6362 46.6224 73.5778 46.6224 66.5196 46.6224C64.7081 46.6224 63.2194 48.0663 63.1454 49.8601L63.1433 49.913L63.1429 49.9297L63.142 49.9998L63.1429 50.0699L63.1433 50.0867L63.1454 50.1396C63.2194 51.9334 64.7098 53.3773 66.5196 53.3773C73.5779 53.3773 80.6363 53.3773 87.6945 53.3773H90.5392V56.2218V65.5965C90.5392 70.6472 88.0357 74.9836 83.6614 77.509L70.1542 85.3074L56.6474 93.1056C52.2732 95.631 47.2661 95.631 42.8918 93.1056L29.385 85.3074L15.8778 77.509C11.5036 74.9836 9 70.6472 9 65.5965V49.9998V34.4032C9 29.3525 11.5035 25.016 15.8778 22.4907L29.385 14.6923L42.8918 6.89402C47.266 4.36866 52.2731 4.36866 56.6474 6.89402V6.89402ZM87.6945 43.7778V34.4032C87.6945 30.3688 85.7328 26.9715 82.2394 24.9543L55.2249 9.35762C51.7315 7.34048 47.808 7.34048 44.3144 9.35762L17.3 24.9543C13.8065 26.9715 11.8448 30.3688 11.8448 34.4032V65.5966C11.8448 69.631 13.8065 73.0282 17.3 75.0455L44.3144 90.6421C47.8078 92.6593 51.7314 92.6593 55.2249 90.6421L82.2394 75.0455C85.7328 73.0282 87.6945 69.631 87.6945 65.5966V56.2219H66.1912C62.7687 56.2219 59.9691 53.4219 59.9691 49.9998C59.9691 46.5774 62.7687 43.7777 66.1912 43.7777H87.6945V43.7778ZM66.5288 48.0764C65.467 48.0764 64.6053 48.9379 64.6053 49.9999C64.6053 51.0621 65.4671 51.9235 66.5288 51.9235C67.5905 51.9235 68.452 51.062 68.452 49.9999C68.452 48.9377 67.5905 48.0764 66.5288 48.0764ZM73.7442 62.9332H66.1912C59.0648 62.9332 53.2581 57.1264 53.2581 50.0001C53.2581 42.8737 59.0648 37.067 66.1912 37.067H73.7442V29.9423C73.7442 29.8886 73.6947 29.8386 73.641 29.8386C58.3585 29.8386 43.0763 29.8386 27.7938 29.8386C25.5758 29.8386 23.7603 31.6542 23.7603 33.8722V66.1281C23.7603 68.3461 25.5759 70.1617 27.7938 70.1617C43.0763 70.1617 58.3585 70.1617 73.641 70.1617C73.6947 70.1617 73.7442 70.1117 73.7442 70.058V62.9333V62.9332Z" fill="#ffffff"/>
</g>
<defs>
<clipPath id="clip0">
<rect width="90" height="90" fill="white" transform="translate(5 5)"/>
</clipPath>
</defs>
</svg>
