<svg width="100" height="100" viewBox="0 0 100 100" fill="none" xmlns="http://www.w3.org/2000/svg">
<path d="M71 5H29C24.86 5.00488 21.5049 8.36 21.5 12.5V87.5C21.5049 91.64 24.86 94.9951 29 95H71C75.14 94.9951 78.4951 91.64 78.5 87.5V12.5C78.4951 8.36 75.14 5.00488 71 5ZM75.5 87.5C75.5 89.9853 73.4853 92 71 92H29C26.5147 92 24.5 89.9853 24.5 87.5V86H75.5V87.5ZM75.5 83H24.5V17H75.5V83ZM75.5 14H24.5V12.5C24.5 10.0147 26.5147 8 29 8H71C73.4853 8 75.5 10.0147 75.5 12.5V14Z" fill="#777777"/>
<path d="M47 9.5H44C43.1716 9.5 42.5 10.1716 42.5 11C42.5 11.8284 43.1716 12.5 44 12.5H47C47.8284 12.5 48.5 11.8284 48.5 11C48.5 10.1716 47.8284 9.5 47 9.5Z" fill="#777777"/>
<path d="M57.5 9.5H51.5C50.6716 9.5 50 10.1716 50 11C50 11.8284 50.6716 12.5 51.5 12.5H57.5C58.3284 12.5 59 11.8284 59 11C59 10.1716 58.3284 9.5 57.5 9.5Z" fill="#777777"/>
<path d="M54.5 87.5H45.5C44.6716 87.5 44 88.1716 44 89C44 89.8284 44.6716 90.5 45.5 90.5H54.5C55.3284 90.5 56 89.8284 56 89C56 88.1716 55.3284 87.5 54.5 87.5Z" fill="#777777"/>
</svg>
