<svg width="100" height="100" viewBox="0 0 100 100" fill="none" xmlns="http://www.w3.org/2000/svg">
<g clip-path="url(#clip0)">
<path d="M94.9155 89.4418L92.5546 77.0706C92.553 77.063 92.5516 77.0554 92.55 77.0477C92.1434 75.1044 90.4066 73.6941 88.4205 73.6941H86.2305V55.2886C86.2305 49.4364 84.2657 43.7763 80.6983 39.351C78.1582 36.1995 75.3312 34.2442 72.2656 33.5087C73.4739 32.1266 74.3961 30.4581 74.9091 28.5706C75.4814 26.5898 76.2797 24.2661 76.3039 22.1915C76.339 19.1831 74.5715 16.3805 71.7798 15.1426C71.4308 14.9878 65.4639 13.335 65.4639 13.335C61.4477 12.2425 57.2035 14.6961 56.1159 18.6977L53.8385 27.4026C52.3793 32.7651 56.5132 37.2759 61.6911 37.752V50.1363L61.5133 50.6113L51.0115 46.6839C49.8828 46.2613 48.566 46.6458 47.8442 47.6097C46.7738 47.2544 45.5293 47.0229 44.6062 46.3615C43.7444 45.7439 42.9992 44.8213 42.2321 44.086C41.6799 43.5567 40.8914 43.3932 40.1741 43.6587C39.4569 43.9245 38.9653 44.5622 38.891 45.3235C38.6722 47.5669 38.4154 49.7749 40.245 51.4942L45.3465 56.2878C45.4725 56.4069 45.6269 56.5018 45.7891 56.5629L61.6805 62.5063C61.6025 63.1603 61.0454 63.6694 60.3706 63.6694H45.4079C41.2862 63.6694 37.9328 67.0228 37.9328 71.1445V78.4589C37.9328 82.5799 41.286 85.9324 45.4079 85.9324H71.0094L72.8702 88.0996C73.3206 88.6242 73.9754 88.9251 74.6668 88.9251H77.5671C79.3638 88.9251 80.402 86.9988 79.6732 85.4401C83.5034 84.1547 86.23 80.4953 86.23 76.3467V76.3414H88.4199C89.157 76.3414 89.8017 76.862 89.9566 77.5808L92.3169 89.9481C92.4967 90.9144 91.8032 91.867 90.7811 91.867H9.21814C8.20557 91.867 7.49159 90.9137 7.68235 89.9481L10.0426 77.5806C10.1975 76.862 10.8422 76.3414 11.5791 76.3414H32.9594C33.6904 76.3414 34.2829 75.749 34.2829 75.0179C34.2829 74.2868 33.6904 73.6944 32.9594 73.6944H11.5796C9.59348 73.6944 7.8567 75.1048 7.45029 77.048C7.44871 77.0558 7.44712 77.0634 7.44571 77.071L5.08476 89.4411C4.55377 92.021 6.59196 94.5136 9.21867 94.5136H90.7816C93.4083 94.5138 95.4461 92.0226 94.9155 89.4418V89.4418ZM60.9991 16.3717C62.15 15.7124 63.4892 15.541 64.7693 15.8894L69.992 17.3087C72.635 18.0275 74.201 20.7618 73.4826 23.4044C73.4054 23.6875 73.3386 23.9737 73.2667 24.2582L58.5365 19.9037C58.8886 18.4289 59.6513 17.1432 60.9991 16.3717ZM60.2364 34.8093C57.3507 34.0259 55.6102 30.9727 56.3958 28.085L57.866 22.4656L72.6189 26.8268L72.3514 27.8879C71.6582 30.4265 70.019 32.5443 67.7345 33.8523C65.4523 35.1585 62.7987 35.5007 60.2611 34.8165C60.253 34.814 60.2447 34.8116 60.2364 34.8093V34.8093ZM41.3266 47.6204L41.3923 46.9475C43.0814 48.5666 44.6064 49.3238 46.8101 50.0553L45.71 52.9968L42.0579 49.5651C41.5295 49.0687 41.2564 48.3418 41.3266 47.6204V47.6204ZM40.5803 78.4587V71.1443C40.5803 68.482 42.7461 66.3162 45.4085 66.3162H52.8289V73.6936H50.0001C49.2692 73.6936 48.6766 74.286 48.6766 75.0171C48.6766 75.7482 49.2692 76.3406 50.0001 76.3406H67.3099C67.3835 76.3406 67.4435 76.4006 67.4435 76.4743V83.2845L45.4085 83.2854C42.7461 83.2852 40.5803 81.12 40.5803 78.4587V78.4587ZM74.7956 86.2779L72.6216 83.746C72.0168 83.0414 70.8888 83.2847 70.0903 83.2847V78.9136H72.8321C73.7224 78.9136 74.5059 79.4499 74.8285 80.2796L77.1592 86.2778H74.7956V86.2779ZM83.5833 76.3464C83.5833 79.3948 81.5506 82.078 78.7136 82.9695L77.2956 79.3209C76.5746 77.4655 74.8225 76.2666 72.8321 76.2666H70.0797C69.973 74.8302 68.7728 73.6934 67.3098 73.6934H55.4757V66.316H60.3707C62.3096 66.316 63.9271 64.9175 64.2698 63.0766C64.2927 63.0768 64.3156 63.0782 64.3384 63.0782C65.223 63.0782 66.1054 62.8885 66.9344 62.5107C68.4584 61.8163 69.6208 60.5702 70.2072 59.0016L71.9632 54.3064C72.2192 53.6219 71.8718 52.8592 71.1873 52.6033C70.5034 52.3469 69.7402 52.6945 69.4842 53.3792L67.7282 58.0745C67.3892 58.9808 66.7175 59.7008 65.8371 60.1017C64.9567 60.5027 63.9729 60.5369 63.0664 60.1983L47.9563 54.5471L49.9465 49.2257C49.9751 49.167 50.0209 49.146 50.0841 49.1631L61.8257 53.5543C62.51 53.8107 63.2729 53.4631 63.5288 52.7784L66.9625 43.5975C67.8448 41.2385 71.2744 41.182 72.3087 43.4523C72.6232 44.1426 72.6502 44.9141 72.3844 45.6249L71.6692 47.5373C71.4131 48.222 71.7606 48.9845 72.4451 49.2404C73.1294 49.497 73.8923 49.149 74.1482 48.4645L74.8634 46.5523C75.3769 45.1793 75.325 43.6886 74.7175 42.3548C74.1097 41.0211 73.019 40.0039 71.6466 39.4906C68.5824 38.3377 65.3725 40.012 64.3379 43.0595V37.7129C66.2151 37.4827 68.0034 36.8286 69.5731 35.8254C72.8496 35.8709 75.8986 37.6147 78.6372 41.0126C81.8266 44.9692 83.5832 50.0392 83.5832 55.2891V76.3464H83.5833Z" fill="#336633"/>
<path d="M23.7804 38.0909C30.6405 38.0909 36.3879 32.3112 36.4377 25.4726C36.4399 24.6517 35.8832 23.9423 35.0838 23.7476C34.2862 23.5533 33.4661 23.9264 33.0911 24.6556C31.975 26.8252 29.6758 28.1734 27.2379 28.0921C23.9233 27.9805 21.2396 25.2967 21.1279 21.9823C21.0459 19.5428 22.3948 17.2454 24.5644 16.129C26.2635 15.2552 25.4706 12.7368 23.6348 12.7832C16.8495 12.8612 11.24 18.4443 11.1307 25.2284C11.075 28.6882 12.3907 31.9399 14.8355 34.3847C17.2305 36.7797 20.3998 38.0909 23.7804 38.0909V38.0909ZM20.622 15.9492C19.2006 17.6276 18.4061 19.8063 18.4823 22.071C18.6405 26.7725 22.4472 30.5792 27.1486 30.7375C29.4134 30.8112 31.5921 30.0196 33.2701 28.5982C30.9326 35.4984 21.8913 37.6968 16.7071 32.5129C14.7737 30.5795 13.7331 28.0077 13.7772 25.2711C13.8467 20.9653 16.7178 17.2717 20.622 15.9492V15.9492Z" fill="#336633"/>
<path d="M33.7721 12.1797C34.5133 12.1797 35.1141 11.5788 35.1141 10.8376C35.1141 10.0965 34.5133 9.49561 33.7721 9.49561C33.0309 9.49561 32.4301 10.0965 32.4301 10.8376C32.4301 11.5788 33.0309 12.1797 33.7721 12.1797Z" fill="#336633"/>
<path d="M39.9919 18.8779C40.7331 18.8779 41.334 18.2771 41.334 17.5359C41.334 16.7947 40.7331 16.1938 39.9919 16.1938C39.2508 16.1938 38.6499 16.7947 38.6499 17.5359C38.6499 18.2771 39.2508 18.8779 39.9919 18.8779Z" fill="#336633"/>
<path d="M41.334 8.1702C42.0752 8.1702 42.676 7.56936 42.676 6.82817C42.676 6.08699 42.0752 5.48615 41.334 5.48615C40.5928 5.48615 39.9919 6.08699 39.9919 6.82817C39.9919 7.56936 40.5928 8.1702 41.334 8.1702Z" fill="#336633"/>
<path d="M18.5058 78.8464C17.2755 78.8464 16.237 79.7273 16.0363 80.9412L15.1392 86.3713C15.019 87.0978 15.2235 87.8368 15.6998 88.3984C16.1761 88.9599 16.8719 89.2821 17.6085 89.2821H31.2506C32.6307 89.2821 33.7534 88.1594 33.7534 86.7793V81.349C33.7534 79.969 32.6307 78.8462 31.2506 78.8462H18.5058V78.8464ZM31.1066 86.6353H17.7784L18.6279 81.4934H31.1064V86.6353H31.1066Z" fill="#336633"/>
<path d="M70.9561 65.1185C70.439 64.6018 69.6012 64.6018 69.0843 65.1185C68.5674 65.6355 68.5674 66.4734 69.0843 66.9903L74.2798 72.1858C74.5384 72.4441 74.8772 72.5733 75.2158 72.5733C75.5545 72.5733 75.8933 72.4441 76.1518 72.1858C76.6687 71.6687 76.6687 70.8309 76.1518 70.314L70.9561 65.1185Z" fill="#336633"/>
</g>
<defs>
<clipPath id="clip0">
<rect width="90" height="90" fill="white" transform="translate(5 5)"/>
</clipPath>
</defs>
</svg>
