<svg width="100" height="100" viewBox="0 0 100 100" fill="none" xmlns="http://www.w3.org/2000/svg">
<g clip-path="url(#clip0)">
<path d="M94.9154 89.4418L92.5545 77.0706C92.5529 77.063 92.5515 77.0554 92.5499 77.0477C92.1433 75.1044 90.4065 73.6941 88.4204 73.6941H86.2305V55.2886C86.2305 49.4364 84.2657 43.7763 80.6982 39.351C78.1582 36.1995 75.3312 34.2442 72.2656 33.5087C73.4738 32.1266 74.3961 30.4581 74.909 28.5706C75.4813 26.5898 76.2797 24.2661 76.3038 22.1915C76.339 19.1831 74.5715 16.3805 71.7798 15.1426C71.4307 14.9878 65.4638 13.335 65.4638 13.335C61.4476 12.2425 57.2034 14.6961 56.1159 18.6977L53.8384 27.4026C52.3792 32.7651 56.5131 37.2759 61.691 37.752V50.1363L61.5133 50.6114L51.0114 46.6839C49.8827 46.2613 48.5659 46.6458 47.8442 47.6096C46.7737 47.2544 45.5293 47.0229 44.6062 46.3615C43.7443 45.7439 42.9991 44.8213 42.232 44.086C41.6798 43.5567 40.8914 43.3932 40.174 43.6587C39.4569 43.9245 38.9652 44.5622 38.891 45.3235C38.6721 47.5669 38.4154 49.7749 40.245 51.4942L45.3465 56.2878C45.4725 56.4069 45.6269 56.5018 45.789 56.5629L61.6804 62.5063C61.6024 63.1603 61.0453 63.6694 60.3705 63.6694H45.4079C41.2861 63.6694 37.9327 67.0228 37.9327 71.1445V78.4589C37.9327 82.5799 41.286 85.9324 45.4079 85.9324H71.0093L72.8702 88.0996C73.3205 88.6242 73.9754 88.9251 74.6668 88.9251H77.567C79.3638 88.9251 80.4019 86.9988 79.6731 85.4401C83.5033 84.1547 86.2299 80.4953 86.2299 76.3467V76.3414H88.4199C89.157 76.3414 89.8016 76.862 89.9566 77.5808L92.3168 89.9481C92.4966 90.9144 91.8031 91.867 90.781 91.867H9.21808C8.20551 91.867 7.49153 90.9137 7.68229 89.9481L10.0425 77.5806C10.1975 76.862 10.8421 76.3414 11.579 76.3414H32.9594C33.6903 76.3414 34.2829 75.749 34.2829 75.0179C34.2829 74.2868 33.6903 73.6944 32.9594 73.6944H11.5796C9.59342 73.6944 7.85664 75.1048 7.45023 77.048C7.44864 77.0558 7.44706 77.0634 7.44564 77.071L5.0847 89.4411C4.55371 92.021 6.5919 94.5136 9.21861 94.5136H90.7815C93.4082 94.5138 95.4461 92.0226 94.9154 89.4418ZM60.9991 16.3717C62.15 15.7124 63.4892 15.541 64.7693 15.8894L69.992 17.3087C72.6349 18.0275 74.2009 20.7618 73.4825 23.4044C73.4054 23.6875 73.3385 23.9737 73.2667 24.2582L58.5365 19.9037C58.8885 18.4289 59.6512 17.1432 60.9991 16.3717ZM60.2364 34.8093C57.3506 34.0259 55.6101 30.9727 56.3957 28.085L57.8659 22.4656L72.6189 26.8268L72.3513 27.8879C71.6582 30.4265 70.019 32.5443 67.7344 33.8523C65.4522 35.1585 62.7987 35.5007 60.2611 34.8165C60.253 34.814 60.2447 34.8116 60.2364 34.8093ZM41.3265 47.6204L41.3922 46.9475C43.0813 48.5666 44.6064 49.3238 46.8101 50.0553L45.71 52.9968L42.0578 49.5651C41.5295 49.0687 41.2563 48.3418 41.3265 47.6204ZM40.5803 78.4587V71.1443C40.5803 68.482 42.746 66.3162 45.4084 66.3162H52.8288V73.6936H50.0001C49.2691 73.6936 48.6766 74.286 48.6766 75.0171C48.6766 75.7482 49.2691 76.3406 50.0001 76.3406H67.3099C67.3834 76.3406 67.4435 76.4006 67.4435 76.4743V83.2845L45.4084 83.2854C42.746 83.2852 40.5803 81.12 40.5803 78.4587ZM74.7956 86.2779L72.6215 83.746C72.0168 83.0414 70.8888 83.2847 70.0903 83.2847V78.9136H72.832C73.7223 78.9136 74.5058 79.4499 74.8284 80.2796L77.1592 86.2778H74.7956V86.2779ZM83.5833 76.3464C83.5833 79.3948 81.5506 82.078 78.7135 82.9695L77.2956 79.3209C76.5745 77.4655 74.8224 76.2666 72.832 76.2666H70.0797C69.9729 74.8302 68.7728 73.6934 67.3097 73.6934H55.4757V66.316H60.3707C62.3095 66.316 63.927 64.9175 64.2697 63.0766C64.2926 63.0768 64.3156 63.0782 64.3383 63.0782C65.223 63.0782 66.1053 62.8885 66.9343 62.5107C68.4583 61.8163 69.6207 60.5702 70.2071 59.0016L71.9631 54.3064C72.2192 53.6219 71.8717 52.8592 71.1872 52.6033C70.5034 52.3469 69.7402 52.6945 69.4841 53.3792L67.7281 58.0745C67.3891 58.9808 66.7175 59.7008 65.8371 60.1017C64.9567 60.5027 63.9729 60.5369 63.0664 60.1983L47.9562 54.5471L49.9464 49.2257C49.975 49.167 50.0209 49.146 50.0841 49.1631L61.8256 53.5543C62.51 53.8107 63.2728 53.4631 63.5287 52.7784L66.9624 43.5975C67.8447 41.2385 71.2744 41.182 72.3086 43.4523C72.6231 44.1426 72.6501 44.9141 72.3843 45.6249L71.6691 47.5373C71.4131 48.222 71.7605 48.9845 72.445 49.2404C73.1294 49.497 73.8923 49.149 74.1481 48.4645L74.8633 46.5523C75.3769 45.1793 75.325 43.6886 74.7174 42.3548C74.1097 41.0211 73.0189 40.0039 71.6465 39.4906C68.5824 38.3377 65.3724 40.012 64.3378 43.0595V37.7129C66.2151 37.4827 68.0034 36.8286 69.5731 35.8254C72.8495 35.8709 75.8985 37.6147 78.6371 41.0126C81.8266 44.9692 83.5831 50.0392 83.5831 55.2891V76.3464H83.5833Z" fill="#777777"/>
<path d="M23.7803 38.0909C30.6404 38.0909 36.3878 32.3112 36.4375 25.4726C36.4398 24.6517 35.8831 23.9423 35.0837 23.7476C34.286 23.5533 33.466 23.9264 33.091 24.6556C31.9749 26.8252 29.6757 28.1734 27.2378 28.0921C23.9232 27.9805 21.2395 25.2967 21.1278 21.9823C21.0457 19.5428 22.3947 17.2454 24.5643 16.129C26.2633 15.2552 25.4705 12.7368 23.6347 12.7832C16.8494 12.8612 11.2398 18.4443 11.1306 25.2284C11.0748 28.6882 12.3906 31.9399 14.8354 34.3847C17.2304 36.7797 20.3997 38.0909 23.7803 38.0909ZM20.6219 15.9492C19.2004 17.6276 18.406 19.8063 18.4822 22.071C18.6403 26.7725 22.4471 30.5792 27.1485 30.7375C29.4133 30.8112 31.5919 30.0196 33.27 28.5982C30.9325 35.4984 21.8912 37.6968 16.707 32.5129C14.7736 30.5795 13.733 28.0077 13.7771 25.2711C13.8466 20.9653 16.7177 17.2717 20.6219 15.9492Z" fill="#777777"/>
<path d="M33.772 12.1797C34.5132 12.1797 35.1141 11.5788 35.1141 10.8376C35.1141 10.0965 34.5132 9.49561 33.772 9.49561C33.0308 9.49561 32.43 10.0965 32.43 10.8376C32.43 11.5788 33.0308 12.1797 33.772 12.1797Z" fill="#777777"/>
<path d="M39.9919 18.8779C40.7331 18.8779 41.334 18.2771 41.334 17.5359C41.334 16.7947 40.7331 16.1938 39.9919 16.1938C39.2508 16.1938 38.6499 16.7947 38.6499 17.5359C38.6499 18.2771 39.2508 18.8779 39.9919 18.8779Z" fill="#777777"/>
<path d="M41.334 8.1702C42.0752 8.1702 42.676 7.56936 42.676 6.82817C42.676 6.08699 42.0752 5.48615 41.334 5.48615C40.5928 5.48615 39.9919 6.08699 39.9919 6.82817C39.9919 7.56936 40.5928 8.1702 41.334 8.1702Z" fill="#777777"/>
<path d="M18.5057 78.8464C17.2754 78.8464 16.2368 79.7273 16.0362 80.9412L15.139 86.3713C15.0189 87.0978 15.2234 87.8368 15.6997 88.3984C16.176 88.9599 16.8718 89.2821 17.6083 89.2821H31.2505C32.6306 89.2821 33.7533 88.1594 33.7533 86.7793V81.349C33.7533 79.969 32.6306 78.8462 31.2505 78.8462H18.5057V78.8464ZM31.1065 86.6353H17.7783L18.6278 81.4934H31.1063V86.6353H31.1065Z" fill="#777777"/>
<path d="M70.956 65.1185C70.439 64.6018 69.6011 64.6018 69.0842 65.1185C68.5674 65.6355 68.5674 66.4734 69.0842 66.9903L74.2798 72.1858C74.5383 72.4441 74.8771 72.5733 75.2158 72.5733C75.5544 72.5733 75.8932 72.4441 76.1517 72.1858C76.6686 71.6687 76.6686 70.8309 76.1517 70.314L70.956 65.1185Z" fill="#777777"/>
</g>
<defs>
<clipPath id="clip0">
<rect width="90" height="90" fill="white" transform="translate(5 5)"/>
</clipPath>
</defs>
</svg>
