<svg width="100" height="100" viewBox="0 0 100 100" fill="none" xmlns="http://www.w3.org/2000/svg">
<g clip-path="url(#clip0)">
<path d="M81.9088 24.1954C81.8533 24.1061 81.7762 24.0326 81.6847 23.9817C81.5931 23.9308 81.4902 23.9042 81.3856 23.9044H74.6151V14.6185C74.6147 14.4794 74.5677 14.3445 74.4817 14.2356C74.3957 14.1266 74.2758 14.05 74.1412 14.018C74.007 13.9844 73.8655 13.9981 73.74 14.0566C73.6146 14.1152 73.5129 14.2152 73.4518 14.3399L66.0658 29.1974C66.0186 29.2916 65.9961 29.3964 66.0005 29.5019C66.0049 29.6073 66.036 29.7099 66.0909 29.7998C66.1458 29.8897 66.2226 29.9641 66.3141 30.0157C66.4056 30.0674 66.5087 30.0947 66.6136 30.095H73.3841V39.3809C73.3846 39.52 73.4316 39.6549 73.5175 39.7639C73.6035 39.8728 73.7235 39.9494 73.8581 39.9814C73.9043 39.9937 73.9518 39.9999 73.9996 40C74.1133 39.9997 74.2246 39.9677 74.3213 39.9076C74.418 39.8475 74.4963 39.7616 74.5474 39.6595L81.9334 24.802C81.981 24.7072 82.0038 24.6017 81.9995 24.4955C81.9952 24.3893 81.9639 24.286 81.9088 24.1954V24.1954ZM74.6151 36.7561V29.476C74.6151 29.3118 74.5503 29.1543 74.4348 29.0382C74.3194 28.9221 74.1629 28.8569 73.9996 28.8569H67.6107L73.3841 17.2433V24.5235C73.3841 24.6876 73.449 24.8451 73.5644 24.9612C73.6798 25.0773 73.8364 25.1425 73.9996 25.1425H80.3885L74.6151 36.7561Z" fill="#336633" stroke="#336633"/>
<path d="M74.2994 7.14722C65.3291 7.14722 57.6739 13.0004 54.806 20.8379H18.6152C17.8135 20.8379 17.1628 21.5606 17.1571 22.3616L16.8125 73.5132H6.49659C5.69133 73.5132 5 74.0963 5 74.903V81.3941C5.01851 87.5051 9.83151 92.5253 15.936 92.8015V92.8335H60.9561V92.7908C61.3206 92.8043 61.4709 92.8335 61.7016 92.8335H61.7329C68.051 92.8236 73.168 87.6987 73.168 81.3806V48.5611C73.5326 48.581 73.9185 48.5917 74.2958 48.5917C85.711 48.5917 95.0003 39.2847 95.0003 27.8687C95.0003 16.4535 85.7153 7.14722 74.2994 7.14722V7.14722ZM16.4907 89.9173H16.4814C11.7645 89.9109 7.93764 86.0968 7.91628 81.3792V76.4295H50.2023V81.3585C50.2045 84.4015 51.4198 87.3185 53.5786 89.4637C53.7316 89.6168 53.9217 89.735 54.0819 89.9173H16.4907ZM70.2518 81.3792C70.2525 86.0882 66.4398 89.908 61.7315 89.9173H61.7037C56.9761 89.9087 53.1421 86.0868 53.1186 81.36V74.903C53.1307 74.5299 52.9883 74.1689 52.7242 73.9055C52.46 73.6421 52.0991 73.5004 51.7267 73.5132H19.7288L20.0634 23.7542H53.9965C53.738 25.0892 53.6042 26.4448 53.5971 27.804C53.5942 30.6782 54.1937 33.5205 55.3571 36.1484H41.5845C40.7785 36.1484 40.1264 36.8013 40.1264 37.6065C40.1264 38.4118 40.7785 39.0647 41.5845 39.0647H56.9391C59.9472 43.7951 64.756 47.093 70.2518 48.1965V81.3792ZM74.2994 45.6761C64.4769 45.6761 56.5133 37.7133 56.5141 27.8901C56.5141 18.0669 64.4769 10.1041 74.3001 10.1041C84.1226 10.1041 92.0854 18.0676 92.0854 27.8901C92.0747 37.7083 84.1183 45.6654 74.2994 45.6761Z" fill="#336633"/>
<path d="M32.2248 45.8528C29.651 45.8528 27.5577 47.8798 27.5577 50.3717C27.5577 52.8637 29.651 54.8907 32.2248 54.8907C34.7986 54.8907 36.8925 52.8637 36.8925 50.3717C36.8925 47.8798 34.7986 45.8528 32.2248 45.8528V45.8528ZM32.2248 51.9744C31.2586 51.9744 30.474 51.2553 30.474 50.3717C30.474 49.4875 31.2593 48.7691 32.2248 48.7691C33.1902 48.7691 33.9763 49.4882 33.9763 50.3717C33.9763 51.2553 33.1902 51.9744 32.2248 51.9744Z" fill="#336633"/>
<path d="M40.1263 50.3653C40.1263 51.1705 40.7785 51.8234 41.5845 51.8234H61.0244C61.8297 51.8234 62.4826 51.1705 62.4826 50.3653C62.4826 49.56 61.8297 48.9071 61.0244 48.9071H41.5845C40.7785 48.9071 40.1263 49.56 40.1263 50.3653Z" fill="#336633"/>
<path d="M32.2248 33.1772C29.651 33.1772 27.5577 35.205 27.5577 37.6969C27.5577 40.1888 29.651 42.2159 32.2248 42.2159C34.7986 42.2159 36.8925 40.1888 36.8925 37.6969C36.8925 35.205 34.7986 33.1772 32.2248 33.1772ZM32.2248 39.2996C31.2586 39.2996 30.474 38.5805 30.474 37.6969C30.474 36.8133 31.2593 36.0935 32.2248 36.0935C33.1902 36.0935 33.9763 36.8126 33.9763 37.6969C33.9763 38.5805 33.1902 39.3003 32.2248 39.3003V39.2996Z" fill="#336633"/>
<path d="M32.2248 58.5267C29.651 58.5267 27.5577 60.5537 27.5577 63.0456C27.5577 65.5375 29.651 67.5646 32.2248 67.5646C34.7986 67.5646 36.8925 65.5375 36.8925 63.0456C36.8925 60.5537 34.7986 58.5267 32.2248 58.5267ZM32.2248 64.6483C31.2586 64.6483 30.474 63.9299 30.474 63.0456C30.474 62.162 31.2593 61.4429 32.2248 61.4429C33.1902 61.4429 33.9763 62.162 33.9763 63.0456C33.9763 63.9292 33.1902 64.6483 32.2248 64.6483V64.6483Z" fill="#336633"/>
<path d="M61.0244 61.6658H41.5845C40.7785 61.6658 40.1263 62.3187 40.1263 63.1239C40.1263 63.9292 40.7785 64.582 41.5845 64.582H61.0244C61.8297 64.582 62.4826 63.9292 62.4826 63.1239C62.4826 62.3187 61.8297 61.6658 61.0244 61.6658Z" fill="#336633"/>
</g>
<defs>
<clipPath id="clip0">
<rect width="90" height="90" fill="white" transform="translate(5 5)"/>
</clipPath>
</defs>
</svg>
