<svg width="100" height="100" viewBox="0 0 100 100" fill="none" xmlns="http://www.w3.org/2000/svg">
<g clip-path="url(#clip0)">
<path d="M46.3257 70.9881C45.7159 71.5973 45.7159 72.5866 46.3257 73.197C46.9366 73.8067 47.9254 73.8067 48.5345 73.197C49.1455 72.5866 49.1455 71.5973 48.5345 70.9881C47.9254 70.3772 46.9366 70.3772 46.3257 70.9881V70.9881Z" fill="#777777"/>
<path d="M86.3942 68.2744L74.5314 58.1871C74.4765 58.1408 74.4185 58.098 74.358 58.0596C71.2459 56.0784 67.2499 56.5172 64.6406 59.1259L58.1728 65.5931C57.7248 66.0418 57.0564 66.1742 56.4705 65.9325C49.167 62.9113 43.1673 58.3629 38.6378 52.4151C35.1839 47.8795 33.9387 44.2754 33.7746 43.7676C33.755 43.659 33.7239 43.5509 33.68 43.4453C33.4377 42.8594 33.5701 42.1923 34.0193 41.7443L40.4866 35.2752C43.0959 32.6659 43.5341 28.6699 41.5529 25.5578C41.537 25.5327 41.5205 25.5083 41.5034 25.4839L32.9366 13.579C30.2412 9.39748 24.3703 8.76577 20.8467 12.2887L19.5515 13.5839C19.5509 13.5851 19.5497 13.5863 19.5485 13.5869L14.9245 18.211C9.41056 23.7255 8.50846 32.0116 12.3164 42.1752C15.5782 50.8812 22.1077 60.4094 30.7021 69.0038C39.4997 77.8014 49.2854 84.4518 58.2564 87.73C67.1358 90.974 76.5809 91.3738 83.2661 84.688L87.6271 80.3276C91.1348 76.8193 90.5226 70.9868 86.3942 68.2744V68.2744ZM72.5954 60.642L84.4478 70.7207C84.5021 70.7671 84.5601 70.8098 84.6205 70.8483C87.1522 72.4602 87.5355 76.0003 85.417 78.1182L85.0935 78.4423L64.8781 63.3068L66.8501 61.3353C68.3913 59.7936 70.7399 59.5147 72.5954 60.642V60.642ZM30.3261 15.2959C30.3419 15.3209 30.3584 15.346 30.3755 15.3698L38.9387 27.2704C40.1021 29.1326 39.8329 31.5099 38.2771 33.0657L36.3661 34.9773L22.6894 14.865L23.0562 14.4982C25.1833 12.3711 28.7202 12.7733 30.3261 15.2959ZM59.3281 84.7948C50.7759 81.6698 41.3942 75.277 32.9115 66.7943C24.6254 58.5088 18.3504 49.3761 15.2419 41.079C12.9085 34.851 11.3429 26.2114 17.1339 20.421L20.4402 17.1142L34.117 37.2265L31.8105 39.5342C30.4982 40.844 30.0856 42.7825 30.7405 44.5086C31.2337 46.5325 33.503 50.7335 35.7924 53.8292C39.1615 58.3849 45.2766 64.6831 55.276 68.8201C57.0332 69.547 59.037 69.1478 60.3822 67.8032L62.646 65.5388L82.8615 80.6743L81.0567 82.4785C74.8488 88.687 65.8144 87.1648 59.3281 84.7948Z" fill="#777777"/>
<path d="M43.3935 67.2577C41.7431 65.8105 38.8885 63.3215 37.3852 61.7749C33.6987 57.9864 29.8309 53.3941 27.5311 50.0763C27.0397 49.367 26.0662 49.19 25.357 49.682C24.6478 50.1733 24.4714 51.1468 24.9627 51.8561C27.8631 56.0406 32.1246 60.849 35.1452 63.9532C36.7321 65.5865 39.6112 68.0975 41.333 69.6069C41.9805 70.1745 42.9675 70.1123 43.5382 69.4622C44.107 68.8141 44.0423 67.8265 43.3935 67.2577Z" fill="#777777"/>
</g>
<defs>
<clipPath id="clip0">
<rect width="80" height="80" fill="white" transform="translate(10 10)"/>
</clipPath>
</defs>
</svg>
