<svg width="100" height="100" viewBox="0 0 100 100" fill="none" xmlns="http://www.w3.org/2000/svg">
<path d="M29.3141 27.3312L31.311 25.3343L27.3313 21.3687L28.3297 20.3703C28.5887 20.1021 28.7347 19.7447 28.7375 19.3718C28.7321 18.9996 28.5864 18.643 28.3297 18.3734L24.35 14.4078C23.2042 13.2631 21.6987 12.5486 20.0874 12.3847C18.4761 12.2207 16.8576 12.6174 15.5047 13.5078L9.3594 7.37653L7.37659 9.35934L13.5078 15.4906C12.6172 16.8459 12.2204 18.4666 12.3843 20.0801C12.5482 21.6936 13.2628 23.2014 14.4078 24.35L18.3735 28.3297C18.6431 28.5864 18.9996 28.732 19.3719 28.7375C19.7447 28.7347 20.1022 28.5887 20.3703 28.3297L21.3688 27.3312L25.3344 31.3109L27.3313 29.314L23.3516 25.3343L25.3344 23.3515L29.3141 27.3312ZM19.3719 25.3343L16.3906 22.3531C15.9762 21.9669 15.6437 21.5011 15.4131 20.9836C15.1826 20.4661 15.0586 19.9075 15.0486 19.341C15.0386 18.7746 15.1428 18.2119 15.355 17.6866C15.5671 17.1613 15.883 16.6841 16.2836 16.2835C16.6842 15.8829 17.1614 15.5671 17.6867 15.3549C18.212 15.1427 18.7746 15.0385 19.3411 15.0485C19.9075 15.0585 20.4662 15.1825 20.9837 15.4131C21.5012 15.6437 21.9669 15.9761 22.3531 16.3906L25.3344 19.3718L19.3719 25.3343Z" fill="#777777"/>
<path d="M88.6578 17.3187L92.6235 13.339L90.6406 11.3422L86.661 15.3218L84.6781 13.339L88.6578 9.35934L86.661 7.37653L82.6813 11.3422L81.6969 10.3578C81.4314 10.0943 81.0725 9.94647 80.6985 9.94647C80.3244 9.94647 79.9655 10.0943 79.7 10.3578L75.7203 14.3375C74.5765 15.4842 73.8636 16.9907 73.7021 18.6023C73.5407 20.214 73.9407 21.832 74.8344 23.1828L68.6891 29.314L70.686 31.3109L76.8172 25.1656C78.168 26.0593 79.786 26.4593 81.3976 26.2978C83.0093 26.1364 84.5158 25.4235 85.6625 24.2797L89.6422 20.3C89.9057 20.0345 90.0535 19.6756 90.0535 19.3015C90.0535 18.9275 89.9057 18.5686 89.6422 18.3031L88.6578 17.3187ZM83.6797 22.2828C83.2935 22.6973 82.8277 23.0297 82.3102 23.2603C81.7927 23.4909 81.2341 23.6149 80.6676 23.6249C80.1012 23.6348 79.5385 23.5306 79.0132 23.3185C78.4879 23.1063 78.0107 22.7905 77.6101 22.3899C77.2095 21.9893 76.8937 21.5121 76.6815 20.9868C76.4693 20.4615 76.3651 19.8988 76.3751 19.3323C76.3851 18.7659 76.5091 18.2072 76.7397 17.6897C76.9703 17.1723 77.3027 16.7065 77.7172 16.3203L80.6985 13.339L86.661 19.3015L83.6797 22.2828Z" fill="#777777"/>
<path d="M86.4922 84.5093C87.3829 83.154 87.7796 81.5333 87.6157 79.9198C87.4518 78.3063 86.7373 76.7985 85.5922 75.65L81.6266 71.6703C81.3569 71.4135 81.0004 71.2679 80.6281 71.2625C80.2553 71.2652 79.8979 71.4112 79.6297 71.6703L78.6313 72.6687L74.6656 68.689L72.6688 70.6859L76.6485 74.6656L74.6656 76.6484L70.686 72.6687L68.6891 74.6656L72.6688 78.6312L71.6703 79.6296C71.4113 79.8978 71.2653 80.2553 71.2625 80.6281C71.268 81.0004 71.4136 81.3569 71.6703 81.6265L75.65 85.5921C76.7931 86.7415 78.2991 87.4593 79.9118 87.6234C81.5245 87.7875 83.1442 87.3877 84.4953 86.4921L90.6406 92.6234L92.6235 90.6406L86.4922 84.5093ZM83.6094 83.6093C82.8184 84.3994 81.7461 84.8431 80.6281 84.8431C79.5102 84.8431 78.4379 84.3994 77.6469 83.6093L74.6656 80.6281L80.6281 74.6656L83.6094 77.6468C84.3994 78.4379 84.8432 79.5101 84.8432 80.6281C84.8432 81.7461 84.3994 82.8183 83.6094 83.6093Z" fill="#777777"/>
<path d="M31.311 70.6859L29.3141 68.689L23.1828 74.8343C21.832 73.9406 20.2141 73.5407 18.6024 73.7021C16.9908 73.8635 15.4843 74.5764 14.3375 75.7203L10.3578 79.7C10.0944 79.9655 9.94653 80.3244 9.94653 80.6984C9.94653 81.0724 10.0944 81.4313 10.3578 81.6968L11.3422 82.6812L7.37659 86.6609L9.3594 88.6578L13.3391 84.6781L15.3219 86.6609L11.3422 90.6406L13.3391 92.6234L17.3188 88.6578L18.3031 89.6421C18.5671 89.9092 18.9261 90.0609 19.3016 90.064C19.4877 90.0639 19.672 90.0265 19.8435 89.954C20.0149 89.8816 20.1702 89.7755 20.3 89.6421L24.2797 85.6625C25.4236 84.5157 26.1365 83.0092 26.2979 81.3976C26.4593 79.7859 26.0594 78.168 25.1656 76.8171L31.311 70.6859ZM22.2828 83.6796L19.3016 86.6609L13.3391 80.6984L16.3203 77.7171C16.7066 77.3027 17.1723 76.9702 17.6898 76.7396C18.2073 76.5091 18.7659 76.3851 19.3324 76.3751C19.8988 76.3651 20.4615 76.4693 20.9868 76.6815C21.5121 76.8936 21.9893 77.2095 22.3899 77.6101C22.7905 78.0107 23.1063 78.4879 23.3185 79.0132C23.5307 79.5385 23.6349 80.1011 23.6249 80.6676C23.6149 81.234 23.4909 81.7927 23.2604 82.3102C23.0298 82.8277 22.6973 83.2934 22.2828 83.6796Z" fill="#777777"/>
<path d="M68.0703 43.6296C67.9437 43.427 67.7674 43.2599 67.5583 43.1443C67.3492 43.0287 67.114 42.9682 66.875 42.9687H51.4063V21.875C51.4053 21.559 51.2979 21.2526 51.1014 21.0051C50.905 20.7577 50.6309 20.5836 50.3235 20.5109C50.0169 20.4347 49.6935 20.4657 49.407 20.5987C49.1205 20.7317 48.8881 20.9588 48.7485 21.2421L31.8735 54.9921C31.7656 55.2062 31.7142 55.4443 31.7243 55.6838C31.7343 55.9233 31.8054 56.1563 31.9308 56.3606C32.0562 56.5649 32.2317 56.7337 32.4407 56.8511C32.6498 56.9685 32.8853 57.0305 33.125 57.0312H48.5938V78.125C48.5948 78.4409 48.7022 78.7473 48.8986 78.9948C49.095 79.2423 49.3691 79.4164 49.6766 79.489C49.7821 79.5169 49.8908 79.531 50 79.5312C50.2597 79.5304 50.5141 79.4577 50.735 79.3212C50.9559 79.1847 51.1347 78.9897 51.2516 78.7578L68.1266 45.0078C68.2354 44.7923 68.2874 44.5526 68.2776 44.3114C68.2677 44.0702 68.1964 43.8355 68.0703 43.6296ZM51.4063 72.1625V55.625C51.4063 55.252 51.2581 54.8943 50.9944 54.6306C50.7307 54.3669 50.373 54.2187 50 54.2187H35.4031L48.5938 27.8375V44.375C48.5938 44.7479 48.7419 45.1056 49.0056 45.3693C49.2694 45.633 49.6271 45.7812 50 45.7812H64.5969L51.4063 72.1625Z" fill="#777777"/>
</svg>
