<?xml version="1.0" encoding="UTF-8"?>
<!DOCTYPE svg PUBLIC "-//W3C//DTD SVG 1.1//EN" "http://www.w3.org/Graphics/SVG/1.1/DTD/svg11.dtd">
<!-- Creator: CorelDRAW 2019 (64-Bit) -->
<svg xmlns="http://www.w3.org/2000/svg" xml:space="preserve" width="68.4389mm" height="68.4389mm" version="1.1" style="shape-rendering:geometricPrecision; text-rendering:geometricPrecision; image-rendering:optimizeQuality; fill-rule:evenodd; clip-rule:evenodd"
viewBox="0 0 4338.86 4338.86"
 xmlns:xlink="http://www.w3.org/1999/xlink">
 <defs>
  <style type="text/css">
   <![CDATA[
    .fil0 {fill:none}
    .fil1 {fill:#FFCF1F;fill-rule:nonzero}
    .fil2 {fill:black;fill-rule:nonzero;fill-opacity:0.501961}
   ]]>
  </style>
       <clipPath id="id0">
        <rect x="946.65" y="1653.77" width="909.21" height="1411.23"/>
       </clipPath>
       <clipPath id="id1">
        <rect x="2250.27" y="681.99" width="909.21" height="1411.22"/>
       </clipPath>
       <clipPath id="id2">
        <rect x="2534.69" y="2293.73" width="909.21" height="1411.22"/>
       </clipPath>
 </defs>
 <g id="Layer_x0020_1">
  <metadata id="CorelCorpID_0Corel-Layer"/>
  <g id="_2705611236400">
   <rect class="fil0" x="-0" y="-0" width="4338.86" height="4338.86"/>
   <g>
    <g>
     <path class="fil1" d="M2471.47 2335.34c0,605.33 -490.72,1096.05 -1096.05,1096.05 -605.34,0 -1096.06,-490.73 -1096.06,-1096.05 0,-605.34 490.72,-1096.07 1096.06,-1096.07 605.33,0 1096.05,490.72 1096.05,1096.07z"/>
     <path class="fil2" d="M2254.51 2335.34c0,485.5 -393.59,879.09 -879.1,879.09 -485.51,0 -879.1,-393.58 -879.1,-879.09 0,-485.52 393.59,-879.1 879.1,-879.1 485.5,0 879.1,393.58 879.1,879.1z"/>
     <g>
      <g style="clip-path:url(#id0)">
       <image x="946.65" y="1653.77" width="909.21" height="1411.23" xlink:href="terjangkau_Images\terjangkau_ImgID1.png"/>
      </g>
      <g>
       <path class="fil1" d="M1640.49 2096.84c-5.45,-6.35 -15.67,-14.07 -30.67,-23.17 -14.99,-9.07 -32.72,-18.4 -53.16,-27.95 -20.45,-9.53 -42.92,-18.16 -67.45,-25.89 -24.53,-7.7 -49.98,-12.95 -76.32,-15.67l0 235.77 34.06 8.18c47.23,12.73 90.17,26.36 128.79,40.88 38.62,14.55 71.33,32.71 98.13,54.52 26.79,21.8 47.47,47.93 62.02,78.35 14.51,30.46 21.79,67.93 21.79,112.44 0,49.98 -8.85,92.67 -26.58,128.11 -17.71,35.43 -41.79,64.51 -72.22,87.22 -30.45,22.73 -65.88,39.76 -106.3,51.11 -40.45,11.35 -82.93,17.94 -127.42,19.76l0 149.91 -81.78 0 0 -151.27c-63.62,-4.56 -125.63,-17.49 -186.04,-38.84 -60.42,-21.33 -115.16,-49.27 -164.21,-83.82l83.12 -162.18c7.27,7.28 19.75,16.83 37.49,28.62 17.71,11.82 39.04,23.4 64.05,34.75 24.97,11.36 52.68,22.04 83.12,32.02 30.44,10.01 62.02,16.83 94.73,20.45l0 -234.41c-8.17,-1.81 -16.34,-3.85 -24.53,-6.14 -8.17,-2.26 -16.34,-4.77 -24.53,-7.49 -46.34,-12.71 -86.55,-26.57 -120.62,-41.56 -34.06,-14.99 -62.47,-32.71 -85.17,-53.16 -22.72,-20.44 -39.76,-44.05 -51.1,-70.87 -11.37,-26.79 -17.03,-58.81 -17.03,-96.07 0,-45.42 7.95,-86.07 23.84,-121.98 15.88,-35.88 37.7,-66.54 65.41,-91.98 27.71,-25.43 60.65,-45.42 98.81,-59.96 38.17,-14.52 79.06,-23.62 122.67,-27.25l0 -139.02 81.78 0 0 137.64c59.96,4.56 115.16,16.84 165.56,36.8 50.43,20 94.73,43.17 132.89,69.51l-83.13 152.63zm-414.32 13.63l0 0c0,30.9 10.67,54.3 32.03,70.19 21.33,15.9 53.82,30.21 97.44,42.92l0 -220.78c-86.33,5.45 -129.48,41.35 -129.48,107.66zm331.18 442.92l0 0c0,-30.87 -12.74,-54.97 -38.15,-72.22 -25.45,-17.26 -60.89,-33.16 -106.3,-47.71l0 219.41c96.28,-2.72 144.46,-35.87 144.46,-99.48z"/>
      </g>
     </g>
     <path class="fil2" d="M561.8 2384.45c0,-485.52 393.58,-879.1 879.09,-879.1 181.79,0 350.69,55.19 490.86,149.72 -151.55,-124.14 -345.15,-198.83 -556.34,-198.83 -485.51,0 -879.1,393.58 -879.1,879.1 0,274.94 126.29,520.32 323.96,681.52 -87.7,-89.24 -156.53,-197.08 -199.97,-317.08 -37.65,-97.92 -58.49,-204.17 -58.49,-315.34z"/>
    </g>
    <g>
     <path class="fil1" d="M3775.08 1363.56c0,605.33 -490.72,1096.05 -1096.06,1096.05 -605.33,0 -1096.06,-490.73 -1096.06,-1096.05 0,-605.34 490.73,-1096.07 1096.06,-1096.07 605.34,0 1096.06,490.73 1096.06,1096.07z"/>
     <path class="fil2" d="M3558.12 1363.56c0,485.5 -393.58,879.09 -879.1,879.09 -485.51,0 -879.09,-393.58 -879.09,-879.09 0,-485.52 393.58,-879.1 879.09,-879.1 485.52,0 879.1,393.58 879.1,879.1z"/>
     <g>
      <g style="clip-path:url(#id1)">
       <image x="2250.27" y="681.99" width="909.21" height="1411.22" xlink:href="terjangkau_Images\terjangkau_ImgID2.png"/>
      </g>
      <g>
       <path class="fil1" d="M2944.11 1125.06c-5.45,-6.34 -15.67,-14.07 -30.67,-23.17 -14.99,-9.06 -32.71,-18.39 -53.16,-27.94 -20.44,-9.53 -42.91,-18.16 -67.45,-25.89 -24.53,-7.7 -49.98,-12.95 -76.32,-15.67l0 235.77 34.08 8.18c47.22,12.73 90.16,26.36 128.78,40.88 38.61,14.54 71.33,32.71 98.13,54.52 26.79,21.8 47.47,47.93 62.02,78.35 14.51,30.46 21.8,67.93 21.8,112.44 0,49.98 -8.86,92.67 -26.58,128.11 -17.71,35.43 -41.8,64.52 -72.22,87.22 -30.44,22.73 -65.88,39.76 -106.3,51.11 -40.45,11.35 -82.92,17.93 -127.42,19.76l0 149.91 -81.77 0 0 -151.27c-63.61,-4.55 -125.63,-17.49 -186.04,-38.84 -60.42,-21.33 -115.16,-49.27 -164.22,-83.82l83.13 -162.18c7.27,7.28 19.76,16.83 37.49,28.62 17.71,11.82 39.03,23.4 64.05,34.75 24.97,11.36 52.68,22.04 83.13,32.02 30.44,10.01 62.01,16.83 94.72,20.45l0 -234.41c-8.17,-1.81 -16.34,-3.85 -24.53,-6.14 -8.18,-2.26 -16.34,-4.77 -24.53,-7.49 -46.34,-12.71 -86.54,-26.57 -120.61,-41.57 -34.07,-14.99 -62.48,-32.71 -85.18,-53.15 -22.72,-20.44 -39.76,-44.05 -51.11,-70.87 -11.36,-26.78 -17.02,-58.81 -17.02,-96.07 0,-45.43 7.94,-86.07 23.85,-121.98 15.87,-35.88 37.68,-66.54 65.41,-91.99 27.71,-25.42 60.65,-45.41 98.8,-59.96 38.17,-14.52 79.06,-23.62 122.67,-27.25l0 -139.02 81.77 0 0 137.64c59.97,4.56 115.16,16.83 165.57,36.8 50.43,20 94.73,43.17 132.89,69.51l-83.13 152.63zm-414.32 13.63l0 0c0,30.9 10.66,54.3 32.03,70.19 21.33,15.9 53.82,30.21 97.44,42.92l0 -220.78c-86.33,5.45 -129.48,41.35 -129.48,107.66zm331.18 442.92l0 0c0,-30.87 -12.73,-54.97 -38.15,-72.22 -25.45,-17.26 -60.89,-33.16 -106.3,-47.71l0 219.42c96.29,-2.73 144.46,-35.88 144.46,-99.49z"/>
      </g>
     </g>
     <path class="fil2" d="M1865.41 1412.67c0,-485.52 393.59,-879.1 879.1,-879.1 181.79,0 350.68,55.19 490.87,149.72 -151.55,-124.14 -345.16,-198.83 -556.35,-198.83 -485.51,0 -879.09,393.58 -879.09,879.1 0,274.94 126.29,520.32 323.94,681.52 -87.7,-89.23 -156.53,-197.08 -199.97,-317.07 -37.65,-97.91 -58.5,-204.17 -58.5,-315.34z"/>
    </g>
    <g>
     <path class="fil1" d="M4059.51 2975.29c0,605.34 -490.72,1096.05 -1096.06,1096.05 -605.34,0 -1096.05,-490.72 -1096.05,-1096.05 0,-605.34 490.72,-1096.06 1096.05,-1096.06 605.34,0 1096.06,490.72 1096.06,1096.06z"/>
     <path class="fil2" d="M3842.55 2975.29c0,485.51 -393.59,879.1 -879.1,879.1 -485.5,0 -879.1,-393.58 -879.1,-879.1 0,-485.51 393.59,-879.1 879.1,-879.1 485.51,0 879.1,393.59 879.1,879.1z"/>
     <g>
      <g style="clip-path:url(#id2)">
       <image x="2534.69" y="2293.73" width="909.21" height="1411.22" xlink:href="terjangkau_Images\terjangkau_ImgID3.png"/>
      </g>
      <g>
       <path class="fil1" d="M3228.53 2736.8c-5.45,-6.35 -15.68,-14.07 -30.67,-23.17 -14.99,-9.07 -32.72,-18.39 -53.16,-27.93 -20.45,-9.54 -42.93,-18.16 -67.45,-25.89 -24.53,-7.71 -49.99,-12.95 -76.33,-15.67l0 235.77 34.06 8.18c47.23,12.72 90.17,26.35 128.79,40.88 38.62,14.54 71.33,32.7 98.14,54.52 26.78,21.8 47.47,47.93 62.02,78.36 14.51,30.45 21.79,67.93 21.79,112.44 0,49.98 -8.86,92.67 -26.58,128.1 -17.71,35.43 -41.8,64.52 -72.22,87.22 -30.44,22.73 -65.88,39.76 -106.31,51.11 -40.44,11.35 -82.92,17.94 -127.41,19.77l0 149.9 -81.78 0 0 -151.27c-63.61,-4.56 -125.63,-17.49 -186.04,-38.85 -60.42,-21.33 -115.16,-49.27 -164.21,-83.81l83.13 -162.18c7.27,7.28 19.75,16.83 37.49,28.62 17.71,11.82 39.04,23.4 64.05,34.75 24.97,11.37 52.68,22.05 83.12,32.03 30.44,10 62.02,16.83 94.72,20.44l0 -234.39c-8.17,-1.82 -16.34,-3.86 -24.53,-6.14 -8.17,-2.26 -16.34,-4.77 -24.53,-7.5 -46.34,-12.7 -86.54,-26.57 -120.61,-41.56 -34.06,-14.99 -62.47,-32.71 -85.17,-53.15 -22.72,-20.45 -39.76,-44.06 -51.11,-70.87 -11.37,-26.79 -17.03,-58.81 -17.03,-96.08 0,-45.42 7.95,-86.06 23.84,-121.97 15.89,-35.88 37.69,-66.55 65.42,-91.99 27.71,-25.42 60.65,-45.42 98.81,-59.97 38.17,-14.52 79.06,-23.61 122.67,-27.25l0 -139.01 81.78 0 0 137.64c59.96,4.56 115.16,16.83 165.57,36.8 50.42,20 94.73,43.17 132.89,69.5l-83.13 152.64zm-414.32 13.64l0 0c0,30.89 10.66,54.3 32.03,70.18 21.33,15.91 53.82,30.22 97.44,42.93l0 -220.77c-86.33,5.44 -129.47,41.35 -129.47,107.66zm331.18 442.92l0 0c0,-30.89 -12.74,-54.97 -38.15,-72.23 -25.45,-17.26 -60.89,-33.17 -106.3,-47.7l0 219.41c96.29,-2.73 144.46,-35.88 144.46,-99.48z"/>
      </g>
     </g>
     <path class="fil2" d="M2149.84 3024.4c0,-485.5 393.58,-879.1 879.1,-879.1 181.79,0 350.68,55.2 490.86,149.73 -151.55,-124.14 -345.15,-198.84 -556.35,-198.84 -485.5,0 -879.1,393.59 -879.1,879.1 0,274.94 126.29,520.33 323.95,681.52 -87.7,-89.23 -156.53,-197.08 -199.97,-317.07 -37.66,-97.92 -58.5,-204.17 -58.5,-315.35z"/>
    </g>
   </g>
  </g>
 </g>
</svg>
