<?xml version="1.0" encoding="UTF-8"?>
<!DOCTYPE svg PUBLIC "-//W3C//DTD SVG 1.1//EN" "http://www.w3.org/Graphics/SVG/1.1/DTD/svg11.dtd">
<!-- Creator: CorelDRAW 2019 (64-Bit) -->
<svg xmlns="http://www.w3.org/2000/svg" xml:space="preserve" width="68.4389mm" height="68.4389mm" version="1.1" style="shape-rendering:geometricPrecision; text-rendering:geometricPrecision; image-rendering:optimizeQuality; fill-rule:evenodd; clip-rule:evenodd"
viewBox="0 0 4338.86 4338.86"
 xmlns:xlink="http://www.w3.org/1999/xlink">
 <defs>
  <style type="text/css">
   <![CDATA[
    .fil0 {fill:none}
    .fil1 {fill:#616E7D;fill-rule:nonzero}
    .fil3 {fill:#82BFAB;fill-rule:nonzero}
    .fil2 {fill:#AAD4C8;fill-rule:nonzero}
   ]]>
  </style>
 </defs>
 <g id="Layer_x0020_1">
  <metadata id="CorelCorpID_0Corel-Layer"/>
  <g id="_2705098960736">
   <rect class="fil0" x="-0" y="-0" width="4338.86" height="4338.86"/>
   <g>
    <path class="fil1" d="M3932.16 3557.93l-15.88 -15.94 -384.65 384.61 9.36 9.28 102 101.84c65.35,65.49 204.44,32.41 310.74,-73.73 106.21,-106.34 139.26,-245.41 73.91,-310.74l-95.32 -95.32 -0.16 0z"/>
    <polygon class="fil2" points="3822.15,3449.48 3437.5,3833.85 3531.64,3926.6 3916.28,3541.99 3905.29,3531 3904.98,3531.16 "/>
    <path class="fil1" d="M1796.86 2820.26c-581.95,0 -1053.87,-471.78 -1053.87,-1053.86 0,-582.11 471.92,-1053.86 1053.87,-1053.86 582.1,0 1053.91,471.75 1053.91,1053.86 0,582.08 -471.81,1053.86 -1053.91,1053.86zm-20.49 -2552.76c-827.72,0 -1498.69,671.13 -1498.69,1498.9 0,827.74 670.96,1498.74 1498.69,1498.74 306.88,0 591.73,-92.36 829.42,-250.59l831.72 819.29 384.65 -384.36 -826.3 -813.84c175.22,-245.28 279.39,-544.87 279.39,-869.24 0,-827.77 -670.96,-1498.9 -1498.88,-1498.9z"/>
    <path class="fil3" d="M1977.98 1114.29l-736.17 925.98c-24.33,30.79 -19.27,75.54 11.49,100.17 13.14,10.28 28.78,15.39 44.35,15.39 20.83,0 41.74,-9.11 55.78,-26.91l736.08 -926.04c24.53,-30.79 19.27,-75.49 -11.54,-99.99 -30.77,-24.29 -75.63,-19.41 -100,11.4z"/>
    <path class="fil3" d="M2286.72 1423l-736.21 926.02c-24.5,30.79 -19.27,75.5 11.54,100.15 13.12,10.3 28.77,15.39 44.28,15.39 20.9,0 41.66,-9.26 55.71,-26.91l736.22 -926.02c24.47,-30.79 19.27,-75.52 -11.54,-100.15 -30.68,-24.36 -75.63,-19.25 -100,11.52z"/>
   </g>
  </g>
 </g>
</svg>
