<?xml version="1.0" encoding="UTF-8"?>
<!DOCTYPE svg PUBLIC "-//W3C//DTD SVG 1.1//EN" "http://www.w3.org/Graphics/SVG/1.1/DTD/svg11.dtd">
<!-- Creator: CorelDRAW 2019 (64-Bit) -->
<svg xmlns="http://www.w3.org/2000/svg" xml:space="preserve" width="55.3008mm" height="55.3008mm" version="1.1" style="shape-rendering:geometricPrecision; text-rendering:geometricPrecision; image-rendering:optimizeQuality; fill-rule:evenodd; clip-rule:evenodd"
viewBox="0 0 4092.57 4092.57"
 xmlns:xlink="http://www.w3.org/1999/xlink">
 <defs>
  <style type="text/css">
   <![CDATA[
    .fil0 {fill:none}
    .fil2 {fill:none;fill-rule:nonzero}
    .fil4 {fill:#1F7E4E}
    .fil1 {fill:#C2D75E}
    .fil8 {fill:#C2D75E;fill-rule:nonzero}
    .fil7 {fill:black;fill-rule:nonzero;fill-opacity:0.121569}
    .fil3 {fill:#1F7E4E;fill-opacity:0.200000}
    .fil6 {fill:white;fill-rule:nonzero;fill-opacity:0.200000}
    .fil9 {fill:white;fill-opacity:0.400000}
    .fil5 {fill:white;fill-rule:nonzero;fill-opacity:0.400000}
   ]]>
  </style>
 </defs>
 <g id="Layer_x0020_1">
  <metadata id="CorelCorpID_0Corel-Layer"/>
  <g id="_2108430581232">
   <rect class="fil0" x="-0" y="-0" width="4092.57" height="4092.57"/>
   <path class="fil1" d="M943.2 1037.88c13.58,-20.23 13.27,-47.49 13.51,-57.04 0.91,-34.4 -8.06,-72.26 -17.28,-104.96 -10.33,-36.68 -17.95,-74.19 -28.28,-110.84 -18.83,-66.81 -49.92,-131.61 -73.84,-196.8 -12.57,-34.25 -24.16,-106.44 -75.63,-85.31 -61.16,25.1 -82.43,87.13 -69.94,149.48 5.26,26.27 20.28,49.5 31.57,73.42 19.26,40.79 40.24,79.47 61.57,119.16 11.81,21.98 22.81,44.47 35.48,66.07 24.43,41.65 40.5,95.12 73.15,130.78 6.13,6.69 36.11,36.27 49.7,16.04z"/>
   <path class="fil1" d="M722.16 1196.03c-0.04,-24.38 -16.18,-52.37 -30.4,-70.45 -34.56,-43.91 -91.69,-97.42 -163.43,-148.85 -119.12,-85.42 -136.92,-96.95 -172.74,-67.38 -18.27,15.09 -22.14,99.37 47.65,156.37 99.43,81.21 209.83,152.01 246.3,165.3 10.75,3.91 72.7,15.79 72.62,-35z"/>
   <path class="fil2" d="M413.65 1729.92c335.1,-504.99 1337.69,-592.12 2239.36,-194.58 901.68,397.52 1360.98,1129.16 1025.9,1634.16 -335.09,505 -1337.69,592.12 -2239.36,194.59 -901.68,-397.53 -1360.98,-1129.17 -1025.89,-1634.17z"/>
   <path class="fil3" d="M1906.16 981.31l-1328.79 2095.36c0,0 -241.04,522.61 326.99,536.79l2452.39 -540.62c0,0 712.59,-162.12 232.65,-761.56l-836.91 -1252.25c0,0 -442.43,-606.35 -846.33,-77.72z"/>
   <path class="fil4" d="M3403.73 1308.6c0,0 -2088.37,-149.28 -2334.78,-157.4 -246.41,-8.12 -317.39,254.86 -309.57,362.52l-77.94 1045.17c0,0 -75.65,306.5 421.9,356.65l725.01 89.52c0,0 91.76,280.57 -39.21,491.69 0,0 -20.41,78.79 83.77,52.04 104.17,-26.75 465.58,-281.15 504.42,-507.83 0.42,-2.41 610.78,2.77 800.16,12.08 189.37,9.32 336.73,-31.65 357.58,-209.07l30.62 -209.69 144.51 -989.77c0,0 55.83,-353.37 -306.47,-335.92z"/>
   <path class="fil5" d="M904.37 1468.75c0.41,-6.69 -2.48,-13.37 -7.88,-17.42 -12.74,-9.83 -31.52,-1.34 -32.53,14.71l-5.76 85.95c-0.42,6.69 2.48,13.37 7.88,17.43 12.74,9.82 31.52,1.33 32.52,-14.72l5.77 -85.95zm-98.01 856.84c-0.41,6.69 2.49,13.37 7.89,17.42 12.74,9.83 31.51,1.34 32.52,-14.71l11.52 -171.91c0.41,-6.69 -2.49,-13.37 -7.89,-17.43 -12.74,-9.82 -31.51,-1.33 -32.52,14.72l-11.52 171.91zm17.29 -257.86c-0.42,6.69 2.48,13.37 7.88,17.42 12.74,9.83 31.51,1.34 32.52,-14.71l11.52 -171.91c0.41,-6.69 -2.48,-13.37 -7.88,-17.42 -12.74,-9.83 -31.52,-1.34 -32.53,14.71l-11.52 171.91zm17.28 -257.86c-0.42,6.69 2.48,13.37 7.88,17.42 12.74,9.83 31.51,1.34 32.52,-14.71l11.52 -171.91c0.41,-6.69 -2.48,-13.37 -7.88,-17.42 -12.74,-9.83 -31.52,-1.34 -32.52,14.71l-11.52 171.91z"/>
   <path class="fil5" d="M1048.87 2802.38c-6.28,-0.79 -12.6,1.42 -17.01,5.97 -11.62,11.99 -4.56,32.13 12,34.21l85.48 10.67c6.28,0.78 12.6,-1.42 17.02,-5.97 11.61,-11.99 4.55,-32.13 -12.01,-34.21l-85.48 -10.67zm823.98 143.68c6.28,0.78 12.61,-1.42 17.02,-5.97 11.61,-11.99 4.55,-32.13 -12,-34.21l-145.12 -18.12c-6.28,-0.78 -12.61,1.42 -17.02,5.97 -11.61,11.99 -4.55,32.14 12,34.21l145.12 18.12zm-230.61 -28.8c6.28,0.78 12.6,-1.42 17.02,-5.97 11.61,-11.99 4.55,-32.14 -12,-34.21l-170.97 -21.35c-6.29,-0.78 -12.61,1.42 -17.02,5.97 -11.62,11.99 -4.56,32.13 12,34.21l170.97 21.35zm-256.45 -32.02c6.28,0.78 12.61,-1.42 17.02,-5.97 11.61,-11.99 4.55,-32.13 -12,-34.21l-170.97 -21.34c-6.28,-0.79 -12.6,1.42 -17.02,5.97 -11.61,11.99 -4.55,32.13 12.01,34.21l170.96 21.34z"/>
   <path class="fil5" d="M1892.49 2915.18c-10.49,-16.54 -36.03,-10.06 -37.34,9.55 -0.19,4.34 0.74,8.34 3.08,12.03l0.1 0.16 -0.04 -0.07c3.6,5.88 6.97,11.94 10.21,18.03 9.67,18.14 18.35,36.92 26.06,55.96 6.87,17.15 31.73,16.62 37.85,-0.92 1.68,-4.7 1.5,-9.74 -0.35,-14.36 -6.85,-16.91 -14.42,-33.5 -22.65,-49.79 -5.21,-10.2 -10.77,-20.8 -16.86,-30.52l0.19 0.31 -0.24 -0.39zm370.44 172.93c7.52,-17.41 -11.4,-34.81 -28.17,-25.78 -4.1,2.15 -7.26,5.68 -9.09,9.92 -21.43,51.01 -53,98.04 -87.92,140.75 -10.26,12.25 -2.34,31.57 13.62,32.99 6.76,0.75 13.34,-2.12 17.67,-7.3 37.39,-45.71 70.94,-95.99 93.88,-150.59zm-152.89 215.9c5.95,-5.95 7.62,-15.39 3.91,-22.97 -6.17,-12.65 -22.7,-15.5 -32.65,-5.55 -39.79,40.21 -82.52,77.29 -127.36,111.75 -6.62,5.05 -9.47,13.79 -7.11,21.77 4.03,13.65 20.46,18.99 31.76,10.36 46.37,-35.77 90.23,-73.7 131.45,-115.35zm-202.43 166.43c7.31,-4.94 10.54,-13.71 8.27,-22.22 -0.35,-1.25 -0.79,-2.43 -1.34,-3.55 19.16,-30.74 34.23,-64.07 44.81,-98.71 1.68,-5.51 0.89,-11.31 -2.04,-16.26 -9.1,-15.03 -31.63,-12.2 -36.74,4.59 -13.68,44.78 -34.76,84.52 -63.07,121.75 -5.17,6.78 -5.57,15.96 -1.02,23.17 6.38,9.95 19.47,12.11 28.55,5.86 7.58,-4.83 15.08,-9.64 22.56,-14.63zm28.37 -216.42c-0.68,8.22 3.69,15.96 11.01,19.72 12.86,6.43 28.14,-2.04 29.34,-16.41 5.05,-59.57 -1.41,-119.7 -16.36,-177.49 -4.79,-18.74 -31.07,-20.54 -38.34,-2.56 -1.68,4.04 -1.93,8.51 -0.85,12.74 13.85,53.15 19.85,109.21 15.2,164z"/>
   <path class="fil5" d="M2249.06 2994.01c-5.61,18.42 15.59,33.57 31.21,22.29 3.61,-2.54 6.28,-6.37 7.56,-10.58l20.48 -67.8c11.02,-8.12 11.89,-26.91 -3.06,-34.57 -2.8,-1.3 -5.17,-1.93 -8.27,-2.06l-2.86 -0.1c-4.57,-0.5 -9.41,0.58 -13.8,3.76 -3.61,2.54 -6.28,6.37 -7.55,10.58l-23.71 78.47zm976.04 -21.73c21.7,0.45 29.07,-28.43 9.6,-38.41 -2.8,-1.3 -5.17,-1.93 -8.27,-2.06l-68.44 -2.25c-21.7,-0.45 -29.07,28.43 -9.59,38.41 2.8,1.3 5.17,1.92 8.27,2.06l68.44 2.25zm-154.55 -5.08c21.71,0.45 29.08,-28.43 9.6,-38.41 -2.8,-1.3 -5.17,-1.93 -8.27,-2.06l-172.2 -5.65c-21.7,-0.45 -29.07,28.43 -9.6,38.41 2.8,1.3 5.17,1.92 8.27,2.06l172.2 5.65zm-258.3 -8.48c21.71,0.45 29.07,-28.43 9.6,-38.41 -2.8,-1.3 -5.17,-1.93 -8.27,-2.06l-172.2 -5.65c-21.7,-0.46 -29.07,28.43 -9.6,38.41 2.8,1.3 5.17,1.92 8.27,2.06l172.2 5.65zm-258.3 -8.48c21.7,0.45 29.07,-28.43 9.6,-38.41 -2.8,-1.3 -5.17,-1.93 -8.27,-2.06l-172.2 -5.65c-21.71,-0.45 -29.07,28.43 -9.6,38.41 2.8,1.3 5.17,1.93 8.27,2.06l172.2 5.65z"/>
   <path class="fil5" d="M3228.22 2931.68l-0.25 -0.02c-21.32,-2.43 -31.78,26.27 -12.71,38.02 2.57,1.48 5.03,2.35 7.97,2.72l0.17 0.03 -0.04 -0.01 0.63 0.07c4.23,0.77 10.95,0.83 15.33,0.98 41.77,1.07 84.42,-5.42 122.35,-23.55 7.65,-3.69 12.24,-11.43 11.69,-19.91 -0.95,-14.32 -16.27,-23.43 -29.25,-17.17 -33.82,16.16 -78.09,22.41 -115.46,18.89l0.07 0.01 -0.49 -0.05zm231.5 -116.12c1.52,-9.7 -3.72,-19.06 -12.97,-22.56 -11.96,-4.54 -25.51,3.07 -27.5,15.81 -1.18,6.92 -2.66,13.61 -4.6,20.35 -6.37,21.94 22.77,36.6 36.54,17.47 1.25,-1.84 2.19,-3.76 2.81,-5.91 2.43,-8.32 4.25,-16.62 5.71,-25.16zm-231.5 116.12l0.23 0.03 -0.23 -0.03z"/>
   <path class="fil5" d="M3419.4 2809.67c-2.15,17.22 17.04,29.01 31.43,19.29 4.88,-3.43 8.01,-8.3 8.75,-14.25l10.72 -85.48c2.15,-17.21 -17.04,-29.01 -31.44,-19.29 -4.88,3.43 -8,8.3 -8.75,14.25l-10.71 85.48zm179.45 -1106.18c2.15,-17.21 -17.04,-29.01 -31.44,-19.29 -4.88,3.43 -8,8.3 -8.74,14.25l-21.43 170.96c-2.15,17.21 17.04,29.01 31.43,19.29 4.88,-3.43 8.01,-8.3 8.75,-14.25l21.43 -170.96zm-32.15 256.44c2.15,-17.22 -17.04,-29.02 -31.43,-19.29 -4.88,3.43 -8.01,8.3 -8.75,14.25l-21.42 170.96c-2.15,17.22 17.04,29.02 31.44,19.29 4.88,-3.43 8,-8.3 8.74,-14.25l21.42 -170.95zm-32.13 256.44c2.15,-17.22 -17.04,-29.02 -31.44,-19.29 -4.88,3.43 -8,8.31 -8.75,14.25l-21.42 170.96c-2.15,17.21 17.04,29.01 31.44,19.29 4.88,-3.43 8,-8.3 8.75,-14.25l21.42 -170.95zm-32.14 256.43c2.15,-17.22 -17.04,-29.01 -31.43,-19.29 -4.88,3.43 -8.01,8.3 -8.75,14.25l-21.42 170.95c-2.15,17.22 17.04,29.01 31.43,19.29 4.88,-3.43 8.01,-8.3 8.75,-14.25l21.42 -170.95z"/>
   <path class="fil5" d="M3566.32 1641.92l-0.13 0.34 0.13 -0.34zm-2702.14 -177.75c-1,5.99 0.87,12.28 4.95,16.78 11.46,12.6 32.23,6.42 35.03,-10.34l0.19 -1.1c1.32,-7.94 -2.01,-15.51 -8.57,-20.12 -12.18,-8.23 -28.93,-1.19 -31.36,13.37l-0.24 1.42zm25.41 -88.83c-7.85,18.18 11.91,35.61 28.96,25.55 3.72,-2.35 6.23,-5.12 8.06,-9.14 21.72,-50.13 58.29,-86 109.01,-106.04 17.78,-6.71 17.2,-32.27 -0.94,-38.18 -4.58,-1.38 -8.94,-1.37 -13.45,0.33 -60.58,23.64 -105.76,67.74 -131.64,127.47zm131.64 -127.47l14.39 37.85 -14.39 -37.85zm89.38 -19.72c-20,1.67 -25.61,28.49 -7.93,38.01 3.53,1.86 7.26,2.68 11.24,2.35 27.74,-2.29 55.08,-1.61 82.79,0.54 16.19,1.22 32.3,3.14 48.47,4.47 8.6,0.65 17.98,1.41 26.5,-0.33 4.17,-0.6 8.46,-0.57 12.68,-0.63 21.92,-0.46 27.84,-30.25 7.46,-38.99 -2.6,-1.05 -5.08,-1.51 -7.9,-1.51 -5.7,0.09 -11.26,0.21 -16.94,0.87l-1.87 0.29 -2.07 0.43 0.24 -0.05c-3.91,0.59 -10.88,-0.13 -14.88,-0.45 -16.18,-1.35 -32.3,-3.24 -48.5,-4.46 -29.73,-2.39 -59.55,-3 -89.3,-0.53zm260.51 6.28c-19.69,-0.82 -28.82,24.24 -13.2,36.28 3.4,2.55 7.2,3.99 11.46,4.17 57.24,2.45 114.58,5.54 171.77,8.93 8.02,0.5 15.44,-3.86 19.17,-10.94 6.7,-13.07 -2.21,-28.57 -16.83,-29.48 -57.4,-3.37 -114.91,-6.51 -172.36,-8.96zm258.41 14.05c-6.31,-0.39 -12.5,2.22 -16.61,7.04 -10.85,12.71 -2.52,32.34 14.15,33.38 57.3,3.46 114.61,7.02 171.89,10.77 20.54,1.28 29.65,-25.49 12.59,-37.02 -2.95,-2 -6.44,-3.17 -9.99,-3.4 -57.32,-3.74 -114.68,-7.31 -172.03,-10.77zm258.01 16.35c-20.37,-1.27 -29.68,25.03 -12.83,36.87 3.09,2.09 6.46,3.31 10.18,3.54 57.3,3.74 114.59,7.56 171.88,11.43 6.59,0.41 12.98,-2.31 17.12,-7.49 10.23,-12.79 1.88,-31.9 -14.4,-32.91 -57.32,-3.86 -114.63,-7.69 -171.96,-11.43zm257.92 17.26c-9.05,-0.56 -17.23,4.72 -20.39,13.22 -4.68,12.56 4.26,26.34 17.64,27.17 57.3,3.9 114.58,7.84 171.86,11.81 9.05,0.57 17.24,-4.69 20.41,-13.2 4.67,-12.56 -4.21,-26.35 -17.61,-27.19 -57.3,-3.98 -114.61,-7.92 -171.91,-11.81zm257.86 17.79c-19.26,-1.21 -29.26,22.23 -14.71,35.46 3.51,3 7.3,4.55 11.9,4.94 57.29,3.98 114.57,8.01 171.86,12.07 19.4,1.21 29.27,-22.62 14.73,-35.45 -3.51,-3 -7.29,-4.56 -11.89,-4.94 -57.3,-4.06 -114.59,-8.08 -171.89,-12.07zm257.84 18.16c-8.06,-0.51 -15.36,3.49 -19.26,10.58 -6.9,13.13 1.62,28.58 16.38,29.81l171.84 12.27c16.48,1.03 27.16,-16.45 18.75,-30.7 -3.62,-5.73 -9.08,-9.12 -15.86,-9.68l-171.86 -12.27zm257.8 18.45c-15.56,-0.98 -26.3,14.72 -19.74,28.87 3.17,6.69 9.5,10.9 16.84,11.52 57.28,4.12 114.55,8.25 171.83,12.43 17.98,1.12 28.4,-19.35 16.87,-33.34 -3.73,-4.23 -8.31,-6.58 -13.93,-7.05l-171.86 -12.43zm257.78 18.69c-21.98,-1.37 -30.19,27.99 -10.69,38.22 2.47,1.27 4.99,1.93 7.75,2.16 57.27,4.13 114.55,8.33 171.82,12.6 9,0.56 17.04,-4.47 20.37,-12.88 4.78,-12.85 -3.72,-26.36 -17.4,-27.5 -57.27,-4.25 -114.56,-8.46 -171.85,-12.6zm257.75 18.94c-21.91,-1.37 -30.38,27.89 -10.49,38.33 2.46,1.2 4.8,1.83 7.53,2.05 17.21,1.19 56.3,17.27 72.13,26.26 21.91,12.33 41.2,29.82 54.04,51.54 9.14,15.99 33.52,12.18 37.36,-6.14 0.92,-5.07 0.24,-9.68 -2.33,-14.18 -16.41,-27.84 -40.81,-50.53 -68.9,-66.35 -26.49,-15.09 -54.78,-24.47 -84.48,-30.98 -0.9,-0.19 -1.8,-0.32 -2.7,-0.39 -0.67,-0.09 -1.47,-0.11 -2.15,-0.16zm-2.95 40.24l0.38 -5.2 -0.38 5.2zm186.59 149.34c-0.92,-21.93 -30.82,-27.21 -39.13,-6.68 -0.99,2.68 -1.41,5.07 -1.35,7.93 0.84,25.47 -2.99,51.09 -10.76,75.32l-0.58 1.65 0.02 -0.07 -0.07 0.19 0.04 -0.12 -0.04 0.12c-6.7,18.03 13.46,34.47 29.78,24.17 3.78,-2.46 6.54,-5.74 8.14,-9.98l0.24 -0.67 -0.02 0.05c1.19,-3.17 2.2,-6.53 3.16,-9.77 7.67,-26.51 11.47,-54.55 10.55,-82.15zm-51.81 78.22l0.11 -0.28 -0.11 0.28z"/>
   <path class="fil1" d="M1237.05 1006.47c20.54,-13.12 35.49,-41.78 43.11,-63.48 18.48,-52.72 32.95,-129.65 37.82,-217.79 8.09,-146.35 8.26,-167.56 -35.93,-181.9 -22.53,-7.32 -95.71,34.67 -106.32,124.16 -15.11,127.5 -15.54,258.63 -7.19,296.55 2.46,11.16 25.72,69.8 68.51,42.46z"/>
   <path class="fil6" d="M2222.89 2292.27c-2.61,37.14 -17.8,67.2 -45.51,90.12 -27.74,22.96 -61.08,33.04 -100.03,30.3 -36.6,-2.58 -67.63,-17.18 -93.05,-43.88 -25.42,-26.66 -36.85,-58.01 -34.32,-94.04l8.07 -114.81c3.49,-49.52 12.87,-81.1 28.17,-94.75 15.29,-13.6 28.72,-22.29 40.35,-26.01 11.6,-3.69 52.25,-8.47 121.95,-14.33 69.68,-5.85 107.15,-45.92 112.37,-120.21 2.46,-34.88 -9.21,-64.55 -34.95,-89 -25.77,-24.42 -60.64,-38.19 -104.59,-41.29 -30.93,-2.18 -58.69,2.1 -83.32,12.8 -24.66,10.73 -51.17,30.93 -79.51,60.59l-26.98 26.95c-29.42,27.36 -62.54,39.72 -99.37,37.13 -35.66,-2.51 -64.01,-15.8 -84.99,-39.91 -21.01,-24.1 -30.19,-54.73 -27.58,-91.88 5.39,-76.54 50.49,-140.68 135.37,-192.4 84.85,-51.73 181.36,-73.79 289.53,-66.18 128.37,9.03 231.18,50.19 308.45,123.5 77.26,73.31 112.13,163.44 104.61,270.37 -6.81,96.82 -36.51,166.56 -89.07,209.24 -52.59,42.69 -92.69,69.57 -120.34,80.61 -27.66,11.08 -68.11,21.52 -121.35,31.34l-3.91 55.73zm-151.59 206.53l0 0c42.54,2.99 77.85,19.9 105.98,50.72 28.12,30.82 40.76,66.5 37.91,107.02 -2.85,40.53 -20.32,73.53 -52.4,98.98 -32.08,25.44 -69.96,36.65 -113.67,33.58 -41.36,-2.91 -75.83,-19.49 -103.39,-49.69 -27.58,-30.19 -39.97,-65.01 -37.2,-104.43 2.85,-40.52 20.32,-74.08 52.48,-100.66 32.16,-26.58 68.91,-38.42 110.28,-35.52z"/>
   <path class="fil7" d="M2325.17 2299.46c-2.61,37.14 -17.8,67.2 -45.51,90.12 -27.73,22.95 -61.08,33.04 -100.03,30.29 -36.6,-2.57 -67.63,-17.18 -93.05,-43.87 -25.42,-26.66 -36.85,-58.01 -34.32,-94.04l8.07 -114.82c3.49,-49.52 12.87,-81.1 28.16,-94.74 15.29,-13.61 28.73,-22.29 40.36,-26.01 11.6,-3.69 52.25,-8.47 121.95,-14.33 69.68,-5.84 107.15,-45.91 112.37,-120.21 2.46,-34.88 -9.21,-64.55 -34.95,-89 -25.77,-24.43 -60.64,-38.19 -104.59,-41.29 -30.93,-2.18 -58.69,2.1 -83.32,12.8 -24.67,10.73 -51.17,30.92 -79.51,60.59l-26.98 26.95c-29.42,27.37 -62.54,39.73 -99.37,37.14 -35.66,-2.51 -64.01,-15.8 -84.99,-39.91 -21.01,-24.1 -30.19,-54.73 -27.58,-91.88 5.39,-76.54 50.49,-140.68 135.37,-192.41 84.85,-51.72 181.36,-73.78 289.53,-66.18 128.37,9.02 231.18,50.19 308.45,123.5 77.26,73.3 112.13,163.43 104.61,270.36 -6.81,96.82 -36.51,166.56 -89.07,209.24 -52.59,42.7 -92.69,69.57 -120.34,80.62 -27.66,11.08 -68.11,21.51 -121.35,31.34l-3.91 55.73zm-151.59 206.53l0 0c42.54,2.99 77.85,19.89 105.98,50.72 28.13,30.82 40.77,66.5 37.92,107.02 -2.85,40.53 -20.32,73.53 -52.4,98.98 -32.08,25.45 -69.96,36.65 -113.67,33.58 -41.36,-2.91 -75.83,-19.49 -103.39,-49.7 -27.58,-30.19 -39.97,-65.01 -37.2,-104.42 2.85,-40.52 20.32,-74.08 52.48,-100.66 32.16,-26.58 68.91,-38.43 110.28,-35.52z"/>
   <path class="fil8" d="M2274.03 2295.87c-2.61,37.14 -17.8,67.2 -45.51,90.12 -27.74,22.95 -61.08,33.03 -100.03,30.29 -36.6,-2.57 -67.63,-17.18 -93.05,-43.87 -25.42,-26.66 -36.85,-58.01 -34.32,-94.04l8.07 -114.82c3.49,-49.52 12.87,-81.1 28.17,-94.73 15.28,-13.61 28.72,-22.29 40.35,-26.01 11.6,-3.69 52.25,-8.47 121.95,-14.33 69.67,-5.85 107.15,-45.92 112.38,-120.21 2.45,-34.88 -9.21,-64.55 -34.96,-88.99 -25.77,-24.44 -60.64,-38.2 -104.59,-41.3 -30.93,-2.18 -58.69,2.1 -83.32,12.8 -24.67,10.73 -51.16,30.92 -79.5,60.59l-26.98 26.95c-29.42,27.35 -62.53,39.72 -99.37,37.13 -35.66,-2.51 -64,-15.8 -84.99,-39.91 -21.01,-24.1 -30.19,-54.73 -27.58,-91.88 5.38,-76.54 50.49,-140.68 135.37,-192.4 84.85,-51.73 181.36,-73.79 289.53,-66.18 128.37,9.03 231.19,50.19 308.45,123.5 77.26,73.3 112.14,163.44 104.61,270.36 -6.81,96.83 -36.52,166.56 -89.07,209.24 -52.59,42.7 -92.69,69.58 -120.34,80.62 -27.66,11.08 -68.11,21.51 -121.35,31.34l-3.91 55.73zm-151.59 206.53l0 0c42.54,2.99 77.85,19.9 105.98,50.72 28.12,30.82 40.75,66.5 37.91,107.02 -2.85,40.52 -20.31,73.53 -52.4,98.98 -32.08,25.44 -69.96,36.65 -113.67,33.58 -41.38,-2.91 -75.84,-19.49 -103.39,-49.69 -27.58,-30.19 -39.97,-65.01 -37.2,-104.42 2.85,-40.53 20.32,-74.09 52.48,-100.67 32.16,-26.59 68.91,-38.42 110.28,-35.52z"/>
   <path class="fil5" d="M841.76 2399.09l0.01 -0.05c1.76,-7.64 -1.11,-15.5 -7.21,-20.37 -11.76,-9.15 -28.88,-3.14 -32.27,11.37l39.47 9.05zm202.08 443.46c8.99,1.12 17.59,-3.82 21.16,-12.16 5.28,-12.31 -2.82,-26.35 -16.1,-28.02 -37.64,-4.91 -73.3,-15.05 -105.87,-35.01 -18.07,-11.02 -38.82,9.34 -28,27.68 1.75,2.85 3.84,4.94 6.68,6.74 37.94,23.16 78.28,35.03 122.13,40.77zm-190.9 -104.02c10.41,14.51 33.55,9.07 36.36,-8.59 0.95,-5.28 -0.48,-10.86 -3.59,-15.19 -32.32,-44.06 -47.05,-97.04 -52.6,-150.78 -0.88,-8.41 -6.72,-15.31 -14.88,-17.53 -13.62,-3.72 -26.88,7.54 -25.41,21.57 6.33,61.05 23.42,120.5 60.11,170.52zm-61.94 -259.69c-0.75,17.94 19.86,28.03 33.46,16.42 4.25,-3.86 6.62,-8.44 6.97,-14.21l0.11 -1.92c1.54,-26.04 4.57,-52.36 9.75,-77.94l0.46 -2.11 -10.32 81.97 -29.14 -91.02c-0.36,1.38 -0.64,2.95 -0.93,4.37 -5.51,27.83 -8.75,56.09 -10.35,84.4l0 0.04zm11.29 -88.81l39.46 9.05 -0.02 0.1 0.03 -0.1 -39.47 -9.05z"/>
   <path class="fil9" d="M831.55 2479.15c1.54,-26.04 4.57,-52.37 9.75,-77.95l0.46 -2.1 -39.47 -9.06 29.14 91.02 0.11 -1.91z"/>
  </g>
 </g>
</svg>
