<?xml version="1.0" encoding="UTF-8"?>
<!DOCTYPE svg PUBLIC "-//W3C//DTD SVG 1.1//EN" "http://www.w3.org/Graphics/SVG/1.1/DTD/svg11.dtd">
<!-- Creator: CorelDRAW 2019 (64-Bit) -->
<svg xmlns="http://www.w3.org/2000/svg" xml:space="preserve" width="55.3008mm" height="55.3008mm" version="1.1" style="shape-rendering:geometricPrecision; text-rendering:geometricPrecision; image-rendering:optimizeQuality; fill-rule:evenodd; clip-rule:evenodd"
viewBox="0 0 5522.57 5522.57"
 xmlns:xlink="http://www.w3.org/1999/xlink">
 <defs>
  <style type="text/css">
   <![CDATA[
    .fil0 {fill:none}
    .fil6 {fill:#09A59D;fill-rule:nonzero}
    .fil2 {fill:#177144;fill-rule:nonzero}
    .fil7 {fill:#1F7E4E;fill-rule:nonzero}
    .fil5 {fill:#333333;fill-rule:nonzero}
    .fil9 {fill:#B4C757;fill-rule:nonzero}
    .fil8 {fill:#C2D75E;fill-rule:nonzero}
    .fil4 {fill:#E6E8E8;fill-rule:nonzero}
    .fil3 {fill:white;fill-rule:nonzero}
    .fil10 {fill:black;fill-rule:nonzero;fill-opacity:0.101961}
    .fil1 {fill:#1F7E4E;fill-rule:nonzero;fill-opacity:0.200000}
   ]]>
  </style>
 </defs>
 <g id="Layer_x0020_1">
  <metadata id="CorelCorpID_0Corel-Layer"/>
  <g id="_2143029660352">
   <rect class="fil0" x="-0" y="0" width="5522.57" height="5522.57"/>
   <path class="fil1" d="M4688.86 2898.87c0,-1017.78 -825.07,-1842.83 -1842.82,-1842.83 -1017.76,0 -1842.81,825.06 -1842.81,1842.83 0,1017.77 825.06,1842.81 1842.81,1842.81 1017.76,0 1842.82,-825.05 1842.82,-1842.81z"/>
   <path class="fil2" d="M4122.25 3341.87l-1337.35 788.65 -1337.35 -788.65c0,-0.66 0,-1.53 0.22,-2.19 1.09,-5 74.91,-66.62 187.48,-158.08 1.08,-0.87 1.96,-1.74 3.05,-2.62 369.29,-299.82 1146.61,-913.85 1146.61,-913.85 0,0 777.32,614.03 1146.61,913.85 114.3,92.76 189.43,155.47 190.52,160.69 0.22,0.66 0.22,1.53 0.22,2.19z"/>
   <path class="fil3" d="M3334.9 1612.01l-1442.92 0c-123.76,0 -224.1,100.33 -224.1,224.1l0 2181.67c0,123.76 100.33,224.1 224.1,224.1l1808.02 0c123.77,0 224.1,-100.33 224.1,-224.1l0 -1816.56 -589.2 -589.21z"/>
   <path class="fil4" d="M3334.9 1977.12c0,123.76 100.32,224.1 224.1,224.1l365.1 0 -589.2 -589.21 0 365.11z"/>
   <path class="fil5" d="M2586.82 1980.79l-497.8 0c-44.09,0 -79.83,35.74 -79.83,79.83l0 497.8c0,44.09 35.74,79.83 79.83,79.83l497.8 0c44.1,0 79.83,-35.74 79.83,-79.83l0 -497.8c0,-44.09 -35.73,-79.83 -79.83,-79.83z"/>
   <path class="fil6" d="M3268.77 2820.95l-1194.47 0c-35.52,0 -64.32,28.8 -64.32,64.31 0,35.53 28.8,64.33 64.32,64.33l1194.47 0c35.52,0 64.31,-28.8 64.31,-64.33 0,-35.51 -28.79,-64.31 -64.31,-64.31z"/>
   <path class="fil6" d="M3268.77 3141.37l-1194.47 0c-35.52,0 -64.32,28.79 -64.32,64.31 0,35.52 28.8,64.31 64.32,64.31l1194.47 0c35.52,0 64.31,-28.79 64.31,-64.31 0,-35.52 -28.79,-64.31 -64.31,-64.31z"/>
   <path class="fil6" d="M2726.3 3452.18l-652 0c-35.52,0 -64.32,28.8 -64.32,64.31 0,35.53 28.8,64.33 64.32,64.33l652 0c35.52,0 64.31,-28.8 64.31,-64.33 0,-35.51 -28.79,-64.31 -64.31,-64.31z"/>
   <path class="fil7" d="M4122.39 3341.81l0 1283.03c0,89.66 -73.29,162.96 -162.97,162.96l-2349.2 0c-89.67,0 -162.53,-73.3 -162.53,-162.96l0 -1283.03 1337.35 788.52 1337.34 -788.52z"/>
   <path class="fil2" d="M4077.19 4736.73l-860.76 -860.75 -431.37 254.34 -431.56 -254.45 -860.83 860.81c29.63,31.3 71.22,51.11 117.57,51.11l2349.2 0c46.33,0 88.02,-19.78 117.76,-51.06z"/>
   <polygon class="fil8" points="3081.71,1535.57 3622.49,2804.43 4017.74,2534.03 4246.8,2866.85 4288.13,2305.41 4766.48,2013.92 "/>
   <polygon class="fil9" points="4105.36,2473.97 3622.49,2804.43 4017.74,2534.03 4246.8,2866.85 4288.13,2305.41 3525.91,1851.45 "/>
   <polygon class="fil10" points="4277.99,2443.03 3525.91,1851.45 4288.13,2305.41 "/>
   <path class="fil6" d="M3127.56 1911.83l175.41 402.5c8.92,20.52 -0.52,44.39 -21.07,53.26l-6.25 2.71c-20.63,8.9 -44.58,-0.73 -53.31,-21.43l-169.15 -405.22c-8.95,-21.24 1.64,-45.66 23.26,-53.65 20.13,-7.43 42.56,2.15 51.11,21.83z"/>
   <path class="fil8" d="M956.27 3743.44c-71.22,0 -128.97,57.73 -128.97,128.96 0,71.22 57.75,128.96 128.97,128.96 71.22,0 128.96,-57.74 128.96,-128.96 0,-71.23 -57.74,-128.96 -128.96,-128.96zm0 181.16l0 0c-28.83,0 -52.2,-23.37 -52.2,-52.2 0,-28.83 23.37,-52.21 52.2,-52.21 28.83,0 52.2,23.38 52.2,52.21 0,28.83 -23.37,52.2 -52.2,52.2z"/>
   <path class="fil8" d="M4412.05 4265.29c-71.22,0 -128.96,57.74 -128.96,128.96 0,71.22 57.74,128.96 128.96,128.96 71.23,0 128.96,-57.74 128.96,-128.96 0,-71.22 -57.73,-128.96 -128.96,-128.96zm0 181.17l0 0c-28.83,0 -52.2,-23.38 -52.2,-52.21 0,-28.82 23.37,-52.2 52.2,-52.2 28.83,0 52.2,23.38 52.2,52.2 0,28.83 -23.37,52.21 -52.2,52.21z"/>
   <path class="fil8" d="M4934.32 2630.97c-54.54,0 -98.74,44.2 -98.74,98.74 0,54.54 44.2,98.74 98.74,98.74 54.53,0 98.75,-44.2 98.75,-98.74 0,-54.54 -44.22,-98.74 -98.75,-98.74zm0 138.7l0 0c-22.07,0 -39.97,-17.9 -39.97,-39.97 0,-22.07 17.9,-39.98 39.97,-39.98 22.08,0 39.97,17.91 39.97,39.98 0,22.07 -17.89,39.97 -39.97,39.97z"/>
   <path class="fil8" d="M3728.46 682.73c-57.66,0 -104.4,46.74 -104.4,104.4 0,57.66 46.74,104.4 104.4,104.4 57.65,0 104.4,-46.74 104.4,-104.4 0,-57.66 -46.75,-104.4 -104.4,-104.4zm0 146.66l0 0c-23.35,0 -42.27,-18.91 -42.27,-42.26 0,-23.33 18.92,-42.25 42.27,-42.25 23.33,0 42.25,18.92 42.25,42.25 0,23.35 -18.92,42.26 -42.25,42.26z"/>
   <path class="fil8" d="M599.27 3205.76c-60.61,0 -109.76,49.14 -109.76,109.78 0,60.61 49.15,109.76 109.76,109.76 60.64,0 109.78,-49.15 109.78,-109.76 0,-60.64 -49.14,-109.78 -109.78,-109.78z"/>
   <path class="fil8" d="M4792.8 3478.63c-44.08,0 -79.82,35.75 -79.82,79.84 0,44.09 35.74,79.83 79.82,79.83 44.1,0 79.84,-35.74 79.84,-79.83 0,-44.09 -35.74,-79.84 -79.84,-79.84z"/>
   <path class="fil8" d="M2149.01 715.55c-64.44,0 -116.69,52.24 -116.69,116.68 0,64.44 52.25,116.68 116.69,116.68 64.43,0 116.67,-52.24 116.67,-116.68 0,-64.44 -52.24,-116.68 -116.67,-116.68z"/>
   <path class="fil8" d="M2773.66 4942.19c-46.95,0 -85.02,38.07 -85.02,85.02 0,46.95 38.08,85.02 85.02,85.02 46.95,0 85.01,-38.08 85.01,-85.02 0,-46.96 -38.07,-85.02 -85.01,-85.02z"/>
   <path class="fil8" d="M4419.5 1165.6c-55.11,0 -99.79,44.68 -99.79,99.8 0,55.11 44.69,99.78 99.79,99.78 55.13,0 99.8,-44.68 99.8,-99.78 0,-55.13 -44.68,-99.8 -99.8,-99.8z"/>
   <path class="fil8" d="M676.26 2400.64c-31.37,0 -56.8,25.43 -56.8,56.81 0,31.36 25.44,56.79 56.8,56.79 31.38,0 56.81,-25.44 56.81,-56.79 0,-31.39 -25.44,-56.81 -56.81,-56.81z"/>
   <path class="fil8" d="M4928.53 1764.61c-53.52,0 -96.91,43.39 -96.91,96.92 0,53.52 43.39,96.91 96.91,96.91 53.53,0 96.92,-43.39 96.92,-96.91 0,-53.53 -43.39,-96.92 -96.92,-96.92z"/>
   <path class="fil8" d="M729.46 1457.19c-34.15,0 -61.85,27.69 -61.85,61.84 0,34.15 27.69,61.84 61.85,61.84 34.14,0 61.83,-27.68 61.83,-61.84 0,-34.14 -27.68,-61.84 -61.83,-61.84z"/>
   <path class="fil8" d="M2934.03 508.22l38.83 -38.83c13.47,-13.47 13.47,-35.49 0,-48.96 -13.46,-13.46 -35.49,-13.46 -48.95,0l-38.84 38.84 -38.84 -38.84c-13.46,-13.46 -35.49,-13.46 -48.94,0 -13.47,13.47 -13.47,35.49 0,48.96l38.82 38.83 -38.82 38.85c-13.47,13.45 -13.47,35.49 0,48.95 13.45,13.46 35.48,13.46 48.94,0l38.84 -38.84 38.84 38.84c13.46,13.46 35.49,13.46 48.95,0 13.47,-13.46 13.47,-35.5 0,-48.95l-38.83 -38.85z"/>
   <path class="fil8" d="M1341.31 1128.48l38.84 -38.83c13.46,-13.47 13.46,-35.5 0,-48.96 -13.47,-13.46 -35.49,-13.46 -48.96,0l-38.83 38.84 -38.85 -38.84c-13.45,-13.46 -35.49,-13.46 -48.94,0 -13.47,13.46 -13.47,35.49 0,48.96l38.83 38.83 -38.83 38.85c-13.47,13.45 -13.47,35.49 0,48.95 13.45,13.46 35.49,13.46 48.94,0l38.85 -38.84 38.83 38.84c13.47,13.46 35.49,13.46 48.96,0 13.46,-13.46 13.46,-35.5 0,-48.95l-38.84 -38.85z"/>
   <path class="fil8" d="M4870.95 4053.42l32.9 -32.9c11.4,-11.4 11.4,-30.06 0,-41.46 -11.4,-11.4 -30.07,-11.4 -41.46,0l-32.9 32.9 -32.89 -32.9c-11.41,-11.4 -30.06,-11.4 -41.46,0 -11.4,11.4 -11.4,30.06 0,41.46l32.89 32.9 -32.89 32.89c-11.4,11.4 -11.4,30.06 0,41.46 11.4,11.4 30.05,11.4 41.46,0l32.89 -32.89 32.9 32.89c11.39,11.4 30.06,11.4 41.46,0 11.4,-11.4 11.4,-30.06 0,-41.46l-32.9 -32.89z"/>
  </g>
 </g>
</svg>
